<svg width="185" height="197" fill="none" xmlns="http://www.w3.org/2000/svg"><g clip-path="url(#clip0)"><path d="M157.834 24.839C121.213-4.968 72.04-11.135 46.25 24.153c-25.79 35.29-8.597 57.901-8.597 57.901s15.13 18.501 7.565 33.919c-4.47 9.079-28.713 31.006-1.031 61.326 27.68 30.321 61.724 25.525 105.223-14.046 43.327-39.4 48.313-105.695 8.424-138.414zM77.542 171.475c-6.19 2.056-17.194.171-22.008-9.936-1.891-4.111-3.438-12.333 4.47-17.815 10.145-7.195 21.664.514 24.759 9.25 3.095 8.737-.86 16.445-7.221 18.501z" fill="#F4BA45"/><path d="M65.679 26.21s-.344-7.538 7.909-9.251c8.253-1.713 15.13 1.199 17.709 8.565 2.579 7.366-2.58 18.33-9.285 18.843-6.705.514-15.645-10.278-16.333-18.158z" fill="#5FB1AF"/><path d="M114.851 32.547s1.204-9.764 11.863-8.736c7.737.685 17.882 12.334 18.225 18.672.344 6.338-12.035 13.19-18.912 13.704-7.049.343-12.723-11.648-11.176-23.64z" fill="#D62766"/><path d="M150.441 68.864s5.502-2.57 10.831 5.31c5.33 7.88 6.362 15.589 2.923 22.784-3.438 7.023-11.691 13.019-17.709 8.051-6.017-4.968.516-15.931-1.031-20.556-1.548-4.797-1.548-13.362 4.986-15.59z" fill="#184F5B"/><path d="M132.044 131.561s1.891-9.079 9.285-9.593c7.221-.514 15.989 14.047 13.582 18.844-2.407 4.796-14.27 12.162-21.663 12.676-7.393.343-10.488-12.334-1.204-21.927z" fill="#1F1F20"/><path opacity=".1" d="M112.788 73.832c-.172-.172-.172-.343-.344-.514l-.172-.171v.17c-.516-.513-.688 1.029-2.579 3.084-3.783 4.283-10.832 2.056-19.085 4.797-8.424 2.57-8.94 17.987-8.94 17.987l-8.425 6.338s-40.92 20.728-68.085 76.23c-1.204 2.57 1.547 5.311 4.126 4.112 11.691-5.653 30.776-17.473 49.86-41.113 13.927-17.302 22.352-30.492 22.352-30.492.344-.686 6.533-8.566 6.533-8.566s9.113 1.885 18.569-7.537 7.393-21.927 6.19-24.325z" fill="#1F1F20"/><path d="M68.43 99.527S27.51 120.255.344 175.758c-1.203 2.569 1.547 5.31 4.126 4.111 11.692-5.653 30.776-17.473 49.861-41.113 13.927-17.302 22.351-30.492 22.351-30.492l-8.252-8.737z" fill="#1F1F20"/><path d="M76.855 93.018s.515-15.418 8.94-17.987c8.425-2.57 15.474-.343 19.085-4.797 2.235-2.57 2.063-4.282 2.922-2.57 1.204 2.57 3.267 14.904-6.017 24.326-9.456 9.422-18.569 7.537-18.569 7.537l-6.361-6.51z" fill="#C57727"/><path d="M76.854 93.018l6.534 6.51s-6.19 7.879-6.534 8.565l-8.424-8.566 8.424-6.51z" fill="#5FB1AF"/><path opacity=".1" d="M83.216 99.527s9.112 1.884 18.569-7.537c9.456-9.422 7.393-21.756 6.017-24.325l-.344-.686s.86 3.769-2.407 9.593c-2.922 5.31-15.474 17.13-24.93 19.872l3.095 3.083z" fill="#1F1F20"/></g><defs><clipPath id="clip0"><path fill="#fff" d="M0 0h185v197H0z"/></clipPath></defs></svg>