<svg width="163" height="163" fill="none" xmlns="http://www.w3.org/2000/svg"><path d="M.155 81.403c0-4.145 5.937-7.818 6.597-11.774.66-4.05-3.864-9.42-2.639-13.281 1.32-3.956 8.105-5.557 9.895-9.137 1.885-3.673-.754-10.078 1.602-13.375 2.45-3.297 9.33-2.731 12.251-5.651 2.922-2.92 2.356-9.89 5.655-12.245 3.298-2.45 9.706.282 13.381-1.602 3.581-1.883 5.278-8.665 9.142-9.89 3.863-1.224 9.14 3.297 13.287 2.638 3.958-.66 7.633-6.594 11.78-6.594 4.146 0 7.822 5.934 11.78 6.594 4.052.659 9.423-3.862 13.287-2.638 3.958 1.319 5.56 8.1 9.141 9.89 3.676 1.884 10.084-.753 13.382 1.602 3.299 2.449 2.733 9.325 5.654 12.245 2.922 2.92 9.895 2.354 12.251 5.651 2.451 3.297-.282 9.702 1.602 13.375 1.885 3.58 8.67 5.275 9.896 9.137 1.225 3.862-3.299 9.136-2.639 13.28.66 3.957 6.597 7.63 6.597 11.775 0 4.144-5.937 7.818-6.597 11.774-.66 4.05 3.864 9.419 2.639 13.281-1.32 3.956-8.105 5.557-9.896 9.136-1.884 3.674.754 10.079-1.602 13.376-2.45 3.296-9.329 2.731-12.251 5.651-2.921 2.92-2.355 9.89-5.654 12.245-3.298 2.449-9.706-.283-13.382 1.601-3.581 1.884-5.277 8.666-9.141 9.89-3.864 1.225-9.14-3.296-13.287-2.637-3.958.659-7.634 6.594-11.78 6.594-4.147 0-7.822-5.935-11.78-6.594-4.052-.659-9.424 3.862-13.287 2.637-3.959-1.318-5.56-8.1-9.142-9.89-3.675-1.884-10.083.754-13.381-1.601-3.299-2.449-2.733-9.325-5.655-12.245-2.921-2.92-9.895-2.355-12.25-5.651-2.45-3.297.282-9.702-1.603-13.376-1.884-3.579-8.67-5.274-9.895-9.136-1.225-3.862 3.299-9.137 2.639-13.281-.66-3.956-6.597-7.63-6.597-11.774z" fill="#3C2915"/><path d="M81.2 151.387c38.671 0 70.02-31.333 70.02-69.985 0-38.65-31.349-69.984-70.02-69.984-38.67 0-70.018 31.333-70.018 69.984 0 38.652 31.348 69.985 70.019 69.985z" fill="url(#paint0_linear)"/><path d="M81.2 143.285c34.195 0 61.915-27.706 61.915-61.883 0-34.178-27.72-61.884-61.914-61.884-34.195 0-61.915 27.706-61.915 61.883 0 34.178 27.72 61.884 61.915 61.884z" fill="#fff"/><path d="M81.2 138.201c31.385 0 56.826-25.429 56.826-56.798 0-31.368-25.441-56.798-56.825-56.798-31.384 0-56.826 25.43-56.826 56.798 0 31.369 25.442 56.798 56.826 56.798z" stroke="#EEBF65" stroke-width="3" stroke-linecap="round" stroke-linejoin="round"/><path d="M140.571 97.98l-.566.283c-47.496 25.149-76.144 25.055-123.546-.282L2.323 125.673v36.64l13.853-10.078 13.853 10.078v-25.055a162.469 162.469 0 0097.066 0v25.055l13.853-10.078 13.853 10.078v-36.64l-14.23-27.692z" fill="#3C2915"/><path d="M60.468 89.032H73.19v-33.72H60.468V45.045h37.695v10.267H85.441v33.72h12.722V99.3H60.468V89.032zM127 158.451V109l27.706 12.81v36.641l-13.853-10.079L127 158.451zm-124.771 0V121.81L29.935 109v49.451L16.08 148.372 2.23 158.451z" fill="#996523"/><path d="M154.706 121.811l-.565.283c-47.497 25.149-104.416 25.055-151.912-.283l14.135-27.692c47.402 25.338 76.05 25.432 123.547.283l.565-.283 14.23 27.692z" fill="url(#paint1_linear)"/><path d="M55.895 119.937l4.753 11.558 4.543-11.644 2.432-.022.128 14.217-1.874.018-.05-5.537.121-5.978-4.563 11.556-1.436.014-4.762-11.441.24 5.945.05 5.537-1.875.017-.129-14.218 2.422-.022zm19.27 14.236c-1.432.014-2.602-.444-3.509-1.374-.907-.935-1.367-2.191-1.382-3.766l-.003-.332c-.01-1.048.181-1.984.57-2.808.397-.831.95-1.48 1.663-1.949a4.231 4.231 0 012.337-.725c1.374-.013 2.445.43 3.215 1.328.77.898 1.163 2.19 1.178 3.876l.007.752-7.158.066c.035 1.041.346 1.881.931 2.521.592.632 1.337.944 2.235.936.638-.006 1.177-.141 1.618-.406.44-.264.824-.613 1.152-1.045l1.111.849c-.873 1.368-2.194 2.061-3.965 2.077zm-.31-9.47c-.73.007-1.34.28-1.83.818-.49.532-.788 1.277-.897 2.235l5.293-.049-.002-.137c-.06-.917-.314-1.624-.761-2.121-.447-.504-1.049-.753-1.804-.746zm10.755 7.899a2.603 2.603 0 001.684-.601c.478-.395.74-.886.787-1.472l1.71-.016c-.028.606-.231 1.184-.61 1.734-.38.55-.89.991-1.531 1.323-.635.331-1.31.5-2.027.507-1.439.013-2.589-.455-3.45-1.404-.855-.956-1.29-2.267-1.305-3.933l-.003-.303c-.01-1.029.171-1.945.541-2.749s.905-1.431 1.604-1.88c.706-.449 1.54-.678 2.504-.687 1.185-.011 2.171.334 2.959 1.037.794.702 1.222 1.619 1.284 2.752l-1.709.015c-.058-.683-.323-1.24-.796-1.672-.466-.438-1.041-.654-1.725-.648-.918.008-1.627.347-2.129 1.016-.495.662-.737 1.618-.726 2.868l.003.341c.011 1.218.27 2.153.778 2.806.507.653 1.226.975 2.157.966zm14.01-7.951l-3.545.032.083 9.101-1.807.017-.082-9.101-3.477.032-.013-1.465 8.828-.081.013 1.465zm.903 3.712c-.01-1.035.184-1.968.58-2.798.402-.831.963-1.474 1.681-1.93.726-.456 1.553-.688 2.484-.697 1.439-.013 2.606.474 3.5 1.462.901.988 1.359 2.308 1.374 3.962l.001.127c.009 1.029-.181 1.955-.57 2.779a4.452 4.452 0 01-1.673 1.919c-.725.463-1.562.698-2.513.707-1.432.013-2.598-.474-3.499-1.462-.895-.987-1.349-2.302-1.364-3.942l-.001-.127zm1.818.198c.01 1.172.289 2.11.836 2.815.553.704 1.286 1.052 2.197 1.044.918-.009 1.644-.374 2.178-1.095.533-.727.794-1.739.783-3.034-.011-1.159-.296-2.094-.856-2.805-.553-.717-1.286-1.072-2.197-1.064-.892.009-1.608.37-2.149 1.085-.54.714-.804 1.732-.792 3.054z" fill="#fff"/><path d="M136.519 123.6c-3.77.471-6.974-1.602-6.974-1.602s2.733-2.731 6.502-3.108c3.77-.471 6.974 1.601 6.974 1.601s-2.733 2.732-6.502 3.109z" fill="#EEBF65"/><path d="M132.184 115.405c-.095 3.768-2.545 6.688-2.545 6.688s-2.262-3.108-2.167-6.876c.094-3.768 2.544-6.688 2.544-6.688s2.262 3.109 2.168 6.876zm10.743.66c-3.581 1.225-7.162-.094-7.162-.094s2.167-3.202 5.654-4.427c3.581-1.224 7.162.094 7.162.094s-2.073 3.203-5.654 4.427z" fill="#EEBF65"/><path d="M136.99 108.906c.659 3.674-1.131 7.064-1.131 7.064s-2.827-2.543-3.581-6.216c-.66-3.674 1.131-7.065 1.131-7.065s2.921 2.544 3.581 6.217zM20.888 123.6c3.77.471 6.974-1.602 6.974-1.602s-2.733-2.731-6.503-3.108c-3.77-.471-6.973 1.601-6.973 1.601s2.733 2.732 6.502 3.109z" fill="#EEBF65"/><path d="M25.224 115.405c.094 3.768 2.544 6.688 2.544 6.688s2.262-3.108 2.168-6.876c-.095-3.768-2.545-6.688-2.545-6.688s-2.262 3.109-2.167 6.876zm-10.838.66c3.58 1.225 7.162-.094 7.162-.094s-2.168-3.202-5.654-4.427c-3.582-1.224-7.163.094-7.163.094s2.074 3.203 5.655 4.427z" fill="#EEBF65"/><path d="M20.323 108.906c-.66 3.674 1.13 7.064 1.13 7.064s2.828-2.543 3.582-6.216c.66-3.674-1.131-7.065-1.131-7.065s-2.922 2.544-3.581 6.217z" fill="#EEBF65"/><defs><linearGradient id="paint0_linear" x1="11.175" y1="81.408" x2="151.283" y2="81.408" gradientUnits="userSpaceOnUse"><stop stop-color="#FFDC7C"/><stop offset=".495" stop-color="#EEBF65"/><stop offset=".994" stop-color="#996523"/></linearGradient><linearGradient id="paint1_linear" x1="2.258" y1="117.486" x2="154.738" y2="117.486" gradientUnits="userSpaceOnUse"><stop stop-color="#FFDC7C"/><stop offset=".495" stop-color="#EEBF65"/><stop offset=".994" stop-color="#996523"/></linearGradient></defs></svg>