<svg width="196" height="153" fill="none" xmlns="http://www.w3.org/2000/svg"><path opacity=".2" fill-rule="evenodd" clip-rule="evenodd" d="M91.067 149.143l103.333-.18-22.267-37.213h-.102c.031-.242.051-.487.051-.738V29.021c0-3.183-2.546-5.763-5.688-5.763H29.867c-3.142 0-5.688 2.58-5.688 5.763v81.991c0 .33.034.649.085.965l-.044-.982L.986 149.299h.235c.105 2.03 2.25 3.648 4.89 3.648H189.71c2.707 0 4.9-1.703 4.9-3.804H91.067z" fill="gray"/><path fill-rule="evenodd" clip-rule="evenodd" d="M173.119 107.897a5.697 5.697 0 01-5.699 5.699H30.655a5.697 5.697 0 01-5.698-5.699V26.804a5.697 5.697 0 015.698-5.698H167.42a5.697 5.697 0 015.699 5.698v81.093z" fill="#666"/><path fill-rule="evenodd" clip-rule="evenodd" d="M24.906 108.853L1.725 145.771l193.752-.337-22.307-36.805-148.264.224z" fill="#C1C1C1"/><path fill-rule="evenodd" clip-rule="evenodd" d="M195.691 145.613c0 2.078-2.196 3.764-4.909 3.764H6.859c-2.71 0-4.91-1.686-4.91-3.764" fill="#666"/><path d="M164.935 28.541H33.215v73.348h131.72V28.541z" fill="#47B2BA"/><path opacity=".15" d="M34.596 119.669h-4.532l2.053-4.601H36.5l-1.904 4.601zm3.498 5.81H27.473l2.053-4.604h10.285l-1.717 4.604zm-2.125 6.355H24.885l2.047-4.604h10.747l-1.71 4.604zm4.066-12.165h-4.532l1.873-4.601h4.383l-1.724 4.601zm5.437 0H40.94l1.696-4.601h4.383l-1.547 4.601zm5.44 0H46.38l1.516-4.601h4.383l-1.367 4.601zm5.44 0h-4.533l1.337-4.601h4.382l-1.186 4.601zm5.438 0h-4.533l1.16-4.601h4.385l-1.013 4.601zm5.438 0h-4.532l.98-4.601h4.385l-.833 4.601zm5.437 0h-4.532l.806-4.601h4.382l-.656 4.601zm5.44 0h-4.532l.626-4.601h4.382l-.476 4.601zm5.441 0h-4.532l.445-4.601h4.383l-.296 4.601zm5.436 0H84.45l.269-4.601H89.1l-.119 4.601zm5.44 0H89.89l.088-4.601h4.383l.06 4.601zm5.439 0H95.33l-.092-4.601h4.383l.241 4.601zm5.438 0h-4.532l-.269-4.601h4.386l.415 4.601zm5.44 0h-4.532l-.449-4.601h4.386l.595 4.601zm5.436 0h-4.532l-.622-4.601h4.382l.772 4.601zm5.44 0h-4.532l-.803-4.601h4.383l.952 4.601zm5.44 0h-4.532l-.983-4.601h4.383l1.132 4.601zm5.436 0h-4.532l-1.159-4.601h4.382l1.309 4.601zm5.44 0h-4.532l-1.339-4.601h4.382l1.489 4.601zm5.44 0h-4.532l-1.52-4.601h4.383l1.669 4.601zm5.437 0h-4.532l-1.697-4.601h4.386l1.843 4.601zm5.44 0h-4.532l-1.877-4.601h4.386l2.023 4.601zm5.437 0h-4.532l-2.05-4.601h4.382l2.2 4.601zm5.44 0h-4.532l-2.231-4.601h4.383l2.38 4.601zM27.119 137.752h-5.117l2.05-4.604h4.97l-1.903 4.604zm6.141 0h-5.117l1.873-4.604h4.967l-1.723 4.604zm6.137 0h-5.114l1.693-4.604h4.968l-1.547 4.604zm6.14 0H40.42l1.52-4.604h4.967l-1.37 4.604zm6.141 0H46.56l1.34-4.604h4.967l-1.19 4.604zm6.139 0H52.7l1.16-4.604h4.967l-1.01 4.604zm79.564 0H59.096l.976-4.604h76.007l1.302 4.604zm6.395 0h-5.117l-1.336-4.604h4.968l1.485 4.604zm6.141 0H144.8l-1.517-4.604h4.968l1.666 4.604zm6.141 0h-5.117l-1.697-4.604h4.968l1.846 4.604zm6.139 0h-5.117l-1.873-4.604h4.967l2.023 4.604zm6.141 0h-5.117l-2.054-4.604h4.967l2.204 4.604zm6.141 0h-5.117l-2.234-4.604h4.971l2.38 4.604zM43.521 125.479h-4.72l1.697-4.604h4.57l-1.547 4.604zm5.664 0h-4.72l1.517-4.604h4.573l-1.37 4.604zm5.665 0h-4.72l1.336-4.604h4.573l-1.19 4.604zm5.664 0h-4.72l1.16-4.604h4.57l-1.01 4.604zm5.664 0H61.46l.98-4.604h4.572l-.833 4.604zm5.664 0h-4.719l.802-4.604h4.57l-.653 4.604zm5.665 0h-4.723l.626-4.604h4.57l-.473 4.604zm5.665 0h-4.723l.446-4.604h4.573l-.296 4.604zm5.66 0h-4.719l.269-4.604h4.57l-.12 4.604zm5.664 0h-4.719l.089-4.604h4.573l.058 4.604zm5.665 0h-4.72l-.091-4.604h4.573l.238 4.604zm5.665 0h-4.72l-.268-4.604h4.569l.419 4.604zm5.664 0h-4.719l-.449-4.604h4.573l.595 4.604zm5.664 0h-4.719l-.625-4.604h4.569l.775 4.604zm5.665 0h-4.723l-.802-4.604h4.57l.955 4.604zm5.665 0h-4.723l-.983-4.604h4.573l1.133 4.604zm5.66 0h-4.719l-1.159-4.604h4.569l1.309 4.604zm5.665 0h-4.719l-1.34-4.604h4.573l1.486 4.604zm5.664 0h-4.719l-1.52-4.604h4.573l1.666 4.604zm5.664 0h-4.719l-1.696-4.604h4.569l1.846 4.604zm5.664 0h-4.719l-1.877-4.604h4.573l2.023 4.604zm5.665 0h-4.719l-2.054-4.604h4.57l2.203 4.604zm8.782 6.024h-4.916l-5.154-10.628h4.569l5.501 10.628zm-129.863.331h-4.923l1.693-4.604h4.777l-1.547 4.604zm5.913 0H42.37l1.517-4.604h4.776l-1.366 4.604zm5.909 0H48.28l1.34-4.604h4.777l-1.19 4.604zm5.91 0h-4.924l1.16-4.604h4.777l-1.013 4.604zm5.913 0h-4.928l.983-4.604h4.777l-.833 4.604zm5.908 0h-4.926l.805-4.604h4.774l-.653 4.604zm5.912 0h-4.926l.622-4.604h4.777l-.473 4.604zm5.91 0h-4.927l.445-4.604h4.777l-.295 4.604zm5.91 0h-4.924l.265-4.604h4.777l-.119 4.604zm5.912 0h-4.927l.089-4.604h4.777l.06 4.604zm5.909 0h-4.927l-.088-4.604h4.777l.238 4.604zm5.909 0h-4.923l-.269-4.604h4.777l.415 4.604zm5.912 0h-4.926l-.446-4.604h4.777l.595 4.604zm5.911 0h-4.924l-.625-4.604h4.773l.776 4.604zm5.912 0h-4.927l-.806-4.604h4.777l.956 4.604zm5.909 0h-4.927l-.982-4.604h4.777l1.132 4.604zm5.909 0h-4.923l-1.163-4.604h4.777l1.309 4.604zm5.913 0h-4.927l-1.339-4.604h4.777l1.489 4.604zm5.909 0h-4.927l-1.516-4.604h4.777l1.666 4.604zm5.909 0h-4.923l-1.697-4.604h4.777l1.843 4.604zm5.913 0h-4.927l-1.873-4.604h4.777l2.023 4.604zm5.909 0h-4.926l-2.051-4.604h4.774l2.203 4.604z" fill="#070707"/><path d="M34.596 119.329h-4.532l2.053-4.6H36.5l-1.904 4.6zm3.498 5.81H27.473l2.053-4.604h10.285l-1.717 4.604zm-2.125 6.355H24.885l2.047-4.603h10.747l-1.71 4.603zm4.066-12.165h-4.532l1.873-4.6h4.383l-1.724 4.6zm5.437 0H40.94l1.696-4.6h4.383l-1.547 4.6zm5.44 0H46.38l1.516-4.6h4.383l-1.367 4.6zm5.44 0h-4.533l1.337-4.6h4.382l-1.186 4.6zm5.438 0h-4.533l1.16-4.6h4.385l-1.013 4.6zm5.438 0h-4.532l.98-4.6h4.385l-.833 4.6zm5.437 0h-4.532l.806-4.6h4.382l-.656 4.6zm5.44 0h-4.532l.626-4.6h4.382l-.476 4.6zm5.441 0h-4.532l.445-4.6h4.383l-.296 4.6zm5.436 0H84.45l.269-4.6H89.1l-.119 4.6zm5.44 0H89.89l.088-4.6h4.383l.06 4.6zm5.439 0H95.33l-.092-4.6h4.383l.241 4.6zm5.438 0h-4.532l-.269-4.6h4.386l.415 4.6zm5.44 0h-4.532l-.449-4.6h4.386l.595 4.6zm5.436 0h-4.532l-.622-4.6h4.382l.772 4.6zm5.44 0h-4.532l-.803-4.6h4.383l.952 4.6zm5.44 0h-4.532l-.983-4.6h4.383l1.132 4.6zm5.436 0h-4.532l-1.159-4.6h4.382l1.309 4.6zm5.44 0h-4.532l-1.339-4.6h4.382l1.489 4.6zm5.44 0h-4.532l-1.52-4.6h4.383l1.669 4.6zm5.437 0h-4.532l-1.697-4.6h4.386l1.843 4.6zm5.44 0h-4.532l-1.877-4.6h4.386l2.023 4.6zm5.437 0h-4.532l-2.05-4.6h4.382l2.2 4.6zm5.44 0h-4.532l-2.231-4.6h4.383l2.38 4.6zM27.119 137.412h-5.117l2.05-4.603h4.97l-1.903 4.603zm6.141 0h-5.117l1.873-4.603h4.967l-1.723 4.603zm6.137 0h-5.114l1.693-4.603h4.968l-1.547 4.603zm6.14 0H40.42l1.52-4.603h4.967l-1.37 4.603zm6.141 0H46.56l1.34-4.603h4.967l-1.19 4.603zm6.139 0H52.7l1.16-4.603h4.967l-1.01 4.603zm79.564 0H59.096l.976-4.603h76.007l1.302 4.603zm6.395 0h-5.117l-1.336-4.603h4.968l1.485 4.603zm6.141 0H144.8l-1.517-4.603h4.968l1.666 4.603zm6.141 0h-5.117l-1.697-4.603h4.968l1.846 4.603zm6.139 0h-5.117l-1.873-4.603h4.967l2.023 4.603zm6.141 0h-5.117l-2.054-4.603h4.967l2.204 4.603zm6.141 0h-5.117l-2.234-4.603h4.971l2.38 4.603zM43.521 125.139h-4.72l1.697-4.604h4.57l-1.547 4.604zm5.664 0h-4.72l1.517-4.604h4.573l-1.37 4.604zm5.665 0h-4.72l1.336-4.604h4.573l-1.19 4.604zm5.664 0h-4.72l1.16-4.604h4.57l-1.01 4.604zm5.664 0H61.46l.98-4.604h4.572l-.833 4.604zm5.664 0h-4.719l.802-4.604h4.57l-.653 4.604zm5.665 0h-4.723l.626-4.604h4.57l-.473 4.604zm5.665 0h-4.723l.446-4.604h4.573l-.296 4.604zm5.66 0h-4.719l.269-4.604h4.57l-.12 4.604zm5.664 0h-4.719l.089-4.604h4.573l.058 4.604zm5.665 0h-4.72l-.091-4.604h4.573l.238 4.604zm5.665 0h-4.72l-.268-4.604h4.569l.419 4.604zm5.664 0h-4.719l-.449-4.604h4.573l.595 4.604zm5.664 0h-4.719l-.625-4.604h4.569l.775 4.604zm5.665 0h-4.723l-.802-4.604h4.57l.955 4.604zm5.665 0h-4.723l-.983-4.604h4.573l1.133 4.604zm5.66 0h-4.719l-1.159-4.604h4.569l1.309 4.604zm5.665 0h-4.719l-1.34-4.604h4.573l1.486 4.604zm5.664 0h-4.719l-1.52-4.604h4.573l1.666 4.604zm5.664 0h-4.719l-1.696-4.604h4.569l1.846 4.604zm5.664 0h-4.719l-1.877-4.604h4.573l2.023 4.604zm5.665 0h-4.719l-2.054-4.604h4.57l2.203 4.604zm8.782 6.025h-4.916l-5.154-10.629h4.569l5.501 10.629zm-129.863.33h-4.923l1.693-4.603h4.777l-1.547 4.603zm5.913 0H42.37l1.517-4.603h4.776l-1.366 4.603zm5.909 0H48.28l1.34-4.603h4.777l-1.19 4.603zm5.91 0h-4.924l1.16-4.603h4.777l-1.013 4.603zm5.913 0h-4.928l.983-4.603h4.777l-.833 4.603zm5.908 0h-4.926l.805-4.603h4.774l-.653 4.603zm5.912 0h-4.926l.622-4.603h4.777l-.473 4.603zm5.91 0h-4.927l.445-4.603h4.777l-.295 4.603zm5.91 0h-4.924l.265-4.603h4.777l-.119 4.603zm5.912 0h-4.927l.089-4.603h4.777l.06 4.603zm5.909 0h-4.927l-.088-4.603h4.777l.238 4.603zm5.909 0h-4.923l-.269-4.603h4.777l.415 4.603zm5.912 0h-4.926l-.446-4.603h4.777l.595 4.603zm5.911 0h-4.924l-.625-4.603h4.773l.776 4.603zm5.912 0h-4.927l-.806-4.603h4.777l.956 4.603zm5.909 0h-4.927l-.982-4.603h4.777l1.132 4.603zm5.909 0h-4.923l-1.163-4.603h4.777l1.309 4.603zm5.913 0h-4.927l-1.339-4.603h4.777l1.489 4.603zm5.909 0h-4.927l-1.516-4.603h4.777l1.666 4.603zm5.909 0h-4.923l-1.697-4.603h4.777l1.843 4.603zm5.913 0h-4.927l-1.873-4.603h4.777l2.023 4.603zm5.909 0h-4.926l-2.051-4.603h4.774l2.203 4.603z" fill="#727171"/><path d="M124.989 39.266l.238.156c.156.105.394.252.69.473a21.77 21.77 0 012.465 2.05 26.224 26.224 0 011.588 1.676 21.952 21.952 0 011.645 2.19c.544.816 1.081 1.72 1.585 2.71.499.989.938 2.077 1.336 3.233.394 1.16.727 2.393.982 3.696.249 1.302.391 2.669.456 4.08a32.298 32.298 0 01-.112 4.345c-.133 1.482-.422 2.975-.786 4.474-.754 2.989-1.887 6.008-3.515 8.81a40.3 40.3 0 01-2.676 4.076c-.983 1.31-2.016 2.567-3.176 3.747-2.349 2.387-5.035 4.359-7.847 5.953-2.815 1.598-5.8 2.717-8.741 3.533-2.945.82-5.896 1.2-8.701 1.255-2.808.071-5.494-.29-7.884-1.03-1.19-.385-2.323-.834-3.319-1.442-.996-.602-1.883-1.292-2.587-2.078-.707-.778-1.251-1.618-1.591-2.454a8.168 8.168 0 01-.595-2.363 8.013 8.013 0 01.017-1.908 7.09 7.09 0 01.115-.748c.038-.228.089-.428.133-.608.081-.364.173-.633.228-.813.057-.18.085-.275.085-.275l.265.057-.051.276c-.034.18-.092.449-.133.806-.085.703-.187 1.768.061 3.073.123.65.344 1.36.714 2.064a7.86 7.86 0 001.558 2.047c1.34 1.278 3.274 2.237 5.497 2.788 2.227.55 4.74.73 7.368.568 2.632-.157 5.386-.667 8.14-1.493 2.754-.833 5.508-2 8.119-3.512 2.608-1.513 5.08-3.376 7.201-5.58a38.585 38.585 0 005.535-7.255 34.58 34.58 0 003.465-8.13 30.862 30.862 0 001.142-8.18 27.73 27.73 0 00-.958-7.34 25.395 25.395 0 00-2.363-5.798 24.693 24.693 0 00-2.765-3.964 23.968 23.968 0 00-2.172-2.23c-.262-.242-.476-.422-.619-.544l-.214-.184.177-.207z" fill="#EEE"/><path fill-rule="evenodd" clip-rule="evenodd" d="M111.623 18.66l13.138.466 1.142 2.193-9.132 5.171m-12.775-1.043l-1.054 13.107 2.047 1.387 6.192-8.472" fill="#E8563D"/><path d="M97.095 4.4L94.25 6.91l-2.846 2.509s-.435 4.304 6.063 11.682c6.501 7.378 14.82 12.839 14.82 12.839l3.254-2.867 3.254-2.866s-4.372-8.942-10.873-16.32C101.42 4.51 97.095 4.4 97.095 4.4z" fill="#BCA79F"/><path d="M102.198 15.909a2.885 2.885 0 00.255-4.067 2.885 2.885 0 00-4.066-.258 2.89 2.89 0 00-.258 4.066 2.887 2.887 0 004.069.259z" fill="#A9D7D8"/><path d="M102.62 16.389a3.515 3.515 0 00.313-4.964 3.515 3.515 0 00-4.964-.313 3.515 3.515 0 00-.313 4.964 3.521 3.521 0 004.964.313zm-3.937-4.468a2.44 2.44 0 013.437.218 2.436 2.436 0 01-3.655 3.22 2.44 2.44 0 01.218-3.438z" fill="#997973"/><path d="M106.993 21.28a1.393 1.393 0 00.126-1.962 1.394 1.394 0 00-1.966-.122 1.39 1.39 0 101.84 2.084z" fill="#A9D7D8"/><path d="M107.196 21.512a1.7 1.7 0 10-2.4-.153 1.703 1.703 0 002.4.153zm-1.9-2.156a1.177 1.177 0 011.659.106c.428.486.381 1.23-.105 1.659a1.178 1.178 0 01-1.66-.105 1.178 1.178 0 01.106-1.66z" fill="#997973"/><path d="M111.219 26.027a1.392 1.392 0 00-1.84-2.088 1.392 1.392 0 001.84 2.088z" fill="#A9D7D8"/><path d="M111.423 26.258a1.7 1.7 0 00-2.244-2.55 1.696 1.696 0 00-.15 2.397c.616.704 1.69.772 2.394.153zm-1.901-2.155a1.178 1.178 0 011.66.105 1.177 1.177 0 01-1.765 1.554 1.178 1.178 0 01.105-1.66z" fill="#997973"/><path fill-rule="evenodd" clip-rule="evenodd" d="M113.581 33.55l5.141-4.23s3.345 2.22 4.882 6.49c0 0-.826-.258-1.914-.502 0 0 1.057 1.424 1.139 3.794 0 .004-4.576 1.66-9.248-5.552z" fill="#F7AC3B"/><path fill-rule="evenodd" clip-rule="evenodd" d="M114.081 33.13l4.039-3.321s2.601 1.394 3.812 4.75c0 0-.884-.167-1.554-.46 0 0 .908 1.53.972 3.394 0 0-3.597 1.302-7.269-4.363z" fill="#F2D970"/><path d="M119.551 27.872a.506.506 0 01-.04.713l-7.062 6.29a.505.505 0 11-.673-.754l7.061-6.29a.503.503 0 01.714.04z" fill="#D33B26"/><path d="M91.1 10.236L88.51.393 97.952 4.2 91.1 10.236z" fill="#E8563D"/><path d="M98.468 4.238a.372.372 0 01-.034.527l-6.837 6.025a.372.372 0 01-.527-.034.372.372 0 01.034-.527l6.834-6.025a.382.382 0 01.53.034z" fill="#D33B26"/><path fill-rule="evenodd" clip-rule="evenodd" d="M109.471 81.827l-.751-.255-.473.64-.153-.78-.788-.088.595-.523-.32-.728.751.255.473-.639.156.779.789.088-.598.524.319.727zm-8.558 2.056l-1.047-.353-.653.89-.217-1.084-1.099-.123.83-.727-.445-1.013 1.047.353.656-.89.214 1.084 1.098.123-.829.727.445 1.013zm2.626-9.121l-.517-.174-.323.439-.109-.534-.544-.061.415-.36-.225-.5.521.173.323-.438.108.533.544.062-.411.36.218.5zm18.724-29.265l-.198.771.674.419-.765.214-.028.795-.567-.557-.701.374.197-.769-.673-.421.765-.214.027-.793.568.555.701-.374zm2.698 8.378l-.275 1.07.938.585-1.064.3-.037 1.105-.789-.772-.979.517.275-1.068-.938-.588 1.067-.296.038-1.105.789.772.975-.52zm-9.292-1.929l-.136.53.463.29-.527.146-.017.547-.391-.384-.483.258.136-.53-.466-.29.527-.145.02-.548.391.381.483-.255zm-31.386 1.227l-.642-.465-.64.472.082-.789-.727-.32.724-.322-.089-.79.643.467.64-.473-.082.789.727.32-.724.323.088.788zm-8.785-.563l-.894-.65-.888.66.113-1.101-1.014-.439 1.01-.452-.126-1.098.895.65.89-.66-.115 1.101 1.013.439-1.006.452.122 1.098zm5.208-7.935l-.445-.32-.439.323.055-.544-.5-.218.5-.224-.061-.54.442.319.438-.326-.054.543.5.218-.5.224.064.544z" fill="#F7D581"/><path d="M99.74 43.553l-.079-.996c-.048-.599-.088-1.395-.136-2.194-.02-.397-.068-.795-.075-1.17 0-.373.034-.72.075-1.02.075-.598.214-.995.214-.995h.061s.136.398.215.996c.04.3.071.646.074 1.02-.006.374-.054.772-.074 1.17-.048.795-.085 1.594-.136 2.193l-.079.996h-.06zm9.523 3.914s.231-.265.591-.65c.354-.39.843-.894 1.326-1.4.245-.252.47-.524.708-.752.241-.22.489-.404.71-.554.439-.3.789-.435.789-.435l.041.044s-.163.337-.5.748a6.25 6.25 0 01-.609.66c-.245.217-.534.418-.806.642-.547.439-1.088.884-1.506 1.204-.415.323-.697.534-.697.534l-.047-.041zm-18.102.044s-.282-.21-.697-.533c-.418-.32-.958-.765-1.506-1.204-.272-.22-.56-.425-.806-.642a5.836 5.836 0 01-.608-.66c-.334-.412-.5-.748-.5-.748l.04-.044s.35.136.79.435c.22.146.465.33.71.554.238.228.462.497.707.752.483.51.973 1.01 1.326 1.4.357.385.592.65.592.65l-.048.04z" fill="#F47E14"/><path d="M94.456 43.916s-.493-.857-.928-1.737c-.109-.221-.245-.429-.337-.64a2.99 2.99 0 01-.166-.608c-.065-.37-.03-.65-.03-.65l.057-.023s.218.177.425.49c.105.156.214.343.303.554.081.214.126.459.2.693.296.939.534 1.897.534 1.897l-.058.024zm11.135-.02s.238-.959.53-1.897c.072-.235.119-.48.201-.694.085-.214.197-.4.302-.554.208-.313.425-.49.425-.49l.058.024s.038.28-.03.647a2.903 2.903 0 01-.167.608c-.092.21-.228.422-.337.64-.435.88-.928 1.737-.928 1.737l-.054-.02z" fill="#E2E2E2"/><path d="M76.725 70.29l-.918.392c-.55.238-1.295.527-2.033.826-.37.146-.734.32-1.085.442-.353.119-.693.2-.992.255-.592.119-1.014.115-1.014.115l-.02-.057s.333-.255.877-.52c.269-.133.592-.276.945-.395.358-.112.749-.194 1.133-.302.772-.208 1.537-.425 2.121-.568l.97-.242.016.055zm.68-10.27s-.323-.136-.802-.354c-.483-.21-1.115-.513-1.751-.81-.316-.149-.646-.278-.935-.431a5.823 5.823 0 01-.748-.496c-.422-.32-.663-.609-.663-.609l.03-.054s.374.047.87.234c.25.092.535.211.82.367.286.164.568.374.864.561.588.378 1.183.752 1.618 1.048.439.289.728.49.728.49l-.03.054zm5.805 17.147s-.11.333-.286.83c-.17.5-.418 1.152-.66 1.812-.122.326-.224.666-.35.969a6.37 6.37 0 01-.432.788 4.2 4.2 0 01-.55.711l-.055-.024s.017-.374.163-.884c.068-.255.167-.547.3-.85.139-.296.326-.598.486-.907.33-.62.649-1.241.907-1.7.252-.463.429-.766.429-.766l.047.02z" fill="#F47E14"/><path d="M78.752 75.188s-.657.74-1.354 1.431c-.173.174-.33.37-.5.524-.176.15-.36.261-.526.35-.33.18-.606.235-.606.235l-.04-.048s.098-.262.326-.561a2.96 2.96 0 01.428-.463c.177-.146.395-.268.595-.41a36.825 36.825 0 011.629-1.11l.048.052zm-3.564-10.551s-.986.082-1.968.099c-.245.006-.493.04-.721.03a2.954 2.954 0 01-.622-.109 2.352 2.352 0 01-.599-.248l.004-.061s.251-.122.622-.177c.187-.03.401-.047.632-.037.228.02.47.081.714.115.973.133 1.945.327 1.945.327l-.007.061z" fill="#E2E2E2"/><path d="M123.822 69.936s.333.047.833.115c.5.068 1.163.177 1.826.282.329.055.666.089.975.15.306.068.589.156.827.245.476.17.778.353.778.353l-.01.051s-.354.041-.857-.003a6.955 6.955 0 01-.853-.123c-.306-.074-.626-.18-.949-.272-.646-.183-1.295-.356-1.775-.503-.482-.146-.805-.241-.805-.241l.01-.054zm-4.923 7.119s.17.241.429.601c.258.36.581.854.914 1.34.163.245.347.48.49.714.139.238.245.473.326.684.167.414.214.724.214.724l-.044.027s-.248-.197-.527-.544a4.809 4.809 0 01-.432-.619c-.136-.241-.248-.513-.38-.778-.262-.527-.531-1.054-.718-1.456l-.313-.666.041-.027zm3.213-14.879l.565-.476c.336-.29.799-.653 1.258-1.024.231-.183.449-.384.673-.547.228-.157.452-.282.653-.38.398-.202.704-.276.704-.276l.03.04s-.173.262-.5.568a4.88 4.88 0 01-.581.483c-.228.153-.493.29-.741.446-.503.306-1.003.615-1.391.836l-.639.367-.031-.037z" fill="#F47E14"/><path d="M124.472 65.527s.197-.064.496-.15c.299-.091.697-.193 1.098-.298.201-.051.398-.126.585-.16.191-.03.374-.034.531-.027.316.013.537.091.537.091l.01.051s-.184.147-.479.262c-.147.061-.32.116-.51.15-.191.027-.402.024-.606.04-.411.031-.823.065-1.135.075-.31.017-.517.02-.517.02l-.01-.054zm-1.979 9.151s.187.091.463.234c.279.14.639.344 1 .544.18.102.374.184.533.29.16.108.293.23.402.346.221.228.326.439.326.439l-.027.04s-.235-.02-.527-.139a2.406 2.406 0 01-.473-.245c-.156-.112-.306-.261-.466-.39-.319-.266-.639-.524-.874-.732a26.158 26.158 0 01-.387-.343l.03-.044z" fill="#E2E2E2"/><g opacity=".15" fill="#4C210C"><path opacity=".15" d="M109.266 52.723l-1.934-2.04a.66.66 0 00-.932-.024l-.843.803a8.192 8.192 0 00-1.68-.769l.055-1.162a.661.661 0 00-.629-.687l-2.805-.123a.659.659 0 00-.687.633l-.048 1.098a8.268 8.268 0 00-2.08.707l-.708-.748a.657.657 0 00-.931-.024l-2.037 1.932a.657.657 0 00-.024.931l.592.622a8.233 8.233 0 00-.956 1.88l-.761-.033a.66.66 0 00-.687.629l-.122 2.805a.657.657 0 00.625.686l.588.028c.147.85.425 1.683.84 2.465l-.367.346a.66.66 0 00-.027.932l1.934 2.04a.663.663 0 00.932.024l.313-.3a8.17 8.17 0 002.176.997l-.02.432a.665.665 0 00.628.69l2.805.122a.66.66 0 00.687-.632l.024-.497c.84-.19 1.659-.52 2.417-.982l.398.418a.657.657 0 00.932.024l2.036-1.935a.656.656 0 00.024-.931l-.513-.541a8.176 8.176 0 00.799-1.969l.843.038a.656.656 0 00.687-.63l.122-2.804a.66.66 0 00-.625-.687l-1.017-.044a7.945 7.945 0 00-.836-2.044l.792-.748a.663.663 0 00.02-.928zm-5.416 3.397a3.458 3.458 0 01-.129 4.886 3.461 3.461 0 01-4.886-.126 3.455 3.455 0 01.13-4.886 3.455 3.455 0 014.885.126z"/><path opacity=".15" d="M97.822 61.852l-1.662-2.268a.657.657 0 00-.922-.14l-.938.69a8.097 8.097 0 00-1.571-.972l.2-1.145a.66.66 0 00-.537-.762l-2.767-.476a.66.66 0 00-.762.54l-.187 1.082a8.132 8.132 0 00-2.152.438l-.609-.83a.661.661 0 00-.921-.142l-2.264 1.66a.658.658 0 00-.14.92l.507.69a8.135 8.135 0 00-1.183 1.745l-.752-.13a.66.66 0 00-.761.538l-.476 2.768a.659.659 0 00.533.761l.582.099c.037.86.207 1.724.523 2.55l-.408.299a.661.661 0 00-.142.921l1.662 2.268a.66.66 0 00.922.14l.35-.259A8.017 8.017 0 0085.98 74.1l-.075.425c-.061.357.184.7.537.761l2.768.476a.663.663 0 00.762-.54l.085-.49a8.14 8.14 0 002.522-.67l.34.466a.661.661 0 00.922.143l2.264-1.66a.661.661 0 00.143-.92l-.442-.603a8.162 8.162 0 001.04-1.853l.83.143c.357.061.7-.18.762-.537l.476-2.768a.653.653 0 00-.538-.758l-1.003-.17a8.244 8.244 0 00-.57-2.135l.88-.643a.656.656 0 00.14-.914zm-5.032 2.125a4.41 4.41 0 01-7.11 5.216 4.406 4.406 0 01.95-6.161 4.401 4.401 0 016.16.945zm29.635 4.954l-.476-1.404a.347.347 0 00-.439-.217l-.584.197a4.276 4.276 0 00-.636-.738l.282-.544a.358.358 0 00-.15-.472l-1.315-.68a.352.352 0 00-.473.15l-.262.516a4.229 4.229 0 00-1.156-.123l-.173-.513a.35.35 0 00-.439-.22l-1.407.475a.353.353 0 00-.218.442l.146.428a4.212 4.212 0 00-.87.69l-.357-.183a.35.35 0 00-.473.15l-.676 1.316a.348.348 0 00.149.469l.276.14c-.119.441-.17.9-.14 1.37l-.255.084a.347.347 0 00-.221.439l.476 1.404c.061.18.259.282.442.218l.218-.075c.228.364.506.683.819.959l-.102.197a.35.35 0 00.15.472l1.316.68c.17.089.384.02.469-.15l.122-.234c.442.095.908.116 1.374.061l.098.293c.062.18.259.275.439.218l1.408-.477a.35.35 0 00.217-.438l-.129-.374c.309-.221.585-.48.819-.768l.395.204c.173.091.381.02.469-.15l.68-1.316a.351.351 0 00-.153-.473l-.476-.24a4.45 4.45 0 00.051-1.167l.544-.184a.33.33 0 00.221-.431zm-2.87.273a2.326 2.326 0 11-4.405 1.491 2.326 2.326 0 014.405-1.491z"/></g><path d="M108.926 51.704l-1.934-2.04a.66.66 0 00-.932-.024l-.843.802a8.192 8.192 0 00-1.68-.768l.055-1.163a.661.661 0 00-.629-.687l-2.805-.122a.658.658 0 00-.687.632l-.048 1.098a8.268 8.268 0 00-2.08.708l-.708-.748a.657.657 0 00-.931-.024l-2.037 1.931a.657.657 0 00-.024.932l.592.622a8.233 8.233 0 00-.956 1.88l-.761-.034a.66.66 0 00-.687.63l-.122 2.804a.657.657 0 00.625.687l.588.027c.147.85.425 1.683.84 2.465l-.367.347a.66.66 0 00-.027.931l1.934 2.04a.663.663 0 00.932.024l.313-.299a8.17 8.17 0 002.176.996l-.02.432a.665.665 0 00.629.69l2.805.123a.66.66 0 00.686-.633l.024-.496c.84-.19 1.659-.52 2.418-.983l.397.419a.657.657 0 00.932.023l2.037-1.934a.657.657 0 00.023-.932l-.513-.54a8.135 8.135 0 00.799-1.97l.843.038a.656.656 0 00.687-.629l.122-2.805a.66.66 0 00-.625-.687l-1.017-.044a7.945 7.945 0 00-.836-2.043l.792-.748a.662.662 0 00.02-.928zM103.51 55.1a3.457 3.457 0 01-5.015 4.76 3.455 3.455 0 01.13-4.886 3.455 3.455 0 014.885.126z" fill="#ADC9C9"/><path d="M97.482 60.832l-1.662-2.267a.657.657 0 00-.922-.14l-.938.69a8.097 8.097 0 00-1.57-.972l.2-1.146a.66.66 0 00-.537-.761l-2.768-.476a.66.66 0 00-.762.54l-.187 1.081a8.132 8.132 0 00-2.152.439l-.608-.83a.661.661 0 00-.922-.143l-2.264 1.66a.658.658 0 00-.14.921l.507.69a8.135 8.135 0 00-1.183 1.744l-.752-.129a.66.66 0 00-.761.538l-.476 2.767a.659.659 0 00.534.762l.581.098c.037.86.207 1.724.524 2.55l-.408.3a.661.661 0 00-.143.92l1.662 2.269a.66.66 0 00.922.14l.35-.26a8.017 8.017 0 002.033 1.262l-.075.425c-.06.357.184.7.538.762l2.767.476a.663.663 0 00.762-.54l.085-.49a8.14 8.14 0 002.523-.67l.34.465a.661.661 0 00.921.143l2.264-1.659a.661.661 0 00.143-.921l-.442-.602a8.162 8.162 0 001.04-1.853l.83.143c.357.06.7-.18.762-.537l.476-2.768a.653.653 0 00-.537-.758l-1.003-.17a8.244 8.244 0 00-.572-2.136l.881-.642a.656.656 0 00.14-.915zm-5.032 2.125a4.41 4.41 0 01-7.11 5.216 4.406 4.406 0 01.95-6.16 4.401 4.401 0 016.16.944zm29.635 4.955l-.476-1.404a.347.347 0 00-.438-.218l-.585.197a4.276 4.276 0 00-.636-.737l.282-.544a.359.359 0 00-.149-.473l-1.316-.68a.353.353 0 00-.473.15l-.262.516a4.229 4.229 0 00-1.156-.122l-.173-.513a.35.35 0 00-.439-.222l-1.407.476a.353.353 0 00-.218.443l.146.428a4.239 4.239 0 00-.87.69l-.357-.183a.35.35 0 00-.473.15l-.676 1.315a.348.348 0 00.149.47l.276.139c-.119.441-.17.9-.14 1.37l-.255.085a.347.347 0 00-.221.438l.476 1.404c.062.18.259.283.442.218l.218-.075c.228.364.507.684.819.96l-.102.196a.35.35 0 00.15.473l1.316.68c.17.088.384.02.469-.15l.122-.234c.442.095.908.115 1.374.06l.099.293a.35.35 0 00.438.218l1.408-.476a.349.349 0 00.217-.439l-.129-.374c.31-.22.585-.48.82-.768l.394.204c.173.092.381.02.469-.15l.68-1.316a.35.35 0 00-.153-.472l-.476-.242a4.45 4.45 0 00.051-1.166l.544-.183a.33.33 0 00.221-.432zm-2.869.272a2.326 2.326 0 11-4.407 1.49 2.326 2.326 0 014.407-1.49zM100.93 60.99a3.288 3.288 0 100-6.576 3.288 3.288 0 000 6.576z" fill="#DFEFEF"/><path d="M100.93 59.343a1.813 1.813 0 100-3.625 1.813 1.813 0 000 3.625z" fill="#47B2BA"/><path d="M89.006 70.166c-1.58 0-2.965-.687-3.798-1.884a4.511 4.511 0 01-.74-3.532c.257-1.242 1.036-2.367 2.192-3.173l10.822-6.548c1.275-.89 2.557-1.367 3.689-1.367 1.177 0 2.166.524 2.853 1.513.724 1.04.898 2.207.496 3.366-.37 1.068-1.203 2.08-2.417 2.924l-9.789 7.63c-1.013.704-2.152 1.07-3.308 1.07zm12.162-15.82c-.989 0-2.139.435-3.319 1.254l-10.822 6.548c-.996.694-1.676 1.673-1.897 2.74-.218 1.041.007 2.109.633 3.006.703 1.014 1.886 1.592 3.24 1.592 1.02 0 2.023-.323 2.903-.939l9.789-7.63c1.105-.771 1.853-1.665 2.176-2.597.333-.962.194-1.887-.411-2.754-.558-.813-1.333-1.22-2.292-1.22z" fill="#4B8A8C"/><path d="M117.171 71.668c-.901 0-1.897-.371-2.879-1.068l-15.436-10c-2-1.594-1.965-3.93-.915-5.433l.034-.06c.578-.83 1.72-1.347 2.985-1.347.915 0 1.772.268 2.486.772l14.184 11.06c1.911 1.353 2.595 3.22 1.775 4.862l-.037.058-.15.19c-.489.632-1.197.966-2.047.966zM98.546 55.473l-.037.065c-.853 1.204-.986 3.128.741 4.512l15.422 9.989c.867.615 1.751.949 2.499.949.64 0 1.15-.238 1.51-.704l.129-.163c.646-1.333.055-2.819-1.584-3.982l-14.185-11.06c-.741-.527-1.544-.64-2.081-.64-1.023 0-1.965.405-2.414 1.034z" fill="#4B8A8C"/></svg>