<svg width="317" height="242" fill="none" xmlns="http://www.w3.org/2000/svg"><path d="M9.957 109.915l-.855 27.84 36.954-2.511.652-20.066-36.751-5.263z" fill="#A16125"/><path d="M9.614 119.71l36.833 5.065.261-9.597-36.751-5.263-.343 9.795z" fill="#7E4F1F"/><path d="M285.49 95.843c5.483.188 9.649 4.684 9.471 10.157l-2.071 55.992c-.178 5.472-4.675 9.621-10.158 9.433l-134.418-4.982c-20.979-.819-37.326-18.441-36.626-39.181.781-20.938 18.405-37.22 39.186-36.483l134.616 5.064z" fill="#27675C"/><path d="M58.58 109.791l-1.094 30.956 122.996 4.559 1.093-30.955-122.995-4.56z" fill="#27675C"/><path d="M43.067 109.975l-.995 29.861c-.295 5.193 3.952 9.492 8.958 9.713 5.204.304 9.503-3.927 9.715-8.923l.996-29.861c.294-5.194-3.953-9.492-8.959-9.714-5.204-.303-9.618 3.648-9.715 8.924z" fill="#27675C"/><path d="M115.749 111.84l-53.878-1.946c-.068-4.881-4-8.818-9.006-9.04-5.204-.303-9.503 3.927-9.715 8.923l-.556 14.791 251.233 9.387.937-28.037c.178-5.473-3.988-9.968-9.471-10.156l-134.418-4.983c-15.298-.55-28.668 8.249-35.126 21.061z" fill="#20564D"/><path d="M140.084 125.833c-.047.674-.094 1.348.336 1.988.431.64.943 1.083 1.618 1.131l70.94 12.238 66.034 21.302c.594.245 1.35.096 1.991-.333.838-.346 1.281-.856 1.328-1.53l4.528-18.232c.047-.674.094-1.348-.336-1.988-.431-.64-.943-1.083-1.618-1.131l-68.484-11.454-68.373-21.807c-.594-.245-1.351-.096-1.991.332-.641.429-1.084.939-1.131 1.613l-4.842 17.871z" fill="#348A7A"/></svg>