<svg width="187" height="162" fill="none" xmlns="http://www.w3.org/2000/svg"><path opacity=".3" d="M15.692 118.719c8.105 16.956 33.394 32.057 57.182 34.618 23.863 2.649 47.276-4.504 66.186-18.987 11.481-8.654 23.488-22.166 29.191-33.558 10.656-20.752 14.258-28.082 6.829-48.04-3.377-8.92-10.281-14.748-16.059-19.958-4.202-4.062-25.139-18.104-32.493-20.135-28.44-8.213-56.43-6.27-81.194 15.278-31.443 27.11-46.376 56.341-29.642 90.782z" fill="url(#paint0_radial)" stroke="#fff" stroke-width="15.857" stroke-miterlimit="10"/><path opacity=".39" d="M126.9 25.834c2.117-.353 12.85.529 16.402 2.82 2.646 1.675 13.757 8.287 15.722 17.718 1.36 7.14 2.645 10.05-2.343 20.186-.529 1.058-4.535 5.906-5.972 3.967-2.418-3.702-7.18-13.575-17.989-20.362-2.645-1.675-11.035-4.76-14.512-5.201-1.512-.176-7.559-1.675-7.937-3.173-2.494-7.14 12.925-15.426 16.629-15.955z" fill="url(#paint1_linear)"/><path d="M38.036 78.068A18.396 18.396 0 0137 76.192c-.336-.728-.644-1.41-.924-2.044a1.244 1.244 0 00-.112-.224c-.019-.056-.075-.084-.168-.084a1.128 1.128 0 00-.112.336l-.14.56c-.037.205-.084.43-.14.672-.037.224-.065.42-.084.588l-.28 2.072-.28 2.408c-.075.803-.15 1.53-.224 2.184a18.525 18.525 0 00-.084 1.232c0 .261-.037.485-.112.672a1.762 1.762 0 01-.196.42.6.6 0 01-.336.196c-.13.056-.299.103-.504.14a.77.77 0 00-.168.028.528.528 0 01-.168.028c-.205 0-.392-.112-.56-.336a1.11 1.11 0 00-.14-.168 1.096 1.096 0 01-.084-.224 2.017 2.017 0 01-.112-.42v-.336a.981.981 0 01-.028-.28v-.168c0-.075.01-.15.028-.224l.112-.924c.037-.261.065-.56.084-.896.019-.336.047-.663.084-.98.037-.336.065-.69.084-1.064.019-.373.037-.728.056-1.064.019-.355.028-.681.028-.98.019-.299.037-.56.056-.784v-.784c.019-.317.028-.635.028-.952.019-.317.028-.616.028-.896v-.672c0-.299-.01-.523-.028-.672a4.86 4.86 0 00-.056-.392v-.168c0-.075.01-.15.028-.224l.112-.168c.037-.037.065-.056.084-.056.019 0 .037-.019.056-.056a.553.553 0 01.196-.14c.056-.056.112-.084.168-.084.112 0 .196.01.252.028l.392.448a6.65 6.65 0 01.756-1.372c.336-.467.681-.765 1.036-.896h.028c.019-.019.047-.028.084-.028.019 0 .037.01.056.028h.084c.299 0 .532.075.7.224.187.13.355.215.504.252.13.187.27.448.42.784.15.336.299.7.448 1.092.15.392.308.803.476 1.232.187.43.373.821.56 1.176.112.205.233.457.364.756.15.299.299.616.448.952.168.317.327.625.476.924.168.299.308.55.42.756.075-.15.187-.401.336-.756.168-.355.345-.756.532-1.204.205-.448.401-.905.588-1.372.205-.485.392-.933.56-1.344a13.18 13.18 0 01.784-1.624c.28-.504.523-.83.728-.98.205-.15.41-.224.616-.224.261 0 .523.065.784.196.261.13.467.327.616.588.15.299.261.663.336 1.092.075.41.159.84.252 1.288.093.485.196 1.101.308 1.848a332.269 332.269 0 01.644 4.508c.093.69.177 1.223.252 1.596.093.523.187.97.28 1.344.112.373.224.71.336 1.008.112.28.224.55.336.812l.42.784c.093.093.187.177.28.252.112.093.215.159.308.196.037.13.112.27.224.42.13.15.252.355.364.616 0 .037-.01.075-.028.112v.308a.46.46 0 01.028.14.19.19 0 01-.056.14.528.528 0 010 .336v.224a.866.866 0 01-.056.168.439.439 0 01-.084.112.248.248 0 00-.028.112c0 .056-.01.093-.028.112a.248.248 0 01-.112.028c-.037 0-.065.019-.084.056a.76.76 0 01-.56.224c-.205 0-.457-.056-.756-.168a8.217 8.217 0 01-.784-.336.409.409 0 01-.14-.196.41.41 0 00-.14-.196l-.14-.14a.48.48 0 01-.14-.14 3.503 3.503 0 00-.336-.448 1.18 1.18 0 01-.28-.42c-.13-.317-.261-.756-.392-1.316-.13-.541-.27-1.055-.42-1.54l-.252-.98c-.13-.541-.243-1.13-.336-1.764a637.142 637.142 0 01-.448-4.032 43.53 43.53 0 00-.252-1.904c-.037-.15-.065-.224-.084-.224-.037 0-.065.028-.084.084 0 .037-.019.075-.056.112-.168.317-.373.71-.616 1.176-.224.467-.467.952-.728 1.456a54.2 54.2 0 01-.756 1.456 13.35 13.35 0 01-.728 1.176c-.168.261-.364.439-.588.532a1.78 1.78 0 01-.616.112c-.168 0-.355-.065-.56-.196a1.805 1.805 0 01-.532-.532l-.336-.532a10.776 10.776 0 00-.28-.476 6.093 6.093 0 00-.336-.532l-.42-.7zM54.681 85.6c-.541 0-1.008-.093-1.4-.28a2.762 2.762 0 01-.924-.728 3.842 3.842 0 01-.56-1.008 3.88 3.88 0 01-.168-1.12c0-.579.112-1.11.336-1.596.224-.504.495-.97.812-1.4.112-.15.243-.317.392-.504.168-.205.336-.392.504-.56.187-.187.364-.355.532-.504.168-.15.318-.252.448-.308.261-.13.448-.252.56-.364.13-.13.308-.196.532-.196.448 0 .85.112 1.204.336.355.205.654.485.896.84a3.7 3.7 0 01.532 1.204c.13.448.196.905.196 1.372 0 1.475-.327 2.65-.98 3.528-.653.859-1.624 1.288-2.912 1.288zm.672-6.16c-.075 0-.15.01-.224.028a.269.269 0 00-.196.084c-.15.15-.27.29-.364.42a4.206 4.206 0 00-.364.56 3.005 3.005 0 00-.252.672 4.15 4.15 0 00-.084.868c0 .317.084.579.252.784.168.187.439.28.812.28.224 0 .448-.056.672-.168.224-.13.42-.299.588-.504.168-.205.308-.448.42-.728a2.39 2.39 0 00.168-.896c0-.355-.112-.672-.336-.952-.224-.299-.504-.448-.84-.448h-.252zm6.886 14.28a.363.363 0 01-.336-.196 1.576 1.576 0 01-.112-.448 3.62 3.62 0 01-.028-.448c0-.71-.028-1.41-.084-2.1a64.107 64.107 0 00-.14-2.016 44.005 44.005 0 00-.14-1.792 22.967 22.967 0 01-.056-1.512c0-.336.018-.588.056-.756.056-.187.121-.327.196-.42a.81.81 0 01.252-.252c.093-.056.196-.13.308-.224.093-.765.177-1.41.252-1.932.074-.523.14-.924.196-1.204.504-2.445 1.185-4.256 2.044-5.432.877-1.176 1.922-1.764 3.136-1.764.578 0 1.082.14 1.512.42.448.28.821.653 1.12 1.12.037.075.084.177.14.308a.645.645 0 01.084.252c.056.075.112.177.168.308.074.13.13.299.168.504.037.168.065.345.084.532.018.187.028.373.028.56 0 .84-.224 1.615-.672 2.324-.43.69-.98 1.307-1.652 1.848a11.334 11.334 0 01-2.24 1.4c-.803.373-1.568.663-2.296.868a223.646 223.646 0 00-.028 3.416c0 1.064-.028 2.025-.084 2.884-.038.877-.122 1.624-.252 2.24-.112.616-.28 1.073-.504 1.372a.765.765 0 01-.42.28 1.07 1.07 0 01-.14.056.46.46 0 01-.14.028.41.41 0 01-.252-.084 1.116 1.116 0 00-.168-.14zm6.216-17.976a1.062 1.062 0 00-.784-.308c-.318 0-.626.15-.924.448-.299.299-.588.719-.868 1.26a12.344 12.344 0 00-.728 1.876c-.224.728-.41 1.521-.56 2.38 0 .019-.01.037-.028.056v.028c1.381-.467 2.445-1.092 3.192-1.876.746-.784 1.12-1.69 1.12-2.716 0-.112-.019-.224-.056-.336l-.112-.336a.71.71 0 01-.084-.168c0-.075-.019-.13-.056-.168l-.112-.14zm9.317 10.836c-.952 0-1.801-.224-2.548-.672-.728-.43-1.241-1.139-1.54-2.128a7.17 7.17 0 01-.28-1.428 3.504 3.504 0 01-.224-.28c-.019-.075-.037-.121-.056-.14-.019 0-.028-.01-.028-.028 0-.037-.028-.056-.084-.056-.037 0-.065-.028-.084-.084v-.336a.528.528 0 00.028-.168c0-.019.01-.028.028-.028a.32.32 0 00.084-.056l.392-.056a6.963 6.963 0 01.616-1.988 9.619 9.619 0 011.26-1.904c.13-.168.327-.364.588-.588.261-.243.56-.467.896-.672.355-.224.719-.41 1.092-.56a2.965 2.965 0 011.176-.252c.635 0 1.195.224 1.68.672.485.43.728 1.008.728 1.736 0 .205-.028.43-.084.672a3.617 3.617 0 01-.168.644 4.391 4.391 0 01-.42.84 6.56 6.56 0 01-.56.84 6.428 6.428 0 01-.84.896c-.28.243-.597.485-.952.728-.43.261-.868.495-1.316.7a3.143 3.143 0 01-1.316.308c0 .261.065.467.196.616.13.15.29.27.476.364.205.075.43.121.672.14.243.019.476.028.7.028.728 0 1.25-.075 1.568-.224.336-.168.579-.252.728-.252.15 0 .243.019.28.056a.515.515 0 01.196.308c.019.093.028.205.028.336v.196c0 .112-.019.243-.056.392a1.838 1.838 0 01-.14.42c-.261.355-.644.607-1.148.756a4.761 4.761 0 01-1.568.252zm-1.988-5.32c.355-.075.737-.233 1.148-.476.43-.261.821-.55 1.176-.868a5.61 5.61 0 00.924-.98c.243-.355.364-.672.364-.952 0-.075-.037-.159-.112-.252-.075-.093-.215-.14-.42-.14-.317 0-.635.103-.952.308a2.99 2.99 0 00-.756.672c-.224.28-.42.532-.588.756a4.62 4.62 0 00-.364.644 5.59 5.59 0 00-.252.588c-.056.205-.112.439-.168.7zm12.911.896c-.018 0-.074-.065-.168-.196-.15.093-.242.14-.28.14a4.61 4.61 0 00-.336.196c-.13.093-.233.168-.308.224a7.519 7.519 0 00-.868.7c-.28.243-.522.448-.728.616-.28.243-.541.476-.784.7a10.29 10.29 0 00-.448.392c-.15.056-.27.084-.364.084-.168 0-.298-.037-.392-.112a3.048 3.048 0 00-.224-.252 2.768 2.768 0 01-.196-.56c-.037-.243-.074-.383-.112-.42v-.084c.019-.019.028-.047.028-.084 0-.019-.01-.028-.028-.028v-.084a.248.248 0 00.028-.112c0-.037.01-.084.028-.14.094-.093.262-.252.504-.476.243-.243.504-.476.784-.7.318-.261.654-.513 1.008-.756.355-.243.663-.467.924-.672l.728-.644a8.387 8.387 0 00-.448-.784 5.623 5.623 0 00-.42-.588 11.17 11.17 0 01-1.064-1.344c-.298-.448-.448-.775-.448-.98 0-.187.01-.345.028-.476a.908.908 0 01.252-.42c.15-.15.28-.243.392-.28a.982.982 0 01.308-.056c.13 0 .327.037.588.112.262.056.55.28.868.672.112.15.215.327.308.532.094.187.206.383.336.588.112.205.215.43.308.672.112.224.234.439.364.644a.62.62 0 01.084.196c.019.075.047.14.084.196.038.075.075.14.112.196a.442.442 0 00.224-.168c.094-.093.187-.177.28-.252.019-.019.122-.112.308-.28l.588-.588.588-.588.308-.308c.13-.15.308-.345.532-.588.224-.243.41-.364.56-.364.15 0 .28.01.392.028.112 0 .224.047.336.14.224.168.374.355.448.56.094.187.14.364.14.532 0 .392-.074.663-.224.812-.13.13-.29.317-.476.56-.093.13-.252.29-.476.476a39.762 39.762 0 01-1.512 1.176c-.261.187-.485.355-.672.504l-.14.14a1.621 1.621 0 01-.168.14c.038.075.075.14.112.196l.112.112c.262.392.486.7.672.924.187.205.402.439.644.7.15.15.262.308.336.476.094.15.159.28.196.392a.46.46 0 01.028.14.248.248 0 01.028.112.46.46 0 01-.028.14v.196c0 .13-.018.224-.056.28a.55.55 0 01-.14.196 2.005 2.005 0 01-.308.252c-.093.075-.28.112-.56.112-.298 0-.513-.065-.644-.196l-.42-.42a5.875 5.875 0 01-.448-.56 13.75 13.75 0 01-.308-.504 3.566 3.566 0 00-.28-.476 4.097 4.097 0 00-.28-.42l-.14-.196zM98.841 85.6c-.541 0-1.008-.093-1.4-.28a2.76 2.76 0 01-.924-.728 3.837 3.837 0 01-.56-1.008 3.88 3.88 0 01-.168-1.12c0-.579.112-1.11.336-1.596.224-.504.495-.97.812-1.4.112-.15.243-.317.392-.504.168-.205.336-.392.504-.56.187-.187.364-.355.532-.504.168-.15.318-.252.448-.308.262-.13.448-.252.56-.364.13-.13.308-.196.532-.196.448 0 .85.112 1.204.336.355.205.654.485.896.84.243.355.42.756.532 1.204.131.448.196.905.196 1.372 0 1.475-.326 2.65-.98 3.528-.653.859-1.624 1.288-2.912 1.288zm.672-6.16c-.074 0-.15.01-.224.028a.269.269 0 00-.196.084c-.15.15-.27.29-.364.42a4.186 4.186 0 00-.364.56 2.995 2.995 0 00-.252.672 4.15 4.15 0 00-.084.868c0 .317.084.579.252.784.168.187.439.28.812.28.224 0 .448-.056.672-.168.224-.13.42-.299.588-.504.168-.205.308-.448.42-.728a2.39 2.39 0 00.168-.896c0-.355-.112-.672-.336-.952-.224-.299-.504-.448-.84-.448h-.252zm9.686 6.608c-.653 0-1.223-.121-1.708-.364a3.231 3.231 0 01-1.176-.952 4.647 4.647 0 01-.672-1.512 8.627 8.627 0 01-.196-1.904c0-.952.093-1.932.28-2.94.205-1.027.579-1.923 1.12-2.688.075-.093.177-.196.308-.308.131-.13.243-.205.336-.224 0-.168.093-.317.28-.448a2.584 2.584 0 01.7-.392 4.262 4.262 0 011.624-.308c.355 0 .681.056.98.168.299.093.551.205.756.336.243.15.467.308.672.476a13.05 13.05 0 00-.196-1.148 6 6 0 00-.224-.952c-.037-.093-.075-.15-.112-.168-.019-.019-.028-.075-.028-.168a.19.19 0 01.056-.14c-.019-.037-.047-.056-.084-.056a.186.186 0 01-.084-.084c-.261-.485-.616-.84-1.064-1.064-.429-.243-1.017-.43-1.764-.56-.635-.112-1.101-.196-1.4-.252-.299-.075-.448-.28-.448-.616 0-.037-.028-.093-.084-.168a.653.653 0 01-.056-.224c0-.168.019-.261.056-.28.056-.037.084-.103.084-.196 0-.037.009-.093.028-.168a.654.654 0 01.112-.168c.093-.093.131-.177.112-.252-.019-.075.009-.15.084-.224.149-.112.327-.177.532-.196.224-.019.429-.028.616-.028.915 0 1.717.15 2.408.448a4.998 4.998 0 011.764 1.26.568.568 0 01.168.308.516.516 0 00.196.308.55.55 0 01.168.196c.037.075.103.15.196.224.075.056.131.13.168.224.037.075.075.159.112.252.317.635.541 1.335.672 2.1.149.747.224 1.53.224 2.352 0 .579-.019 1.213-.056 1.904a20.37 20.37 0 01-.168 2.072c-.075.69-.205 1.381-.392 2.072a9.075 9.075 0 01-.728 1.848c-.075.15-.168.224-.28.224-.056.056-.084.103-.084.14v.084c.019 0 .028.01.028.028-.056.093-.159.14-.308.14a.323.323 0 00.056.084c.037.019.056.047.056.084a.191.191 0 01-.056.14l-.112.112c-.112.13-.261.261-.448.392a19.9 19.9 0 01-.476.308 3.946 3.946 0 00-.364.252.957.957 0 01-.364.252 3.982 3.982 0 01-.84.252 4.035 4.035 0 01-.98.112zm.392-2.212c.355 0 .663-.093.924-.28.28-.187.513-.43.7-.728a4.28 4.28 0 00.504-1.008c.131-.392.243-.784.336-1.176.205-.933.317-1.997.336-3.192-.149-.373-.429-.672-.84-.896-.392-.243-.859-.364-1.4-.364-.504 0-.915.168-1.232.504a3.668 3.668 0 00-.756 1.26 8.639 8.639 0 00-.364 1.624 12.301 12.301 0 00-.112 1.568c0 .243.009.476.028.7.019.205.056.401.112.588a.42.42 0 00.14.168.496.496 0 01.14.14c.037.075.056.14.056.196a.359.359 0 00.084.14.317.317 0 01.112.112.457.457 0 01.084.112c.056.037.112.084.168.14.075.056.149.103.224.14.093.037.187.084.28.14a.942.942 0 00.252.112h.224zm16.209-2.184c.112.037.205.13.28.28.131.261.196.57.196.924a.84.84 0 01-.14.448c-.075.15-.159.27-.252.364a12.14 12.14 0 00-.504.532c-.149.15-.327.299-.532.448-.205.15-.476.317-.812.504a6.442 6.442 0 01-1.008.532 4.997 4.997 0 01-.644.252c-.168.075-.345.13-.532.168a2.44 2.44 0 01-.532.056 6.886 6.886 0 01-.672.028 3.22 3.22 0 01-1.064-.196c-.355-.112-.607-.215-.756-.308-.616-.373-1.055-.868-1.316-1.484-.261-.635-.392-1.41-.392-2.324 0-.56.065-1.101.196-1.624a8.193 8.193 0 01.504-1.484c.224-.467.467-.887.728-1.26.28-.373.56-.69.84-.952.149-.15.345-.317.588-.504.261-.187.523-.355.784-.504.28-.15.579-.28.896-.392.317-.13.709-.196 1.176-.196.467 0 .905.177 1.316.532.429.336.644.747.644 1.232 0 .112-.009.215-.028.308-.019.075-.047.15-.084.224a1.406 1.406 0 01-.196.364.816.816 0 01-.252.252c-.149.112-.392.168-.728.168a3.08 3.08 0 01-.476-.028 1.577 1.577 0 00-.476-.056c-.299 0-.635.13-1.008.392-.355.243-.691.57-1.008.98-.317.41-.588.868-.812 1.372a3.78 3.78 0 00-.308 1.484c0 .467.084.85.252 1.148.187.299.523.448 1.008.448a3.21 3.21 0 001.204-.224c.392-.168.709-.317.952-.448.187-.093.411-.224.672-.392.28-.187.523-.345.728-.476.187-.112.336-.224.448-.336.112-.112.224-.196.336-.252a1.602 1.602 0 01.476-.112.48.48 0 01.308.112zm19.447 3.248c-.093.728-.495 1.092-1.204 1.092h-.168a.528.528 0 01-.168.028c-.056 0-.112-.037-.168-.112a.684.684 0 01-.252-.056.453.453 0 00-.196-.056.453.453 0 01-.084-.112.457.457 0 00-.084-.112c-.149-.093-.271-.252-.364-.476a1.44 1.44 0 01-.14-.224 3.35 3.35 0 00-.112-.252 3.202 3.202 0 01-.196-.532 25.559 25.559 0 01-.112-.532 6.121 6.121 0 01-.028-.616v-1.092a.18.18 0 00-.14-.14.434.434 0 00-.168-.056c-.037 0-.159.084-.364.252-.187.15-.439.364-.756.644-.299.261-.635.56-1.008.896-.373.336-.747.681-1.12 1.036l-.532.532c-.187.187-.476.28-.868.28a2.3 2.3 0 01-.476-.084c-.205-.056-.345-.112-.42-.168l-.112-.084a7.827 7.827 0 01-.308-.7c-.093-.261-.159-.663-.196-1.204a47.924 47.924 0 01-.056-.532v-.896a.912.912 0 00-.056-.336c-.037-.093-.075-.14-.112-.14a.983.983 0 00-.28.028 1.112 1.112 0 00-.252.14 3.555 3.555 0 00-.336.308c-.224.205-.476.448-.756.728-.28.261-.597.57-.952.924-.392.392-.756.765-1.092 1.12-.317.336-.541.607-.672.812a3.35 3.35 0 00-.112.252l-.084.252c-.037.075-.065.14-.084.196a.359.359 0 01-.084.14.562.562 0 01-.308.168 1.24 1.24 0 01-.392.056c-.317 0-.635-.168-.952-.504-.299-.336-.448-.775-.448-1.316 0-.261.028-.588.084-.98.056-.41.121-.821.196-1.232.075-.43.149-.85.224-1.26.093-.41.168-.756.224-1.036.056-.261.112-.57.168-.924.075-.355.14-.7.196-1.036.075-.336.131-.644.168-.924a3.54 3.54 0 00.084-.588c0-.15-.028-.355-.084-.616a.646.646 0 01.14-.28c.112-.13.205-.224.28-.28a.52.52 0 01.336-.112 1.348 1.348 0 011.176.672c.168.28.289.579.364.896l.028.14a.933.933 0 00-.056.224v.112c0 .019.009.037.028.056 0 .41-.037.793-.112 1.148-.075.355-.177.775-.308 1.26-.037.187-.084.392-.14.616a2.873 2.873 0 00-.056.448c0 .093.047.14.14.14a.35.35 0 00.252-.112l.196-.196a26.33 26.33 0 011.484-1.68 28.893 28.893 0 011.512-1.512c.187-.168.336-.28.448-.336a.691.691 0 01.392-.112c.448 0 .831.13 1.148.392.317.243.513.457.588.644.093.261.159.476.196.644.037.168.056.336.056.504 0 .261-.009.56-.028.896v.812c0 .187.028.317.084.392a.41.41 0 00.252.084c.019 0 .084-.037.196-.112.112-.093.233-.196.364-.308.149-.112.299-.233.448-.364.168-.13.308-.252.42-.364.504-.43.971-.83 1.4-1.204.448-.373.775-.644.98-.812.168-.15.308-.243.42-.28.112-.056.261-.084.448-.084.168 0 .336.075.504.224.187.15.355.327.504.532.149.205.271.42.364.644.093.224.14.42.14.588 0 .299-.019.635-.056 1.008-.037.373-.056.728-.056 1.064 0 .13.009.327.028.588.037.243.075.392.112.448.019.205.084.401.196.588.112.168.243.355.392.56l.196.224.112.084c-.019 0-.028.01-.028.028v.14c.019 0 .028.019.028.056v.336zm7.175 1.036c-.915 0-1.69-.233-2.324-.7a1.857 1.857 0 00-.392-.252.42.42 0 01-.14-.168.362.362 0 00-.084-.168c0-.056-.028-.112-.084-.168l-.112-.224-.224-.28a1.389 1.389 0 01-.168-.336 5.507 5.507 0 01-.448-1.456 12.448 12.448 0 01-.112-1.708c0-.504.028-1.017.084-1.54.074-.523.158-1.036.252-1.54h-.448a1.143 1.143 0 00-.14-.056.42.42 0 01-.14-.168.341.341 0 00-.196-.196.904.904 0 01-.028-.224c.018-.093.009-.168-.028-.224.037-.037.056-.13.056-.28 0-.15.018-.233.056-.252a.419.419 0 01.168-.14.46.46 0 00.196-.224.177.177 0 01.084-.084.319.319 0 00.112-.112 1.8 1.8 0 01.252-.056 1.76 1.76 0 01.476-.056c.186-.672.438-1.437.756-2.296.336-.859.737-1.67 1.204-2.436a7.883 7.883 0 011.624-1.932 3.128 3.128 0 012.128-.812c.597 0 1.054.084 1.372.252.336.168.634.439.896.812l.308.392c.018.056.056.187.112.392.056.187.102.308.14.364.074.205.13.401.168.588.056.187.084.383.084.588 0 .504-.103 1.083-.308 1.736a6.04 6.04 0 01-1.008 1.848c-.448.597-1.046 1.13-1.792 1.596-.728.448-1.624.737-2.688.868l-1.148.14a5.37 5.37 0 01-.084.476c-.038.15-.066.317-.084.504-.019.168-.038.355-.056.56l.252-.168a1.57 1.57 0 01.168-.14 1.07 1.07 0 01.252-.14.636.636 0 01.196-.056c.037-.019.056-.056.056-.112a.984.984 0 01.252-.084l.28-.112c.28-.112.588-.205.924-.28a4.28 4.28 0 011.092-.14c.541 0 .998.084 1.372.252.392.168.709.401.952.7.242.28.42.616.532 1.008.112.373.168.775.168 1.204 0 .765-.122 1.456-.364 2.072a4.5 4.5 0 01-.98 1.596 4.3 4.3 0 01-1.512 1.008c-.579.243-1.223.364-1.932.364zm.364-2.296c.672 0 1.194-.233 1.568-.7a2.558 2.558 0 00.588-1.652c0-.392-.122-.71-.364-.952-.243-.243-.551-.364-.924-.364-.262 0-.514.037-.756.112-.224.075-.43.159-.616.252l-.084.084c-.019.019-.038.028-.056.028h-.028c-.019 0-.028.01-.028.028h-.028c0 .037-.019.065-.056.084-.019 0-.047.019-.084.056-.019.037-.066.065-.14.084a.677.677 0 00-.224.168.608.608 0 01-.112.14c-.038.056-.131.103-.28.14a.411.411 0 00-.084.112.335.335 0 01-.084.056l-.224.364c.018.523.196.98.532 1.372.336.392.83.588 1.484.588zm-.364-8.54a2.832 2.832 0 001.12-.42 3.68 3.68 0 00.952-.812c.28-.336.494-.7.644-1.092.168-.41.252-.821.252-1.232 0-.317-.094-.579-.28-.784a.904.904 0 00-.728-.336c-.318 0-.626.159-.924.476a5.202 5.202 0 00-.84 1.148c-.262.467-.495.98-.7 1.54a12.48 12.48 0 00-.476 1.596h.42c.224-.019.41-.047.56-.084zm13.572 10.724a.644.644 0 00-.224.056.375.375 0 01-.224.084c-.075.075-.15.14-.224.196a.984.984 0 01-.364.14 4.216 4.216 0 01-.728.28 3.27 3.27 0 01-.896.112c-.598 0-1.111-.112-1.54-.336a3.031 3.031 0 01-1.008-.868 3.903 3.903 0 01-.588-1.148 4.88 4.88 0 01-.168-1.232c0-.355.018-.681.056-.98a5.65 5.65 0 01.196-.952c.037-.15.074-.28.112-.392.037-.112.084-.243.14-.392l.28-.672c.018-.056.037-.13.056-.224a1.93 1.93 0 01.14-.28c.074-.187.177-.373.308-.56.392-.653.84-1.157 1.344-1.512.504-.355 1.026-.532 1.568-.532.018.019.037.028.056.028a.26.26 0 01.112.028.211.211 0 00.084.028c.037 0 .065.01.084.028a.19.19 0 00.14.056c0 .037.028.093.084.168.336.093.69.299 1.064.616a5.4 5.4 0 011.064 1.092c.317.43.578.915.784 1.456a4.34 4.34 0 01.308 1.596c0 .84-.168 1.605-.504 2.296a5.123 5.123 0 01-1.316 1.68l-.196.14zm-1.764-6.44c-.038.037-.066.056-.084.056a1.112 1.112 0 01-.14.056.251.251 0 01-.112.028 1.306 1.306 0 01-.252.028c-.075 0-.159.047-.252.14a.503.503 0 00-.252.168 3.439 3.439 0 00-.308.42c-.262.28-.439.663-.532 1.148-.094.467-.14.915-.14 1.344 0 .467.121.83.364 1.092.242.243.578.364 1.008.364.709 0 1.316-.205 1.82-.616.522-.43.784-1.064.784-1.904 0-.635-.178-1.176-.532-1.624a1.82 1.82 0 00-1.316-.756l-.056.056z" fill="#fff" opacity=".5"/><defs><radialGradient id="paint0_radial" cx="0" cy="0" r="1" gradientUnits="userSpaceOnUse" gradientTransform="matrix(90.64256 -15.6013 11.4605 66.58481 94.638 80.723)"><stop stop-color="#407B9A"/><stop offset=".645" stop-color="#3682A1"/><stop offset=".941" stop-color="#C6DDEE"/><stop offset="1" stop-color="#fff"/></radialGradient><linearGradient id="paint1_linear" x1="145.965" y1="31.625" x2="119.647" y2="55.617" gradientUnits="userSpaceOnUse"><stop stop-color="#fff"/><stop offset=".475" stop-color="#D4EFFD" stop-opacity=".5"/><stop offset="1" stop-color="#3699D6" stop-opacity="0"/></linearGradient></defs></svg>