<svg width="184" height="191" fill="none" xmlns="http://www.w3.org/2000/svg"><path opacity=".47" d="M4.212 97.3C-.896 125.604-.815 162.785 22.7 175.094c23.11 12.143 39.164 17.586 65.193 10.552 15.812-4.271 24.65-7.537 37.624-19.093 23.677-21.27 29.921-28.388 45.651-57.194 6.892-12.645 11.433-28.137 10.46-39.358-.73-8.207-7.784-21.186-12.892-28.555C148.383 12.136 94.623-.508 72.73 1.92 24.97 7.53 14.835 39.017 4.212 97.3z" fill="url(#paint0_radial)" stroke="#fff" stroke-width="2.939" stroke-miterlimit="10"/><path opacity=".4" d="M122.193 38.264c2.351.837 13.947 8.374 17.433 12.896 2.514 3.35 13.38 16.58 13.217 27.215 0 8.039.73 11.556-7.054 18.674-.811.753-6.163 3.182-7.541.25-1.946-5.275-4.865-17.752-15.244-31.234-2.595-3.35-11.109-11.472-14.758-14.152-1.703-1.256-7.784-6.28-7.865-8.039-.973-8.457 17.514-7.369 21.812-5.61z" fill="url(#paint1_linear)"/><path d="M36.2 66.617c-.06.02-.22.03-.48.03h-.45c-.04.4-.09.84-.15 1.32-.04.48-.08.93-.12 1.35-.04.3-.09.71-.15 1.23a75.887 75.887 0 01-.36 3.57c-.06.62-.12 1.2-.18 1.74-.02.22-.05.48-.09.78a224.771 224.771 0 00-.12 1.83v1.17c.02.1.03.2.03.3l.06 1.47c-.02.5-.07.91-.15 1.23-.08.34-.28.56-.6.66l-.6.21-.33-.12-.33-.18-.33-.51c-.06-.06-.09-.12-.09-.18v-.12c.02-.04.03-.08.03-.12 0-.04-.02-.08-.06-.12-.1-.08-.15-.16-.15-.24 0-.06-.01-.17-.03-.33-.02-.02-.03-.07-.03-.15v-.09c.02 0 .03-.01.03-.03 0-.04-.01-.07-.03-.09v-.03c0-.04.01-.08.03-.12 0-.02.01-.05.03-.09l.06-1.83c.04-.6.08-1.3.12-2.1l.21-2.82c.1-1.1.23-2.45.39-4.05.04-.36.09-.87.15-1.53.08-.66.12-1.3.12-1.92l-2.01.12c-.66.02-1.11.03-1.35.03-.24.02-.53.03-.87.03h-.96c-.32 0-.62.01-.9.03-.28 0-.5.01-.66.03l-.18 1.83c-.02.26-.05.44-.09.54-.02.1-.03.2-.03.3v.45c.02.16.03.33.03.51v.27c0 .08-.01.17-.03.27-.02.06-.05.13-.09.21-.02.08-.04.18-.06.3l-.06.72c-.06.64-.1 1.17-.12 1.59a206.484 206.484 0 01-.12 2.16v1.32c0 .2-.01.43-.03.69a.47.47 0 01-.09.12c-.04.04-.06.08-.06.12.02.04.05.06.09.06.04-.02.06 0 .06.06l-.06.06c-.02.02-.04.03-.06.03-.02 0-.03.01-.03.03-.02.06-.03.16-.03.3v.48c.02.16.03.32.03.48 0 .2-.02.38-.06.54-.02.14-.04.29-.06.45-.02.52-.07.96-.15 1.32-.06.38-.18.78-.36 1.2-.04 0-.07-.01-.09-.03h-.03c-.08 0-.15.01-.21.03-.04.04-.09.08-.15.12-.02.02-.06.05-.12.09-.04.04-.09.06-.15.06-.04 0-.08-.02-.12-.06-.08-.06-.26-.16-.54-.3-.28-.14-.47-.27-.57-.39-.08-.08-.12-.23-.12-.45v-.36c.02-.12.03-.21.03-.27 0-.04-.02-.08-.06-.12-.04-.02-.06-.06-.06-.12l.27-1.26c.04-.14.06-.25.06-.33v-.57c0-.1.01-.2.03-.3.04-.34.05-.7.03-1.08 0-.4.02-.83.06-1.29l.09-1.65.06-1.56c.02-.56.05-1.07.09-1.53l.12-2.22c.04-.76.08-1.35.12-1.77l.03-.51c0-.2-.02-.34-.06-.42a1.16 1.16 0 00-.21-.15c-.1-.06-.15-.18-.15-.36 0-.14-.02-.26-.06-.36-.04-.12-.06-.24-.06-.36 0-.22.05-.41.15-.57.12-.18.26-.33.42-.45.22-.18.49-.26.81-.24.32 0 .62-.02.9-.06.14-.02.34-.03.6-.03.26-.02.54-.03.84-.03.32-.02.65-.03.99-.03.36-.02.7-.04 1.02-.06a1588.716 1588.716 0 004.02-.21 112.614 112.614 0 013-.12c.1 0 .17.01.21.03l.12.06c.2.08.33.12.39.12h.06c0-.02.02-.03.06-.03.02 0 .05.02.09.06.06.02.11.07.15.15.06.06.12.1.18.12.04.02.06.05.06.09 0 .02.03.04.09.06 0 .04.01.07.03.09.04.02.06.06.06.12.02.02.03.06.03.12s.01.1.03.12c.02.02.01.05-.03.09-.02.02-.03.05-.03.09-.02.08-.04.15-.06.21v.36c.02.08.04.14.06.18l.03.27c0 .06-.09.11-.27.15-.18.04-.3.07-.36.09zm6.172 15c-.58 0-1.08-.1-1.5-.3-.4-.2-.73-.46-.99-.78-.26-.34-.46-.7-.6-1.08-.12-.4-.18-.8-.18-1.2 0-.62.12-1.19.36-1.71.24-.54.53-1.04.87-1.5.12-.16.26-.34.42-.54.18-.22.36-.42.54-.6.2-.2.39-.38.57-.54.18-.16.34-.27.48-.33.28-.14.48-.27.6-.39.14-.14.33-.21.57-.21.48 0 .91.12 1.29.36.38.22.7.52.96.9s.45.81.57 1.29c.14.48.21.97.21 1.47 0 1.58-.35 2.84-1.05 3.78-.7.92-1.74 1.38-3.12 1.38zm.72-6.6c-.08 0-.16.01-.24.03-.08 0-.15.03-.21.09-.16.16-.29.31-.39.45-.1.12-.23.32-.39.6-.1.18-.19.42-.27.72-.06.28-.09.59-.09.93 0 .34.09.62.27.84.18.2.47.3.87.3.24 0 .48-.06.72-.18.24-.14.45-.32.63-.54.18-.22.33-.48.45-.78.12-.3.18-.62.18-.96 0-.38-.12-.72-.36-1.02-.24-.32-.54-.48-.9-.48h-.27zm6.85 7.41c-.52 0-.9-.13-1.14-.39-.24-.26-.38-.56-.42-.9a.624.624 0 01-.03-.24c0-.12-.02-.2-.06-.24l.12-.12c.06-.06.11-.09.15-.09l-.09-.15c.06 0 .09-.01.09-.03.02-.02.05-.03.09-.03.02 0 .04.01.06.03h.06c.1 0 .15-.04.15-.12 0-.02-.01-.04-.03-.06h-.03c.16-.08.31-.12.45-.12s.26.02.36.06c.12.04.27.06.45.06.68 0 1.15-.45 1.41-1.35.28-.92.42-2.13.42-3.63 0-.08-.01-.24-.03-.48v-.87c0-.32-.01-.63-.03-.93v-.72c0-.38.09-.76.27-1.14.2-.38.49-.59.87-.63.24-.02.6-.04 1.08-.06.5-.04 1.02-.07 1.56-.09.56-.04 1.11-.06 1.65-.06.56-.02 1.03-.03 1.41-.03.56 0 .93.15 1.11.45.18.3.27.64.27 1.02 0 .88-.08 1.98-.24 3.3-.16 1.3-.24 2.73-.24 4.29 0 .5.05.92.15 1.26.1.32.15.69.15 1.11 0 .08-.02.18-.06.3-.08.22-.22.33-.42.33 0 .06-.06.09-.18.09-.1.02-.19.03-.27.03-.08 0-.16-.02-.24-.06-.08-.02-.17-.03-.27-.03-.08 0-.14.01-.18.03-.08-.04-.16-.07-.24-.09-.06 0-.12-.03-.18-.09a.204.204 0 01-.06-.15c0-.04-.02-.08-.06-.12l-.12-.12a.698.698 0 01-.12-.18c-.1-.22-.17-.46-.21-.72-.02-.26-.03-.51-.03-.75v-.48c.02-.2.05-.37.09-.51-.02-.08-.03-.25-.03-.51 0-.34.01-.67.03-.99.02-.34.04-.73.06-1.17.04-.44.08-.96.12-1.56.06-.62.11-1.4.15-2.34l-2.79.12c-.02.02-.05.03-.09.03-.04.02-.09.03-.15.03s-.14-.02-.24-.06c-.1-.04-.2-.06-.3-.06 0 .08.02.14.06.18.06.04.09.07.09.09 0 .16.01.31.03.45v.42c.02.14.03.27.03.39 0 .6-.01 1.22-.03 1.86-.02.62-.08 1.23-.18 1.83a.38.38 0 01-.09.18c-.04.04-.06.11-.06.21 0 .1.02.19.06.27-.06.02-.11.11-.15.27-.02.06-.03.13-.03.21 0 .08-.02.14-.06.18 0 .16-.01.28-.03.36-.28.9-.72 1.63-1.32 2.19-.6.56-1.44.84-2.52.84zm18.635.24c-1.02 0-1.93-.24-2.73-.72-.78-.46-1.33-1.22-1.65-2.28-.14-.44-.24-.95-.3-1.53-.12-.14-.2-.24-.24-.3-.02-.08-.04-.13-.06-.15-.02 0-.03-.01-.03-.03 0-.04-.03-.06-.09-.06-.04 0-.07-.03-.09-.09v-.36c.02-.06.03-.12.03-.18 0-.02.01-.03.03-.03.04-.02.07-.04.09-.06l.42-.06c.1-.7.32-1.41.66-2.13.36-.72.81-1.4 1.35-2.04.14-.18.35-.39.63-.63.28-.26.6-.5.96-.72.38-.24.77-.44 1.17-.6.42-.18.84-.27 1.26-.27.68 0 1.28.24 1.8.72.52.46.78 1.08.78 1.86 0 .22-.03.46-.09.72-.04.24-.1.47-.18.69-.1.28-.25.58-.45.9-.18.32-.38.62-.6.9-.28.36-.58.68-.9.96-.3.26-.64.52-1.02.78-.46.28-.93.53-1.41.75-.48.22-.95.33-1.41.33 0 .28.07.5.21.66.14.16.31.29.51.39.22.08.46.13.72.15.26.02.51.03.75.03.78 0 1.34-.08 1.68-.24.36-.18.62-.27.78-.27.16 0 .26.02.3.06.12.1.19.21.21.33.02.1.03.22.03.36v.21c0 .12-.02.26-.06.42-.04.18-.09.33-.15.45-.28.38-.69.65-1.23.81-.52.18-1.08.27-1.68.27zm-2.13-5.7c.38-.08.79-.25 1.23-.51.46-.28.88-.59 1.26-.93.4-.34.73-.69.99-1.05.26-.38.39-.72.39-1.02 0-.08-.04-.17-.12-.27-.08-.1-.23-.15-.45-.15-.34 0-.68.11-1.02.33a3.2 3.2 0 00-.81.72c-.24.3-.45.57-.63.81-.16.24-.29.47-.39.69-.1.2-.19.41-.27.63-.06.22-.12.47-.18.75zm11.827 4.98c-.22 0-.47-.01-.75-.03-.26-.02-.54-.05-.84-.09-.1-.02-.21-.05-.33-.09-.1-.04-.19-.08-.27-.12a.737.737 0 00-.27-.06c-.06.02-.12 0-.18-.06-.2-.14-.39-.28-.57-.42-.16-.12-.26-.3-.3-.54-.02-.1-.04-.18-.06-.24a.78.78 0 01-.03-.24c0-.08.02-.15.06-.21.04-.08.06-.16.06-.24 0-.1.03-.18.09-.24.06-.08.12-.12.18-.12.12-.04.25-.06.39-.06.18 0 .36.02.54.06.18.02.33.05.45.09.28.06.53.14.75.24.22.1.56.15 1.02.15.32 0 .65-.01.99-.03.36-.04.67-.1.93-.18.28-.1.51-.24.69-.42.18-.2.27-.47.27-.81 0-.48-.13-.83-.39-1.05-.26-.24-.73-.36-1.41-.36-.24 0-.52.02-.84.06-.32.04-.62.06-.9.06a.86.86 0 01-.39-.09c-.16-.04-.27-.1-.33-.18a.757.757 0 01-.18-.51c0-.12.01-.21.03-.27.04-.06.06-.14.06-.24 0-.1.01-.16.03-.18.02-.04.04-.06.06-.06.04 0 .08-.02.12-.06.04-.04.09-.08.15-.12.08-.04.15-.07.21-.09.1-.02.27-.03.51-.03.34-.02.69-.06 1.05-.12.38-.08.72-.19 1.02-.33.3-.14.55-.32.75-.54.2-.22.3-.5.3-.84 0-.34-.11-.62-.33-.84-.2-.24-.51-.36-.93-.36-.42 0-.81.03-1.17.09-.34.06-.68.21-1.02.45l-.15.15c-.1.1-.24.17-.42.21-.3.08-.58.12-.84.12v-.06c.02 0 .03-.01.03-.03 0-.04-.03-.06-.09-.06-.02 0-.09.02-.21.06-.06 0-.13.03-.21.09l.03-.21c-.04 0-.11-.01-.21-.03a.483.483 0 00-.21-.06c.04-.06.06-.14.06-.24.02-.12.03-.21.03-.27 0-.54.2-.96.6-1.26.4-.32.87-.56 1.41-.72a7.69 7.69 0 011.62-.3c.54-.06.94-.09 1.2-.09 1.16 0 2.02.24 2.58.72.56.46.84 1.21.84 2.25 0 .5-.12.98-.36 1.44-.22.44-.63.83-1.23 1.17.64.22 1.1.56 1.38 1.02.3.44.45 1 .45 1.68 0 .6-.14 1.13-.42 1.59-.28.44-.67.82-1.17 1.14-.48.32-1.06.56-1.74.72-.68.16-1.41.24-2.19.24zm17.825.33c-.12 0-.23-.01-.33-.03-.1-.02-.2-.05-.3-.09-.1-.04-.19-.09-.27-.15-.06-.06-.12-.11-.18-.15-.2 0-.35-.16-.45-.48-.1-.22-.16-.44-.18-.66v-.72c0-.26.01-.51.03-.75.02-.24.03-.49.03-.75v-.78c.02-.26.04-.56.06-.9-.22.02-.41.04-.57.06h-.27l-3.57.21c-.04.34-.07.67-.09.99v.72c0 .4.01.73.03.99.04.26.06.52.06.78 0 .58-.07 1.01-.21 1.29-.04.14-.12.21-.24.21l-.15.15c-.04.04-.1.06-.18.06-.18 0-.33-.02-.45-.06a2.02 2.02 0 00-.33-.03h-.12c-.04.02-.08.03-.12.03-.08 0-.16-.02-.24-.06a.983.983 0 01-.15-.12.29.29 0 01-.12-.15c0-.06-.02-.12-.06-.18-.06 0-.11-.05-.15-.15-.02-.1-.03-.2-.03-.3v-.33c.02-.12.04-.26.06-.42.14-1.5.24-2.78.3-3.84.08-1.08.12-1.85.12-2.31 0-.48-.02-.94-.06-1.38-.02-.46-.03-.79-.03-.99 0-.22.03-.36.09-.42 0-.02-.01-.04-.03-.06v-.18c.02-.02.03-.04.03-.06 0-.04.01-.13.03-.27.04-.14.1-.28.18-.42.1-.16.23-.3.39-.42.18-.12.4-.18.66-.18.54 0 .9.11 1.08.33.18.22.27.55.27.99 0 .06-.01.13-.03.21v.21l-.27 1.65c0 .14-.01.31-.03.51 0 .18-.02.5-.06.96h.87c.3-.02.58-.03.84-.03.26-.02.48-.03.66-.03.18-.02.3-.03.36-.03h.6c.36-.02.74-.04 1.14-.06.04-.38.06-.79.06-1.23.02-.44.05-.93.09-1.47-.04-.1-.07-.24-.09-.42-.02-.18-.03-.32-.03-.42 0-.14-.01-.27-.03-.39a2.02 2.02 0 01-.03-.33c0-.14.04-.27.12-.39.06-.1.13-.15.21-.15.1-.02.18-.05.24-.09.2-.16.42-.24.66-.24.2 0 .34.01.42.03.16.04.26.11.3.21.06.08.17.18.33.3.1 0 .16.11.18.33.04.22.06.42.06.6 0 .44-.03.97-.09 1.59-.04.6-.09 1.26-.15 1.98h.09c.04-.02.08-.03.12-.03h.09c.02.04.06.08.12.12.08.04.12.14.12.3 0 .14.01.26.03.36.04.08.06.17.06.27 0 .16-.04.32-.12.48-.08.14-.17.26-.27.36-.1.1-.23.17-.39.21-.06.84-.09 1.67-.09 2.49 0 .5.05.92.15 1.26.1.32.15.69.15 1.11 0 .14-.04.26-.12.36-.06.1-.14.15-.24.15-.04.1-.12.16-.24.18a.88.88 0 01-.33.06zm17.883.12c-.04 0-.09-.01-.15-.03h-.15c-.08 0-.16-.01-.24-.03h-.27c-.04 0-.07-.01-.09-.03-.02-.02-.05-.03-.09-.03a.59.59 0 00-.21-.15c-.06 0-.12-.03-.18-.09a.204.204 0 01-.06-.15c0-.06-.02-.11-.06-.15l-.12-.12c-.04-.04-.06-.1-.06-.18 0-.94.03-1.69.09-2.25.08-.56.13-1.09.15-1.59l.09-2.52.06-1.44c.04-.52.08-1.06.12-1.62.04-.28.07-.54.09-.78.04-.24.09-.45.15-.63.04-.12.08-.21.12-.27.04-.06.12-.13.24-.21l.12-.12c.06-.06.13-.09.21-.09.04 0 .08.01.12.03h.18c.06 0 .12-.01.18-.03a.82.82 0 01.18-.03c.1 0 .23.02.39.06.1.04.17.11.21.21.04.02.1.11.18.27.08.12.12.29.12.51 0 .48-.02 1-.06 1.56-.04.56-.11 1.25-.21 2.07l-.3 2.79c0 .4.01.78.03 1.14.02.36.03.65.03.87 0 .08-.01.19-.03.33v.42c-.02.18-.03.36-.03.54 0 .16-.02.34-.06.54-.02.2-.05.36-.09.48 0 .14-.01.25-.03.33-.06.18-.17.27-.33.27-.02.04-.06.07-.12.09-.04.02-.08.03-.12.03zm-8.94.15c-.48 0-.96-.05-1.44-.15-.46-.1-.88-.26-1.26-.48-.36-.22-.66-.52-.9-.9-.22-.38-.33-.85-.33-1.41 0-.5.02-1.03.06-1.59.06-.58.13-1.16.21-1.74.08-.58.16-1.14.24-1.68a33.203 33.203 0 00.36-2.55c.06-.38.12-.68.18-.9.08-.26.21-.48.39-.66.1-.1.23-.15.39-.15.04 0 .08-.01.12-.03.06-.04.11-.06.15-.06.04 0 .08.01.12.03h.15c.06 0 .12-.01.18-.03.06-.02.11-.03.15-.03.18 0 .36.06.54.18.18.1.32.26.42.48.04.08.06.23.06.45 0 .28-.07.52-.21.72-.14.18-.23.43-.27.75l-.3 2.01c.14-.02.3-.05.48-.09.16-.04.34-.07.54-.09.2-.02.44-.03.72-.03.62 0 1.2.06 1.74.18.54.1 1.01.31 1.41.63.1.08.2.19.3.33.12.14.18.27.18.39.06.04.12.09.18.15.04.04.08.1.12.18.06.08.1.17.12.27 0 .34.04.63.12.87.08.22.12.49.12.81 0 .66-.14 1.25-.42 1.77-.26.52-.62.95-1.08 1.29-.44.36-.97.63-1.59.81-.62.18-1.27.27-1.95.27zm-.33-2.19h.57c.18 0 .35-.02.51-.06l.18-.12.12-.06c.04-.04.08-.06.12-.06.1-.02.18-.03.24-.03s.14-.05.24-.15c.12-.04.2-.08.24-.12.06-.04.16-.17.3-.39.14-.26.21-.61.21-1.05 0-.36-.06-.64-.18-.84-.12-.2-.29-.35-.51-.45-.2-.12-.43-.19-.69-.21-.26-.04-.53-.06-.81-.06-.56 0-1.03.08-1.41.24-.16.58-.24 1.25-.24 2.01 0 .1.01.23.03.39.02.16.06.31.12.45.08.14.19.26.33.36.16.1.37.15.63.15zm19.06 2.31c-1.02 0-1.93-.24-2.73-.72-.78-.46-1.33-1.22-1.65-2.28-.14-.44-.24-.95-.3-1.53-.12-.14-.2-.24-.24-.3-.02-.08-.04-.13-.06-.15-.02 0-.03-.01-.03-.03 0-.04-.03-.06-.09-.06-.04 0-.07-.03-.09-.09v-.36c.02-.06.03-.12.03-.18 0-.02.01-.03.03-.03.04-.02.07-.04.09-.06l.42-.06c.1-.7.32-1.41.66-2.13.36-.72.81-1.4 1.35-2.04.14-.18.35-.39.63-.63.28-.26.6-.5.96-.72.38-.24.77-.44 1.17-.6.42-.18.84-.27 1.26-.27.68 0 1.28.24 1.8.72.52.46.78 1.08.78 1.86 0 .22-.03.46-.09.72-.04.24-.1.47-.18.69-.1.28-.25.58-.45.9-.18.32-.38.62-.6.9-.28.36-.58.68-.9.96-.3.26-.64.52-1.02.78-.46.28-.93.53-1.41.75-.48.22-.95.33-1.41.33 0 .28.07.5.21.66.14.16.31.29.51.39.22.08.46.13.72.15.26.02.51.03.75.03.78 0 1.34-.08 1.68-.24.36-.18.62-.27.78-.27.16 0 .26.02.3.06.12.1.19.21.21.33.02.1.03.22.03.36v.21c0 .12-.02.26-.06.42-.04.18-.09.33-.15.45-.28.38-.69.65-1.23.81-.52.18-1.08.27-1.68.27zm-2.13-5.7c.38-.08.79-.25 1.23-.51.46-.28.88-.59 1.26-.93.4-.34.73-.69.99-1.05.26-.38.39-.72.39-1.02 0-.08-.04-.17-.12-.27-.08-.1-.23-.15-.45-.15-.34 0-.68.11-1.02.33a3.2 3.2 0 00-.81.72c-.24.3-.45.57-.63.81-.16.24-.29.47-.39.69-.1.2-.19.41-.27.63-.06.22-.12.47-.18.75zM31.7 125.717c-.04.1-.1.2-.18.3-.08.12-.18.23-.3.33-.16.12-.31.22-.45.3a.68.68 0 01-.45.15c-.14 0-.28-.03-.42-.09-.2-.06-.34-.2-.42-.42-.08-.2-.12-.44-.12-.72v-.3c.02-.1.04-.21.06-.33.04-.24.09-.52.15-.84a26.179 26.179 0 01.39-1.83c.06-.22.09-.44.09-.66 0-.08-.02-.12-.06-.12-.08 0-.17.07-.27.21-.08.14-.22.34-.42.6-.3.4-.62.78-.96 1.14-.34.36-.77.77-1.29 1.23-.48.42-.99.81-1.53 1.17-.54.34-1.13.51-1.77.51-.6 0-1.07-.23-1.41-.69-.32-.48-.48-1.02-.48-1.62 0-.2.01-.43.03-.69.04-.26.07-.53.09-.81.04-.28.08-.54.12-.78.04-.26.06-.47.06-.63.04-.26.1-.6.18-1.02.08-.42.12-.77.12-1.05l.15-1.02c.04-.2.06-.38.06-.54.02-.18.05-.34.09-.48.02-.08.03-.15.03-.21v-.21c0-.16.04-.25.12-.27.12-.1.28-.18.48-.24.14-.06.27-.08.39-.06.12 0 .2-.02.24-.06.22 0 .43.14.63.42.2.28.32.53.36.75.02.06.03.15.03.27v.36c0 .34-.02.67-.06.99-.04.32-.09.66-.15 1.02l-.15.6c-.04.24-.09.48-.15.72-.04.24-.08.46-.12.66-.02.18-.03.31-.03.39 0 .12.02.23.06.33.06.08.17.12.33.12.18 0 .45-.13.81-.39.36-.26.74-.57 1.14-.93.42-.38.82-.77 1.2-1.17.4-.42.72-.79.96-1.11.38-.5.69-.91.93-1.23.26-.32.49-.57.69-.75.2-.2.5-.3.9-.3.2 0 .37.08.51.24.16.16.29.32.39.48.16.26.24.55.24.87 0 .3.02.61.06.93 0 .08-.02.16-.06.24-.04.08-.06.16-.06.24-.02.22-.04.48-.06.78-.02.3-.04.63-.06.99-.1 1.08-.2 1.94-.3 2.58-.08.62-.19 1.13-.33 1.53l-.03.12zm13.277-3.33c.12.04.22.14.3.3.14.28.21.61.21.99a.9.9 0 01-.15.48c-.08.16-.17.29-.27.39-.2.2-.38.39-.54.57-.16.16-.35.32-.57.48-.22.16-.51.34-.87.54-.34.22-.7.41-1.08.57-.26.12-.49.21-.69.27-.18.08-.37.14-.57.18-.18.04-.37.06-.57.06-.2.02-.44.03-.72.03-.36 0-.74-.07-1.14-.21-.38-.12-.65-.23-.81-.33-.66-.4-1.13-.93-1.41-1.59-.28-.68-.42-1.51-.42-2.49 0-.6.07-1.18.21-1.74.14-.58.32-1.11.54-1.59.24-.5.5-.95.78-1.35.3-.4.6-.74.9-1.02.16-.16.37-.34.63-.54.28-.2.56-.38.84-.54.3-.16.62-.3.96-.42.34-.14.76-.21 1.26-.21s.97.19 1.41.57c.46.36.69.8.69 1.32 0 .12-.01.23-.03.33-.02.08-.05.16-.09.24-.04.12-.11.25-.21.39-.08.12-.17.21-.27.27-.16.12-.42.18-.78.18-.22 0-.39-.01-.51-.03-.12-.04-.29-.06-.51-.06-.32 0-.68.14-1.08.42-.38.26-.74.61-1.08 1.05-.34.44-.63.93-.87 1.47-.22.52-.33 1.05-.33 1.59 0 .5.09.91.27 1.23.2.32.56.48 1.08.48.46 0 .89-.08 1.29-.24.42-.18.76-.34 1.02-.48.2-.1.44-.24.72-.42.3-.2.56-.37.78-.51.2-.12.36-.24.48-.36s.24-.21.36-.27a1.71 1.71 0 01.51-.12c.12 0 .23.04.33.12zm5.866-4.92c.42-.12.9-.26 1.44-.42.54-.18 1.1-.39 1.68-.63.4-.16.84-.35 1.32-.57l1.08-.54c.3-.16.6-.3.9-.42.3-.14.55-.21.75-.21.2 0 .32.02.36.06.04.04.17.09.39.15.02.06.07.15.15.27.08.12.16.21.24.27v.12c.02.04.03.08.03.12 0 .02-.01.04-.03.06v.09c0 .04.01.08.03.12a.67.67 0 01-.09.24c-.02.04-.03.09-.03.15-.02.04-.05.07-.09.09l-.09.09a.29.29 0 01-.12.15c-.06.02-.11.05-.15.09-.18.16-.5.35-.96.57-.44.22-.93.45-1.47.69-.54.24-1.08.47-1.62.69-.54.2-.99.36-1.35.48-.76.22-1.14.37-1.14.45.02.08.15.24.39.48.24.24.54.53.9.87.38.32.79.68 1.23 1.08.46.38.89.75 1.29 1.11.42.36.79.7 1.11 1.02.34.3.58.54.72.72.1.14.15.23.15.27 0 .04.02.1.06.18.06.06.11.12.15.18-.04.08-.06.17-.06.27v.09c0 .02.01.04.03.06a.47.47 0 00-.09.12c0 .04-.01.08-.03.12l-.15.21-.21.15-.24.12c-.06.04-.11.08-.15.12-.1.06-.19.09-.27.09-.16 0-.31-.04-.45-.12-.12-.06-.19-.11-.21-.15a.6.6 0 01-.51-.24 1.8 1.8 0 00-.39-.39c-.44-.3-1-.74-1.68-1.32-.68-.6-1.48-1.36-2.4-2.28-.1-.1-.25-.21-.45-.33-.18-.12-.31-.18-.39-.18-.04.1-.06.18-.06.24v.24a10.705 10.705 0 00.09 1.47c.02.18.04.35.06.51.02.16.03.33.03.51 0 .38-.09.7-.27.96-.22.28-.58.42-1.08.42h-.18c-.28-.04-.47-.18-.57-.42-.08-.24-.14-.48-.18-.72-.04-.24-.07-.58-.09-1.02-.02-.46-.03-.86-.03-1.2 0-.48.02-1.02.06-1.62.06-.62.12-1.22.18-1.8.06-.6.12-1.15.18-1.65.08-.52.14-.94.18-1.26l.18-1.2c.02-.08.04-.15.06-.21.02-.08.05-.16.09-.24.1-.16.21-.27.33-.33a.98.98 0 00.3-.24c.1 0 .16.01.18.03.06-.02.11-.05.15-.09.04-.04.1-.06.18-.06.06 0 .15.01.27.03.12 0 .23.05.33.15.12.08.22.21.3.39.08.18.12.44.12.78 0 .04-.01.12-.03.24-.02.12-.05.24-.09.36-.04.14-.07.29-.09.45l-.18.87zm13.384 9.15c-.58 0-1.08-.1-1.5-.3-.4-.2-.73-.46-.99-.78-.26-.34-.46-.7-.6-1.08-.12-.4-.18-.8-.18-1.2 0-.62.12-1.19.36-1.71.24-.54.53-1.04.87-1.5.12-.16.26-.34.42-.54.18-.22.36-.42.54-.6.2-.2.39-.38.57-.54.18-.16.34-.27.48-.33.28-.14.48-.27.6-.39.14-.14.33-.21.57-.21.48 0 .91.12 1.29.36.38.22.7.52.96.9s.45.81.57 1.29c.14.48.21.97.21 1.47 0 1.58-.35 2.84-1.05 3.78-.7.92-1.74 1.38-3.12 1.38zm.72-6.6c-.08 0-.16.01-.24.03-.08 0-.15.03-.21.09-.16.16-.29.31-.39.45-.1.12-.23.32-.39.6-.1.18-.19.42-.27.72-.06.28-.09.59-.09.93 0 .34.09.62.27.84.18.2.47.3.87.3.24 0 .48-.06.72-.18.24-.14.45-.32.63-.54.18-.22.33-.48.45-.78.12-.3.18-.62.18-.96 0-.38-.12-.72-.36-1.02-.24-.32-.54-.48-.9-.48h-.27zm8.638 7.11h-.12c-.04 0-.08.01-.12.03a.204.204 0 00-.15-.06h-.12l-.33-.06c-.14 0-.24-.02-.3-.06l-.18-.09c-.04 0-.08.01-.12.03 0-.04-.03-.09-.09-.15-.04-.04-.09-.1-.15-.18-.1-.2-.15-.42-.15-.66 0-.24.02-.44.06-.6l.18-.48c.12-.98.18-2.06.18-3.24 0-1.2.04-2.57.12-4.11l.06-.93c.02-.3.14-.54.36-.72.08-.06.15-.12.21-.18.08-.06.15-.11.21-.15.1-.04.23-.08.39-.12.76-.02 1.47-.05 2.13-.09l1.65-.06a25.461 25.461 0 012.52 0c.4 0 .66.01.78.03.08 0 .13.02.15.06.04.02.08.05.12.09.1.1.16.21.18.33l.06.12c.02.02.03.06.03.12v.21c0 .1-.02.34-.06.72-.02.38-.06.95-.12 1.71-.04.74-.11 1.75-.21 3.03-.02.08-.03.16-.03.24-.02.06-.03.13-.03.21 0 .08-.02.15-.06.21.02.06.03.14.03.24-.02.46-.05.88-.09 1.26-.02.36-.04.77-.06 1.23 0 .08.01.16.03.24v.3c.02.1.03.22.03.36 0 .32-.04.57-.12.75-.06.2-.2.32-.42.36-.06.04-.13.07-.21.09-.16.04-.34.06-.54.06-.42 0-.7-.04-.84-.12-.14-.08-.21-.23-.21-.45-.04-.06-.09-.15-.15-.27-.04-.12-.06-.24-.06-.36 0-.4.02-.75.06-1.05.06-.32.11-.67.15-1.05.04-.56.07-1.06.09-1.5l.06-1.35c.02-.46.04-.97.06-1.53.04-.56.09-1.24.15-2.04l-.45-.03h-.15a.196.196 0 01-.09-.09c-.06.08-.12.12-.18.12s-.1-.02-.12-.06c-.02-.04-.08-.06-.18-.06 0 .06-.12.11-.36.15-.04 0-.12.01-.24.03h-.24l-.72.06c-.18.02-.37.03-.57.03-.18-.02-.35-.01-.51.03-.04.42-.07.83-.09 1.23-.02.4-.05.87-.09 1.41l-.15 1.77c-.04.46-.06 1.01-.06 1.65 0 .32.03.63.09.93.06.28.09.57.09.87 0 .26-.02.5-.06.72-.04.22-.08.35-.12.39-.02.04-.06.09-.12.15s-.11.09-.15.09c-.12.08-.18.15-.18.21l-.36.03zm19.03-2.16c-.02.1-.03.19-.03.27v.21c0 .1-.01.19-.03.27v.21c0 .04-.01.08-.03.12v.15c0 .08.01.14.03.18.04.06.06.13.06.21 0 .08-.03.18-.09.3s-.1.22-.12.3c-.02.08-.06.18-.12.3-.06.08-.12.12-.18.12-.04.02-.11.08-.21.18-.06.08-.16.12-.3.12-.08 0-.16-.02-.24-.06a.38.38 0 00-.18-.09.445.445 0 01-.21-.12 1.09 1.09 0 01-.24-.27c-.04-.08-.12-.2-.24-.36a1.99 1.99 0 01-.21-.42c-.12-.3-.18-.62-.18-.96v-.36c0-.14.01-.26.03-.36 0-.12.01-.25.03-.39-.16.2-.35.43-.57.69-.22.24-.47.47-.75.69-.28.22-.6.4-.96.54-.34.16-.72.24-1.14.24-.36 0-.69-.09-.99-.27-.3-.16-.56-.38-.78-.66-.2-.28-.36-.61-.48-.99s-.18-.77-.18-1.17c0-.62.08-1.21.24-1.77.18-.56.42-1.1.72-1.62l.33-.48c.02-.04.1-.13.24-.27l.45-.51c.16-.18.33-.35.51-.51.18-.16.33-.29.45-.39l.48-.36c.3-.18.64-.37 1.02-.57.3-.14.53-.22.69-.24.18-.04.36-.06.54-.06.42 0 .83.08 1.23.24.42.16.78.36 1.08.6.04.38.06.79.06 1.23l.06 1.26.12 2.1c.06.7.09 1.43.09 2.19v.54zm-2.91-5.55c-.5.1-.97.32-1.41.66-.42.34-.76.71-1.02 1.11-.2.3-.36.62-.48.96-.1.32-.15.68-.15 1.08 0 .22.05.4.15.54.1.12.24.18.42.18.26 0 .52-.07.78-.21.28-.16.53-.34.75-.54.22-.22.41-.44.57-.66.18-.24.3-.44.36-.6l.24-.54c.08-.18.15-.47.21-.87.02-.1.03-.25.03-.45.02-.2.03-.38.03-.54-.12-.08-.28-.12-.48-.12zm8.606 4.44h-1.38c-.14-.02-.31-.04-.51-.06-.32-.04-.56-.12-.72-.24-.14-.14-.25-.3-.33-.48-.08-.12-.13-.19-.15-.21v-.12c.02-.02.03-.05.03-.09-.02-.02-.03-.05-.03-.09 0-.06.02-.13.06-.21-.02-.02-.03-.05-.03-.09v-.09c.02-.02.03-.05.03-.09 0-.02-.01-.04-.03-.06v-.06c.06-.26.22-.48.48-.66.28-.18.56-.27.84-.27.32 0 .62.03.9.09.28.04.53.06.75.06.02-.8.13-1.55.33-2.25.2-.72.48-1.34.84-1.86.36-.54.8-.96 1.32-1.26.54-.32 1.16-.48 1.86-.48.16 0 .3.02.42.06.14.02.23.05.27.09l.48.18.3.12c.12.04.21.1.27.18.12.08.22.18.3.3.1.12.2.25.3.39.26.4.39.89.39 1.47 0 .48-.12.97-.36 1.47-.22.5-.52.98-.9 1.44-.38.44-.83.85-1.35 1.23-.5.36-1.03.67-1.59.93.36.4.85.6 1.47.6.52 0 .97-.03 1.35-.09.38-.08.79-.12 1.23-.12.12 0 .24.02.36.06.14.02.24.04.3.06 0 .04.04.09.12.15.08.06.15.15.21.27.02.04.03.08.03.12 0 .04-.01.08-.03.12-.02.02-.03.05-.03.09 0 .04.01.07.03.09-.04.04-.06.12-.06.24 0 .08.01.14.03.18-.04.04-.09.1-.15.18-.04.08-.06.16-.06.24 0 .06.01.1.03.12-.08.04-.32.21-.72.51-.1.08-.17.13-.21.15l-.18.09c-.04.02-.09.03-.15.03-.04 0-.08.01-.12.03-.08 0-.13.01-.15.03-.02 0-.04-.01-.06-.03h-.09c0 .02-.01.03-.03.03l-.12-.06h-.48c-.06.02-.13.04-.21.06-.08.02-.18.03-.3.03-.1.02-.25.03-.45.03-.76 0-1.51-.22-2.25-.66-.72-.44-1.28-1.07-1.68-1.89h-.42zm4.29-5.82a.418.418 0 00-.18-.03c-.28 0-.55.15-.81.45-.24.28-.44.59-.6.93-.08.2-.16.42-.24.66-.06.24-.11.51-.15.81.24-.02.49-.1.75-.24.26-.16.5-.34.72-.54.24-.22.43-.45.57-.69.16-.26.24-.52.24-.78 0-.2-.06-.36-.18-.48l-.12-.09zm20.001 9.12c-.1 0-.19-.01-.27-.03-.08-.02-.2-.04-.36-.06-.16 0-.27-.02-.33-.06-.08-.06-.16-.17-.24-.33a.47.47 0 01-.09-.12c0-.04-.02-.08-.06-.12-.1-.38-.18-.86-.24-1.44s-.14-1.2-.24-1.86c-.08-.68-.2-1.38-.36-2.1-.16-.74-.38-1.44-.66-2.1-.18.44-.38.97-.6 1.59-.22.6-.43 1.21-.63 1.83-.18.6-.36 1.15-.54 1.65-.16.5-.28.86-.36 1.08-.04.1-.08.19-.12.27l-.12.18c-.12.34-.27.56-.45.66-.18.12-.41.18-.69.18-.24 0-.45-.07-.63-.21-.16-.12-.3-.27-.42-.45-.1-.2-.18-.41-.24-.63-.06-.24-.11-.46-.15-.66-.22-1.18-.4-2.14-.54-2.88-.12-.76-.24-1.37-.36-1.83-.3.86-.57 1.61-.81 2.25-.22.64-.43 1.21-.63 1.71-.2.48-.39.92-.57 1.32-.18.38-.37.75-.57 1.11-.04.12-.1.21-.18.27-.06.08-.12.14-.18.18-.1.02-.21.05-.33.09-.1.04-.2.07-.3.09l-.24.24c-.04-.06-.13-.09-.27-.09-.02.02-.04.03-.06.03l-.03.03c-.02.02-.03.04-.03.06-.28-.04-.56-.17-.84-.39a.968.968 0 01-.39-.81c0-.22.06-.44.18-.66l.3-.54c.36-.54.69-1.1.99-1.68.32-.6.61-1.2.87-1.8.26-.6.49-1.17.69-1.71.2-.56.37-1.07.51-1.53.32-.94.59-1.58.81-1.92.1-.14.22-.24.36-.3.08-.04.15-.06.21-.06.06-.02.14-.04.24-.06 0-.04.03-.06.09-.06h.18c.14 0 .25.02.33.06l.3.12c.06.04.13.07.21.09.08.02.14.05.18.09.04.04.07.09.09.15.04.06.08.13.12.21.1.18.21.53.33 1.05.12.5.24 1.06.36 1.68.12.6.24 1.21.36 1.83.12.62.24 1.12.36 1.5.12-.36.26-.82.42-1.38.18-.58.36-1.17.54-1.77.18-.6.36-1.16.54-1.68.18-.52.36-.92.54-1.2.22-.34.42-.57.6-.69.18-.14.41-.21.69-.21.12 0 .24.03.36.09.14.04.23.1.27.18.2 0 .37.13.51.39.3.54.61 1.21.93 2.01.32.78.6 1.63.84 2.55.26.92.47 1.87.63 2.85.16.98.24 1.92.24 2.82l-.12.27a.47.47 0 00-.09.12c0 .04-.02.08-.06.12a.47.47 0 01-.12.09c-.02.04-.05.07-.09.09-.14.16-.33.24-.57.24zm17.132.24c-.04 0-.09-.01-.15-.03h-.15c-.08 0-.16-.01-.24-.03h-.27c-.04 0-.07-.01-.09-.03-.02-.02-.05-.03-.09-.03a.59.59 0 00-.21-.15c-.06 0-.12-.03-.18-.09a.204.204 0 01-.06-.15c0-.06-.02-.11-.06-.15l-.12-.12c-.04-.04-.06-.1-.06-.18 0-.94.03-1.69.09-2.25.08-.56.13-1.09.15-1.59l.09-2.52.06-1.44c.04-.52.08-1.06.12-1.62.04-.28.07-.54.09-.78.04-.24.09-.45.15-.63.04-.12.08-.21.12-.27.04-.06.12-.13.24-.21l.12-.12c.06-.06.13-.09.21-.09.04 0 .08.01.12.03h.18c.06 0 .12-.01.18-.03a.82.82 0 01.18-.03c.1 0 .23.02.39.06.1.04.17.11.21.21.04.02.1.11.18.27.08.12.12.29.12.51 0 .48-.02 1-.06 1.56-.04.56-.11 1.25-.21 2.07l-.3 2.79c0 .4.01.78.03 1.14.02.36.03.65.03.87 0 .08-.01.19-.03.33v.42c-.02.18-.03.36-.03.54 0 .16-.02.34-.06.54-.02.2-.05.36-.09.48 0 .14-.01.25-.03.33-.06.18-.17.27-.33.27-.02.04-.06.07-.12.09-.04.02-.08.03-.12.03zm-8.94.15c-.48 0-.96-.05-1.44-.15-.46-.1-.88-.26-1.26-.48-.36-.22-.66-.52-.9-.9-.22-.38-.33-.85-.33-1.41 0-.5.02-1.03.06-1.59.06-.58.13-1.16.21-1.74.08-.58.16-1.14.24-1.68a33.203 33.203 0 00.36-2.55c.06-.38.12-.68.18-.9.08-.26.21-.48.39-.66.1-.1.23-.15.39-.15.04 0 .08-.01.12-.03.06-.04.11-.06.15-.06.04 0 .08.01.12.03h.15c.06 0 .12-.01.18-.03.06-.02.11-.03.15-.03.18 0 .36.06.54.18.18.1.32.26.42.48.04.08.06.23.06.45 0 .28-.07.52-.21.72-.14.18-.23.43-.27.75l-.3 2.01c.14-.02.3-.05.48-.09.16-.04.34-.07.54-.09.2-.02.44-.03.72-.03.62 0 1.2.06 1.74.18.54.1 1.01.31 1.41.63.1.08.2.19.3.33.12.14.18.27.18.39.06.04.12.09.18.15.04.04.08.1.12.18.06.08.1.17.12.27 0 .34.04.63.12.87.08.22.12.49.12.81 0 .66-.14 1.25-.42 1.77-.26.52-.62.95-1.08 1.29-.44.36-.97.63-1.59.81-.62.18-1.27.27-1.95.27zm-.33-2.19h.57c.18 0 .35-.02.51-.06l.18-.12.12-.06c.04-.04.08-.06.12-.06.1-.02.18-.03.24-.03s.14-.05.24-.15c.12-.04.2-.08.24-.12.06-.04.16-.17.3-.39.14-.26.21-.61.21-1.05 0-.36-.06-.64-.18-.84-.12-.2-.29-.35-.51-.45-.2-.12-.43-.19-.69-.21-.26-.04-.53-.06-.81-.06-.56 0-1.03.08-1.41.24-.16.58-.24 1.25-.24 2.01 0 .1.01.23.03.39.02.16.06.31.12.45.08.14.19.26.33.36.16.1.37.15.63.15zm19.06 2.31c-1.02 0-1.93-.24-2.73-.72-.78-.46-1.33-1.22-1.65-2.28-.14-.44-.24-.95-.3-1.53-.12-.14-.2-.24-.24-.3-.02-.08-.04-.13-.06-.15-.02 0-.03-.01-.03-.03 0-.04-.03-.06-.09-.06-.04 0-.07-.03-.09-.09v-.36c.02-.06.03-.12.03-.18 0-.02.01-.03.03-.03.04-.02.07-.04.09-.06l.42-.06c.1-.7.32-1.41.66-2.13.36-.72.81-1.4 1.35-2.04.14-.18.35-.39.63-.63.28-.26.6-.5.96-.72.38-.24.77-.44 1.17-.6.42-.18.84-.27 1.26-.27.68 0 1.28.24 1.8.72.52.46.78 1.08.78 1.86 0 .22-.03.46-.09.72-.04.24-.1.47-.18.69-.1.28-.25.58-.45.9-.18.32-.38.62-.6.9-.28.36-.58.68-.9.96-.3.26-.64.52-1.02.78-.46.28-.93.53-1.41.75-.48.22-.95.33-1.41.33 0 .28.07.5.21.66.14.16.31.29.51.39.22.08.46.13.72.15.26.02.51.03.75.03.78 0 1.34-.08 1.68-.24.36-.18.62-.27.78-.27.16 0 .26.02.3.06.12.1.19.21.21.33.02.1.03.22.03.36v.21c0 .12-.02.26-.06.42-.04.18-.09.33-.15.45-.28.38-.69.65-1.23.81-.52.18-1.08.27-1.68.27zm-2.13-5.7c.38-.08.79-.25 1.23-.51.46-.28.88-.59 1.26-.93.4-.34.73-.69.99-1.05.26-.38.39-.72.39-1.02 0-.08-.04-.17-.12-.27-.08-.1-.23-.15-.45-.15-.34 0-.68.11-1.02.33a3.2 3.2 0 00-.81.72c-.24.3-.45.57-.63.81-.16.24-.29.47-.39.69-.1.2-.19.41-.27.63-.06.22-.12.47-.18.75z" fill="#fff" opacity=".5"/><defs><radialGradient id="paint0_radial" cx="0" cy="0" r="1" gradientUnits="userSpaceOnUse" gradientTransform="matrix(78.12392 34.96288 -39.28152 87.77384 85.464 98.465)"><stop stop-color="#407B9A"/><stop offset=".645" stop-color="#3682A1"/><stop offset=".941" stop-color="#C6DDEE" stop-opacity=".9"/><stop offset="1" stop-color="#fff" stop-opacity=".9"/></radialGradient><linearGradient id="paint1_linear" x1="140.442" y1="58.672" x2="110.009" y2="73.822" gradientUnits="userSpaceOnUse"><stop stop-color="#fff"/><stop offset=".475" stop-color="#D4EFFD" stop-opacity=".5"/><stop offset="1" stop-color="#3699D6" stop-opacity="0"/></linearGradient></defs></svg>