<svg width="146" height="126" fill="none" xmlns="http://www.w3.org/2000/svg"><path opacity=".42" d="M23.136 38.144C8.586 54.64-.864 81.604 1.31 99.693c2.175 18.004 13.275 20.6 30.6 24.117 10.575 2.177 26.4-.754 38.325-4.187 22.05-6.364 22.5-3.685 45.825-18.256 9.225-5.778 16.875-12.142 21-19.762 3-5.443 7.725-17.25 7.275-28.723C143.36 28.179 124.76 5.067 99.41 2.136 67.386-1.8 52.986 4.146 23.136 38.144z" fill="url(#paint0_radial)" stroke="#fff" stroke-width="1.469" stroke-miterlimit="10"/><path opacity=".33" d="M61.61 25.332c1.35-1.842 10.35-9.965 14.775-11.472 3.225-1.089 16.275-6.03 24.225-1.842 5.926 3.182 8.851 3.935 11.926 14.068.3 1.088.525 7.285-1.95 7.285-4.5-.25-14.626-2.428-27.75 2.094-3.3 1.088-11.926 6.029-14.85 8.457-1.426 1.089-6.976 4.941-8.25 4.439-7.05-2.513-.676-19.595 1.874-23.029z" fill="url(#paint1_linear)"/><path opacity=".5" d="M50.784 78.521c0-.076-.013-.127-.038-.152a.507.507 0 01-.19-.228v-1.33c.025-.203.038-.393.038-.57a3.2 3.2 0 00.038-.418c0-.43-.013-.95-.038-1.558v-2.242c0-.658-.025-1.368-.076-2.128a92.019 92.019 0 01-.038-2.888v-5.244l.038-.38a3.277 3.277 0 01-.038-.532v-.532h-.95c-.33 0-.697.013-1.102.038-.608.05-1.28.076-2.014.076-.735 0-1.292.013-1.672.038l-.874.038.038.988c0 .481.013.988.038 1.52.05.532.076 1.077.076 1.634 0 .203-.013.393-.038.57v.494l-.38 4.788c-.05.43-.114.887-.19 1.368-.05.482-.114.95-.19 1.406-.076.43-.165.849-.266 1.254-.101.38-.19.697-.266.95-.203.608-.481 1.28-.836 2.014a4.777 4.777 0 01-1.558 1.786 4.54 4.54 0 01-1.9.798 10.48 10.48 0 01-1.9.19c-.43 0-.747-.038-.95-.114a1.284 1.284 0 01-.456-.228 2.28 2.28 0 01-.494-.494 2.29 2.29 0 01-.266-.456.626.626 0 01-.038-.19c0-.025-.025-.063-.076-.114 0-.127-.013-.24-.038-.342a1.25 1.25 0 01-.038-.304c0-.127.038-.215.114-.266.05 0 .076-.038.076-.114 0-.025-.013-.05-.038-.076v-.076a.67.67 0 01.076-.304c.05-.101.127-.152.228-.152.177 0 .304-.025.38-.076.101-.076.19-.114.266-.114.405 0 .697.05.874.152.177.102.456.152.836.152.583 0 1.051-.089 1.406-.266.38-.177.735-.633 1.064-1.368a10.46 10.46 0 00.798-3.116c.101-1.064.203-2.09.304-3.078a32.78 32.78 0 00.228-2.698 62.94 62.94 0 00.038-2.166c0-.557-.013-1.127-.038-1.71v-2.09c0-.608.013-1.14.038-1.596.05-.456.14-.722.266-.798.355-.279.71-.43 1.064-.456.38-.025.785-.063 1.216-.114a9.43 9.43 0 011.292-.076c.507-.025 1.14-.063 1.9-.114l1.596-.076c.583-.025 1.115-.05 1.596-.076a23.81 23.81 0 011.216-.038h.95c.355 0 .722.076 1.102.228.38.127.57.418.57.874 0 .05-.013.14-.038.266v.228c0 .203.013.444.038.722.025.279.038.482.038.608v.684c.025.228.038.507.038.836.025.33.038.735.038 1.216v3.952c0 .836-.013 1.824-.038 2.964l.152 4.256v.684c0 .279-.013.659-.038 1.14l-.038.874c-.025.532-.063 1-.114 1.406-.025.406-.101.735-.228.988a1.088 1.088 0 01-.494.608c-.228.152-.532.228-.912.228-.177 0-.418-.088-.722-.266-.304-.152-.456-.481-.456-.988v-.304zm18.584 1.292c-.81 0-1.495-.14-2.052-.418a4.253 4.253 0 01-1.33-1.064 4.34 4.34 0 01-.76-1.482 6.33 6.33 0 01-.228-1.672c0-.279.012-.57.038-.874.025-.304.076-.62.152-.95a13.4 13.4 0 00-1.026.038c-.279.025-.583.05-.912.076a4.89 4.89 0 00-.76.114c-.026.38-.038.773-.038 1.178v2.242c.025.304.038.596.038.874a2.4 2.4 0 01-.076.646.981.981 0 01-.228.494 2.484 2.484 0 00-.228.266.617.617 0 01-.304.266c-.228.102-.558.152-.988.152-.33 0-.57-.076-.722-.228-.254 0-.418-.114-.494-.342a2.666 2.666 0 01-.114-.836c0-.633.05-1.28.152-1.938.101-.659.19-1.52.266-2.584-.152 0-.266-.038-.342-.114a.592.592 0 01-.114-.152.6.6 0 00-.114-.152.486.486 0 01-.19-.304v-.38a.424.424 0 00-.038-.19v-.19c0-.05.012-.114.038-.19.025-.101.05-.177.076-.228a.597.597 0 00.114-.152c.025-.076.05-.14.076-.19a2.31 2.31 0 01.684-.19l.076-.38-.038-.304.114-.342c0-.05-.013-.127-.038-.228v-.266c.05-.405.076-.823.076-1.254 0-.43.012-.772.038-1.026.025-.734.076-1.267.152-1.596.076-.33.24-.595.494-.798.101-.076.202-.177.304-.304a.582.582 0 01.418-.266l.304-.076c.126-.025.253-.038.38-.038.33 0 .608.089.836.266.253.152.38.494.38 1.026 0 .456-.089 1.115-.266 1.976-.178.862-.33 1.95-.456 3.268l3.306-.266c.278-.684.62-1.343 1.026-1.976.405-.658.848-1.241 1.33-1.748a7.052 7.052 0 011.634-1.292 5.25 5.25 0 011.938-.608c.025.025.05.038.076.038.05 0 .101.013.152.038a.29.29 0 00.114.038c.05 0 .088.013.114.038.101.05.177.076.228.076 0 .102.038.19.114.266.228.076.468.19.722.342.253.127.506.291.76.494.126.127.24.254.342.38.101.127.215.266.342.418a.951.951 0 00.304.266c.101.05.19.14.266.266.05.076.114.19.19.342.076.152.14.266.19.342.304.507.544 1.064.722 1.672a6.63 6.63 0 01.266 1.862c0 1.14-.216 2.192-.646 3.154a7.83 7.83 0 01-1.71 2.47 7.79 7.79 0 01-2.432 1.596 6.43 6.43 0 01-2.698.608zm1.9-3.686c.43-.101.722-.215.874-.342.177-.152.367-.304.57-.456a8.99 8.99 0 01.494-.418.616.616 0 00.266-.38c.152-.127.253-.228.304-.304a.755.755 0 00.076-.342c0-.05.012-.089.038-.114a.337.337 0 00.038-.152l.152-.418a4.73 4.73 0 00.114-1.064c0-.861-.216-1.634-.646-2.318-.43-.684-1.052-1.026-1.862-1.026-.507 0-.976.19-1.406.57-.43.355-.81.81-1.14 1.368a7.646 7.646 0 00-.798 1.786 7.173 7.173 0 00-.266 1.862c0 .608.164 1.09.494 1.444.33.33.785.494 1.368.494.43 0 .874-.063 1.33-.19zm14.665 3.61c-.886 0-1.659-.164-2.318-.494a4.393 4.393 0 01-1.596-1.292c-.405-.582-.709-1.266-.912-2.052a11.737 11.737 0 01-.266-2.584c0-1.292.127-2.622.38-3.99.28-1.393.786-2.61 1.52-3.648.102-.127.241-.266.418-.418.178-.177.33-.278.456-.304 0-.228.127-.43.38-.608a3.571 3.571 0 01.95-.532 5.786 5.786 0 012.204-.418c.482 0 .925.076 1.33.228.406.127.748.279 1.026.456.33.203.634.418.912.646a17.956 17.956 0 00-.266-1.558 8.088 8.088 0 00-.304-1.292c-.05-.127-.1-.203-.152-.228-.025-.025-.038-.101-.038-.228a.26.26 0 01.076-.19c-.025-.05-.063-.076-.114-.076a.248.248 0 01-.114-.114c-.354-.658-.836-1.14-1.444-1.444-.582-.33-1.38-.583-2.394-.76-.86-.152-1.494-.266-1.9-.342-.405-.101-.608-.38-.608-.836 0-.05-.038-.127-.114-.228a.875.875 0 01-.076-.304c0-.228.026-.355.076-.38.076-.05.114-.14.114-.266 0-.05.013-.127.038-.228a.885.885 0 01.152-.228c.127-.127.178-.24.152-.342-.025-.101.013-.203.114-.304.203-.152.444-.24.722-.266.304-.025.583-.038.836-.038 1.242 0 2.331.203 3.268.608a6.793 6.793 0 012.394 1.71.765.765 0 01.228.418c.026.152.114.291.266.418a.755.755 0 01.228.266c.051.102.14.203.266.304a.692.692 0 01.228.304c.051.102.102.215.152.342.431.861.735 1.812.912 2.85.203 1.014.304 2.078.304 3.192 0 .785-.025 1.647-.076 2.584a27.37 27.37 0 01-.228 2.812 18.305 18.305 0 01-.532 2.812 12.316 12.316 0 01-.988 2.508c-.1.203-.228.304-.38.304-.076.076-.114.14-.114.19v.114c.026 0 .038.013.038.038-.076.127-.215.19-.418.19a.44.44 0 00.076.114c.051.025.076.063.076.114 0 .076-.025.14-.076.19-.05.05-.1.102-.152.152a3.254 3.254 0 01-.608.532 26.61 26.61 0 01-.646.418c-.202.127-.367.24-.494.342-.1.127-.266.24-.494.342a5.422 5.422 0 01-1.14.342 5.475 5.475 0 01-1.33.152zm.532-3.002c.482 0 .9-.126 1.254-.38a3.22 3.22 0 00.95-.988c.28-.405.507-.861.684-1.368.178-.532.33-1.064.456-1.596.28-1.267.431-2.71.456-4.332-.202-.507-.582-.912-1.14-1.216-.532-.33-1.165-.494-1.9-.494-.684 0-1.24.228-1.672.684-.43.456-.772 1.026-1.026 1.71a11.685 11.685 0 00-.494 2.204 16.783 16.783 0 00-.152 2.128c0 .33.013.646.038.95.026.279.076.545.152.798a.567.567 0 00.19.228.68.68 0 01.19.19.61.61 0 01.076.266c.026.076.064.14.114.19a.43.43 0 01.152.152c.051.05.09.102.114.152.076.05.152.114.228.19.102.076.203.14.304.19.127.05.254.114.38.19.127.076.241.127.342.152h.304zm21.543 2.736c-.532 0-.976-.14-1.33-.418a3.132 3.132 0 01-.874-.95 5.12 5.12 0 01-.456-1.178 7.611 7.611 0 01-.19-1.102c-.051-.076-.102-.114-.152-.114-.102 0-.228.089-.38.266-.152.203-.33.456-.532.76-.203.279-.482.633-.836 1.064a7.276 7.276 0 01-1.748 1.52c-.684.456-1.318.684-1.9.684-.735 0-1.368-.342-1.9-1.026-.532-.684-.798-1.634-.798-2.85 0-.608.037-1.19.113-1.748.076-.583.165-1.127.266-1.634a10.45 10.45 0 00.19-1.596c.026-.557.051-1.165.077-1.824v-.57c.025-.177.037-.33.037-.456 0-.05-.012-.089-.037-.114a.423.423 0 01-.114-.304c0-.076-.013-.165-.038-.266v-.19a.715.715 0 00.037-.228c.051-.355.203-.646.457-.874.253-.253.531-.38.835-.38.355 0 .684.114.989.342.329.228.595.52.798.874.177.279.291.57.342.874.076.279.114.558.114.836 0 .254-.013.444-.038.57v.418c0 .203-.013.43-.038.684 0 .254-.013.52-.038.798l-.076.76a7.072 7.072 0 01-.076.532l-.19.76c-.051.304-.114.608-.19.912a22.29 22.29 0 01-.152.76c-.051.228-.076.38-.076.456 0 .203.038.342.114.418a.831.831 0 00.342.152c.228 0 .57-.165 1.026-.494.481-.355.962-.81 1.444-1.368a10.74 10.74 0 001.368-1.9 8.18 8.18 0 00.912-2.204c.202-.81.405-1.355.608-1.634.202-.304.405-.456.608-.456.506 0 .988.216 1.444.646.481.43.722 1.064.722 1.9 0 .43-.051.874-.152 1.33-.076.456-.14.849-.19 1.178-.051.279-.089.57-.114.874-.026.304-.038.633-.038.988v.646c.025.228.076.393.152.494.05 0 .152-.025.304-.076.228-.101.506-.152.836-.152.177 0 .405.089.684.266l.19.19c.05.05.101.127.152.228v.608a3.35 3.35 0 01-.19.798 2.494 2.494 0 01-.456.722c-.178.228-.431.418-.76.57-.304.152-.672.228-1.102.228z" fill="#fff"/><defs><radialGradient id="paint0_radial" cx="0" cy="0" r="1" gradientUnits="userSpaceOnUse" gradientTransform="matrix(31.17358 49.32888 -66.94276 42.30474 71.185 68.825)"><stop stop-color="#407B9A"/><stop offset=".645" stop-color="#3682A1"/><stop offset=".941" stop-color="#C6DDEE" stop-opacity=".8"/><stop offset="1" stop-color="#fff" stop-opacity=".8"/></radialGradient><linearGradient id="paint1_linear" x1="82.294" y1="16.176" x2="85.335" y2="51.164" gradientUnits="userSpaceOnUse"><stop stop-color="#fff"/><stop offset=".475" stop-color="#D4EFFD" stop-opacity=".5"/><stop offset="1" stop-color="#3699D6" stop-opacity="0"/></linearGradient></defs></svg>