<svg width="168" height="152" fill="none" xmlns="http://www.w3.org/2000/svg"><path opacity=".31" d="M127.905 127.19c21.825-11.975 31.8-31.653 35.625-55.017 3.825-23.363-.75-39.776-19.05-54.012-11.025-8.625-21.075-8.29-35.625-10.886-26.85-5.024-28.35-5.024-59.25.67-12.225 2.261-18.3 6.783-25.575 13.65-5.25 5.024-13.05 18.674-15.825 25.959-10.875 29.058-3.375 59.706 17.85 89.852 12.225 17.083 56.7 14.152 101.85-10.216z" fill="url(#paint0_radial)" stroke="#fff" stroke-width="6.202" stroke-miterlimit="10"/><path opacity=".45" d="M89.43 17.491c2.475-.921 17.175-3.015 22.875-1.424 4.275 1.256 21.525 5.444 27.825 15.409 4.8 7.704 7.575 10.55 5.175 23.28-.225 1.34-3.45 7.955-6.375 6.28-4.875-3.517-14.925-13.064-32.025-17.67-4.275-1.255-16.575-2.093-21.3-1.674-2.175.251-10.575.084-11.625-1.34-5.925-7.704 10.725-21.019 15.45-22.86z" fill="url(#paint1_linear)"/><path d="M48.93 59.126c-.12 0-.22-.03-.3-.09-.08-.04-.17-.08-.27-.12-.18-.08-.33-.19-.45-.33-.28-.34-.47-.79-.57-1.35-.1-.56-.15-1.1-.15-1.62 0-.26.01-.57.03-.93l.06-1.08.06-1.11c.04-.36.07-.68.09-.96l.3-2.91c.04-.28.06-.61.06-.99.02-.38.05-.77.09-1.17-.26.46-.5.91-.72 1.35-.2.38-.41.77-.63 1.17-.2.38-.38.7-.54.96-.34.58-.7 1.19-1.08 1.83-.38.62-.77 1.25-1.17 1.89-.08.1-.17.26-.27.48-.08.2-.16.3-.24.3-.08.18-.16.32-.24.42l-.27.27c-.1.1-.17.23-.21.39-.04.14-.12.29-.24.45-.02.1-.07.19-.15.27-.08.08-.17.19-.27.33-.2.28-.46.64-.78 1.08-.3.44-.53.8-.69 1.08-.28.42-.67.63-1.17.63-.1 0-.21-.01-.33-.03-.1-.02-.2-.05-.3-.09a.439.439 0 01-.21-.15c-.02-.04-.08-.08-.18-.12-.08-.04-.14-.12-.18-.24l-.12-.3c-.12-.36-.18-.85-.18-1.47 0-.34.01-.81.03-1.41l.06-1.92c.04-.7.06-1.37.06-2.01.02-.64.03-1.15.03-1.53 0-.5-.02-.97-.06-1.41-.02-.46-.03-.94-.03-1.44v-1.26c.02-.44.03-.87.03-1.29 0-.24-.02-.49-.06-.75-.04-.26-.06-.51-.06-.75 0-.72.15-1.22.45-1.5.1-.1.24-.17.42-.21.08-.02.2-.03.36-.03.14 0 .32.03.54.09.06.02.13.03.21.03.1 0 .17.02.21.06.08.04.13.09.15.15.04.06.11.09.21.09.12 0 .2.08.24.24.04.14.06.29.06.45 0 .26-.01.54-.03.84l-.06.81c-.02.26-.03.64-.03 1.14v3.66c.02.46.03.89.03 1.29v.87c0 .48-.03 1.03-.09 1.65-.04.6-.07 1.16-.09 1.68.94-1.6 1.88-3.16 2.82-4.68.94-1.54 1.86-3.01 2.76-4.41.44-.7.85-1.36 1.23-1.98.4-.64.86-1.18 1.38-1.62.1-.08.24-.15.42-.21.2-.06.38-.09.54-.09.18 0 .37.03.57.09.22.04.38.13.48.27.06.08.1.24.12.48.02.22.03.44.03.66 0 .48-.02.96-.06 1.44-.02.46-.05.92-.09 1.38l-.45 5.91c-.06.7-.13 1.43-.21 2.19-.06.76-.09 1.42-.09 1.98 0 .52.03.95.09 1.29.06.32.09.64.09.96v.33c0 .14-.02.25-.06.33-.04.1-.1.14-.18.12-.08 0-.18.02-.3.06-.06.02-.13.04-.21.06-.06.04-.14.06-.24.06zm14.185-4.86c.12.04.22.14.3.3.14.28.21.61.21.99a.9.9 0 01-.15.48c-.08.16-.17.29-.27.39-.2.2-.38.39-.54.57-.16.16-.35.32-.57.48-.22.16-.51.34-.87.54-.34.22-.7.41-1.08.57-.26.12-.49.21-.69.27-.18.08-.37.14-.57.18-.18.04-.37.06-.57.06-.2.02-.44.03-.72.03-.36 0-.74-.07-1.14-.21-.38-.12-.65-.23-.81-.33-.66-.4-1.13-.93-1.41-1.59-.28-.68-.42-1.51-.42-2.49 0-.6.07-1.18.21-1.74.14-.58.32-1.11.54-1.59.24-.5.5-.95.78-1.35.3-.4.6-.74.9-1.02.16-.16.37-.34.63-.54.28-.2.56-.38.84-.54.3-.16.62-.3.96-.42.34-.14.76-.21 1.26-.21s.97.19 1.41.57c.46.36.69.8.69 1.32 0 .12-.01.23-.03.33-.02.08-.05.16-.09.24-.04.12-.11.25-.21.39-.08.12-.17.21-.27.27-.16.12-.42.18-.78.18-.22 0-.39-.01-.51-.03-.12-.04-.29-.06-.51-.06-.32 0-.68.14-1.08.42-.38.26-.74.61-1.08 1.05-.34.44-.63.93-.87 1.47-.22.52-.33 1.05-.33 1.59 0 .5.09.91.27 1.23.2.32.56.48 1.08.48.46 0 .89-.08 1.29-.24.42-.18.76-.34 1.02-.48.2-.1.44-.24.72-.42.3-.2.56-.37.78-.51.2-.12.36-.24.48-.36s.24-.21.36-.27a1.71 1.71 0 01.51-.12c.12 0 .23.04.33.12zm20.836 3.48c-.1.78-.53 1.17-1.29 1.17h-.18c-.06.02-.12.03-.18.03s-.12-.04-.18-.12c-.08 0-.17-.02-.27-.06a.483.483 0 00-.21-.06.47.47 0 01-.09-.12.47.47 0 00-.09-.12c-.16-.1-.29-.27-.39-.51-.06-.08-.11-.16-.15-.24-.04-.1-.08-.19-.12-.27-.1-.22-.17-.41-.21-.57-.04-.18-.08-.37-.12-.57-.02-.2-.03-.42-.03-.66v-1.17a.193.193 0 00-.15-.15.46.46 0 00-.18-.06c-.04 0-.17.09-.39.27-.2.16-.47.39-.81.69-.32.28-.68.6-1.08.96s-.8.73-1.2 1.11l-.57.57c-.2.2-.51.3-.93.3-.1 0-.27-.03-.51-.09-.22-.06-.37-.12-.45-.18l-.12-.09c-.12-.24-.23-.49-.33-.75-.1-.28-.17-.71-.21-1.29-.02-.18-.04-.37-.06-.57v-.96c0-.14-.02-.26-.06-.36-.04-.1-.08-.15-.12-.15-.14 0-.24.01-.3.03-.1.04-.19.09-.27.15-.08.06-.2.17-.36.33-.24.22-.51.48-.81.78-.3.28-.64.61-1.02.99-.42.42-.81.82-1.17 1.2-.34.36-.58.65-.72.87-.04.08-.08.17-.12.27l-.09.27c-.04.08-.07.15-.09.21-.02.06-.05.11-.09.15-.1.1-.21.16-.33.18-.12.04-.26.06-.42.06-.34 0-.68-.18-1.02-.54-.32-.36-.48-.83-.48-1.41 0-.28.03-.63.09-1.05.06-.44.13-.88.21-1.32.08-.46.16-.91.24-1.35.1-.44.18-.81.24-1.11.06-.28.12-.61.18-.99.08-.38.15-.75.21-1.11.08-.36.14-.69.18-.99.06-.3.09-.51.09-.63 0-.16-.03-.38-.09-.66.04-.14.09-.24.15-.3.12-.14.22-.24.3-.3.1-.08.22-.12.36-.12a1.446 1.446 0 011.26.72c.18.3.31.62.39.96l.03.15c-.04.12-.06.2-.06.24v.12c0 .02.01.04.03.06 0 .44-.04.85-.12 1.23-.08.38-.19.83-.33 1.35-.04.2-.09.42-.15.66-.04.22-.06.38-.06.48 0 .1.05.15.15.15.1 0 .19-.04.27-.12l.21-.21c.52-.64 1.05-1.24 1.59-1.8.54-.58 1.08-1.12 1.62-1.62.2-.18.36-.3.48-.36a.74.74 0 01.42-.12c.48 0 .89.14 1.23.42.34.26.55.49.63.69.1.28.17.51.21.69.04.18.06.36.06.54 0 .28-.01.6-.03.96v.87c0 .2.03.34.09.42.08.06.17.09.27.09.02 0 .09-.04.21-.12.12-.1.25-.21.39-.33.16-.12.32-.25.48-.39.18-.14.33-.27.45-.39.54-.46 1.04-.89 1.5-1.29.48-.4.83-.69 1.05-.87.18-.16.33-.26.45-.3.12-.06.28-.09.48-.09.18 0 .36.08.54.24.2.16.38.35.54.57.16.22.29.45.39.69.1.24.15.45.15.63 0 .32-.02.68-.06 1.08-.04.4-.06.78-.06 1.14 0 .14.01.35.03.63.04.26.08.42.12.48.02.22.09.43.21.63.12.18.26.38.42.6l.21.24.12.09c-.02 0-.03.01-.03.03v.15c.02 0 .03.02.03.06v.36zm5.798.75c-.58 0-1.08-.1-1.5-.3-.4-.2-.73-.46-.99-.78-.26-.34-.46-.7-.6-1.08-.12-.4-.18-.8-.18-1.2 0-.62.12-1.19.36-1.71.24-.54.53-1.04.87-1.5.12-.16.26-.34.42-.54.18-.22.36-.42.54-.6.2-.2.39-.38.57-.54.18-.16.34-.27.48-.33.28-.14.48-.27.6-.39.14-.14.33-.21.57-.21.48 0 .91.12 1.29.36.38.22.7.52.96.9s.45.81.57 1.29c.14.48.21.97.21 1.47 0 1.58-.35 2.84-1.05 3.78-.7.92-1.74 1.38-3.12 1.38zm.72-6.6c-.08 0-.16.01-.24.03-.08 0-.15.03-.21.09-.16.16-.29.31-.39.45-.1.12-.23.32-.39.6-.1.18-.19.42-.27.72-.06.28-.09.59-.09.93 0 .34.09.62.27.84.18.2.47.3.87.3.24 0 .48-.06.72-.18.24-.14.45-.32.63-.54.18-.22.33-.48.45-.78.12-.3.18-.62.18-.96 0-.38-.12-.72-.36-1.02-.24-.32-.54-.48-.9-.48h-.27zm7.377 15.3a.39.39 0 01-.36-.21c-.06-.14-.1-.3-.12-.48-.02-.16-.03-.32-.03-.48 0-.76-.03-1.51-.09-2.25-.04-.74-.09-1.46-.15-2.16-.04-.68-.09-1.32-.15-1.92-.04-.6-.06-1.14-.06-1.62 0-.36.02-.63.06-.81.06-.2.13-.35.21-.45.08-.12.17-.21.27-.27.1-.06.21-.14.33-.24.1-.82.19-1.51.27-2.07.08-.56.15-.99.21-1.29.54-2.62 1.27-4.56 2.19-5.82.94-1.26 2.06-1.89 3.36-1.89.62 0 1.16.15 1.62.45.48.3.88.7 1.2 1.2.04.08.09.19.15.33.06.12.09.21.09.27.06.08.12.19.18.33.08.14.14.32.18.54.04.18.07.37.09.57.02.2.03.4.03.6 0 .9-.24 1.73-.72 2.49a7.88 7.88 0 01-1.77 1.98c-.72.58-1.52 1.08-2.4 1.5-.86.4-1.68.71-2.46.93-.02 1.3-.03 2.52-.03 3.66 0 1.14-.03 2.17-.09 3.09-.04.94-.13 1.74-.27 2.4-.12.66-.3 1.15-.54 1.47a.82.82 0 01-.45.3c-.04.02-.09.04-.15.06-.06.02-.11.03-.15.03-.1 0-.19-.03-.27-.09-.06-.06-.12-.11-.18-.15zm6.66-19.26c-.22-.22-.5-.33-.84-.33-.34 0-.67.16-.99.48-.32.32-.63.77-.93 1.35-.28.56-.54 1.23-.78 2.01-.24.78-.44 1.63-.6 2.55 0 .02-.01.04-.03.06v.03c1.48-.5 2.62-1.17 3.42-2.01.8-.84 1.2-1.81 1.2-2.91 0-.12-.02-.24-.06-.36l-.12-.36a.757.757 0 01-.09-.18c0-.08-.02-.14-.06-.18l-.12-.15zm13.943 10.83c-.42 0-.77-.11-1.05-.33-.28-.2-.51-.45-.69-.75-.16-.3-.28-.61-.36-.93-.08-.34-.13-.63-.15-.87-.04-.06-.08-.09-.12-.09-.08 0-.18.07-.3.21-.12.16-.26.36-.42.6-.16.22-.38.5-.66.84-.38.46-.84.86-1.38 1.2-.54.36-1.04.54-1.5.54-.58 0-1.08-.27-1.5-.81-.42-.54-.63-1.29-.63-2.25 0-.48.03-.94.09-1.38.06-.46.13-.89.21-1.29.08-.4.13-.82.15-1.26.02-.44.04-.92.06-1.44v-.45c.02-.14.03-.26.03-.36 0-.04-.01-.07-.03-.09a.334.334 0 01-.09-.24c0-.06-.01-.13-.03-.21v-.15c.02-.06.03-.12.03-.18.04-.28.16-.51.36-.69.2-.2.42-.3.66-.3.28 0 .54.09.78.27.26.18.47.41.63.69.14.22.23.45.27.69.06.22.09.44.09.66 0 .2-.01.35-.03.45v.33c0 .16-.01.34-.03.54 0 .2-.01.41-.03.63l-.06.6c-.02.18-.04.32-.06.42l-.15.6c-.04.24-.09.48-.15.72-.04.22-.08.42-.12.6-.04.18-.06.3-.06.36 0 .16.03.27.09.33.08.06.17.1.27.12.18 0 .45-.13.81-.39.38-.28.76-.64 1.14-1.08.4-.44.76-.94 1.08-1.5.34-.58.58-1.16.72-1.74.16-.64.32-1.07.48-1.29.16-.24.32-.36.48-.36.4 0 .78.17 1.14.51.38.34.57.84.57 1.5 0 .34-.04.69-.12 1.05-.06.36-.11.67-.15.93-.04.22-.07.45-.09.69-.02.24-.03.5-.03.78v.51c.02.18.06.31.12.39.04 0 .12-.02.24-.06.18-.08.4-.12.66-.12.14 0 .32.07.54.21l.15.15c.04.04.08.1.12.18v.48c-.02.2-.07.41-.15.63-.08.2-.2.39-.36.57-.14.18-.34.33-.6.45-.24.12-.53.18-.87.18zm11.088-8.79c0-.1-.01-.2-.03-.3a.88.88 0 00-.06-.33c-.1-.02-.23-.03-.39-.03-.14-.02-.29-.03-.45-.03-.24 0-.51.03-.81.09-.3.04-.58.12-.84.24-.24.12-.45.29-.63.51-.16.2-.24.47-.24.81 0 .24.07.44.21.6.16.14.34.26.54.36.2.08.41.14.63.18.22.04.39.06.51.06h.69c.28-.02.53-.05.75-.09l.12-2.07zm-.48 7.05c.02-.26.05-.59.09-.99.06-.42.11-1.04.15-1.86-.74 0-1.42.27-2.04.81a.53.53 0 01-.24.15.53.53 0 01-.15.24l-.39.39c-.08.1-.18.23-.3.39-.5.66-.93 1.37-1.29 2.13-.12.26-.29.43-.51.51-.22.1-.48.15-.78.15-.22 0-.47-.03-.75-.09s-.47-.2-.57-.42c-.04-.08-.08-.17-.12-.27a.595.595 0 01-.06-.27c0-.16.07-.32.21-.48.16-.16.31-.34.45-.54.22-.34.45-.67.69-.99.24-.34.45-.62.63-.84.04-.04.11-.1.21-.18.12-.1.19-.17.21-.21.14 0 .21-.09.21-.27 0-.02.04-.04.12-.06.08-.04.13-.07.15-.09l.15-.24c.06-.06.11-.12.15-.18.06-.06.13-.12.21-.18-.58-.18-1.05-.49-1.41-.93-.36-.46-.54-.99-.54-1.59 0-1.34.45-2.34 1.35-3 .9-.66 2.2-.99 3.9-.99.6 0 1.09.01 1.47.03.4.02.72.06.96.12.12.04.21.09.27.15l.24.12c.1.06.15.13.15.21.02.06.05.14.09.24.04.12.06.26.06.42v.54c0 .3-.02.71-.06 1.23-.04.52-.09 1.13-.15 1.83-.08.82-.16 1.68-.24 2.58-.08.9-.13 1.73-.15 2.49 0 .62-.05 1.08-.15 1.38-.04.06-.07.09-.09.09-.02 0-.05.02-.09.06-.04.04-.09.06-.15.06-.04 0-.08.02-.12.06-.08.04-.15.06-.21.06-.04.02-.09.03-.15.03-.1 0-.21-.02-.33-.06-.12-.02-.25-.03-.39-.03-.16 0-.28-.02-.36-.06-.08-.02-.15-.11-.21-.27-.12-.08-.18-.28-.18-.6v-.3c.02-.14.04-.3.06-.48zM44.1 103.736c-.06 0-.14.02-.24.06-.08.06-.16.09-.24.09-.08.08-.16.15-.24.21-.08.06-.21.11-.39.15-.24.12-.5.22-.78.3-.28.08-.6.12-.96.12-.64 0-1.19-.12-1.65-.36-.44-.24-.8-.55-1.08-.93s-.49-.79-.63-1.23c-.12-.46-.18-.9-.18-1.32 0-.38.02-.73.06-1.05.04-.34.11-.68.21-1.02.04-.16.08-.3.12-.42.04-.12.09-.26.15-.42l.3-.72c.02-.06.04-.14.06-.24.04-.1.09-.2.15-.3.08-.2.19-.4.33-.6.42-.7.9-1.24 1.44-1.62.54-.38 1.1-.57 1.68-.57.02.02.04.03.06.03.04 0 .08.01.12.03.04.02.07.03.09.03.04 0 .07.01.09.03.04.04.09.06.15.06 0 .04.03.1.09.18.36.1.74.32 1.14.66.42.32.8.71 1.14 1.17.34.46.62.98.84 1.56.22.56.33 1.13.33 1.71 0 .9-.18 1.72-.54 2.46-.36.72-.83 1.32-1.41 1.8l-.21.15zm-1.89-6.9c-.04.04-.07.06-.09.06-.04.02-.09.04-.15.06-.04.02-.08.03-.12.03-.1.02-.19.03-.27.03-.08 0-.17.05-.27.15-.12.04-.21.1-.27.18-.06.06-.17.21-.33.45-.28.3-.47.71-.57 1.23-.1.5-.15.98-.15 1.44 0 .5.13.89.39 1.17.26.26.62.39 1.08.39.76 0 1.41-.22 1.95-.66.56-.46.84-1.14.84-2.04 0-.68-.19-1.26-.57-1.74-.36-.48-.83-.75-1.41-.81l-.06.06zm16.452 2.43c.12.04.22.14.3.3.14.28.21.61.21.99a.9.9 0 01-.15.48c-.08.16-.17.29-.27.39-.2.2-.38.39-.54.57-.16.16-.35.32-.57.48-.22.16-.51.34-.87.54-.34.22-.7.41-1.08.57-.26.12-.49.21-.69.27-.18.08-.37.14-.57.18-.18.04-.37.06-.57.06-.2.02-.44.03-.72.03-.36 0-.74-.07-1.14-.21-.38-.12-.65-.23-.81-.33-.66-.4-1.13-.93-1.41-1.59-.28-.68-.42-1.51-.42-2.49 0-.6.07-1.18.21-1.74.14-.58.32-1.11.54-1.59.24-.5.5-.95.78-1.35.3-.4.6-.74.9-1.02.16-.16.37-.34.63-.54.28-.2.56-.38.84-.54.3-.16.62-.3.96-.42.34-.14.76-.21 1.26-.21s.97.19 1.41.57c.46.36.69.8.69 1.32 0 .12-.01.23-.03.33-.02.08-.05.16-.09.24-.04.12-.11.25-.21.39-.08.12-.17.21-.27.27-.16.12-.42.18-.78.18-.22 0-.39-.01-.51-.03-.12-.04-.29-.06-.51-.06-.32 0-.68.14-1.08.42-.38.26-.74.61-1.08 1.05-.34.44-.63.93-.87 1.47-.22.52-.33 1.05-.33 1.59 0 .5.09.91.27 1.23.2.32.56.48 1.08.48.46 0 .89-.08 1.29-.24.42-.18.76-.34 1.02-.48.2-.1.44-.24.72-.42.3-.2.56-.37.78-.51.2-.12.36-.24.48-.36s.24-.21.36-.27a1.71 1.71 0 01.51-.12c.12 0 .23.04.33.12zm6.706 4.65c-.22 0-.45-.01-.69-.03-.22-.02-.41-.05-.57-.09h-.06c-.02 0-.04-.01-.06-.03-.28-.06-.54-.09-.78-.09-.64 0-1.08-.22-1.32-.66v-.57c-.02-.1-.03-.27-.03-.51v-2.52c.02-.46.05-.92.09-1.38.02-.46.05-.94.09-1.44.06-.52.11-1.01.15-1.47.04-.46.08-.86.12-1.2.06-.36.1-.61.12-.75v-.42c0-.08.05-.15.15-.21.02-.02.03-.05.03-.09 0-.04.01-.08.03-.12.04-.06.06-.14.06-.24 0-.2.09-.31.27-.33.18-.04.32-.06.42-.06.04 0 .1-.01.18-.03.1-.02.17-.03.21-.03.18 0 .35.05.51.15.16.1.32.18.48.24.3-.1.59-.17.87-.21.28-.04.54-.06.78-.06.58 0 1.14.02 1.68.06.56.04 1.05.14 1.47.3.42.16.76.41 1.02.75s.39.81.39 1.41c0 .38-.09.82-.27 1.32-.18.48-.64 1-1.38 1.56.54.22.99.51 1.35.87.36.34.54.86.54 1.56 0 .9-.27 1.7-.81 2.4-.1.12-.22.24-.36.36-.14.1-.31.18-.51.24-.14.28-.44.52-.9.72-.92.4-2.01.6-3.27.6zm-.15-5.19c-.22 0-.39.01-.51.03-.1 0-.24.01-.42.03-.02.16-.03.34-.03.54-.02.16-.03.34-.03.54v1.08c0 .16.02.32.06.48.3.06.73.09 1.29.09.12 0 .28-.01.48-.03.22-.02.44-.05.66-.09.1-.02.21-.04.33-.06.14-.02.26-.05.36-.09l.18-.09c.1-.06.17-.1.21-.12a.46.46 0 01.18-.06c.06-.02.12-.05.18-.09.08-.06.12-.12.12-.18.02-.06.06-.14.12-.24l.12-.3c.04-.12.06-.24.06-.36 0-.48-.24-.78-.72-.9s-1.36-.18-2.64-.18zm1.35-4.71c-.22 0-.46.01-.72.03-.26.02-.62.07-1.08.15-.08.26-.15.59-.21.99-.04.38-.09.88-.15 1.5h.57c.42 0 .83-.03 1.23-.09.4-.08.76-.19 1.08-.33.32-.16.57-.35.75-.57.2-.24.3-.52.3-.84 0-.3-.18-.51-.54-.63-.34-.14-.75-.21-1.23-.21zm10.817 9.48c-.58 0-1.08-.1-1.5-.3-.4-.2-.73-.46-.99-.78-.26-.34-.46-.7-.6-1.08-.12-.4-.18-.8-.18-1.2 0-.62.12-1.19.36-1.71.24-.54.53-1.04.87-1.5.12-.16.26-.34.42-.54.18-.22.36-.42.54-.6.2-.2.39-.38.57-.54.18-.16.34-.27.48-.33.28-.14.48-.27.6-.39.14-.14.33-.21.57-.21.48 0 .91.12 1.29.36.38.22.7.52.96.9s.45.81.57 1.29c.14.48.21.97.21 1.47 0 1.58-.35 2.84-1.05 3.78-.7.92-1.74 1.38-3.12 1.38zm.72-6.6c-.08 0-.16.01-.24.03-.08 0-.15.03-.21.09-.16.16-.29.31-.39.45-.1.12-.23.32-.39.6-.1.18-.19.42-.27.72-.06.28-.09.59-.09.93 0 .34.09.62.27.84.18.2.47.3.87.3.24 0 .48-.06.72-.18.24-.14.45-.32.63-.54.18-.22.33-.48.45-.78.12-.3.18-.62.18-.96 0-.38-.12-.72-.36-1.02-.24-.32-.54-.48-.9-.48h-.27zm8.608 3.84h-1.38c-.14-.02-.31-.04-.51-.06-.32-.04-.56-.12-.72-.24-.14-.14-.25-.3-.33-.48-.08-.12-.13-.19-.15-.21v-.12c.02-.02.03-.05.03-.09-.02-.02-.03-.05-.03-.09 0-.06.02-.13.06-.21-.02-.02-.03-.05-.03-.09v-.09c.02-.02.03-.05.03-.09 0-.02-.01-.04-.03-.06v-.06c.06-.26.22-.48.48-.66.28-.18.56-.27.84-.27.32 0 .62.03.9.09.28.04.53.06.75.06.02-.8.13-1.55.33-2.25.2-.72.48-1.34.84-1.86.36-.54.8-.96 1.32-1.26.54-.32 1.16-.48 1.86-.48.16 0 .3.02.42.06.14.02.23.05.27.09l.48.18.3.12c.12.04.21.1.27.18.12.08.22.18.3.3.1.12.2.25.3.39.26.4.39.89.39 1.47 0 .48-.12.97-.36 1.47-.22.5-.52.98-.9 1.44-.38.44-.83.85-1.35 1.23-.5.36-1.03.67-1.59.93.36.4.85.6 1.47.6.52 0 .97-.03 1.35-.09.38-.08.79-.12 1.23-.12.12 0 .24.02.36.06.14.02.24.04.3.06 0 .04.04.09.12.15.08.06.15.15.21.27.02.04.03.08.03.12 0 .04-.01.08-.03.12-.02.02-.03.05-.03.09 0 .04.01.07.03.09-.04.04-.06.12-.06.24 0 .08.01.14.03.18-.04.04-.09.1-.15.18-.04.08-.06.16-.06.24 0 .06.01.1.03.12-.08.04-.32.21-.72.51-.1.08-.17.13-.21.15l-.18.09c-.04.02-.09.03-.15.03-.04 0-.08.01-.12.03-.08 0-.13.01-.15.03-.02 0-.04-.01-.06-.03h-.09c0 .02-.01.03-.03.03l-.12-.06h-.48c-.06.02-.13.04-.21.06-.08.02-.18.03-.3.03-.1.02-.25.03-.45.03-.76 0-1.51-.22-2.25-.66-.72-.44-1.28-1.07-1.68-1.89h-.42zm4.29-5.82a.418.418 0 00-.18-.03c-.28 0-.55.15-.81.45-.24.28-.44.59-.6.93-.08.2-.16.42-.24.66-.06.24-.11.51-.15.81.24-.02.49-.1.75-.24.26-.16.5-.34.72-.54.24-.22.43-.45.57-.69.16-.26.24-.52.24-.78 0-.2-.06-.36-.18-.48l-.12-.09zm15.471 9.24c-.12 0-.23-.01-.33-.03-.1-.02-.2-.05-.3-.09-.1-.04-.19-.09-.27-.15-.06-.06-.12-.11-.18-.15-.2 0-.35-.16-.45-.48-.1-.22-.16-.44-.18-.66v-.72c0-.26.01-.51.03-.75.02-.24.03-.49.03-.75v-.78c.02-.26.04-.56.06-.9-.22.02-.41.04-.57.06h-.27l-3.57.21c-.04.34-.07.67-.09.99v.72c0 .4.01.73.03.99.04.26.06.52.06.78 0 .58-.07 1.01-.21 1.29-.04.14-.12.21-.24.21l-.15.15c-.04.04-.1.06-.18.06-.18 0-.33-.02-.45-.06a2.02 2.02 0 00-.33-.03h-.12c-.04.02-.08.03-.12.03-.08 0-.16-.02-.24-.06a.983.983 0 01-.15-.12.29.29 0 01-.12-.15c0-.06-.02-.12-.06-.18-.06 0-.11-.05-.15-.15-.02-.1-.03-.2-.03-.3v-.33c.02-.12.04-.26.06-.42.14-1.5.24-2.78.3-3.84.08-1.08.12-1.85.12-2.31 0-.48-.02-.94-.06-1.38-.02-.46-.03-.79-.03-.99 0-.22.03-.36.09-.42 0-.02-.01-.04-.03-.06v-.18c.02-.02.03-.04.03-.06 0-.04.01-.13.03-.27.04-.14.1-.28.18-.42.1-.16.23-.3.39-.42.18-.12.4-.18.66-.18.54 0 .9.11 1.08.33.18.22.27.55.27.99 0 .06-.01.13-.03.21v.21l-.27 1.65c0 .14-.01.31-.03.51 0 .18-.02.5-.06.96h.87c.3-.02.58-.03.84-.03.26-.02.48-.03.66-.03.18-.02.3-.03.36-.03h.6c.36-.02.74-.04 1.14-.06.04-.38.06-.79.06-1.23.02-.44.05-.93.09-1.47-.04-.1-.07-.24-.09-.42-.02-.18-.03-.32-.03-.42 0-.14-.01-.27-.03-.39a2.02 2.02 0 01-.03-.33c0-.14.04-.27.12-.39.06-.1.13-.15.21-.15.1-.02.18-.05.24-.09.2-.16.42-.24.66-.24.2 0 .34.01.42.03.16.04.26.11.3.21.06.08.17.18.33.3.1 0 .16.11.18.33.04.22.06.42.06.6 0 .44-.03.97-.09 1.59-.04.6-.09 1.26-.15 1.98h.09c.04-.02.08-.03.12-.03h.09c.02.04.06.08.12.12.08.04.12.14.12.3 0 .14.01.26.03.36.04.08.06.17.06.27 0 .16-.04.32-.12.48-.08.14-.17.26-.27.36-.1.1-.23.17-.39.21-.06.84-.09 1.67-.09 2.49 0 .5.05.92.15 1.26.1.32.15.69.15 1.11 0 .14-.04.26-.12.36-.06.1-.14.15-.24.15-.04.1-.12.16-.24.18a.88.88 0 01-.33.06zm14.703-1.56c-.04.1-.1.2-.18.3-.08.12-.18.23-.3.33-.16.12-.31.22-.45.3a.68.68 0 01-.45.15c-.14 0-.28-.03-.42-.09-.2-.06-.34-.2-.42-.42-.08-.2-.12-.44-.12-.72v-.3c.02-.1.04-.21.06-.33.04-.24.09-.52.15-.84a26.179 26.179 0 01.39-1.83c.06-.22.09-.44.09-.66 0-.08-.02-.12-.06-.12-.08 0-.17.07-.27.21-.08.14-.22.34-.42.6-.3.4-.62.78-.96 1.14-.34.36-.77.77-1.29 1.23-.48.42-.99.81-1.53 1.17-.54.34-1.13.51-1.77.51-.6 0-1.07-.23-1.41-.69-.32-.48-.48-1.02-.48-1.62 0-.2.01-.43.03-.69.04-.26.07-.53.09-.81.04-.28.08-.54.12-.78.04-.26.06-.47.06-.63.04-.26.1-.6.18-1.02.08-.42.12-.77.12-1.05l.15-1.02c.04-.2.06-.38.06-.54.02-.18.05-.34.09-.48.02-.08.03-.15.03-.21v-.21c0-.16.04-.25.12-.27.12-.1.28-.18.48-.24.14-.06.27-.08.39-.06.12 0 .2-.02.24-.06.22 0 .43.14.63.42.2.28.32.53.36.75.02.06.03.15.03.27v.36c0 .34-.02.67-.06.99-.04.32-.09.66-.15 1.02l-.15.6c-.04.24-.09.48-.15.72-.04.24-.08.46-.12.66-.02.18-.03.31-.03.39 0 .12.02.23.06.33.06.08.17.12.33.12.18 0 .45-.13.81-.39.36-.26.74-.57 1.14-.93.42-.38.82-.77 1.2-1.17.4-.42.72-.79.96-1.11.38-.5.69-.91.93-1.23.26-.32.49-.57.69-.75.2-.2.5-.3.9-.3.2 0 .37.08.51.24.16.16.29.32.39.48.16.26.24.55.24.87 0 .3.02.61.06.93 0 .08-.02.16-.06.24-.04.08-.06.16-.06.24-.02.22-.04.48-.06.78-.02.3-.04.63-.06.99-.1 1.08-.2 1.94-.3 2.58-.08.62-.19 1.13-.33 1.53l-.03.12zm9.256-4.56c.22 0 .44-.02.66-.06.22-.06.41-.12.57-.18l.18-1.92c0-.52-.15-.89-.45-1.11-.3-.22-.65-.33-1.05-.33-.22 0-.46.02-.72.06-.24.04-.46.13-.66.27-.2.12-.37.3-.51.54-.12.22-.18.52-.18.9 0 .36.06.66.18.9s.28.43.48.57c.2.14.43.24.69.3.26.04.53.06.81.06zm2.04 6c-.16 0-.29-.02-.39-.06a1.98 1.98 0 00-.33-.12c-.18-.06-.34-.17-.48-.33-.12-.16-.18-.38-.18-.66s.03-.64.09-1.08l.27-2.01c-.02.04-.14.08-.36.12a.67.67 0 00-.24.09c-.06.04-.15.09-.27.15-.14 0-.26.04-.36.12-.1.08-.26.2-.48.36-.28.16-.5.34-.66.54-.16.18-.36.41-.6.69-.2.22-.4.46-.6.72-.18.24-.37.5-.57.78-.22.28-.47.46-.75.54-.28.1-.57.15-.87.15-.08 0-.18-.02-.3-.06-.1-.04-.16-.1-.18-.18 0-.06-.06-.14-.18-.24a.72.72 0 01-.24-.36c-.04-.14-.06-.26-.06-.36 0-.16.03-.33.09-.51s.17-.38.33-.6c.42-.5.82-.92 1.2-1.26.38-.34.8-.68 1.26-1.02-.14-.06-.27-.13-.39-.21-.1-.08-.2-.17-.3-.27a.753.753 0 01-.21-.24c-.02-.1-.08-.2-.18-.3-.2-.2-.34-.39-.42-.57-.24-.5-.36-1-.36-1.5 0-1.24.39-2.2 1.17-2.88.78-.7 1.77-1.05 2.97-1.05.64 0 1.18.05 1.62.15.46.1.84.31 1.14.63.1-.12.22-.2.36-.24.14-.06.29-.09.45-.09.12 0 .21.03.27.09.08.06.17.11.27.15.1.04.17.07.21.09.04.02.08.08.12.18.04.1.06.2.06.3v.36c0 .22-.01.41-.03.57-.02.16-.05.33-.09.51-.22 1.32-.37 2.67-.45 4.05-.08 1.38-.12 2.71-.12 3.99 0 .1-.02.19-.06.27-.02.1-.09.15-.21.15 0 .16-.1.28-.3.36-.18.06-.4.09-.66.09z" fill="#fff" opacity=".5"/><defs><radialGradient id="paint0_radial" cx="0" cy="0" r="1" gradientUnits="userSpaceOnUse" gradientTransform="matrix(-16.29529 -72.12593 84.58754 -19.11072 84.745 71.022)"><stop stop-color="#407B9A"/><stop offset=".645" stop-color="#3682A1"/><stop offset=".941" stop-color="#C6DDEE"/><stop offset="1" stop-color="#fff"/></radialGradient><linearGradient id="paint1_linear" x1="117.279" y1="22.38" x2="97.309" y2="59.323" gradientUnits="userSpaceOnUse"><stop stop-color="#fff"/><stop offset=".475" stop-color="#D4EFFD" stop-opacity=".5"/><stop offset="1" stop-color="#3699D6" stop-opacity="0"/></linearGradient></defs></svg>