<svg width="233" height="278" fill="none" xmlns="http://www.w3.org/2000/svg"><path opacity=".5" d="M8.724 180.02c8.311 33.56 27.87 63.765 54.736 80.305 26.866 16.461 60.968 18.059 88.121 1.758 16.549-9.988 29.875-25.81 40.765-43.229 20.131-31.962 32.669-69.997 36.179-109.071 1.29-13.584 1.29-27.967-3.653-40.512-4.872-12.306-14.114-21.575-23.929-29.086-32.24-25.01-101.304-51.699-138.128-25.57C16.39 47.458-5.962 121.45 8.725 180.02z" fill="url(#paint0_radial)" stroke="#fff" stroke-width="7.347" stroke-miterlimit="10"/><path opacity=".56" d="M76.134 36.485c3-2.093 21.675-10.467 30.075-11.305 6.15-.586 31.5-3.684 44.625 3.936 10.05 5.946 15.075 7.62 17.775 21.94.3 1.507-.975 9.714-5.7 9.128-8.175-1.591-26.1-7.118-51.225-4.522-6.3.586-23.25 4.94-29.55 7.369-2.85 1.088-14.025 4.689-16.275 3.684-11.55-5.192 4.8-26.294 10.275-30.23z" fill="url(#paint1_linear)"/><path opacity=".5" d="M77.67 128.35c.641 0 1.344-.025 2.109-.074.765-.05 1.517-.161 2.257-.333a1.2 1.2 0 01.296-.037h.333a.249.249 0 00.222-.111.46.46 0 01.259-.185.895.895 0 01.333-.074.661.661 0 00.296-.074.245.245 0 00.111-.111c.025-.05.062-.074.111-.074a.69.69 0 01.222.037h.185a.383.383 0 00.37-.222c.099-.173.21-.309.333-.407a3.08 3.08 0 001.073-1.295c.247-.543.37-1.098.37-1.665 0-.617-.16-1.11-.481-1.48-.32-.395-.752-.703-1.295-.925a6.782 6.782 0 00-1.85-.444 14.346 14.346 0 00-2.109-.148c-.567 0-1.122.024-1.665.074-.543.024-1.098.061-1.665.111l-.037.666.185 3.478a.631.631 0 00-.037.259v.148l.074 2.886zm6.66-15.836a21.88 21.88 0 00-2.96-.37 43.01 43.01 0 00-2.109-.074c-.37 0-.715.037-1.036.111-.32.049-.58.086-.777.111l.148 2.701c-.025.024-.037.049-.037.074l-.037.037c-.025.024-.05.037-.074.037a.47.47 0 00.111.185c.05.024.074.074.074.148 0 .024-.025.037-.074.037-.05 0-.074.037-.074.111v.703c.025.197.037.394.037.592v.444c0 .123-.025.271-.074.444.444-.025.851-.037 1.221-.037h1.221c.123 0 .259.012.407.037h1.48c.148 0 .284.012.407.037.148.024.296.061.444.111a.984.984 0 00.296.037h.222a.407.407 0 01.185-.037c.05 0 .111.037.185.111.074.074.148.111.222.111h.185a.599.599 0 01.185-.037c.123 0 .185.024.185.074 0 .049.037.074.111.074h.185a.599.599 0 01.185-.037c.395.049.814.148 1.258.296.469.123.851.246 1.147.37.863.419 1.53 1.011 1.998 1.776.469.764.703 1.702.703 2.812a8.09 8.09 0 01-.518 2.812c-.345.937-.851 1.702-1.517 2.294a8.09 8.09 0 01-2.109 1.332 12.3 12.3 0 01-2.479.851c-.863.222-1.727.37-2.59.444-.863.098-1.665.148-2.405.148h-2.22a3.374 3.374 0 01-.333.037c-.025-.025-.037-.05-.037-.074-.074-.074-.099-.111-.074-.111-.025 0-.05.012-.074.037-.025.049-.062.074-.111.074-.173 0-.284-.037-.333-.111a.539.539 0 00-.259-.185.357.357 0 01-.259-.296.344.344 0 00-.185-.259 1.481 1.481 0 01-.185-.555 4.545 4.545 0 01-.037-.629c0-.074.025-.21.074-.407a1.73 1.73 0 01.259-.481 108.8 108.8 0 01-.074-1.332c-.025-.42-.05-.925-.074-1.517v-1.961c0-.642-.012-1.332-.037-2.072v-5.735c0-.938.012-1.665.037-2.183l.037-.37-.074-.666v-.666c0-.518.025-.987.074-1.406.05-.42.148-.691.296-.814.271-.198.506-.296.703-.296.222 0 .506-.025.851-.074.345-.05.937-.087 1.776-.111l2.479-.074h1.073c.148 0 .345.012.592.037.271 0 .543.012.814.037.296.024.567.049.814.074.247 0 .432.012.555.037a7.27 7.27 0 011.11.185c.296.074.567.16.814.259.37.123.617.283.74.481.05.049.074.098.074.148.025.024.05.061.074.111.05.049.074.098.074.148 0 .049.012.098.037.148v.222c0 .616-.247 1.06-.74 1.332a6.052 6.052 0 01-.407.222.921.921 0 01-.407.111c-.345 0-.802-.062-1.369-.185zm2.716 30.895c2.17 0 4.008-.247 5.512-.74 1.505-.469 2.69-1.123 3.552-1.961a9.317 9.317 0 001.85-2.553c.519-.987.95-2.122 1.296-3.404.27-.938.419-1.912.444-2.923.024-1.012.086-2.011.184-2.997-.049.123-.16.271-.332.444a2.825 2.825 0 01-.667.407c-.27.148-.58.271-.925.37a2.76 2.76 0 01-.998.185 6.54 6.54 0 01-.704-.037 2.498 2.498 0 01-.74-.222 3.825 3.825 0 01-1.294-.925 4.83 4.83 0 01-.925-1.591 4.822 4.822 0 01-.26-1.369 31.149 31.149 0 01-.037-1.48c0-.962.062-1.789.186-2.479.123-.691.258-1.271.406-1.739a4.71 4.71 0 01.482-1.073c.197-.346.58-.518 1.147-.518h.148c.32 0 .53.098.629.296.123.172.184.407.184.703v.222c0 .074-.012.197-.037.37-.074.641-.148 1.27-.222 1.887a14.357 14.357 0 00-.11 1.702c0 .74.098 1.381.296 1.924.221.518.64.777 1.257.777.198 0 .407-.025.63-.074.221-.074.468-.173.74-.296.345-.148.678-.469.999-.962.32-.494.579-1.024.776-1.591.198-.568.42-1.049.666-1.443.272-.395.592-.592.962-.592.124 0 .272.037.444.111a.779.779 0 01.481.37.867.867 0 01.148.407c.025.172.037.357.037.555a2.9 2.9 0 01-.037.481v.259c-.024.37-.049.727-.074 1.073-.024.32-.061.678-.111 1.073-.024.37-.049.801-.074 1.295a38.08 38.08 0 00-.037 1.813c0 2.738-.259 5.167-.777 7.289-.493 2.121-1.344 3.909-2.553 5.365-1.208 1.455-2.811 2.553-4.81 3.293-1.973.764-4.452 1.147-7.437 1.147h-.406c-.148 0-.284-.025-.407-.074a6.919 6.919 0 00-.852-.296c-.296-.05-.505-.247-.629-.592a2.063 2.063 0 01-.184-.481 1.22 1.22 0 01-.037-.296c0-.494.172-.802.518-.925.32-.124.752-.185 1.294-.185h.407zm24.935-12.432c-.863 0-1.616-.161-2.257-.481a4.279 4.279 0 01-1.554-1.258c-.395-.568-.691-1.234-.888-1.998a11.413 11.413 0 01-.259-2.516c0-1.258.123-2.553.37-3.885.271-1.357.765-2.541 1.48-3.552.099-.124.234-.259.407-.407.173-.173.321-.272.444-.296 0-.222.123-.42.37-.592.123-.099.271-.198.444-.296.173-.099.333-.173.481-.222a5.619 5.619 0 012.146-.407c.469 0 .9.074 1.295.222.395.123.728.271.999.444.321.197.617.407.888.629a17.297 17.297 0 00-.259-1.517 7.905 7.905 0 00-.296-1.258c-.049-.124-.099-.198-.148-.222-.025-.025-.037-.099-.037-.222 0-.074.025-.136.074-.185-.025-.05-.062-.074-.111-.074a.248.248 0 01-.111-.111c-.345-.642-.814-1.11-1.406-1.406-.567-.321-1.344-.568-2.331-.74-.839-.148-1.455-.259-1.85-.333-.395-.099-.592-.37-.592-.814 0-.05-.037-.124-.111-.222a.864.864 0 01-.074-.296c0-.222.025-.346.074-.37.074-.05.111-.136.111-.259a.98.98 0 01.037-.222.85.85 0 01.148-.222c.123-.124.173-.235.148-.333-.025-.099.012-.198.111-.296.197-.148.432-.235.703-.259.296-.025.567-.037.814-.037 1.209 0 2.269.197 3.182.592.913.394 1.69.949 2.331 1.665a.748.748 0 01.222.407c.025.148.111.283.259.407.099.074.173.16.222.259a.94.94 0 00.259.296.665.665 0 01.222.296c.049.098.099.209.148.333.419.838.715 1.763.888 2.775.197.986.296 2.022.296 3.108 0 .764-.025 1.603-.074 2.516-.025.888-.099 1.8-.222 2.738a17.848 17.848 0 01-.518 2.738 11.992 11.992 0 01-.962 2.442c-.099.197-.222.296-.37.296-.074.074-.111.135-.111.185v.111c.025 0 .037.012.037.037-.074.123-.21.185-.407.185a.443.443 0 00.074.111c.049.024.074.061.074.111a.253.253 0 01-.074.185l-.148.148a3.197 3.197 0 01-.592.518c-.222.148-.432.283-.629.407a5.053 5.053 0 00-.481.333c-.099.123-.259.234-.481.333a5.266 5.266 0 01-1.11.333 5.367 5.367 0 01-1.295.148zm.518-2.923c.469 0 .876-.124 1.221-.37.37-.247.678-.568.925-.962.271-.395.493-.839.666-1.332.173-.518.321-1.036.444-1.554.271-1.234.419-2.64.444-4.218-.197-.494-.567-.888-1.11-1.184-.518-.321-1.135-.481-1.85-.481-.666 0-1.209.222-1.628.666-.419.444-.752.999-.999 1.665a11.4 11.4 0 00-.481 2.146 16.26 16.26 0 00-.148 2.072c0 .32.012.629.037.925.025.271.074.53.148.777a.565.565 0 00.185.222.652.652 0 01.185.185.598.598 0 01.074.259.477.477 0 00.111.185.413.413 0 01.148.148.578.578 0 01.111.148c.074.049.148.111.222.185.099.074.197.135.296.185.123.049.247.111.37.185s.234.123.333.148h.296zm4.103 15.355c2.171 0 4.008-.247 5.513-.74 1.505-.469 2.689-1.123 3.552-1.961a9.309 9.309 0 001.85-2.553c.518-.987.95-2.122 1.295-3.404a11.51 11.51 0 00.444-2.923 39.84 39.84 0 01.185-2.997c-.049.123-.16.271-.333.444a2.837 2.837 0 01-.666.407 4.54 4.54 0 01-.925.37 2.77 2.77 0 01-.999.185c-.247 0-.481-.013-.703-.037a2.496 2.496 0 01-.74-.222 3.826 3.826 0 01-1.295-.925 4.825 4.825 0 01-.925-1.591 4.836 4.836 0 01-.259-1.369 30.756 30.756 0 01-.037-1.48c0-.962.062-1.789.185-2.479a14.05 14.05 0 01.407-1.739c.123-.395.284-.753.481-1.073.197-.346.58-.518 1.147-.518h.148c.321 0 .53.098.629.296.123.172.185.407.185.703v.222c0 .074-.012.197-.037.37-.074.641-.148 1.27-.222 1.887a14.357 14.357 0 00-.111 1.702c0 .74.099 1.381.296 1.924.222.518.641.777 1.258.777.197 0 .407-.025.629-.074.222-.074.469-.173.74-.296.345-.148.678-.469.999-.962.321-.494.58-1.024.777-1.591a7.109 7.109 0 01.666-1.443c.271-.395.592-.592.962-.592.123 0 .271.037.444.111a.782.782 0 01.481.37.878.878 0 01.148.407c.025.172.037.357.037.555a2.9 2.9 0 01-.037.481v.259c-.025.37-.049.727-.074 1.073-.025.32-.062.678-.111 1.073-.025.37-.049.801-.074 1.295a36.792 36.792 0 00-.037 1.813c0 2.738-.259 5.167-.777 7.289-.493 2.121-1.344 3.909-2.553 5.365-1.209 1.455-2.812 2.553-4.81 3.293-1.973.764-4.452 1.147-7.437 1.147h-.407c-.148 0-.284-.025-.407-.074a6.936 6.936 0 00-.851-.296c-.296-.05-.506-.247-.629-.592a2.067 2.067 0 01-.185-.481 1.206 1.206 0 01-.037-.296c0-.494.173-.802.518-.925.321-.124.752-.185 1.295-.185h.407zm38.736-15.577c.148-.025.284-.05.407-.074.124-.025.247-.037.37-.037a2.66 2.66 0 01.444-.037c.42 0 .716.098.888.296.173.172.259.419.259.74l-.148 2.479-.148.555c.05.049.074.135.074.259.025.148.037.283.037.407 0 .172-.012.345-.037.518a3.996 3.996 0 01-.074.407 8.29 8.29 0 01-.222 1.369c-.074.394-.197.74-.37 1.036a2.606 2.606 0 00-.185.37c-.024.123-.111.209-.259.259a.632.632 0 01-.185-.037h-.148c-.172 0-.296.049-.37.148a.354.354 0 00-.259-.111h-.148c-.024.024-.061.037-.111.037-.098 0-.172-.025-.222-.074-.024-.05-.074-.074-.148-.074a.41.41 0 00-.185.037c-.074-.124-.148-.185-.222-.185-.049.024-.098-.013-.148-.111a1.997 1.997 0 01-.111-.444v-.518c0-.543.062-1.221.185-2.035.124-.79.235-1.591.333-2.405a2.018 2.018 0 01-.555.074 4.079 4.079 0 01-.444.037c-.493 0-.814-.099-.962-.296-.148-.173-.222-.432-.222-.777 0-.79.111-1.665.333-2.627.247-.962.395-1.875.444-2.738l-.481.925a49.774 49.774 0 01-1.11 1.665 18.893 18.893 0 01-1.406 1.813 8.68 8.68 0 01-1.591 1.443c-.567.419-1.122.629-1.665.629-.296 0-.555-.074-.777-.222-.123-.074-.185-.148-.185-.222 0-.074-.061-.161-.185-.259a3.28 3.28 0 01-.296-.37 3.957 3.957 0 01-.222-.444 4.79 4.79 0 01-.222-1.517c0-.444.037-.987.111-1.628.099-.642.21-1.234.333-1.776l-.777 1.369c-.197.345-.444.74-.74 1.184-.296.419-.629.863-.999 1.332-.123.148-.283.333-.481.555-.172.197-.32.357-.444.481l-.222.222a.51.51 0 01-.259.111.867.867 0 01-.185.296.998.998 0 01-.259.185c-.666.468-1.319.703-1.961.703-.641 0-1.147-.309-1.517-.925-.37-.617-.555-1.32-.555-2.109 0-.642.025-1.283.074-1.924.074-.666.173-1.332.296-1.998.099-.568.222-1.197.37-1.887.173-.691.296-1.369.37-2.035.05-.469.111-.851.185-1.147.099-.296.259-.531.481-.703l.148-.148a.25.25 0 01.185-.074c.025 0 .062.012.111.037h.111c0-.05.037-.074.111-.074.099-.025.185-.037.259-.037.124 0 .222.037.296.111a.46.46 0 00.259.074h.222a.6.6 0 01.185-.037h.185c.099 0 .148.012.148.037.05.123.099.197.148.222.074.024.148.098.222.222a.775.775 0 01.111.407c0 .222-.012.419-.037.592a9.622 9.622 0 01-.111.555 23.757 23.757 0 00-.851 3.293c-.222 1.159-.333 2.133-.333 2.923 0 .271.099.407.296.407.173 0 .407-.136.703-.407.321-.296.679-.691 1.073-1.184a20.53 20.53 0 001.295-1.813c.469-.716.925-1.505 1.369-2.368.025-.05.062-.111.111-.185a.783.783 0 01.185-.148c.198-.05.296-.173.296-.37 0-.025-.024-.062-.074-.111-.049-.05-.074-.087-.074-.111.05-.074.111-.111.185-.111s.111-.062.111-.185c0-.025-.012-.05-.037-.074v-.111c.074 0 .099-.05.074-.148 0-.099.025-.185.074-.259a3.35 3.35 0 01.592-.851c.272-.321.629-.481 1.073-.481.518 0 .888.135 1.11.407a.49.49 0 01.111.296c0 .098.037.209.111.333.05.098.087.234.111.407.025.148.037.283.037.407 0 .493-.049.949-.148 1.369-.098.419-.209.875-.333 1.369-.098.468-.197.986-.296 1.554-.098.567-.148 1.245-.148 2.035 0 .271.161.407.481.407.296 0 .913-.629 1.85-1.887.938-1.283 1.961-3.084 3.071-5.402.074-.148.173-.284.296-.407a.501.501 0 01.259-.111.51.51 0 00.259-.111.875.875 0 00.222-.148.25.25 0 01.222-.111c.222 0 .457.049.703.148.272.098.457.259.555.481.124.296.185.777.185 1.443 0 .468-.024.937-.074 1.406a24.422 24.422 0 01-.148 1.628l-.333 2.479a38.92 38.92 0 01-.296 2.22zm11.697 3.848c-1.258 0-2.38-.296-3.367-.888-.962-.568-1.64-1.505-2.035-2.812a9.527 9.527 0 01-.37-1.887 4.856 4.856 0 01-.296-.37c-.024-.099-.049-.161-.074-.185-.024 0-.037-.013-.037-.037 0-.05-.037-.074-.111-.074-.049 0-.086-.037-.111-.111v-.444a.69.69 0 00.037-.222c0-.025.013-.037.037-.037a.432.432 0 00.111-.074l.518-.074a9.222 9.222 0 01.814-2.627c.444-.888.999-1.727 1.665-2.516a5.74 5.74 0 01.777-.777c.346-.321.74-.617 1.184-.888.469-.296.95-.543 1.443-.74a3.917 3.917 0 011.554-.333c.839 0 1.579.296 2.22.888.642.567.962 1.332.962 2.294 0 .271-.037.567-.111.888a4.746 4.746 0 01-.222.851 5.793 5.793 0 01-.555 1.11 8.707 8.707 0 01-.74 1.11 8.5 8.5 0 01-1.11 1.184c-.37.32-.789.641-1.258.962-.567.345-1.147.653-1.739.925-.592.271-1.171.407-1.739.407 0 .345.087.616.259.814.173.197.383.357.629.481.272.098.568.16.888.185.321.024.629.037.925.037.962 0 1.653-.099 2.072-.296.444-.222.765-.333.962-.333.198 0 .321.024.37.074.148.123.235.259.259.407.025.123.037.271.037.444v.259c0 .148-.024.32-.074.518a2.415 2.415 0 01-.185.555c-.345.468-.851.801-1.517.999a6.29 6.29 0 01-2.072.333zm-2.627-7.03c.469-.099.975-.309 1.517-.629a10.548 10.548 0 001.554-1.147c.494-.42.901-.851 1.221-1.295.321-.469.481-.888.481-1.258 0-.099-.049-.21-.148-.333-.098-.124-.283-.185-.555-.185-.419 0-.838.135-1.258.407a3.944 3.944 0 00-.999.888c-.296.37-.555.703-.777.999a6.154 6.154 0 00-.481.851 7.38 7.38 0 00-.333.777 17.18 17.18 0 00-.222.925zm13.103 2.331h-1.702a13.94 13.94 0 00-.629-.074c-.395-.05-.691-.148-.888-.296a1.938 1.938 0 01-.407-.592 2.706 2.706 0 00-.185-.259v-.148c.024-.025.037-.062.037-.111-.025-.025-.037-.062-.037-.111 0-.074.024-.161.074-.259-.025-.025-.037-.062-.037-.111v-.111c.024-.025.037-.062.037-.111 0-.025-.013-.05-.037-.074v-.074c.074-.321.271-.592.592-.814.345-.222.69-.333 1.036-.333.394 0 .764.037 1.11.111.345.049.653.074.925.074.024-.987.16-1.912.407-2.775.246-.888.592-1.653 1.036-2.294a4.877 4.877 0 011.628-1.554c.666-.395 1.43-.592 2.294-.592.197 0 .37.024.518.074.172.024.283.061.333.111l.592.222.37.148a.659.659 0 01.333.222c.148.098.271.222.37.37.123.148.246.308.37.481.32.493.481 1.097.481 1.813 0 .592-.148 1.196-.444 1.813a7.661 7.661 0 01-1.11 1.776 9.985 9.985 0 01-1.665 1.517c-.617.444-1.271.826-1.961 1.147.444.493 1.048.74 1.813.74.641 0 1.196-.037 1.665-.111a7.33 7.33 0 011.517-.148c.148 0 .296.024.444.074.172.024.296.049.37.074 0 .049.049.111.148.185a.928.928 0 01.259.333.334.334 0 01.037.148.34.34 0 01-.037.148c-.025.024-.037.061-.037.111 0 .049.012.086.037.111-.05.049-.074.148-.074.296 0 .098.012.172.037.222-.05.049-.111.123-.185.222a.645.645 0 00-.074.296c0 .074.012.123.037.148-.099.049-.395.259-.888.629-.124.098-.21.16-.259.185l-.222.111a.423.423 0 01-.185.037.321.321 0 00-.148.037c-.099 0-.161.012-.185.037-.025 0-.05-.013-.074-.037h-.111c0 .024-.013.037-.037.037l-.148-.074h-.592a4.277 4.277 0 01-.259.074 1.594 1.594 0 01-.37.037 3.139 3.139 0 01-.555.037c-.938 0-1.863-.272-2.775-.814-.888-.543-1.579-1.32-2.072-2.331h-.518zm5.291-7.178a.514.514 0 00-.222-.037c-.346 0-.679.185-.999.555a5.038 5.038 0 00-.74 1.147c-.099.246-.198.518-.296.814a9.025 9.025 0 00-.185.999c.296-.025.604-.124.925-.296.32-.198.616-.42.888-.666.296-.272.53-.555.703-.851.197-.321.296-.642.296-.962 0-.247-.074-.444-.222-.592l-.148-.111zm-94.143 67.395h-.148c-.025.024-.074.037-.148.037-.05 0-.086-.037-.111-.111 0-.05-.025-.099-.074-.148a.248.248 0 00-.185-.074c-.05.024-.086.024-.111 0l-.148-.111-.111-.148a.236.236 0 00-.111-.111.443.443 0 01-.074-.111 5.188 5.188 0 01-.259-.74 5.323 5.323 0 00-.222-.777c0-.05-.012-.087-.037-.111a.28.28 0 00-.037-.111c0-.025-.012-.037-.037-.037-.025-.025-.037-.05-.037-.074v-.074c.025-.025.037-.05.037-.074 0-.025-.012-.037-.037-.037v-.111l-.222-.592c-.148-.37-.296-.753-.444-1.147l-.37-1.258c-.173 0-.271-.025-.296-.074-.025-.025-.062-.037-.111-.037a.324.324 0 00-.148.037h-.148c.025-.025.012-.037-.037-.037a.324.324 0 00-.148-.037h-.37c-.05 0-.086-.013-.111-.037-.05 0-.136-.013-.259-.037a1.372 1.372 0 00-.296-.111c-.42-.074-.888-.136-1.406-.185a16.352 16.352 0 00-1.591-.148l-1.554-.074a29.366 29.366 0 00-1.406-.037h-.407c-.123 0-.247.012-.37.037a25.544 25.544 0 01-.333 2.22c-.148.74-.333 1.406-.555 1.998a.825.825 0 01-.074.37l-.111.148c-.222.296-.42.555-.592.777-.173.246-.395.37-.666.37-.395 0-.654-.185-.777-.555a4.102 4.102 0 01-.185-1.295c0-.346.012-.703.037-1.073.05-.37.099-.728.148-1.073 0-.025.012-.037.037-.037.025-.025.037-.062.037-.111 0-.025-.012-.037-.037-.037v-.111c0-.099.012-.309.037-.629.05-.346.086-.555.111-.629a.413.413 0 00.037-.185c0-.099-.025-.173-.074-.222a.936.936 0 01.111-.222c.05-.05.074-.099.074-.148.025-.074.05-.111.074-.111a.572.572 0 01-.074-.222c0-.05.012-.099.037-.148l.037-.037c.025 0 .05-.013.074-.037.025 0 .037-.013.037-.037 0-.05-.037-.099-.111-.148a1.053 1.053 0 00-.111-.148.598.598 0 00.148-.333 1.28 1.28 0 00.074-.407c0-.05-.012-.074-.037-.074v-.074c0-.05.012-.087.037-.111a.29.29 0 00.037-.111.95.95 0 01.037-.296c.025-.099.037-.21.037-.333 0-.198.012-.358.037-.481 0-.05.012-.111.037-.185a1.13 1.13 0 01.074-.222.818.818 0 00-.037-.259v-.185c0-.05.025-.124.074-.222.025-.124.05-.235.074-.333.025-.124.05-.259.074-.407 0-.05-.012-.087-.037-.111v-.148c0-.05.012-.087.037-.111 0-.099.012-.247.037-.444.025-.222.062-.407.111-.555.025-.025.037-.062.037-.111a.325.325 0 00-.037-.148v-.259c.025-.025.037-.05.037-.074.05-.765.086-1.419.111-1.961.025-.543.062-1.16.111-1.85.074-.716.197-1.308.37-1.776.173-.494.58-.74 1.221-.74.197 0 .333.012.407.037.05.024.074.049.074.074.025.024.062.037.111.037l.037.037c.025 0 .05.024.074.074l.185.185c0 .049.012.086.037.111.025.024.05.061.074.111a.513.513 0 01.037.222c.271-.716.555-1.357.851-1.924a9.714 9.714 0 01.888-1.48c.247-.321.469-.543.666-.666a1.16 1.16 0 01.629-.185c.345 0 .617.074.814.222.222.148.506.53.851 1.147.666 1.159 1.283 2.479 1.85 3.959a74.428 74.428 0 011.665 4.514 243.01 243.01 0 011.48 4.588 82.255 82.255 0 001.443 4.07c.247.592.456 1.122.629 1.591.197.444.358.838.481 1.184l.074.222v.037c.025.024.037.049.037.074v.037c.025.024.037.049.037.074l.074.148c.05.123.074.222.074.296.025.098.062.209.111.333v.148c.025.024.037.049.037.074 0 .024-.012.049-.037.074l-.037.037c-.099.074-.136.135-.111.185.025.074-.062.111-.259.111-.05.049-.074.086-.074.111 0 .197-.025.283-.074.259-.025 0-.037.024-.037.074 0 .049-.025.074-.074.074a.408.408 0 00-.074.111 1.303 1.303 0 00-.185.074c-.025.024-.062.037-.111.037-.025 0-.05-.013-.074-.037h-.037a.574.574 0 01-.222-.074.354.354 0 00-.185-.074c-.05 0-.086-.013-.111-.037h-.222c-.025.024-.062.037-.111.037zm-3.922-9.25c-.271-.913-.555-1.826-.851-2.738-.296-.938-.592-1.838-.888-2.701a65.816 65.816 0 00-.888-2.442 19.082 19.082 0 00-.925-2.109c-.123 0-.259.098-.407.296a5.34 5.34 0 00-.407.703 25.842 25.842 0 00-.888 2.22 49.378 49.378 0 00-.814 2.516c-.222.814-.42 1.566-.592 2.257-.173.69-.284 1.184-.333 1.48.617.049 1.32.086 2.109.111.79.024 1.616.074 2.479.148.345.024.728.061 1.147.111l1.258.148zm8.99 23.051a4.269 4.269 0 01-.37-1.073c-.05-.37-.074-.864-.074-1.48a22 22 0 01.11-2.109c.075-.765.149-1.665.223-2.701.025-.42.061-.95.11-1.591.075-.642.174-1.345.297-2.109-.148 0-.296-.062-.444-.185a1.263 1.263 0 01-.296-.333c-.173-.346-.26-.654-.26-.925 0-.272.026-.506.075-.703.05-.198.136-.42.259-.666 0-.173.05-.37.148-.592.099-.198.222-.407.37-.629l.925-1.258.333-1.961c.197-1.086.456-2.331.777-3.737a64.446 64.446 0 011.258-4.403 14.18 14.18 0 01.666-1.628c.271-.592.58-1.135.925-1.628a5.933 5.933 0 011.11-1.221c.419-.321.851-.481 1.295-.481.518 0 .974.135 1.369.407.395.271.728.629.999 1.073.296.419.518.888.666 1.406.148.518.222 1.011.222 1.48 0 .74-.111 1.48-.333 2.22-.197.74-.456 1.455-.777 2.146a19.672 19.672 0 01-1.036 1.887c-.37.567-.715 1.073-1.036 1.517l-3.996 5.254a.962.962 0 00-.037.296 96.064 96.064 0 00-.222 1.665 32.25 32.25 0 01-.185 1.739 42.76 42.76 0 01-.148 1.406 17.27 17.27 0 00-.037.851c-.123 1.381-.21 2.528-.26 3.441a89.522 89.522 0 00-.036 2.22c0 .172-.025.37-.074.592-.05.246-.111.481-.185.703-.074.222-.16.431-.26.629a2.71 2.71 0 01-.221.518c-.173.271-.333.444-.481.518-.148.098-.26.148-.333.148a.985.985 0 01-.555-.148c-.123-.099-.284-.284-.481-.555zm4.773-20.35a21.87 21.87 0 001.147-1.665c.37-.592.691-1.184.962-1.776.296-.592.518-1.16.666-1.702.173-.568.259-1.061.259-1.48 0-.444-.148-.666-.444-.666-.173 0-.345.148-.518.444a8.632 8.632 0 00-.481 1.11 29.55 29.55 0 00-.444 1.369l-.444 1.406c-.124.444-.234.875-.333 1.295a21.53 21.53 0 00-.222.962l-.148.703zm12.735-6.549c.518-.148 1.11-.321 1.776-.518a31.543 31.543 0 002.072-.777 37.652 37.652 0 001.628-.703l1.332-.666c.37-.198.74-.37 1.11-.518.37-.173.678-.259.925-.259.246 0 .394.024.444.074.049.049.209.111.481.185.024.074.086.185.185.333.098.148.197.259.296.333v.148a.334.334 0 01.037.148c0 .024-.013.049-.037.074v.111c0 .049.012.098.037.148a.84.84 0 01-.111.296.406.406 0 00-.037.185.248.248 0 01-.111.111 5.643 5.643 0 00-.111.111.36.36 0 01-.148.185.448.448 0 00-.185.111c-.222.197-.617.431-1.184.703-.543.271-1.147.555-1.813.851a71.2 71.2 0 01-1.998.851c-.666.246-1.221.444-1.665.592-.938.271-1.406.456-1.406.555.024.098.185.296.481.592s.666.653 1.11 1.073c.468.394.974.838 1.517 1.332.567.468 1.097.925 1.591 1.369.518.444.974.863 1.369 1.258.419.37.715.666.888.888.123.172.185.283.185.333a.56.56 0 00.074.222c.074.074.135.148.185.222a.722.722 0 00-.074.333v.111c0 .024.012.049.037.074a.535.535 0 00-.111.148.34.34 0 01-.037.148l-.185.259-.259.185-.296.148a1.14 1.14 0 00-.185.148.668.668 0 01-.333.111c-.198 0-.383-.05-.555-.148-.148-.074-.235-.136-.259-.185-.272 0-.481-.099-.629-.296a2.236 2.236 0 00-.481-.481c-.543-.37-1.234-.913-2.072-1.628a66.855 66.855 0 01-2.96-2.812 2.956 2.956 0 00-.555-.407c-.222-.148-.383-.222-.481-.222a.836.836 0 00-.074.296v.296c0 .419.012.777.037 1.073a35.183 35.183 0 00.148 1.369c.024.197.037.407.037.629 0 .468-.111.863-.333 1.184-.272.345-.716.518-1.332.518h-.222c-.346-.05-.58-.222-.703-.518a5.766 5.766 0 01-.222-.888c-.05-.296-.087-.716-.111-1.258a34.158 34.158 0 01-.037-1.48c0-.592.024-1.258.074-1.998.074-.765.148-1.505.222-2.22.074-.74.148-1.419.222-2.035.098-.642.172-1.16.222-1.554l.222-1.48c.024-.099.049-.185.074-.259.024-.099.061-.198.111-.296.123-.198.259-.333.407-.407.172-.099.296-.198.37-.296.123 0 .197.012.222.037a.477.477 0 00.185-.111c.049-.05.123-.074.222-.074.074 0 .185.012.333.037.148 0 .283.061.407.185.148.098.271.259.37.481.098.222.148.542.148.962 0 .049-.013.148-.037.296a3.003 3.003 0 01-.111.444c-.05.172-.087.357-.111.555l-.222 1.073zm18.867 12.58c-.198 0-.383-.013-.555-.037a1.2 1.2 0 01-.444-.074 2.488 2.488 0 00-.333-.111c-.074-.025-.136-.099-.185-.222a2.12 2.12 0 01-.111-.555 5.946 5.946 0 01-.037-.666c0-.543.012-.999.037-1.369.049-.395.098-.74.148-1.036.049-.296.086-.568.111-.814.049-.247.074-.518.074-.814v-3.996c.024-.444.049-.814.074-1.11l.074-.999-2.886.259a21.29 21.29 0 00-.962.111 6.088 6.088 0 01-.74.074.665.665 0 01-.592-.296 1.259 1.259 0 00-.148-.185.657.657 0 01-.185-.37 2.66 2.66 0 01-.037-.444 1.202 1.202 0 00-.074-.222v-.185c0-.173.049-.333.148-.481a.4.4 0 00.074-.222.448.448 0 01.111-.185c.296-.124.629-.21.999-.259.37-.074.727-.136 1.073-.185.296-.05.629-.099.999-.148.37-.05.727-.099 1.073-.148.37-.05.703-.087.999-.111.296-.025.53-.05.703-.074 1.529-.148 2.713-.259 3.552-.333a86.978 86.978 0 011.887-.148c.419-.05.678-.074.777-.074.098-.025.16-.037.185-.037.123 0 .234.012.333.037h.333c.098 0 .16.061.185.185a7.132 7.132 0 00.37.629c.074.049.111.111.111.185a.843.843 0 01-.037.259.95.95 0 00-.037.296v.296c.024.098.037.185.037.259 0 .172-.099.32-.296.444a.327.327 0 00-.185.222c-.025.074-.099.135-.222.185-.37.172-.987.259-1.85.259-.469 0-.938.012-1.406.037a19.8 19.8 0 00-1.332.111c-.025.148-.037.37-.037.666 0 .296-.013.727-.037 1.295l-.074 1.295c-.025.222-.05.518-.074.888a500.803 500.803 0 00-.148 2.479v2.072c.024.37.037.801.037 1.295 0 .246-.013.493-.037.74a2.162 2.162 0 01-.148.629 1.54 1.54 0 00-.111.185.253.253 0 01-.074.185c-.025.024-.136.061-.333.111-.05.024-.111.049-.185.074-.05.049-.099.074-.148.074a.98.98 0 00-.222.037.718.718 0 01-.222.037zm21.587-2.405c-.05.123-.124.246-.222.37a1.934 1.934 0 01-.37.407 5.617 5.617 0 01-.555.37.84.84 0 01-.555.185c-.173 0-.346-.037-.518-.111-.247-.074-.42-.247-.518-.518a2.386 2.386 0 01-.148-.888v-.37c.024-.124.049-.259.074-.407.049-.296.111-.642.185-1.036a31.855 31.855 0 01.481-2.257c.074-.272.111-.543.111-.814 0-.099-.025-.148-.074-.148-.099 0-.21.086-.333.259a7.554 7.554 0 01-.518.74c-.37.493-.765.962-1.184 1.406-.42.444-.95.949-1.591 1.517-.592.518-1.221.999-1.887 1.443a4.022 4.022 0 01-2.183.629c-.74 0-1.32-.284-1.739-.851a3.519 3.519 0 01-.592-1.998c0-.247.012-.531.037-.851.049-.321.086-.654.111-.999.049-.346.098-.666.148-.962.049-.321.074-.58.074-.777.049-.321.123-.74.222-1.258a7.22 7.22 0 00.148-1.295l.185-1.258c.049-.247.074-.469.074-.666.024-.222.061-.42.111-.592.024-.099.037-.185.037-.259v-.259c0-.198.049-.309.148-.333.148-.124.345-.222.592-.296a.853.853 0 01.481-.074c.148 0 .246-.025.296-.074.271 0 .53.172.777.518.246.345.394.653.444.925.024.074.037.185.037.333v.444c0 .419-.025.826-.074 1.221-.05.394-.111.814-.185 1.258l-.185.74c-.05.296-.111.592-.185.888-.05.296-.099.567-.148.814a4.823 4.823 0 00-.037.481c0 .148.024.283.074.407.074.098.209.148.407.148.222 0 .555-.161.999-.481a17.2 17.2 0 001.406-1.147c.518-.469 1.011-.95 1.48-1.443.493-.518.888-.975 1.184-1.369.468-.617.851-1.123 1.147-1.517.32-.395.604-.703.851-.925.246-.247.616-.37 1.11-.37.246 0 .456.098.629.296.197.197.357.394.481.592.197.32.296.678.296 1.073 0 .37.024.752.074 1.147a.664.664 0 01-.074.296.645.645 0 00-.074.296c-.025.271-.05.592-.074.962-.025.37-.05.777-.074 1.221a54.653 54.653 0 01-.37 3.182c-.099.764-.235 1.393-.407 1.887l-.037.148zm9.493-7.733c.271-.198.579-.432.925-.703.37-.272.69-.531.962-.777l3.7-3.219a2.57 2.57 0 01.407-.333c.148-.124.283-.247.407-.37.345-.321.604-.481.777-.481.222 0 .394.024.518.074.148.049.308.16.481.333.148.172.234.308.259.407a.658.658 0 01.037.518v.296c0 .246-.062.481-.185.703-.124.222-.247.37-.37.444l-.629.629c-.296.271-.58.505-.851.703-.124.098-.346.271-.666.518-.296.246-.617.518-.962.814-.346.296-.691.579-1.036.851-.321.271-.568.481-.74.629l-1.036.851a1.14 1.14 0 00-.185.148c-.05.024-.074.074-.074.148s.037.148.111.222l4.921 4.477c.222.172.431.382.629.629.222.246.37.468.444.666.049.123.074.197.074.222.024.049.049.123.074.222a.658.658 0 01.074.296c0 .049-.013.148-.037.296v.333a.864.864 0 01-.074.296.824.824 0 01-.148.259c-.05.074-.185.148-.407.222-.198.074-.358.135-.481.185a.51.51 0 01-.259-.111c-.05-.05-.148-.074-.296-.074-.173 0-.37-.062-.592-.185a2.84 2.84 0 01-.592-.407 5.12 5.12 0 01-.555-.481 9.216 9.216 0 00-.407-.333 17.354 17.354 0 00-.703-.592 14.38 14.38 0 01-.592-.555l-2.368-2.553a14.139 14.139 0 01-.74-.888 19.49 19.49 0 01-.481-.777l-.074-.148a.39.39 0 01-.074-.148.42.42 0 00-.037-.185.327.327 0 01-.037-.148c0-.074-.025-.111-.074-.111-.025 0-.05.024-.074.074 0 .049-.025.172-.074.37a15.31 15.31 0 00-.333 1.591c-.074.468-.136.875-.185 1.221l-.555 2.849a33.63 33.63 0 01-.111.518c-.05.246-.099.481-.148.703a16.4 16.4 0 01-.148.666c-.05.197-.087.308-.111.333-.148.148-.358.222-.629.222-.198 0-.395-.037-.592-.111-.173-.074-.284-.136-.333-.185a.968.968 0 01-.222-.222 1.51 1.51 0 00-.185-.222.886.886 0 01-.111-.222 2.58 2.58 0 01-.148-.629 6.664 6.664 0 01-.037-.74v-.481c.024-.173.049-.358.074-.555.024-.272.061-.666.111-1.184l.185-1.295c.049-.346.135-.814.259-1.406.123-.617.259-1.246.407-1.887.148-.666.283-1.295.407-1.887l.333-1.332.296-.999c.123-.444.234-.876.333-1.295.123-.444.234-.851.333-1.221.098-.37.16-.617.185-.74 0-.05.012-.111.037-.185.024-.099.049-.173.074-.222a.386.386 0 01.074-.111l.074-.148a.386.386 0 01.074-.111.96.96 0 00.111-.222c.049-.074.123-.111.222-.111.197 0 .394.024.592.074.222.049.382.111.481.185.246.172.456.419.629.74.074.123.16.32.259.592.098.246.148.456.148.629 0 .271-.037.592-.111.962-.074.37-.173.752-.296 1.147-.099.37-.21.74-.333 1.11-.099.37-.198.703-.296.999l.296-.074zm23.713 7.733a1.47 1.47 0 01-.222.37 1.934 1.934 0 01-.37.407 5.391 5.391 0 01-.555.37.84.84 0 01-.555.185c-.173 0-.345-.037-.518-.111-.247-.074-.419-.247-.518-.518a2.386 2.386 0 01-.148-.888v-.37c.025-.124.049-.259.074-.407.049-.296.111-.642.185-1.036a31.855 31.855 0 01.481-2.257c.074-.272.111-.543.111-.814 0-.099-.025-.148-.074-.148-.099 0-.21.086-.333.259a7.38 7.38 0 01-.518.74c-.37.493-.765.962-1.184 1.406-.419.444-.95.949-1.591 1.517-.592.518-1.221.999-1.887 1.443a4.022 4.022 0 01-2.183.629c-.74 0-1.32-.284-1.739-.851a3.519 3.519 0 01-.592-1.998c0-.247.012-.531.037-.851.049-.321.086-.654.111-.999.049-.346.099-.666.148-.962.049-.321.074-.58.074-.777.049-.321.123-.74.222-1.258a7.13 7.13 0 00.148-1.295l.185-1.258c.049-.247.074-.469.074-.666.025-.222.062-.42.111-.592.025-.099.037-.185.037-.259v-.259c0-.198.049-.309.148-.333.148-.124.345-.222.592-.296a.854.854 0 01.481-.074c.148 0 .247-.025.296-.074.271 0 .53.172.777.518.247.345.395.653.444.925.025.074.037.185.037.333v.444c0 .419-.025.826-.074 1.221a30.84 30.84 0 01-.185 1.258l-.185.74a11.21 11.21 0 01-.185.888c-.049.296-.099.567-.148.814a4.823 4.823 0 00-.037.481c0 .148.025.283.074.407.074.098.21.148.407.148.222 0 .555-.161.999-.481.444-.321.913-.703 1.406-1.147.518-.469 1.011-.95 1.48-1.443.493-.518.888-.975 1.184-1.369.469-.617.851-1.123 1.147-1.517a8.32 8.32 0 01.851-.925c.247-.247.617-.37 1.11-.37.247 0 .456.098.629.296.197.197.358.394.481.592.197.32.296.678.296 1.073 0 .37.025.752.074 1.147a.664.664 0 01-.074.296.658.658 0 00-.074.296c-.025.271-.049.592-.074.962-.025.37-.049.777-.074 1.221a53.786 53.786 0 01-.37 3.182c-.099.764-.234 1.393-.407 1.887l-.037.148z" fill="#fff"/><defs><radialGradient id="paint0_radial" cx="0" cy="0" r="1" gradientUnits="userSpaceOnUse" gradientTransform="matrix(114.31201 17.18808 -19.0873 126.94303 114.139 139.828)"><stop stop-color="#407B9A"/><stop offset=".645" stop-color="#3682A1"/><stop offset=".941" stop-color="#C6DDEE"/><stop offset="1" stop-color="#fff"/></radialGradient><linearGradient id="paint1_linear" x1="116.336" y1="29.993" x2="112.514" y2="77.374" gradientUnits="userSpaceOnUse"><stop stop-color="#fff"/><stop offset=".475" stop-color="#D4EFFD" stop-opacity=".5"/><stop offset="1" stop-color="#3699D6" stop-opacity="0"/></linearGradient></defs></svg>