<svg width="258" height="197" fill="none" xmlns="http://www.w3.org/2000/svg"><path opacity=".22" d="M6.768 97.618c-5.338 25.392 10.829 59.506 36.51 77.902 25.68 18.482 64.279 18.137 98.778 13.041 21.117-3.195 41.848-5.009 58.556-14.855 30.631-18.136 41.305-24.527 49.969-53.114 3.867-12.61.696-24.096-1.083-34.374-1.315-7.514-7.348-27.982-13.923-35.064-26.3-27.724-66.446-53.288-114.404-43.529C60.914 19.975 17.829 45.54 6.768 97.618z" fill="url(#paint0_radial)" stroke="#fff" stroke-width="9.763" stroke-miterlimit="10"/><path opacity=".39" d="M125.426 29.044c2.862-1.21 20.653-4.578 28.466-3.541 5.801.777 29.471 3.282 41.306 12.437 9.05 7.082 13.613 9.586 15.547 22.282.155 1.295-1.392 8.205-5.724 6.736-7.426-3.022-23.901-11.313-47.416-14.25-5.802-.69-21.814-.518-27.692.346-2.785.345-13.228 1.122-15.316-.173-10.443-6.823 5.569-21.592 10.829-23.837z" fill="url(#paint1_linear)"/><path opacity=".5" d="M77.388 62.92c-.04.82-.08 1.57-.12 2.25a52.108 52.108 0 01-.24 3.75c-.06.58-.12 1.2-.18 1.86-.04.22-.14.37-.3.45-.16.1-.34.16-.54.18-.1.02-.21.04-.33.06-.1.04-.22.06-.36.06-.32 0-.54-.05-.66-.15-.14-.12-.23-.3-.27-.54-.02-.24-.03-.49-.03-.75 0-.46.02-.92.06-1.38l.12-1.41c.04-.38.05-.73.03-1.05 0-.32.02-.64.06-.96.02-.3.04-.69.06-1.17.04-.5.07-1.04.09-1.62.04-.6.07-1.22.09-1.86l.06-1.83c.04-.6.06-1.14.06-1.62.02-.48.03-.87.03-1.17v-.24c.02-.1.03-.18.03-.24 0-.24.01-.5.03-.78.02-.28.07-.54.15-.78.08-.26.19-.48.33-.66.14-.18.35-.27.63-.27.2.04.37.06.51.06.16-.02.31.01.45.09.12.08.22.18.3.3.04.04.06.1.06.18.02.08.04.14.06.18.08.18.12.44.12.78 0 .38-.01.74-.03 1.08 0 .32-.01.63-.03.93 0 .1-.02.21-.06.33-.02.12-.03.23-.03.33v.42c.02.16.03.29.03.39-.04.44-.07.81-.09 1.11-.02.28-.03.63-.03 1.05.26.02.5.04.72.06h.66c.8 0 1.58-.19 2.34-.57.78-.38 1.42-.96 1.92-1.74.04-.04.09-.1.15-.18.08-.1.14-.18.18-.24.04-.08.06-.15.06-.21.02-.08.05-.16.09-.24.04-.1.08-.19.12-.27.04-.08.08-.17.12-.27.1-.32.17-.66.21-1.02.04-.36.06-.74.06-1.14 0-.16-.01-.29-.03-.39v-.36c0-.4.11-.74.33-1.02.24-.28.52-.42.84-.42.52 0 .91.05 1.17.15.26.08.39.28.39.6 0 .06-.01.15-.03.27v.27c0 1.86-.34 3.51-1.02 4.95-.66 1.42-1.61 2.51-2.85 3.27.26.2.49.41.69.63.08.1.13.19.15.27.04.06.1.14.18.24.06.08.12.14.18.18.08.04.16.1.24.18.1.1.17.2.21.3l.12.24c.64.98 1.14 2.03 1.5 3.15.38 1.12.57 2.09.57 2.91 0 .52-.06.88-.18 1.08-.1.12-.23.2-.39.24-.14.04-.29.06-.45.06-.38 0-.69-.08-.93-.24-.1-.06-.21-.12-.33-.18-.1-.04-.2-.17-.3-.39-.04-.12-.07-.23-.09-.33 0-.1-.02-.23-.06-.39a.676.676 0 00-.12-.24c-.04-.1-.07-.19-.09-.27l-.09-.63c-.04-.1-.08-.19-.12-.27-.02-.08-.05-.19-.09-.33-.16-.58-.34-1.12-.54-1.62a7.2 7.2 0 00-.78-1.44c-.08-.1-.15-.21-.21-.33-.06-.14-.14-.26-.24-.36a.951.951 0 00-.36-.27 2.7 2.7 0 01-.39-.27c-.3-.22-.66-.39-1.08-.51-.42-.14-.85-.22-1.29-.24h-.48c-.14-.02-.26-.03-.36-.03h-.36zm5.953 18.24c1.76 0 3.25-.2 4.47-.6 1.22-.38 2.18-.91 2.88-1.59.6-.58 1.1-1.27 1.5-2.07.42-.8.77-1.72 1.05-2.76.22-.76.34-1.55.36-2.37.02-.82.07-1.63.15-2.43-.04.1-.13.22-.27.36-.14.12-.32.23-.54.33-.22.12-.47.22-.75.3-.26.1-.53.15-.81.15-.2 0-.39-.01-.57-.03a2.01 2.01 0 01-.6-.18c-.38-.16-.73-.41-1.05-.75-.32-.36-.57-.79-.75-1.29-.12-.34-.19-.71-.21-1.11-.02-.42-.03-.82-.03-1.2 0-.78.05-1.45.15-2.01.1-.56.21-1.03.33-1.41.1-.32.23-.61.39-.87.16-.28.47-.42.93-.42h.12c.26 0 .43.08.51.24.1.14.15.33.15.57v.18c0 .06-.01.16-.03.3-.06.52-.12 1.03-.18 1.53s-.09.96-.09 1.38c0 .6.08 1.12.24 1.56.18.42.52.63 1.02.63.16 0 .33-.02.51-.06.18-.06.38-.14.6-.24.28-.12.55-.38.81-.78s.47-.83.63-1.29c.16-.46.34-.85.54-1.17.22-.32.48-.48.78-.48.1 0 .22.03.36.09.16.04.29.14.39.3.06.08.1.19.12.33.02.14.03.29.03.45 0 .14-.01.27-.03.39v.21l-.06.87c-.02.26-.05.55-.09.87-.02.3-.04.65-.06 1.05-.02.4-.03.89-.03 1.47 0 2.22-.21 4.19-.63 5.91-.4 1.72-1.09 3.17-2.07 4.35-.98 1.18-2.28 2.07-3.9 2.67-1.6.62-3.61.93-6.03.93h-.33a.88.88 0 01-.33-.06 5.7 5.7 0 00-.69-.24c-.24-.04-.41-.2-.51-.48-.08-.16-.13-.29-.15-.39a.986.986 0 01-.03-.24c0-.4.14-.65.42-.75.26-.1.61-.15 1.05-.15h.33zm16.838-9.75c-.52 0-.9-.13-1.14-.39-.24-.26-.38-.56-.42-.9a.624.624 0 01-.03-.24c0-.12-.02-.2-.06-.24l.12-.12c.06-.06.11-.09.15-.09l-.09-.15c.06 0 .09-.01.09-.03.02-.02.05-.03.09-.03.02 0 .04.01.06.03h.06c.1 0 .15-.04.15-.12 0-.02-.01-.04-.03-.06h-.03c.16-.08.31-.12.45-.12s.26.02.36.06c.12.04.27.06.45.06.68 0 1.15-.45 1.41-1.35.28-.92.42-2.13.42-3.63 0-.08-.01-.24-.03-.48v-.87c0-.32-.01-.63-.03-.93v-.72c0-.38.09-.76.27-1.14.2-.38.49-.59.87-.63.24-.02.6-.04 1.08-.06.5-.04 1.02-.07 1.56-.09.56-.04 1.11-.06 1.65-.06.56-.02 1.03-.03 1.41-.03.56 0 .93.15 1.11.45.18.3.27.64.27 1.02 0 .88-.08 1.98-.24 3.3-.16 1.3-.24 2.73-.24 4.29 0 .5.05.92.15 1.26.1.32.15.69.15 1.11 0 .08-.02.18-.06.3-.08.22-.22.33-.42.33 0 .06-.06.09-.18.09-.1.02-.19.03-.27.03-.08 0-.16-.02-.24-.06-.08-.02-.17-.03-.27-.03-.08 0-.14.01-.18.03-.08-.04-.16-.07-.24-.09-.06 0-.12-.03-.18-.09a.204.204 0 01-.06-.15c0-.04-.02-.08-.06-.12l-.12-.12a.698.698 0 01-.12-.18c-.1-.22-.17-.46-.21-.72-.02-.26-.03-.51-.03-.75v-.48c.02-.2.05-.37.09-.51-.02-.08-.03-.25-.03-.51 0-.34.01-.67.03-.99.02-.34.04-.73.06-1.17.04-.44.08-.96.12-1.56.06-.62.11-1.4.15-2.34l-2.79.12c-.02.02-.05.03-.09.03-.04.02-.09.03-.15.03s-.14-.02-.24-.06c-.1-.04-.2-.06-.3-.06 0 .08.02.14.06.18.06.04.09.07.09.09 0 .16.01.31.03.45v.42c.02.14.03.27.03.39 0 .6-.01 1.22-.03 1.86-.02.62-.08 1.23-.18 1.83a.38.38 0 01-.09.18c-.04.04-.06.11-.06.21 0 .1.02.19.06.27-.06.02-.11.11-.15.27-.02.06-.03.13-.03.21 0 .08-.02.14-.06.18 0 .16-.01.28-.03.36-.28.9-.72 1.63-1.32 2.19-.6.56-1.44.84-2.52.84zm17.404-2.94c.62 0 1.21-.13 1.77-.39s1.05-.58 1.47-.96c.44-.4.79-.82 1.05-1.26.26-.44.39-.85.39-1.23 0-.28-.04-.52-.12-.72-.06-.22-.23-.33-.51-.33-.34 0-.74.15-1.2.45-.44.3-.89.66-1.35 1.08-.44.4-.86.82-1.26 1.26-.38.44-.67.8-.87 1.08l-.06.9c.06.04.16.07.3.09.16.02.29.03.39.03zm-1.74 2.85c-.88 0-1.34-.77-1.38-2.31 0-.14-.06-.26-.18-.36-.12-.1-.18-.16-.18-.18 0-.08.01-.15.03-.21.02-.06.03-.17.03-.33-.04-.04-.06-.08-.06-.12 0-.08.02-.14.06-.18.02-.04.06-.1.12-.18.06-.1.14-.2.24-.3.06-.84.14-1.73.24-2.67.12-.96.25-1.89.39-2.79 0-.16-.01-.31-.03-.45v-.42c0-.1.01-.19.03-.27.04-.1.08-.17.12-.21 0-.02-.01-.04-.03-.06v-.18c.02-.02.03-.04.03-.06 0-.04.01-.13.03-.27.04-.14.1-.28.18-.42.1-.16.23-.29.39-.39.16-.12.37-.18.63-.18.52 0 .87.11 1.05.33.18.22.27.54.27.96 0 .06-.01.13-.03.21v.21c-.2 1.12-.34 1.93-.42 2.43-.08.48-.13.86-.15 1.14.24-.26.53-.57.87-.93.36-.36.75-.69 1.17-.99.44-.32.89-.59 1.35-.81.48-.22.95-.33 1.41-.33.48 0 .89.1 1.23.3.34.18.62.43.84.75.22.3.38.65.48 1.05.1.4.15.82.15 1.26v.3c0 .08-.01.17-.03.27-.04.08-.07.2-.09.36 0 .14-.02.26-.06.36l-.33.87-.18.42c-.04.12-.11.21-.21.27-.04.02-.09.09-.15.21s-.11.2-.15.24c-.08.04-.15.1-.21.18a.94.94 0 01-.18.24.65.65 0 00-.18.21.65.65 0 01-.18.21c-.08.04-.17.1-.27.18-.08.08-.15.14-.21.18-.32.36-.74.69-1.26.99-.52.3-1.08.56-1.68.78-.6.22-1.21.39-1.83.51-.62.12-1.18.18-1.68.18zm29.503-1.47c-.1.78-.53 1.17-1.29 1.17h-.18c-.06.02-.12.03-.18.03s-.12-.04-.18-.12c-.08 0-.17-.02-.27-.06a.483.483 0 00-.21-.06.47.47 0 01-.09-.12.47.47 0 00-.09-.12c-.16-.1-.29-.27-.39-.51-.06-.08-.11-.16-.15-.24-.04-.1-.08-.19-.12-.27-.1-.22-.17-.41-.21-.57-.04-.18-.08-.37-.12-.57-.02-.2-.03-.42-.03-.66v-1.17a.193.193 0 00-.15-.15.46.46 0 00-.18-.06c-.04 0-.17.09-.39.27-.2.16-.47.39-.81.69-.32.28-.68.6-1.08.96s-.8.73-1.2 1.11l-.57.57c-.2.2-.51.3-.93.3-.1 0-.27-.03-.51-.09-.22-.06-.37-.12-.45-.18l-.12-.09c-.12-.24-.23-.49-.33-.75-.1-.28-.17-.71-.21-1.29-.02-.18-.04-.37-.06-.57v-.96c0-.14-.02-.26-.06-.36-.04-.1-.08-.15-.12-.15-.14 0-.24.01-.3.03-.1.04-.19.09-.27.15-.08.06-.2.17-.36.33-.24.22-.51.48-.81.78-.3.28-.64.61-1.02.99-.42.42-.81.82-1.17 1.2-.34.36-.58.65-.72.87-.04.08-.08.17-.12.27l-.09.27c-.04.08-.07.15-.09.21-.02.06-.05.11-.09.15-.1.1-.21.16-.33.18-.12.04-.26.06-.42.06-.34 0-.68-.18-1.02-.54-.32-.36-.48-.83-.48-1.41 0-.28.03-.63.09-1.05.06-.44.13-.88.21-1.32.08-.46.16-.91.24-1.35.1-.44.18-.81.24-1.11.06-.28.12-.61.18-.99.08-.38.15-.75.21-1.11.08-.36.14-.69.18-.99.06-.3.09-.51.09-.63 0-.16-.03-.38-.09-.66.04-.14.09-.24.15-.3.12-.14.22-.24.3-.3.1-.08.22-.12.36-.12a1.446 1.446 0 011.26.72c.18.3.31.62.39.96l.03.15c-.04.12-.06.2-.06.24v.12c0 .02.01.04.03.06 0 .44-.04.85-.12 1.23-.08.38-.19.83-.33 1.35-.04.2-.09.42-.15.66-.04.22-.06.38-.06.48 0 .1.05.15.15.15.1 0 .19-.04.27-.12l.21-.21c.52-.64 1.05-1.24 1.59-1.8.54-.58 1.08-1.12 1.62-1.62.2-.18.36-.3.48-.36a.74.74 0 01.42-.12c.48 0 .89.14 1.23.42.34.26.55.49.63.69.1.28.17.51.21.69.04.18.06.36.06.54 0 .28-.01.6-.03.96v.87c0 .2.03.34.09.42.08.06.17.09.27.09.02 0 .09-.04.21-.12.12-.1.25-.21.39-.33.16-.12.32-.25.48-.39.18-.14.33-.27.45-.39.54-.46 1.04-.89 1.5-1.29.48-.4.83-.69 1.05-.87.18-.16.33-.26.45-.3.12-.06.28-.09.48-.09.18 0 .36.08.54.24.2.16.38.35.54.57.16.22.29.45.39.69.1.24.15.45.15.63 0 .32-.02.68-.06 1.08-.04.4-.06.78-.06 1.14 0 .14.01.35.03.63.04.26.08.42.12.48.02.22.09.43.21.63.12.18.26.38.42.6l.21.24.12.09c-.02 0-.03.01-.03.03v.15c.02 0 .03.02.03.06v.36zm-2.093 11.31c1.76 0 3.25-.2 4.47-.6 1.22-.38 2.18-.91 2.88-1.59.6-.58 1.1-1.27 1.5-2.07.42-.8.77-1.72 1.05-2.76.22-.76.34-1.55.36-2.37.02-.82.07-1.63.15-2.43-.04.1-.13.22-.27.36-.14.12-.32.23-.54.33-.22.12-.47.22-.75.3-.26.1-.53.15-.81.15-.2 0-.39-.01-.57-.03a2.01 2.01 0 01-.6-.18c-.38-.16-.73-.41-1.05-.75-.32-.36-.57-.79-.75-1.29-.12-.34-.19-.71-.21-1.11-.02-.42-.03-.82-.03-1.2 0-.78.05-1.45.15-2.01.1-.56.21-1.03.33-1.41.1-.32.23-.61.39-.87.16-.28.47-.42.93-.42h.12c.26 0 .43.08.51.24.1.14.15.33.15.57v.18c0 .06-.01.16-.03.3-.06.52-.12 1.03-.18 1.53s-.09.96-.09 1.38c0 .6.08 1.12.24 1.56.18.42.52.63 1.02.63.16 0 .33-.02.51-.06.18-.06.38-.14.6-.24.28-.12.55-.38.81-.78s.47-.83.63-1.29c.16-.46.34-.85.54-1.17.22-.32.48-.48.78-.48.1 0 .22.03.36.09.16.04.29.14.39.3.06.08.1.19.12.33.02.14.03.29.03.45 0 .14-.01.27-.03.39v.21l-.06.87c-.02.26-.05.55-.09.87-.02.3-.04.65-.06 1.05-.02.4-.03.89-.03 1.47 0 2.22-.21 4.19-.63 5.91-.4 1.72-1.09 3.17-2.07 4.35-.98 1.18-2.28 2.07-3.9 2.67-1.6.62-3.61.93-6.03.93h-.33a.88.88 0 01-.33-.06 5.7 5.7 0 00-.69-.24c-.24-.04-.41-.2-.51-.48-.08-.16-.13-.29-.15-.39a.986.986 0 01-.03-.24c0-.4.14-.65.42-.75.26-.1.61-.15 1.05-.15h.33zm17.218-1.86a.39.39 0 01-.36-.21c-.06-.14-.1-.3-.12-.48-.02-.16-.03-.32-.03-.48 0-.76-.03-1.51-.09-2.25-.04-.74-.09-1.46-.15-2.16-.04-.68-.09-1.32-.15-1.92-.04-.6-.06-1.14-.06-1.62 0-.36.02-.63.06-.81.06-.2.13-.35.21-.45.08-.12.17-.21.27-.27.1-.06.21-.14.33-.24.1-.82.19-1.51.27-2.07.08-.56.15-.99.21-1.29.54-2.62 1.27-4.56 2.19-5.82.94-1.26 2.06-1.89 3.36-1.89.62 0 1.16.15 1.62.45.48.3.88.7 1.2 1.2.04.08.09.19.15.33.06.12.09.21.09.27.06.08.12.19.18.33.08.14.14.32.18.54.04.18.07.37.09.57.02.2.03.4.03.6 0 .9-.24 1.73-.72 2.49a7.88 7.88 0 01-1.77 1.98c-.72.58-1.52 1.08-2.4 1.5-.86.4-1.68.71-2.46.93-.02 1.3-.03 2.52-.03 3.66 0 1.14-.03 2.17-.09 3.09-.04.94-.13 1.74-.27 2.4-.12.66-.3 1.15-.54 1.47a.82.82 0 01-.45.3c-.04.02-.09.04-.15.06-.06.02-.11.03-.15.03-.1 0-.19-.03-.27-.09-.06-.06-.12-.11-.18-.15zm6.66-19.26c-.22-.22-.5-.33-.84-.33-.34 0-.67.16-.99.48-.32.32-.63.77-.93 1.35-.28.56-.54 1.23-.78 2.01-.24.78-.44 1.63-.6 2.55 0 .02-.01.04-.03.06v.03c1.48-.5 2.62-1.17 3.42-2.01.8-.84 1.2-1.81 1.2-2.91 0-.12-.02-.24-.06-.36l-.12-.36a.757.757 0 01-.09-.18c0-.08-.02-.14-.06-.18l-.12-.15zm13.133 8.91c-.02.1-.03.19-.03.27v.21c0 .1-.01.19-.03.27v.21c0 .04-.01.08-.03.12v.15c0 .08.01.14.03.18.04.06.06.13.06.21 0 .08-.03.18-.09.3s-.1.22-.12.3c-.02.08-.06.18-.12.3-.06.08-.12.12-.18.12-.04.02-.11.08-.21.18-.06.08-.16.12-.3.12-.08 0-.16-.02-.24-.06a.38.38 0 00-.18-.09.445.445 0 01-.21-.12 1.09 1.09 0 01-.24-.27c-.04-.08-.12-.2-.24-.36a1.99 1.99 0 01-.21-.42c-.12-.3-.18-.62-.18-.96v-.36c0-.14.01-.26.03-.36 0-.12.01-.25.03-.39-.16.2-.35.43-.57.69-.22.24-.47.47-.75.69-.28.22-.6.4-.96.54-.34.16-.72.24-1.14.24-.36 0-.69-.09-.99-.27-.3-.16-.56-.38-.78-.66-.2-.28-.36-.61-.48-.99s-.18-.77-.18-1.17c0-.62.08-1.21.24-1.77.18-.56.42-1.1.72-1.62l.33-.48c.02-.04.1-.13.24-.27l.45-.51c.16-.18.33-.35.51-.51.18-.16.33-.29.45-.39l.48-.36c.3-.18.64-.37 1.02-.57.3-.14.53-.22.69-.24.18-.04.36-.06.54-.06.42 0 .83.08 1.23.24.42.16.78.36 1.08.6.04.38.06.79.06 1.23l.06 1.26.12 2.1c.06.7.09 1.43.09 2.19v.54zm-2.91-5.55c-.5.1-.97.32-1.41.66-.42.34-.76.71-1.02 1.11-.2.3-.36.62-.48.96-.1.32-.15.68-.15 1.08 0 .22.05.4.15.54.1.12.24.18.42.18.26 0 .52-.07.78-.21.28-.16.53-.34.75-.54.22-.22.41-.44.57-.66.18-.24.3-.44.36-.6l.24-.54c.08-.18.15-.47.21-.87.02-.1.03-.25.03-.45.02-.2.03-.38.03-.54-.12-.08-.28-.12-.48-.12zm3.115 13.29a.418.418 0 01-.03-.18v-.12c0-.28.14-.54.42-.78.26-.24.5-.5.72-.78l.3-.42c.1-.14.2-.29.3-.45l.81-1.2c.16-.24.32-.5.48-.78.18-.28.32-.56.42-.84.04-.06.08-.13.12-.21.06-.06.1-.11.12-.15.14-.46.37-.88.69-1.26.18-.2.38-.3.6-.3.12 0 .25.01.39.03.14 0 .26.03.36.09.12.08.2.15.24.21l.21.21c.1.1.19.22.27.36.08.16.12.31.12.45 0 .06-.02.13-.06.21-.06.18-.12.32-.18.42-.04.12-.11.26-.21.42-.1.16-.18.32-.24.48-.06.16-.14.32-.24.48-.06.1-.13.2-.21.3-.08.12-.16.23-.24.33-.1.1-.18.21-.24.33-.04.12-.11.23-.21.33-.12.14-.24.27-.36.39-.12.14-.23.28-.33.42-.4.48-.83.93-1.29 1.35-.44.44-.95.8-1.53 1.08-.16.08-.3.13-.42.15-.12.02-.28.03-.48.03-.1 0-.14-.04-.12-.12 0-.06-.03-.16-.09-.3l-.09-.18zm-104.87 39.42h-.12c-.04 0-.08.01-.12.03a.204.204 0 00-.15-.06h-.12l-.33-.06c-.14 0-.24-.02-.3-.06l-.18-.09c-.04 0-.08.01-.12.03 0-.04-.03-.09-.09-.15-.04-.04-.09-.1-.15-.18-.1-.2-.15-.42-.15-.66 0-.24.02-.44.06-.6l.18-.48c.12-.98.18-2.06.18-3.24 0-1.2.04-2.57.12-4.11l.06-.93c.02-.3.14-.54.36-.72.08-.06.15-.12.21-.18.08-.06.15-.11.21-.15.1-.04.23-.08.39-.12.76-.02 1.47-.05 2.13-.09l1.65-.06a25.461 25.461 0 012.52 0c.4 0 .66.01.78.03.08 0 .13.02.15.06.04.02.08.05.12.09.1.1.16.21.18.33l.06.12c.02.02.03.06.03.12v.21c0 .1-.02.34-.06.72-.02.38-.06.95-.12 1.71-.04.74-.11 1.75-.21 3.03-.02.08-.03.16-.03.24-.02.06-.03.13-.03.21 0 .08-.02.15-.06.21.02.06.03.14.03.24-.02.46-.05.88-.09 1.26-.02.36-.04.77-.06 1.23 0 .08.01.16.03.24v.3c.02.1.03.22.03.36 0 .32-.04.57-.12.75-.06.2-.2.32-.42.36-.06.04-.13.07-.21.09-.16.04-.34.06-.54.06-.42 0-.7-.04-.84-.12-.14-.08-.21-.23-.21-.45-.04-.06-.09-.15-.15-.27-.04-.12-.06-.24-.06-.36 0-.4.02-.75.06-1.05.06-.32.11-.67.15-1.05.04-.56.07-1.06.09-1.5l.06-1.35c.02-.46.04-.97.06-1.53.04-.56.09-1.24.15-2.04l-.45-.03h-.15a.196.196 0 01-.09-.09c-.06.08-.12.12-.18.12s-.1-.02-.12-.06c-.02-.04-.08-.06-.18-.06 0 .06-.12.11-.36.15-.04 0-.12.01-.24.03h-.24l-.72.06c-.18.02-.37.03-.57.03-.18-.02-.35-.01-.51.03-.04.42-.07.83-.09 1.23-.02.4-.05.87-.09 1.41l-.15 1.77c-.04.46-.06 1.01-.06 1.65 0 .32.03.63.09.93.06.28.09.57.09.87 0 .26-.02.5-.06.72-.04.22-.08.35-.12.39-.02.04-.06.09-.12.15s-.11.09-.15.09c-.12.08-.18.15-.18.21l-.36.03zm12.04 8.19a.39.39 0 01-.36-.21c-.06-.14-.1-.3-.12-.48-.02-.16-.03-.32-.03-.48 0-.76-.03-1.51-.09-2.25-.04-.74-.09-1.46-.15-2.16-.04-.68-.09-1.32-.15-1.92-.04-.6-.06-1.14-.06-1.62 0-.36.02-.63.06-.81.06-.2.13-.35.21-.45.08-.12.17-.21.27-.27.1-.06.21-.14.33-.24.1-.82.19-1.51.27-2.07.08-.56.15-.99.21-1.29.54-2.62 1.27-4.56 2.19-5.82.94-1.26 2.06-1.89 3.36-1.89.62 0 1.16.15 1.62.45.48.3.88.7 1.2 1.2.04.08.09.19.15.33.06.12.09.21.09.27.06.08.12.19.18.33.08.14.14.32.18.54.04.18.07.37.09.57.02.2.03.4.03.6 0 .9-.24 1.73-.72 2.49a7.88 7.88 0 01-1.77 1.98c-.72.58-1.52 1.08-2.4 1.5-.86.4-1.68.71-2.46.93-.02 1.3-.03 2.52-.03 3.66 0 1.14-.03 2.17-.09 3.09-.04.94-.13 1.74-.27 2.4-.12.66-.3 1.15-.54 1.47a.82.82 0 01-.45.3c-.04.02-.09.04-.15.06-.06.02-.11.03-.15.03-.1 0-.19-.03-.27-.09-.06-.06-.12-.11-.18-.15zm6.66-19.26c-.22-.22-.5-.33-.84-.33-.34 0-.67.16-.99.48-.32.32-.63.77-.93 1.35-.28.56-.54 1.23-.78 2.01-.24.78-.44 1.63-.6 2.55 0 .02-.01.04-.03.06v.03c1.48-.5 2.62-1.17 3.42-2.01.8-.84 1.2-1.81 1.2-2.91 0-.12-.02-.24-.06-.36l-.12-.36a.757.757 0 01-.09-.18c0-.08-.02-.14-.06-.18l-.12-.15zm13.133 8.91c-.02.1-.03.19-.03.27v.21c0 .1-.01.19-.03.27v.21c0 .04-.01.08-.03.12v.15c0 .08.01.14.03.18.04.06.06.13.06.21 0 .08-.03.18-.09.3s-.1.22-.12.3c-.02.08-.06.18-.12.3-.06.08-.12.12-.18.12-.04.02-.11.08-.21.18-.06.08-.16.12-.3.12-.08 0-.16-.02-.24-.06a.38.38 0 00-.18-.09.445.445 0 01-.21-.12 1.09 1.09 0 01-.24-.27c-.04-.08-.12-.2-.24-.36a1.99 1.99 0 01-.21-.42c-.12-.3-.18-.62-.18-.96v-.36c0-.14.01-.26.03-.36 0-.12.01-.25.03-.39-.16.2-.35.43-.57.69-.22.24-.47.47-.75.69-.28.22-.6.4-.96.54-.34.16-.72.24-1.14.24-.36 0-.69-.09-.99-.27-.3-.16-.56-.38-.78-.66-.2-.28-.36-.61-.48-.99s-.18-.77-.18-1.17c0-.62.08-1.21.24-1.77.18-.56.42-1.1.72-1.62l.33-.48c.02-.04.1-.13.24-.27l.45-.51c.16-.18.33-.35.51-.51.18-.16.33-.29.45-.39l.48-.36c.3-.18.64-.37 1.02-.57.3-.14.53-.22.69-.24.18-.04.36-.06.54-.06.42 0 .83.08 1.23.24.42.16.78.36 1.08.6.04.38.06.79.06 1.23l.06 1.26.12 2.1c.06.7.09 1.43.09 2.19v.54zm-2.91-5.55c-.5.1-.97.32-1.41.66-.42.34-.76.71-1.02 1.11-.2.3-.36.62-.48.96-.1.32-.15.68-.15 1.08 0 .22.05.4.15.54.1.12.24.18.42.18.26 0 .52-.07.78-.21.28-.16.53-.34.75-.54.22-.22.41-.44.57-.66.18-.24.3-.44.36-.6l.24-.54c.08-.18.15-.47.21-.87.02-.1.03-.25.03-.45.02-.2.03-.38.03-.54-.12-.08-.28-.12-.48-.12zm9.955 7.53c-.22 0-.47-.01-.75-.03-.26-.02-.54-.05-.84-.09-.1-.02-.21-.05-.33-.09-.1-.04-.19-.08-.27-.12a.737.737 0 00-.27-.06c-.06.02-.12 0-.18-.06-.2-.14-.39-.28-.57-.42-.16-.12-.26-.3-.3-.54-.02-.1-.04-.18-.06-.24a.78.78 0 01-.03-.24c0-.08.02-.15.06-.21.04-.08.06-.16.06-.24 0-.1.03-.18.09-.24.06-.08.12-.12.18-.12.12-.04.25-.06.39-.06.18 0 .36.02.54.06.18.02.33.05.45.09.28.06.53.14.75.24.22.1.56.15 1.02.15.32 0 .65-.01.99-.03.36-.04.67-.1.93-.18.28-.1.51-.24.69-.42.18-.2.27-.47.27-.81 0-.48-.13-.83-.39-1.05-.26-.24-.73-.36-1.41-.36-.24 0-.52.02-.84.06-.32.04-.62.06-.9.06a.86.86 0 01-.39-.09c-.16-.04-.27-.1-.33-.18a.757.757 0 01-.18-.51c0-.12.01-.21.03-.27.04-.06.06-.14.06-.24 0-.1.01-.16.03-.18.02-.04.04-.06.06-.06.04 0 .08-.02.12-.06.04-.04.09-.08.15-.12.08-.04.15-.07.21-.09.1-.02.27-.03.51-.03.34-.02.69-.06 1.05-.12.38-.08.72-.19 1.02-.33.3-.14.55-.32.75-.54.2-.22.3-.5.3-.84 0-.34-.11-.62-.33-.84-.2-.24-.51-.36-.93-.36-.42 0-.81.03-1.17.09-.34.06-.68.21-1.02.45l-.15.15c-.1.1-.24.17-.42.21-.3.08-.58.12-.84.12v-.06c.02 0 .03-.01.03-.03 0-.04-.03-.06-.09-.06-.02 0-.09.02-.21.06-.06 0-.13.03-.21.09l.03-.21c-.04 0-.11-.01-.21-.03a.483.483 0 00-.21-.06c.04-.06.06-.14.06-.24.02-.12.03-.21.03-.27 0-.54.2-.96.6-1.26.4-.32.87-.56 1.41-.72a7.69 7.69 0 011.62-.3c.54-.06.94-.09 1.2-.09 1.16 0 2.02.24 2.58.72.56.46.84 1.21.84 2.25 0 .5-.12.98-.36 1.44-.22.44-.63.83-1.23 1.17.64.22 1.1.56 1.38 1.02.3.44.45 1 .45 1.68 0 .6-.14 1.13-.42 1.59-.28.44-.67.82-1.17 1.14-.48.32-1.06.56-1.74.72-.68.16-1.41.24-2.19.24zm12.935 9.48c-.4 0-.78-.08-1.14-.24-.36-.16-.7-.37-1.02-.63-.32-.26-.63-.55-.93-.87-.28-.32-.54-.64-.78-.96l-.54-.84c-.18-.26-.35-.52-.51-.78a1.98 1.98 0 00-.12-.33.427.427 0 01-.06-.24c-.02-.02-.03-.08-.03-.18 0-.06.01-.11.03-.15.02-.04.03-.08.03-.12a.23.23 0 00-.03-.09v-.09c0-.02.02-.07.06-.15.04-.06.12-.11.24-.15.14-.04.25-.06.33-.06l.15.03c.04 0 .07-.01.09-.03h.06c.1-.04.23-.06.39-.06.34 0 .73.22 1.17.66.22.22.4.47.54.75.14.3.29.58.45.84.16.28.35.51.57.69.22.2.52.3.9.3s.71-.15.99-.45c.28-.3.52-.68.72-1.14.22-.46.4-.96.54-1.5a23.606 23.606 0 00.69-3.18c.12-.66.23-1.33.33-2.01.12-.7.21-1.36.27-1.98.08-.62.13-1.13.15-1.53-.08-.16-.17-.24-.27-.24s-.23.05-.39.15c-.14.08-.41.28-.81.6-.18.16-.42.33-.72.51s-.63.36-.99.54c-.34.16-.69.3-1.05.42-.34.1-.65.15-.93.15-.44 0-.81-.09-1.11-.27-.3-.2-.55-.44-.75-.72-.18-.3-.31-.63-.39-.99-.08-.36-.12-.72-.12-1.08 0-.92.25-1.83.75-2.73.26-.5.64-.98 1.14-1.44.5-.46 1.09-.69 1.77-.69.72 0 1.38.18 1.98.54.68.48 1.08 1.15 1.2 2.01.04.1.05.19.03.27 0 .06.02.11.06.15l.36-.24c.1-.1.26-.2.48-.3.24-.1.49-.15.75-.15.12 0 .32.08.6.24.3.14.5.31.6.51.04.1.09.24.15.42s.09.35.09.51c.02.1.03.18.03.24.02.06.03.11.03.15v.15c-.04.26-.1.91-.18 1.95-.06 1.02-.2 2.24-.42 3.66-.14 1-.3 1.91-.48 2.73-.16.84-.32 1.54-.48 2.1-.16.54-.37 1.12-.63 1.74-.24.62-.55 1.2-.93 1.74-.36.54-.78.98-1.26 1.32-.48.36-1.03.54-1.65.54zm-1.26-15.12c.46 0 .91-.13 1.35-.39.46-.26.83-.53 1.11-.81v-.12c.02-.02.03-.05.03-.09 0-.2-.08-.41-.24-.63-.06-.08-.15-.12-.27-.12-.7 0-1.24.21-1.62.63-.38.42-.6.86-.66 1.32 0 .14.1.21.3.21zm18.341 5.97c-.4 0-.6-.37-.6-1.11v-.6c.02-.22.06-.45.12-.69.04-.22.08-.43.12-.63.04-.2.07-.49.09-.87v-.78c0-.26.01-.5.03-.72-.3.02-.63.04-.99.06-.34 0-.66.01-.96.03-.3 0-.57.01-.81.03h-.42c-.12.02-.29.04-.51.06h-.75v.9c.02.3.03.62.03.96v.39c0 .18-.02.61-.06 1.29 0 .44-.06.79-.18 1.05a.34.34 0 01-.12.12.47.47 0 00-.09.12c-.04.04-.07.09-.09.15 0 .06-.02.11-.06.15-.16.12-.37.18-.63.18-.1 0-.2-.01-.3-.03h-.27c-.34 0-.55-.09-.63-.27-.06-.16-.09-.53-.09-1.11v-.48c.02-.24.04-.41.06-.51.06-.56.1-1 .12-1.32.02-.34.03-.71.03-1.11v-.42c-.1.02-.19.03-.27.03h-.24c-.08 0-.16.01-.24.03-.02-.04-.07-.08-.15-.12-.06-.04-.09-.14-.09-.3 0-.14-.02-.25-.06-.33-.02-.1-.03-.2-.03-.3 0-.16.04-.31.12-.45.08-.16.17-.29.27-.39.1-.1.21-.16.33-.18.14-.04.27-.07.39-.09.02-.5.04-1.03.06-1.59.04-.58.08-1.18.12-1.8.04-.34.07-.64.09-.9.04-.26.14-.47.3-.63.12-.1.23-.17.33-.21.1-.04.26-.06.48-.06.5 0 .83.13.99.39.18.24.27.63.27 1.17 0 .14-.01.28-.03.42-.02.14-.05.29-.09.45-.02.14-.03.3-.03.48 0 .16-.01.33-.03.51v.54l-.06 1.11c.18 0 .32-.01.42-.03l3.99-.24v-.78c.02-.16.03-.32.03-.48l-.09-1.65c.02-.44.09-.8.21-1.08.12-.3.34-.5.66-.6.02 0 .07-.01.15-.03h.18a1.686 1.686 0 01.63 0c.1.02.22.07.36.15.16.1.24.22.24.36 0 .04.01.08.03.12.04.04.06.08.06.12 0 .12.02.21.06.27.04.04.06.12.06.24 0 .04-.01.09-.03.15v.15c.02.02.03.1.03.24 0 .1-.01.19-.03.27 0 .08-.01.17-.03.27-.04.28-.09.65-.15 1.11-.06.44-.11.86-.15 1.26-.04.54-.08 1.31-.12 2.31-.04 1-.06 2.16-.06 3.48 0 .52-.05.92-.15 1.2-.08.28-.4.46-.96.54-.12.02-.25.03-.39.03h-.42zm14.872-.39c-.42 0-.77-.11-1.05-.33-.28-.2-.51-.45-.69-.75-.16-.3-.28-.61-.36-.93-.08-.34-.13-.63-.15-.87-.04-.06-.08-.09-.12-.09-.08 0-.18.07-.3.21-.12.16-.26.36-.42.6-.16.22-.38.5-.66.84-.38.46-.84.86-1.38 1.2-.54.36-1.04.54-1.5.54-.58 0-1.08-.27-1.5-.81-.42-.54-.63-1.29-.63-2.25 0-.48.03-.94.09-1.38.06-.46.13-.89.21-1.29.08-.4.13-.82.15-1.26.02-.44.04-.92.06-1.44v-.45c.02-.14.03-.26.03-.36 0-.04-.01-.07-.03-.09a.334.334 0 01-.09-.24c0-.06-.01-.13-.03-.21v-.15c.02-.06.03-.12.03-.18.04-.28.16-.51.36-.69.2-.2.42-.3.66-.3.28 0 .54.09.78.27.26.18.47.41.63.69.14.22.23.45.27.69.06.22.09.44.09.66 0 .2-.01.35-.03.45v.33c0 .16-.01.34-.03.54 0 .2-.01.41-.03.63l-.06.6c-.02.18-.04.32-.06.42l-.15.6c-.04.24-.09.48-.15.72-.04.22-.08.42-.12.6-.04.18-.06.3-.06.36 0 .16.03.27.09.33.08.06.17.1.27.12.18 0 .45-.13.81-.39.38-.28.76-.64 1.14-1.08.4-.44.76-.94 1.08-1.5.34-.58.58-1.16.72-1.74.16-.64.32-1.07.48-1.29.16-.24.32-.36.48-.36.4 0 .78.17 1.14.51.38.34.57.84.57 1.5 0 .34-.04.69-.12 1.05-.06.36-.11.67-.15.93-.04.22-.07.45-.09.69-.02.24-.03.5-.03.78v.51c.02.18.06.31.12.39.04 0 .12-.02.24-.06.18-.08.4-.12.66-.12.14 0 .32.07.54.21l.15.15c.04.04.08.1.12.18v.48c-.02.2-.07.41-.15.63-.08.2-.2.39-.36.57-.14.18-.34.33-.6.45-.24.12-.53.18-.87.18zm7.808-9.42c.42-.12.9-.26 1.44-.42.54-.18 1.1-.39 1.68-.63.4-.16.84-.35 1.32-.57l1.08-.54c.3-.16.6-.3.9-.42.3-.14.55-.21.75-.21.2 0 .32.02.36.06.04.04.17.09.39.15.02.06.07.15.15.27.08.12.16.21.24.27v.12c.02.04.03.08.03.12 0 .02-.01.04-.03.06v.09c0 .04.01.08.03.12a.67.67 0 01-.09.24c-.02.04-.03.09-.03.15-.02.04-.05.07-.09.09l-.09.09a.29.29 0 01-.12.15c-.06.02-.11.05-.15.09-.18.16-.5.35-.96.57-.44.22-.93.45-1.47.69-.54.24-1.08.47-1.62.69-.54.2-.99.36-1.35.48-.76.22-1.14.37-1.14.45.02.08.15.24.39.48.24.24.54.53.9.87.38.32.79.68 1.23 1.08.46.38.89.75 1.29 1.11.42.36.79.7 1.11 1.02.34.3.58.54.72.72.1.14.15.23.15.27 0 .04.02.1.06.18.06.06.11.12.15.18-.04.08-.06.17-.06.27v.09c0 .02.01.04.03.06a.47.47 0 00-.09.12c0 .04-.01.08-.03.12l-.15.21-.21.15-.24.12c-.06.04-.11.08-.15.12-.1.06-.19.09-.27.09-.16 0-.31-.04-.45-.12-.12-.06-.19-.11-.21-.15a.6.6 0 01-.51-.24 1.8 1.8 0 00-.39-.39c-.44-.3-1-.74-1.68-1.32-.68-.6-1.48-1.36-2.4-2.28-.1-.1-.25-.21-.45-.33-.18-.12-.31-.18-.39-.18-.04.1-.06.18-.06.24v.24a10.705 10.705 0 00.09 1.47c.02.18.04.35.06.51.02.16.03.33.03.51 0 .38-.09.7-.27.96-.22.28-.58.42-1.08.42h-.18c-.28-.04-.47-.18-.57-.42-.08-.24-.14-.48-.18-.72-.04-.24-.07-.58-.09-1.02-.02-.46-.03-.86-.03-1.2 0-.48.02-1.02.06-1.62.06-.62.12-1.22.18-1.8.06-.6.12-1.15.18-1.65.08-.52.14-.94.18-1.26l.18-1.2c.02-.08.04-.15.06-.21.02-.08.05-.16.09-.24.1-.16.21-.27.33-.33a.98.98 0 00.3-.24c.1 0 .16.01.18.03.06-.02.11-.05.15-.09.04-.04.1-.06.18-.06.06 0 .15.01.27.03.12 0 .23.05.33.15.12.08.22.21.3.39.08.18.12.44.12.78 0 .04-.01.12-.03.24-.02.12-.05.24-.09.36-.04.14-.07.29-.09.45l-.18.87zm18.911 9.42c-.42 0-.77-.11-1.05-.33-.28-.2-.51-.45-.69-.75-.16-.3-.28-.61-.36-.93-.08-.34-.13-.63-.15-.87-.04-.06-.08-.09-.12-.09-.08 0-.18.07-.3.21-.12.16-.26.36-.42.6-.16.22-.38.5-.66.84-.38.46-.84.86-1.38 1.2-.54.36-1.04.54-1.5.54-.58 0-1.08-.27-1.5-.81-.42-.54-.63-1.29-.63-2.25 0-.48.03-.94.09-1.38.06-.46.13-.89.21-1.29.08-.4.13-.82.15-1.26.02-.44.04-.92.06-1.44v-.45c.02-.14.03-.26.03-.36 0-.04-.01-.07-.03-.09a.334.334 0 01-.09-.24c0-.06-.01-.13-.03-.21v-.15c.02-.06.03-.12.03-.18.04-.28.16-.51.36-.69.2-.2.42-.3.66-.3.28 0 .54.09.78.27.26.18.47.41.63.69.14.22.23.45.27.69.06.22.09.44.09.66 0 .2-.01.35-.03.45v.33c0 .16-.01.34-.03.54 0 .2-.01.41-.03.63l-.06.6c-.02.18-.04.32-.06.42l-.15.6c-.04.24-.09.48-.15.72-.04.22-.08.42-.12.6-.04.18-.06.3-.06.36 0 .16.03.27.09.33.08.06.17.1.27.12.18 0 .45-.13.81-.39.38-.28.76-.64 1.14-1.08.4-.44.76-.94 1.08-1.5.34-.58.58-1.16.72-1.74.16-.64.32-1.07.48-1.29.16-.24.32-.36.48-.36.4 0 .78.17 1.14.51.38.34.57.84.57 1.5 0 .34-.04.69-.12 1.05-.06.36-.11.67-.15.93-.04.22-.07.45-.09.69-.02.24-.03.5-.03.78v.51c.02.18.06.31.12.39.04 0 .12-.02.24-.06.18-.08.4-.12.66-.12.14 0 .32.07.54.21l.15.15c.04.04.08.1.12.18v.48c-.02.2-.07.41-.15.63-.08.2-.2.39-.36.57-.14.18-.34.33-.6.45-.24.12-.53.18-.87.18zM73.235 159.7c-.04.1-.1.2-.18.3-.08.12-.18.23-.3.33-.16.12-.31.22-.45.3a.68.68 0 01-.45.15c-.14 0-.28-.03-.42-.09-.2-.06-.34-.2-.42-.42-.08-.2-.12-.44-.12-.72v-.3c.02-.1.04-.21.06-.33.04-.24.09-.52.15-.84a26.179 26.179 0 01.39-1.83c.06-.22.09-.44.09-.66 0-.08-.02-.12-.06-.12-.08 0-.17.07-.27.21-.08.14-.22.34-.42.6-.3.4-.62.78-.96 1.14-.34.36-.77.77-1.29 1.23-.48.42-.99.81-1.53 1.17-.54.34-1.13.51-1.77.51-.6 0-1.07-.23-1.41-.69-.32-.48-.48-1.02-.48-1.62 0-.2.01-.43.03-.69.04-.26.07-.53.09-.81.04-.28.08-.54.12-.78.04-.26.06-.47.06-.63.04-.26.1-.6.18-1.02.08-.42.12-.77.12-1.05l.15-1.02c.04-.2.06-.38.06-.54.02-.18.05-.34.09-.48.02-.08.03-.15.03-.21v-.21c0-.16.04-.25.12-.27.12-.1.28-.18.48-.24.14-.06.27-.08.39-.06.12 0 .2-.02.24-.06.22 0 .43.14.63.42.2.28.32.53.36.75.02.06.03.15.03.27v.36c0 .34-.02.67-.06.99-.04.32-.09.66-.15 1.02l-.15.6c-.04.24-.09.48-.15.72-.04.24-.08.46-.12.66-.02.18-.03.31-.03.39 0 .12.02.23.06.33.06.08.17.12.33.12.18 0 .45-.13.81-.39.36-.26.74-.57 1.14-.93.42-.38.82-.77 1.2-1.17.4-.42.72-.79.96-1.11.38-.5.69-.91.93-1.23.26-.32.49-.57.69-.75.2-.2.5-.3.9-.3.2 0 .37.08.51.24.16.16.29.32.39.48.16.26.24.55.24.87 0 .3.02.61.06.93 0 .08-.02.16-.06.24-.04.08-.06.16-.06.24-.02.22-.04.48-.06.78-.02.3-.04.63-.06.99-.1 1.08-.2 1.94-.3 2.58-.08.62-.19 1.13-.33 1.53l-.03.12zm33.674.15c-.1.78-.53 1.17-1.29 1.17h-.18c-.06.02-.12.03-.18.03s-.12-.04-.18-.12c-.08 0-.17-.02-.27-.06a.483.483 0 00-.21-.06.47.47 0 01-.09-.12.47.47 0 00-.09-.12c-.16-.1-.29-.27-.39-.51-.06-.08-.11-.16-.15-.24-.04-.1-.08-.19-.12-.27-.1-.22-.17-.41-.21-.57-.04-.18-.08-.37-.12-.57-.02-.2-.03-.42-.03-.66v-1.17a.193.193 0 00-.15-.15.46.46 0 00-.18-.06c-.04 0-.17.09-.39.27-.2.16-.47.39-.81.69-.32.28-.68.6-1.08.96s-.8.73-1.2 1.11l-.57.57c-.2.2-.51.3-.93.3-.1 0-.27-.03-.51-.09-.22-.06-.37-.12-.45-.18l-.12-.09c-.12-.24-.23-.49-.33-.75-.1-.28-.17-.71-.21-1.29-.02-.18-.04-.37-.06-.57v-.96c0-.14-.02-.26-.06-.36-.04-.1-.08-.15-.12-.15-.14 0-.24.01-.3.03-.1.04-.19.09-.27.15-.08.06-.2.17-.36.33-.24.22-.51.48-.81.78-.3.28-.64.61-1.02.99-.42.42-.81.82-1.17 1.2-.34.36-.58.65-.72.87-.04.08-.08.17-.12.27l-.09.27c-.04.08-.07.15-.09.21-.02.06-.05.11-.09.15-.1.1-.21.16-.33.18-.12.04-.26.06-.42.06-.34 0-.68-.18-1.02-.54-.32-.36-.48-.83-.48-1.41 0-.28.03-.63.09-1.05.06-.44.13-.88.21-1.32.08-.46.16-.91.24-1.35.1-.44.18-.81.24-1.11.06-.28.12-.61.18-.99.08-.38.15-.75.21-1.11.08-.36.14-.69.18-.99.06-.3.09-.51.09-.63 0-.16-.03-.38-.09-.66.04-.14.09-.24.15-.3.12-.14.22-.24.3-.3.1-.08.22-.12.36-.12a1.446 1.446 0 011.26.72c.18.3.31.62.39.96l.03.15c-.04.12-.06.2-.06.24v.12c0 .02.01.04.03.06 0 .44-.04.85-.12 1.23-.08.38-.19.83-.33 1.35-.04.2-.09.42-.15.66-.04.22-.06.38-.06.48 0 .1.05.15.15.15.1 0 .19-.04.27-.12l.21-.21c.52-.64 1.05-1.24 1.59-1.8.54-.58 1.08-1.12 1.62-1.62.2-.18.36-.3.48-.36a.74.74 0 01.42-.12c.48 0 .89.14 1.23.42.34.26.55.49.63.69.1.28.17.51.21.69.04.18.06.36.06.54 0 .28-.01.6-.03.96v.87c0 .2.03.34.09.42.08.06.17.09.27.09.02 0 .09-.04.21-.12.12-.1.25-.21.39-.33.16-.12.32-.25.48-.39.18-.14.33-.27.45-.39.54-.46 1.04-.89 1.5-1.29.48-.4.83-.69 1.05-.87.18-.16.33-.26.45-.3.12-.06.28-.09.48-.09.18 0 .36.08.54.24.2.16.38.35.54.57.16.22.29.45.39.69.1.24.15.45.15.63 0 .32-.02.68-.06 1.08-.04.4-.06.78-.06 1.14 0 .14.01.35.03.63.04.26.08.42.12.48.02.22.09.43.21.63.12.18.26.38.42.6l.21.24.12.09c-.02 0-.03.01-.03.03v.15c.02 0 .03.02.03.06v.36zm2.797 13.41c-.14-.28-.24-.57-.3-.87-.04-.3-.06-.7-.06-1.2 0-.52.03-1.09.09-1.71.06-.62.12-1.35.18-2.19.02-.34.05-.77.09-1.29.06-.52.14-1.09.24-1.71-.12 0-.24-.05-.36-.15-.1-.08-.18-.17-.24-.27-.14-.28-.21-.53-.21-.75 0-.22.02-.41.06-.57.04-.16.11-.34.21-.54 0-.14.04-.3.12-.48.08-.16.18-.33.3-.51l.75-1.02.27-1.59c.16-.88.37-1.89.63-3.03.28-1.14.62-2.33 1.02-3.57.14-.42.32-.86.54-1.32.22-.48.47-.92.75-1.32s.58-.73.9-.99c.34-.26.69-.39 1.05-.39.42 0 .79.11 1.11.33.32.22.59.51.81.87.24.34.42.72.54 1.14.12.42.18.82.18 1.2 0 .6-.09 1.2-.27 1.8-.16.6-.37 1.18-.63 1.74-.26.54-.54 1.05-.84 1.53-.3.46-.58.87-.84 1.23l-3.24 4.26a.78.78 0 00-.03.24c-.06.42-.12.87-.18 1.35-.04.5-.09.97-.15 1.41-.04.44-.08.82-.12 1.14-.02.34-.03.57-.03.69-.1 1.12-.17 2.05-.21 2.79-.02.76-.03 1.36-.03 1.8 0 .14-.02.3-.06.48-.04.2-.09.39-.15.57-.06.18-.13.35-.21.51-.06.18-.12.32-.18.42-.14.22-.27.36-.39.42-.12.08-.21.12-.27.12-.18 0-.33-.04-.45-.12-.1-.08-.23-.23-.39-.45zm3.87-16.5c.32-.42.63-.87.93-1.35.3-.48.56-.96.78-1.44.24-.48.42-.94.54-1.38.14-.46.21-.86.21-1.2 0-.36-.12-.54-.36-.54-.14 0-.28.12-.42.36-.12.22-.25.52-.39.9-.12.34-.24.71-.36 1.11l-.36 1.14c-.1.36-.19.71-.27 1.05-.08.32-.14.58-.18.78l-.12.57zm15.125 2.19c-.02.1-.03.19-.03.27v.21c0 .1-.01.19-.03.27v.21c0 .04-.01.08-.03.12v.15c0 .08.01.14.03.18.04.06.06.13.06.21 0 .08-.03.18-.09.3s-.1.22-.12.3c-.02.08-.06.18-.12.3-.06.08-.12.12-.18.12-.04.02-.11.08-.21.18-.06.08-.16.12-.3.12-.08 0-.16-.02-.24-.06a.38.38 0 00-.18-.09.445.445 0 01-.21-.12 1.09 1.09 0 01-.24-.27c-.04-.08-.12-.2-.24-.36a1.99 1.99 0 01-.21-.42c-.12-.3-.18-.62-.18-.96v-.36c0-.14.01-.26.03-.36 0-.12.01-.25.03-.39-.16.2-.35.43-.57.69-.22.24-.47.47-.75.69-.28.22-.6.4-.96.54-.34.16-.72.24-1.14.24-.36 0-.69-.09-.99-.27-.3-.16-.56-.38-.78-.66-.2-.28-.36-.61-.48-.99s-.18-.77-.18-1.17c0-.62.08-1.21.24-1.77.18-.56.42-1.1.72-1.62l.33-.48c.02-.04.1-.13.24-.27l.45-.51c.16-.18.33-.35.51-.51.18-.16.33-.29.45-.39l.48-.36c.3-.18.64-.37 1.02-.57.3-.14.53-.22.69-.24.18-.04.36-.06.54-.06.42 0 .83.08 1.23.24.42.16.78.36 1.08.6.04.38.06.79.06 1.23l.06 1.26.12 2.1c.06.7.09 1.43.09 2.19v.54zm-2.91-5.55c-.5.1-.97.32-1.41.66-.42.34-.76.71-1.02 1.11-.2.3-.36.62-.48.96-.1.32-.15.68-.15 1.08 0 .22.05.4.15.54.1.12.24.18.42.18.26 0 .52-.07.78-.21.28-.16.53-.34.75-.54.22-.22.41-.44.57-.66.18-.24.3-.44.36-.6l.24-.54c.08-.18.15-.47.21-.87.02-.1.03-.25.03-.45.02-.2.03-.38.03-.54-.12-.08-.28-.12-.48-.12zm10.375 7.68c-.7 0-1.31-.13-1.83-.39-.5-.24-.92-.58-1.26-1.02-.32-.46-.56-1-.72-1.62-.14-.62-.21-1.3-.21-2.04 0-1.02.1-2.07.3-3.15.22-1.1.62-2.06 1.2-2.88.08-.1.19-.21.33-.33.14-.14.26-.22.36-.24 0-.18.1-.34.3-.48a2.807 2.807 0 01.75-.42c.54-.22 1.12-.33 1.74-.33.38 0 .73.06 1.05.18.32.1.59.22.81.36.26.16.5.33.72.51-.06-.46-.13-.87-.21-1.23-.06-.38-.14-.72-.24-1.02-.04-.1-.08-.16-.12-.18-.02-.02-.03-.08-.03-.18 0-.06.02-.11.06-.15-.02-.04-.05-.06-.09-.06a.196.196 0 01-.09-.09c-.28-.52-.66-.9-1.14-1.14-.46-.26-1.09-.46-1.89-.6-.68-.12-1.18-.21-1.5-.27-.32-.08-.48-.3-.48-.66 0-.04-.03-.1-.09-.18a.691.691 0 01-.06-.24c0-.18.02-.28.06-.3.06-.04.09-.11.09-.21 0-.04.01-.1.03-.18.04-.08.08-.14.12-.18.1-.1.14-.19.12-.27-.02-.08.01-.16.09-.24.16-.12.35-.19.57-.21.24-.02.46-.03.66-.03.98 0 1.84.16 2.58.48.74.32 1.37.77 1.89 1.35.1.1.16.21.18.33.02.12.09.23.21.33.08.06.14.13.18.21.04.08.11.16.21.24.08.06.14.14.18.24.04.08.08.17.12.27.34.68.58 1.43.72 2.25.16.8.24 1.64.24 2.52 0 .62-.02 1.3-.06 2.04-.02.72-.08 1.46-.18 2.22-.08.74-.22 1.48-.42 2.22-.2.72-.46 1.38-.78 1.98-.08.16-.18.24-.3.24-.06.06-.09.11-.09.15v.09c.02 0 .03.01.03.03-.06.1-.17.15-.33.15.02.04.04.07.06.09.04.02.06.05.06.09 0 .06-.02.11-.06.15l-.12.12c-.12.14-.28.28-.48.42-.18.12-.35.23-.51.33-.16.1-.29.19-.39.27-.08.1-.21.19-.39.27-.28.12-.58.21-.9.27-.32.08-.67.12-1.05.12zm.42-2.37c.38 0 .71-.1.99-.3.3-.2.55-.46.75-.78.22-.32.4-.68.54-1.08.14-.42.26-.84.36-1.26.22-1 .34-2.14.36-3.42-.16-.4-.46-.72-.9-.96-.42-.26-.92-.39-1.5-.39-.54 0-.98.18-1.32.54-.34.36-.61.81-.81 1.35-.18.54-.31 1.12-.39 1.74-.08.62-.12 1.18-.12 1.68 0 .26.01.51.03.75.02.22.06.43.12.63.04.08.09.14.15.18.06.04.11.09.15.15.04.08.06.15.06.21.02.06.05.11.09.15.04.02.08.06.12.12.04.04.07.08.09.12.06.04.12.09.18.15.08.06.16.11.24.15.1.04.2.09.3.15.1.06.19.1.27.12h.24zm17.007 2.16c-.42 0-.77-.11-1.05-.33-.28-.2-.51-.45-.69-.75-.16-.3-.28-.61-.36-.93-.08-.34-.13-.63-.15-.87-.04-.06-.08-.09-.12-.09-.08 0-.18.07-.3.21-.12.16-.26.36-.42.6-.16.22-.38.5-.66.84-.38.46-.84.86-1.38 1.2-.54.36-1.04.54-1.5.54-.58 0-1.08-.27-1.5-.81-.42-.54-.63-1.29-.63-2.25 0-.48.03-.94.09-1.38.06-.46.13-.89.21-1.29.08-.4.13-.82.15-1.26.02-.44.04-.92.06-1.44v-.45c.02-.14.03-.26.03-.36 0-.04-.01-.07-.03-.09a.334.334 0 01-.09-.24c0-.06-.01-.13-.03-.21v-.15c.02-.06.03-.12.03-.18.04-.28.16-.51.36-.69.2-.2.42-.3.66-.3.28 0 .54.09.78.27.26.18.47.41.63.69.14.22.23.45.27.69.06.22.09.44.09.66 0 .2-.01.35-.03.45v.33c0 .16-.01.34-.03.54 0 .2-.01.41-.03.63l-.06.6c-.02.18-.04.32-.06.42l-.15.6c-.04.24-.09.48-.15.72-.04.22-.08.42-.12.6-.04.18-.06.3-.06.36 0 .16.03.27.09.33.08.06.17.1.27.12.18 0 .45-.13.81-.39.38-.28.76-.64 1.14-1.08.4-.44.76-.94 1.08-1.5.34-.58.58-1.16.72-1.74.16-.64.32-1.07.48-1.29.16-.24.32-.36.48-.36.4 0 .78.17 1.14.51.38.34.57.84.57 1.5 0 .34-.04.69-.12 1.05-.06.36-.11.67-.15.93-.04.22-.07.45-.09.69-.02.24-.03.5-.03.78v.51c.02.18.06.31.12.39.04 0 .12-.02.24-.06.18-.08.4-.12.66-.12.14 0 .32.07.54.21l.15.15c.04.04.08.1.12.18v.48c-.02.2-.07.41-.15.63-.08.2-.2.39-.36.57-.14.18-.34.33-.6.45-.24.12-.53.18-.87.18zm15.308 4.68c-.14 0-.29-.02-.45-.06a.986.986 0 00-.24-.03c-.08.02-.15.01-.21-.03a.983.983 0 01-.15-.12c-.04-.02-.08-.07-.12-.15-.04-.1-.07-.22-.09-.36v-.42c0-.46.05-1.01.15-1.65.12-.64.22-1.3.3-1.98-.14.02-.27.03-.39.03h-.6c-.7 0-1.05-.41-1.05-1.23v-.3c.02-.1.04-.21.06-.33.04-.24.09-.52.15-.84a26.179 26.179 0 01.39-1.83c.06-.22.09-.44.09-.66 0-.08-.02-.12-.06-.12-.08 0-.17.07-.27.21-.08.14-.22.34-.42.6-.3.4-.62.78-.96 1.14-.34.36-.77.77-1.29 1.23-.48.42-.99.81-1.53 1.17-.54.34-1.13.51-1.77.51-.6 0-1.07-.23-1.41-.69-.32-.48-.48-1.02-.48-1.62 0-.2.01-.43.03-.69.04-.26.07-.53.09-.81.04-.28.08-.54.12-.78.04-.26.06-.47.06-.63.04-.26.1-.6.18-1.02.08-.42.12-.77.12-1.05l.15-1.02c.04-.2.06-.38.06-.54.02-.18.05-.34.09-.48.02-.08.03-.15.03-.21v-.21c0-.16.04-.25.12-.27.12-.1.28-.18.48-.24.14-.06.27-.08.39-.06.12 0 .2-.02.24-.06.22 0 .43.14.63.42.2.28.32.53.36.75.02.06.03.15.03.27v.36c0 .34-.02.67-.06.99-.04.32-.09.66-.15 1.02l-.15.6c-.04.24-.09.48-.15.72-.04.24-.08.46-.12.66-.02.18-.03.31-.03.39 0 .12.02.23.06.33.06.08.17.12.33.12.18 0 .45-.13.81-.39.36-.26.74-.57 1.14-.93.42-.38.82-.77 1.2-1.17.4-.42.72-.79.96-1.11.38-.5.69-.91.93-1.23.26-.32.49-.57.69-.75.2-.2.5-.3.9-.3.2 0 .37.08.51.24.16.16.29.32.39.48.16.26.24.55.24.87 0 .3.02.61.06.93 0 .08-.02.16-.06.24-.04.08-.06.16-.06.24-.02.22-.03.48-.03.78 0 .3-.02.63-.06.99-.04.66-.1 1.23-.18 1.71l-.21 1.26h.6c.1-.02.21-.03.33-.03.34 0 .58.08.72.24.14.14.21.34.21.6l-.18 2.94c-.04.6-.1 1.13-.18 1.59-.08.48-.2.87-.36 1.17-.06.1-.11.19-.15.27-.02.1-.09.17-.21.21l-.3.06c-.08.04-.17.06-.27.06zm13.169-4.68c-.42 0-.77-.11-1.05-.33-.28-.2-.51-.45-.69-.75-.16-.3-.28-.61-.36-.93-.08-.34-.13-.63-.15-.87-.04-.06-.08-.09-.12-.09-.08 0-.18.07-.3.21-.12.16-.26.36-.42.6-.16.22-.38.5-.66.84-.38.46-.84.86-1.38 1.2-.54.36-1.04.54-1.5.54-.58 0-1.08-.27-1.5-.81-.42-.54-.63-1.29-.63-2.25 0-.48.03-.94.09-1.38.06-.46.13-.89.21-1.29.08-.4.13-.82.15-1.26.02-.44.04-.92.06-1.44v-.45c.02-.14.03-.26.03-.36 0-.04-.01-.07-.03-.09a.334.334 0 01-.09-.24c0-.06-.01-.13-.03-.21v-.15c.02-.06.03-.12.03-.18.04-.28.16-.51.36-.69.2-.2.42-.3.66-.3.28 0 .54.09.78.27.26.18.47.41.63.69.14.22.23.45.27.69.06.22.09.44.09.66 0 .2-.01.35-.03.45v.33c0 .16-.01.34-.03.54 0 .2-.01.41-.03.63l-.06.6c-.02.18-.04.32-.06.42l-.15.6c-.04.24-.09.48-.15.72-.04.22-.08.42-.12.6-.04.18-.06.3-.06.36 0 .16.03.27.09.33.08.06.17.1.27.12.18 0 .45-.13.81-.39.38-.28.76-.64 1.14-1.08.4-.44.76-.94 1.08-1.5.34-.58.58-1.16.72-1.74.16-.64.32-1.07.48-1.29.16-.24.32-.36.48-.36.4 0 .78.17 1.14.51.38.34.57.84.57 1.5 0 .34-.04.69-.12 1.05-.06.36-.11.67-.15.93-.04.22-.07.45-.09.69-.02.24-.03.5-.03.78v.51c.02.18.06.31.12.39.04 0 .12-.02.24-.06.18-.08.4-.12.66-.12.14 0 .32.07.54.21l.15.15c.04.04.08.1.12.18v.48c-.02.2-.07.41-.15.63-.08.2-.2.39-.36.57-.14.18-.34.33-.6.45-.24.12-.53.18-.87.18zm14.798-1.17c-.04.1-.1.2-.18.3-.08.12-.18.23-.3.33-.16.12-.31.22-.45.3a.68.68 0 01-.45.15c-.14 0-.28-.03-.42-.09-.2-.06-.34-.2-.42-.42-.08-.2-.12-.44-.12-.72v-.3c.02-.1.04-.21.06-.33.04-.24.09-.52.15-.84a26.179 26.179 0 01.39-1.83c.06-.22.09-.44.09-.66 0-.08-.02-.12-.06-.12-.08 0-.17.07-.27.21-.08.14-.22.34-.42.6-.3.4-.62.78-.96 1.14-.34.36-.77.77-1.29 1.23-.48.42-.99.81-1.53 1.17-.54.34-1.13.51-1.77.51-.6 0-1.07-.23-1.41-.69-.32-.48-.48-1.02-.48-1.62 0-.2.01-.43.03-.69.04-.26.07-.53.09-.81.04-.28.08-.54.12-.78.04-.26.06-.47.06-.63.04-.26.1-.6.18-1.02.08-.42.12-.77.12-1.05l.15-1.02c.04-.2.06-.38.06-.54.02-.18.05-.34.09-.48.02-.08.03-.15.03-.21v-.21c0-.16.04-.25.12-.27.12-.1.28-.18.48-.24.14-.06.27-.08.39-.06.12 0 .2-.02.24-.06.22 0 .43.14.63.42.2.28.32.53.36.75.02.06.03.15.03.27v.36c0 .34-.02.67-.06.99-.04.32-.09.66-.15 1.02l-.15.6c-.04.24-.09.48-.15.72-.04.24-.08.46-.12.66-.02.18-.03.31-.03.39 0 .12.02.23.06.33.06.08.17.12.33.12.18 0 .45-.13.81-.39.36-.26.74-.57 1.14-.93.42-.38.82-.77 1.2-1.17.4-.42.72-.79.96-1.11.38-.5.69-.91.93-1.23.26-.32.49-.57.69-.75.2-.2.5-.3.9-.3.2 0 .37.08.51.24.16.16.29.32.39.48.16.26.24.55.24.87 0 .3.02.61.06.93 0 .08-.02.16-.06.24-.04.08-.06.16-.06.24-.02.22-.04.48-.06.78-.02.3-.04.63-.06.99-.1 1.08-.2 1.94-.3 2.58-.08.62-.19 1.13-.33 1.53l-.03.12z" fill="#fff"/><defs><radialGradient id="paint0_radial" cx="0" cy="0" r="1" gradientUnits="userSpaceOnUse" gradientTransform="matrix(118.2114 38.69362 -29.74686 90.8785 131.805 102.264)"><stop stop-color="#407B9A"/><stop offset=".645" stop-color="#3682A1"/><stop offset=".941" stop-color="#C6DDEE"/><stop offset="1" stop-color="#fff"/></radialGradient><linearGradient id="paint1_linear" x1="164.894" y1="31.917" x2="155.341" y2="68.757" gradientUnits="userSpaceOnUse"><stop stop-color="#fff"/><stop offset=".475" stop-color="#D4EFFD" stop-opacity=".5"/><stop offset="1" stop-color="#3699D6" stop-opacity="0"/></linearGradient></defs></svg>