<svg width="259" height="227" fill="none" xmlns="http://www.w3.org/2000/svg"><path opacity=".33" d="M46.04 26.659C15.513 41.53 3.35 84.484 1.448 118.663c-2.068 34.179 12.245 68.358 38.885 87.018 16.216 11.362 36.072 16.812 56.176 19.214 36.983 4.249 75.785-1.663 111.443-16.905 12.493-5.358 24.986-12.101 33.508-23.001 8.521-10.624 12.244-24.11 14.313-37.32 7.032-43.601-1.655-105.585-41.202-129.233-49.889-29.56-116.49-16.905-168.53 8.221z" fill="url(#paint0_radial)" stroke="#fff" stroke-width="1.102" stroke-miterlimit="10"/><path opacity=".33" d="M178.333 31.184c2.73.462 17.209 6.005 22.007 10.254 3.641 3.233 18.947 15.704 22.09 27.805 2.4 9.237 4.137 13.302-1.737 23.278-.662 1.016-5.543 5.266-7.777 2.217-3.64-5.635-10.342-19.121-25.317-31.962-3.723-3.14-15.057-10.345-19.773-12.378-2.151-.923-10.011-5.173-10.59-7.02-3.475-9.515 16.216-13.025 21.097-12.194z" fill="url(#paint1_linear)"/><path opacity=".5" d="M109.245 78.72c-.072.024-.264.036-.576.036h-.54c-.048.48-.108 1.008-.18 1.584a138.16 138.16 0 01-.144 1.62c-.048.36-.108.852-.18 1.476-.048.624-.108 1.308-.18 2.052-.072.72-.156 1.464-.252 2.232-.072.744-.144 1.44-.216 2.088-.024.264-.06.576-.108.936a269.725 269.725 0 00-.144 2.196v1.404c.024.12.036.24.036.36l.072 1.764c-.024.6-.084 1.092-.18 1.476-.096.408-.336.672-.72.792l-.72.252-.396-.144-.396-.216-.396-.612c-.072-.072-.108-.144-.108-.216v-.144a.32.32 0 00.036-.144c0-.048-.024-.096-.072-.144-.12-.096-.18-.192-.18-.288 0-.072-.012-.204-.036-.396-.024-.024-.036-.084-.036-.18v-.108c.024 0 .036-.012.036-.036 0-.048-.012-.084-.036-.108v-.036a.32.32 0 01.036-.144c0-.024.012-.06.036-.108l.072-2.196c.048-.72.096-1.56.144-2.52l.252-3.384c.12-1.32.276-2.94.468-4.86.048-.432.108-1.044.18-1.836.096-.792.144-1.56.144-2.304l-2.412.144a64.67 64.67 0 01-1.62.036c-.288.024-.636.036-1.044.036h-1.152c-.384 0-.744.012-1.08.036-.336 0-.6.012-.792.036l-.216 2.196c-.024.312-.06.528-.108.648-.024.12-.036.24-.036.36v.54c.024.192.036.396.036.612v.324c0 .096-.012.204-.036.324-.024.072-.06.156-.108.252a4.73 4.73 0 00-.072.36l-.072.864a43.12 43.12 0 00-.144 1.908c-.024.48-.048.936-.072 1.368-.024.504-.048.912-.072 1.224v1.584c0 .24-.012.516-.036.828a.564.564 0 01-.108.144c-.048.048-.072.096-.072.144.024.048.06.072.108.072.048-.024.072 0 .072.072l-.072.072c-.024.024-.048.036-.072.036-.024 0-.036.012-.036.036a1.263 1.263 0 00-.036.36v.576c.024.192.036.384.036.576 0 .24-.024.456-.072.648-.024.168-.048.348-.072.54a9.038 9.038 0 01-.18 1.584 6.081 6.081 0 01-.432 1.44c-.048 0-.084-.012-.108-.036h-.036a.798.798 0 00-.252.036 1.18 1.18 0 01-.18.144c-.024.024-.072.06-.144.108a.244.244 0 01-.18.072c-.048 0-.096-.024-.144-.072-.096-.072-.312-.192-.648-.36-.336-.168-.564-.324-.684-.468-.096-.096-.144-.276-.144-.54v-.432c.024-.144.036-.252.036-.324 0-.048-.024-.096-.072-.144-.048-.024-.072-.072-.072-.144l.324-1.512c.048-.168.072-.3.072-.396v-.684c0-.12.012-.24.036-.36.048-.408.06-.84.036-1.296 0-.48.024-.996.072-1.548l.108-1.98.072-1.872c.024-.672.06-1.284.108-1.836l.144-2.664c.048-.912.096-1.62.144-2.124l.036-.612c0-.24-.024-.408-.072-.504a1.393 1.393 0 00-.252-.18c-.12-.072-.18-.216-.18-.432 0-.168-.024-.312-.072-.432a1.359 1.359 0 01-.072-.432c0-.264.06-.492.18-.684.144-.216.312-.396.504-.54.264-.216.588-.312.972-.288.384 0 .744-.024 1.08-.072.168-.024.408-.036.72-.036.312-.024.648-.036 1.008-.036.384-.024.78-.036 1.188-.036.432-.024.84-.048 1.224-.072.504-.024 1.212-.06 2.124-.108l2.7-.144a135.137 135.137 0 013.6-.144c.12 0 .204.012.252.036l.144.072c.24.096.396.144.468.144h.072c0-.024.024-.036.072-.036.024 0 .06.024.108.072.072.024.132.084.18.18.072.072.144.12.216.144.048.024.072.06.072.108 0 .024.036.048.108.072 0 .048.012.084.036.108.048.024.072.072.072.144.024.024.036.072.036.144s.012.12.036.144c.024.024.012.06-.036.108-.024.024-.036.06-.036.108-.024.096-.048.18-.072.252v.432c.024.096.048.168.072.216l.036.324c0 .072-.108.132-.324.18-.216.048-.36.084-.432.108zm3.806 33.192a4.142 4.142 0 01-.36-1.044c-.048-.36-.072-.84-.072-1.44 0-.624.036-1.308.108-2.052.072-.744.144-1.62.216-2.628.024-.408.06-.924.108-1.548.072-.624.168-1.308.288-2.052-.144 0-.288-.06-.432-.18a1.218 1.218 0 01-.288-.324c-.168-.336-.252-.636-.252-.9s.024-.492.072-.684c.048-.192.132-.408.252-.648 0-.168.048-.36.144-.576.096-.192.216-.396.36-.612l.9-1.224.324-1.908c.192-1.056.444-2.268.756-3.636a62.701 62.701 0 011.224-4.284 13.81 13.81 0 01.648-1.584c.264-.576.564-1.104.9-1.584.336-.48.696-.876 1.08-1.188.408-.312.828-.468 1.26-.468.504 0 .948.132 1.332.396.384.264.708.612.972 1.044.288.408.504.864.648 1.368.144.504.216.984.216 1.44 0 .72-.108 1.44-.324 2.16a12.75 12.75 0 01-.756 2.088 19.07 19.07 0 01-1.008 1.836 37.88 37.88 0 01-1.008 1.476l-3.888 5.112a.936.936 0 00-.036.288 93.467 93.467 0 00-.216 1.62c-.048.6-.108 1.164-.18 1.692-.048.528-.096.984-.144 1.368-.024.408-.036.684-.036.828a98.962 98.962 0 00-.252 3.348 86.83 86.83 0 00-.036 2.16c0 .168-.024.36-.072.576-.048.24-.108.468-.18.684-.072.216-.156.42-.252.612a2.619 2.619 0 01-.216.504c-.168.264-.324.432-.468.504-.144.096-.252.144-.324.144a.953.953 0 01-.54-.144c-.12-.096-.276-.276-.468-.54zm4.644-19.8c.384-.504.756-1.044 1.116-1.62.36-.576.672-1.152.936-1.728a9.046 9.046 0 00.648-1.656c.168-.552.252-1.032.252-1.44 0-.432-.144-.648-.432-.648-.168 0-.336.144-.504.432-.144.264-.3.624-.468 1.08a29.39 29.39 0 00-.432 1.332l-.432 1.368c-.12.432-.228.852-.324 1.26-.096.384-.168.696-.216.936l-.144.684zm20.779 3.528c-.048.12-.12.24-.216.36a1.857 1.857 0 01-.36.396 5.263 5.263 0 01-.54.36.815.815 0 01-.54.18 1.27 1.27 0 01-.504-.108c-.24-.072-.408-.24-.504-.504a2.325 2.325 0 01-.144-.864v-.36c.024-.12.048-.252.072-.396.048-.288.108-.624.18-1.008.072-.408.144-.78.216-1.116a19.9 19.9 0 01.252-1.08c.072-.264.108-.528.108-.792 0-.096-.024-.144-.072-.144-.096 0-.204.084-.324.252a7.07 7.07 0 01-.504.72c-.36.48-.744.936-1.152 1.368-.408.432-.924.924-1.548 1.476-.576.504-1.188.972-1.836 1.404a3.91 3.91 0 01-2.124.612c-.72 0-1.284-.276-1.692-.828a3.426 3.426 0 01-.576-1.944c0-.24.012-.516.036-.828.048-.312.084-.636.108-.972.048-.336.096-.648.144-.936.048-.312.072-.564.072-.756.048-.312.12-.72.216-1.224s.144-.924.144-1.26l.18-1.224c.048-.24.072-.456.072-.648.024-.216.06-.408.108-.576.024-.096.036-.18.036-.252v-.252c0-.192.048-.3.144-.324.144-.12.336-.216.576-.288.168-.072.324-.096.468-.072.144 0 .24-.024.288-.072.264 0 .516.168.756.504.24.336.384.636.432.9.024.072.036.18.036.324v.432c0 .408-.024.804-.072 1.188-.048.384-.108.792-.18 1.224l-.18.72c-.048.288-.108.576-.18.864-.048.288-.096.552-.144.792a4.802 4.802 0 00-.036.468c0 .144.024.276.072.396.072.096.204.144.396.144.216 0 .54-.156.972-.468a16.56 16.56 0 001.368-1.116c.504-.456.984-.924 1.44-1.404.48-.504.864-.948 1.152-1.332.456-.6.828-1.092 1.116-1.476.312-.384.588-.684.828-.9.24-.24.6-.36 1.08-.36.24 0 .444.096.612.288.192.192.348.384.468.576.192.312.288.66.288 1.044 0 .36.024.732.072 1.116a.639.639 0 01-.072.288.639.639 0 00-.072.288c-.024.264-.048.576-.072.936-.024.36-.048.756-.072 1.188a52.266 52.266 0 01-.36 3.096c-.096.744-.228 1.356-.396 1.836l-.036.144zm4.952 16.272a4.142 4.142 0 01-.36-1.044c-.048-.36-.072-.84-.072-1.44 0-.624.036-1.308.108-2.052.072-.744.144-1.62.216-2.628.024-.408.06-.924.108-1.548.072-.624.168-1.308.288-2.052-.144 0-.288-.06-.432-.18a1.218 1.218 0 01-.288-.324c-.168-.336-.252-.636-.252-.9s.024-.492.072-.684c.048-.192.132-.408.252-.648 0-.168.048-.36.144-.576.096-.192.216-.396.36-.612l.9-1.224.324-1.908c.192-1.056.444-2.268.756-3.636a62.701 62.701 0 011.224-4.284 13.81 13.81 0 01.648-1.584c.264-.576.564-1.104.9-1.584.336-.48.696-.876 1.08-1.188.408-.312.828-.468 1.26-.468.504 0 .948.132 1.332.396.384.264.708.612.972 1.044.288.408.504.864.648 1.368.144.504.216.984.216 1.44 0 .72-.108 1.44-.324 2.16a12.75 12.75 0 01-.756 2.088 19.07 19.07 0 01-1.008 1.836 37.88 37.88 0 01-1.008 1.476l-3.888 5.112a.936.936 0 00-.036.288 93.467 93.467 0 00-.216 1.62c-.048.6-.108 1.164-.18 1.692-.048.528-.096.984-.144 1.368-.024.408-.036.684-.036.828a98.962 98.962 0 00-.252 3.348 86.83 86.83 0 00-.036 2.16c0 .168-.024.36-.072.576-.048.24-.108.468-.18.684-.072.216-.156.42-.252.612a2.619 2.619 0 01-.216.504c-.168.264-.324.432-.468.504-.144.096-.252.144-.324.144a.953.953 0 01-.54-.144c-.12-.096-.276-.276-.468-.54zm4.644-19.8c.384-.504.756-1.044 1.116-1.62.36-.576.672-1.152.936-1.728a9.046 9.046 0 00.648-1.656c.168-.552.252-1.032.252-1.44 0-.432-.144-.648-.432-.648-.168 0-.336.144-.504.432-.144.264-.3.624-.468 1.08a29.39 29.39 0 00-.432 1.332l-.432 1.368c-.12.432-.228.852-.324 1.26-.096.384-.168.696-.216.936l-.144.684zm16.459 4.896a.83.83 0 00-.288.072.479.479 0 01-.288.108c-.096.096-.192.18-.288.252-.096.072-.252.132-.468.18-.288.144-.6.264-.936.36a4.2 4.2 0 01-1.152.144c-.768 0-1.428-.144-1.98-.432a3.907 3.907 0 01-1.296-1.116 5.061 5.061 0 01-.756-1.476 6.274 6.274 0 01-.216-1.584c0-.456.024-.876.072-1.26.048-.408.132-.816.252-1.224.048-.192.096-.36.144-.504.048-.144.108-.312.18-.504l.36-.864a2.49 2.49 0 00.072-.288c.048-.12.108-.24.18-.36.096-.24.228-.48.396-.72.504-.84 1.08-1.488 1.728-1.944.648-.456 1.32-.684 2.016-.684.024.024.048.036.072.036a.32.32 0 01.144.036.276.276 0 00.108.036c.048 0 .084.012.108.036a.244.244 0 00.18.072c0 .048.036.12.108.216.432.12.888.384 1.368.792.504.384.96.852 1.368 1.404a7.758 7.758 0 011.008 1.872c.264.672.396 1.356.396 2.052 0 1.08-.216 2.064-.648 2.952a6.581 6.581 0 01-1.692 2.16l-.252.18zm-2.268-8.28c-.048.048-.084.072-.108.072a1.397 1.397 0 01-.18.072.32.32 0 01-.144.036c-.12.024-.228.036-.324.036s-.204.06-.324.18a.645.645 0 00-.324.216c-.072.072-.204.252-.396.54-.336.36-.564.852-.684 1.476-.12.6-.18 1.176-.18 1.728 0 .6.156 1.068.468 1.404.312.312.744.468 1.296.468.912 0 1.692-.264 2.34-.792.672-.552 1.008-1.368 1.008-2.448 0-.816-.228-1.512-.684-2.088-.432-.576-.996-.9-1.692-.972l-.072.072zm12.96 19.764c-.48 0-.936-.096-1.368-.288a5.442 5.442 0 01-1.224-.756c-.384-.312-.756-.66-1.116-1.044a19.716 19.716 0 01-.936-1.152l-.648-1.008c-.216-.312-.42-.624-.612-.936a2.375 2.375 0 00-.144-.396.512.512 0 01-.072-.288c-.024-.024-.036-.096-.036-.216a.4.4 0 01.036-.18.32.32 0 00.036-.144.276.276 0 00-.036-.108v-.108c0-.024.024-.084.072-.18.048-.072.144-.132.288-.18.168-.048.3-.072.396-.072l.18.036c.048 0 .084-.012.108-.036h.072c.12-.048.276-.072.468-.072.408 0 .876.264 1.404.792.264.264.48.564.648.9.168.36.348.696.54 1.008.192.336.42.612.684.828.264.24.624.36 1.08.36.456 0 .852-.18 1.188-.54.336-.36.624-.816.864-1.368a9.95 9.95 0 00.648-1.8c.192-.648.348-1.26.468-1.836.12-.528.24-1.188.36-1.98.144-.792.276-1.596.396-2.412.144-.84.252-1.632.324-2.376.096-.744.156-1.356.18-1.836-.096-.192-.204-.288-.324-.288-.12 0-.276.06-.468.18-.168.096-.492.336-.972.72a5.832 5.832 0 01-.864.612c-.36.216-.756.432-1.188.648-.408.192-.828.36-1.26.504-.408.12-.78.18-1.116.18-.528 0-.972-.108-1.332-.324-.36-.24-.66-.528-.9-.864a3.962 3.962 0 01-.468-1.188 5.958 5.958 0 01-.144-1.296c0-1.104.3-2.196.9-3.276.312-.6.768-1.176 1.368-1.728a3.034 3.034 0 012.124-.828c.864 0 1.656.216 2.376.648.816.576 1.296 1.38 1.44 2.412.048.12.06.228.036.324 0 .072.024.132.072.18l.432-.288c.12-.12.312-.24.576-.36.288-.12.588-.18.9-.18.144 0 .384.096.72.288.36.168.6.372.72.612.048.12.108.288.18.504.072.216.108.42.108.612.024.12.036.216.036.288a.592.592 0 01.036.18v.18c-.048.312-.12 1.092-.216 2.34-.072 1.224-.24 2.688-.504 4.392-.168 1.2-.36 2.292-.576 3.276a29.496 29.496 0 01-.576 2.52 20.484 20.484 0 01-.756 2.088 9.696 9.696 0 01-1.116 2.088 5.97 5.97 0 01-1.512 1.584 3.212 3.212 0 01-1.98.648zm-1.512-18.144c.552 0 1.092-.156 1.62-.468.552-.312.996-.636 1.332-.972v-.144c.024-.024.036-.06.036-.108 0-.24-.096-.492-.288-.756-.072-.096-.18-.144-.324-.144-.84 0-1.488.252-1.944.756-.456.504-.72 1.032-.792 1.584 0 .168.12.252.36.252zm20.821 6.048a5.97 5.97 0 01-.036-.72v-.828c0-.216-.036-.348-.108-.396-.048-.072-.096-.108-.144-.108a.345.345 0 00-.252.108l-.252.252a7.369 7.369 0 01-.936.756 9.363 9.363 0 01-1.26.792 7.77 7.77 0 01-1.44.648 4.46 4.46 0 01-1.404.252 2.28 2.28 0 01-1.152-.288 2.871 2.871 0 01-.828-.792 3.732 3.732 0 01-.504-1.08 5.644 5.644 0 01-.144-1.296c0-.408.036-.816.108-1.224.072-.264.156-.552.252-.864.12-.336.276-.696.468-1.08l.108-.216c.072-.096.132-.192.18-.288.072-.096.144-.204.216-.324.36-.6.84-1.2 1.44-1.8.6-.6 1.248-1.14 1.944-1.62.72-.504 1.428-.9 2.124-1.188.696-.312 1.308-.468 1.836-.468.36 0 .696.036 1.008.108.336.072.66.24.972.504.192.168.36.384.504.648.168.24.252.504.252.792 0 .12-.036.252-.108.396-.048.936-.096 1.8-.144 2.592-.048.696-.084 1.38-.108 2.052v1.476c0 .744.024 1.416.072 2.016.072.6.144 1.032.216 1.296 0 .192-.012.36-.036.504a.755.755 0 01-.108.396 1.891 1.891 0 01-.18.288.99.99 0 01-.288.252.58.58 0 01-.252.072.798.798 0 01-.252-.036.798.798 0 00-.252-.036c-.168.024-.252.06-.252.108-.528 0-.84-.156-.936-.468a23.764 23.764 0 01-.324-1.188zm.612-7.992a.345.345 0 01-.252-.108.838.838 0 01-.216-.144.347.347 0 00-.144-.18c-.336 0-.828.228-1.476.684-.624.432-1.26.96-1.908 1.584-.648.6-1.212 1.224-1.692 1.872-.48.648-.72 1.188-.72 1.62 0 .288.132.432.396.432.144 0 .36-.048.648-.144.312-.12.672-.312 1.08-.576.312-.192.66-.42 1.044-.684.408-.264.804-.552 1.188-.864.408-.336.78-.684 1.116-1.044.336-.384.6-.792.792-1.224.048-.312.084-.528.108-.648.024-.144.036-.336.036-.576zM75.351 148.64c-.049.12-.12.24-.216.36a1.857 1.857 0 01-.36.396 5.263 5.263 0 01-.54.36.815.815 0 01-.54.18 1.27 1.27 0 01-.504-.108c-.24-.072-.409-.24-.505-.504a2.325 2.325 0 01-.144-.864v-.36c.025-.12.049-.252.073-.396.047-.288.108-.624.18-1.008.072-.408.144-.78.215-1.116a19.9 19.9 0 01.252-1.08 2.96 2.96 0 00.109-.792c0-.096-.024-.144-.072-.144-.097 0-.205.084-.325.252a7.07 7.07 0 01-.504.72c-.36.48-.743.936-1.151 1.368-.409.432-.925.924-1.549 1.476-.575.504-1.188.972-1.835 1.404a3.91 3.91 0 01-2.124.612c-.72 0-1.285-.276-1.693-.828a3.426 3.426 0 01-.575-1.944c0-.24.011-.516.035-.828.048-.312.084-.636.108-.972.048-.336.096-.648.145-.936.047-.312.072-.564.072-.756.047-.312.12-.72.215-1.224.097-.504.145-.924.145-1.26l.18-1.224c.047-.24.072-.456.072-.648.023-.216.06-.408.108-.576.023-.096.035-.18.035-.252v-.252c0-.192.049-.3.144-.324.144-.12.336-.216.576-.288.168-.072.325-.096.469-.072.144 0 .24-.024.288-.072.263 0 .515.168.755.504.24.336.385.636.433.9.024.072.036.18.036.324v.432c0 .408-.024.804-.072 1.188-.049.384-.109.792-.18 1.224l-.18.72c-.049.288-.109.576-.18.864-.049.288-.097.552-.144.792a4.802 4.802 0 00-.036.468c0 .144.024.276.072.396.072.096.204.144.395.144.216 0 .54-.156.972-.468a16.56 16.56 0 001.368-1.116c.505-.456.985-.924 1.44-1.404.48-.504.865-.948 1.153-1.332.456-.6.828-1.092 1.115-1.476.313-.384.589-.684.829-.9.24-.24.6-.36 1.08-.36.24 0 .444.096.612.288.192.192.348.384.468.576.192.312.288.66.288 1.044 0 .36.023.732.072 1.116a.639.639 0 01-.072.288.639.639 0 00-.072.288c-.025.264-.049.576-.073.936-.023.36-.047.756-.072 1.188a52.266 52.266 0 01-.36 3.096c-.096.744-.227 1.356-.395 1.836l-.037.144zm32.668-4.356c-.288.408-.54.756-.756 1.044-.192.288-.372.552-.54.792a16.9 16.9 0 01-.504.684l-.504.756v.288c0 .48-.072.948-.216 1.404-.12.48-.42.732-.9.756-.12 0-.192.012-.216.036 0 .048-.096.072-.288.072a.936.936 0 01-.288-.036.936.936 0 00-.288-.036.58.58 0 01-.468-.216 1.705 1.705 0 01-.252-.468 4.857 4.857 0 01-.108-.576v-.504c0-.48.024-.96.072-1.44.048-.48.096-1.116.144-1.908.024-.288.036-.636.036-1.044 0-.408.012-.72.036-.936l-3.312 5.112c-.504.768-1.08 1.296-1.728 1.584-.648.288-1.464.432-2.448.432h-.864c-.192 0-.336-.036-.432-.108-.096-.072-.168-.252-.216-.54a.337.337 0 01-.18-.252.985.985 0 01-.036-.216c0-.096.012-.192.036-.288.024-.096.036-.264.036-.504 0-.048.012-.132.036-.252.024-.12.084-.192.18-.216 0-.264.108-.456.324-.576.216-.12.492-.18.828-.18.672 0 1.188-.132 1.548-.396.384-.264.66-.612.828-1.044.192-.432.312-.924.36-1.476a19.96 19.96 0 00.072-1.728c0-1.056-.156-1.872-.468-2.448-.288-.6-.852-.9-1.692-.9h-.504a1.93 1.93 0 01-.468-.108c-.336-.144-.504-.432-.504-.864 0-.144.024-.252.072-.324.048-.072.072-.204.072-.396 0-.096-.024-.168-.072-.216a.32.32 0 01-.036-.144c0-.048.036-.108.108-.18.096-.072.132-.204.108-.396 0-.192.096-.288.288-.288h.432a7.97 7.97 0 012.196.288 3.648 3.648 0 011.728.972c.48.456.852 1.08 1.116 1.872.288.792.432 1.788.432 2.988.48-.576.876-1.104 1.188-1.584.336-.48.72-1.08 1.152-1.8V137.3c0-.072.012-.18.036-.324l.144-.432a1.8 1.8 0 01.18-.432c.096-.12.192-.18.288-.18.024 0 .048.012.072.036h.108c.048 0 .108-.036.18-.108h.252c.024-.024.06-.036.108-.036.144.024.312.048.504.072.192.024.324.096.396.216l.288.144c.096.048.18.18.252.396.072.216.108.576.108 1.08 0 1.008-.036 1.992-.108 2.952-.072.96-.132 1.92-.18 2.88a63.087 63.087 0 001.512-2.304c.504-.792.996-1.584 1.476-2.376.36-.576.732-1.044 1.116-1.404.408-.384.84-.684 1.296-.9.456-.216.924-.36 1.404-.432.48-.072.984-.108 1.512-.108h.432c.192 0 .288.06.288.18a.592.592 0 01-.036.18.592.592 0 00-.036.18c0 .096-.024.156-.072.18-.024 0-.036.024-.036.072 0 .024.036.06.108.108.072.024.108.072.108.144 0 .024-.024.036-.072.036-.024 0-.036.024-.036.072 0 .024.012.06.036.108a.564.564 0 01.108.144.639.639 0 01.072.288c0 .048-.012.132-.036.252a1.184 1.184 0 00-.036.288c-.024.312-.12.516-.288.612-.144.072-.336.108-.576.108h-.36a2.023 2.023 0 00-.396-.036c-1.008 0-1.68.444-2.016 1.332-.312.888-.468 2.088-.468 3.6 0 .864.156 1.596.468 2.196.336.576 1.02.864 2.052.864.312 0 .564.036.756.108.216.072.324.216.324.432 0 .24.012.408.036.504.024.096.036.276.036.54 0 .144-.012.264-.036.36-.024.096-.036.18-.036.252 0 .168-.06.288-.18.36-.12.048-.192.156-.216.324 0 .072-.048.132-.144.18a.512.512 0 01-.288.072h-.864c-1.608 0-2.796-.444-3.564-1.332-.744-.888-1.116-2.376-1.116-4.464zm19.922 5.76c-.504 0-.924-.132-1.26-.396a2.972 2.972 0 01-.828-.9 4.88 4.88 0 01-.432-1.116 7.345 7.345 0 01-.18-1.044c-.048-.072-.096-.108-.144-.108-.096 0-.216.084-.36.252-.144.192-.312.432-.504.72-.192.264-.456.6-.792 1.008a6.883 6.883 0 01-1.656 1.44c-.648.432-1.248.648-1.8.648-.696 0-1.296-.324-1.8-.972-.504-.648-.756-1.548-.756-2.7 0-.576.036-1.128.108-1.656.072-.552.156-1.068.252-1.548s.156-.984.18-1.512c.024-.528.048-1.104.072-1.728v-.54c.024-.168.036-.312.036-.432 0-.048-.012-.084-.036-.108a.4.4 0 01-.108-.288c0-.072-.012-.156-.036-.252v-.18a.68.68 0 00.036-.216 1.33 1.33 0 01.432-.828c.24-.24.504-.36.792-.36.336 0 .648.108.936.324.312.216.564.492.756.828.168.264.276.54.324.828.072.264.108.528.108.792 0 .24-.012.42-.036.54v.396c0 .192-.012.408-.036.648 0 .24-.012.492-.036.756l-.072.72a6.242 6.242 0 01-.072.504l-.18.72c-.048.288-.108.576-.18.864-.048.264-.096.504-.144.72-.048.216-.072.36-.072.432 0 .192.036.324.108.396.096.072.204.12.324.144.216 0 .54-.156.972-.468a8.495 8.495 0 001.368-1.296c.48-.528.912-1.128 1.296-1.8a7.71 7.71 0 00.864-2.088c.192-.768.384-1.284.576-1.548.192-.288.384-.432.576-.432.48 0 .936.204 1.368.612.456.408.684 1.008.684 1.8 0 .408-.048.828-.144 1.26-.072.432-.132.804-.18 1.116-.048.264-.084.54-.108.828-.024.288-.036.6-.036.936v.612c.024.216.072.372.144.468.048 0 .144-.024.288-.072.216-.096.48-.144.792-.144.168 0 .384.084.648.252l.18.18c.048.048.096.12.144.216v.576a3.13 3.13 0 01-.18.756c-.096.24-.24.468-.432.684-.168.216-.408.396-.72.54-.288.144-.636.216-1.044.216zm11.421.108c-1.176 0-2.172-.3-2.988-.9-.216-.168-.384-.276-.504-.324a.543.543 0 01-.18-.216.456.456 0 00-.108-.216c0-.072-.036-.144-.108-.216l-.144-.288-.288-.36a1.817 1.817 0 01-.216-.432 7.13 7.13 0 01-.576-1.872 16.073 16.073 0 01-.144-2.196c0-.648.036-1.308.108-1.98.096-.672.204-1.332.324-1.98h-.576a1.397 1.397 0 00-.18-.072.543.543 0 01-.18-.216.435.435 0 00-.252-.252 1.184 1.184 0 01-.036-.288c.024-.12.012-.216-.036-.288.048-.048.072-.168.072-.36 0-.192.024-.3.072-.324a.543.543 0 01.216-.18.585.585 0 00.252-.288.235.235 0 01.108-.108.407.407 0 00.144-.144c.072-.024.18-.048.324-.072.168-.048.372-.072.612-.072.24-.864.564-1.848.972-2.952a20.003 20.003 0 011.548-3.132c.6-.984 1.296-1.812 2.088-2.484.792-.696 1.704-1.044 2.736-1.044.768 0 1.356.108 1.764.324.432.216.816.564 1.152 1.044l.396.504c.024.072.072.24.144.504.072.24.132.396.18.468.096.264.168.516.216.756.072.24.108.492.108.756 0 .648-.132 1.392-.396 2.232-.264.816-.696 1.608-1.296 2.376-.576.768-1.344 1.452-2.304 2.052-.936.576-2.088.948-3.456 1.116l-1.476.18a6.61 6.61 0 01-.108.612 4.552 4.552 0 00-.108.648c-.024.216-.048.456-.072.72l.324-.216c.048-.048.12-.108.216-.18s.204-.132.324-.18a.825.825 0 01.252-.072c.048-.024.072-.072.072-.144.096-.048.204-.084.324-.108l.36-.144c.36-.144.756-.264 1.188-.36.456-.12.924-.18 1.404-.18.696 0 1.284.108 1.764.324.504.216.912.516 1.224.9.312.36.54.792.684 1.296.144.48.216.996.216 1.548 0 .984-.156 1.872-.468 2.664a5.78 5.78 0 01-1.26 2.052 5.527 5.527 0 01-1.944 1.296c-.744.312-1.572.468-2.484.468zm.468-2.952c.864 0 1.536-.3 2.016-.9a3.29 3.29 0 00.756-2.124c0-.504-.156-.912-.468-1.224-.312-.312-.708-.468-1.188-.468-.336 0-.66.048-.972.144a6.045 6.045 0 00-.792.324l-.108.108c-.024.024-.048.036-.072.036h-.036c-.024 0-.036.012-.036.036h-.036c0 .048-.024.084-.072.108-.024 0-.06.024-.108.072-.024.048-.084.084-.18.108-.072.024-.168.096-.288.216a.772.772 0 01-.144.18c-.048.072-.168.132-.36.18a.564.564 0 00-.108.144.419.419 0 01-.108.072l-.288.468c.024.672.252 1.26.684 1.764.432.504 1.068.756 1.908.756zm-.468-10.98a3.639 3.639 0 001.44-.54c.48-.288.888-.636 1.224-1.044.36-.432.636-.9.828-1.404a4.156 4.156 0 00.324-1.584c0-.408-.12-.744-.36-1.008a1.161 1.161 0 00-.936-.432c-.408 0-.804.204-1.188.612-.384.384-.744.876-1.08 1.476-.336.6-.636 1.26-.9 1.98s-.468 1.404-.612 2.052h.54c.288-.024.528-.06.72-.108zm17.45 13.788a.83.83 0 00-.288.072.479.479 0 01-.288.108c-.096.096-.192.18-.288.252-.096.072-.252.132-.468.18-.288.144-.6.264-.936.36a4.2 4.2 0 01-1.152.144c-.768 0-1.428-.144-1.98-.432a3.907 3.907 0 01-1.296-1.116 5.061 5.061 0 01-.756-1.476 6.274 6.274 0 01-.216-1.584c0-.456.024-.876.072-1.26.048-.408.132-.816.252-1.224.048-.192.096-.36.144-.504.048-.144.108-.312.18-.504l.36-.864a2.49 2.49 0 00.072-.288c.048-.12.108-.24.18-.36.096-.24.228-.48.396-.72.504-.84 1.08-1.488 1.728-1.944.648-.456 1.32-.684 2.016-.684.024.024.048.036.072.036a.32.32 0 01.144.036.276.276 0 00.108.036c.048 0 .084.012.108.036a.244.244 0 00.18.072c0 .048.036.12.108.216.432.12.888.384 1.368.792.504.384.96.852 1.368 1.404a7.758 7.758 0 011.008 1.872c.264.672.396 1.356.396 2.052 0 1.08-.216 2.064-.648 2.952a6.581 6.581 0 01-1.692 2.16l-.252.18zm-2.268-8.28c-.048.048-.084.072-.108.072a1.397 1.397 0 01-.18.072.32.32 0 01-.144.036c-.12.024-.228.036-.324.036s-.204.06-.324.18a.645.645 0 00-.324.216c-.072.072-.204.252-.396.54-.336.36-.564.852-.684 1.476-.12.6-.18 1.176-.18 1.728 0 .6.156 1.068.468 1.404.312.312.744.468 1.296.468.912 0 1.692-.264 2.34-.792.672-.552 1.008-1.368 1.008-2.448 0-.816-.228-1.512-.684-2.088-.432-.576-.996-.9-1.692-.972l-.072.072zm12.936 9.252c-.192 0-.372-.012-.54-.036-.168 0-.312-.024-.432-.072a2.553 2.553 0 00-.324-.108c-.072-.024-.132-.096-.18-.216-.048-.12-.084-.3-.108-.54a5.864 5.864 0 01-.036-.648c0-.528.012-.972.036-1.332.048-.384.096-.72.144-1.008.048-.288.084-.552.108-.792.048-.24.072-.504.072-.792v-3.888c.024-.432.048-.792.072-1.08l.072-.972-2.808.252c-.264.024-.576.06-.936.108a5.845 5.845 0 01-.72.072.647.647 0 01-.576-.288 1.18 1.18 0 00-.144-.18.645.645 0 01-.18-.36 2.624 2.624 0 01-.036-.432 1.116 1.116 0 00-.072-.216v-.18c0-.168.048-.324.144-.468a.387.387 0 00.072-.216.452.452 0 01.108-.18 3.84 3.84 0 01.972-.252c.36-.072.708-.132 1.044-.18.288-.048.612-.096.972-.144.36-.048.708-.096 1.044-.144.36-.048.684-.084.972-.108.288-.024.516-.048.684-.072 1.488-.144 2.64-.252 3.456-.324.84-.072 1.452-.12 1.836-.144.408-.048.66-.072.756-.072.096-.024.156-.036.18-.036.12 0 .228.012.324.036h.324c.096 0 .156.06.18.18a7.452 7.452 0 00.36.612c.072.048.108.108.108.18 0 .096-.012.18-.036.252a.936.936 0 00-.036.288v.288c.024.096.036.18.036.252 0 .168-.096.312-.288.432a.322.322 0 00-.18.216c-.024.072-.096.132-.216.18-.36.168-.96.252-1.8.252-.456 0-.912.012-1.368.036-.456.024-.888.06-1.296.108-.024.144-.036.36-.036.648 0 .288-.012.708-.036 1.26l-.072 1.26c-.024.216-.048.504-.072.864-.024.36-.048.756-.072 1.188l-.072 1.224v2.016c.024.36.036.78.036 1.26 0 .24-.012.48-.036.72-.024.24-.072.444-.144.612a1.761 1.761 0 00-.108.18.244.244 0 01-.072.18c-.024.024-.132.06-.324.108a1.397 1.397 0 01-.18.072c-.048.048-.096.072-.144.072a.985.985 0 00-.216.036.68.68 0 01-.216.036zm18.411-.468c-.48 0-.72-.444-.72-1.332v-.72c.024-.264.072-.54.144-.828.048-.264.096-.516.144-.756.048-.24.084-.588.108-1.044v-.936c0-.312.012-.6.036-.864-.36.024-.756.048-1.188.072-.408 0-.792.012-1.152.036-.36 0-.684.012-.972.036h-.504a8.84 8.84 0 01-.612.072h-.9v1.08c.024.36.036.744.036 1.152v.468c0 .216-.024.732-.072 1.548 0 .528-.072.948-.216 1.26a.407.407 0 01-.144.144.564.564 0 00-.108.144.452.452 0 00-.108.18.244.244 0 01-.072.18c-.192.144-.444.216-.756.216-.12 0-.24-.012-.36-.036h-.324c-.408 0-.66-.108-.756-.324-.072-.192-.108-.636-.108-1.332v-.576c.024-.288.048-.492.072-.612.072-.672.12-1.2.144-1.584.024-.408.036-.852.036-1.332v-.504c-.12.024-.228.036-.324.036h-.288c-.096 0-.192.012-.288.036-.024-.048-.084-.096-.18-.144-.072-.048-.108-.168-.108-.36 0-.168-.024-.3-.072-.396a1.832 1.832 0 01-.036-.36c0-.192.048-.372.144-.54.096-.192.204-.348.324-.468a.725.725 0 01.396-.216 4.27 4.27 0 01.468-.108c.024-.6.048-1.236.072-1.908.048-.696.096-1.416.144-2.16.048-.408.084-.768.108-1.08.048-.312.168-.564.36-.756a1.53 1.53 0 01.396-.252c.12-.048.312-.072.576-.072.6 0 .996.156 1.188.468.216.288.324.756.324 1.404 0 .168-.012.336-.036.504-.024.168-.06.348-.108.54a4.11 4.11 0 00-.036.576c0 .192-.012.396-.036.612v.648l-.072 1.332c.216 0 .384-.012.504-.036l4.788-.288v-.936a4.64 4.64 0 00.036-.576l-.108-1.98c.024-.528.108-.96.252-1.296.144-.36.408-.6.792-.72.024 0 .084-.012.18-.036h.216a2.023 2.023 0 01.756 0c.12.024.264.084.432.18.192.12.288.264.288.432a.32.32 0 00.036.144c.048.048.072.096.072.144 0 .144.024.252.072.324.048.048.072.144.072.288a.592.592 0 01-.036.18v.18c.024.024.036.12.036.288 0 .12-.012.228-.036.324 0 .096-.012.204-.036.324-.048.336-.108.78-.18 1.332a42.54 42.54 0 00-.18 1.512 87.7 87.7 0 00-.144 2.772c-.048 1.2-.072 2.592-.072 4.176 0 .624-.06 1.104-.18 1.44-.096.336-.48.552-1.152.648-.144.024-.3.036-.468.036h-.504zm9.279.324c-.288 0-.516-.072-.684-.216a2.326 2.326 0 01-.468-.576 2.052 2.052 0 01-.108-.36c0-.12-.024-.252-.072-.396a3.766 3.766 0 00-.216-.612 2.617 2.617 0 01-.108-.756c0-.408.012-.78.036-1.116.048-.36.12-.864.216-1.512.024-.12.06-.312.108-.576.072-.264.12-.468.144-.612 0-.072.024-.192.072-.36.048-.168.072-.3.072-.396 0-.168.012-.324.036-.468a18 18 0 01.108-.648.798.798 0 00-.036-.252v-.288c.048-.48.084-.972.108-1.476.048-.528.072-1.056.072-1.584 0-.216-.012-.432-.036-.648v-.684c0-.384.096-.708.288-.972.072-.12.156-.192.252-.216a4.53 4.53 0 01.432-.144c.12-.048.24-.084.36-.108.12-.048.252-.072.396-.072.24 0 .42.036.54.108.12.048.252.096.396.144.12.048.192.144.216.288.048.12.072.24.072.36.096 0 .156.084.18.252.024.168.036.324.036.468 0 .408-.096.996-.288 1.764a19.13 19.13 0 00-.432 2.34c.192-.384.432-.756.72-1.116.312-.36.672-.684 1.08-.972.192-.12.42-.24.684-.36.264-.144.516-.24.756-.288.288-.072.516-.144.684-.216.168-.072.396-.108.684-.108.576 0 1.092.12 1.548.36.456.216.84.516 1.152.9.336.36.588.78.756 1.26.168.48.252.984.252 1.512 0 1.512-.324 2.796-.972 3.852a8.055 8.055 0 01-2.412 2.592 9.428 9.428 0 01-3.24 1.44c-1.176.312-2.304.468-3.384.468zm2.088-3.312c.744 0 1.416-.12 2.016-.36a5.269 5.269 0 001.584-1.008 4.638 4.638 0 001.008-1.512c.24-.576.36-1.188.36-1.836 0-.336-.084-.624-.252-.864-.168-.264-.492-.396-.972-.396h-.036c-.024 0-.036.012-.036.036h-.144c-.048 0-.084.012-.108.036-.192 0-.324.036-.396.108a.495.495 0 00-.252.108 3.124 3.124 0 01-.324.252c-.504.264-.9.636-1.188 1.116a14.223 14.223 0 00-1.188 1.692c-.336.576-.6 1.068-.792 1.476l-.072 1.008c.072.048.192.084.36.108.168.024.312.036.432.036zm13.464-11.016c0 .576-.036 1.26-.108 2.052a98.356 98.356 0 01-.18 2.448c-.072.84-.144 1.656-.216 2.448a32.403 32.403 0 00-.072 1.98c0 .696-.012 1.356-.036 1.98a7.57 7.57 0 01-.216 1.62c-.12.456-.276.72-.468.792 0 .12-.048.204-.144.252a.845.845 0 01-.288.18c-.192.048-.36.072-.504.072h-.36a.963.963 0 01-.36-.072c-.336-.072-.552-.192-.648-.36-.072-.168-.108-.432-.108-.792 0-.336.072-.828.216-1.476.168-.648.288-1.272.36-1.872a.68.68 0 00-.036-.216v-.252c0-.168.012-.3.036-.396.048-.096.084-.228.108-.396.024-.12.036-.24.036-.36v-.396c.072-.96.108-2.088.108-3.384 0-.552-.024-1.056-.072-1.512-.024-.48-.036-.888-.036-1.224 0-.336.024-.66.072-.972.048-.336.18-.588.396-.756 0-.12.048-.216.144-.288.096-.072.204-.132.324-.18.192-.048.36-.072.504-.072.144 0 .276.024.396.072.144.048.276.072.396.072.216 0 .396.072.54.216.144.144.216.408.216.792zm7.034 9.9H216.1a14.934 14.934 0 00-.612-.072c-.384-.048-.672-.144-.864-.288-.168-.168-.3-.36-.396-.576a2.54 2.54 0 00-.18-.252v-.144c.024-.024.036-.06.036-.108-.024-.024-.036-.06-.036-.108a.58.58 0 01.072-.252c-.024-.024-.036-.06-.036-.108v-.108c.024-.024.036-.06.036-.108 0-.024-.012-.048-.036-.072v-.072c.072-.312.264-.576.576-.792.336-.216.672-.324 1.008-.324.384 0 .744.036 1.08.108.336.048.636.072.9.072.024-.96.156-1.86.396-2.7.24-.864.576-1.608 1.008-2.232a4.75 4.75 0 011.584-1.512c.648-.384 1.392-.576 2.232-.576.192 0 .36.024.504.072.168.024.276.06.324.108l.576.216.36.144c.144.048.252.12.324.216.144.096.264.216.36.36.12.144.24.3.36.468.312.48.468 1.068.468 1.764 0 .576-.144 1.164-.432 1.764a7.384 7.384 0 01-1.08 1.728 9.648 9.648 0 01-1.62 1.476c-.6.432-1.236.804-1.908 1.116.432.48 1.02.72 1.764.72.624 0 1.164-.036 1.62-.108a7.162 7.162 0 011.476-.144c.144 0 .288.024.432.072.168.024.288.048.36.072 0 .048.048.108.144.18.096.072.18.18.252.324a.32.32 0 01.036.144.32.32 0 01-.036.144c-.024.024-.036.06-.036.108s.012.084.036.108c-.048.048-.072.144-.072.288 0 .096.012.168.036.216-.048.048-.108.12-.18.216a.639.639 0 00-.072.288c0 .072.012.12.036.144-.096.048-.384.252-.864.612a1.8 1.8 0 01-.252.18l-.216.108a.4.4 0 01-.18.036.32.32 0 00-.144.036c-.096 0-.156.012-.18.036-.024 0-.048-.012-.072-.036h-.108c0 .024-.012.036-.036.036l-.144-.072h-.576a3.459 3.459 0 01-.252.072 1.515 1.515 0 01-.36.036c-.12.024-.3.036-.54.036-.912 0-1.812-.264-2.7-.792-.864-.528-1.536-1.284-2.016-2.268h-.504zm5.148-6.984a.501.501 0 00-.216-.036c-.336 0-.66.18-.972.54a4.934 4.934 0 00-.72 1.116c-.096.24-.192.504-.288.792a8.858 8.858 0 00-.18.972 2.31 2.31 0 00.9-.288c.312-.192.6-.408.864-.648.288-.264.516-.54.684-.828.192-.312.288-.624.288-.936 0-.24-.072-.432-.216-.576l-.144-.108z" fill="#fff"/><defs><radialGradient id="paint0_radial" cx="0" cy="0" r="1" gradientUnits="userSpaceOnUse" gradientTransform="rotate(72.62 -14.514 145.773) scale(122.293 124.798)"><stop stop-color="#407B9A" stop-opacity=".9"/><stop offset=".645" stop-color="#3682A1"/><stop offset=".947" stop-color="#C6DDEE" stop-opacity=".8"/><stop offset="1" stop-color="#fff" stop-opacity=".8"/></radialGradient><linearGradient id="paint1_linear" x1="202.857" y1="50.783" x2="173.832" y2="74.175" gradientUnits="userSpaceOnUse"><stop stop-color="#fff"/><stop offset=".475" stop-color="#D4EFFD" stop-opacity=".5"/><stop offset="1" stop-color="#3699D6" stop-opacity="0"/></linearGradient></defs></svg>