<svg width="118" height="103" fill="none" xmlns="http://www.w3.org/2000/svg"><path opacity=".42" d="M80 79.446c13.244-2.389 26.678-11.38 30.703-20.435 4.099-9.018-1.603-14.107-10.547-21.893-5.502-4.738-15.445-9-23.297-11.64-14.586-4.891-14.07-6.31-31.823-7.832-7.06-.655-13.269-.387-17.894 1.589-3.334 1.444-9.56 5.137-12.7 10.527-6.717 11.655-2.772 28.765 10.982 39.104 17.221 13.147 27.257 15.53 54.577 10.58z" fill="url(#paint0_radial)" stroke="#fff" stroke-width=".892" stroke-miterlimit="10"/><path opacity=".33" d="M22.354 53.195c-.609-1.223-2.602-8.323-2.227-11.151.266-2.045 1.099-10.507 5.557-13.653 3.325-2.37 4.542-3.691 10.851-2.654.7.096 4.11 1.703 3.443 3.047-1.383 2.412-5.316 7.325-6.373 15.675-.3 2.112.1 8.088.651 10.37.2 1.104.835 5.102.168 5.693-3.292 3.055-10.861-5.053-12.07-7.327z" fill="url(#paint1_linear)"/><path opacity=".5" d="M26.888 51.024A15.769 15.769 0 0126 49.416a114.11 114.11 0 01-.792-1.752 1.065 1.065 0 00-.096-.192c-.016-.048-.064-.072-.144-.072a.967.967 0 00-.096.288l-.12.48c-.032.176-.072.368-.12.576-.032.192-.056.36-.072.504l-.24 1.776-.24 2.064a90.156 90.156 0 01-.192 1.872c-.048.544-.072.896-.072 1.056 0 .224-.032.416-.096.576a1.511 1.511 0 01-.168.36.514.514 0 01-.288.168 2.046 2.046 0 01-.432.12.656.656 0 00-.144.024.453.453 0 01-.144.024c-.176 0-.336-.096-.48-.288a.954.954 0 00-.12-.144.938.938 0 01-.072-.192 1.728 1.728 0 01-.096-.36v-.288a.842.842 0 01-.024-.24v-.144c0-.064.008-.128.024-.192l.096-.792c.032-.224.056-.48.072-.768.016-.288.04-.568.072-.84a15.1 15.1 0 00.072-.912l.048-.912c.016-.304.024-.584.024-.84.016-.256.032-.48.048-.672v-.672c.016-.272.024-.544.024-.816.016-.272.024-.528.024-.768v-.576a5.06 5.06 0 00-.024-.576 4.161 4.161 0 00-.048-.336v-.144c0-.064.008-.128.024-.192l.096-.144c.032-.032.056-.048.072-.048.016 0 .032-.016.048-.048a.473.473 0 01.168-.12c.048-.048.096-.072.144-.072.096 0 .168.008.216.024l.336.384c.16-.4.376-.792.648-1.176.288-.4.584-.656.888-.768h.024c.016-.016.04-.024.072-.024.016 0 .032.008.048.024h.072c.256 0 .456.064.6.192.16.112.304.184.432.216.112.16.232.384.36.672.128.288.256.6.384.936.128.336.264.688.408 1.056.16.368.32.704.48 1.008.096.176.2.392.312.648.128.256.256.528.384.816.144.272.28.536.408.792.144.256.264.472.36.648.064-.128.16-.344.288-.648.144-.304.296-.648.456-1.032.176-.384.344-.776.504-1.176.176-.416.336-.8.48-1.152.208-.512.432-.976.672-1.392.24-.432.448-.712.624-.84a.894.894 0 01.528-.192c.224 0 .448.056.672.168.224.112.4.28.528.504a3.4 3.4 0 01.288.936c.064.352.136.72.216 1.104.08.416.168.944.264 1.584a284.548 284.548 0 01.552 3.864c.08.592.152 1.048.216 1.368.08.448.16.832.24 1.152.096.32.192.608.288.864.096.24.192.472.288.696l.36.672c.08.08.16.152.24.216.096.08.184.136.264.168.032.112.096.232.192.36.112.128.216.304.312.528a.213.213 0 01-.024.096v.264a.395.395 0 01.024.12.163.163 0 01-.048.12.453.453 0 010 .288v.192a.744.744 0 01-.048.144.376.376 0 01-.072.096.213.213 0 00-.024.096c0 .048-.008.08-.024.096a.213.213 0 01-.096.024c-.032 0-.056.016-.072.048a.651.651 0 01-.48.192c-.176 0-.392-.048-.648-.144a7.046 7.046 0 01-.672-.288.351.351 0 01-.12-.168.351.351 0 00-.12-.168l-.12-.12a.412.412 0 01-.12-.12 3.002 3.002 0 00-.288-.384 1.015 1.015 0 01-.24-.36 7.662 7.662 0 01-.336-1.128 22.227 22.227 0 00-.36-1.32l-.216-.84a17.005 17.005 0 01-.288-1.512 547.097 547.097 0 01-.384-3.456 37.214 37.214 0 00-.216-1.632c-.032-.128-.056-.192-.072-.192-.032 0-.056.024-.072.072 0 .032-.016.064-.048.096-.144.272-.32.608-.528 1.008-.192.4-.4.816-.624 1.248a46.42 46.42 0 01-.648 1.248c-.224.4-.432.736-.624 1.008-.144.224-.312.376-.504.456a1.536 1.536 0 01-.528.096c-.144 0-.304-.056-.48-.168a1.548 1.548 0 01-.456-.456 67.653 67.653 0 01-.288-.456c-.08-.144-.16-.28-.24-.408a5.232 5.232 0 00-.288-.456l-.36-.6zm18.251 5.136c-.016.08-.024.152-.024.216v.168c0 .08-.008.152-.024.216v.168a.213.213 0 01-.024.096v.12c0 .064.008.112.024.144a.296.296 0 01.048.168.566.566 0 01-.072.24c-.048.096-.08.176-.096.24a1.235 1.235 0 01-.096.24c-.048.064-.096.096-.144.096a.878.878 0 00-.168.144c-.048.064-.128.096-.24.096a.426.426 0 01-.192-.048.304.304 0 00-.144-.072.356.356 0 01-.168-.096.872.872 0 01-.192-.216 2.17 2.17 0 00-.192-.288 1.593 1.593 0 01-.168-.336 2.049 2.049 0 01-.144-.768V56.4c0-.112.008-.208.024-.288 0-.096.008-.2.024-.312-.128.16-.28.344-.456.552a5.01 5.01 0 01-.6.552c-.224.176-.48.32-.768.432a2.116 2.116 0 01-.912.192 1.51 1.51 0 01-.792-.216 1.964 1.964 0 01-.624-.528 3.09 3.09 0 01-.528-1.728c0-.496.064-.968.192-1.416.144-.448.336-.88.576-1.296l.264-.384c.016-.032.08-.104.192-.216l.36-.408c.128-.144.264-.28.408-.408.144-.128.264-.232.36-.312l.384-.288c.24-.144.512-.296.816-.456.24-.112.424-.176.552-.192.144-.032.288-.048.432-.048.336 0 .664.064.984.192.336.128.624.288.864.48.032.304.048.632.048.984l.048 1.008.096 1.68c.048.56.072 1.144.072 1.752v.432zm-2.328-4.44c-.4.08-.776.256-1.128.528a3.845 3.845 0 00-.816.888c-.16.24-.288.496-.384.768-.08.256-.12.544-.12.864 0 .176.04.32.12.432.08.096.192.144.336.144.208 0 .416-.056.624-.168.224-.128.424-.272.6-.432.176-.176.328-.352.456-.528.144-.192.24-.352.288-.48l.192-.432c.064-.144.12-.376.168-.696.016-.08.024-.2.024-.36.016-.16.024-.304.024-.432a.682.682 0 00-.384-.096zm14.444 6.504c-.16 0-.344-.048-.552-.144-.192-.08-.288-.232-.288-.456-.128 0-.256-.168-.384-.504a8.684 8.684 0 01-.312-1.272 34.324 34.324 0 01-.264-1.8 42.92 42.92 0 01-.192-2.016l-1.104 3c-.128.4-.4.6-.816.6a.94.94 0 01-.504-.12c-.112-.08-.24-.248-.384-.504a22.081 22.081 0 01-.84-1.728 54.288 54.288 0 01-.72-1.752c-.08.368-.16.752-.24 1.152-.064.4-.12.8-.168 1.2-.064.464-.104.904-.12 1.32-.016.416-.04.76-.072 1.032a.744.744 0 01-.048.168.213.213 0 01-.024.096c-.016.032-.04.048-.072.048.032.048.064.104.096.168a.426.426 0 01.048.192c0 .176-.04.336-.12.48-.064.144-.136.232-.216.264-.048.128-.128.208-.24.24a.84.84 0 01-.624.024.59.59 0 00-.216-.048h-.072c-.016.016-.032.024-.048.024-.032 0-.056-.016-.072-.048a.157.157 0 00-.072-.072.522.522 0 01-.192-.216l-.072-.072c-.016-.016-.032-.056-.048-.12a1.41 1.41 0 01-.048-.336c0-.128.024-.288.072-.48.048-.192.08-.4.096-.624.032-.416.08-.904.144-1.464.064-.576.136-1.16.216-1.752.08-.592.168-1.168.264-1.728.112-.56.224-1.048.336-1.464a4.35 4.35 0 01.12-.432c.048-.144.112-.264.192-.36.096-.112.208-.2.336-.264.144-.08.328-.12.552-.12.24 0 .416.056.528.168a1.6 1.6 0 01.336.456c.144.32.32.72.528 1.2.224.48.432.944.624 1.392.224.528.456 1.072.696 1.632.176-.56.368-1.136.576-1.728l.6-1.632a2.72 2.72 0 01.216-.432.792.792 0 01.408-.336c.16-.24.376-.36.648-.36.128 0 .24.016.336.048.112.032.216.064.312.096s.176.08.24.144c.064.064.12.136.168.216a.914.914 0 01.096.24c.032.112.056.232.072.36.032.112.048.224.048.336.016.112.024.2.024.264.032.512.056 1 .072 1.464.032.448.088.952.168 1.512.08.56.176 1.088.288 1.584.112.496.288.952.528 1.368.08.096.136.192.168.288.032.096.048.256.048.48 0 .16-.016.272-.048.336a.476.476 0 01-.144.168.39.39 0 01-.168.336.54.54 0 01-.192.096 3.68 3.68 0 00-.192.072.606.606 0 00-.144.072.296.296 0 01-.168.048zm6.236-.744c-.464 0-.864-.08-1.2-.24a2.368 2.368 0 01-.792-.624 3.292 3.292 0 01-.48-.864 3.326 3.326 0 01-.144-.96c0-.496.096-.952.288-1.368a6.35 6.35 0 01.696-1.2c.096-.128.208-.272.336-.432.144-.176.288-.336.432-.48.16-.16.312-.304.456-.432.144-.128.272-.216.384-.264.224-.112.384-.216.48-.312a.616.616 0 01.456-.168c.384 0 .728.096 1.032.288.304.176.56.416.768.72.208.304.36.648.456 1.032.112.384.168.776.168 1.176 0 1.264-.28 2.272-.84 3.024-.56.736-1.392 1.104-2.496 1.104zm.576-5.28a.789.789 0 00-.192.024.23.23 0 00-.168.072 2.924 2.924 0 00-.312.36c-.08.096-.184.256-.312.48-.08.144-.152.336-.216.576a3.557 3.557 0 00-.072.744c0 .272.072.496.216.672.144.16.376.24.696.24.192 0 .384-.048.576-.144.192-.112.36-.256.504-.432.144-.176.264-.384.36-.624.096-.24.144-.496.144-.768 0-.304-.096-.576-.288-.816-.192-.256-.432-.384-.72-.384h-.216zm11.518 5.808c-.32 0-.48-.296-.48-.888v-.48c.016-.176.048-.36.096-.552.032-.176.064-.344.096-.504.032-.16.056-.392.072-.696v-.624c0-.208.008-.4.024-.576-.24.016-.504.032-.792.048-.272 0-.528.008-.768.024-.24 0-.456.008-.648.024h-.336a5.894 5.894 0 01-.408.048h-.6v.72c.016.24.024.496.024.768v.312c0 .144-.016.488-.048 1.032 0 .352-.048.632-.144.84a.272.272 0 01-.096.096.376.376 0 00-.072.096.301.301 0 00-.072.12.163.163 0 01-.048.12c-.128.096-.296.144-.504.144-.08 0-.16-.008-.24-.024h-.216c-.272 0-.44-.072-.504-.216-.048-.128-.072-.424-.072-.888v-.384c.016-.192.032-.328.048-.408.048-.448.08-.8.096-1.056.016-.272.024-.568.024-.888v-.336c-.08.016-.152.024-.216.024h-.192a.789.789 0 00-.192.024c-.016-.032-.056-.064-.12-.096-.048-.032-.072-.112-.072-.24 0-.112-.016-.2-.048-.264a1.221 1.221 0 01-.024-.24c0-.128.032-.248.096-.36a1.19 1.19 0 01.216-.312.483.483 0 01.264-.144c.112-.032.216-.056.312-.072l.048-1.272c.032-.464.064-.944.096-1.44.032-.272.056-.512.072-.72a.88.88 0 01.24-.504 1.02 1.02 0 01.264-.168c.08-.032.208-.048.384-.048.4 0 .664.104.792.312.144.192.216.504.216.936 0 .112-.008.224-.024.336-.016.112-.04.232-.072.36a2.74 2.74 0 00-.024.384c0 .128-.008.264-.024.408v.432l-.048.888c.144 0 .256-.008.336-.024l3.192-.192v-.624c.016-.128.024-.256.024-.384l-.072-1.32c.016-.352.072-.64.168-.864.096-.24.272-.4.528-.48a.722.722 0 00.12-.024h.144a1.349 1.349 0 01.504 0c.08.016.176.056.288.12.128.08.192.176.192.288 0 .032.008.064.024.096.032.032.048.064.048.096 0 .096.016.168.048.216.032.032.048.096.048.192a.395.395 0 01-.024.12v.12c.016.016.024.08.024.192 0 .08-.008.152-.024.216 0 .064-.008.136-.024.216-.032.224-.072.52-.12.888a28.36 28.36 0 00-.12 1.008 58.466 58.466 0 00-.096 1.848c-.032.8-.048 1.728-.048 2.784 0 .416-.04.736-.12.96-.064.224-.32.368-.768.432a1.9 1.9 0 01-.312.024h-.336zm8.562.312c-.128 0-.248-.008-.36-.024a.775.775 0 01-.288-.048 1.702 1.702 0 00-.216-.072c-.048-.016-.088-.064-.12-.144-.032-.08-.056-.2-.072-.36a3.909 3.909 0 01-.024-.432c0-.352.008-.648.024-.888.032-.256.064-.48.096-.672.032-.192.056-.368.072-.528.032-.16.048-.336.048-.528v-2.592c.016-.288.032-.528.048-.72l.048-.648-1.872.168c-.176.016-.384.04-.624.072a3.897 3.897 0 01-.48.048.431.431 0 01-.384-.192.787.787 0 00-.096-.12.43.43 0 01-.12-.24 1.749 1.749 0 01-.024-.288.744.744 0 00-.048-.144v-.12c0-.112.032-.216.096-.312a.258.258 0 00.048-.144.301.301 0 01.072-.12 2.56 2.56 0 01.648-.168c.24-.048.472-.088.696-.12.192-.032.408-.064.648-.096.24-.032.472-.064.696-.096.24-.032.456-.056.648-.072.192-.016.344-.032.456-.048.992-.096 1.76-.168 2.304-.216.56-.048.968-.08 1.224-.096.272-.032.44-.048.504-.048a.722.722 0 01.12-.024c.08 0 .152.008.216.024h.216c.064 0 .104.04.12.12a4.968 4.968 0 00.24.408c.048.032.072.072.072.12 0 .064-.008.12-.024.168a.624.624 0 00-.024.192v.192c.016.064.024.12.024.168 0 .112-.064.208-.192.288a.215.215 0 00-.12.144c-.016.048-.064.088-.144.12-.24.112-.64.168-1.2.168-.304 0-.608.008-.912.024-.304.016-.592.04-.864.072-.016.096-.024.24-.024.432s-.008.472-.024.84l-.048.84c-.016.144-.032.336-.048.576-.016.24-.032.504-.048.792l-.048.816v1.344c.016.24.024.52.024.84 0 .16-.008.32-.024.48a1.39 1.39 0 01-.096.408 1.174 1.174 0 00-.072.12.163.163 0 01-.048.12c-.016.016-.088.04-.216.072a.931.931 0 01-.12.048c-.032.032-.064.048-.096.048a.656.656 0 00-.144.024.453.453 0 01-.144.024zm16.546-.216a.395.395 0 01-.12-.024h-.12a.789.789 0 01-.192-.024h-.216c-.032 0-.056-.008-.072-.024-.016-.016-.04-.024-.072-.024a.473.473 0 00-.168-.12c-.048 0-.096-.024-.144-.072a.163.163 0 01-.048-.12.163.163 0 00-.048-.12l-.096-.096c-.032-.032-.048-.08-.048-.144 0-.752.024-1.352.072-1.8.064-.448.104-.872.12-1.272l.072-2.016.048-1.152c.032-.416.064-.848.096-1.296.032-.224.056-.432.072-.624.032-.192.072-.36.12-.504a.941.941 0 01.096-.216.705.705 0 01.192-.168l.096-.096a.23.23 0 01.168-.072c.032 0 .064.008.096.024h.144a.453.453 0 00.144-.024.656.656 0 01.144-.024c.08 0 .184.016.312.048a.29.29 0 01.168.168c.032.016.08.088.144.216.064.096.096.232.096.408 0 .384-.016.8-.048 1.248a34.2 34.2 0 01-.168 1.656l-.24 2.232c0 .32.008.624.024.912.016.288.024.52.024.696 0 .064-.008.152-.024.264v.336a3.909 3.909 0 00-.024.432c0 .128-.016.272-.048.432a1.83 1.83 0 01-.072.384c0 .112-.008.2-.024.264-.048.144-.136.216-.264.216-.016.032-.048.056-.096.072a.213.213 0 01-.096.024zm-7.152.12c-.384 0-.768-.04-1.152-.12a3.468 3.468 0 01-1.008-.384 2.211 2.211 0 01-.72-.72c-.176-.304-.264-.68-.264-1.128 0-.4.016-.824.048-1.272.048-.464.104-.928.168-1.392.064-.464.128-.912.192-1.344a26.563 26.563 0 00.288-2.04c.048-.304.096-.544.144-.72.064-.208.168-.384.312-.528.08-.08.184-.12.312-.12a.213.213 0 00.096-.024.233.233 0 01.12-.048c.032 0 .064.008.096.024h.12a.453.453 0 00.144-.024.395.395 0 01.12-.024c.144 0 .288.048.432.144.144.08.256.208.336.384.032.064.048.184.048.36a.979.979 0 01-.168.576c-.112.144-.184.344-.216.6l-.24 1.608c.112-.016.24-.04.384-.072.128-.032.272-.056.432-.072.16-.016.352-.024.576-.024.496 0 .96.048 1.392.144.432.08.808.248 1.128.504.08.064.16.152.24.264.096.112.144.216.144.312a.954.954 0 01.144.12c.032.032.064.08.096.144.048.064.08.136.096.216 0 .272.032.504.096.696.064.176.096.392.096.648 0 .528-.112 1-.336 1.416-.208.416-.496.76-.864 1.032a3.54 3.54 0 01-1.272.648 5.567 5.567 0 01-1.56.216zm-.264-1.752h.456c.144 0 .28-.016.408-.048l.144-.096.096-.048c.032-.032.064-.048.096-.048.08-.016.144-.024.192-.024.048 0 .112-.04.192-.12a.521.521 0 00.192-.096c.048-.032.128-.136.24-.312.112-.208.168-.488.168-.84 0-.288-.048-.512-.144-.672a.895.895 0 00-.408-.36 1.242 1.242 0 00-.552-.168 4.258 4.258 0 00-.648-.048c-.448 0-.824.064-1.128.192a6.07 6.07 0 00-.192 1.608c0 .08.008.184.024.312s.048.248.096.36a.903.903 0 00.264.288.94.94 0 00.504.12z" fill="#fff"/><defs><radialGradient id="paint0_radial" cx="0" cy="0" r="1" gradientUnits="userSpaceOnUse" gradientTransform="matrix(-3.45517 -33.61861 50.12994 -5.15213 62.844 50.534)"><stop stop-color="#407B9A"/><stop offset=".645" stop-color="#3682A1"/><stop offset=".941" stop-color="#C6DDEE" stop-opacity=".8"/><stop offset="1" stop-color="#fff" stop-opacity=".8"/></radialGradient><linearGradient id="paint1_linear" x1="22.948" y1="39.444" x2="42.795" y2="47.229" gradientUnits="userSpaceOnUse"><stop stop-color="#fff"/><stop offset=".475" stop-color="#D4EFFD" stop-opacity=".5"/><stop offset="1" stop-color="#3699D6" stop-opacity="0"/></linearGradient></defs></svg>