<svg width="234" height="241" fill="none" xmlns="http://www.w3.org/2000/svg"><g clip-path="url(#clip0)"><path d="M103.408 180.75H81.596c-8.009 0-14.51 6.495-14.51 14.497v16.098h99.828v-16.098c0-8.002-6.501-14.497-14.51-14.497h-48.996z" fill="#F9AC30"/><path d="M227.781 33.043c-7.49-11.72-20.634-18.216-36.982-18.216H43.248c-16.348 0-29.492 6.448-36.982 18.216-8.15 12.709-8.339 29.513-.613 46.176 14.228 30.596 59.124 40.81 61.009 41.233l4.381.942h91.914l4.381-.942c1.884-.423 46.781-10.637 61.009-41.233 7.773-16.663 7.537-33.467-.566-46.176zM214.92 73.006c-5.701 12.285-19.033 20.57-29.209 25.37a118.072 118.072 0 01-11.589 4.707H59.878a118.064 118.064 0 01-11.59-4.707c-10.175-4.8-23.508-13.085-29.208-25.37-5.56-11.956-5.7-23.63-.377-31.961 4.711-7.343 13.427-11.391 24.545-11.391h147.504c11.118 0 19.834 4.048 24.498 11.344 5.37 8.378 5.229 20.005-.33 32.008z" fill="#DD8D19"/><path d="M127.388 180.75v-14.357c0-10.355 5.371-20.005 14.275-25.23 28.408-16.663 48.712-61.38 48.712-113.91V0H43.672v27.206c0 52.53 20.352 97.247 48.713 113.91 8.904 5.225 14.274 14.922 14.274 25.23v14.356l11.872 12.286 8.857-12.238z" fill="#F9AC30"/><path d="M112.077 166.346v14.356h-5.418v-14.356c0-10.355-5.37-20.005-14.274-25.23-28.408-16.663-48.713-61.38-48.713-113.91V0h38.254v27.206c0 52.53 9.752 97.247 23.32 113.91 4.24 5.225 6.831 14.922 6.831 25.23zm1.131 14.404H81.596c-8.009 0-14.51 6.495-14.51 14.497v16.098h31.611v-16.098c0-8.002 6.502-14.497 14.511-14.497z" fill="#DD8D19"/><path d="M99.64 203.438H61.526a8.22 8.22 0 00-8.245 8.237V241h127.482v-29.325a8.219 8.219 0 00-8.244-8.237h-38.113" fill="#4F5B5E"/><path d="M71.373 203.438H61.48a8.22 8.22 0 00-8.245 8.237V241h9.894v-29.325c0-4.566 3.721-8.237 8.244-8.237z" fill="#3B4547"/></g><defs><clipPath id="clip0"><path fill="#fff" d="M0 0h234v241H0z"/></clipPath></defs></svg>