<svg width="453" height="528" fill="none" xmlns="http://www.w3.org/2000/svg"><g opacity=".3"><path d="M292.509 209.001c.65-2.107 3.902-2.528 5.528-2.107.325 0 .65.422.976.843 0-.421 0-1.264.325-1.685.975-2.529 2.926-4.635 5.203-4.635.65 0 1.301.421 1.951.842 3.902-4.213 7.479-8.427 11.056-12.641.651-3.792 3.578-7.163 6.179-8.427 24.389-35.816 26.991-76.267-39.023-89.75-88.777-18.12-143.734 74.581-164.547 164.331-20.812 89.751-32.844 164.754-26.665 170.232 3.577 2.949 12.357-7.164 23.739-23.597-5.203-.421-10.406-2.949-12.683-8.427-5.853-14.748 14.959-19.804 22.113-14.748a11.234 11.234 0 013.577 3.792 241.838 241.838 0 0010.406-16.011c-2.276.842-4.227.842-5.528-1.265-1.626-2.949-.65-7.163 1.301-9.691 1.951-2.528 4.553-4.214 7.479-2.949 1.626.842 2.602 2.528 2.602 5.056 3.577-5.899 7.479-11.377 11.056-16.855-2.601.422-3.577-2.528-3.577-5.899s1.301-7.584 3.577-10.112c1.301-1.686 3.903-3.371 5.203-.843.976 1.685.976 5.478.326 8.427 7.479-10.955 14.308-20.225 20.162-25.703-2.927 2.528-7.48 2.528-7.155-2.95.325-4.213 2.277-8.427 5.203-10.534 2.277-1.264 5.203-.842 6.179 2.528.976 2.95-.976 6.742-2.927 9.27l-.325.422c2.602-2.528 4.878-4.214 6.829-5.057 2.927-.842 6.179-2.106 9.431-4.213 0-.422-.326-.843-.326-1.686-.975-5.899 2.277-11.376 6.504-13.062 3.903-2.107 9.106-2.528 12.683.843 4.552-3.793 9.43-8.428 14.308-13.063 0-.421 0-1.264.325-1.685.651-2.528 2.277-6.32 4.878-6.742.976 0 1.626.422 2.277 1.264 4.877-4.635 9.755-9.691 14.958-14.747.651-.843 1.626-1.686 2.602-2.529 4.878-4.635 10.081-9.691 15.284-14.747-.325-.422-.976-.843-1.301-1.264-2.927-5.478 3.577-13.484 7.48-13.063 1.625.422 3.577 1.686 3.577 4.635v.422l8.78-7.585c.65-.421 1.301-1.264 1.951-1.685-1.626 1.264-2.927 0-1.951-2.95zM144.547 352.265c-1.626-2.95 0-12.22 3.902-10.534.65.421 1.626 1.264 1.951 2.107.325.842.325 2.106.325 3.792-.325 3.792-4.227 9.27-6.178 4.635zm10.406-32.445c-.325 2.528-3.577 6.742-4.553 3.371-.65-2.107 1.951-8.006 3.902-6.742 1.301.421.976 2.107.651 3.371zm9.756-9.27c-.651 1.685-1.952 4.213-2.927 4.635-2.276 1.264-4.228-1.264-4.228-4.214 0-2.949 1.301-6.32 3.252-8.006 1.301-1.264 3.577-2.528 4.878-.421.976 2.107-.325 5.899-.975 8.006zm22.438-25.282c.65-2.107 3.902-2.528 5.528-2.107.976.421 1.951 2.107 1.626 4.214-.325 2.949-9.431 3.792-7.154-2.107zm11.707-10.956c-7.155 6.321-20.813 5.9-25.04-4.213-5.853-14.748 14.959-19.804 22.113-14.748 2.602 1.686 5.203 5.478 6.179 9.27.65 4.214-1.952 8.427-3.252 9.691zm112.191-118.403c1.951-2.528 4.552-4.213 7.479-2.949 1.626.842 2.927 3.371 2.602 5.899-.326 5.056-8.455 11.798-11.382 6.32-1.626-2.528-.65-7.163 1.301-9.27zm-106.988 85.537c-1.626-2.949-.651-7.163 1.301-9.691 1.951-2.528 4.552-4.214 7.479-2.95 1.626.843 2.927 3.371 2.601 5.899-.325 5.899-8.455 12.22-11.381 6.742zm15.609 28.231c-1.951 2.107-5.203 3.371-7.154 0-2.927-5.477 3.577-13.483 7.479-13.062 1.626.422 3.577 1.686 3.577 4.635.325 4.214-2.601 7.163-3.902 8.427zm10.406-24.017c-3.902-2.107-1.301-8.849 1.626-9.27 1.626-.422 3.577 1.685 3.577 4.635 0 3.371-3.252 5.477-5.203 4.635zm16.585 2.528c-1.301 3.371-3.577 6.742-5.854 5.056-1.951-1.264-2.601-5.477-1.626-8.006.976-2.528 2.927-4.635 5.203-4.635 1.626 0 3.578 1.264 2.927 4.214v.843c1.301-1.264 3.577-2.107 5.203-1.264.976.421 1.951 2.106 1.626 4.213 0 2.107-7.154 2.95-7.479-.421zm12.032-13.484c-7.154 6.321-20.812 5.899-25.04-4.213-5.853-14.748 14.959-19.804 22.113-14.748 2.602 1.685 5.203 5.478 6.179 9.27.975 4.214-1.626 8.427-3.252 9.691zm16.91-38.765c-.325 5.056-8.455 11.798-11.382 6.32-1.626-2.949-.65-7.163 1.301-9.691 1.951-2.528 4.553-4.214 7.479-2.95 1.626.843 2.927 3.371 2.602 6.321zm14.633 10.534c-1.951-.843-2.276-2.95-1.626-4.635-3.902-1.264-7.479-3.792-9.105-8.006-5.853-14.748 14.959-19.804 22.113-14.748 2.602 1.686 5.203 5.478 6.179 9.27.975 4.214-1.626 8.428-3.252 9.692-2.277 2.106-5.528 3.371-9.105 3.792-.651 3.371-3.252 5.478-5.204 4.635z" fill="#CFDCE4"/><path d="M160.806 302.963c-1.951 1.686-3.577 5.057-3.252 8.006 0 2.95 1.951 5.478 4.228 4.214 1.301-.843 2.601-3.371 2.927-4.635.65-2.107 1.951-5.899.975-7.585-.975-2.528-3.252-1.264-4.878 0z" fill="#90A2A3"/><path d="M187.472 297.066c-.976-3.371-3.903-3.792-6.179-2.528-2.927 1.685-4.878 6.32-5.203 10.533-.325 5.477 3.902 5.477 7.154 2.949l.976-1.263.325-.422c1.626-2.528 3.577-6.32 2.927-9.269z" fill="#708283"/><path d="M162.433 325.299c-1.301-2.528-3.903-.843-5.204.843-1.951 2.528-3.251 6.742-3.577 10.113 0 3.371.976 5.899 3.577 5.899 1.952-2.95 3.903-5.478 5.529-8.428.65-3.371.65-6.741-.325-8.427z" fill="#90A2A3"/><path d="M150.401 323.19c.975 3.371 4.227-.843 4.552-3.371 0-1.264.326-2.95-.65-3.792-1.951-1.264-4.553 4.635-3.902 7.163z" fill="#708283"/><path d="M148.449 341.731c-3.902-1.685-5.528 7.585-3.902 10.534 1.951 4.635 5.853-.842 6.178-4.635 0-1.685 0-2.949-.325-3.792-.65-.843-1.301-1.685-1.951-2.107zm-43.9 52.671c2.276 5.478 7.154 8.006 12.682 8.427 4.228-5.898 8.455-12.219 13.008-19.382a11.254 11.254 0 00-3.577-3.792c-7.48-5.056-28.292 0-22.113 14.747z" fill="#90A2A3"/><path d="M143.571 353.53c-2.926-1.265-5.528 0-7.479 2.949-1.626 2.107-2.927 6.743-1.301 9.693 1.301 2.107 3.577 2.107 5.528 1.264 1.952-2.95 3.903-5.9 5.529-8.85.325-2.107-.651-4.214-2.277-5.056z" fill="#708283"/><path d="M195.602 255.351c-7.154-5.478-27.967 0-22.113 14.747 4.227 10.113 18.211 10.956 25.04 4.214 1.3-1.264 4.227-5.478 3.252-9.691-.976-3.793-3.578-7.585-6.179-9.27z" fill="#90A2A3"/><path d="M220.316 257.036c-4.227-.842-10.406 7.584-7.479 13.062 1.626 2.949 5.203 2.107 7.154 0 1.301-1.264 4.228-4.214 3.903-8.006 0-3.37-1.952-4.634-3.578-5.056zm-4.878-21.91c.326-2.949-.975-5.056-2.601-5.899-2.927-1.264-5.528 0-7.479 2.95-1.626 2.107-2.927 6.742-1.301 9.691 2.926 5.056 11.056-1.264 11.381-6.742z" fill="#708283"/><path d="M246.982 246.082c0-.422.325-.422.325-.843v-.843c.326-2.949-1.625-4.213-2.926-4.213-2.277 0-4.228 2.106-5.203 4.635-.976 2.528-.325 6.32 1.626 8.006 2.276 1.685 4.552-1.686 5.853-5.057 0-.421.325-.842.325-1.685zm-8.455 16.433c-2.276 0-4.227 4.214-4.878 6.742 0 .421-.325 1.264-.325 1.686 2.277-2.107 4.878-4.636 7.48-7.164-.651-.843-1.301-1.264-2.277-1.264z" fill="#90A2A3"/><path d="M258.363 246.503c-.975.843-1.626 1.685-2.601 2.527.975-.842 1.951-1.684 2.601-2.527zm-52.03 36.657c-4.228 2.107-7.155 7.164-6.504 13.063 0 .421.325.842.325 1.685 5.853-3.371 12.032-8.006 18.861-13.905-3.577-3.371-8.78-2.949-12.682-.843z" fill="#708283"/><path d="M192.675 283.161c-1.626-.421-4.877 0-5.528 2.107-2.276 5.898 6.829 5.055 7.154 2.106.326-1.685-.65-3.791-1.626-4.213zm39.023-46.771c-2.927.421-5.529 7.163-1.626 9.27 1.951.843 5.203-1.264 5.203-4.635 0-2.95-1.626-5.057-3.577-4.635zm24.064-20.646c-7.154-5.478-27.966 0-22.113 14.747 4.227 10.113 18.211 10.955 25.04 4.214 1.3-1.264 4.227-5.478 3.251-9.691-.975-3.371-3.902-7.163-6.178-9.27z" fill="#90A2A3"/><path d="M280.477 217.849c-4.228-.842-10.407 7.585-7.48 13.063.325.421.651.843 1.301 1.264l9.756-8.849v-.421c-.325-3.793-1.951-5.057-3.577-5.057zm-7.805-27.808c-2.927-1.264-5.528 0-7.479 2.949-1.626 2.107-2.927 6.741-1.301 9.691 2.926 5.056 11.056-1.264 11.381-6.32.651-3.371-.65-5.899-2.601-6.32z" fill="#708283"/><path d="M299.338 206.051c-.325.422-.325 1.265-.325 1.686.325.422.325.843.65 1.264 2.276-2.107 4.878-4.635 7.154-7.164-.65-.421-1.3-.843-1.951-.843-2.601.422-4.553 2.529-5.528 5.057zm-46.827 37.923c-1.301-.422-3.903 0-5.203 1.264-.326.843-.326 1.685-.651 2.528.325 3.792 7.155 2.528 7.48 0 .325-1.685-.651-3.371-1.626-3.792z" fill="#90A2A3"/><path d="M246.982 246.082c-.325.842-.325 1.263-.325 2.106.325-.843.65-1.685.65-2.528l-.325.422zm48.454-44.245c-2.277.421-4.878 0-6.83-.421-.325 1.685 0 3.792 1.626 4.635 1.952 1.264 4.553-.843 5.204-4.214z" fill="#90A2A3"/><path d="M291.859 197.204c1.626-.422 3.577 1.685 3.577 4.635v.421c3.252-.421 6.504-1.685 9.105-3.792 1.301-1.264 4.228-5.478 3.252-9.692-.975-3.792-3.902-7.584-6.179-9.27-7.154-5.478-27.966 0-22.112 14.748 1.626 4.214 5.203 6.742 9.105 8.006.325-2.949 1.626-5.056 3.252-5.056z" fill="#90A2A3"/><path d="M295.435 201.837c.326-3.371-1.626-5.056-3.577-5.056-1.626.421-2.926 2.107-3.577 4.634 2.277.843 4.553.843 7.154.422z" fill="#90A2A3"/><path d="M317.549 189.619c2.276-2.949 4.227-5.477 6.178-8.426-2.601.842-5.528 4.634-6.178 8.426zm3.252-30.759c.325-2.949-.976-5.056-2.602-5.899-2.926-1.264-5.528 0-7.479 2.95-1.626 2.106-2.927 6.741-1.301 9.69 3.252 5.056 11.057-1.685 11.382-6.741z" fill="#708283"/><path d="M299.012 207.738c-.325-.422-.65-.422-.975-.843-1.626-.421-4.878 0-5.528 2.107-.976 2.528.325 3.792 2.276 4.213 1.301-1.264 2.927-2.528 4.227-3.792v-1.685zm.001 1.685c.325 0 .325-.421.65-.421 0-.422-.325-.843-.65-1.264v1.685z" fill="#90A2A3"/><path d="M120.158 256.193c20.812-89.75 75.769-182.45 164.547-164.753 20.161 4.213 34.145 13.905 43.575 26.546-93.98-5.478-154.466 42.979-187.31 149.584-31.218 101.97-48.454 152.955-45.852 160.119l-1.951-1.265c-5.854-5.477 6.178-80.48 26.991-170.231z" fill="#5E6B6C"/><path d="M88.94 396.508s-26.016-18.119-53.007-4.635C8.943 404.935-3.415 431.482.813 435.695c4.552 4.214 8.13-12.219 22.112-8.427 13.983 3.371 19.837 31.181 39.023 26.967 19.512-4.213 30.893-21.489 26.991-57.727z" fill="#5E6C6D"/><path d="M101.622 412.943s26.666 15.59 35.121 51.827c8.129 35.816-.326 64.89-5.854 62.783-5.203-2.107 2.277-16.012-8.13-27.81-10.731-12.219-31.218-1.685-40.323-24.018-9.106-22.332-5.203-45.085 19.186-62.782z" fill="#5E6C6D"/><path d="M314.947 106.189C326.003 94.812 448.925-.838 452.503.005 456.08.848 344.864 109.56 333.157 118.83c-11.707 9.27-33.169 2.528-18.21-12.641z" fill="#fff"/><path d="M311.044 101.974l1.626-1.685c5.203 3.371 20.487 0 25.365-.843 10.731-2.107 23.414-7.584 34.145-14.326v.422l.325-.422h-.325c.65-.421.975-.421 1.301 0l-.651 1.264h-.325c-11.056 7.163-24.064 12.64-35.121 14.747-9.105 1.686-21.787 3.793-26.34.843zm26.991-21.068l1.301-1.685c15.934 1.685 37.722-5.477 58.209-18.96l.325 1.264c-20.812 13.904-43.25 21.067-59.835 19.381zm13.983-21.911l1.626-1.686c6.503 3.371 18.21 1.686 26.665-.842 11.057-2.95 27.641-8.849 41.95-17.697l.325 1.264c-14.634 8.848-31.869 15.169-42.925 18.118-8.78 2.528-20.812 4.635-27.641.843zm26.991-21.488l1.626-1.686c7.154 2.95 22.763-2.107 31.543-5.056h.325c8.455-2.95 19.837-7.164 28.292-13.063l.65.843c-8.78 6.32-20.812 10.534-29.267 13.484h-.325c-11.056 4.213-25.69 8.427-32.844 5.478z" fill="#D9D9D9"/><path d="M275.599 127.678c2.601 3.371 3.577 8.006 1.951 10.113-1.626 2.107-5.203 1.264-7.805-2.107-2.601-3.371-3.577-8.006-1.951-10.113 1.626-2.106 5.203-1.264 7.805 2.107z" fill="#422F22"/></g></svg>