<svg width="359" height="331" fill="none" xmlns="http://www.w3.org/2000/svg"><path d="M92.071 31.783s-14.1-10.04-14.9-17.186c-.6-6.513-3-9.588-9.3-7.418-6.3 2.171-9.9 1.629-16.2 1.99-7 .362-7.9 2.624-8 5.518-.1 2.895 7.6 7.87 10.7 10.946 3.1 3.075 22.9 13.568 22.9 13.568l16.6-5.247-1.8-2.17z" fill="url(#paint0_linear)"/><path d="M78.57 49.604c-3-2.352-5.7-5.157-8.6-7.508-8.2-7.147-15.8-15.016-23.9-23.248-1.3-.995-2.3-2.443-2.6-3.8-.3-1.447.4-3.256 1.6-4.07-.8 1.085-.5 2.533.5 3.98 1 1.357 1.6 2.443 2.8 3.437 3.1 3.076 6.2 6.152 9.5 8.142 4.9 3.347 10.6 4.794 16 5.608 4.8.814 9.1 1.266 13.2.362 2.7-.905 5.2-2.442 7.8-1.538 2.2.633 3.7 2.352 4.5 4.794.7 1.81 1.2 3.89 1.6 6.061 1.2 7.508 3.5 15.378 7.1 22.434-5 1.357-9.6 3.075-14.7 4.432-2.2-5.337-5.7-10.493-10.1-14.654-1.6-1.357-3.3-2.714-4.7-4.432z" fill="#FD8859"/><path d="M225.671 174.074s-19.3-19.54-36-28.766c-6.3-3.257-39.501-11.127-39.501-11.127s-4.1-18.272-41.4-70.105c-1.6-2.442-14 2.624-14.7 4.433-.7 1.809 40.6 84.94 48.9 96.428 8.4 11.488 76.201 34.374 76.201 34.374l6.5-25.237z" fill="url(#paint1_linear)"/><path opacity=".3" d="M177.87 157.157c11 6.965 10.2 6.332 18.7 14.835l22.7 27.68s-67.799-22.976-76.199-34.465c-2.4-3.166-6.8-10.855-12.1-21.076 14.9 2.532 35.4 5.698 46.899 13.026z" fill="url(#paint2_linear)"/><path d="M163.37 306.862s-7.2 2.533-9.6 6.694c-1.9 4.432-.5 16.282 3 16.101 3.5-.181 5.4-8.232 8.4-6.965 3.1 1.266 5.1 5.879 6.8 5.427 2.401-.452-.3-13.297-.3-13.297l-8.3-7.96z" fill="url(#paint3_linear)"/><path opacity=".5" d="M154.369 326.493c.7 0 1.7-.452 2.2-1.176 4.7-4.613 8.001-3.708 11.001-4.975 2.9-1.266-.8-8.955-.8-8.955l1.1.271 3.5 3.438s2.6 12.844.3 13.297c-2.1.09-3.7-4.071-6.7-5.337-3.001-1.267-5.201 7.146-8.401 6.965-.5-.362-1.5-1.719-2.2-3.528z" fill="url(#paint4_linear)"/><path d="M15.87 38.657S-1.23 5.278.07 1.57c1.4-3.71 17.8.452 21.8-.543 4-.905 4.8 6.242 11 18.905 6.2 12.665 29.7 39.169 29.7 39.169s-22.4 3.075-29.4-1.99c-7.2-5.7-14.2-13.57-17.3-18.454z" fill="url(#paint5_linear)"/><path d="M41.07 69.323c-15.4-12.845-25.1-30.756-25.1-30.756S-1.23 5.097.17 1.479l.6-.723c-1.2 4.432 15.8 37.087 15.8 37.087 1.4 1.72 2.6 3.8 4.4 5.88 9.9 10.313 20.8 14.745 31.3 14.202 2.8-.18 5.3.09 7.9.272.7 0 1.4-.091 2.1-.091l.8.724c4.5 1.176 5.4 3.708 5 6.965-.7 5.427 5.6 15.287 5.6 15.287l-15.8 5.97c-.8-.18-2.1-4.794-16.8-17.73z" fill="#FD8859"/><path d="M304.57 245.895s-8.4 10.583-11.9 12.573c-3.5 1.99-72.2 15.288-73.9 16.825-1.8 1.538-46.4 40.615-47.5 40.254-1.1-.362-8.7-6.333-8.3-7.87.4-1.448 38.8-48.485 40.6-50.023 1.8-1.538 38.7-18.091 38.7-18.091s-37.7-16.283-47.9-21.529c0 0-84.4-33.921-88.8-37.992-4.4-4.071-47.8-91.27-47-92.356.8-1.086 14.1-7.327 15.7-5.97 1.7 1.357 39.1 57.44 43.5 77.069 0 0 42.5-3.166 57.1 2.533 14.6 5.698 39.7 20.895 39.7 20.895l91.9 39.258c5.1 2.262 7.4 8.232 5 12.393l-6.9 12.031z" fill="url(#paint6_linear)"/><path opacity=".3" d="M311.971 233.593l-7.3 12.664s-8.4 10.583-11.8 12.573c-3.5 1.99-71.9 15.197-73.7 16.735-1.8 1.537-46.2 40.433-47.4 40.162-.4-.362-2.8-1.628-5.1-4.071 13.8-13.387 42.6-40.886 45.1-44.323 3.3-4.523 59.1-14.111 66.6-25.327 19.5-28.494-72.1-57.44-72.1-57.44s3.8-.542 10.6-1.628l90 38.444c4.7 1.809 7 7.779 5.1 12.211z" fill="url(#paint7_linear)"/><path d="M327.271 255.846l-21.801-9.588 1.7-6.966c1.5-4.794 6.6-7.236 11.5-5.698l3.8 1.266 4.801 20.986z" fill="#FFD9B0"/><path d="M325.27 213.873c8-.814 27.999 3.799 28.699 22.885.8 19.087-14.099 39.349-23.599 34.103-9.5-5.247-16.9-15.288-17.7-26.052-.1-10.674-1.2-29.398 12.6-30.936z" fill="url(#paint8_linear)"/><path d="M334.97 261.273c-.801 2.895.2 6.151 2.2 7.056 2.4 1.266 4.9-.272 5.9-3.619.8-2.894-.2-6.151-2.2-7.056-1.9-.904-4.9.362-5.9 3.619z" fill="#FFD9B0"/><path d="M340.27 259.284l4 2.714-3.7 6.513-4-2.714 3.7-6.513z" fill="#2F306B"/><path d="M341.271 264.619c-1.1 1.538-1.4 3.709-.5 4.342.8.724 3.2.181 3.9-1.628 1.1-1.538.5-4.342-.3-5.065-.9-.633-2.4.452-3.1 2.351z" fill="#FEBE56"/><path d="M337.169 261.906c-1.1 1.537-1.3 3.708-.5 4.341.8.634 1.901-.814 3.001-2.351 1.1-1.538 1.3-3.709.5-4.342-.4-.271-1.6.452-3.001 2.352z" fill="#2F306B"/><path d="M195.271 159.689c3.7-9.589 10.6-15.378 16.1-12.845l93.8 44.957-12.2 35.007-93.8-44.957c-5.9-2.895-7.3-12.935-3.9-22.162z" fill="url(#paint9_linear)"/><path d="M289.369 204.918c-3.7 9.589-1.6 19.539 3.4 21.8 5.5 2.533 17.801-.633 21.501-10.221 3.7-9.588-3.9-22.071-9.3-24.695-5.1-2.261-12.001 3.528-15.601 13.116z" fill="url(#paint10_linear)"/><path d="M310.071 210.979l5.7 2.803-2.4 6.783-5.7-2.804 2.4-6.782z" fill="#5228B3"/><path d="M312.77 215.954c-.7 1.81-.2 3.981.9 4.253 1.1.271 2.4-.453 3-2.353.7-1.81.2-3.981-.9-4.253-1.1-.271-2.3.543-3 2.353z" fill="#2F306B"/><path d="M307.27 213.33c-.7 1.809-.2 3.98.9 4.251 1.1.271 2.4-.452 3-2.351.7-1.809.2-3.98-.9-4.251-1.5-.634-2.3.542-3 2.351z" fill="#5228B3"/><path d="M358.57 241.643c-.3-1.447-1.101-2.08-2.701-2.713-6.6-1.086-25.299-6.513-26.199-5.337-3.6 3.075-7 14.111-1.2 19.9 1 1.357 16.1 4.523 17.3 3.709.7 0 1.1-1.538 2.7-.904.4.362.3 1.447 1.1 2.08 1.3.995 3.099 1.267 3.799 1.176 1.6-1.085 7.001-9.317 5.201-17.911z" fill="#2F306B"/><path d="M329.671 251.955c2 .995 12.3 3.256 14.8 3.528.5-.724 2.1-1.9 4.5-.634l.4.362.4.362c.8.633 1.4 1.719 1.6 2.442.4.362.4.362.7 0 1.2-.814 5.4-8.231 4.2-15.738-2.2-.633-6.3-1.447-10.4-2.261-5.2-1.176-12.6-2.895-14.8-3.528-1.4 1.9-3.4 5.608-3 9.588-.4 1.266.2 4.16 1.6 5.879z" fill="url(#paint11_linear)"/><path d="M312.77 239.019c-.3-1.447.1-2.895-.2-4.342l15.3 3.799-.5 4.344-14.6-3.801z" fill="#2F306B"/><path d="M339.669 264.529c.3-.362.1-1.085-.3-1.447-.4-.362-1.5-.634-1.8-.272-3.4 3.799-10.3 4.885-17.6 2.081-8.4-3.166-17.3-10.222-19.8-20.534-4.1-18.181 10.8-26.593 11-26.955.7 0 .8-1.086.4-1.447-.4-.362-1.3-.996-1.5-.634 0 0-16.4 9.589-12 29.218 2.6 11.035 12.5 19.538 21.6 22.613 8.1 2.805 15.7 2.352 20-2.623z" fill="#FCC342"/><path d="M228.97 195.872c.8-24.785 16.9-32.202 16.9-32.202s-.6-1.086-2.5-1.99c-1.5-.633-2.5-.181-2.5-.181-1 .452-15.8 5.246-16.5 32.564l4.6 1.809zm28.3 13.75c.8-24.878 16.5-32.567 16.5-32.567s-.6-1.086-2.5-1.99c-1.5-.633-2.9-.543-2.9-.543-1 .362-15.099 5.157-16.099 32.838l4.999 2.262z" fill="#2F306B"/><path d="M111.769 177.057c5.1 4.071 12.1 9.046 19.2 14.112-13.9-5.699-24.9-10.855-26.2-11.941-4.4-4.07-47.9-91.36-47-92.446.3-.362 2.2-1.176 4.5-2.443 7.4 17.368 35.9 81.954 49.5 92.718z" fill="url(#paint12_linear)"/><path d="M255.77 196.957l-27.001-12.572-1.7 10.582 26.301 12.573 2.4-10.583z" fill="#2F306B"/><path d="M229.27 195.871s-10.6 9.951-13.7 32.475c0 0 .9 2.442 8.7 6.332 7.8 3.89 12.6 2.894 12.6 2.894s.3-22.343 15.599-30.393l-23.199-11.308z" fill="#2F306B"/><path d="M167.071 308.219c2.1 1.718 5.7.361 8.5-3.347 2.7-3.799 3-7.688.9-9.406l-2.1-1.718-9.1 12.391 2.1 1.718-.3.362z" fill="#21234C"/><path d="M164.87 306.502c2.1 1.628 5.7.361 8.5-3.347 2.8-3.799 3-7.688.9-9.407-2.1-1.718-5.7-.362-8.5 3.347-2.7 3.799-3 7.779-.9 9.407z" fill="#2F306B"/><path d="M172.47 302.521c-2 2.714-4.899 3.799-6.499 2.533-1.6-1.267-1.4-4.523.6-7.236 2-2.714 4.899-3.799 6.499-2.533 1.7 1.267 1.4 4.523-.6 7.236z" fill="url(#paint13_linear)"/><path d="M177.97 309.847s.7 0 1.2-.814c.6-.724.8-1.085.8-1.085-2.4-1.357-5.499-4.342-5.899-4.704l-1.8 1.538c.6.995 2.2 3.437 5.699 5.065z" fill="#21234C"/><g opacity=".3"><path opacity=".3" d="M209.871 208.264c.6-.723.1-1.085-.3-1.447 0 0-1.3-.995-4.101-2.623-.4-.362-1.1-.272-1.7.452-.3.362-.1 1.086.7 1.809 2.401 1.267 4.101 2.623 4.101 2.623.3-.361 1-.452 1.3-.814z" fill="url(#paint14_linear)"/><path opacity=".3" d="M198.071 201.026c.6-.724.1-1.085-.7-1.809-2.4-1.357-4.8-2.623-7.6-4.251-.4-.362-1.1-.272-1.7.452-.3.362-.1 1.085.7 1.809 2.8 1.628 5.2 2.985 7.6 4.251.7 0 1.4 0 1.7-.452zm-15.8-7.779s.3-.361 0 0c.6-.723-.3-1.447-.7-1.809-2.4-1.266-5.1-2.261-8.2-3.527-.4-.362-1.4.09-1.2.814-.3.362.3 1.447 1 1.357 2.7.904 5.1 2.261 7.7 3.165.9.814 1.1.362 1.4 0zm-15.5-6.331s.3-.362 0 0c.1-1.085-.3-1.447-.7-1.809-2.7-.904-5.8-2.171-8-2.804-.7 0-1.4.091-1.2.814.2.724.3 1.448 1 1.357 2.2.633 4.9 1.537 8 2.804.2-.362.7 0 .9-.362zm-16.1-4.522l.3-.362c-.2-.724-.6-1.085-1-1.357-2.9-.543-5.5-.814-8.4-1.357-.7.091-1 .453-1.3.814.1.724.6 1.086 1 1.357 2.5.181 5.5.814 8.4 1.357 0 0 .7-.091 1-.452zm-16.6-2.985l.3-.362c-.2-.723-.6-1.085-1-1.356-3-.543-5.9-1.086-8.2-1.719-.7 0-1 .452-1.2.814.2.724.6 1.085 1 1.357 2.2.633 5.2 1.176 8.1 1.718.5.272.7-.09 1-.452z" fill="url(#paint15_linear)"/><path opacity=".3" d="M117.77 175.609l.3-.362c-.2-.723-.6-1.085-1-1.356-1.8-.272-2.9-.543-4.1-.905l-2.1-3.527c-.2-.724-.8-.724-1.5-.634-.7 0-.6.724-.4 1.448l2.3 4.251c.4.362.4.362.9.633 0 0 1.5.633 4.5 1.176.1-.271.8-.362 1.1-.724z" fill="url(#paint16_linear)"/><path opacity=".3" d="M106.271 162.583c.3-.362.6-.724.1-1.085l-4.2-8.051c-.1-.724-.8-.633-1.5-.633s-.6.723-.4 1.447l4.2 8.051c.4.362.9.633 1.8.271 0 0-.2.362 0 0zm-8.5-15.83c.3-.362.5-.724.1-1.086l-4.1-8.051c-.2-.724-.8-.723-1.6-.633-.7 0-.5.723-.4 1.447l4.1 8.051c.5.362 1.3.995 1.9.272 0 0-.3.361 0 0zm-8.6-15.74c.3-.362.6-.724.1-1.086l-4.1-8.051c-.1-.724-.8-.724-1.5-.633-.7 0-.6.723-.4 1.447l4.1 8.051c.4.271 1.3.995 1.8.272z" fill="url(#paint17_linear)"/><path opacity=".3" d="M80.77 115.546c.3-.362.6-.724.1-1.086l-2.3-4.161c-.1-.723-.8-.723-1.5-.633-.7 0-.6.724-.4 1.448l2.3 4.16s.9.724 1.8.272z" fill="url(#paint18_linear)"/></g><path d="M327.771 234.406l3.099-2.171 23.3 29.309-3.1 2.171-23.299-29.309zm3.9-4.701l1.9-1.357 25.4 31.929-1.9 1.357-25.4-31.929z" fill="#F2F2F2"/><defs><linearGradient id="paint0_linear" x1="79.829" y1="11.803" x2="62.968" y2="32.95" gradientUnits="userSpaceOnUse"><stop stop-color="#F5995B"/><stop offset="1" stop-color="#FB5F5C"/></linearGradient><linearGradient id="paint1_linear" x1="137.556" y1="51.237" x2="165.254" y2="157.763" gradientUnits="userSpaceOnUse"><stop stop-color="#00C6FF"/><stop offset="1" stop-color="#0072FF"/></linearGradient><linearGradient id="paint2_linear" x1="220.567" y1="197.862" x2="136.933" y2="136.678" gradientUnits="userSpaceOnUse"><stop stop-color="#00C6FF"/><stop offset="1" stop-color="#0072FF"/></linearGradient><linearGradient id="paint3_linear" x1="170.722" y1="312.657" x2="156.846" y2="330.061" gradientUnits="userSpaceOnUse"><stop stop-color="#F5995B"/><stop offset="1" stop-color="#FB5F5C"/></linearGradient><linearGradient id="paint4_linear" x1="173.483" y1="315.567" x2="159.972" y2="332.508" gradientUnits="userSpaceOnUse"><stop stop-color="#F5995B"/><stop offset="1" stop-color="#FB5F5C"/></linearGradient><linearGradient id="paint5_linear" x1="43.888" y1="17.315" x2="20.353" y2="46.843" gradientUnits="userSpaceOnUse"><stop stop-color="#F5995B"/><stop offset="1" stop-color="#FB5F5C"/></linearGradient><linearGradient id="paint6_linear" x1="44.228" y1="163.564" x2="316.305" y2="311.968" gradientUnits="userSpaceOnUse"><stop stop-color="#00C6FF"/><stop offset="1" stop-color="#0072FF"/></linearGradient><linearGradient id="paint7_linear" x1="182.653" y1="307.614" x2="270.489" y2="171.633" gradientUnits="userSpaceOnUse"><stop stop-color="#00C6FF"/><stop offset="1" stop-color="#0072FF"/></linearGradient><linearGradient id="paint8_linear" x1="312.96" y1="238.625" x2="348.474" y2="248.232" gradientUnits="userSpaceOnUse"><stop stop-color="#1488CC"/><stop offset="1" stop-color="#2B32B2"/></linearGradient><linearGradient id="paint9_linear" x1="243.84" y1="159.834" x2="253.736" y2="209.021" gradientUnits="userSpaceOnUse"><stop stop-color="#D0FFAE"/><stop offset="1" stop-color="#34EBE9"/></linearGradient><linearGradient id="paint10_linear" x1="288.752" y1="203.39" x2="303.759" y2="214.042" gradientUnits="userSpaceOnUse"><stop stop-color="#D0FFAE"/><stop offset="1" stop-color="#34EBE9"/></linearGradient><linearGradient id="paint11_linear" x1="354.499" y1="254.013" x2="330.596" y2="236.533" gradientUnits="userSpaceOnUse"><stop stop-color="#F3F7FF"/><stop offset="1" stop-color="#CDD9FF"/></linearGradient><linearGradient id="paint12_linear" x1="110.14" y1="122.758" x2="80.403" y2="160.054" gradientUnits="userSpaceOnUse"><stop stop-color="#D0FFAE"/><stop offset="1" stop-color="#34EBE9"/></linearGradient><linearGradient id="paint13_linear" x1="165.451" y1="298.024" x2="194.627" y2="316.809" gradientUnits="userSpaceOnUse"><stop stop-color="#D0FFAE"/><stop offset="1" stop-color="#34EBE9"/></linearGradient><linearGradient id="paint14_linear" x1="207.799" y1="205.412" x2="206.128" y2="207.514" gradientUnits="userSpaceOnUse"><stop stop-color="#00C6FF"/><stop offset="1" stop-color="#0072FF"/></linearGradient><linearGradient id="paint15_linear" x1="171.081" y1="178.495" x2="153.216" y2="200.907" gradientUnits="userSpaceOnUse"><stop stop-color="#00C6FF"/><stop offset="1" stop-color="#0072FF"/></linearGradient><linearGradient id="paint16_linear" x1="114.022" y1="171.586" x2="111.551" y2="174.691" gradientUnits="userSpaceOnUse"><stop stop-color="#00C6FF"/><stop offset="1" stop-color="#0072FF"/></linearGradient><linearGradient id="paint17_linear" x1="101.648" y1="134.931" x2="89.363" y2="150.33" gradientUnits="userSpaceOnUse"><stop stop-color="#00C6FF"/><stop offset="1" stop-color="#0072FF"/></linearGradient><linearGradient id="paint18_linear" x1="80.178" y1="111.145" x2="77.752" y2="114.191" gradientUnits="userSpaceOnUse"><stop stop-color="#00C6FF"/><stop offset="1" stop-color="#0072FF"/></linearGradient></defs></svg>