<svg width="492" height="381" fill="none" xmlns="http://www.w3.org/2000/svg"><path d="M66.074 167.478s1.617 86.071 115.01 142.071c78.302 38.672 164.301-22.679 176.873-31.815 12.571-9.137-108.851-73.814-108.851-73.814l-145.491-50.072-37.541 13.63zm40.147-74.172l-7.815-13.247s69.64-67.854 170.271-20.343c125.44 59.245 111.488 170.965 111.488 170.965l-38.446-8.027L106.221 93.306z" fill="#225B7E"/><path d="M415.256 326.658c1.36-15.855 8.646-46.257 18.241-53.855 9.595-7.598 36.937-54.412 24.279-51.393-12.658 3.019-52.356 18.768-67.98 13.665a64.141 64.141 0 01-11.524-5.414c-4.184-1.994-5.323-13.688-5.699-18.808-3.269-45.92-43.42-96.448-104.843-125.448-49.389-23.33-96.639-23.765-138.66-13.947-15.476 3.62-76.623 18.335-82.148 30.029-5.713 12.104 15.811 62.323 25.992 78.671 21.473 34.402 53.885 73.149 104.341 96.939 58.374 27.569 119.583 27.973 157.749 5.045 4.429-2.656 17.481-6.979 21.998-4.841 6.202 2.923 12.32 6.078 17.147 9.601 17.187 12.584 39.757 55.607 41.107 39.756z" fill="#255776"/><path d="M434.879 271.543l-2.687-.88c-3.394-1.007-6.705-2.291-9.987-3.295a290.4 290.4 0 00-9.28-3.093c-2.902-.914-5.555-1.731-7.873-2.284-4.597-1.184-7.906-1.234-8.874.532-.968 1.766 1.083 4.36 4.984 7.406a69.235 69.235 0 007.213 4.585c2.802 1.531 5.95 3.037 9.263 4.516 2.918 1.167 5.911 2.432 8.988 3.495 2.094-4.319 4.399-7.779 6.864-9.724.484-.395.948-.815 1.389-1.258zm-38.545-18.111c6.181 2.842 15.347 5.405 25.52 6.071 7.721.502 15.473.123 23.107-1.129a188.498 188.498 0 009.059-15.315 108.5 108.5 0 01-4.269 1.079 117.105 117.105 0 01-27.297 2.856c-9.016-.029-17.335-1.242-23.547-2.026a71.853 71.853 0 00-4.242-.507 29.424 29.424 0 00-3.357-.192c-1.924.046-3.21.477-3.606 1.404-.396.928.22 2.074 1.706 3.425.89.796 1.847 1.513 2.861 2.143 1.145.73 2.521 1.44 4.065 2.191zm23.875 46.938l-2.928-3.388-1.955-2.205c-.658-.721-1.367-1.398-2.05-2.112a276.716 276.716 0 00-4.125-4.045c-1.364-1.307-2.837-2.474-4.187-3.627-1.35-1.152-2.707-2.307-4.088-3.228a69.85 69.85 0 00-7.557-4.77c-4.652-2.291-7.986-3.017-9.168-1.39-1.182 1.627.407 4.633 3.614 8.27 1.573 1.873 3.451 4.032 5.665 6.253 1.108 1.081 2.156 2.363 3.321 3.581s2.381 2.444 3.565 3.75l3.605 3.996c.606.668 1.239 1.323 1.839 2.012l1.764 2.088 3.538 4.119 3.278 4.161c.797.989 1.552 1.965 2.287 2.935.819-5.142 2.058-10.835 3.582-16.4z" fill="#225B7E"/></svg>