<svg width="1922" height="1057" fill="none" xmlns="http://www.w3.org/2000/svg"><path d="M1921 205.7l-1.99-59.1c-75.35-53.4-152.49-112.3-247.44-114.4h-2.19c-165.53 3.6-261.87 180-426.4 198.6-29.66 3.3-59.72 1.3-89.29 4.6-41 4.6-80.12 19.4-118.64 34.1L849.918 340c-22.096 8.4-44.79 17-68.479 18-81.618 3.8-112.871-50.9-230.62-71.6-27.969-4.9-57.431-3.2-85.4-7.9-24.684-4.2-35.434-6.7-55.937-21.1-46.881-33-75.049-45.7-131.982-43.1-56.933-2.6-85.101 10.1-131.982 43.1-20.404 14.4-31.154 16.9-55.938 21.1-27.969 4.7-57.43 3-85.4 7.9-.199 0-1.791.1-4.18.1v769.7h1921V205.7z" fill="url(#paint0_linear)"/><path opacity=".3" d="M798.559 495.9c-8.56-31.1-45.287-45.4-61.81-73.3-17.02-28.7-13.139-71.3-13.537-104.5 7.366 24.7 15.129 51.3 29.562 72.7 12.143 18 28.765 32.8 40.908 50.8 10.252 15.1 17.22 32.3 20.305 50.2" fill="#003154"/><path opacity=".3" d="M814.484 484.9c-12.74-18.2-26.675-37-46.781-46.2-18.115-8.3-38.818-7.701-58.725-6.601-27.073 1.6-55.241 4.201-78.731 17.901 11.944-2.2 23.49-6.101 35.633-5.401 31.552 1.8 37.922 4.1 58.327 12 7.067 2.8 21.499 6.601 27.77 10.901 17.219 11.6 31.85 13.1 46.88 27.5" fill="#003154"/><path opacity=".3" d="M797.763 464.8c9.455-27.2 27.869-35.9 56.634-35.9 27.472 0 52.355.8 72.162-8.2-15.029 16.2-31.851 35.7-52.354 43.9-28.666 11.5-60.716-2.9-68.977 27.1m-28.567-33.9c-54.744-3.5-110.383 8.9-158.458 35.4 50.762-28.3 110.383-22.9 168.212-17.2" fill="#003154"/><path opacity=".3" d="M786.814 439.1c-1.195-12.5-.797-19.8 4.578-31.1 1.692-3.6 6.171-14.5 8.162-17.9 5.474-9.2 14.93-27.7 16.224-38.3-.1 23.4-9.456 63.4-11.745 86.7-.299 3-.498 6.1.1 9.1.995 4.9 4.18 9.5 3.384 14.4m385.593 119.9c8.56-31.1 45.29-45.4 61.81-73.3 17.02-28.7 13.14-71.3 13.54-104.5-7.37 24.7-15.13 51.3-29.56 72.7-12.15 18-28.77 32.8-40.91 50.8-10.25 15.1-17.22 32.3-20.31 50.2" fill="#003154"/><path opacity=".3" d="M1177.19 570.9c12.74-18.2 26.67-37 46.78-46.2 18.11-8.3 38.81-7.701 58.72-6.601 27.07 1.6 55.24 4.201 78.73 17.901-11.94-2.2-23.49-6.101-35.63-5.401-31.55 1.8-37.92 4.1-58.33 12-7.06 2.8-21.5 6.601-27.77 10.901-17.22 11.6-31.85 13.1-46.88 27.5" fill="#003154"/><path opacity=".3" d="M1193.91 550.8c-9.46-27.2-27.87-35.9-56.64-35.9-27.47 0-52.35.8-72.16-8.2 15.03 16.2 31.85 35.7 52.35 43.9 28.67 11.5 60.72-2.9 68.98 27.1m28.57-33.9c54.74-3.5 110.38 8.9 158.46 35.4-50.77-28.3-110.39-22.9-168.22-17.2" fill="#003154"/><path opacity=".3" d="M1204.86 525.1c1.19-12.5.79-19.8-4.58-31.1-1.69-3.6-6.17-14.5-8.16-17.9-5.48-9.2-14.93-27.7-16.23-38.3.1 23.4 9.46 63.4 11.75 86.7.3 3 .49 6.1-.1 9.1-1 4.9-4.18 9.5-3.39 14.4M291 386c6.133-28.3 4.387-25.201 20.116-49.701 2.77-4.4 9.893-15 11.376-20 1.188-4.3 2.474-21.699 4.056-25.899 2.869-7.5 11.278-10.5 16.917-16.2 5.638-5.8 7.617-10.3 11.871-9.5-11.575 18.7-5.145 21.199-7.618 32.599-2.473 11.4 4.947 14.601 4.551 26.201-.198 4.7-.495 11-1.286 15.7-.693 4.1-6.232 14.999-7.617 18.899-3.265 9.3-1.88 15.4-2.77 25.2-1.583 15.9.147 8.501-5.096 23.701-4.847 13.9-2.433 9.3-5.5 16m-81-89c-3.5-7.5 2.053 5.3-13.676-25-2.77-5.4-9.893-18.4-11.376-24.5-1.188-5.3-2.474-26.9-4.056-32.1-2.869-9.3-11.278-12.9-16.917-20-5.638-7.1-7.617-12.6-11.871-11.7 11.575 23 5.145 26.2 7.618 40.3 2.473 14.1-4.947 17.9-4.551 32.2.198 5.8.495 13.7 1.286 19.4.693 5.1 6.232 18.6 7.617 23.4 3.265 11.5 2.536 14.8 3.426 27 3.656 4.9 13.5 15.2 16 17 3.5 2.5 9.5 6 11.5 8.5" fill="#003154"/><path opacity=".3" d="M250 404c-16.568-23.3-3.042-6.6-23.104-21.5-3.593-2.7-12.476-9.1-15.57-13-2.695-3.4-11.478-18.999-14.272-22.099-5.091-5.5-11.079-4.201-16.868-6.701-5.789-2.5-8.983-5.9-10.979-2.9 15.171 11.6 12.776 17.201 19.363 26.601 6.587 9.4 3.992 15.9 9.681 26.5 2.296 4.3 5.39 10 7.985 14 2.296 3.4 9.367 7.499 10.764 11.599 3.393 9.8-.993-2.9 2.5 7 .878 2.5 2 4.5 3.5 7.5" fill="#003154"/><path opacity=".3" d="M296 367c.424-.8 3.319-11.8 6-16 3.5-5.5 11.811-13 12.029-25.9.498-29.4-20.305-30.9-15.428-60 1.195-7.5 10.55-29.7 9.954-43.5-.303-7-1.991-12.5-6.569-20.6-.1-3.4-22.296-24.9-25.282-30.4-4.479-15.5 2.688-23.2-1.99-49-4.678 25.8-21.798 30.8-23.988 51.3-.398 3.4 5.573 16.2 8.559 26.2 3.484 11.7-4.976 25-8.559 32.5-3.285 6.9-11.645 27.8-10.351 35.3 4.877 29 8.459 21.8 8.957 51.2.099 5.1-2.441 23.1-4.332 27.9-1.294 3.3-9.609 40-11.5 43 10 0 14.332 10.5 15.832 16 0 0 16.668-21 30.168-22.5 6.165-.7 6.5 2 12.5 5 0-6 1.5-13 1.5-13 0-4 2-6.5 2.5-7.5zm1360-101.5c-6.13-28.3-4.51-25.701-20.24-50.201-2.77-4.4-9.89-15-11.37-20-1.19-4.3-2.48-21.699-4.06-25.899-2.87-7.5-11.28-10.5-16.92-16.2-5.63-5.8-7.61-10.3-11.87-9.5 11.58 18.7 5.15 21.199 7.62 32.599 2.47 11.4-4.95 14.601-4.55 26.201.2 4.7.49 11 1.29 15.7.69 4.1 6.23 14.999 7.61 18.899 3.27 9.3 1.88 15.4 2.77 25.2 1.59 15.9 5.35 20.901 10.59 36.101 4.85 13.9-.94-.6 2.13 6.1m71-45c6.13-34.9 5.83-41.2 21.55-71.5 2.77-5.4 9.9-18.4 11.38-24.5 1.19-5.3 2.47-26.9 4.06-32.1 2.87-9.3 11.27-12.9 16.91-20 5.64-7.1 7.62-12.6 11.87-11.7-11.57 23-5.14 26.2-7.61 40.3-2.48 14.1 4.94 17.9 4.55 32.2-.2 5.8-.5 13.7-1.29 19.4-.69 5.1-6.23 18.6-7.62 23.4-3.26 11.5-1.91 13.3-2.8 25.5-5 8-15 16-19.5 20-6 5.3-12.5 11-16 14.5" fill="#003154"/><path opacity=".3" d="M1705.5 275c2.5-2.5 10.36-10.5 14.48-13.5 3.6-2.7 12.48-9.1 15.57-13 2.7-3.4 11.48-18.999 14.28-22.099 5.09-5.5 11.07-4.201 16.86-6.701 5.79-2.5 8.99-5.9 10.98-2.9-15.17 11.6-12.77 17.201-19.36 26.601-6.59 9.4-3.99 15.9-9.68 26.5-2.3 4.3-5.39 10-7.99 14-2.29 3.4-3.35 5.399-3.64 6.099-1 2.5-1.46 3.5-2 5s-.9 2.4-3 7m-85-68c-1.57-3.1-7.5-9-7.5-12-4-5.5-6.65-12.8-6.65-17.9-.5-29.4 20.3-30.9 15.43-60-1.2-7.5-10.55-29.7-9.96-43.5.31-7 1.99-12.5 6.57-20.6.1-3.4 22.3-24.9 25.28-30.4 4.48-15.5-2.68-23.2 1.99-49 4.68 25.8 21.8 30.8 23.99 51.3.4 3.4-5.57 16.2-8.56 26.2-3.48 11.7 4.98 25 8.56 32.5 3.29 6.9 11.65 27.8 10.35 35.3-4.87 29-8.46 21.8-8.95 51.2-.1 5.1 1.06 10.6 2.95 15.4-2 5-4.08 18-5 21-5 16.4-3.5 22-5.5 25.5l-2-1s-5.5-5-12.5-4-10 3-10 3l-9 7.5c-3-9.5-4-19.5-9.5-30.5z" fill="#003154"/><path opacity=".3" d="M1865.9 392.5c-46.7-27.8-64.7-51.1-84-59.9-63.5-28.6-83.4-75.3-102.8-78.7v-.9c-.2.1-.4.3-.6.4-.1 0-.1-.1-.2-.1v.2c-27.8 0-39.2 50-102.8 78.7-19.3 8.7-37.3 32.1-84 59.9-105.7 62.7-164 114.5-204.5 134.7-92.4 46.1-181.9 48.7-281.6 22-85.8-23-148.9-65.6-252.5-77.4-51.6-5.8-98.6 30.9-148.1 46.5-49.5 15.5-110.9 16.5-145.6-22.1-11.4-12.7-27.4-19.2-41.1-29.4-25-18.7-53.5-22-80.2-38.3-21.1-12.9-34.8-40.7-56.4-45.6l-.305-.1c-.1 0-.695.1-.859 0-.288-.2-.836.5-1.536.4-21.6 5-35.4 32.8-56.5 45.6-26.7 16.3-55.2 19.5-80.2 38.3-13.7 10.3-29.7 16.7-41.1 29.4-24.6 27.7-63 35-101 31.3v527.1l281.5-.1v-.3l1338.6.4c25.3.6 58.3.1 58.5-.8 0-.2.1-.4.1-.7.1.3.1.6.2 1 .2.9 33.1 1.3 58.5.8l184.6-.1V427.4c-17.1-11.1-35.7-22.8-56.1-34.9zm-187.1 644.1c0-1.4-.1-3.1 0-5v-3.8 8.8z" fill="#000640"/><defs><linearGradient id="paint0_linear" x1="0" y1="544.2" x2="1921" y2="544.2" gradientUnits="userSpaceOnUse"><stop offset=".001" stop-color="#3A6C8D"/><stop offset="1" stop-color="#336484"/></linearGradient></defs></svg>