<svg width="248" height="194" fill="none" xmlns="http://www.w3.org/2000/svg"><g clip-path="url(#clip0)"><path d="M96.101 34.211c7.018.863 14.158 1.79 20.665 4.681 8.525 3.807 15.168 10.722 21.601 17.44l24.44 25.645c7.725 8.108 15.97 16.55 26.675 19.967 8.336 2.65 17.246 1.931 25.912 2.899 10.2 1.147 20.07 4.641 28.789 10.191-15.137 10.337-25.554 25.943-29.226 43.787-.155.771-.347 1.591-.925 2.116-1.337 1.156-3.48-.095-4.792-1.384-9.857-9.704-15.299-24.519-28.193-29.662-6.95-2.77-14.663-2.028-21.951-.937-12.132 1.841-24.188 4.564-36.55 4.445-8.83-.084-17.627-1.622-26.37-3.156-6.995-1.228-14.112-2.494-20.438-5.778-6.78-3.523-12.212-9.14-17.375-14.737-12.023-13.046-23.771-27.267-28.21-44.059-2.598-9.878-2.517-20.116-2.423-30.216.12-13.021 17.93-7.418 26.714-6.338l41.657 5.096z" fill="#255776"/></g><defs><clipPath id="clip0"><path fill="#fff" transform="rotate(28.294 22.593 89.635)" d="M0 0h230.097v95.331H0z"/></clipPath></defs></svg>