<svg width="206" height="162" fill="none" xmlns="http://www.w3.org/2000/svg"><g clip-path="url(#clip0)"><path d="M125.818 23.648c-5.825-.65-11.752-1.26-17.15.26-7.072 2.01-12.575 7.581-17.904 13L70.516 57.617c-6.4 6.548-13.23 13.322-22.113 14.462-6.916.879-14.315-1.786-21.509-2.688-8.467-1.052-16.656.35-23.885 4.085 12.586 13.776 21.263 31.873 24.344 50.775.13.816.29 1.69.771 2.348 1.113 1.463 2.89.659 3.977-.364 8.167-7.703 12.66-21.552 23.356-23.968 5.766-1.3 12.17 1.127 18.224 3.818 10.077 4.504 20.092 9.886 30.356 12.451 7.332 1.833 14.633 2.184 21.89 2.527 5.805.273 11.712.535 16.959-1.422 5.623-2.102 10.124-6.62 14.4-11.177 9.96-10.625 19.689-22.5 23.345-38.572 2.14-9.458 2.054-19.863 1.958-30.13-.122-13.238-14.901-11.422-22.192-12.235l-34.579-3.88z" fill="#255776"/></g><defs><clipPath id="clip0"><path fill="#fff" transform="scale(-1 1) rotate(21.632 -84.016 -439.75)" d="M0 0h180.763v102.179H0z"/></clipPath></defs></svg>