<svg width="768" height="598" fill="none" xmlns="http://www.w3.org/2000/svg"><g clip-path="url(#clip0)"><path d="M758.93 451.318c-1.2.641-2.399 1.282-3.549 1.987 1.349.384 2.199-2.435 3.549-1.987z" stroke="url(#paint0_linear)" stroke-miterlimit="10"/><path d="M767.778 1H2v38h765.778V1z" fill="url(#paint1_linear)"/><path d="M767.778 1H.5v527h767.278V1z" fill="url(#paint2_linear)"/><path d="M701.997 187.002c-90.374-17.754-180.148-20.317-253.227-14.934-48.436 3.59-48.736-4.486.05-4.294 121.965.449 155.305-17.241 253.177.898v18.33z" fill="url(#paint3_linear)"/><path d="M701.997 187.002c-90.374-17.754-180.148-20.317-253.227-14.934-48.436 3.59-48.736-4.486.05-4.294 121.965.449 155.305-17.241 253.177.898v18.33z" fill="url(#paint4_linear)"/><path d="M2.4 251.543c169.051-17.754 330.155-15.767 466.865-10.383 90.624 3.589 97.672-9.549 6.748-8.844-166.701 1.217-290.566-17.241-473.563.897l-.05 18.33z" fill="url(#paint5_linear)"/><path d="M372.78 458.908c189.472 0 343.015-147.797 343.015-330.129 0-45.689-9.646-89.209-27.08-128.779-12.95 0-172.65.722-314.591.722C232.173.722 68.947.025 56.837.025 39.407 39.59 29.766 83.1 29.766 128.78c0 182.332 153.543 330.129 343.014 330.129z" fill="#DCEFF9" stroke="#fff" stroke-width=".25" stroke-miterlimit="10"/><path d="M701.797 355H2v173h699.797V355z" fill="url(#paint6_linear)"/><path d="M767.778 355H0v173h767.778V355z" fill="url(#paint7_linear)"/><path opacity=".1" d="M691 398.506c-1.949.769-4.249-.449-6.198-.834-1.7-.32-3.349-.063-5.049.129-5.698.769-7.547 2.436-11.096 2.179-.35 0-.45.064-.1.128 1.399.256 4.198.129 4.248.129 1.6-.129 3.049-.45 4.599-.705 1.75-.321 3.499-.45 5.249-.321 1.599.128 3.199.576 4.798.769 1.25.128 2.499-.064 3.499-1.154.2-.192.35-.384.05-.32z" fill="#B5E0F1"/><path opacity=".12" d="M127.313 415.361c-4.849.32-9.748.32-14.596-.192-4.299-.449-8.448-1.346-12.697-2.115-3.998-.705-7.897-.962-11.946-.385-4.049.577-7.998 1.73-12.047 2.372-4.298.705-8.697.833-13.046.448-.2 0-.2.192-.05.257 4.399 1.153 8.998 1.153 13.496.512 4.349-.641 8.698-1.474 13.096-1.666 4.35-.193 8.698 0 13.047.449 8.147.897 16.645 2.948 24.743.64.349-.128.349-.32 0-.32z" fill="#B5E0F1"/><path opacity=".06" d="M416.13 375.561c-2.149-.449-4.299-.257-6.448 0-2.399.32-4.749.769-7.198.769-2.399 0-4.798-.321-7.198-.769-2.149-.385-4.348-.833-6.548-.833-2.049 0-4.149.384-5.998 1.41-.1 0-.35.256-.35.32-.15.192-.1.32.15.192.1-.064.2-.064.35-.128 4.149-1.41 8.597 0 12.746.897 2.15.449 4.299.769 6.448.641 2.2-.128 4.399-.384 6.548-.705 1.2-.192 2.4-.449 3.599-.705 1.3-.321 2.6-.897 3.899-.897.2.064.25-.128 0-.192z" fill="#B5E0F1"/><path d="M0 549.501v27c22.494-.5 17.395-4.097 66.634-12.155 24.895-4.029 49.79-9.592 74.836-8.153 42.778 2.398 85.004 24.94 127.481 17.362 14.527-2.591 28.753-8.729 43.379-9.688 40.524-2.782 77.542 33.476 117.962 38.561 55.802 7.002 109.149-45.756 164.8-36.739 12.627 2.015 25.149 7.29 37.821 6.427 12.122-.864 23.694-7.29 35.666-10.168 20.635-4.892 41.725 1.247 62.21 7.29 40.525 11.99 5.782 15.083 36.989 20.263v-17.385c0-10.168-.05-2.398 0-10.168.05-13.332 0-12.447 0-15.947 0-1.5.004 1.5 0-3.5v-15.5c-95.577-.384-146.887.319-242.459-.065l-160.994-.575-174.066-.576c-87.008-.288-103.25.098-190.259-.285v16.501" fill="#94D8F0"/><path d="M364.471 269.508c69.126 0 125.11-55.478 125.11-123.849 0-68.37-55.984-123.85-125.11-123.85S239.36 77.29 239.36 145.66c0 68.371 55.985 123.849 125.111 123.849z" fill="#FFFCE8" fill-opacity=".5"/><path d="M364.932 234.271c48.953 0 88.639-39.699 88.639-88.612 0-48.912-39.686-88.611-88.639-88.611-48.952 0-88.639 39.7-88.639 88.611 0 48.913 39.687 88.612 88.639 88.612z" fill="#FFF7BD" fill-opacity=".5"/><path d="M363.086 191.779c25.522 0 46.166-20.599 46.166-46.119s-20.644-46.12-46.166-46.12-46.166 20.6-46.166 46.12c0 25.52 20.644 46.119 46.166 46.119z" fill="#FEF4A2"/><path d="M2.4 251.543c169.051-17.754 330.155-15.767 466.865-10.383 90.624 3.589 97.672-9.549 6.748-8.844-166.701 1.217-290.566-17.241-473.563.897l-.05 18.33z" fill="url(#paint8_linear)"/><path d="M0 88.458s240.814 8.028 456.454 10.067c129.421 1.21 257.581 5.543 297.328-10.067V71s-91.777 16.056-293.124 19.815C344.64 92.982 192.24 94.702.047 83.297L0 88.457z" fill="url(#paint9_linear)"/><path opacity=".6" d="M0 350.936v-65.234C20.94 260.042 78.333 228 78.333 228c6.648 5.234 36.932 29.872 43.21 28.085 9.861-2.745 22.418-11.617 24.228-13.149 3.767-3.255 30.653-.191 40.699 2.425 0 0 19.315-11.616 28.437-11.425 5.245.128 21.125 19.915 52.776 57.575 2.401 2.872 19.833-8.809 19.833-8.809 11.485 5.426 21.051 34.022 21.051 34.022 8.088 5.808 7.312 29.17 10.341 34.276L0 350.936zM767.778 355V187l-93.806 25.944c-7.951 6.007-44.231 34.508-51.77 32.463-11.803-3.195-26.835-13.42-28.988-15.209-4.516-3.77-36.696-.255-48.746 2.812 0 0-23.112-13.419-34.045-13.164-6.293.128-25.305 23.069-63.197 66.523-2.899 3.322-23.734-10.225-23.734-10.225-13.75 6.262-25.219 39.3-25.219 39.3-9.691 6.71-8.78 33.677-12.384 39.556h381.889z" fill="#ACDCF6"/><path d="M0 153c63.096-14.103 126.991-13.073 178.082-8.758 33.822 2.834 32.864-6.633-1.236-6.44-85.193.387-108.485-13.716-176.846.709V153z" fill="url(#paint10_linear)"/><path d="M767.778 440.5V410c-14.996-2.5-49.506 7.147-64.232 9.521-14.73-2.374-64.866-14.817-78.442-7.633-13.676 7.312-16.83 9.171-27.802 11.16-31.306 5.644-57.298-9.236-66.616-1.283-1.804 1.54 4.959 24.053 1.2 40.089-3.004 12.764-139.5 19.691-142.554 12.058-5.058-12.507 2.505-24.694 0-27.709-7.964-9.814-35.864-3.784-37.267-7.633-3.306-9.044 1.603-14.56.201-23.924-1.202-8.018-77.79-18.922-118.312-4.298-46.583 16.741-82.799 23.155-117.611 25.593-.801.064 1.303 8.851.501 8.915-1.502.065-17.18-3.463-17.682-5.195-2.253-7.761-77.288-5.773-96.222-3.656H0V529l2.74-1.209v.064h765.038V480c0-4 .5-33.5 0-39.5z" fill="url(#paint11_linear)"/><path d="M0 384.405V282c9.498-.512 3.299 1.717 14.945-1.039 11.347-2.692 14.396-10.575 27.892-17.946 11.197-6.089 14.696-3.14 24.793-9.293 18.295-11.088 40.039-40.57 41.788-37.302 7.298 13.268 30.241 40.314 32.941 56.209 5.048 29.867-.75 54.093-.75 54.093 8.447 8.012 23.593-9.934 64.581-16.407 15.296-2.435 33.64.641 47.336-1.089 36.59-4.615 38.589-11.089 49.086-7.756 16.196 5.063 25.143 18.202 42.088 43.07 14.946 21.92 22.394 32.879 21.594 39.865H0z" fill="#FAFDFF"/><path d="M2.4 384.598c.9-3.654 4.65-9.166 4.65-9.166 7.747-9.165 63.43-58.067 71.728-58.58 7.598-.512 9.497 5.063 18.745 2.308 9.047-2.692 11.746-15.703 22.493-23.073 8.948-6.089 11.697-3.269 19.845-9.293 8.147-6.025 16.895 12.177 18.294 15.382 5.849 13.266 13.596 24.675 15.746 40.569 3.999 29.867 18.694 33.52 25.842 33.328 13.946-.256 20.594-19.676 53.385-26.149 12.246-2.436 28.891 2.436 39.888.897 13.696-1.923 18.295-12.37 26.693-9.101 12.946 5.063 30.191 18.01 43.737 42.878H2.4z" fill="#B5E0F1"/><path d="M.05 384.405C0 381 .05 366.5.05 366.5c0-7.5-.05-22.5 0-24.972C.08 340 .05 321 .05 318.5c0-1.5-.05-16 0-22.606 8.947-6.088 11.697-3.268 19.844-9.293 8.148-6.024 16.895 12.178 18.295 15.382 5.848 13.267 13.596 24.675 15.745 40.57 4 29.867 18.695 33.52 25.843 33.328 13.946-.256 20.594-19.677 53.385-26.15 12.246-2.435 28.891 2.435 39.888.898 13.696-1.923 18.295-12.37 26.692-9.101 12.947 5.063 30.192 18.009 43.738 42.877H.05z" fill="#B5E0F1"/><path d="M336.702 371.459c-2.399-1.859-22.543-2.948-28.491-3.589-5.699-.642-11.147-3.269-16.795-4.295-2.65-.512-4.099-7.563-6.449-5.832-.799.577-2.649 7.82-5.448 8.845-5.948 2.115-3.599 10.063-22.843 2.371-5.899-2.371-8.148 8.268-14.996 4.359-2.099-1.218-8.847 2.307-11.597 2.051-9.447-.898-12.096 1.153-17.894 3.717-5.749 2.499-20.345 2.884-26.293 4.486-3.049.833-7.198 1.154-10.247.128-5.698-2.179-15.245-12.434-16.495-16.535-1.4-4.615-8.698 12.497-12.546 12.69-3.15.128-6.798.064-8.798-3.589-.85-1.475-1.399-3.205-2.399-4.551-1.25-1.666-2.949-2.371-4.549-3.269-3.399-1.858-12.496-15.125-15.096-18.458-1.849-2.307-6.148-17.818-7.897-11.537-1.1 3.974-6.848 28.201-8.548 32.11-3.799 8.653-11.296 11.216-18.344 14.165h275.92c.15-1.923-14.796-9.101-20.195-13.267zM55.384 384.598c-3.15-3.205-7.148-3.27-10.197-6.73-1.35-1.538-2.55-3.398-3.1-5.641-.3-1.345-.4-2.691-.65-4.037a19.247 19.247 0 00-.999-3.846c-.45-1.41-1.05-2.755-1.6-4.102-.45-1.025-1.449-2.179-1.899-2.307-.2-.064-.1.321-.1.577a6.538 6.538 0 01-.75 3.653c-.45.897-.85 1.794-1.1 2.82-.6 2.307-.6 4.807-.899 7.242-.3 2.628-.7 5.192-1.2 7.756-.35 1.73-1.65 4.038-3.149 4.678h25.643v-.063z" fill="#87C8E1"/><path opacity=".6" d="M175.049 267.63c-1.2-1.603-2.599-2.82-3.899-4.23-1.4-1.41-2.649-2.948-3.499-4.999-.85-2.115-1.35-4.423-1.15-6.794 0-.193.05-.385.1-.641.45-1.795.35-3.781.5-5.704.1-1.346-.45-1.602-.5-.321-.25 4.038-2.649 8.14-2.649 12.242 0 3.653 1.25 7.114 2.949 9.934.9 1.474 1.9 2.884 3.049 4.102 1.25 1.346 2.65 2.564 3.749 4.102 2.2 3.076 3.299 7.435 3.999 11.473.85 4.934 1.35 11.471.75 16.471-.15 1.281.45 1.025.7-.321 1.549-9.614 1.599-20.765-1.35-29.866-.75-1.987-1.599-3.846-2.749-5.448zm78.378 49.926c-4.349 6.538-8.748 8.653-18.595 10.447-3.049.577-6.148 1.602-8.597 4.23-.65.705-1.2 1.474-1.7 2.372-.05.063-.3.448-.35.64-1 1.859-1.799 3.91-2.399 6.025-.35 1.281.15 1.346.5.064.55-1.987 1.849-4.294 2.849-6.024.9-1.09 2.799-.449 3.999-.642 1.199-.192 2.449-.384 3.649-.576 2.649-.449 5.298-1.09 7.847-2.307 5.249-2.564 8.848-8.076 12.697-13.076.7-.897.85-2.114.1-1.153zm72.978 18.844c-1.849-1.858-3.499-3.14-4.249-6.024-.45-1.731.25-6.153.4-7.884.15-1.666.5-3.333 0-4.871-.85-2.756-2.549-4.358-4.549-5.704-2.549-1.667-5.248-3.012-8.047-3.845-.7-.192-1-.065-.4.32 2.299 1.41 5.748 3.397 7.298 5.512 1.549 2.115 1.199 5.319 1.649 8.204.3 1.73-.05 4.23.4 5.832.35 1.346.9 2.628 1.6 3.782 1.399 2.371 3.499 4.358 5.748 5.191.65.192.7.064.15-.513z" fill="#A9D5E4"/><path d="M351.248 414.529s-16.995-.705-18.145 6.473c-1.349 8.396 16.196 19.676 17.945 17.433 0 0-.7-1.795-1-3.909-.1-.642-.15-1.347-.15-1.987-.1-7.114 2.55-9.101 1.35-18.01zm177.849 7.818s12.746-1.41 15.895 5.384c5.499 12.049-9.247 29.995-14.546 34.289 0 0 1.9-7.114 1-18.971-.95-11.153-2.949-16.151-2.349-20.702zm-140.409 24.804s-2.399 1.026-5.698 2.372c-4.25 1.73-6.349.577-6.899 2.051-.7 1.795-.35 7.498 3.249 13.843 3.85 6.73 8.448 8.781 8.948 8.525 0 0-1.649-5.897-1.649-13.652.05-1.73 2.649-9.037 2.049-13.139zm210.888-24.996s5.699-1.153 13.596-4.935c4.849-2.307 9.797-6.216 11.647-6.024 0 0 4.299-.961 9.197 1.923 5.549 3.332 11.697 10.574 10.847 10.447-14.996-2.948-45.187-.321-45.287-1.411z" fill="#B5E0F1"/><path opacity=".5" d="M151.356 475.287c-2.249-2.692-4.998-4.55-7.197-7.243-1.25-1.538-2.2-3.332-2.8-5.383-.65-2.307-.849-4.743-1.399-7.115-1.05-4.293-3.949-6.986-7.148-8.396-4.299-1.858-9.048-2.755-13.546-2.435-1 .064-1.1.449-.35.577 3.149.448 6.348 1.41 9.097 3.333 2.799 1.987 4.799 6.153 6.448 9.741 1.55 3.398 2.7 7.179 4.949 9.935 1.25 1.538 2.749 2.628 4.199 3.781 1.349 1.09 2.649 2.308 3.799 3.653 2.749 3.141 7.297 9.422 7.347 14.357 0 .834.2-2.82.25-3.461.3-4.423-1.149-8.396-3.649-11.344zm485.274-2.692c-1.899-3.205-5.798-4.486-8.447-6.73-2.8-2.371-6.249-2.82-9.098-4.999-2.499-1.922-4.548-4.807-6.398-7.627-1.799-2.82-3.449-5.768-5.148-8.652-.05-.128-.1-.257-.2-.32-.25-.257-.55-.064-.7.192-.1.192-.2.384-.15.641a39.789 39.789 0 003.599 11.729c1.549 3.14 3.499 5.96 5.748 8.268 2.5 2.563 5.299 4.358 8.148 6.216 2.899 1.923 5.798 3.91 8.198 6.794 2.299 2.692 4.948 4.551 6.248 8.204.25.705 12.346 24.162 12.396 23.522.25-4.807-11.996-33.52-14.196-37.238zm-285.432-11.921c-4.349 8.268-14.295 13.652-21.293 15.831-3.899 1.217-7.749 2.756-11.198 5.512-3.049 2.435-5.697 5.64-8.047 9.165-2.749 4.102-5.099 8.588-7.448 13.075-.4.769.2 1.089.65.32.849-1.603 3.149-4.486 3.249-4.615 9.997-12.626 25.143-14.164 36.189-24.803 2.899-2.82 5.449-6.217 7.298-10.255.35-.833 1-4.999.6-4.23zM68.43 512.204c-3.25-8.973-10.497-13.972-17.745-16.087-4.149-1.218-8.498-1.218-12.496-3.14-4.1-1.987-7.598-5.191-10.947-8.717-1.6-1.667-3.25-3.269-5.199-4.166-1.8-.833-3.799-1.089-5.648-.513-.2 0-.35.129-.45.321-.2.384-.05 1.026.3 1.153a39.544 39.544 0 0110.097 7.243 47.65 47.65 0 014.249 4.743c1.35 1.73 2.45 3.781 3.849 5.319 1.45 1.602 3.249 1.987 5.098 1.987 1.9-.064 3.8-.32 5.699-.385 3.948-.063 8.047.385 11.746 2.372 4.249 2.243 8.898 7.884 11.947 12.113.55.705-.25-1.474-.5-2.243z" fill="#B5E0F1"/><path d="M429.876 249.671s3.719 7.977 8.588 20.039c.954 2.362 6.333 1.532 7.387 4.213 1.305 3.382-1.709 10.275-.355 13.976 7.638 21.061 15.421 46.972 16.376 67.075l305.906.526V265c-3.499 0-14.765 1-18.784 1.328-24.258 1.979-51.585.319-82.931-2.617-2.66-.255.654 3.702-2.11 3.447-2.159-.192-10.397-4.595-12.656-4.85-58.523-5.808-130.502-14.551-221.421-12.637z" fill="#FAFDFF"/><path d="M456.568 355.308c.8-14.293 1.35-26.983 1.75-38.071.1-3.653 3.599-2.308 3.699-5.64.15-5.448-3.149-15.254-3.099-19.805.1-8.396.05-15.254 0-20.637-.05-1.987.949-2.115.899-3.718 0-1.025-1.049-3.653-1.099-4.55-.1-4.23-.25-6.345-.25-6.345 9.797 1.153 22.643 2.435 37.589 4.743.85.127-.7 6.088 2.299 9.805 3.999 4.936 1.65 16.921 2.749 17.69.8.577 3.499-5.768 4.199-13.908.5-6.152.85-11.985 1.45-11.857 30.341 5.32 67.48 14.933 104.72 35.058 0 0 54.234-6.473 77.227-29.418 0 0 2.65 11.088 5.599 27.111.4 2.179 7.298-10.255 7.698-7.947v67.36h-245.43v.129z" fill="#B5E0F1"/><path d="M684.102 345.886c-2.149-1.345-20.044-2.115-25.342-2.627-5.049-.513-9.898-2.371-14.946-3.076-2.349-.321-3.649-5.448-5.748-4.231-.75.449-2.35 5.641-4.849 6.346-5.298 1.538-3.199 7.242-20.294 1.73-5.249-1.667-7.248 5.961-13.346 3.14-1.9-.832-7.848 1.667-10.297 1.475-8.398-.642-10.797.833-15.896 2.628-5.148 1.794-18.094 2.05-23.393 3.268-2.699.577-6.398.833-9.097.128-5.099-1.538-13.546-8.973-14.646-11.921-1.25-3.333-7.748 9.037-11.197 9.165-2.799.128-6.048.065-7.848-2.563-.749-1.09-1.249-2.307-2.149-3.269-1.1-1.218-2.649-1.731-4.049-2.371-2.999-1.347-11.096-10.896-13.446-13.331-1.649-1.667-5.448-12.883-7.048-8.333-.999 2.885-6.098 20.317-7.598 23.137-3.349 6.282-10.047 8.076-16.295 10.191h245.379c.2-1.346-13.046-6.537-17.895-9.486zm-76.378-29.738c-1.799 0-8.347-1.538-16.745-14.87-7.048-11.216-17.695-18.779-17.695-18.779-3.099-2.05-7.897-4.486-7.897-4.486 15.045 5.192 30.541 11.729 46.086 20.125 0 0 54.235-6.473 77.228-29.418 0 0 2.449 7.434 2.449 11.088 0 0-10.097 16.92-35.939 15.638-12.497-.577-47.487 20.702-47.487 20.702zm-68.63-46.018c-1.25 1.41 1.099 7.498 2.599 11.472 2.449 6.537 3.149 9.23 3.499 12.818.5 5.577-1.5 7.884-1.25 8.012.25.128 3.949-4.935 3.649-11.28-.299-6.025-.499-8.653.7-11.281 1.1-2.499.2-6.344 4.899-5.768 0 0-3.649-.961-6.548-1.922-3.449-1.218-7.548-2.051-7.548-2.051z" fill="#87C8E1"/><g opacity=".44"><path opacity=".44" d="M356.796 384.598H80.876c7.048 1.923 14.546 3.589 18.345 9.293 1.699 2.564 7.448 18.587 8.547 21.15 1.75 4.166 6.098-6.088 7.898-7.627 2.649-2.179 11.747-10.959 15.096-12.177 1.599-.577 3.299-1.09 4.548-2.179 1-.897 1.6-1.987 2.4-3.012 1.999-2.372 5.648-2.436 8.797-2.372 3.849.128 11.147 11.408 12.546 8.332 1.25-2.756 10.747-9.485 16.496-10.895 3.049-.642 7.198-.449 10.247.128 5.948 1.089 20.544 1.282 26.292 2.948 5.798 1.666 8.448 3.012 17.895 2.435 2.749-.192 9.497 2.115 11.597 1.347 6.898-2.565 9.147 4.421 14.995 2.883 19.245-5.063 16.845.128 22.844 1.538 2.799.642 4.598 5.448 5.448 5.833 2.349 1.089 3.799-3.525 6.448-3.846 5.649-.705 11.097-2.371 16.795-2.82 5.899-.448 26.093-1.153 28.492-2.371 5.498-2.692 20.444-7.435 20.194-8.588z" fill="url(#paint12_linear)"/><path opacity=".44" d="M356.796 384.598H80.876c7.048 1.923 14.546 3.589 18.345 9.293 1.699 2.564 7.448 18.587 8.547 21.15 1.75 4.166 6.098-6.088 7.898-7.627 2.649-2.179 11.747-10.959 15.096-12.177 1.599-.577 3.299-1.09 4.548-2.179 1-.897 1.6-1.987 2.4-3.012 1.999-2.372 5.648-2.436 8.797-2.372 3.849.128 11.147 11.408 12.546 8.332 1.25-2.756 10.747-9.485 16.496-10.895 3.049-.642 7.198-.449 10.247.128 5.948 1.089 20.544 1.282 26.292 2.948 5.798 1.666 8.448 3.012 17.895 2.435 2.749-.192 9.497 2.115 11.597 1.347 6.898-2.565 9.147 4.421 14.995 2.883 19.245-5.063 16.845.128 22.844 1.538 2.799.642 4.598 5.448 5.448 5.833 2.349 1.089 3.799-3.525 6.448-3.846 5.649-.705 11.097-2.371 16.795-2.82 5.899-.448 26.093-1.153 28.492-2.371 5.498-2.692 20.444-7.435 20.194-8.588z" fill="url(#paint13_linear)"/><path opacity=".44" d="M29.791 384.598c1.5.384 2.8 1.923 3.15 3.076a44.41 44.41 0 011.199 5.128c.3 1.602.3 3.204.9 4.742.25.705.65 1.218 1.1 1.859.549.769.849 1.538.749 2.435-.05.192-.1.449.1.385.5-.064 1.5-.898 1.9-1.538.6-.898 1.15-1.795 1.599-2.692.4-.833.75-1.666 1-2.564.2-.897.3-1.795.65-2.692.55-1.473 1.699-2.691 3.099-3.717 3.049-2.243 6.997-2.307 10.197-4.422H29.79z" fill="url(#paint14_linear)"/><path opacity=".44" d="M29.791 384.598c1.5.384 2.8 1.923 3.15 3.076a44.41 44.41 0 011.199 5.128c.3 1.602.3 3.204.9 4.742.25.705.65 1.218 1.1 1.859.549.769.849 1.538.749 2.435-.05.192-.1.449.1.385.5-.064 1.5-.898 1.9-1.538.6-.898 1.15-1.795 1.599-2.692.4-.833.75-1.666 1-2.564.2-.897.3-1.795.65-2.692.55-1.473 1.699-2.691 3.099-3.717 3.049-2.243 6.997-2.307 10.197-4.422H29.79z" fill="url(#paint15_linear)"/></g><path opacity=".05" d="M542.542 377.675c-7.947-1.474-15.995-1.603-23.843-.385-16.795 2.628-16.245.321-24.393-.063-2.199-.129-4.398-.321-6.648-.385-1.999-.064-4.048.448-5.898 1.41-.25.128-.2.193 0 .256h.1c7.848-.833 15.096 1.731 22.943 1.731 7.848 0 16.396-1.923 24.293-2.179 4.449-.128 8.698-.577 13.146-.257.3.064.55-.128.3-.128z" fill="#B5E0F1"/><path opacity=".44" d="M701.997 355.307H456.618c6.248 2.115 12.946 3.909 16.295 10.19 1.5 2.82 6.599 20.318 7.598 23.138 1.6 4.55 5.399-6.666 7.048-8.333 2.35-2.371 10.447-11.985 13.446-13.331 1.45-.64 2.949-1.153 4.049-2.371.9-.962 1.4-2.179 2.149-3.269 1.8-2.628 5.049-2.691 7.848-2.563 3.399.128 9.947 12.433 11.197 9.165 1.1-3.012 9.597-10.383 14.646-11.921 2.699-.705 6.398-.513 9.097.128 5.299 1.153 18.245 1.41 23.393 3.268 5.149 1.795 7.548 3.269 15.896 2.628 2.449-.192 8.447 2.372 10.297 1.474 6.098-2.82 8.097 4.871 13.346 3.141 17.095-5.512 14.996.192 20.294 1.73 2.499.705 4.099 5.961 4.849 6.345 2.099 1.218 3.349-3.845 5.748-4.23 5.048-.769 9.897-2.627 14.946-3.076 5.248-.513 23.193-1.282 25.342-2.628 4.849-3.012 18.095-8.204 17.895-9.485z" fill="url(#paint16_linear)"/><path opacity=".12" d="M480.21 389.468c-6.648-1.858-13.546-.192-20.194.577-3.549.385-7.098.577-10.647.385-3.599-.193-7.148-.833-10.697-1.346-3.649-.513-7.398-.577-10.996.384-.15.064-.1.192.049.192 3.549-.32 7.148-.192 10.647.321 3.299.513 6.499 1.474 9.798 1.923 3.299.449 6.498.256 9.747-.321 3.449-.641 6.848-1.346 10.347-1.73a73.855 73.855 0 0111.896-.193c.3.065.3-.128.05-.192z" fill="#B5E0F1"/><path opacity=".08" d="M630.518 388.058c-2.249-.449-4.549-.257-6.848 0-2.549.32-5.049.705-7.598.705-2.549 0-5.048-.32-7.598-.705-2.299-.385-4.598-.769-6.898-.769-2.199 0-4.348.384-6.298 1.282-.1 0-.35.256-.4.32-.15.192-.1.257.15.128.1-.064.2-.064.35-.128 4.399-1.282 9.048 0 13.446.769 2.25.385 4.499.705 6.798.577 2.3-.128 4.599-.321 6.898-.641 1.3-.192 2.55-.385 3.799-.641 1.35-.32 2.75-.833 4.149-.769.3.128.35-.064.05-.128zM435.974 424.27c-1.1 0-2.15-.385-3.149-.577-.95-.192-1.95-.384-2.899-.513-1.75-.256-3.549-.448-5.299-.513-1.749-.127-3.499.065-5.248.321-3.349.513-6.948 1.282-10.297.384-.1 0-.2-.063-.25-.063-.2-.064-.2-.064-.1.128.05.064.2.192.3.192 1.499.641 3.149.961 4.848.961 1.8.065 3.549-.192 5.299-.384 1.949-.256 3.849-.449 5.798-.384 1.949.063 3.899.32 5.848.576 1.75.257 3.499.384 5.249.129.15-.129.1-.257-.1-.257z" fill="#B5E0F1"/><path opacity=".1" d="M490.258 438.819c-1-.962-2.299-1.218-3.599-1.089-1.649.192-3.299.64-4.949.705-1.799.128-3.648 0-5.448-.321-1.599-.256-3.099-.513-4.749-.705-.05 0-2.949-.192-4.348.128-.4.064-.3.193.1.128 3.699-.256 5.598 1.346 11.496 2.051 1.75.192 3.449.449 5.199.129 1.999-.321 4.399-1.539 6.398-.77.25.128.1-.064-.1-.256z" fill="#B5E0F1"/><path opacity=".08" d="M398.485 404.209c-1.55 0-3.099-.577-4.599-.897a45.777 45.777 0 00-4.249-.769c-2.549-.385-5.148-.641-7.698-.833-2.599-.193-5.099 0-7.648.32-4.898.641-10.147 1.73-15.045.32-.15-.064-.25-.064-.4-.128-.25-.128-.3-.064-.15.128.05.065.3.257.45.321 2.149.961 4.598 1.41 7.048 1.474 2.599.064 5.198-.192 7.747-.513 2.799-.32 5.649-.512 8.498-.449 2.849.065 5.649.513 8.498.962 2.549.32 5.098.577 7.648.256.25-.064.2-.192-.1-.192z" fill="#B5E0F1"/><path opacity=".06" d="M593.279 410.619c-8.498-.897-16.996-1.153-25.493-.577-4.199.257-8.448.769-12.647 1.026-2.099.128-4.198.192-6.248-.064-2.049-.257-4.099-.705-6.148-1.154-4.199-.961-8.548-1.859-12.746-.256-.25.064-.05.192.05.192 4.098-.192 8.397.769 12.396 1.795 1.949.513 3.799 1.346 5.748 1.666 2.05.32 3.999-.256 6.049-.448 2.099-.193 4.199.128 6.298.192 1.999 0 3.999-.257 5.998-.642 4.199-.705 8.398-1.089 12.597-1.217 4.698-.128 9.397-.193 14.096-.193.349-.063.349-.255.05-.32z" fill="#B5E0F1"/><path d="M767.777 297.5v-9s-24.992 5.5-79.217-19.967c0 0-4.758 12.615-4.758 18.922 0 0 19.479 28.834 69.525 26.645 8.452 0 14.45-.1 14.45-.1v-16.5z" fill="#87C8E1"/><path d="M767.778 317.5v-22s-29.192-3.446-52.5-26.5c0 0-2.689 11.14-5.678 27.24-.405 2.19-7.398-10.304-7.803-7.985V356h65.981v-38.5z" fill="#B5E0F1"/><path d="M475.812 347.181s-2.499-10.895-6.798-15.125c-4.349-4.23-9.497-3.397-10.347-2.115-.85 1.281 5.198 4.614 4.749 7.113-.45 2.5-3.849 5.192-3.849 5.192l16.245 4.935zm-72.229 44.032c2.35-1.411 8.048-7.884 8.048-7.884l2.699.257s3.899 8.459 5.848 10.639c1.95 2.179 7.048 5.961 6.049 7.178-1 1.218-12.097 0-14.146-3.845-.2-.32-.35-.705-.5-1.09-.2.32-.45.641-.75.897-2.849 2.949-13.696.065-14.446-1.474-.649-1.538 4.799-3.268 7.198-4.678z" fill="#27262C"/><path d="M509.002 396.019c1.8-3.332.45-15.253-3.899-23.457-4.348-8.204-16.095-20.061-28.841-26.727-12.197-6.408-23.793-6.601-34.84-1.794-13.896 6.025-30.991 32.11-30.441 43.262 1.749 2.436 9.147-10.511 13.796-13.331 3.049-1.859 16.645-9.229 28.441.064 14.246 11.28 50.286 31.982 55.784 21.983z" fill="#27262C"/><path d="M411.331 387.623c11.047-24.932 31.441-22.368 33.39-23.778 1.95-1.41-6.948-6.345-2.399-9.229 4.549-2.884 15.646 9.934 18.795 14.997 3.149 5.064 17.195 11.665 21.194 14.036 3.998 2.372 8.297 1.987 10.696 1.41 2.4-.513 6.399 3.077 9.898 8.012 2.249 3.205 4.548 3.525 5.798 3.397-6.348 8.909-41.488-11.345-55.484-22.368-11.797-9.294-25.393-1.923-28.442-.065-4.349 2.628-11.247 14.357-13.446 13.588zm70.879-20.765c1.95-1.218 6.399 3.974 8.398 5.448 1.949 1.538 3.799 4.102 1.1 4.742-2.7.705-14.146-7.242-9.498-10.19z" fill="#F2F2F0"/><path d="M481.261 380.829s-3.849 12.819-14.046 14.036c-10.247 1.218-12.397-2.115-12.547-3.653-.1-1.538 5.649-.128 8.848-4.166 3.149-4.037 5.498-10.19 7.648-11.729l10.097 5.512z" fill="#27262C"/><path d="M496.057 381.278c-.15.705.05 1.41.45 1.474.35.128.75-.385.85-1.154.15-.704-.05-1.41-.45-1.474-.3 0-.7.449-.85 1.154z" fill="#020203"/><path d="M470.314 391.725c-.45 0-.45-.897 0-.961.5.064.45.961 0 .961zm-1.949 1.218c-.2.192-.35.32-.55.512-.05.064-.15.064-.2.064-.05.064-.15 0-.2 0-.05 0-.1-.064-.15-.128l-.15-.192c-.1-.128-.1-.321-.05-.513 0 0 0-.064.05-.128.05-.128.1-.192.2-.257.2-.192.35-.32.55-.512.05-.064.15-.064.2-.064.05-.064.15 0 .2 0 .05 0 .1.064.15.128l.15.192c.1.128.1.321.05.513 0 0 0 .064-.05.128-.1.064-.15.192-.2.257zm-3.45.769c-.1 0-.25-.064-.4-.064-.05 0-.1-.064-.15-.128l-.15-.192c-.05-.064-.05-.192-.05-.257-.05-.064 0-.192 0-.256 0 0 0-.064.05-.128s.1-.193.2-.256c.05 0 .05-.065.1-.065h.25c.1 0 .25.065.4.065.05 0 .1.063.15.128l.15.192c.05.064.05.192.05.256.05.064 0 .192 0 .257 0 0 0 .064-.05.128a.46.46 0 01-.2.256c-.05 0-.05.064-.1.064h-.25zm7.449-2.563c-.05-.064-.1-.064-.15-.128l-.15-.192c-.05-.065-.1-.129-.1-.192-.05-.065 0-.193 0-.257s0-.128.05-.193c0-.063.05-.128.1-.128.05-.128.15-.128.2-.192h.15c.1 0 .15 0 .25.128.05.064.1.064.15.129l.15.192c.05.064.1.128.1.192.05.064 0 .192 0 .256 0 .065 0 .128-.05.193l-.1.128c-.05.064-.15.128-.2.192h-.15c-.15-.064-.2-.064-.25-.128zm-5.699.704c-.05.065-.15.065-.25.065h-.15c-.05 0-.05 0-.15-.065-.05 0-.1-.064-.1-.128-.05 0-.05-.128-.05-.192v-.128c0-.065 0-.129.05-.257l.05-.064c.05-.064.1-.128.15-.128.05-.064.15-.064.25-.064h.15c.05 0 .05 0 .15.064.05 0 .1.064.1.128.05 0 .05.128.05.192v.129c0 .063 0 .128-.05.256 0 .064-.05.064-.05.128-.05 0-.1 0-.15.064zm-4.049 2.371c-.1 0-.25-.064-.4-.064-.05 0-.1-.064-.1-.064s-.1-.064-.1-.128c0 0-.05-.128-.05-.193v-.192c.05-.128.1-.256.15-.256 0 0 .05-.064.1-.064.05-.064.15 0 .2 0 .1 0 .25.064.4.064.05 0 .1.064.1.064s.1.064.1.129c0 0 .05.127.05.192v.192c-.05.128-.1.256-.15.256 0 .065-.05.064-.1.064-.05.064-.15 0-.2 0zm36.79-25.443c-.2-.384-.4-.897-.65-1.281-.1-.129-.1-.321-.05-.513 0-.129.1-.321.2-.385.25-.192.55-.064.65.256.2.385.4.897.65 1.282.1.128.1.32.05.513 0 .128-.1.32-.2.385-.2.127-.45.064-.65-.257zm-2.75-4.295c-.2-.128-.45-.256-.6-.384l-.15-.192c-.05-.065-.1-.129-.1-.193-.05-.064 0-.192 0-.256s0-.128.05-.193a.57.57 0 01.3-.32h.15c.1 0 .15 0 .25.128.2.129.45.257.6.385l.15.192c.05.064.1.128.1.192.05.065 0 .193 0 .257s0 .128-.05.192a.575.575 0 01-.3.321h-.15c-.1 0-.2-.065-.25-.129zm-2.949-2.178c-.1-.193-.199-.321-.299-.577-.1-.193-.1-.385-.15-.641-.05-.064 0-.192 0-.257 0-.064 0-.128.05-.192l.15-.193c.049-.063.1-.127.15-.127.1-.065.3-.001.4.064.099.063.199.256.249.384.05.129.05.257.1.384 0-.063-.05-.063-.05-.127.05.192.15.32.2.448-.05 0-.05-.064-.1-.128h.05c.05.064.1.128.1.192.05.065.05.128.05.257a.8.8 0 01-.15.448.49.49 0 01-.35.193h-.099a.378.378 0 01-.301-.128zm8.347 8.203c-.15-.129-.25-.193-.4-.321l-.15-.192c-.05-.065-.1-.129-.1-.193-.05-.064 0-.192 0-.256s0-.128.05-.193c0 0 .05-.128.1-.128.05-.064.15-.128.2-.192h.15c.1 0 .15 0 .25.128.15.129.25.192.4.321l.15.192c.05.064.1.128.1.192.05.064 0 .192 0 .257 0 .064 0 .128-.05.192l-.1.128c-.05.128-.15.128-.2.192h-.15c-.1 0-.2 0-.25-.127zm-8.096-4.935l-.3-.192c-.05 0-.1-.064-.1-.128-.05 0-.05-.128-.05-.193v-.192c0-.064 0-.064.05-.192l.05-.064c.05-.064.1-.129.15-.129h.1c.05 0 .1 0 .2.065l.3.192s.1.064.1.128c0 0 .05.128.05.192v.193c0 .064 0 .064-.05.192l-.05.064c-.05.064-.1.128-.15.128h-.1c-.05-.064-.15-.064-.2-.064zm-2.651-3.397c-.05-.129-.1-.321-.15-.385-.05 0-.05-.128-.05-.192v-.192c0-.065.05-.128.05-.128 0-.065.05-.129.1-.129 0-.064.05-.064.1-.064.05-.064.15 0 .2 0 .05 0 .05 0 .1.064l.15.192c.05.129.1.321.15.385 0 0 .051.128.051.192v.193c0 .064-.051.128-.051.128 0 .064-.05.128-.1.128 0 .064-.05.064-.1.064-.05.064-.15 0-.2 0-.05 0-.05 0-.1-.064l-.15-.192zm.2-3.91c-.05-.064-.05-.129-.1-.192 0 0-.05-.129-.05-.192v-.193c.05-.064.05-.128.1-.192 0-.064.05-.128.1-.128s.05-.064.1-.064c.05-.065.15 0 .2 0 .05 0 .05 0 .1.064l.15.192c.05.064.05.128.1.192 0 0 .05.129.05.192v.192c0 .065-.05.129-.05.129 0 .064-.05.128-.1.128 0 .064-.05.064-.1.064-.05.064-.15 0-.2 0 0 0-.05 0-.1-.064-.15 0-.2-.064-.2-.128zm-.999.706h-.35c-.05 0-.1-.065-.1-.065h-.05l-.1-.128c-.1-.064-.1-.192-.15-.32v-.193c-.05 0-.05-.064 0-.128 0-.064.05-.128.1-.128s.1-.064.15-.064h.1c.05 0 .1 0 .2.064l.05.064c.05.064.1.129.1.192 0 0-.05-.064-.05-.128.05 0 .05 0 .05.064-.05 0-.05-.064-.05-.128l.05.064c-.05 0-.05-.064-.1-.064.05 0 .05 0 .05.064 0 0-.05 0-.1-.064h.05-.1.05-.1.2c.05 0 .05 0 .15.064l.1.128s.05.129.05.193v.128c0 .064 0 .128-.05.256 0 .064-.05.064-.05.129 0-.065-.05 0-.1 0zm-1.95-2.756l-.45-.385c-.1-.063-.15-.192-.15-.32v-.192c0-.064 0-.064.05-.192.05-.129.15-.192.2-.192.1 0 .2-.001.3.063l.45.384c.1.064.15.194.15.321v.192c0 .064 0 .065-.05.193s-.15.192-.2.192c-.1 0-.2 0-.3-.064zm-1.748.897c-.05 0-.15-.064-.25-.128-.05 0-.1-.064-.15-.128l-.15-.192c-.05-.064-.05-.192-.05-.257-.05-.064 0-.192 0-.256s0-.064.05-.129c.05-.127.1-.192.2-.255.05 0 .05-.065.1-.065h.25c.05 0 .15.065.25.128.05 0 .1.065.15.129l.15.192c.05.064.05.192.05.256.05.065 0 .193 0 .257 0 .063 0 .063-.05.128a.46.46 0 01-.2.256c-.05 0-.05.064-.1.064s-.15.065-.25 0zm-1.4-2.692s-.05-.065-.1-.065c.05 0 .1 0 .1.065h-.1.1c0 .063-.05.063-.1.063.05-.063.1-.063.1-.063s.05-.065 0 0h-.2c-.05 0-.1 0-.15-.065l-.15-.192c-.05-.064-.1-.128-.1-.192v-.193c0-.128 0-.192.1-.32 0-.064.05-.128.1-.128.05-.128.15-.128.2-.192h.05c.05 0 .1-.065.2 0 .1 0 .15 0 .25.064.05 0 .05 0 .1.064.05 0 .1.064.15.064l.05.064.15.192c.05.064.1.129.1.192.05.065 0 .193 0 .257s0 .128-.05.192c0 .064-.05.128-.1.128-.05.128-.15.128-.2.193h-.15c-.2-.065-.3-.065-.35-.128z" fill="#42404B"/><path opacity=".44" d="M2.4 384.598v12.562c31.59 5.896 70.729 16.407 78.577 16.536 7.198.128 9.747-.962 18.544-.193 8.598.769 10.947 2.948 21.194 4.999 8.498 1.731 11.147.897 18.845 2.564 13.896 3.076 30.391 11.344 31.74 10.383 5.549-3.717 22.994-11.216 24.993-15.703 3.799-8.332-.55-15.061-.55-15.061 6.449-2.243 17.895 2.755 49.036 4.55 11.597.641 25.543-.192 35.94.321 27.792 1.282 29.291 3.077 37.289 2.179 12.296-1.41 19.095-5.063 31.941-11.985 11.346-6.089 16.995-9.166 16.395-11.089l-363.945-.063z" fill="url(#paint17_linear)"/><path d="M415.18 502.341l1.399 5.576.7 1.73 3.499.705 7.598.32 2.249.705 1.75-3.781.1-1.474-4.449-.897-4.699.128-3.849.128-2.049-5.063-2.249 1.923z" fill="#ED6944"/><path d="M416.729 504.52l.8 3.782 2.199 1.602.25.256-2.649-.577-.7-1.73-1.4-5.576 1.1-.962.4 3.205z" fill="#DC4D29"/><path d="M424.628 508.494l3.748 1.346 1.2 1.282-1.2-.385-5.648-.192c-1.899-.962-3.949-2.051-4.199-2.564l.6-.577h1.75l3.749 1.09zm6.347-1.73l1.4.513-.05.32-1.25 2.82-2.049-1.538-6.049-1.859-1.599-.705 2.399-.256 7.198.705z" fill="#E84325"/><path d="M421.228 510.033l-.5-.128-.4.321.9.576.6.577-.6-1.346zm9.248.256l-.6.193-.1.32.7.897.95.513-.05-.833-.9-1.09zm1.449-3.975l-.1.449.3.32.9-.127.65.192-.15-.577-1.6-.257z" fill="#020203"/><path d="M432.025 442.031l2.699.898 2.999 2.755 2.049 3.397.7 3.718.1 2.179-.7-.577-1.849.192-2.849.385-3.749-.961v-1.795l.6-10.191z" fill="#E84325"/><path d="M432.025 442.031l1.05.321c1.05 1.282 2.899 3.524 2.899 3.524l.5 3.013-.15 2.243-.2 1.602s-.75.705-.9.833c-.1.065-1.249.449-2.249.898l-1.4-.321-.05-1.858.5-10.255z" fill="#EB7A2E"/><path d="M432.524 442.16l2.699 4.101.35 2.821-.25 2.243s-.699 1.089-.899 1.282c-.2.128-1.8.576-1.8.576h-1.149v-.897l.599-10.255.45.129z" fill="#EB7A2E"/><path d="M436.774 447.094l.4 2.179v1.859s-.2 1.153-.35 1.41c-.1.192-1.35 1.666-1.35 1.666l1.1-.577.9-1.282s.35-1.794.35-2.051c0-.128-1.05-3.204-1.05-3.204z" fill="#CF301C"/><path d="M438.024 449.209l.35 1.666.05 1.282-.4.962-.8.833-.65.193 1.15-.257.75-.961s.35-1.154.35-1.41c0-.193-.2-1.475-.2-1.475l-.6-.833z" fill="#CF301C"/><path d="M431.575 450.106l.05-1.089 1.3 1.025.999.833s1.1.641 1.25.641c.15 0 1.1.129 1.25.192.15.065 1.249.577 1.249.577l1.3.833.7 1.282h-.2c-.3-.384-.65-.961-.65-.961l-1.449-.897-1.9-.449-1.4-.513-2.499-1.474z" fill="#F28C46"/><path d="M431.475 454.977l1.45-4.55.1-4.423-.6-4.102-.05-.064c-.8-1.346-1.849-2.499-3.099-3.14a14.648 14.648 0 00-6.148-1.987c-2.45 1.218-4.499 3.461-5.799 6.409v.064a25.652 25.652 0 00-2.099 7.178l-.2 4.551-1.35 2.179c-.999 1.538-1.799 3.269-2.399 5.128l-.45 1.346-3.949 4.422c-2.449 2.82-4.598 6.024-6.398 9.614l-.6 1.345-7.147 6.538c.2.577 3.599-.385 4.798-.705.25-.064.4-.128.4-.128l-3.749 4.101a32.49 32.49 0 00-3.699 4.936l-.45.833a42.15 42.15 0 00-.949 1.73l-.7 1.346-4.349 4.999 1.45 3.333 2.049 1.859 1.05-.834c3.399-2.691 7.098-4.678 10.997-5.896l3.099.577 1.849 1.154 1.85 3.076 2.599 1.859 2.599-1.603 1.25-1.73 3.849-2.371.899-.449c2.45-1.282 4.749-2.82 6.948-4.615l5.149-4.23c.65-.513 1.2-1.153 1.749-1.794l3.949-4.807c.8-1.026 1.45-2.179 2-3.461.45-1.218.799-2.564.999-3.91l.3-2.691c.15-1.154.15-2.18.1-3.333-.1-1.347-.2-3.013-.2-3.269 0-.256-.749-2.115-1.299-3.653a11.6 11.6 0 00-2.2-3.718l-.849-1.025-1.45-1.026-1.3-5.063z" fill="#FFFEFA"/><path d="M411.131 504.649l1.599-5.448.2-.961c.7-2.756 1.85-5.191 3.399-7.306l1.05-1.411.45.129c1.6.513 3.349.577 5.048.192l7.598-2.051c.8-.192 1.55-.577 2.3-1.153l.5-.385a18.021 18.021 0 003.149-3.14l1.549-1.987c-.9 2.243-1.899 4.678-3.299 6.473l-2.199 2.82c-.25.32-.65.705-1 1.154-1.4 1.538-2.949 2.819-4.499 3.973l-4.099 2.948c-.999.833-2.049 1.538-3.199 2.051l-2.949 1.475-3.849 2.371-1.249 1.731-2.599 1.602-1.15-.834 3.249-2.243z" fill="#8C8B83"/><path d="M384.089 502.598l4.349-5.063.699-1.346c.3-.577.65-1.154.95-1.731l.45-.833a32.366 32.366 0 013.699-4.935l3.749-4.101s-.15.063-.4.127c-1.2.321-4.649 1.346-4.799.705l7.248-6.73.6-1.345c1.75-3.59 3.849-6.794 6.398-9.614l3.949-4.422.45-1.346c.65-1.859 1.4-3.525 2.399-5.128l1.35-2.179.2-4.551c.35-2.563 1.099-4.935 2.099-7.178v-.064c1.3-2.948 3.349-5.127 5.799-6.409 2.099.192 4.198.897 6.148 1.987 1.249.705 2.299 1.795 3.099 3.205l.05.063.6 4.103-.1 4.422-1.45 4.55 1.25 4.935.15.064-1.35.321-1.599 3.077-2.6 2.948-3.299 1.474-3.249.513-1.349.128c-.5 1.602-.75 3.397-.65 5.127.1 1.794-.05 3.589-.5 5.319l-.95 3.526a37.783 37.783 0 01-3.299 7.627l-.95 1.602-2.199 2.948-3.249 4.359-.1.192c-.85 1.794-1.45 3.717-1.849 5.768l-1.15-1.859-1.85-1.153-3.099-.577c-3.849 1.282-7.597 3.269-10.996 5.897l-1.05.833-2.05-1.859-1.549-3.397z" fill="#020203"/><path d="M425.127 441.262l3.349-.961c.6-.128 1.15-.064 1.7.256.65.385 1.15 1.154 1.3 2.052l.849 3.716.6 3.718v.385l-1.449 4.486-1.15.641-3.099.577-1.35-.577c-2.149-.962-4.049-2.564-5.598-4.615l-1.1-1.666-.5-1.667c-.35-1.217.1-2.563 1-3.012l1.799-1.025 3.649-2.308z" fill="#FFFEFA"/><path d="M418.729 448.312l4.798 2.757 3.449 1.025 3.299.32-1.549 3.398-1.5.255-1.549-.64c-2-.898-3.749-2.372-5.249-4.295l-1.3-1.666-.399-1.154zm2.65-4.55l3.749-2.5.999-.256 1.7.961-.25 4.038-1.6-.641-2.349-.513-3.499-.256 1.25-.833z" fill="#8C8B83"/><path d="M424.877 455.107l3.199-.449 1.7-2.499 1.099-2.949 1.3-1.41.65.449.25 1.602v.385l-1.5 4.678-.65.449c-.4.192-.85.384-1.249.449l-1.1.192c-1 .192-2 0-2.899-.513l-.8-.384z" fill="#615A58"/><path d="M430.076 451.453l.85-2.115 1.3-1.41.6.449.25 1.602v.385l-.4 1.345-1.55.385-1.05-.641z" fill="#E05F1E"/><path d="M427.527 445.941l-1.6-.641-2.349-.512-3.499-.257.65-.321 4.449.385 1.149-.897.95-1.474.45.833-.2 2.884z" fill="#615A58"/><path d="M426.277 443.698l.65-1.026.95 1.218.05 1.153s-.15.513-.45.449c-.15-.064-1.2-.705-1.95-1.282l.75-.512z" fill="#E05F1E"/><path d="M426.277 443.698l.65-1.026.95 1.154-.15.962-.6.063-.9-.576-.25-.321.3-.256z" fill="#020203"/><path d="M411.681 505.609l2.6 4.487 1.549 1.089 4.299.129 4.799.128 1.349 2.243.85 2.18-1.899 1.089-4.349 1.218-1.85.32-4.848-2.82-1.2-2.5-.35-1.474-3.599-4.55 2.649-1.539z" fill="#ED6944"/><path d="M409.732 506.827l2.099 2.179 2 2.821.4 2.627.899 1.731-.899-.449-1.2-2.499-.35-1.475-3.599-4.55.65-.385z" fill="#DC4D29"/><path d="M415.78 513.812l2.849.898 3.2 1.539 3.498.704-4.348 1.219-.25.062-4.899-3.459-.05-.963zm2.099-1.088l2.649-.128 3.199-.192 1.8-.129.899 1.474.85 2.18-.5.32-1.849-.513-2.999-1.217c-.15-.065-3.899-1.282-4.049-1.795z" fill="#E84325"/><path d="M419.629 518.108c-.05-.129-.35-.193-.35-.193l-.2.321.05.448 1 .321.7.32-1.2-1.217zm5.998-1.858l-.4.256v.321l.85.256.8.192.15.128-.3-.705-1.1-.448zm-.85-4.68l-.05.321.2.256.65-.064.65.129-.3-.513-1.15-.129z" fill="#020203"/><path d="M325.505 447.151c-.399-.833-.949-1.475-1.649-1.923-.3-.192-.6-.32-.9-.449-.1-.064-.2-.064-.35-.128-.05 0-.05-.064-.1-.064-.1-.064-.15-.129-.25-.192h-.05l-.05-.065-.05-.064c-.099-.192-.05-.192 0-.063-.05-.129-.1-.257-.15-.321v-.064c-.049-.065-.049-.193-.099-.32-.05-.257-.15-.513-.2-.77-.15-.577-.25-1.089-.4-1.666-.4-2.051-.8-4.166-1.2-6.217-.4-2.179-.8-4.358-1.15-6.601-.2-1.218-.449-2.436-.649-3.653l-.3-1.731c-.1-.641-.3-1.218-.5-1.795-.15-.512-.35-.961-.75-1.217-.35-.257-.85-.385-1.25-.193-.899.385-1.299 1.41-1.149 2.564.15.962.3 1.987.5 2.948 0-.064-.05-.064-.05-.128-.2-.513-.8-.833-1.25-.641-.5.192-.75.705-.85 1.41-.1 1.154.15 2.307.4 3.461.25 1.09.5 2.115.8 3.14.6 2.051 1.25 4.038 1.799 6.089.25.962.5 1.987.7 2.948.2.962.35 1.923.5 2.884.4 1.988.95 4.295 2.449 5.321 1.45 1.025 3.149.64 4.749.576 1.2-.064 2.099-1.731 1.449-3.076zm-4.648-1.026c-.05 0-.05 0 0 0-.05-.064-.05-.064 0 0l-.1-.128.1.128z" fill="#94ADAF"/><path d="M322.157 444.331a.252.252 0 00-.05-.129c.05 0 .05.065.05.129zm-47.936-17.177c-.6-.385-1.4-.385-1.85.32-.05.065-.15.193-.2.321-.2-.385-.45-.705-.65-.961-.3-.385-.649-.77-.999-1.09 0-.064 0-.128-.05-.192-.35-1.538-1.8-2.115-2.899-2.243-.85-.129-1.6.255-2.25.96-.45.193-.85.578-1.249 1.09-.4.577-.75 1.538-.5 2.372.2.576.4 1.025.699 1.474-.249.256-.449.577-.649.962-.2.32-.25.768-.3 1.217 0 .064-.05.064-.05.128-.45 0-.9.32-1.05 1.025-.05.321-.15.642-.15.962-.45-1.089-1.599-1.538-2.349-.769-1 1.025-.6 2.563-.35 3.91.15.833.35 1.73.5 2.563.35 1.73.7 3.461.999 5.192.25 1.346.4 2.756.6 4.101.1.577.25 1.154.5 1.667.4.833 1 1.282 1.7 1.603 1.499.704 3.099.576 4.598.192 1.2-.257 1.15-2.757 0-3.013-.6-.128-1.199-.256-1.849-.32-.05 0-.1 0-.15-.064v-.128c0-.77-.15-1.539-.3-2.244-.1-.641-.25-1.281-.35-1.986-.2-1.347-.35-2.693-.5-4.103 0-.064 0-.192-.05-.256.05-.128.15-.256.2-.384.05-.065.05-.129.1-.193l.15-.192c.05-.064.15-.192.25-.257l.05-.063s.05 0 .05-.065c.2-.128.35-.32.55-.448.1-.064.15-.129.25-.192.05 0 .15-.065.2-.129.05 0 .15-.064.15-.064.1-.064.2-.128.3-.128.2-.128.449-.192.649-.256.9-.321 1.7-.898 2.45-1.538.4-.321.749-.705 1.099-1.09.05 0 .05-.064.05-.064.2-.128.35-.321.5-.577l.75-.962c.45-.576.85-1.217 1.2-1.858s.649-1.282.749-2.051c.3-.769.1-1.731-.549-2.179zm31.441-38.517c-.201.127-.201.192-.101.127l.101-.127zm-15.595 41.529h-.15c-.15 0-.3.064-.45.064.2 0 .4-.064.6-.064zm28.191-51.081c0 .065 0 .065 0 0 .052.065.052.065 0 0 .052.065.052.065 0 0z" fill="#94ADAF"/><path d="M332.404 393.122c-.1-2.499-.25-4.935-.45-7.435-.2-2.627-.4-5.255-1.05-7.755-.2-.705-.4-1.41-.65-2.115-.3-.768-1.199-1.473-1.899-1.41-.7.129-1.4.321-2 .834a8.12 8.12 0 00-1.299 1.473c-.5.705-.95 1.539-1.5 2.244l-.05.064c-.15.064-.25.064-.4.128-.799.064-1.599 0-2.449 0-.75 0-1.549.128-2.299.064h-.15s-.05 0-.05-.064h.05c-.05-.128-.1-.192 0 0l-.45-.961c-.5-1.218-1.1-2.692-2.199-3.077-1.95-.641-3.099 2.052-3.949 3.846-.65 1.41-1.2 2.948-2 4.294 0 0 0 .064-.05.064-.1.129-.2.321-.3.449-.2.32-.399.64-.599.897-.4.641-.85 1.218-1.25 1.795-.4.576-.85 1.089-1.3 1.602-.2.192-.4.384-.55.641l-.049.064-.05.064c-.1.064-.15.128-.25.192l-.3.193c-.05 0-.05.064-.1.064-.2.064-.4.192-.65.32s-.5.193-.7.321c-1.699.128-3.249.961-4.799 1.73-.749.385-1.549.705-2.299.833-1.199.192-2.349.257-3.549.385-1.399.128-2.799.256-4.249.385-2.799.255-5.648.448-8.447.384-2.399-.064-4.799-.128-7.198.064-.05 0-.15 0-.2-.064-1.949-.384-3.999-.641-5.898.128-.7.064-1.5.513-2.1.961-.5.385-.999.897-1.449 1.475-.4.512-.7 1.089-1 1.666-.35.513-.6 1.089-.85 1.731-.45 1.153-.85 2.371-.949 3.653-.1.833-.2 1.602-.15 2.435v.065c-.1.897-.2 1.794-.35 2.627-.15 1.282-.35 2.564-.7 3.782-.2.577-.45 1.089-.75 1.666-.7 1.089-1.499 1.987-2.299 2.82-2.05 2.051-4.199 3.909-6.298 5.897-2.5 2.371-5.149 4.935-6.898 8.331-.8 1.539-1.4 3.205-2.25 4.743-.75 1.154-1.749 2.051-2.599 3.14-1.2 1.475-2.249 3.398-2.249 5.641 0 .897.4 2.115 1.099 2.499.7.385 1.25.641 2.05.641.55 0 1.099-.128 1.599-.32.75-.321 1.45-.769 2.2-1.218a7.112 7.112 0 011.949-.641c1.35-.192 2.699-.192 4.049-.32 1.499-.129 3.049-.385 4.549-.834 2.699-.768 5.298-2.307 7.497-4.486 2.15-2.115 3.949-4.679 5.049-7.883.55-1.538.95-3.077 1.25-4.743.15-.962.3-1.923.449-2.948l.05.064c.1.128.15.32.2.449.15.32.3.64.4.961.25.641.5 1.346.75 1.987a29.131 29.131 0 003.499 6.665l.15.193c-.2.192-.4.384-.6.64a6.991 6.991 0 00-1.399 2.115c-.2.449-.4.962-.5 1.475-.15.833-.1 1.473 0 2.307.05 1.089.55 2.051 1.099 2.884.55.769 1.2 1.346 1.8 1.923.2.192.4.384.55.641.45.513.849 1.089 1.249 1.666.75 1.154 1.45 2.308 2.35 3.333.65.769 1.349 1.153 2.199 1.474.85.321 1.7.513 2.599.641.75.128 1.65.128 2.35-.257.699-.32 1.249-.833 1.599-1.666.5-1.154.4-2.692-.4-3.653-.849-1.025-1.999-1.09-3.099-1.217h-.1c-.05-.065-.1-.065-.15-.129-.05-.064-.1-.064-.15-.128-.25-.321-.55-.641-.799-.961-.25-.385-.45-.705-.7-1.09-.05-.064-.05-.128-.1-.192-.2-.321-.4-.641-.55-.962-.4-.641-.8-1.218-1.15-1.794-.05-.064-.05-.129-.1-.129-.05-.063-.1-.192-.15-.256.1 0 .2 0 .3.064.55.064 1.05.129 1.55.129 1.449-.065 2.799-.642 3.899-1.86 2.049-2.371 2.199-6.088 2.699-9.356h.1c.35.32.75.512 1.199.448.55-.064 1.05-.128 1.6-.193 2.199-.384 4.299-1.089 6.498-1.538 1.75-.256 3.499-.32 5.199-.127.45.192.899.448 1.349.576.15.064.3.064.45.129.25.576.5 1.217.7 1.858l.15.385s.05.064.05.127c0 0 0 .065.05.065.05.128.1.32.15.448.15.449.3.962.45 1.41.45 1.475.849 3.013 1.099 4.551.35 2.051.6 4.102 1.2 6.025.05.128.1.256.15.448.05.705.15 1.347.3 2.052.5 2.178 1.549 4.486 3.449 4.934 1.25.321 2.549-.064 3.649-1.026.7-.576 1.05-1.473.95-2.563-.1-.961-.65-1.923-1.45-2.115-.05 0-.15-.064-.2-.064.15.064.05.064-.1 0l-.05-.064c-.05 0-.1-.064-.15-.064.05 0 .05 0 .1.064-.05-.064-.1-.064-.2-.128l-.3-.385-.15-.192c0-.064-.05-.064-.05-.064 0 .064.05.064.05.064-.1-.192-.2-.32-.25-.513-.05-.128-.15-.32-.2-.512 0-.065-.05-.065-.05-.129-.1-.32-.2-.641-.3-1.025a38.646 38.646 0 01-.499-2.308c-.25-1.41-.45-2.883-.7-4.294l-.45-2.307c-.25-1.218-.45-2.435-.55-3.653v-.257c0-.128 0-.192-.05-.32a18.767 18.767 0 003.749-.769c1.949-.577 3.799-1.474 5.448-2.884 1.65-1.41 3.1-3.205 4.499-5 1.25-1.666 2.599-3.268 3.749-5.063 1.4-2.115 2.549-4.358 3.299-6.986.75-2.563 1.05-5.319 1.25-8.011.3-2.82.3-5.384.2-8.012zm-72.579 42.365c.05-.064.1-.192.2-.257.05-.128.15-.192.2-.32-.15.192-.3.385-.4.577zm13.296 10.255c.2.192.4.448 0 0zm2.799-14.357l-.3-.384h.65c-.1.192-.25.256-.35.384zm29.192-22.24c0 .064-.05.064 0 0-.05-.128 0-.385 0-.577v.577zm10.797-29.674l.099-.129.1-.128-.199.257z" fill="#94ADAF"/><path d="M304.964 388.637c-.202.127-.202.192-.101.127 0-.063.05-.127.101-.127zm-15.647 41.529h-.15c-.15 0-.3.064-.45.064.2 0 .4-.064.6-.064z" fill="#FFFBF2"/><path d="M331.703 393.122c-.1-2.499-.25-4.935-.45-7.435-.2-2.627-.4-5.255-1.049-7.755-.2-.705-.4-1.41-.65-2.115-.3-.768-1.2-1.473-1.9-1.41-.699.129-1.399.321-1.999.834-.5.448-.9.897-1.3 1.473-.499.705-.949 1.539-1.499 2.244l-.05.064c-.15.064-.25.064-.4.128-.8.064-1.6 0-2.449 0-.75 0-1.55.128-2.3.064h-.15s-.05 0-.05-.064h.05c-.05-.128-.1-.192 0 0l-.45-.961c-.499-1.218-1.099-2.692-2.199-3.077-1.949-.641-3.099 2.052-3.899 3.846-.65 1.41-1.199 2.948-1.999 4.294 0 0 0 .064-.05.064-.1.129-.2.321-.3.449-.2.32-.4.64-.6.897-.4.641-.85 1.218-1.25 1.795-.399.576-.849 1.089-1.299 1.602-.2.192-.4.384-.55.641l-.05.064-.05.064c-.1.064-.15.128-.25.192l-.3.193c-.05 0-.05.064-.1.064-.2.064-.4.192-.65.32-.249.128-.499.193-.699.321-1.7.128-3.249.961-4.799 1.73-.75.385-1.55.705-2.299.833-1.2.192-2.35.257-3.549.385-1.4.128-2.799.256-4.249.385-2.799.255-5.648.448-8.448.384-2.399-.064-4.798-.128-7.197.064-.05 0-.15 0-.2-.064-1.95-.384-3.999-.641-5.899.128-.7.064-1.499.513-2.099.961-.5.385-1 .897-1.45 1.475-.4.512-.699 1.089-.999 1.666-.35.513-.6 1.089-.85 1.731-.45 1.153-.85 2.371-.95 3.653-.1.833-.2 1.602-.15 2.435v.065c-.1.897-.2 1.794-.35 2.627-.15 1.282-.35 2.564-.7 3.782-.199.577-.449 1.089-.749 1.666-.7 1.089-1.5 1.987-2.3 2.82-2.049 2.051-4.198 3.909-6.298 5.897-2.499 2.371-5.148 4.935-6.898 8.331-.8 1.539-1.399 3.205-2.249 4.743-.75 1.154-1.75 2.051-2.599 3.14-1.2 1.475-2.25 3.398-2.25 5.641 0 .897.4 2.115 1.1 2.499.7.385 1.25.641 2.049.641.55 0 1.1-.128 1.6-.32.75-.321 1.449-.769 2.199-1.218a7.13 7.13 0 011.95-.641c1.349-.192 2.699-.192 4.048-.32 1.5-.129 3.05-.385 4.549-.834 2.699-.768 5.299-2.307 7.498-4.486 2.149-2.115 3.949-4.679 5.049-7.883a29.38 29.38 0 001.249-4.743c.15-.962.3-1.923.45-2.948l.05.064c.1.128.15.32.2.449.15.32.3.64.4.961.25.641.5 1.346.75 1.987a29.092 29.092 0 003.499 6.665l.15.193c-.2.192-.4.384-.6.64a7.012 7.012 0 00-1.4 2.115c-.2.449-.4.962-.5 1.475-.15.833-.1 1.473 0 2.307.05 1.089.55 2.051 1.1 2.884.55.769 1.2 1.346 1.799 1.923.2.192.4.384.55.641.45.513.85 1.089 1.25 1.666.75 1.154 1.45 2.308 2.349 3.333.65.769 1.35 1.153 2.2 1.474.849.321 1.699.513 2.599.641.75.128 1.649.128 2.349-.257.7-.32 1.25-.833 1.6-1.666.5-1.154.4-2.692-.4-3.653-.85-1.025-2-1.09-3.099-1.217h-.1c-.05-.065-.1-.065-.15-.129-.05-.064-.1-.064-.15-.128-.25-.321-.55-.641-.8-.961-.25-.385-.45-.705-.7-1.09-.05-.064-.05-.128-.1-.192-.2-.321-.4-.641-.55-.962-.399-.641-.799-1.218-1.149-1.794-.05-.064-.05-.129-.1-.129-.05-.063-.1-.192-.15-.256.1 0 .2 0 .3.064.55.064 1.049.129 1.549.129 1.45-.065 2.8-.642 3.899-1.86 2.05-2.371 2.2-6.088 2.699-9.356h.1c.35.32.75.512 1.2.448.55-.064 1.05-.128 1.6-.193 2.199-.384 4.298-1.089 6.498-1.538 1.749-.256 3.499-.32 5.198-.127.45.192.9.448 1.35.576.15.064.3.064.45.129.25.576.499 1.217.699 1.858l.15.385s.05.064.05.127c0 0 0 .065.05.065.05.128.1.32.15.448.15.449.3.962.45 1.41.45 1.475.85 3.013 1.1 4.551.35 2.051.6 4.102 1.2 6.025.05.128.1.256.149.448.05.705.15 1.347.3 2.052.5 2.178 1.55 4.486 3.449 4.934 1.25.321 2.55-.064 3.649-1.026.7-.576 1.05-1.473.95-2.563-.1-.961-.65-1.923-1.45-2.115-.049 0-.149-.064-.199-.064.149.064.05.064-.1 0l-.05-.064c-.05 0-.1-.064-.15-.064.05 0 .05 0 .1.064-.05-.064-.1-.064-.2-.128l-.3-.385-.15-.192c0-.064-.05-.064-.05-.064 0 .064.05.064.05.064-.1-.192-.15-.32-.25-.513-.05-.128-.15-.32-.2-.512 0-.065-.05-.065-.05-.129-.1-.32-.2-.641-.3-1.025-.2-.769-.35-1.538-.5-2.308-.25-1.41-.45-2.883-.7-4.294l-.449-2.307c-.25-1.218-.45-2.435-.55-3.653v-.257c0-.128 0-.192-.05-.32a18.781 18.781 0 003.749-.769c1.949-.577 3.798-1.474 5.448-2.884 1.65-1.41 3.099-3.205 4.499-5 1.249-1.666 2.599-3.268 3.749-5.063 1.399-2.115 2.549-4.358 3.299-6.986.749-2.563 1.049-5.319 1.249-8.011.2-2.82.2-5.384.15-8.012zm-72.629 42.365c.05-.064.1-.192.2-.257.05-.128.15-.192.2-.32-.15.192-.25.385-.4.577zm13.296 10.255s.05 0 0 0c.2.192.4.448 0 0zm2.85-14.357l-.3-.384h.65c-.15.192-.25.256-.35.384zm29.141-22.24c0 .064 0 .064 0 0-.05-.128 0-.385 0-.577v.577zm10.797-29.674l.1-.129.1-.128-.2.257z" fill="#FFFBF2"/><path d="M327.405 393.891c-1.449-1.475-6.748.32-9.197 1.41-.9 4.421-.55 8.588 4.349 9.036 4.898.449 5.398-1.153 6.148-2.563.7-1.346.5-6.025-1.3-7.883z" fill="#F6F3D6"/><path d="M312.711 445.164c-.051-.065-.051-.128-.151-.192l.151.192zm.648.578c-.05 0-.1-.064-.2-.064 0 0 .05 0 .05.064h.15z" fill="#FFFBF2"/><path d="M316.259 381.649c-.1-.577-.25-1.09-.4-1.603-.3-1.025-.7-2.05-1.05-3.075a.29.29 0 00-.4-.193c-.15.064-.3.128-.5.256-.3.192-.35.897.1.834.1 0 .2-.065.3-.065.15.513.35 1.026.5 1.538l-.05.065c-.15.192-.05.128-.2.063-.15-.063-.3-.063-.45-.063-.35.063-.7.384-.9.705a.957.957 0 00-.15.897s.05.192.05.128v.385c-.1 1.218.05 3.268 1.4 3.012.15 0 .25-.192.3-.384v-.065c.15 0 .3-.064.35-.192l.1-.128c.15.064.25 0 .35-.128.2-.064.4-.129.45-.385v-.064c.1.064.25 0 .3-.128.15-.385 0-.962-.1-1.41zm11.397-5.192c-.05-.128 0-.128 0-.192.1-.192-.05-.449-.2-.385l-.3.192c-.15 0-.3.065-.4.321-.05.128-.05.192-.1.32 0 .065-.05.065-.05.065-.15.256-.3.512-.4.768-.15 0-.25.192-.25.385 0 1.09.75 1.73 1.55 1.73.25 0 .4-.256.45-.576 0-.705.1-1.859-.3-2.628z" fill="#B0C9CC"/><path d="M320.657 390.045c-.699-1.731-2.449-2.308-3.848-1.987-.35.064-.3.641-.05.834 0 .063.05.192.1.255.849 1.218 2.149 1.923 3.399 1.795.349-.064.599-.449.399-.897zm6.999-1.922c0-.513-.4-.705-.7-.513-.05 0-.1.064-.15.064-.8.705-1.6 1.859-1.4 3.205.05.385.45.513.65.385.85-.642 1.6-1.86 1.6-3.141z" fill="#240B00"/><path d="M324.556 392.353l-.149-.577c-.1-.384-.15-.769-.25-1.089-.05-.257-.35-.257-.4 0-.15.448-.15.896 0 1.409.05.192.15.449.25.642.1.192.2.255.4.32.1.064.249-.065.249-.193-.05-.192-.05-.32-.1-.512z" fill="#F6F3D6"/><path d="M327.755 400.685c-.2.065-.35.32-.5.513-.2.257-.4.449-.65.641l-.1.128v-.257c.05-.512 0-.96-.05-1.473h.15c.05 0 .1-.065.2-.065.05 0 .05-.064.1-.064.05-.064.15-.128.2-.192l.05-.064c.05-.064.05-.064.05-.128.05-.129.15-.257.2-.449.05-.064.05-.128.05-.256.05-.129.05-.257.05-.385v-.192c0-.128 0-.192-.05-.32-.05-.129-.1-.257-.2-.385-.05-.064-.1-.128-.15-.128-.05-.064-.1-.064-.15-.064h-.1c-.05 0-.15 0-.2-.065-.1 0-.249 0-.349.065-.1 0-.15.064-.25.064 0 0-.05 0-.05-.064-.05-.065-.15-.065-.2-.065-.15 0-.3.065-.4.193-.1.128-.15.32-.15.512v.449c0 .193.05.385.05.577.05.128.05.321.15.449.05.064.05.128.1.192l.15.192.15.193c-.05.063-.05.128-.05.192 0 .448 0 .897-.05 1.346 0 .256-.05.513-.1.769-1.1.321-2.15-.064-3.149-.577a8.234 8.234 0 01-1.55-.962c-.25-.128-.5-.32-.75-.448-.2-.128-.45-.32-.699-.257-.15 0-.2.257-.15.385.1.32.349.513.549.641.25.192.5.449.75.641.55.385 1.15.769 1.75 1.026 1.049.512 2.399.961 3.499.32.05-.064.15-.128.15-.256.05-.064.05-.129.1-.192.2-.193.399-.385.649-.513.35-.321.9-.705 1-1.282.2-.257.1-.449-.05-.385zm-1.15-2.371h.1c0 .064 0 .064-.05.128s-.05.128-.1.192c.05-.064.05-.064.05-.128-.05.064-.1.128-.1.192 0-.128-.05-.192-.05-.32v-.064h.15z" fill="#240B00"/><path d="M316.359 411.324c-1.15-1.025-2.449-1.858-3.599-2.948-1.15-1.09-2.199-2.308-3.049-3.718-.6-.897-1.1-1.922-1.6-2.883a32.826 32.826 0 01-1.649-3.398c-.25-.577-.45-1.217-.6-1.794-.1-.384-.15-.897-.05-1.346.1-.256-.25-.385-.35-.192-.45.833-.1 1.987.15 2.82.45 1.282 1 2.5 1.65 3.653.499.962.999 1.923 1.549 2.884.85 1.538 1.9 2.884 3.049 4.038.65.641 1.3 1.282 2 1.859s1.449 1.217 2.249 1.666c.3.064.55-.449.25-.641zm6.248 4.486c-.15-.256-.35-.256-.55-.32-.3-.064-.55-.256-.8-.385-.5-.32-.9-.64-1.5-.64-.15 0-.25.32-.1.448.55.321 1 .705 1.55 1.09.35.192 1.2.705 1.4.064.05-.128.05-.192 0-.257zm-13.346 9.293l-.3-1.346c-.2-.897-.45-1.666-.55-2.627-.05-.321-.45-.257-.4.064.05.897.1 1.858.3 2.691.1.385.2.834.3 1.218.1.385.2.897.45 1.218.1.129.3.064.35-.128.05-.321-.1-.705-.15-1.09zm-43.187-4.101c-.15-.577-.45-1.09-.65-1.603-.3-.641-.55-1.282-.8-1.987-.45-1.217-.8-2.627-.75-3.973.05-.385-.45-.449-.5-.064-.15 1.41.15 2.82.6 4.165.25.705.5 1.41.8 2.052.25.576.55 1.281.95 1.666.2.128.45 0 .35-.256zm-24.144 17.112s0 .068 0 0c.052 0 .052 0 0 0zm33.79-.257c-.05 0-.05.065 0 0 .051.129.051 0 0 0zm10.599-12.37c-.1-.897-.25-1.794-.45-2.628-.4-1.73-1.05-3.268-2-4.614-.15-.192-.35.064-.25.256.75 1.41 1.35 2.948 1.75 4.615.2.833.3 1.666.4 2.5.1.897.1 1.794.15 2.627.05.449.5.449.55 0 .05-.897-.05-1.859-.15-2.756zm15.044 1.796c-.15-.193-.25-.449-.35-.705-.2-.513-.4-1.09-.55-1.666-.3-1.09-.6-2.244-.9-3.269-.1-.321-.5-.193-.4.128.3 1.154.45 2.371.75 3.525.15.577.3 1.154.55 1.731.15.384.45 1.217.85 1.217.1 0 .25-.064.25-.256 0-.385-.1-.513-.2-.705zm7.998-31.79c-.25-.577-.5-1.09-.7-1.666-.45-1.09-.8-2.244-.7-3.462.05-.32-.4-.384-.45-.064-.15 1.282.1 2.5.5 3.654.2.576.45 1.153.7 1.73.1.257.25.513.4.833.15.257.25.513.45.705.15.065.25 0 .3-.192 0-.513-.35-1.153-.5-1.538zm.8-1.731l-.45-1.538c-.15-.513-.3-1.025-.4-1.603-.1-.576-.3-1.153-.35-1.73 0-.192-.25-.192-.25 0 0 .577-.05 1.09 0 1.667.05.576.2 1.153.35 1.666l.45 1.538c.15.512.3 1.154.55 1.602.1.193.45.193.4-.128.05-.449-.15-.962-.3-1.474z" fill="#B0C9CC"/><path d="M319.358 382.995c0-.961-.3-1.858-.45-2.756-.05-.192-.2-.128-.2.065 0 .768.15 1.538.25 2.306.05.385.05.834-.1 1.155-.15.384-.4.576-.6.897-.05.128-.05.32.1.32.75 0 1-1.154 1-1.987z" fill="#F6F3D6"/><path d="M266.423 397.543c-1.149-.448-2.299.77-2.799 1.987-.3.641-.45 1.346-.6 2.051-.05.385-.15.769-.2 1.154-.05.385-.15.769-.05 1.09.1.192.3.192.4.063.2-.192.2-.64.25-.897.05-.32.1-.641.2-.961.1-.641.3-1.282.5-1.859.2-.513.5-1.026.9-1.346.2-.192.399-.32.649-.385.3-.127.55-.192.8-.384.2-.128.1-.449-.05-.513zm51.985 25.958c0-.192-.2-.385-.35-.256-.25.192-.4.641-.55.961-.2.385-.45.705-.75 1.025-.15.129.05.513.2.321.3-.256.6-.576.9-.897.25-.257.55-.705.55-1.154z" fill="#B0C9CC"/><path d="M282.219 451.253c-.05-.128-.1-.32-.2-.385-.05-.064-.1-.064-.15-.127-.1-.065-.25-.129-.35-.129-.1 0-.2 0-.3.064-.1.065-.15.128-.25.192-.05.065-.1.193-.15.321-.05.128-.05.192-.05.385 0 .064 0 .192.05.256.05.128.1.321.2.384.05.065.1.065.15.129.1.064.25.128.35.128.1 0 .2 0 .3-.064.1-.064.15-.128.25-.193.05-.063.1-.192.15-.32.05-.128.05-.256.05-.385-.05-.063-.05-.128-.05-.256zm1.049-1.153c-.8 0-.8 1.602 0 1.602s.8-1.602 0-1.602zm1.651-1.602c-.25-.385-.75-.45-1-.065-.15.193-.2.385-.2.641 0 .129.05.321.1.449.05.064.05.128.15.192l.15.193c.15.063.3.128.4.063.1 0 .2-.063.25-.128.15-.128.25-.32.3-.512.05-.321 0-.578-.15-.833zm25.842.512c-.85 0-.85 1.73 0 1.73.849 0 .899-1.73 0-1.73z" fill="#240B00"/><path d="M312.21 448.817c-.85 0-.85 1.667 0 1.667s.85-1.667 0-1.667zm1.3-.833c-.85 0-.85 1.667 0 1.667s.85-1.667 0-1.667z" fill="#240B00"/><path d="M312.061 445.485c-.5 0-1.1.192-1.6.384-.55.129-1.05.385-1.55.706-.2.128-.05.512.15.384.55-.256 1.1-.32 1.7-.448.5-.129 1.05-.192 1.45-.642.1-.063 0-.32-.15-.384zm-30.541 2.243c-.05-.128-.15-.192-.25-.192-.2.064-.25.257-.4.385-.15.127-.35.256-.5.384-.4.256-.7.448-1 .898-.2.32.05.832.35.576.35-.321.8-.513 1.2-.833.25-.256.7-.769.6-1.218zm47.635-67.81c-.05-.32-.05-.705-.05-1.025-.05-.705-.05-1.41-.3-2.051-.1-.257-.45-.128-.45.128.05.77.05 1.538.1 2.243.05.513.1 1.603.55 1.859.1.064.25 0 .25-.128.1-.321-.05-.641-.1-1.026zM111.468 498.104c-2.3.256-4.349 1.346-6.548.513-4.449-1.667-8.298-5.448-11.197-10.127a1.386 1.386 0 00-.2-.32c-2.95-4.807-4.999-10.383-6.648-16.088-1.45-5.063-2.7-10.382-2.4-15.766.25-5.063 2.05-10.254 5.299-13.011.2-.192.4-.32.6-.513 3.649-2.627 8.997-1.473 11.047 3.27 6.598 15.381 7.997 34.737 10.047 52.042z" fill="#B0C9CC"/><path d="M172.1 454.072c-1.05 14.101-4.449 27.945-10.147 40.122h-56.784c-3.399-7.242-5.998-15.125-7.747-23.265-.3-1.41-.6-2.82-.85-4.294 0-.064-.05-.129-.05-.257-.75-4.422-1.3-8.908-1.6-13.395-1-15.19.75-30.636 5.199-44.736.6-1.859 1.25-3.717 1.949-5.512 2.35-6.217 5.249-12.113 7.248-18.587.5-1.666.95-3.397 1.3-5.127 1-4.999 1.199-10.254 0-15.125h45.886c-1.249 5.063-.949 10.511.1 15.637.35 1.603.75 3.141 1.2 4.615 1.95 6.474 4.849 12.37 7.248 18.587 6.048 15.831 8.348 33.841 7.048 51.337z" fill="#FFFBF2"/><path d="M120.565 339.54c-1.55-1.025-3.15-1.922-4.849-2.115-1.7-.192-3.549.513-4.649 2.308-.899 1.474-1.099 3.46-.899 5.255.299 2.692 1.449 5.191 3.149 6.858 2.349-3.91 4.898-8.396 7.248-12.306z" fill="#F7F3D6"/><path d="M115.217 349.795c-.949-1.154-1.899-2.371-2.349-3.973-.45-1.603-.2-3.59.85-4.487.7-.576 1.649-.576 2.499-.384 1.2.32 2.349 1.025 3.249 2.115-1.649 2.371-2.799 4.23-4.249 6.729z" fill="#B0C9CC"/><path d="M145.108 339.54c1.55-1.025 3.149-1.922 4.849-2.115 1.7-.192 3.549.513 4.649 2.308.899 1.474 1.099 3.46.899 5.255-.3 2.692-1.449 5.191-3.149 6.858-2.399-3.91-4.948-8.396-7.248-12.306z" fill="#F7F3D6"/><path d="M150.457 349.795c.949-1.154 1.899-2.371 2.349-3.973.45-1.603.2-3.59-.85-4.487-.7-.576-1.649-.576-2.499-.384-1.2.32-2.349 1.025-3.249 2.115 1.6 2.371 2.799 4.23 4.249 6.729zm5.047 24.163c-4.849 8.203-10.997 22.496-21.944 22.496-11.046 0-16.745-15.446-21.743-23.907.999-4.998.05-3.78-1.15-8.651h45.887c-1.3 5.063-2.1 4.871-1.05 10.062z" fill="#B0C9CC"/><path d="M160.353 366.844c-4.549 9.293-12.597 23.906-26.792 23.906-14.196 0-21.494-14.805-26.792-24.29 2.549-10.383 7.048-19.997 13.046-27.752.15-.065.3-.065.45-.128 9.097-2.372 16.545-2.115 25.792.384.1 0 .25.064.4.128 4.298 5.576 10.147 14.292 12.346 21.663a54.414 54.414 0 011.55 6.089z" fill="#FFFBF2"/><path d="M145.858 371.843c-.05.192-.15.384-.2.577-1.2 2.948-3.699 5.127-6.498 6.153-2.799 1.025-5.848 1.025-8.748.449-2.499-.449-4.998-1.347-6.898-3.205-1.249-1.154-2.199-2.82-2.499-4.551-.2-.961-.2-1.859 0-2.82.4-1.794 1.45-3.268 2.599-4.614 1.15-1.346 2.45-2.564 3.349-4.038.95-1.538 1.5-3.461 1.05-5.191 3.199-1.667 8.798-1.41 10.497-.385-.5 2.563.2 5.32 1.8 7.243 1.099 1.281 2.599 2.178 3.798 3.332.9.897 1.65 1.923 1.95 3.204.35 1.282.2 2.628-.2 3.846z" fill="#F7F3D6"/><path d="M127.763 365.626c.15-.897 1.299-1.153 2.199-1.281 2.249-.192 4.549-.192 6.798-.064.8.064 1.899.192 1.999 1.025.5 4.486-5.398 8.653-5.398 8.653-.05 0-6.248-4.423-5.598-8.333z" fill="#240B00"/><path d="M155.805 498.104c2.299.256 4.348 1.346 6.548.513 4.448-1.667 8.297-5.448 11.197-10.127a1.39 1.39 0 01.199-.32c2.95-4.807 4.999-10.383 6.649-16.088 1.499-5.063 2.699-10.382 2.449-15.766-.25-5.063-2.05-10.254-5.299-13.011-.2-.192-.399-.32-.599-.513-3.649-2.627-8.998-1.473-11.047 3.27-6.648 15.381-8.098 34.737-10.097 52.042z" fill="#B0C9CC"/><path d="M173.599 488.553c.05-.128.15-.256.2-.32 2.949-4.807 4.999-10.383 6.649-16.087 1.499-5.063 2.699-10.383 2.449-15.767-.25-5.063-2.05-10.254-5.299-13.01-3.599 14.548-4.948 29.995-3.999 45.184z" fill="#FFFBF2"/><path d="M121.965 353.193c-2.499 1.153-4.799 2.884-6.748 5.191 2.099 1.218 4.249 2.499 6.498 2.756 5.798.576 7.248-4.166 6.898-5.255-.45-1.282-1.85-4.872-6.648-2.692zm22.443 0c2.499 1.153 4.799 2.884 6.748 5.191-2.099 1.218-4.249 2.499-6.498 2.756-5.798.576-7.248-4.166-6.898-5.255.4-1.282 1.799-4.872 6.648-2.692z" fill="#F7F3D6"/><path d="M124.714 359.794c-.599.385-1.449.577-2.549.513-.45-.064-.9-.128-1.349-.321-.85-.32-1.65-.833-2.45-1.282.65-.833 1.45-1.473 2.25-2.051a10.944 10.944 0 011.649-.961c.55-.256 1-.384 1.4-.384 1.699-.129 2.249 1.345 2.449 1.923.2.448-.15 1.794-1.4 2.563zm19.294-4.102c1.449.641 2.799 1.667 3.899 3.012-1.2.705-2.45 1.475-3.749 1.603-3.349.32-4.199-2.436-3.999-3.077.25-.705 1.05-2.82 3.849-1.538z" fill="#FFFBF2"/><path d="M145.857 371.841c-.05.193-.15.385-.199.578-1.2 2.948-3.699 5.127-6.499 6.152-2.799 1.026-5.848 1.026-8.747.449-2.499-.449-4.999-1.346-6.898-3.204-1.25-1.154-2.199-2.82-2.499-4.551.899 1.794 2.499 3.076 4.048 3.974 2.65 1.474 5.149 2.05 8.298-1.282 2.799 3.845 7.398 1.794 8.997.769 1.2-.833 2.4-1.795 3.499-2.885zm16.145 122.354h-56.833c-3.399-7.242-5.998-15.125-7.748-23.266-.3-1.41-.6-2.819-.85-4.293 0-.065-.05-.128-.05-.257a133.58 133.58 0 01-1.6-13.395c.2-.577.4-1.217.6-1.794 3.65-10.896 10.948-19.292 16.446-28.842.8 8.204 4.999 45.377 21.894 45.89 16.345.513 22.443-38.968 22.743-50.697 6.898 4.231 10.797 15.767 13.296 25.06 1 3.718 1.7 7.563 2.2 11.409-1 14.228-4.399 28.008-10.098 40.185z" fill="#B0C9CC"/><path d="M156.854 469.583a91.006 91.006 0 01-5.648 24.675h-36.69c-2.649-7.371-3.998-15.317-4.548-23.65 4.099 4.038 8.197 8.012 12.846 10.896 4.649 2.884 9.847 4.487 14.946 3.461 7.548-1.538 13.546-8.652 19.094-15.382z" fill="#94ADAF"/><path d="M119.215 351.846c.35 0 .65-.128.9-.384.9-1.09 2.749-1.987 5.249-1.154a1.129 1.129 0 001.399-.641c.2-.512-.1-1.153-.65-1.345-2.999-1.026-6.048-.257-7.747 1.858-.35.449-.25 1.09.2 1.474.2.128.449.192.649.192zm28.093 0c-.35 0-.65-.128-.9-.384-.899-1.09-2.749-1.987-5.248-1.154a1.13 1.13 0 01-1.4-.641c-.2-.512.1-1.153.65-1.345 2.999-1.026 6.048-.257 7.748 1.858.35.449.25 1.09-.2 1.474-.2.128-.45.192-.65.192z" fill="#F7F3D6"/><path d="M124.914 499.258H105.67c-1.05-2.756-2-5.512-2.9-8.268-2.099-6.538-3.898-13.203-5.298-19.997-.3-1.41-.6-2.82-.85-4.294 0-.064-.05-.129-.05-.256-3.349-19.292-2.2-39.866 3.599-58.196 6.548.128 14.096 8.076 17.645 15.126-5.149 24.675-1.799 46.851 5.498 70.885.55 1.603 1.05 3.269 1.6 5z" fill="#FFFBF2"/><path d="M120.065 498.36c0 .32-.05.576-.099.897H105.67c-1.05-2.756-2-5.512-2.899-8.268 6.398-.512 13.496 1.923 14.595 2.884 1.15 1.026 2.749 2.628 2.699 4.487z" fill="#F7F3D6"/><path d="M122.064 505.796c-1.2.705-2.999 1.153-5.048 1.41-1.1.128-2.3.192-3.549.256-1 0-2 0-3-.064a29.937 29.937 0 01-3.499-.384 31.3 31.3 0 01-2.699-.513 18.858 18.858 0 01-3.399-1.026 8.367 8.367 0 01-2.2-1.282c.35-4.678 3.6-8.075 7.149-9.229 6.548-2.051 14.796-.641 16.045.256 1.25.898 2.999 2.243 3.099 4.038.15 2.628-1.049 5.448-2.899 6.538z" fill="#FFFBF2"/><path d="M104.87 501.885l-.6 4.615a18.778 18.778 0 01-3.399-1.026c.4-1.538 1-2.948 1.85-4.165.299-.45.599-.834 1.049-.962.4-.128.95.064 1.1.577.05.256 0 .64 0 .961zm5.798.705c-.05 1.603-.15 3.141-.2 4.743-1.2-.064-2.4-.192-3.499-.385.25-1.666.75-3.268 1.499-4.678.25-.449.55-.897.95-1.154.4-.193.95-.064 1.15.385.15.384.1.769.1 1.089zm6.347 4.615c-1.099.128-2.299.193-3.549.257-.05-1.731.25-3.397.75-5 .2-.512.4-1.025.75-1.345.35-.32.9-.32 1.2.128.15.257.2.641.249.962.2 1.601.4 3.332.6 4.998z" fill="#240B00"/><path d="M142.309 499.257h19.244c3.449-9.101 6.198-18.522 8.248-28.328.3-1.41.599-2.82.849-4.294 0-.064.05-.128.05-.256 3.349-19.292 2.2-39.866-3.599-58.195-6.548.128-14.096 8.075-17.644 15.125 5.148 24.676 1.799 46.851-5.499 70.885-.55 1.667-1.1 3.333-1.649 5.063z" fill="#FFFBF2"/><path d="M147.357 498.36c0 .32.05.576.1.897h14.296a180.792 180.792 0 002.899-8.268c-6.398-.512-13.496 1.923-14.596 2.884-1.199 1.026-2.799 2.628-2.699 4.487z" fill="#F7F3D6"/><path d="M145.158 505.796c1.2.705 3 1.153 5.049 1.41 1.1.128 2.299.192 3.549.256 1 0 1.999 0 2.999-.064 1.2-.064 2.399-.192 3.499-.384.95-.129 1.849-.321 2.699-.513 1.3-.257 2.45-.642 3.399-1.026a8.369 8.369 0 002.2-1.282c-.35-4.678-3.599-8.075-7.148-9.229-6.548-2.051-14.796-.641-16.046.256-1.25.898-2.999 2.243-3.099 4.038-.15 2.628 1.049 5.448 2.899 6.538z" fill="#FFFBF2"/><path d="M162.403 501.885l.6 4.615c1.3-.257 2.45-.641 3.399-1.026-.4-1.538-.999-2.948-1.849-4.165-.3-.45-.6-.834-1.05-.962-.4-.128-.95.064-1.1.577-.1.256-.05.64 0 .961zm-5.848.705c.05 1.603.15 3.141.2 4.743a29.72 29.72 0 003.499-.385c-.25-1.666-.75-3.268-1.5-4.678-.25-.449-.55-.897-.95-1.154-.4-.193-.949-.064-1.149.385-.1.384-.1.769-.1 1.089zm-6.348 4.615c1.1.128 2.299.193 3.549.257.05-1.731-.25-3.397-.75-5-.2-.512-.4-1.025-.75-1.345-.349-.32-.899-.32-1.199.128-.15.257-.2.641-.25.962-.2 1.601-.4 3.332-.6 4.998z" fill="#240B00"/><path d="M93.673 488.553a1.39 1.39 0 00-.2-.32c-2.949-4.807-4.998-10.383-6.648-16.087-1.5-5.063-2.7-10.383-2.45-15.767.25-5.063 2.05-10.254 5.3-13.01 3.598 14.548 4.948 29.995 3.998 45.184z" fill="#FFFBF2"/><path d="M125.113 358.127c0 .641-.15 1.218-.4 1.666-.6.385-1.449.577-2.549.513-.45-.064-.9-.128-1.35-.321-.3-.512-.5-1.153-.5-1.858 0-.513.1-1.026.3-1.474.55-.385 1.1-.705 1.65-.962.55-.256 1-.384 1.399-.384.85.448 1.45 1.538 1.45 2.82z" fill="#240B00"/><path d="M118.415 358.704c.65-.833 1.45-1.474 2.249-2.051.55-.384 1.1-.705 1.65-.961.55-.256 1-.384 1.399-.384 1.7-.129 2.25 1.345 2.45 1.922l-7.748 1.474zm22.794-.577c0 .641.15 1.218.4 1.666.6.385 1.449.577 2.549.513.45-.064.9-.128 1.35-.321.3-.512.5-1.153.5-1.858 0-.513-.1-1.026-.3-1.474a11.01 11.01 0 00-1.65-.962c-.55-.256-1-.384-1.399-.384-.85.448-1.45 1.538-1.45 2.82z" fill="#240B00"/><path d="M147.907 358.704c-.7-.833-1.45-1.474-2.25-2.051-.55-.384-1.1-.705-1.649-.961-.55-.256-1-.384-1.4-.384-1.7-.129-2.25 1.345-2.45 1.922l7.749 1.474z" fill="#240B00"/><path d="M114.217 397.543c-2.249-.255-4.699.578-6.098 2.885-1.65 2.692-1.4 6.601-.6 9.87 2.899 12.113 9.747 20.702 19.394 23.458 6.548 1.858 15.746 1.345 21.744-2.5 5.998-3.846 10.697-11.344 11.647-19.869.549-4.998-.7-11.087-4.399-12.882-3.049-1.538-6.398.448-9.497 1.859-5.549 2.564-11.547 3.461-17.445 2.627-2.6-.384-5.249-.961-7.648-2.243-2.349-1.345-4.499-2.884-7.098-3.205z" fill="#FCFAFA"/><path d="M101.62 436c.3 1.858.75 3.717 1.65 5.191.9 1.474 2.399 2.5 3.849 2.115 1.599-.385 2.649-2.243 3.499-3.974 2.799-5.768 4.798-12.113 5.948-18.715.7-4.23 1.05-8.909-.45-12.818-1.25-3.269-4.499-6.025-7.448-5.448-2.699.577-3.899 4.807-4.898 7.627-2.849 8.076-3.649 17.369-2.15 26.022zm63.433 0c-.3 1.858-.75 3.717-1.65 5.191-.9 1.474-2.399 2.5-3.848 2.115-1.6-.385-2.65-2.243-3.499-3.974-2.8-5.768-4.799-12.113-5.949-18.715-.7-4.23-1.049-8.909.45-12.818 1.25-3.269 4.498-6.025 7.448-5.448 2.699.577 3.898 4.807 4.898 7.627 2.849 8.076 3.649 17.369 2.15 26.022z" fill="#FCFAFA"/><path d="M580.882 313.006v6.986h3.699v18.587h-9.897v-25.573c0-.256.15-.448.35-.448h5.498c.2 0 .35.192.35.448z" fill="#F6F6F6"/><path d="M574.734 334.348h9.897v-4.294h-9.897v4.294z" fill="#D65229"/><path d="M578.083 327.938h1.15v-3.012c0-.063-.05-.192-.1-.192h-.9c-.05 0-.1.064-.1.192v3.012h-.05z" fill="#C6C6C6"/><path d="M578.383 325.055h.6c.05 0 .1.063.1.128v.769c0 .064-.05.129-.1.129h-.6c-.05 0-.1-.065-.1-.129v-.769c0-.065 0-.128.1-.128z" fill="#546C82"/><path d="M578.083 319.992h1.15v-3.012c0-.065-.05-.193-.1-.193h-.9c-.05 0-.1.065-.1.193v3.012h-.05z" fill="#C6C6C6"/><path d="M578.383 317.044h.6c.05 0 .1.064.1.128v.769c0 .064-.05.128-.1.128h-.6c-.05 0-.1-.064-.1-.128v-.769c0-.064 0-.128.1-.128z" fill="#546C82"/><path d="M578.832 312.558h1.25v-5.64c0-.449-.25-.77-.6-.77h-.05c-.35 0-.6.321-.6.77v5.64z" fill="#3C3C3B"/><path d="M578.832 312.556h1.25v-3.525c0-.448-.25-.769-.6-.769h-.05c-.35 0-.6.321-.6.769v3.525z" fill="#1D1D1B"/><path d="M577.183 312.558h1.25v-5.64c0-.449-.25-.77-.6-.77h-.05c-.35 0-.6.321-.6.77v5.64z" fill="#3C3C3B"/><path d="M577.183 312.556h1.25v-3.525c0-.448-.25-.769-.6-.769h-.05c-.35 0-.6.321-.6.769v3.525z" fill="#1D1D1B"/><path d="M575.533 312.558h1.25v-5.64c0-.449-.25-.77-.6-.77h-.05c-.35 0-.6.321-.6.77v5.64z" fill="#3C3C3B"/><path d="M575.533 312.556h1.25v-3.525c0-.448-.25-.769-.6-.769h-.05c-.35 0-.6.321-.6.769v3.525z" fill="#1D1D1B"/><path d="M575.134 309.354v3.204h.4l2.249-1.41 2.25 1.41h.399v-3.204h-5.298zm4.699.255l-2.05 1.283-2.049-1.283h4.099zm-1.85 1.411l2.249-1.411v2.821l-2.249-1.41zm-2.649-1.411l2.249 1.411-2.249 1.41v-2.821z" fill="#3C3C3B"/><path d="M554.139 343.898h34.14v-5.833h-15.195v-7.947l.8-4.294h-5.349v-9.55H552.89l1.249 4.23v23.394z" fill="#EDEDED"/><path d="M559.388 319.48h9.147v-2.693h-8.398l-.749 2.693z" fill="#D65229"/><path d="M566.886 318.966h.4l.4-1.603h-.4l-.4 1.603zm-.8 0h.4l.4-1.603h-.4l-.4 1.603zm-.85 0h.4l.4-1.603h-.4l-.4 1.603zm-.798 0h.399l.4-1.603h-.4l-.399 1.603zm-.851 0h.4l.4-1.603h-.4l-.4 1.603zm-.8 0h.4l.4-1.603h-.4l-.4 1.603zm-.799 0h.4l.4-1.603h-.4l-.4 1.603zm-.85 0h.4l.4-1.603h-.4l-.4 1.603zm-.8 0h.4l.4-1.603h-.4l-.4 1.603z" fill="#546C82"/><path d="M552.89 316.274l1.249 4.23h4.949l1.25-4.23h-7.448z" fill="#F6F6F6"/><path d="M559.189 319.48l.7-2.693h-1.35v2.693h.65zm-5.149 0l-.7-2.693h1.35v2.693h-.65zm2.699 0h1.65v-2.693h-1.65v2.693zm-1.849 0h1.65v-2.693h-1.65v2.693z" fill="#546C82"/><path d="M554.14 325.312h4.948v-4.806h-4.948v4.806z" fill="#E6E6E6"/><path d="M557.839 325.312h1.25v-4.806h-1.25v4.806z" fill="#DEDEDE"/><path d="M554.14 325.312h1.25v-4.806h-1.25v4.806z" fill="#EDEDED"/><path d="M564.037 325.311h1.1v-3.012c0-.064-.05-.192-.1-.192h-.9c-.05 0-.1.064-.1.192v3.012z" fill="#C6C6C6"/><path d="M564.287 322.364h.601c.05 0 .099.064.099.128v.769c0 .064-.049.128-.099.128h-.601c-.05 0-.099-.064-.099-.128v-.769c0-.064.049-.128.099-.128z" fill="#546C82"/><path d="M564.037 329.542h1.1v-3.012c0-.065-.05-.193-.1-.193h-.9c-.05 0-.1.064-.1.193v3.012z" fill="#C6C6C6"/><path d="M564.287 326.658h.601c.05 0 .099.064.099.128v.769c0 .065-.049.128-.099.128h-.601c-.05 0-.099-.063-.099-.128v-.769c0-.064.049-.128.099-.128zm2.199-2.949h.8v-1.09h-.8v1.09zm-4.498 0h.8v-1.09h-.8v1.09zm-2.1 0h.8v-1.09h-.8v1.09zm12.446 4.808h.85l.3-1.603h-.8l-.35 1.603zm-1.199 0h.8l.3-1.603h-.8l-.3 1.603zm-1.35 0h.9l.3-1.603h-1.25l.05 1.603zm-.399-1.603h-1.25v1.603h1.25v-1.603z" fill="#546C82"/><path d="M632.617 340.052h-.099l-12.997-2.564v.641l4.448 1.667h.05l7.598 2.884 1-2.628zm-6.148.256l-.9-.769 1.299-.192-.25 1.026-.149-.065zm-2.2-.833l.15-.641h.05l.6.513-.699.128h-.101zm.601-.512l1.349.256-.849.128-.5-.384zm4.148 2.307l-.9-.962 1.25-.384-.35 1.346zm.55-1.346l.7.961-1.049.385.349-1.346zm-1.599.128l-.55-.641 1.599.32-1.049.321zm-.901-.641l.651.769-.901.256h-.05l.3-1.025zm.851.897l.699.77-1.399-.513.7-.257zm2.498.833l.7.962-1.599-.641.899-.321zm.2-.128l1.5-.577-.65 1.667-.85-1.09zm-.099-.192l-.651-.897 1.951.384-1.3.513zm-9.948-2.756l3.649.705-.15.577-3.499-1.282zm4.749 1.538l.551.513-1.051-.385.5-.128z" fill="#FFA333"/><path d="M635.616 343.385h-4.499v-2.243c0-.898.55-1.666 1.3-1.666h1.949c.7 0 1.3.768 1.3 1.666l-.05 2.243z" fill="#E38716"/><path d="M619.771 338.13h-.101v2.499h.101v-2.499zm-.35 0h-.101v2.499h.101v-2.499z" fill="#3C3C3B"/><path d="M619.971 337.809c0 .321-.2.577-.45.577s-.45-.256-.45-.577c0-.32.2-.577.45-.577s.45.257.45.577zm-.3 3.397v-.128c.15-.064.25-.257.2-.449 0-.192-.15-.32-.3-.384-.2-.064-.4.128-.4.448 0 .193.1.321.2.449v.192c0 .064.05.129.1.129.1 0 .2.128.15.32-.05.256-.35.192-.4 0-.05.256.1.385.25.385.2 0 .3-.193.35-.385.1-.449-.15-.577-.15-.577z" fill="#3C3C3B"/><path d="M632.218 340.629h-.25v1.922h.25v-1.922zm.65 0h-.251v1.922h.251v-1.922zm.649 0h-.25v1.922h.25v-1.922zm.6 0h-.251v1.922h.251v-1.922zm.65 0h-.25v1.922h.25v-1.922z" fill="#CC7914"/><path d="M571.235 325.311h.6v-15.509c0-.193-.15-.385-.3-.385s-.3.192-.3.385v15.509zm-1.45 0h.6v-15.509c0-.193-.15-.385-.3-.385s-.3.192-.3.385v15.509z" fill="#1D1D1B"/><path d="M553.34 314.544h.401v-.705h-.401v.705z" fill="#DEDEDE"/><path d="M553.04 315.762h1.45l-.6-1.282c0-.064-.05-.064-.1-.064h-.45c-.05 0-.1.064-.1.128l-.2 1.218z" fill="#E6E6E6"/><path d="M552.091 314.033h2.9c.1 0 .2-.129.2-.257s-.1-.256-.2-.256h-2.9c-.1 0-.2.128-.2.256s.1.257.2.257zm9.147 1.729h.301v-20.766h-.1l-.201 20.766zm-1.55 0h.2v-10.126h-.1l-.1 10.126z" fill="#F6F6F6"/><path d="M563.938 305.507h.399v-.641h-.399v.641z" fill="#DEDEDE"/><path d="M563.737 306.149h1.35l-.6-.77c0-.064-.05-.064-.1-.064h-.5c-.05 0-.1.064-.1.064l-.05.77z" fill="#E6E6E6"/><path d="M562.687 304.93h2.9c.1 0 .2-.128.2-.256 0-.129-.1-.257-.2-.257h-2.9c-.1 0-.2.128-.2.257 0 .192.1.256.2.256z" fill="#F6F6F6"/><path d="M563.587 305.123v1.217h2.649l-1.15 6.666.3.064.1-.577 1.6-1.602 1.3 1.538v.512h.299v-12.626h1.1c.05 0 .1-.063.1-.127 0-.065-.05-.128-.1-.128h-1.1v-1.667h-.199v-.321h.449v-.256h-1.649v.256h.45v.321h-.2l-.05.192h-1.05v1.41h-.85c-.05 0-.1.065-.1.128 0 .065.05.129.1.129h1.6l-.25 1.474h-2.999v1.217h2.799l-.35 1.923h-2.749l-.05.257zm4.799-6.218v.321h-.6l.05-.321h.55zm-.35 3.141l.1.257h-.65l.15-.257h.4zm-.3-.128l.15-.256.1.256h-.25zm.3-.513l.35-.64v1.089h-.15l-.2-.449zm-.75 3.718l.35-.513.25.513h-.6zm.7.128l.1.256h-1.1l.2-.256h.8zm-.2-.898l.6-.961v1.666h-.25l-.35-.705zm.6.898v.256h-.05l-.1-.256h.15zm0-2.948l-.1-.257h.1v.257zm0 6.601l-.9-1.346.9-1.09v2.436zm-.1.257h-2.05l1.15-1.411.9 1.411zm-1.6-2.821h1.5l-.85 1.026-.65-1.026zm0-.384l.2-.321h1.25l.15.321h-1.6zm.1-.705h.15l-.2.256h-.05l.1-.256zm-2.649-2.82h2.799l-.05.32h-2.749v-.32zm2.849-.385l-.05.257h-2.799v-.257h2.849zm.1 1.346l.45.898-.5.768h-.2l.25-1.666zm.1-.192h1.05l-.6.961-.45-.961zm.25-.769h.8l.15.32h-1.1l.15-.32zm-.15-.128l.05-.257h.1l-.15.257zm-.7-2.372h.75l-.05.257h-.7v-.257zm0-.576h.85l-.05.384h-.8v-.384zm.95-.513l-.05.384h-.9v-.384h.95zm.25 2.563l-.3.513h-.15l.2-1.153.25.64zm-.15-.961h.7l-.4.705-.3-.705zm.05-.513h.7v.257h-.75l.05-.257zm.1-.576h.65v.384h-.7l.05-.384zm.6-.834h-.5v-.321h.5v.321zm-1.15 12.305l1.15-1.153v2.5l-1.15-1.347zm-1.05-1.281h1.95l-1.05 1.089-.9-1.089zm-.2.128l.95 1.153-1.35 1.347.4-2.5zm.55-3.14l.7 1.025-1.1 1.282.4-2.307zm-2.799-.898h2.649l-.05.321h-2.599v-.321zm0-.384h2.699l-.05.256h-2.699l.05-.256z" fill="#F6F6F6"/><path d="M563.188 315.762h9.046v-3.718h-7.398l-1.648 3.718z" fill="#EDEDED"/><path d="M566.486 315.762h1.1v-3.012c0-.064-.05-.192-.1-.192h-.9c-.05 0-.1.063-.1.192v3.012z" fill="#C6C6C6"/><path d="M566.736 312.814h.6c.05 0 .1.065.1.129v.769c0 .064-.05.128-.1.128h-.6c-.05 0-.1-.064-.1-.128v-.769c0-.064.05-.129.1-.129z" fill="#546C82"/><path d="M552.939 316.276h19.745v-.514h-19.745v.514zm-.049-2.117v1.538h.1v-.448h3.149v.448h.1v-.448h3.199v.448h.1v-.448h3.199v.448h.1v-.448h3.199v.448h.1v-.448h3.199v.448h.1v-.448h3.149v.448h.1v-1.538H552.89zm6.548.128v.321h-3.199v-.321h3.199zm3.299 0v.321h-3.199v-.321h3.199zm3.299 0v.321h-3.199v-.321h3.199zm3.249 0v.321h-3.199v-.321h3.199zm3.249.321h-3.149v-.321h3.149v.321zm-3.099.513v-.385h3.149v.385h-3.149zm-3.299 0v-.385h3.199v.385h-3.199zm-3.299 0v-.385h3.199v.385h-3.199zm-3.299 0v-.385h3.199v.385h-3.199zm-3.249 0v-.385h3.199v.385h-3.199zm-3.249-.385h3.149v.385h-3.149v-.385zm0-.449h3.149v.321h-3.149v-.321zm15.496 6.218h16.445v-.514h-16.445v.514zm3.249-1.988v.321h-3.249v.128h3.249v.384h-3.249v.128h3.249v.449h.1v-.449h3.199v.449h.1v-.449h3.199v.449h.1v-.449h3.199v.449h.1v-.449h2.7v.449h.1v-1.538h-15.996v.128h3.199zm6.598 0v.321h-3.199v-.321h3.199zm3.249 0v.321h-3.199v-.321h3.199zm2.85.321h-2.7v-.321h2.7v.321zm-2.75.577v-.385h2.7v.385h-2.7zm-3.249 0v-.385h3.199v.385h-3.199zm-3.299 0v-.385h3.199v.385h-3.199zm-3.299-.449h3.199v.384h-3.199v-.384zm0-.449h3.199v.321h-3.199v-.321zm-2.95 19.549h23.443v-.578h-23.443v.578z" fill="#3C3C3B"/><path d="M591.579 343.898h.401v-5.833h-.401v5.833zm-19.794-7.819v.321h-2.8v.128h2.8v.384h-2.8v.128h2.8v.449h.099v-.449h3.2v.449h.099v-.449h3.2v.449h.1v-.449h3.199v.449h.1v-.449h3.199v.449h.1v-.449h3.199v.449h.1v-.449h3.549v.449h.1v-1.538h-22.994v.128h2.75zm6.598 0v.321h-3.2v-.321h3.2zm3.249 0v.321h-3.199v-.321h3.199zm3.299 0v.321h-3.199v-.321h3.199zm3.299 0v.321h-3.199v-.321h3.199zm3.649.321h-3.549v-.321h3.549v.321zm-3.549.512v-.384h3.549v.384h-3.549zm-3.299 0v-.384h3.199v.384h-3.199zm-3.299 0v-.384h3.199v.384h-3.199zm-3.249 0v-.384h3.199v.384h-3.199zm-3.3 0v-.384h3.2v.384h-3.2zm-3.299-.384h3.2v.384h-3.2v-.384zm0-.449h3.2v.321h-3.2v-.321z" fill="#3C3C3B"/><path d="M586.03 339.732c0-.128-.05-.256-.2-.256-.899.128-3.899.32-6.148.32-2.549 0-6.348-.32-6.348-.32s.35 2.82 1.899 3.268c1.1.32 8.048.192 9.498.192.15 0 .25-.127.3-.32.05-.449.15-1.025.849-1.474l.15-1.41z" fill="#FFA333"/><path d="M584.93 341.078c-.099.641-.499 1.41-.999 1.41s-7.198.064-7.698 0-1.4-.128-1.799-.705c.25.577.899.833 1.899.897.85.064 7.198 0 7.598 0 .5 0 .9-.448.999-1.602zm-11.346-1.602c.85.063 3.949.32 6.098.32 2 0 4.599-.128 5.799-.257 0 0-2.45.769-6.499.642-4.048-.065-5.398-.705-5.398-.705z" fill="#C6C6C6"/><path d="M582.981 343.385h1v-.449c0-.128-.05-.192-.15-.192h-.7c-.1 0-.15.064-.15.192v.449zm-6.098 0h1v-.449c0-.128-.05-.192-.15-.192h-.7c-.1 0-.15.064-.15.192v.449z" fill="#3C3C3B"/><path d="M602.875 339.732c0-.128-.05-.256-.2-.256-.9.128-3.949.32-6.148.32-2.549 0-6.348-.32-6.348-.32s.35 2.82 1.899 3.268c1.1.32 8.048.192 9.497.192.15 0 .25-.127.3-.32.05-.449.15-1.025.85-1.474l.15-1.41z" fill="#FFA333"/><path d="M601.826 341.078c-.1.641-.5 1.41-1 1.41-.499 0-7.198.064-7.697 0-.5-.064-1.4-.128-1.8-.705.25.577.9.833 1.9.897.849.064 7.198 0 7.597 0 .45 0 .85-.448 1-1.602zm-11.397-1.602c.849.063 3.949.32 6.098.32 1.999 0 4.599-.128 5.798-.257 0 0-2.449.769-6.498.642-4.049-.065-5.398-.705-5.398-.705z" fill="#C6C6C6"/><path d="M599.826 343.385h1v-.449c0-.128-.05-.192-.15-.192h-.7c-.1 0-.15.064-.15.192v.449zm-6.097 0h1v-.449c0-.128-.051-.192-.151-.192h-.7c-.1 0-.149.064-.149.192v.449zm-24.744-11.024v-.129h5.699v.129h-2.8v.32h2.8v.128h-2.8v.385h2.8v.128h-2.8v.449h-.1v-.385h-2.799v-.128h2.799v-.384h-2.799v-.129h2.799v-.321l-2.799-.063zm-.05 1.988h5.748v-.513h-5.748v.513z" fill="#3C3C3B"/><path d="M550.44 324.094h.401v-.641h-.401v.641z" fill="#DEDEDE"/><path d="M550.141 325.44h1.05l-.2-1.41c0-.064-.05-.064-.05-.064h-.5c-.05 0-.05.064-.05.064l-.25 1.41zm.5-3.333h-1.25v.128l1.25.386v-.514zm0-1.025h-1.25v.128l1.25.385v-.513z" fill="#E6E6E6"/><path d="M550.641 323.389c.101 0 .151-.064.151-.192v-3.718c0-.127-.05-.192-.151-.192-.1 0-.15.065-.15.192v3.718c0 .064.1.192.15.192z" fill="#F6F6F6"/><path d="M550.641 322.812c.35 0 .6.257.6.514h-1.25c.05-.321.3-.514.65-.514z" fill="#E6E6E6"/><path d="M549.191 323.582h2.9c.1 0 .2-.128.2-.257 0-.128-.1-.257-.2-.257h-2.9c-.1 0-.2.129-.2.257 0 .129.1.257.2.257zm.35-2.499h.301v-.385c0-.064-.05-.129-.101-.129h-.1c-.05 0-.1.065-.1.129v.385zm0 1.026h.301v-.386c0-.064-.05-.128-.101-.128h-.1c-.05 0-.1.064-.1.128v.386z" fill="#F6F6F6"/><path d="M550.041 325.826h23.843v-.514h-23.843v.514zm0-2.117v1.537h.1v-.448h3.549v.448h.1v-.448h3.199v.448h.1v-.448h3.199v.448h.1v-.448h3.199v.448h.1v-.448h3.199v.448h.1v-.448h3.199v.448h.1v-.448h3.549v.448h.1v-1.537h-23.893zm6.948.128v.32h-3.199v-.32h3.199zm3.299 0v.32h-3.199v-.32h3.199zm3.249 0v.32h-3.199v-.32h3.199zm3.299 0v.32h-3.199v-.32h3.199zm3.299 0v.32h-3.199v-.32h3.199zm3.649.32h-3.549v-.32h3.549v.32zm-3.549.577v-.385h3.549v.385h-3.549zm-3.299 0v-.385h3.199v.385h-3.199zm-3.249 0v-.385h3.199v.385h-3.199zm-3.299 0v-.385h3.199v.385h-3.199zm-3.299 0v-.385h3.199v.385h-3.199zm-3.299 0v-.385h3.199v.385h-3.199zm-3.649-.448h3.549v.384h-3.549v-.384zm0-.449h3.549v.32h-3.549v-.32zm24.542 5.705l1.25-1.603h9.047v.513h-9.047l-1.25 1.603h-11.495v-.513h11.495z" fill="#3C3C3B"/><path d="M565.186 328.131v.321h-1.998v.128h1.998v.385h-1.998v.128h1.998v.448h.1v-.448h3.199v.448h.101v-.448h3.198v.448h.1v-.448h2.699v.448h.1v-.448h.05l1.2-1.538v.448h.101v-.448h2.298v.448h.1v-.448h3.199v.448h.101v-.448h2.698v.448h.101V326.4h-8.548l-1.25 1.603h-11.545v.128h1.998zm16.546-1.153h2.698v.384h-2.698v-.384zm0-.449h2.698v.321h-2.698v-.321zm-3.25.449h3.2v.384h-3.2v-.384zm0-.449h3.2v.321h-3.2v-.321zm-2.448.449h2.298v.384h-2.298v-.384zm0-.449h2.298v.321h-2.298v-.321zm-1.351 2.051l1.25-1.538v.384h-.05l-1.2 1.539v-.385zm0-.449l1.25-1.602v.321h-.05l-1.2 1.538v-.257zm-2.799.449h2.699v.385h-2.699v-.385zm0-.449h2.699v.321h-2.699v-.321zm-3.298.449h3.198v.385h-3.198v-.385zm0-.449h3.198v.321h-3.198v-.321zm-3.3.449h3.199v.385h-3.199v-.385zm0-.449h3.199v.321h-3.199v-.321zm7.298 13.78v.321h-2.449v.129h2.449v.384h-2.449v.128h2.449v.449h.1v-.449h3.199v.449h.1v-.449h3.199v.449h.1v-.449h3.199v.449h.1v-.449h3.199v.449h.1v-.449h3.199v.449h.1v-.449h3.199v.449h.1v-.449h3.199v.449h.1v-.449h3.199v.449h.1v-.449h3.199v.449h.1v-.449h3.199v.449h.1v-.449h3.199v.449h.101v-.449h3.548v.449h.1v-1.539h-42.487v.128h2.449zm36.289.45h3.549v.384h-3.549v-.384zm0-.45h3.549v.321h-3.549v-.321zm-3.249.45h3.2v.384h-3.2v-.384zm0-.45h3.2v.321h-3.2v-.321zm-3.299.45h3.199v.384h-3.199v-.384zm0-.45h3.199v.321h-3.199v-.321zm-3.299.45h3.199v.384h-3.199v-.384zm0-.45h3.199v.321h-3.199v-.321zm-3.299.45h3.199v.384h-3.199v-.384zm0-.45h3.199v.321h-3.199v-.321zm-3.299.45h3.199v.384h-3.199v-.384zm0-.45h3.199v.321h-3.199v-.321zm-13.246 0v.321h-3.199v-.321h3.199zm3.299 0v.321h-3.199v-.321h3.199zm3.299 0v.321h-3.199v-.321h3.199zm3.299 0v.321h-3.199v-.321h3.199zm3.249.385h-3.199v-.32h3.199v.32zm-3.199.513v-.448h3.199v.384h-3.199v.064zm-3.249 0v-.448h3.199v.384h-3.199v.064zm-3.299 0v-.448h3.199v.384h-3.199v.064zm-3.299 0v-.448h3.199v.384h-3.199v.064zm-3.299 0v-.448h3.199v.384h-3.199v.064zm-3.299-.448h3.199v.384h-3.199v-.384zm0-.45h3.199v.321h-3.199v-.321zm-53.084-4.358h10.697v-.769c0-.513-.3-.833-.65-.833h-9.348c-.399 0-.649.384-.649.833l-.05.769zm11.947.001l.3-1.154c.05-.192.2-.321.35-.256l13.746.897-14.396.513z" fill="#3C3C3B"/><path d="M638.016 343.386l-1.649-1.09h-18.895l-4.949 1.09h4.099l.8-.513h18.495l.4.513h1.699z" fill="#D65229"/><path d="M600.626 356.459l-51.385.129c.15.256-16.845-.577-23.043-6.282L518 340.757l.8-3.718h28.791l2.45-11.151h13.146v4.293h5.748v9.551l2.899 3.717h66.181l2.9 2.115h3.249c.699 0 1.249.705 1.249 1.602 0 .321-.1.641-.3.897-.699.897-2.549 3.012-5.448 3.845l-6.198 3.718-11.097.513-21.744.32z" fill="#F6F6F6"/><path d="M645.413 347.166c0 .321-.1.641-.3.898-.55.769-1.95 2.371-4.049 3.332h-27.292l-6.598 2.116h-75.079c-3.748-.833-3.998-1.538-5.898-3.205l-4.549-5.32h51.436l-1.25-1.602h66.181l2.899 2.115h3.249c.7 0 1.25.769 1.25 1.666z" fill="#1D1D1B"/><path d="M518.199 339.668l.6-2.692h28.792l1.649 2.692h-31.041z" fill="#D65229"/><path d="M559.888 329.029h1.25v-1.602h-1.25v1.602zm-3.249 0h1.25v-1.602h-1.25v1.602zm-3.7 0h1.25v-1.602h-1.25v1.602zm6.949 4.294h1.25v-1.602h-1.25v1.602zm-3.249 0h1.25v-1.602h-1.25v1.602zm-3.7 0h1.25v-1.602h-1.25v1.602zm6.949 4.23h1.25v-1.602h-1.25v1.602zm-3.249 0h1.25v-1.602h-1.25v1.602zm-3.7 0h1.25v-1.602h-1.25v1.602zm-2.898 0h.8v-1.602h-.8v1.602zm0-4.23h.8v-1.602h-.8v1.602zm9.847 8.461h1.25v-1.602h-1.25v1.602zm3.3-8.461h1.25v-1.602h-1.25v1.602zm0 4.23h1.25v-1.602h-1.25v1.602zm0 4.231h1.25v-1.602h-1.25v1.602zm3.298-8.461h1.25v-1.602h-1.25v1.602zm0 4.23h1.25v-1.602h-1.25v1.602zm0 4.231h1.25v-1.602h-1.25v1.602zm-9.847 0h1.25v-1.602h-1.25v1.602zm-3.7 0h1.25v-1.602h-1.25v1.602z" fill="#546C82"/><path d="M573.084 344.987h67.131l-2.149-1.602h-66.181l1.199 1.602z" fill="#D65229"/><path d="M486.239 465.795c-1.5-.937 0-6.688.195-8.427.261-3.545.457-7.022 3.522-9.363 5.283-4.013 12.326-1.538 15.065 4.08 2.087 4.28 1.5 5.952 6.065 8.159 2.609 1.27 5.283 1.605 7.305 3.678 2.935 3.077 4.239 6.755 6.195 10.366 1.37 2.475 3.392 4.682 5.022 7.09 3.978 5.952 8.674 11.503 12.522 17.522.652 1.07 1.239 2.207 1.826 3.277 1.239 2.341.783 2.207.391 4.414-.195 1.137.979 1.204-.065 2.073-.717.602-1.369-.067-2.152-.067-.652-.067-1.239-.735-1.826-.735-.783 0-1.239 1.003-2.283.936-1.369-.067-2.739-1.605-3.717-2.475-1.957-1.738-2.478-2.006-4.826-2.809-3-1.07-5.674-3.544-8.87-4.012-2.804-.402-6.391.669-8.543 1.404-1.761.602-6.196 1.94-8.479.669-2.608-1.404-4.5-5.016-6.978-6.755-1.304-.936-2.543-.869-3.782-2.541-1.305-1.739-2.218-3.946-3.261-5.819-1.761-2.809-3.848-5.684-4.37-8.961-.652-3.813.522-7.892 1.044-11.704z" fill="#D3D3D3"/><path d="M496.738 451.483c-1.63-.802-3.978-.802-4.826-2.608 1.696-1.003 6.065-1.939 7.891-.735 3 2.006-1.173 2.742-3.065 3.343z" fill="#EEEDED"/><path d="M502.934 499.57c-1.565-.134-4.631-.869-4.304 1.806 1.5.134 3 .267 4.434.401 0-.736-.13-1.471-.13-2.207z" fill="#A3A3A2"/><path d="M488.521 457.703c4.37 1.271 11.609 1.94 15.587-.601 1.566 2.808-4.108 7.624-6.978 7.222-1.826-.267-2.413-1.671-4.109-2.675-1.891-1.137-3.978-1.203-4.5-3.946z" fill="#B8B7B7"/><path d="M501.173 458.306c-2.869.668-6.522.133-9.522.2 3.457 2.074 6.653 3.812 9.522-.2z" fill="#A3A3A2"/><path d="M493.021 463.79c-2.283-.334-5.087 0-7.109-1.27-2.021 3.745 6.913 2.006 8.609 1.872-.457-.2-.978-.468-1.5-.602z" fill="#EEEDED"/><path d="M497.261 455.765c-1.696.668-.848 3.009-.131 4.28.913-1.204 1.565-3.411.131-4.28z" fill="#231F20"/><path d="M497.26 455.765c-.652.802-.326 2.073-.13 3.277.391-1.137.717-2.475.13-3.277z" fill="#4A4445"/><path d="M493.999 460.312c-.13.267-.326.535-.456.869.13.067.326.134.456.134.392-.602 0-.87 0-1.003zm.718.201c-.13.535-.587.735 0 .936v-.936zm-2.479-1.137c-.26.334-.587.669-.847 1.07.13.067.195.201.326.268.521-.469.456-1.071.521-1.338zm3.196 1.604l-.196 1.606h.392c.26-.803-.131-1.204-.196-1.606zm.783.335c-.065.535-.13 1.137-.196 1.672.131 0 .327 0 .457.067.261-.869-.13-1.27-.261-1.739zm1.37.134c.065.468.13.937.13 1.405.196-.067.326-.134.522-.134.065-.87-.522-1.003-.652-1.271zm1.434-.669c.131.602.327 1.137.522 1.672.196-.134.326-.2.522-.334-.13-.201-.196-.401-.326-.602l.782.201c.066-.134.196-.335.261-.469-.652-.601-1.108-.401-1.761-.468zm1.5-1.07c.196.334-.326.736.653 1.003.065-.134.13-.2.195-.334a35.41 35.41 0 01-.848-.669zm.848-.803c.261.201.522.335.848.535.13-.067.196-.2.326-.267a9.492 9.492 0 00-1.174-.268z" fill="#D3D3D3"/><path d="M490.738 452.554c1.5-1.07 3.326-.2 4.435 1.07-1.369.736-4.5 2.207-4.435-1.07z" fill="#231F20"/><path d="M491.064 452.621c.979-.468 3.913-.2 2.935 1.271-.978 1.538-2.869.067-2.935-1.271z" fill="#EFB125"/><path d="M503.652 452.554c-1.5-1.07-3.327-.2-4.435 1.07 1.435.803 4.5 2.274 4.435-1.07z" fill="#231F20"/><path d="M503.326 452.688c-.978-.468-3.913-.201-2.935 1.271.978 1.471 2.87 0 2.935-1.271z" fill="#EFB125"/><path d="M494.783 454.092c.978 2.675-4.044 3.678-4.109.602 1.369 1.337 3 1.07 4.109-.602zm4.825.268c-.718 2.475 3 2.609 4.174.937-1.435.2-2.935.334-4.174-.937z" fill="#EEEDED"/><path d="M495.435 447.003c.065.401.13.869.195 1.271.131 0 .326-.067.457-.067.065-.402.13-.803.13-1.204h-.782zm1.043-.535c.065.335.13.736.13 1.07.913-.468.587-.067.783-1.137-.327.067-.653.067-.913.067zm-1.696.201c0 .334.065.669.065 1.003-.847-.201-.587 0-.978-.802.326-.067.587-.134.913-.201zm1.891 1.471v.802h.522c.456-1.003-.261-.401-.522-.802zm1.435-.936c-.065.334-.065.669-.13 1.003 1.173-.535.326-.602.13-1.003zm-4.37.4c.066.268.131.536.131.803-.131.067-.261.134-.326.134-.587-.736.13-.535.195-.937zm5.283 0c0 .536-.521.602.066.937.586-.669-.066-.602-.066-.937zm1.043-.2c-.13.268-.195.468-.326.736.913-.134.392-.401.326-.736zm-7.499 0c0 .602.587.669 0 1.07-.717-.735 0-.735 0-1.07z" fill="#4D484A"/><path d="M493.412 451.618c.522.268 1.044.468 1.631.736-.131-1.07-.718-1.338-1.631-.736zm5.349.602c.652.066 1.304.2 1.565-.803-.783 0-.978.401-1.565.803z" fill="#B8B7B7"/><path d="M543.956 502.179c-.848-1.472-1.957-4.481-3.457-5.485-1.695-1.136-4.043.201-6.261.803-4.239 1.204-8.478.468-12.587 2.341 2.609.735 4.826 2.474 7.37 3.411 3 1.137 4.174 2.875 6.978 4.547 2.413 1.405 1.696.134 3.783.201.717 0 2.739 1.204 3.652.936 2.152-.535 1.5-4.748.522-6.754z" fill="#A3A3A2"/><path d="M542.13 498.968c-2.283-3.076-2.152-3.076-5.739-2.006 2.608 3.077 5.087 6.42 7.956 9.363 1.826-2.006-1.174-5.484-2.217-7.357z" fill="#B8B7B7"/><path d="M542.325 505.722c-1.304-1.738-4.891-7.958-6.782-8.56-1.109-.268-3.587 1.003-4.892 1.137-1.891.2-3.782 0-5.673.334 3.456 2.608 6.195 5.083 9.195 7.758 1.891 1.672 2.805 2.073 5.022 2.14.326 0 .652-.602 1.043-.602.522 0 1.044.669 1.566.669 1.239.067 1.826.736 2.934-.134-.782-.936-1.63-1.872-2.413-2.742z" fill="#848484"/><path d="M543.63 509c-2.022-2.207-4.174-4.347-5.935-6.755-.587-.869-2.152-4.481-3.065-4.815-.718-.268-2.544.736-3.392.869 2.739 3.344 5.413 6.755 8.087 10.099 1.109-1.07 2.87.334 4.305.602z" fill="#D3D3D3"/><path d="M537.825 496.56c2.413 2.809 4.826 5.618 7.174 8.494 0-2.341-4.761-9.832-7.174-8.494z" fill="#848484"/><path d="M502.739 463.589c-3 .201-5.935.134-8.674 1.538-3.522 1.806-3.326 4.481-2.74 8.36.979 6.353 6 12.306 10.957 15.984 4.696 3.478 11.543 4.615 17.283 5.618 2.934.535 6.065 1.137 8.804 1.939 1.304.335 7.435 3.879 6.978-.067 1.435.536 5.152 2.007 5.674-.735.457-2.274-3.717-3.612-5.152-4.414-4.565-2.742-7.37-6.153-10.957-10.166-3.26-3.611-6.456-7.223-9.717-10.834-3.978-4.347-6.717-6.086-12.456-7.223z" fill="#D3D3D3"/><path d="M507.369 459.644c1.174.535 9.587 3.477 9.391 4.146-.913 2.943-8.543-3.01-9.391-4.146z" fill="#EEEDED"/><path d="M505.087 462.854c.913-.401 1.5-.602 2.217-.201-.782.87-1.565 1.07-2.217.201zm2.151-1.137c.196.2.392.334.587.535.131-.134.326-.268.457-.401-.457-.803-.522-.067-1.044-.134zm.914 1.003c-.391.267-.522.602-1.044.669 1.174.401 2.283-.067 1.044-.669zm1.565.2l-.392.802c.196.134.326.268.522.402.848-.803.13-.602-.13-1.204zm-3.391-2.341c-.326.602-.196 1.338-1.37.334.457-.066.913-.2 1.37-.334z" fill="#4D484A"/><path d="M521.065 499.101c-4.109-1.27-8.413-1.872-12.587-3.009-4.696-1.271-6.717-2.14-9.978-5.952-2.544-2.876-5.283-4.949-7.239-7.892-2.609-3.879-4.305-6.889-5.674-11.436-.783 5.55-.066 8.56 2.608 13.375 1.435 2.609 2.739 5.685 4.566 8.093 1.565 2.14 3.13 2.073 4.956 3.344 1.761 1.27 3.196 4.347 4.826 5.417 2.152 1.471 4.174.869 6.587.669 3-.201 3.196-1.472 6.326-1.873 1.37-.134 5.544-.067 5.609-.736z" fill="#B8B7B7"/><path d="M502.935 500.372c-1.631 0-3.848-.2-5.218.87-1.304 1.003-2.022 2.608.261 3.143 1.239.334 2.87-.936 4.109-1.271 1.63-.334 3.13.469 3.913-1.538-.913-.468-1.957-1.003-3.065-1.204z" fill="#D3D3D3"/><path d="M502.087 503.917c.196-2.608 6.13-2.943 5.739-.401-.261 1.672-4.565 1.204-5.739.401z" fill="#D3D3D3"/><path d="M496.869 502.312c-1.305 0-2.478.668-2.413 2.073.848-.535 1.826-.87 2.869-1.003a5.23 5.23 0 00-.456-1.07zm8.087 1.204c-1.369.133-1.239 1.471-.782 2.875.717-.869 1.043-1.805.782-2.875z" fill="#4D484A"/><path d="M528.696 487.464a8.904 8.904 0 001.304-.267c-4.696-5.217-9.326-10.433-14.087-15.65-2.935-3.21-4.565-5.551-8.674-6.888-3.326-1.07-6.196-1.003-9.652-.803 2.674 1.003 5.543 1.806 7.956 3.411 2.74 1.873 5.283 4.615 7.696 6.955 2.87 2.809 5.283 6.086 8.217 8.762 2.153 1.939 4.631 3.076 7.24 4.48z" fill="#EEEDED"/><path d="M504.564 488.535c-6.717-7.022-9.978-12.841-11.804-22.472-5.152 1.672.391 12.574 2.022 15.383 2.739 4.815 7.239 8.627 12.326 10.366-.848-1.137-1.696-2.207-2.544-3.277z" fill="#B8B7B7"/><path d="M531.891 489.404c-1.631-3.344-4.37.468-6.652 1.271-2.087.735-5.218.869-7.37.869-5.543 0-11.152-1.538-16.5-2.876 4.631 4.28 12.131 5.351 18.196 6.421 2.935.535 6.065 1.137 8.804 1.939 1.305.334 7.435 3.879 6.978-.067 1.892.669 7.174 1.605 5.348-2.341-.913-1.939-6.913-4.079-8.804-5.216z" fill="#B8B7B7"/><path d="M531.891 489.405c-1.435-3.077-4.5 0-6.456 1.137a519.105 519.105 0 019.847 6.888v-.468c1.892.669 7.174 1.605 5.348-2.341-.848-1.939-6.848-4.079-8.739-5.216z" fill="#A3A3A2"/><path d="M529.282 488.401c-.522.134-1.174.669-1.631.937 2.153 1.672 10.109 9.363 12.718 7.557 2.348-1.605-2.674-2.608-3.783-3.277-2.609-1.405-4.956-3.478-7.304-5.217zm-1.5 6.286c-1.826-2.073-2.478-3.477-5.021-3.678-1.566-.134-3.261.535-4.892.535-3.456 0-7.695-.468-11.021-1.538 1.304 3.611 6.847 4.013 10.108 4.615 3.392.601 9.066 2.875 12.261 2.34-.391-.735-.913-1.538-1.435-2.274z" fill="#EEEDED"/><path d="M520.608 491.277c2.413 3.812 2.935 4.28 6.979 5.819-2.087-2.943-3.196-6.755-6.979-5.819z" fill="#A3A3A2"/><path d="M515.26 494.286c.848.201 1.696.335 2.544.469-1.109-1.806-1.696-4.147-4.174-3.746a50.734 50.734 0 001.63 3.277z" fill="#B8B7B7"/><path d="M510.695 492.949l2.935 1.003c-1.044-3.077-.978-3.01-4.174-3.411.391.803.783 1.605 1.239 2.408z" fill="#A3A3A2"/><path d="M515.913 464.993c1.63.335 3 .401 4.043 1.873-1.304.936-4.174-.535-4.043-1.873zm-2.348-.2c2.739.803.261 1.404-1.239.201.457-.067.848-.134 1.239-.201zm-2.088-1.003c.653 1.137-.195 1.605-1.239 1.003.457-.334.848-.669 1.239-1.003zm2.479 2.541c-.391.268-.717.736-1.108 1.003 1.174.602 2.087.134 1.108-1.003zm2.478.469c-.652.535-.391 1.137-1.37 1.337.913 1.472 3.196-.2 1.37-1.337zm5.022 4.012c-.587-.669-1.37-1.003-2.218-1.137.131 1.204 1.239 1.471 2.413 2.14l-.195-1.003zm-2.283.201c1.174.401 1.631 1.07.913 2.006-.521-.334-1.304-1.07-1.63-1.538.196-.201.457-.335.717-.468zm-.717-.535c-.848-.134-1.435.067-1.109-1.271.326.401.718.803 1.109 1.271zm-23.674-3.745a7.689 7.689 0 012.935-1.004c-.196 1.271-1.565 1.606-2.935 1.004zm5.739-2.007c-2.935-.335-2.022 1.605.783.669-.261-.201-.522-.469-.783-.669zm2.544 0c-.261.133-.522.2-.848.334.913.267 1.108.267 2.022-.201a5.72 5.72 0 00-1.174-.133zm.195 1.137c-.717-.067-1.5 0-2.217.201.913.735 1.435.334 2.217-.201zm2.544-.736c-.587.334-.978.468-1.109 1.137.979 0 1.174-.067 1.826-.803-.26-.133-.456-.2-.717-.334zm-5.935 1.271c-.718.067-1.37.402-1.957.803 1.044.602 1.37.067 1.957-.803zm-6.391.736c-.457.2-.913.334-1.37.535 1.174.602 1.044-.134 1.37-.535zm2.152.468c-.652.2-1.239.735-1.63 1.27 1.109.736 3-.067 1.63-1.27zm3.261.802c-.521.201-1.043.535-1.565.803.978.669 1.565.535 1.565-.803zm3.065-.802c-.652.267-1.174.735-1.565 1.27 1.108.736 2.021.335 2.413-.936a4.386 4.386 0 00-.848-.334zm-9.261 4.213c.718-.067 1.37.2 2.087 0-.652 1.003-1.695 1.137-2.087 0zm4.304.268c.783-.201 1.696-.201 2.478-.401.326 1.738-1.956 1.939-2.478.401zm6.523-1.939c-.783.401-1.305 1.003-2.087 1.337.978 1.338 3.065.268 2.087-1.337zm2.151-2.475c-.587.468-1.043.602-.848 1.404.783-.133.913-.468 1.5-.936-.195-.201-.456-.334-.652-.468zm-10.695 2.875c.847.468 1.304.803 2.086-.134-.782-.468-1.239-.267-2.086.134zm1.565 2.676c-.783.401-1.631.669-2.479.869.979 1.137 2.87.803 2.479-.869zm-1.826 2.273c-.457.201-.978.468-1.435.669.783 1.003 1.435.736 2.022-.401-.196-.067-.391-.201-.587-.268zm7.565-2.073c-.587.267-1.239.869-1.761 1.338 1.174 1.27 2.74.334 2.935-1.271-.391-.067-.782-.067-1.174-.067zm4.956-.735c.848-.468 1.5-.402 2.087-1.405.587 1.739-.848 2.876-2.087 1.405zm2.87-5.351c-.587.401-.848 1.003-1.565 1.338 1.239.735 2.935-.335 1.565-1.338zm-9.391 10.1c-.783 0-1.631.2-2.413.2 1.108 1.405 3.195 1.605 3.782-.334-.456.067-.913.067-1.369.134zm6.782-1.472c-.717.468-1.108 1.137-1.956 1.471 1.37 1.605 4.435-1.003 1.956-1.471zm-1.173-1.538c-.652.2-1.304.602-1.891.869 1.043.468 1.956.201 2.673-.802-.26-.067-.521-.067-.782-.067zm6.456-3.344c-.587.535-.848 1.204-1.565 1.605 1.369.803 3.13-.602 1.565-1.605zm-1.434 2.875c-.652.334-1.239.936-1.761 1.405 1.109.468 2.152.133 2.674-1.004a12.232 12.232 0 01-.913-.401zm-6.196 5.417c-.848.067-1.696.334-2.544.401.979 1.271 2.413 1.338 3.392 0-.326-.133-.587-.267-.848-.401zm-4.565.669c-.978.334-2.022.401-3 .401.717 1.739 2.869 1.405 3-.401zm-3.849-2.006a3.691 3.691 0 00-2.087.2c.848 1.137 2.544 1.204 2.087-.2zm14.74-1.605c-.521.936-1.435 1.538-2.478 1.538 1.5 1.538 4.435.334 2.478-1.538zm4.239-2.475c-3.783 2.742 3.522 1.07 0 0zm.587 3.946c-.652.335-.978 1.004-1.761 1.338 1.174 1.204 2.609.067 1.761-1.338zm-5.87 2.609a4.707 4.707 0 01-2.478.936c.913 1.739 3.261.736 2.478-.936zm-6.521 1.939c-.913.335-1.826.535-2.805.535.979 1.405 3.261 1.538 2.805-.535zm3.652 1.538c-.391.134-.782.335-1.239.468-.587 1.137 1.761.201 2.087-.334-.261 0-.587-.067-.848-.134zm7.174-2.608c-.717.736-1.565 1.404-2.478 1.873 1.369 1.872 4.565-.669 2.478-1.873zm5.413-2.408c-6.326 3.143 4.369 1.137 0 0zm-.065 3.746c-5.674.401.848 2.809 0 0zm2.543-1.739c-.521.267-.978.869-1.369 1.337.978.535 1.891.134 2.543-.869-.326-.134-.717-.335-1.174-.468zm-21.587 4.815c.718.267 3.848-.334 2.935.669-.848 1.003-3.522 1.003-2.935-.669zm-.913-2.073c-.326 1.471-1.891 1.471-2.543.134.783-.067 1.761-.268 2.543-.134zm7.043 2.207c-2.739.602-.717 2.274.848.602-.326-.201-.587-.402-.848-.602zm4.174-1.338c-.782.267-1.434.736-1.891 1.471 1.044.669 2.152.268 2.87-.802-.326-.201-.653-.402-.979-.669zm4.305.803c-.587.268-.979.468-1.109 1.07 1.239.736 2.609.134 2.413-1.404-.457.133-.913.267-1.304.334zm7.369 1.404c-.717.201-1.435.736-2.217.936 1.043 1.338 3.326.602 2.217-.936zm.522-2.809c-.326.2-.717.468-1.043.669.913 1.003 1.761.468 1.957-.87-.261.134-.587.134-.914.201zm-6.456 4.615c-.652.133-1.174.334-1.566.869.979.869 1.957.736 2.479-.535-.326-.134-.652-.268-.913-.334zM486.5 471.547c.652-.602 1.239-.936 2.022-.669-.392 1.004-1.109 1.204-2.022.669zm-.718 1.74c.587-.201 1.37-.134 1.957-.201-.457 1.204-1.565 1.873-1.957.201zm.913-4.548c.783.535 1.044 1.003 1.761-.067-.587 0-1.174 0-1.761.067zm2.413 4.748c-.522.335-.913.535-1.304 1.003 1.239.335 1.108-.2 1.304-1.003zm-.521 3.344c-.587.067-1.239.268-1.826.401.456 1.137 2.021.803 1.826-.401zm-1.24-1.605c-.522 0-1.108.066-1.63.066.195 1.004.978 1.004 1.956.535-.065-.133-.195-.401-.326-.601zm2.805-.201c-1.826 1.137.195 1.605 0 0zm.652 3.411c-.261.134-.587.268-.848.402 0 1.471 1.5-.535 1.5-.535-.196 0-.456.067-.652.133zm-2.152 1.94c-.457.067-.979.134-1.435.134.717 1.003 1.63.802 1.435-.134zm4.043 1.003c-1.696 1.672.261 1.739.848.134-.326-.067-.587-.067-.848-.134zm-3.196 2.608c.652-.2 1.435-.067 2.087-.133-.196 1.136-1.174 1.27-2.087.133z" fill="#4D484A"/><path d="M492.695 454.025a.66.66 0 00.652-.669.66.66 0 00-.652-.668.66.66 0 00-.652.668c0 .37.292.669.652.669zm8.935 0a.66.66 0 00.652-.669.66.66 0 00-.652-.668.66.66 0 00-.652.668c0 .37.292.669.652.669z" fill="#231F20"/></g><defs><linearGradient id="paint0_linear" x1="754.576" y1="452.305" x2="759.71" y2="452.305" gradientUnits="userSpaceOnUse"><stop offset=".001" stop-color="#fff" stop-opacity=".05"/><stop offset=".382" stop-color="#ACC0CD" stop-opacity=".413"/><stop offset=".807" stop-color="#557E99" stop-opacity=".816"/><stop offset="1" stop-color="#336484"/></linearGradient><linearGradient id="paint1_linear" x1="2" y1="20" x2="767.778" y2="20" gradientUnits="userSpaceOnUse"><stop stop-color="#C8E9FA"/><stop offset=".741" stop-color="#C8E9FA"/></linearGradient><linearGradient id="paint2_linear" x1="367.893" y1="528" x2="367.893" y2="1" gradientUnits="userSpaceOnUse"><stop stop-color="#fff"/><stop offset=".741" stop-color="#C8E9FA"/></linearGradient><linearGradient id="paint3_linear" x1="412.336" y1="173.739" x2="701.997" y2="173.739" gradientUnits="userSpaceOnUse"><stop offset=".085" stop-color="#1A1A1A"/><stop offset=".92" stop-color="#fff"/></linearGradient><linearGradient id="paint4_linear" x1="412.336" y1="173.739" x2="701.997" y2="173.739" gradientUnits="userSpaceOnUse"><stop offset=".085" stop-color="#fff"/><stop offset=".92" stop-color="#C8E9FA"/></linearGradient><linearGradient id="paint5_linear" x1="540.82" y1="238.366" x2="2.4" y2="238.366" gradientUnits="userSpaceOnUse"><stop offset=".085" stop-color="#1A1A1A"/><stop offset=".92" stop-color="#fff"/></linearGradient><linearGradient id="paint6_linear" x1="351.899" y1="355.001" x2="351.899" y2="528.001" gradientUnits="userSpaceOnUse"><stop stop-color="#E6E6E6"/><stop offset=".844" stop-color="#E6E6E6"/></linearGradient><linearGradient id="paint7_linear" x1="383.889" y1="355.001" x2="383.889" y2="528.001" gradientUnits="userSpaceOnUse"><stop stop-color="#409CCB"/><stop offset=".844" stop-color="#3E5680"/></linearGradient><linearGradient id="paint8_linear" x1="540.82" y1="238.366" x2="2.4" y2="238.366" gradientUnits="userSpaceOnUse"><stop offset=".085" stop-color="#fff"/><stop offset=".92" stop-color="#C8E9FA"/></linearGradient><linearGradient id="paint9_linear" x1="753.805" y1="85.47" x2=".006" y2="85.47" gradientUnits="userSpaceOnUse"><stop offset=".085" stop-color="#fff"/><stop offset=".92" stop-color="#C8E9FA"/></linearGradient><linearGradient id="paint10_linear" x1="202.915" y1="142.499" x2="-.014" y2="142.499" gradientUnits="userSpaceOnUse"><stop offset=".099" stop-color="#fff"/><stop offset=".92" stop-color="#C8E9FA"/></linearGradient><linearGradient id="paint11_linear" x1="367.893" y1="403.153" x2="367.893" y2="527.855" gradientUnits="userSpaceOnUse"><stop offset=".318" stop-color="#fff"/><stop offset="1" stop-color="#B5E0F1"/></linearGradient><linearGradient id="paint12_linear" x1="80.876" y1="400.314" x2="356.799" y2="400.314" gradientUnits="userSpaceOnUse"><stop stop-color="#E6E6E6"/><stop offset=".844" stop-color="#333"/></linearGradient><linearGradient id="paint13_linear" x1="80.876" y1="400.314" x2="356.799" y2="400.314" gradientUnits="userSpaceOnUse"><stop stop-color="#409CCB"/><stop offset=".844" stop-color="#3E5680"/></linearGradient><linearGradient id="paint14_linear" x1="29.791" y1="393.415" x2="55.404" y2="393.415" gradientUnits="userSpaceOnUse"><stop stop-color="#E6E6E6"/><stop offset=".844" stop-color="#333"/></linearGradient><linearGradient id="paint15_linear" x1="29.791" y1="393.415" x2="55.404" y2="393.415" gradientUnits="userSpaceOnUse"><stop stop-color="#409CCB"/><stop offset=".844" stop-color="#3E5680"/></linearGradient><linearGradient id="paint16_linear" x1="456.618" y1="372.51" x2="702.002" y2="372.51" gradientUnits="userSpaceOnUse"><stop stop-color="#409CCB"/><stop offset=".844" stop-color="#3E5680"/></linearGradient><linearGradient id="paint17_linear" x1="2.399" y1="408.061" x2="366.387" y2="408.061" gradientUnits="userSpaceOnUse"><stop stop-color="#409CCB"/><stop offset=".844" stop-color="#3E5680"/></linearGradient><clipPath id="clip0"><path fill="#fff" d="M0 0h768v598H0z"/></clipPath></defs></svg>