<svg width="1934" height="844" fill="none" xmlns="http://www.w3.org/2000/svg"><g clip-path="url(#clip0)"><path d="M1754.3 636.977c-2.4.904-4.8 1.809-7.1 2.804 2.7.542 4.4-3.437 7.1-2.804z" stroke="url(#paint0_linear)" stroke-miterlimit="10"/><path d="M10.2 774.046c15.633 12.414 48.901 22.744 69.043 23.469 99.104 3.262 193.599-13.592 292.102-21.204 49.803-3.806 99.605-9.061 149.709-7.702 85.576 2.265 170.05 23.56 255.025 16.401 29.06-2.447 57.519-8.246 86.779-9.152 81.067-2.628 155.122 31.624 235.982 36.427 111.63 6.615 218.35-43.223 329.68-34.705 25.26 1.903 50.31 6.886 75.66 6.071 24.25-.816 47.4-6.887 71.35-9.605 41.28-4.622 83.47 1.178 124.45 6.886 81.07 11.327 171.46 58.175 233.89 63.068.3 0 0-2.537 0-2.718v-11.599c-.1-1.994.1-12.505.1-20.932 0-1.359-.1-44.22 0-51.56.1-12.595-.1-11.689-.1-20.025v-.725c-.1-1.178-6.62 1.359-10.12 1.993-19.95 3.534-40.89 3.625-61.33 3.534-191.2-.362-382.29-.634-573.48-.997l-322.067-.543-348.218-.544c-174.059-.272-348.118-.544-522.177-.906-34.872-.091-74.954-11.78-86.478 5.346" fill="#94D8F0"/><path d="M1934 1H10v54.697h1924V1z" fill="url(#paint1_linear)"/><path d="M1934 46H10v699h1924V46z" fill="url(#paint2_linear)"/><path d="M1640.4 263.929c-180.8-25.057-360.4-28.675-506.6-21.077-96.9 5.066-97.5-6.332.1-6.061 244 .634 310.7-24.333 506.5 1.267v25.871z" fill="url(#paint3_linear)"/><path d="M1640.4 263.929c-180.8-25.057-360.4-28.675-506.6-21.077-96.9 5.066-97.5-6.332.1-6.061 244 .634 310.7-24.333 506.5 1.267v25.871z" fill="url(#paint4_linear)"/><path d="M644.1 636.885c267.9 0 485-204.795 485-457.443 0-63.308-13.64-123.612-38.29-178.442C1072.5 1 846.694 2 646 2c-200.709 0-431.5-.965-448.623-.965-24.645 54.82-38.277 115.112-38.277 178.407 0 252.648 217.1 457.443 485 457.443z" fill="#DCEFF9" stroke="#fff" stroke-width=".25" stroke-miterlimit="10"/><path d="M646.1 314.135c78.9 0 142.8-60.335 142.8-134.691S725 44.753 646.1 44.753s-142.8 60.335-142.8 134.691 63.9 134.691 142.8 134.691z" fill="#FFFCE8" fill-opacity=".5"/><path d="M646.101 275.146c56 0 101.4-42.877 101.4-95.704 0-52.827-45.4-95.704-101.4-95.704-56 0-101.4 42.877-101.4 95.704 0 52.827 45.4 95.704 101.4 95.704z" fill="#FFF7BD" fill-opacity=".5"/><path d="M644.099 229.375c29.3 0 53-22.343 53-50.023 0-27.68-23.7-50.023-53-50.023-29.299 0-52.999 22.343-52.999 50.023 0 27.68 23.7 50.023 52.999 50.023z" fill="#FEF4A2"/><path d="M240.8 355.021c338.2-25.057 660.5-22.253 934-14.654 181.3 5.065 195.4-13.478 13.5-12.483-333.5 1.718-581.3-24.333-947.4 1.266l-.1 25.871z" fill="url(#paint5_linear)"/><path d="M240.8 355.021c338.2-25.057 660.5-22.253 934-14.654 181.3 5.065 195.4-13.478 13.5-12.483-333.5 1.718-581.3-24.333-947.4 1.266l-.1 25.871z" fill="url(#paint6_linear)"/><path d="M130.899 125.441s515.6 11.398 977.301 14.292c277.1 1.719 551.5 7.87 636.6-14.292v-24.785s-196.5 22.795-627.6 28.132c-248.401 3.076-574.701 5.518-986.201-10.674l-.1 7.327z" fill="url(#paint7_linear)"/><path d="M1640.4 501.47H10v243.239h1630.4V501.47z" fill="url(#paint8_linear)"/><path d="M1934 501H10v244h1924V501z" fill="url(#paint9_linear)"/><path opacity=".6" d="M10 495.682v-92.448c56.7-36.364 212.1-81.773 212.1-81.773 18 7.417 100 42.334 117 39.801 26.7-3.89 60.7-16.463 65.6-18.634 10.2-4.613 83-.271 110.2 3.437 0 0 52.3-16.463 77-16.192 14.2.181 57.2 28.223 142.9 81.593 6.5 4.071 53.7-12.483 53.7-12.483 31.1 7.689 57 48.214 57 48.214 21.9 8.231 19.8 41.339 28 48.575l-863.5-.09zM1934 501V264l-227.46 36.6c-19.28 8.474-107.25 48.68-125.53 45.796-28.62-4.508-65.07-18.932-70.29-21.456-10.95-5.318-88.98-.36-118.2 3.967 0 0-56.04-18.931-82.55-18.571-15.26.181-61.36 32.544-153.24 93.845-7.03 4.687-57.55-14.424-57.55-14.424-33.34 8.834-61.15 55.441-61.15 55.441-23.5 9.466-21.29 47.508-30.03 55.802h926z" fill="#ACDCF6"/><path d="M132.6 215.717c158.2-19.81 318.4-18.363 446.5-12.302 84.8 3.98 82.4-9.317-3.1-9.046-213.6.543-272-19.267-443.4.995v20.353z" fill="url(#paint10_linear)"/><path opacity=".1" d="M1618.4 562.439c-3.9 1.086-8.5-.633-12.4-1.176-3.4-.452-6.7-.09-10.1.181-11.4 1.086-15.1 3.438-22.2 3.076-.7 0-.9.09-.2.181 2.8.361 8.4.181 8.5.181 3.2-.181 6.1-.634 9.2-.995 3.5-.453 7-.634 10.5-.453 3.2.181 6.4.814 9.6 1.086 2.5.181 5-.091 7-1.629.4-.271.7-.542.1-.452z" fill="#B5E0F1"/><path opacity=".12" d="M490.699 586.229c-9.7.452-19.5.452-29.2-.271-8.6-.633-16.9-1.9-25.4-2.985-8-.995-15.8-1.357-23.9-.543-8.1.814-16 2.442-24.1 3.347-8.6.995-17.4 1.176-26.1.633-.4 0-.4.271-.1.362 8.8 1.628 18 1.628 27 .723 8.7-.904 17.4-2.08 26.2-2.351 8.7-.272 17.4 0 26.1.633 16.3 1.266 33.3 4.161 49.5.904.7-.181.7-.452 0-.452z" fill="#B5E0F1"/><path d="M1856.04 597.079c-21.95-2.807-28.26-5.432-55.62-15.752-27.25-10.229-127.46 7.423-156.92 10.773-29.47-3.35-129.77-20.912-156.93-10.773-27.36 10.32-33.67 12.945-55.62 15.752-62.63 7.966-114.63-13.036-133.27-1.811-3.61 2.173 9.92 33.948 2.4 56.58-6.01 18.015-279.08 27.791-285.19 17.019-10.12-17.653 5.01-34.853 0-39.108-15.934-13.851-71.75-5.341-74.556-10.773-6.614-12.764 3.207-20.549.401-33.766-2.405-11.316-155.624-26.706-236.692-6.066-93.194 23.628-165.645 32.681-235.289 36.121-1.604.09 2.605 12.492 1.002 12.583-3.006.091-34.372-4.888-35.374-7.333-4.509-10.953-154.621-8.147-192.5-5.16v-.181c-37.277-2.987-188.392-5.703-192.901 5.251-1.002 2.535-32.367 7.514-35.373 7.332-1.604-.09 2.605-12.492 1.002-12.583-1.503-.09-3.107-.181-4.61-.271V744.91h231.481v.09H1934V595.54c-22.15 2.625-48.9 5.16-77.96 1.539z" fill="url(#paint11_linear)"/><path opacity=".06" d="M1068.5 530.055c-4.3-.634-8.6-.362-12.9 0-4.8.452-9.5 1.085-14.4 1.085-4.8 0-9.6-.452-14.4-1.085-4.3-.543-8.7-1.176-13.1-1.176-4.1 0-8.3.543-12 1.99-.2 0-.7.362-.7.452-.3.271-.2.452.3.271.2-.09.4-.09.7-.181 8.3-1.99 17.2.001 25.5 1.267 4.3.633 8.6 1.085 12.9.904 4.4-.18 8.8-.542 13.1-.995 2.4-.271 4.8-.633 7.2-.995 2.6-.452 5.2-1.266 7.8-1.266.4.09.5-.181 0-.271z" fill="#B5E0F1"/><path d="M10 542.809v-63.682c83.3-29.851 186.3-82.859 207-83.673 19-.723 25.6 4.976 48.9 1.086 22.7-3.799 28.8-14.926 55.8-25.328 22.4-8.594 29.4-4.433 49.6-13.116 36.6-15.65 80.1-57.26 83.6-52.647 14.6 18.725 60.5 56.898 65.9 79.331 10.1 42.154-1.5 76.346-1.5 76.346 16.9 11.308 47.2-14.021 129.2-23.157 30.6-3.437 67.3.905 94.7-1.537 73.2-6.513 77.2-15.65 98.2-10.946 32.4 7.146 50.3 25.69 84.2 60.788 29.9 30.936 44.8 46.404 43.2 56.264l-958.8.271z" fill="#FAFDFF"/><path d="M240.8 542.81c1.8-5.156 9.3-12.936 9.3-12.936 15.5-12.935 126.9-81.954 143.5-82.678 15.2-.723 19 7.146 37.5 3.257 18.1-3.799 23.5-22.162 45-32.565 17.9-8.593 23.4-4.613 39.7-13.116 16.3-8.503 33.8 17.187 36.6 21.71 11.7 18.724 27.2 34.826 31.5 57.259 8 42.153 37.4 47.309 51.7 47.038 27.9-.362 41.2-27.771 106.8-36.907 24.5-3.437 57.8 3.438 79.8 1.267 27.4-2.714 36.6-17.459 53.4-12.845 25.9 7.146 60.4 25.418 87.5 60.516H240.8z" fill="#B5E0F1"/><path d="M.799 542.538c1.8-5.156 9.3-12.935 9.3-12.935 15.5-12.935 126.9-81.954 143.5-82.678 15.2-.723 19 7.146 37.5 3.257 18.1-3.8 23.5-22.162 45-32.565 17.9-8.593 23.4-4.613 39.7-13.116 16.3-8.503 33.8 17.187 36.6 21.709 11.7 18.725 27.2 34.826 31.5 57.26 8 42.153 37.4 47.309 51.7 47.038 27.9-.362 41.2-27.771 106.8-36.907 24.5-3.437 57.8 3.437 79.8 1.267 27.4-2.714 36.6-17.459 53.4-12.845 25.9 7.146 60.4 25.418 87.5 60.515H.799z" fill="#B5E0F1"/><path d="M909.6 524.267c-4.8-2.624-45.1-4.161-57-5.066-11.4-.905-22.3-4.613-33.6-6.061-5.3-.723-8.2-10.674-12.9-8.231-1.6.814-5.3 11.036-10.9 12.483-11.9 2.985-7.2 14.202-45.7 3.347-11.8-3.347-16.3 11.669-30 6.151-4.2-1.719-17.7 3.256-23.2 2.895-18.9-1.267-24.2 1.628-35.8 5.246-11.5 3.528-40.7 4.071-52.6 6.332-6.1 1.176-14.4 1.628-20.5.181-11.4-3.076-30.5-17.549-33-23.338-2.8-6.513-17.4 17.639-25.1 17.911-6.3.181-13.6.09-17.6-5.066-1.7-2.081-2.8-4.523-4.8-6.423-2.5-2.351-5.9-3.346-9.1-4.613-6.8-2.623-25-21.348-30.2-26.052-3.7-3.256-12.3-25.147-15.8-16.282-2.2 5.608-13.7 39.801-17.1 45.319-7.6 12.212-22.6 15.83-36.7 19.991h552c.3-2.713-29.6-12.845-40.4-18.724zM346.8 542.81c-6.3-4.523-14.3-4.614-20.4-9.498-2.7-2.171-5.1-4.795-6.2-7.961-.6-1.899-.8-3.799-1.3-5.698-.4-1.9-1.1-3.709-2-5.428-.9-1.99-2.1-3.889-3.2-5.789-.9-1.447-2.9-3.076-3.8-3.257-.4-.09-.2.453-.2.815.2 1.899-.3 3.527-1.5 5.156-.9 1.266-1.7 2.532-2.2 3.98-1.2 3.256-1.2 6.784-1.8 10.221-.6 3.709-1.4 7.327-2.4 10.946-.7 2.442-3.3 5.699-6.3 6.603h51.3v-.09z" fill="#87C8E1"/><path opacity=".6" d="M586.2 377.725c-2.4-2.262-5.2-3.98-7.8-5.97-2.8-1.99-5.3-4.161-7-7.056-1.7-2.985-2.7-6.242-2.3-9.588 0-.272.1-.543.2-.905.9-2.533.7-5.337 1-8.051.2-1.899-.9-2.261-1-.452-.5 5.699-5.3 11.488-5.3 17.277 0 5.156 2.5 10.041 5.9 14.021 1.8 2.081 3.8 4.071 6.1 5.79 2.5 1.899 5.3 3.618 7.5 5.789 4.4 4.342 6.6 10.493 8 16.192 1.7 6.965 2.7 16.191 1.5 23.247-.3 1.809.9 1.447 1.4-.452 3.1-13.569 3.2-29.308-2.7-42.153-1.5-2.804-3.2-5.428-5.5-7.689zM743 448.19c-8.7 9.227-17.5 12.212-37.2 14.745-6.1.814-12.3 2.261-17.2 5.97-1.3.995-2.4 2.08-3.4 3.347-.1.09-.6.633-.7.904-2 2.624-3.6 5.518-4.8 8.503-.7 1.809.3 1.9 1 .091 1.1-2.804 3.7-6.061 5.7-8.503 1.8-1.538 5.6-.633 8-.905 2.4-.271 4.9-.543 7.3-.814 5.3-.633 10.6-1.538 15.7-3.256 10.5-3.619 17.7-11.398 25.4-18.454 1.4-1.266 1.7-2.985.2-1.628zm146 26.594c-3.7-2.623-7-4.432-8.5-8.503-.9-2.442.5-8.684.8-11.126.3-2.352 1-4.704 0-6.875-1.7-3.89-5.1-6.151-9.1-8.051-5.1-2.352-10.5-4.251-16.1-5.427-1.4-.271-2-.091-.8.452 4.6 1.99 11.5 4.794 14.6 7.779 3.1 2.986 2.4 7.508 3.3 11.579.6 2.442-.1 5.97.8 8.232.7 1.899 1.8 3.708 3.2 5.337 2.8 3.347 7 6.151 11.5 7.327 1.3.271 1.4.09.3-.724z" fill="#A9D5E4"/><path d="M938.7 585.054s-34-.995-36.3 9.136c-2.7 11.85 32.4 27.771 35.9 24.605 0 0-1.4-2.533-2-5.518-.2-.905-.3-1.9-.3-2.804-.2-10.041 5.1-12.845 2.7-25.419zm355.8 11.035s25.5-1.99 31.8 7.599c11 17.006-18.5 42.334-29.1 48.394 0 0 3.8-10.04 2-26.775-1.9-15.74-5.9-22.795-4.7-29.218zm-280.9 35.007s-4.8 1.448-11.4 3.347c-8.501 2.442-12.701.814-13.801 2.895-1.4 2.533-.7 10.583 6.5 19.538 7.701 9.498 16.901 12.393 17.901 12.031 0 0-3.3-8.322-3.3-19.267.1-2.442 5.3-12.755 4.1-18.544zm421.9-35.278s11.4-1.628 27.2-6.965c9.7-3.256 19.6-8.774 23.3-8.503 0 0 8.6-1.356 18.4 2.714 11.1 4.704 23.4 14.925 21.7 14.745-30-4.161-90.4-.453-90.6-1.991z" fill="#B5E0F1"/><path opacity=".5" d="M538.8 670.807c-4.5-3.799-10-6.422-14.4-10.222-2.5-2.171-4.4-4.703-5.6-7.598-1.3-3.256-1.7-6.694-2.8-10.041-2.1-6.06-7.9-9.86-14.3-11.85-8.6-2.623-18.1-3.889-27.1-3.437-2 .09-2.2.633-.7.814 6.3.633 12.7 1.99 18.2 4.704 5.6 2.804 9.6 8.684 12.9 13.749 3.1 4.795 5.4 10.132 9.9 14.021 2.5 2.171 5.5 3.709 8.4 5.337 2.7 1.538 5.3 3.257 7.6 5.156 5.5 4.433 14.6 13.298 14.7 20.263 0 1.176.4-3.98.5-4.885.6-6.242-2.3-11.85-7.3-16.011z" fill="#B5E0F1"/><path opacity=".44" d="M1640.4 501.47h-490.9c12.5 2.985 25.9 5.518 32.6 14.383 3 3.98 13.2 28.675 15.2 32.655 3.2 6.422 10.8-9.408 14.1-11.76 4.7-3.347 20.9-16.915 26.9-18.815 2.9-.904 5.9-1.628 8.1-3.347 1.8-1.357 2.8-3.075 4.3-4.613 3.6-3.709 10.1-3.799 15.7-3.618 6.8.181 19.9 17.548 22.4 12.935 2.2-4.251 19.2-14.654 29.3-16.825 5.4-.995 12.8-.724 18.2.181 10.6 1.628 36.5 1.99 46.8 4.613 10.3 2.533 15.1 4.614 31.8 3.709 4.9-.271 16.9 3.347 20.6 2.08 12.2-3.98 16.2 6.875 26.7 4.433 34.2-7.779 30 .271 40.6 2.442 5 .995 8.2 8.413 9.7 8.955 4.2 1.719 6.7-5.427 11.5-5.97 10.1-1.085 19.8-3.708 29.9-4.342 10.5-.723 46.4-1.809 50.7-3.708 9.7-4.252 36.2-11.579 35.8-13.388z" fill="url(#paint12_linear)"/><path opacity=".5" d="M1509.63 667.007c-3.8-4.523-11.6-6.332-16.9-9.498-5.6-3.347-12.5-3.98-18.2-7.056-5-2.713-9.1-6.784-12.8-10.764-3.6-3.98-6.9-8.141-10.3-12.212-.1-.181-.2-.362-.4-.452-.5-.362-1.1-.09-1.4.271-.2.272-.4.543-.3.905 1.2 5.88 3.7 11.488 7.2 16.554 3.1 4.432 7 8.412 11.5 11.669 5 3.618 10.6 6.151 16.3 8.774 5.8 2.714 11.6 5.518 16.4 9.588 4.6 3.8 9.9 6.423 12.5 11.579.5.995 24.7 34.102 24.8 33.198.5-6.784-24-47.309-28.4-52.556zm-571.031-16.824C929.899 661.852 910 669.45 896 672.526c-7.8 1.718-15.501 3.889-22.401 7.779-6.1 3.437-11.399 7.96-16.099 12.935-5.5 5.79-10.201 12.122-14.9 18.454-.8 1.085.399 1.537 1.299.452 1.7-2.262 6.3-6.332 6.5-6.513 20-17.82 50.3-19.991 72.4-35.007 5.8-3.98 10.9-8.774 14.6-14.473.7-1.176 2-7.056 1.2-5.97zM372.9 722.91c-6.5-12.664-21-19.72-35.5-22.705-8.3-1.719-17-1.719-25-4.432-8.2-2.805-15.2-7.327-21.9-12.303-3.2-2.352-6.5-4.613-10.4-5.879-3.6-1.176-7.6-1.538-11.3-.724-.4 0-.7.181-.9.452-.4.543-.1 1.448.6 1.628 7.2 2.533 14.1 5.971 20.2 10.222 3 2.081 5.8 4.252 8.5 6.694s4.9 5.337 7.7 7.508c2.9 2.261 6.5 2.804 10.2 2.804 3.8-.09 7.6-.452 11.4-.543 7.9-.09 16.1.543 23.5 3.347 8.5 3.166 17.8 11.127 23.9 17.097 1.1.995-.5-2.081-1-3.166z" fill="#B5E0F1"/><path d="M1096 352.379s7.44 11.259 17.18 28.283c1.91 3.333 12.67 2.162 14.78 5.945 2.61 4.774-3.42 14.502-.71 19.726 15.28 29.724 30.85 66.294 32.76 94.667H1934V369.763c-88.73 22.429-146.01 3.063-199.58 6.125-48.53 2.793-103.2.451-165.91-3.693-5.32-.36 1.31 5.225-4.22 4.864-4.32-.27-20.8-6.485-25.32-6.845-117.08-8.197-261.08-20.537-442.97-17.835z" fill="#FAFDFF"/><path d="M1149.4 501.471c1.6-20.172 2.7-38.083 3.5-53.732.2-5.156 7.2-3.257 7.4-7.96.3-7.689-6.3-21.529-6.2-27.952.2-11.85.1-21.529 0-29.127-.1-2.804 1.9-2.985 1.8-5.247 0-1.447-2.1-5.156-2.2-6.422-.2-5.97-.5-8.955-.5-8.955 19.6 1.628 45.3 3.437 75.2 6.694 1.7.18-1.4 8.593 4.6 13.839 8 6.966 3.3 23.881 5.5 24.967 1.6.814 7-8.141 8.4-19.629 1-8.684 1.7-16.916 2.9-16.735 60.7 7.508 135 21.076 209.5 49.48 0 0 108.5-9.136 154.5-41.52 0 0 5.3 15.649 11.2 38.264.8 3.075 14.6-14.474 15.4-11.217v95.071h-491v.181z" fill="#B5E0F1"/><path d="M1604.6 488.174c-4.3-1.899-40.1-2.985-50.7-3.708-10.1-.724-19.8-3.347-29.9-4.342-4.7-.453-7.3-7.689-11.5-5.971-1.5.634-4.7 7.961-9.7 8.956-10.6 2.171-6.4 10.221-40.6 2.442-10.5-2.352-14.5 8.413-26.7 4.432-3.8-1.175-15.7 2.352-20.6 2.081-16.8-.905-21.6 1.176-31.8 3.709-10.3 2.533-36.2 2.894-46.8 4.613-5.4.814-12.8 1.176-18.2.181-10.2-2.171-27.1-12.664-29.3-16.825-2.5-4.704-15.5 12.754-22.4 12.935-5.6.181-12.1.091-15.7-3.618-1.5-1.538-2.5-3.256-4.3-4.613-2.2-1.719-5.3-2.443-8.1-3.347-6-1.9-22.2-15.378-26.9-18.815-3.3-2.352-10.9-18.182-14.1-11.76-2 4.071-12.2 28.675-15.2 32.655-6.7 8.865-20.1 11.398-32.6 14.383h490.9c.4-1.9-26.1-9.227-35.8-13.388zm-152.8-41.972c-3.6 0-16.7-2.171-33.5-20.987-14.1-15.83-35.4-26.504-35.4-26.504-6.2-2.894-15.8-6.332-15.8-6.332 30.1 7.328 61.1 16.554 92.2 28.404 0 0 108.5-9.136 154.5-41.52 0 0 4.9 10.493 4.9 15.649 0 0-20.2 23.881-71.9 22.072-25-.814-95 29.218-95 29.218zm-137.3-64.949c-2.5 1.99 2.2 10.583 5.2 16.192 4.9 9.226 6.3 13.026 7 18.091 1 7.87-3 11.126-2.5 11.307.5.181 7.9-6.965 7.3-15.92-.6-8.503-1-12.212 1.4-15.921 2.2-3.527.4-8.955 9.8-8.141 0 0-7.3-1.357-13.1-2.713-6.9-1.719-15.1-2.895-15.1-2.895z" fill="#87C8E1"/><g opacity=".44"><path opacity=".44" d="M949.8 542.81h-552c14.1 2.714 29.1 5.066 36.7 13.116 3.4 3.619 14.9 26.233 17.1 29.851 3.5 5.88 12.2-8.593 15.8-10.764 5.3-3.076 23.5-15.468 30.2-17.187 3.2-.814 6.6-1.538 9.1-3.076 2-1.266 3.2-2.804 4.8-4.251 4-3.347 11.3-3.437 17.6-3.347 7.7.181 22.3 16.101 25.1 11.759 2.5-3.889 21.5-13.387 33-15.377 6.1-.905 14.4-.633 20.5.181 11.9 1.537 41.1 1.809 52.6 4.161 11.6 2.351 16.9 4.251 35.8 3.437 5.5-.271 19 2.985 23.2 1.9 13.8-3.619 18.3 6.241 30 4.07 38.5-7.146 33.7.181 45.7 2.171 5.6.905 9.2 7.689 10.9 8.232 4.7 1.537 7.6-4.975 12.9-5.428 11.3-.995 22.2-3.347 33.6-3.98 11.8-.633 52.2-1.628 57-3.347 11-3.799 40.9-10.493 40.4-12.121z" fill="url(#paint13_linear)"/><path opacity=".44" d="M949.8 542.81h-552c14.1 2.714 29.1 5.066 36.7 13.116 3.4 3.619 14.9 26.233 17.1 29.851 3.5 5.88 12.2-8.593 15.8-10.764 5.3-3.076 23.5-15.468 30.2-17.187 3.2-.814 6.6-1.538 9.1-3.076 2-1.266 3.2-2.804 4.8-4.251 4-3.347 11.3-3.437 17.6-3.347 7.7.181 22.3 16.101 25.1 11.759 2.5-3.889 21.5-13.387 33-15.377 6.1-.905 14.4-.633 20.5.181 11.9 1.537 41.1 1.809 52.6 4.161 11.6 2.351 16.9 4.251 35.8 3.437 5.5-.271 19 2.985 23.2 1.9 13.8-3.619 18.3 6.241 30 4.07 38.5-7.146 33.7.181 45.7 2.171 5.6.905 9.2 7.689 10.9 8.232 4.7 1.537 7.6-4.975 12.9-5.428 11.3-.995 22.2-3.347 33.6-3.98 11.8-.633 52.2-1.628 57-3.347 11-3.799 40.9-10.493 40.4-12.121z" fill="url(#paint14_linear)"/><path opacity=".44" d="M295.6 542.81c3 .543 5.6 2.714 6.3 4.342 1 2.352 1.8 4.794 2.4 7.237.6 2.261.6 4.522 1.8 6.693.5.995 1.3 1.719 2.2 2.624 1.1 1.085 1.7 2.171 1.5 3.437-.1.271-.2.633.2.543 1-.091 3-1.267 3.8-2.171 1.2-1.267 2.3-2.533 3.2-3.799.8-1.176 1.5-2.352 2-3.619.4-1.266.6-2.533 1.3-3.799 1.1-2.08 3.4-3.799 6.2-5.246 6.1-3.166 14-3.257 20.4-6.242h-51.3z" fill="url(#paint15_linear)"/><path opacity=".44" d="M295.6 542.81c3 .543 5.6 2.714 6.3 4.342 1 2.352 1.8 4.794 2.4 7.237.6 2.261.6 4.522 1.8 6.693.5.995 1.3 1.719 2.2 2.624 1.1 1.085 1.7 2.171 1.5 3.437-.1.271-.2.633.2.543 1-.091 3-1.267 3.8-2.171 1.2-1.267 2.3-2.533 3.2-3.799.8-1.176 1.5-2.352 2-3.619.4-1.266.6-2.533 1.3-3.799 1.1-2.08 3.4-3.799 6.2-5.246 6.1-3.166 14-3.257 20.4-6.242h-51.3z" fill="url(#paint16_linear)"/></g><path opacity=".05" d="M1321.4 533.039c-15.9-2.081-32-2.261-47.7-.542-33.6 3.709-32.5.452-48.8-.091-4.4-.181-8.8-.452-13.3-.542-4-.09-8.1.633-11.8 1.99-.5.181-.4.272 0 .362h.2c15.7-1.176 30.2 2.442 45.9 2.442s32.8-2.713 48.6-3.075c8.9-.181 17.4-.814 26.3-.362.6.09 1.1-.182.6-.182z" fill="#B5E0F1"/><path opacity=".12" d="M1196.7 549.685c-13.3-2.623-27.1-.271-40.4.814-7.1.543-14.2.814-21.3.543-7.2-.272-14.3-1.176-21.4-1.9-7.3-.723-14.8-.814-22 .543-.3.09-.2.271.1.271 7.1-.452 14.3-.271 21.3.453 6.6.723 13 2.08 19.6 2.713 6.6.634 13 .362 19.5-.452 6.9-.905 13.7-1.9 20.7-2.442 7.9-.543 15.9-.633 23.8-.272.6.091.6-.181.1-.271z" fill="#B5E0F1"/><path opacity=".08" d="M1497.4 547.694c-4.5-.633-9.1-.362-13.7 0-5.1.452-10.1.995-15.2.995s-10.1-.452-15.2-.995c-4.6-.543-9.2-1.085-13.8-1.085-4.4 0-8.7.542-12.6 1.809-.2 0-.7.362-.8.452-.3.271-.2.362.3.181.2-.091.4-.091.7-.181 8.8-1.809 18.1 0 26.9 1.085 4.5.543 9 .995 13.6.815 4.6-.181 9.2-.453 13.8-.905 2.6-.271 5.1-.543 7.6-.905 2.7-.452 5.5-1.175 8.3-1.085.6.181.7-.09.1-.181zm-389.2 51.108c-2.2 0-4.3-.543-6.3-.814-1.9-.272-3.9-.543-5.8-.724-3.5-.362-7.1-.633-10.6-.724-3.5-.18-7 .091-10.5.453-6.7.723-13.9 1.809-20.6.542-.2 0-.4-.09-.5-.09-.4-.09-.4-.09-.2.181.1.09.4.271.6.271 3 .905 6.3 1.357 9.7 1.357 3.6.091 7.1-.271 10.6-.543 3.9-.361 7.7-.633 11.6-.542 3.9.09 7.8.452 11.7.814 3.5.362 7 .542 10.5.181.3-.181.2-.362-.2-.362z" fill="#B5E0F1"/><path opacity=".1" d="M1216.8 619.336c-2-1.357-4.6-1.718-7.2-1.537-3.3.271-6.6.904-9.9.995-3.6.181-7.3 0-10.9-.453-3.2-.361-6.2-.723-9.5-.995-.1 0-5.9-.271-8.7.181-.8.091-.6.272.2.181 7.4-.362 11.2 1.9 23 2.895 3.5.271 6.9.633 10.4.181 4-.453 8.8-2.171 12.8-1.086.5.181.2-.09-.2-.362z" fill="#B5E0F1"/><path opacity=".08" d="M1033.2 570.488c-3.1 0-6.2-.814-9.2-1.266-2.8-.452-5.6-.814-8.5-1.085-5.1-.543-10.3-.905-15.4-1.176-5.201-.272-10.201 0-15.301.452-9.8.904-20.3 2.442-30.1.452-.3-.09-.5-.09-.8-.181-.5-.181-.6-.09-.3.181.1.091.6.362.9.452 4.3 1.357 9.2 1.99 14.1 2.081 5.2.09 10.4-.271 15.5-.724 5.6-.452 11.3-.723 17.001-.633 5.7.091 11.3.724 17 1.357 5.1.452 10.2.814 15.3.362.5-.091.4-.272-.2-.272z" fill="#B5E0F1"/><path opacity=".06" d="M1422.9 579.536c-17-1.266-34-1.628-51-.814-8.4.362-16.9 1.085-25.3 1.447-4.2.181-8.4.272-12.5-.09s-8.2-.995-12.3-1.628c-8.4-1.357-17.1-2.624-25.5-.362-.5.09-.1.271.1.271 8.2-.271 16.8 1.086 24.8 2.533 3.9.724 7.6 1.9 11.5 2.352 4.1.452 8-.362 12.1-.633 4.2-.272 8.4.181 12.6.271 4 0 8-.362 12-.905 8.4-.995 16.8-1.537 25.2-1.718 9.4-.181 18.8-.272 28.2-.272.7-.09.7-.361.1-.452z" fill="#B5E0F1"/><path d="M10 542.538h275.8c.4-2.533-29.4-12.664-40.3-18.453-4.8-2.624-45.1-4.161-57-5.066-11.4-.905-22.3-4.613-33.6-6.061-5.3-.723-8.2-10.674-12.9-8.231-1.6.814-5.3 11.036-10.9 12.483-11.9 2.985-7.2 14.202-45.7 3.347-11.8-3.347-16.3 11.669-30 6.151-4.2-1.719-17.7 3.257-23.2 2.895-10.5-.634-16.8-.091-22.3 1.176l.1 11.759zM1934 385.54c-19.74-1.544-38.37-.726-54.66 4.724 0 0-176.64 43.783-265.82-11.264 0 0-9.52 17.804-9.52 26.706 0 0 38.97 40.695 139.09 37.606 48.48-1.544 183.93 49.688 183.93 49.688 1.51 0 3.84-.182 6.98-.727V385.54z" fill="#87C8E1"/><path d="M1933.9 389.211c-35.69 7.856-72.99 18.241-110.3 32.238 0 0-110-9.12-156.63-41.449 0 0-5.38 15.622-11.36 38.198-.81 3.071-14.8-14.448-15.61-11.197V502h294l-.1-112.789z" fill="#B5E0F1"/><path d="M1187.9 490.002s-5-15.378-13.6-21.348c-8.7-5.97-19-4.794-20.7-2.985-1.7 1.809 10.4 6.513 9.5 10.04-.9 3.528-7.7 7.327-7.7 7.327l32.5 6.966zm-144.5 62.144c4.7-1.991 16.1-11.126 16.1-11.126l5.4.362s7.8 11.94 11.7 15.016c3.9 3.076 14.1 8.413 12.1 10.131-2 1.719-24.2 0-28.3-5.427-.4-.452-.7-.995-1-1.538-.4.452-.9.905-1.5 1.266-5.7 4.162-27.4.091-28.9-2.08-1.3-2.171 9.6-4.614 14.4-6.604z" fill="#27262C"/><path d="M1254.3 558.93c3.6-4.703.9-21.528-7.8-33.107-8.7-11.578-32.2-28.313-57.7-37.721-24.4-9.045-47.6-9.317-69.7-2.532-27.8 8.503-62 45.319-60.9 61.058 3.5 3.438 18.3-14.835 27.6-18.815 6.1-2.623 33.3-13.026 56.9.091 28.5 15.92 100.6 45.138 111.6 31.026z" fill="#27262C"/><path d="M1058.9 547.08c22.1-35.188 62.9-31.569 66.8-33.559 3.9-1.99-13.9-8.956-4.8-13.026 9.1-4.071 31.3 14.021 37.6 21.167 6.3 7.146 34.4 16.463 42.4 19.81 8 3.347 16.6 2.804 21.4 1.99 4.8-.724 12.8 4.342 19.8 11.307 4.5 4.523 9.1 4.975 11.6 4.794-12.7 12.574-83-16.011-111-31.569-23.6-13.117-50.8-2.714-56.9-.091-8.7 3.709-22.5 20.263-26.9 19.177zm141.8-29.307c3.9-1.719 12.8 5.608 16.8 7.689 3.9 2.17 7.6 5.789 2.2 6.693-5.4.995-28.3-10.221-19-14.382z" fill="#F2F2F0"/><path d="M1198.8 537.491s-7.7 18.092-28.1 19.81c-20.5 1.719-24.8-2.985-25.1-5.156-.2-2.171 11.3-.181 17.7-5.88 6.3-5.698 11-14.382 15.3-16.553l20.2 7.779z" fill="#27262C"/><path d="M1228.4 538.125c-.3.995.1 1.99.9 2.08.7.181 1.5-.543 1.7-1.628.3-.995-.1-1.99-.9-2.081-.6 0-1.4.634-1.7 1.629z" fill="#020203"/><path d="M1176.9 552.87c-.9 0-.9-1.266 0-1.357 1 .091.9 1.357 0 1.357zm-3.9 1.718c-.4.271-.7.452-1.1.723-.1.091-.3.091-.4.091-.1.09-.3 0-.4 0-.1 0-.2-.091-.3-.181l-.3-.271c-.2-.181-.2-.453-.1-.724 0 0 0-.091.1-.181a.75.75 0 01.4-.362c.4-.271.7-.452 1.1-.723.1-.091.3-.091.4-.091.1-.09.3 0 .4 0 .1 0 .2.091.3.181l.3.271c.2.181.2.453.1.724 0 0 0 .09-.1.181-.2.09-.3.271-.4.362zm-6.9 1.086c-.2 0-.5-.091-.8-.091-.1 0-.2-.09-.3-.181l-.3-.271c-.1-.09-.1-.271-.1-.362-.1-.09 0-.271 0-.362 0 0 0-.09.1-.18.1-.091.2-.272.4-.362.1 0 .1-.091.2-.091h.5c.2 0 .5.091.8.091.1 0 .2.09.3.181l.3.271c.1.09.1.271.1.362.1.09 0 .271 0 .362 0 0 0 .09-.1.181-.1.18-.2.271-.4.361-.1 0-.1.091-.2.091h-.5zm14.9-3.618c-.1-.09-.2-.09-.3-.181l-.3-.271c-.1-.091-.2-.181-.2-.271-.1-.091 0-.272 0-.362 0-.091 0-.181.1-.272 0-.09.1-.181.2-.181.1-.181.3-.181.4-.271h.3c.2 0 .3 0 .5.181.1.09.2.09.3.181l.3.271c.1.091.2.181.2.272.1.09 0 .271 0 .361 0 .091 0 .181-.1.272l-.2.181c-.1.09-.3.181-.4.271h-.3c-.3-.09-.4-.09-.5-.181zm-11.4.995c-.1.091-.3.091-.5.091h-.3c-.1 0-.1 0-.3-.091-.1 0-.2-.09-.2-.181-.1 0-.1-.181-.1-.271v-.181c0-.091 0-.181.1-.362l.1-.09c.1-.091.2-.181.3-.181.1-.091.3-.091.5-.091h.3c.1 0 .1 0 .3.091.1 0 .2.09.2.181.1 0 .1.18.1.271v.181c0 .09 0 .181-.1.362 0 .09-.1.09-.1.181-.1 0-.2 0-.3.09zm-8.1 3.346c-.2 0-.5-.091-.8-.091-.1 0-.2-.09-.2-.09s-.2-.091-.2-.181c0 0-.1-.181-.1-.272v-.271c.1-.181.2-.362.3-.362 0 0 .1-.09.2-.09.1-.091.3 0 .4 0 .2 0 .5.09.8.09.1 0 .2.091.2.091s.2.09.2.181c0 0 .1.18.1.271v.271c-.1.181-.2.362-.3.362 0 .091-.1.091-.2.091-.1.09-.3 0-.4 0zm73.6-35.91c-.4-.543-.8-1.267-1.3-1.809-.2-.181-.2-.453-.1-.724 0-.181.2-.452.4-.543.5-.271 1.1-.09 1.3.362.4.543.8 1.266 1.3 1.809.2.181.2.452.1.724 0 .181-.2.452-.4.543-.4.18-.9.09-1.3-.362zm-5.5-6.061c-.4-.181-.9-.362-1.2-.543l-.3-.271c-.1-.091-.2-.181-.2-.272-.1-.09 0-.271 0-.362 0-.09 0-.18.1-.271a1 1 0 01.6-.452h.3c.2 0 .3 0 .5.181.4.181.9.362 1.2.542l.3.272c.1.09.2.181.2.271.1.091 0 .272 0 .362 0 .091 0 .181-.1.272-.1.18-.3.361-.6.452h-.3a.81.81 0 01-.5-.181zm-.4 4.07c-.3-.181-.5-.272-.8-.453l-.3-.271c-.1-.09-.2-.181-.2-.271-.1-.091 0-.272 0-.362 0-.091 0-.181.1-.272 0 0 .1-.18.2-.18.1-.181.3-.181.4-.272h.3c.2 0 .3 0 .5.181.3.181.5.271.8.452l.3.272c.1.09.2.181.2.271.1.091 0 .271 0 .362 0 .09 0 .181-.1.271 0 0-.1.181-.2.181-.1.181-.3.181-.4.272h-.3a.805.805 0 00-.5-.181zm-5.5-7.145c-.2-.272-.4-.453-.6-.814-.2-.272-.2-.543-.3-.905-.1-.09 0-.271 0-.362 0-.09 0-.181.1-.271l.3-.272c.1-.09.2-.18.3-.18.2-.091.6-.001.8.09.2.09.4.362.5.543.1.181.1.362.2.542 0-.09-.1-.09-.1-.18.1.271.3.452.4.633-.1 0-.1-.091-.2-.181h.1c.1.09.2.181.2.271.1.091.1.181.1.362s-.1.452-.3.633c-.2.181-.5.272-.7.272h-.2c-.3 0-.5-.091-.6-.181zm16.7 11.577c-.3-.181-.5-.272-.8-.453l-.3-.271c-.1-.091-.2-.181-.2-.272-.1-.09 0-.271 0-.361 0-.091 0-.181.1-.272 0 0 .1-.181.2-.181.1-.09.3-.181.4-.271h.3c.2 0 .3 0 .5.181.3.181.5.271.8.452l.3.272c.1.09.2.18.2.271.1.09 0 .271 0 .362 0 .09 0 .181-.1.271l-.2.181c-.1.181-.3.181-.4.271h-.3c-.2 0-.4 0-.5-.18zm-16.2-6.965l-.6-.271c-.1 0-.2-.091-.2-.181-.1 0-.1-.181-.1-.272v-.271c0-.09 0-.09.1-.271l.1-.091c.1-.09.2-.181.3-.181h.2c.1 0 .2 0 .4.091l.6.271s.2.091.2.181c0 0 .1.181.1.271v.272c0 .09 0 .09-.1.271l-.1.091c-.1.09-.2.18-.3.18h-.2c-.1-.09-.3-.09-.4-.09zm-5.3-4.794c-.1-.181-.2-.452-.3-.543-.1 0-.1-.181-.1-.271v-.271c0-.091.1-.181.1-.181 0-.091.1-.181.2-.181 0-.091.1-.091.2-.091.1-.09.3 0 .4 0 .1 0 .1 0 .2.091l.3.271c.1.181.2.452.3.543 0 0 .1.181.1.271v.272c0 .09-.1.181-.1.181 0 .09-.1.18-.2.18 0 .091-.1.091-.2.091-.1.09-.3 0-.4 0-.1 0-.1 0-.2-.091l-.3-.271zm.4-5.519c-.1-.09-.1-.181-.2-.271 0 0-.1-.181-.1-.271v-.272c.1-.09.1-.181.2-.271 0-.09.1-.181.2-.181s.1-.09.2-.09c.1-.091.3 0 .4 0 .1 0 .1 0 .2.09l.3.271c.1.091.1.181.2.272 0 0 .1.181.1.271v.271c0 .091-.1.181-.1.181 0 .091-.1.181-.2.181 0 .091-.1.091-.2.091-.1.09-.3 0-.4 0 0 0-.1 0-.2-.091-.3 0-.4-.09-.4-.181zm-2 .996h-.7c-.1 0-.2-.091-.2-.091h-.1l-.2-.181c-.2-.09-.2-.271-.3-.452v-.271c-.1 0-.1-.091 0-.181 0-.09.1-.181.2-.181s.2-.09.3-.09h.2c.1 0 .2 0 .4.09l.1.091c.1.09.2.181.2.271 0 0-.1-.091-.1-.181.1 0 .1 0 .1.09-.1 0-.1-.09-.1-.18l.1.09c-.1 0-.1-.09-.2-.09.1 0 .1 0 .1.09 0 0-.1 0-.2-.09h.1-.2.1-.2.4c.1 0 .1 0 .3.09l.2.181s.1.181.1.271v.181c0 .091 0 .181-.1.362 0 .09-.1.09-.1.181 0-.091-.1 0-.2 0zm-3.9-3.889l-.9-.543a.492.492 0 01-.3-.452v-.271c0-.091 0-.091.1-.272.1-.181.3-.271.4-.271.2 0 .4 0 .6.09l.9.543c.2.091.3.272.3.452v.272c0 .09 0 .09-.1.271-.1.181-.3.271-.4.271-.2 0-.4 0-.6-.09zm-3.5 1.266c-.1 0-.3-.09-.5-.181-.1 0-.2-.09-.3-.181l-.3-.271c-.1-.09-.1-.271-.1-.362-.1-.09 0-.271 0-.362 0-.09 0-.09.1-.181.1-.18.2-.271.4-.361.1 0 .1-.091.2-.091h.5c.1 0 .3.091.5.181.1 0 .2.091.3.181l.3.271c.1.091.1.272.1.362.1.091 0 .272 0 .362 0 .09 0 .09-.1.181a.75.75 0 01-.4.362c-.1 0-.1.09-.2.09s-.3.091-.5 0zm-2.8-3.799s-.1-.091-.2-.091c.1 0 .2 0 .2.091h-.2.2c0 .09-.1.09-.2.09.1-.09.2-.09.2-.09.1-.091 0 0 0 0h-.4c-.1 0-.2 0-.3-.091l-.3-.271c-.1-.09-.2-.181-.2-.271v-.272c0-.181 0-.271.2-.452 0-.09.1-.181.2-.181.1-.181.3-.181.4-.271h.1c.1 0 .2-.091.4 0 .2 0 .3 0 .5.09.1 0 .1 0 .2.091.1 0 .2.09.3.09l.1.091.3.271c.1.09.2.181.2.271.1.091 0 .272 0 .362 0 .091 0 .181-.1.271 0 .091-.1.181-.2.181-.1.181-.3.181-.4.272h-.3c-.4-.091-.6-.091-.7-.181z" fill="#42404B"/><path opacity=".44" d="M240.799 542.81v17.73c63.2 8.322 141.5 23.157 157.2 23.338 14.4.181 19.5-1.357 37.1-.272 17.2 1.086 21.9 4.161 42.4 7.056 17 2.442 22.3 1.266 37.7 3.618 27.8 4.342 60.8 16.011 63.5 14.654 11.1-5.246 46-15.83 50-22.162 7.6-11.759-1.1-21.257-1.1-21.257 12.9-3.166 35.8 3.889 98.1 6.422 23.2.905 51.1-.271 71.9.453 55.6 1.809 58.6 4.342 74.6 3.075 24.6-1.99 38.2-7.146 63.9-16.915 22.7-8.594 34-12.936 32.8-15.65l-728.1-.09z" fill="url(#paint17_linear)"/><path d="M1295.1 710.006c-.9-.542-1.7-1.085-2.6-1.628 1.7.543 3.3.09 4.4-.905.7.543 1.1 1.086 1.3 1.629-.4.723-1.6.904-3.1.904z" fill="#fff"/><path d="M1066.6 708.99l2.8 7.87 1.4 2.442 7 .995 15.2.452 4.5.995 3.5-5.337.2-2.08-8.9-1.267-9.4.181-7.7.181-4.1-7.146-4.5 2.714z" fill="#ED6944"/><path d="M1069.7 712.065l1.6 5.337 4.4 2.262.5.361-5.3-.814-1.4-2.442-2.8-7.87 2.2-1.357.8 4.523z" fill="#DC4D29"/><path d="M1085.5 717.674l7.5 1.899 2.4 1.81-2.4-.543-11.3-.272c-3.8-1.357-7.9-2.894-8.4-3.618l1.2-.814h3.5l7.5 1.538zm12.7-2.443l2.8.724-.1.452-2.5 3.981-4.1-2.171-12.1-2.624-3.2-.995 4.8-.362 14.4.995z" fill="#E84325"/><path d="M1078.7 719.845l-1-.18-.8.452 1.8.814 1.2.814-1.2-1.9zm18.5.362l-1.2.272-.2.452 1.4 1.266 1.9.724-.1-1.176-1.8-1.538zm2.9-5.609l-.2.633.6.452 1.8-.18 1.3.271-.3-.814-3.2-.362z" fill="#020203"/><path d="M1100.3 623.87l5.4 1.267 6 3.889 4.1 4.794 1.4 5.247.2 3.075-1.4-.814-3.7.272-5.7.542-7.5-1.356v-2.533l1.2-14.383z" fill="#E84325"/><path d="M1100.3 623.87l2.1.452c2.1 1.81 5.8 4.975 5.8 4.975l1 4.252-.3 3.166-.4 2.261s-1.5.995-1.8 1.176c-.2.091-2.5.633-4.5 1.267l-2.8-.453-.1-2.623 1-14.473z" fill="#EB7A2E"/><path d="M1101.3 624.051l5.4 5.789.7 3.981-.5 3.166s-1.4 1.537-1.8 1.809c-.4.181-3.6.814-3.6.814h-2.3v-1.267l1.2-14.473.9.181z" fill="#EB7A2E"/><path d="M1109.8 631.015l.8 3.076v2.623s-.4 1.628-.7 1.99c-.2.271-2.7 2.352-2.7 2.352l2.2-.814 1.8-1.81s.7-2.532.7-2.894c0-.181-2.1-4.523-2.1-4.523z" fill="#CF301C"/><path d="M1112.3 634.001l.7 2.352.1 1.809-.8 1.357-1.6 1.176-1.3.272 2.3-.362 1.5-1.357s.7-1.628.7-1.99c0-.272-.4-2.081-.4-2.081l-1.2-1.176z" fill="#CF301C"/><path d="M1099.4 635.268l.1-1.538 2.6 1.447 2 1.177s2.2.904 2.5.904c.3 0 2.2.181 2.5.271.3.091 2.5.815 2.5.815l2.6 1.175 1.4 1.809h-.4c-.6-.542-1.3-1.357-1.3-1.357l-2.9-1.265-3.8-.633-2.8-.724-5-2.081z" fill="#F28C46"/><path d="M1099.2 642.142l2.9-6.422.2-6.242-1.2-5.789-.1-.091c-1.6-1.899-3.7-3.527-6.2-4.432-3.9-1.628-8.1-2.533-12.3-2.804-4.9 1.719-9 4.885-11.6 9.046v.09c-2 3.076-3.5 6.513-4.2 10.131l-.4 6.423-2.7 3.075c-2 2.171-3.6 4.614-4.8 7.237l-.9 1.9-7.9 6.241c-4.9 3.98-9.2 8.503-12.8 13.569l-1.2 1.899-14.3 9.227c.4.814 7.2-.543 9.6-.995.5-.09.8-.181.8-.181l-7.5 5.789a51.37 51.37 0 00-7.4 6.966l-.9 1.176c-.6.723-1.3 1.628-1.9 2.442l-1.4 1.899-8.7 7.056 2.9 4.704 4.1 2.623 2.1-1.176c6.8-3.799 14.2-6.603 22-8.322l6.2.814 3.7 1.629 3.7 4.342 5.2 2.623 5.2-2.262 2.5-2.442 7.7-3.347 1.8-.633c4.9-1.809 9.5-3.98 13.9-6.513l10.3-5.97c1.3-.724 2.4-1.628 3.5-2.533l7.9-6.784c1.6-1.448 2.9-3.076 4-4.885.9-1.719 1.6-3.618 2-5.518l.6-3.799c.3-1.628.3-3.076.2-4.704-.2-1.9-.4-4.252-.4-4.613 0-.362-1.5-2.985-2.6-5.156-1-1.991-2.6-3.8-4.4-5.247l-1.7-1.447-2.9-1.448-2.6-7.146z" fill="#FFFEFA"/><path d="M1058.5 712.247l3.2-7.689.4-1.356c1.4-3.89 3.7-7.327 6.8-10.312l2.1-1.991.9.181c3.2.724 6.7.815 10.1.272l15.2-2.895c1.6-.271 3.1-.814 4.6-1.628l1-.543c2.3-1.266 4.4-2.714 6.3-4.432l3.1-2.804c-1.8 3.166-3.8 6.603-6.6 9.136l-4.4 3.98c-.5.452-1.3.995-2 1.628-2.8 2.171-5.9 3.98-9 5.608l-8.2 4.161c-2 1.176-4.1 2.171-6.4 2.895l-5.9 2.081-7.7 3.347-2.5 2.442-5.2 2.261-2.3-1.176 6.5-3.166z" fill="#8C8B83"/><path d="M1004.4 709.352l8.7-7.146 1.4-1.9c.6-.814 1.3-1.628 1.9-2.442l.9-1.176c2.2-2.533 4.7-4.885 7.4-6.965l7.5-5.789s-.3.09-.8.18c-2.4.453-9.3 1.9-9.6.995l14.5-9.498 1.2-1.899c3.5-5.066 7.7-9.589 12.8-13.569l7.9-6.241.9-1.9c1.3-2.623 2.8-4.975 4.8-7.237l2.7-3.075.4-6.423c.7-3.618 2.2-6.965 4.2-10.131v-.09c2.6-4.161 6.7-7.237 11.6-9.046 4.2.271 8.4 1.266 12.3 2.804 2.5.995 4.6 2.533 6.2 4.523l.1.09 1.2 5.79-.2 6.241-2.9 6.423 2.5 6.965.3.09-2.7.453-3.2 4.342-5.2 4.161-6.6 2.08-6.5.724-2.7.181c-1 2.261-1.5 4.794-1.3 7.236.2 2.533-.1 5.066-1 7.508l-1.9 4.976c-1.7 3.889-3.9 7.417-6.6 10.764l-1.9 2.261-4.4 4.161-6.5 6.152-.2.271c-1.7 2.533-2.9 5.247-3.7 8.141l-2.3-2.623-3.7-1.628-6.2-.814c-7.7 1.809-15.2 4.613-22 8.322l-2.1 1.176-4.1-2.624-3.1-4.794z" fill="#020203"/><path d="M1086.5 622.785l6.7-1.357c1.2-.18 2.3-.09 3.4.362 1.3.543 2.3 1.628 2.6 2.895l1.7 5.246 1.2 5.247v.543l-2.9 6.332-2.3.904-6.2.814-2.7-.814a29.305 29.305 0 01-11.2-6.513l-2.2-2.352-1-2.352c-.7-1.718.2-3.618 2-4.251l3.6-1.447 7.3-3.257z" fill="#FFFEFA"/><path d="M1073.7 632.735l9.6 3.89 6.9 1.447 6.6.452-3.1 4.795-3 .361-3.1-.904c-4-1.267-7.5-3.347-10.5-6.061l-2.6-2.352-.8-1.628zm5.3-6.422l7.5-3.528 2-.362 3.4 1.357-.5 5.699-3.2-.905-4.7-.724-7-.361 2.5-1.176z" fill="#8C8B83"/><path d="M1086 642.324l6.4-.634 3.4-3.527 2.2-4.161 2.6-1.991 1.3.634.5 2.261v.543l-3 6.603-1.3.633c-.8.272-1.7.543-2.5.634l-2.2.271c-2 .271-4 0-5.8-.724l-1.6-.542z" fill="#615A58"/><path d="M1096.4 637.167l1.7-2.985 2.6-1.99 1.2.634.5 2.261v.543l-.8 1.899-3.1.543-2.1-.905z" fill="#E05F1E"/><path d="M1091.3 629.388l-3.2-.905-4.7-.723-7-.362 1.3-.453 8.9.543 2.3-1.266 1.9-2.081.9 1.176-.4 4.071z" fill="#615A58"/><path d="M1088.8 626.222l1.3-1.448 1.9 1.719.1 1.628s-.3.724-.9.633c-.3-.09-2.4-.995-3.9-1.809l1.5-.723z" fill="#E05F1E"/><path d="M1088.8 626.222l1.3-1.448 1.9 1.629-.3 1.357-1.2.09-1.8-.814-.5-.452.6-.362z" fill="#020203"/><path d="M1059.6 713.604l5.2 6.331 3.1 1.539 8.6.18 9.6.182 2.7 3.165 1.7 3.077-3.8 1.537-8.7 1.718-3.7.452-9.7-3.98-2.4-3.528-.7-2.079-7.2-6.424 5.3-2.17z" fill="#ED6944"/><path d="M1055.7 715.322l4.2 3.075 4 3.981.8 3.708 1.8 2.443-1.8-.634-2.4-3.527-.7-2.081-7.2-6.422 1.3-.543z" fill="#DC4D29"/><path d="M1067.8 725.182l5.7 1.266 6.4 2.171 7 .995-8.7 1.719-.5.09-9.8-4.884-.1-1.357zm4.2-1.538l5.3-.181 6.4-.271 3.6-.181 1.8 2.08 1.7 3.076-1 .452-3.7-.724-6-1.718c-.3-.091-7.8-1.809-8.1-2.533z" fill="#E84325"/><path d="M1075.5 731.243c-.1-.181-.7-.272-.7-.272l-.4.453.1.633 2 .452 1.4.452-2.4-1.718zm12-2.623l-.8.362v.452l1.7.362 1.6.271.3.181-.6-.995-2.2-.633zm-1.7-6.604l-.1.452.4.362 1.3-.09 1.3.181-.6-.724-2.3-.181z" fill="#020203"/><path d="M887.2 631.096c-.8-1.176-1.9-2.081-3.3-2.714-.6-.271-1.2-.452-1.8-.633-.2-.091-.4-.091-.7-.181-.1 0-.1-.091-.2-.091-.2-.09-.3-.181-.5-.271h-.1l-.1-.091-.1-.09c-.2-.271-.1-.271 0-.09-.1-.181-.2-.362-.3-.453v-.09c-.1-.091-.1-.272-.2-.452-.1-.362-.3-.724-.4-1.086-.3-.814-.5-1.538-.8-2.352-.8-2.894-1.6-5.88-2.4-8.774-.8-3.076-1.6-6.151-2.3-9.317-.4-1.719-.9-3.438-1.3-5.156l-.6-2.443c-.2-.904-.6-1.718-1-2.533-.3-.723-.7-1.356-1.5-1.718-.7-.362-1.7-.543-2.5-.272-1.8.543-2.6 1.99-2.3 3.619.3 1.357.6 2.804 1 4.161 0-.091-.1-.091-.1-.181-.4-.724-1.6-1.176-2.5-.905-1 .272-1.5.995-1.7 1.99-.2 1.629.3 3.257.8 4.885.5 1.538 1 2.985 1.6 4.432 1.2 2.895 2.5 5.699 3.6 8.594.5 1.357 1 2.804 1.4 4.161.4 1.357.7 2.714 1 4.07.8 2.805 1.9 6.061 4.9 7.509 2.9 1.447 6.3.904 9.5.814 2.4-.091 4.2-2.443 2.9-4.342zm-9.3-1.448c-.1 0-.1 0 0 0-.1-.09-.1-.09 0 0l-.2-.181.2.181z" fill="#94ADAF"/><path d="M880.5 627.115c0-.09-.1-.181-.1-.181.1 0 .1.091.1.181zm-95.9-24.242c-1.2-.543-2.8-.543-3.7.452-.1.091-.3.272-.4.453-.4-.543-.9-.995-1.3-1.357-.6-.543-1.3-1.086-2-1.538 0-.09 0-.181-.1-.271-.7-2.171-3.6-2.985-5.8-3.166-1.7-.181-3.2.361-4.5 1.356-.9.272-1.7.815-2.5 1.538-.8.814-1.5 2.171-1 3.347.4.814.8 1.447 1.4 2.081-.5.361-.9.814-1.3 1.357-.4.452-.5 1.085-.6 1.718 0 .091-.1.091-.1.181-.9 0-1.8.452-2.1 1.447-.1.453-.3.905-.3 1.357-.9-1.537-3.2-2.171-4.7-1.085-2 1.447-1.2 3.618-.7 5.518.3 1.176.7 2.442 1 3.618.7 2.442 1.4 4.885 2 7.327.5 1.9.8 3.89 1.2 5.789.2.814.5 1.628 1 2.352.8 1.176 2 1.809 3.4 2.262 3 .995 6.2.814 9.2.271 2.4-.362 2.3-3.89 0-4.252-1.2-.18-2.4-.361-3.7-.452-.1 0-.2 0-.3-.09v-.181c0-1.086-.3-2.171-.6-3.166-.2-.905-.5-1.809-.7-2.804-.4-1.9-.7-3.8-1-5.79 0-.09 0-.271-.1-.361.1-.181.3-.362.4-.543.1-.091.1-.181.2-.272l.3-.271c.1-.09.3-.271.5-.362l.1-.09s.1 0 .1-.091c.4-.181.7-.452 1.1-.633.2-.09.3-.181.5-.271.1 0 .3-.091.4-.181.1 0 .3-.091.3-.091.2-.09.4-.181.6-.181.4-.18.9-.271 1.3-.361 1.8-.453 3.4-1.267 4.9-2.171.8-.453 1.5-.995 2.2-1.538.1 0 .1-.091.1-.091.4-.18.7-.452 1-.814l1.5-1.357c.9-.814 1.7-1.718 2.4-2.623.7-.904 1.3-1.809 1.5-2.894.6-1.086.2-2.443-1.1-3.076zm62.9-54.363c-.4.18-.4.271-.2.18l.2-.18zm-31.199 58.614h-.3c-.3 0-.6.091-.9.091.4 0 .8-.091 1.2-.091zM872.7 535.03c0 .09 0 .09 0 0 .1.09.1.09 0 0 .1.09.1.09 0 0z" fill="#94ADAF"/><path d="M901 554.841c-.2-3.528-.5-6.966-.9-10.494-.4-3.708-.8-7.417-2.1-10.945-.4-.995-.8-1.99-1.3-2.985-.6-1.085-2.4-2.08-3.8-1.99-1.4.181-2.8.452-4 1.176-1 .633-1.8 1.266-2.6 2.08-1 .995-1.9 2.171-3 3.166l-.1.091c-.3.09-.5.09-.8.181-1.6.09-3.2 0-4.9 0-1.5 0-3.1.181-4.6.09h-.3s-.1 0-.1-.09h.1c-.1-.181-.2-.272 0 0l-.9-1.357c-1-1.719-2.2-3.799-4.4-4.342-3.9-.905-6.2 2.895-7.9 5.427-1.3 1.991-2.4 4.162-4 6.061 0 0 0 .091-.1.091-.2.181-.4.452-.6.633-.4.452-.8.904-1.2 1.266-.8.905-1.7 1.719-2.5 2.533-.8.814-1.7 1.538-2.6 2.261-.4.272-.8.543-1.1.905l-.1.091-.1.09c-.2.09-.3.181-.5.271l-.6.272c-.1 0-.1.09-.2.09-.4.091-.8.272-1.3.452-.5.181-1 .272-1.4.453-3.4.181-6.5 1.357-9.6 2.442-1.5.543-3.1.995-4.6 1.176-2.4.271-4.7.362-7.1.543-2.8.181-5.6.362-8.5.543-5.6.361-11.3.633-16.9.542-4.8-.09-9.6-.181-14.4.091-.1 0-.3 0-.4-.091-3.9-.542-8-.904-11.8.181-1.4.091-3 .724-4.2 1.357-1 .543-2 1.266-2.9 2.081-.8.723-1.4 1.537-2 2.351-.7.724-1.2 1.538-1.7 2.443-.9 1.628-1.7 3.347-1.9 5.156-.2 1.176-.4 2.261-.3 3.437v.091c-.2 1.266-.4 2.533-.7 3.708-.3 1.81-.7 3.619-1.4 5.338-.4.814-.9 1.537-1.5 2.351-1.4 1.538-3 2.805-4.6 3.981-4.1 2.894-8.4 5.517-12.6 8.322-5 3.347-10.3 6.965-13.8 11.759-1.6 2.171-2.8 4.523-4.5 6.694-1.5 1.628-3.5 2.895-5.2 4.432-2.4 2.081-4.5 4.795-4.5 7.961 0 1.266.8 2.985 2.2 3.527 1.4.543 2.5.905 4.1.905 1.1 0 2.2-.181 3.2-.452 1.5-.453 2.9-1.086 4.4-1.719 1.3-.452 2.5-.724 3.9-.905 2.7-.271 5.4-.271 8.1-.452 3-.181 6.1-.543 9.1-1.176 5.4-1.085 10.6-3.256 15-6.332 4.3-2.985 7.9-6.603 10.1-11.126 1.1-2.171 1.9-4.342 2.5-6.694.3-1.357.6-2.714.9-4.161l.1.091c.2.18.3.452.4.633.3.452.6.904.8 1.357.5.904 1 1.899 1.5 2.804 1.8 3.437 4.2 6.603 7 9.407l.3.272c-.4.271-.8.542-1.2.904-1.1.814-2.1 1.809-2.8 2.985-.4.634-.8 1.357-1 2.081-.3 1.176-.2 2.08 0 3.256.1 1.538 1.1 2.895 2.2 4.071 1.1 1.085 2.4 1.9 3.6 2.714.4.271.8.542 1.1.904.9.724 1.7 1.538 2.5 2.352 1.5 1.628 2.9 3.257 4.7 4.704 1.3 1.085 2.7 1.628 4.4 2.08 1.7.453 3.4.724 5.2.905 1.5.181 3.3.181 4.7-.362 1.4-.452 2.5-1.176 3.2-2.352 1-1.628.8-3.799-.8-5.156-1.7-1.447-4-1.538-6.2-1.718h-.2c-.1-.091-.2-.091-.3-.181-.1-.091-.2-.091-.3-.181-.5-.453-1.1-.905-1.6-1.357-.5-.543-.9-.995-1.4-1.538-.1-.09-.1-.181-.2-.271-.4-.453-.8-.905-1.1-1.357-.8-.905-1.6-1.719-2.3-2.533-.1-.09-.1-.181-.2-.181-.1-.09-.2-.271-.3-.362.2 0 .4 0 .6.091 1.1.09 2.1.181 3.1.181 2.9-.091 5.6-.905 7.8-2.624 4.1-3.347 4.4-8.593 5.4-13.206h.2c.7.452 1.5.723 2.4.633 1.1-.091 2.1-.181 3.2-.272 4.4-.542 8.6-1.537 13-2.171 3.5-.361 7-.452 10.4-.18.9.271 1.8.633 2.7.814.3.09.6.09.9.181.5.814 1 1.718 1.4 2.623l.3.543s.1.09.1.18c0 0 0 .091.1.091.1.181.2.452.3.633.3.633.6 1.357.9 1.99.9 2.081 1.7 4.252 2.2 6.423.7 2.894 1.2 5.789 2.4 8.503.1.181.2.362.3.633.1.995.3 1.9.6 2.895 1 3.075 3.1 6.332 6.9 6.965 2.5.452 5.1-.091 7.3-1.448 1.4-.814 2.1-2.08 1.9-3.618-.2-1.357-1.3-2.714-2.9-2.985-.1 0-.3-.09-.4-.09.3.09.1.09-.2 0l-.1-.091c-.1 0-.2-.09-.3-.09.1 0 .1 0 .2.09-.1-.09-.2-.09-.4-.181l-.6-.543-.3-.271c0-.09-.1-.09-.1-.09 0 .09.1.09.1.09-.2-.271-.4-.452-.5-.724-.1-.18-.3-.452-.4-.723 0-.091-.1-.091-.1-.181-.2-.452-.4-.905-.6-1.447-.4-1.086-.7-2.171-1-3.257-.5-1.99-.9-4.07-1.4-6.061l-.9-3.256c-.5-1.719-.9-3.437-1.1-5.156v-.362c0-.181 0-.271-.1-.452 2.5-.181 5.1-.543 7.5-1.086 3.9-.814 7.6-2.08 10.9-4.07 3.3-1.99 6.2-4.523 9-7.056 2.5-2.352 5.2-4.613 7.5-7.146 2.8-2.985 5.1-6.151 6.6-9.86 1.5-3.618 2.1-7.508 2.5-11.307.6-3.98.6-7.599.4-11.307zm-145.2 59.792c.1-.09.2-.271.4-.362.1-.181.3-.271.4-.452-.3.271-.6.543-.8.814zm26.6 14.473c.4.272.8.633 0 0zm5.6-20.262l-.6-.543h1.3c-.2.271-.5.362-.7.543zm58.4-31.389c0 .09-.1.09 0 0-.1-.181 0-.543 0-.814v.814zm21.6-41.882l.2-.181.2-.181-.4.362z" fill="#94ADAF"/><path d="M846.1 548.51c-.4.18-.4.271-.2.18 0-.09.1-.18.2-.18zm-31.299 58.614h-.3c-.3 0-.6.091-.9.091.4 0 .8-.091 1.2-.091z" fill="#FFFBF2"/><path d="M899.6 554.841c-.2-3.528-.5-6.966-.9-10.494-.4-3.708-.8-7.417-2.1-10.945-.4-.995-.8-1.99-1.3-2.985-.6-1.085-2.4-2.08-3.8-1.99-1.4.181-2.8.452-4 1.176-1 .633-1.8 1.266-2.6 2.08-1 .995-1.9 2.171-3 3.166l-.1.091c-.3.09-.5.09-.8.181-1.6.09-3.2 0-4.9 0-1.5 0-3.1.181-4.6.09h-.3s-.1 0-.1-.09h.1c-.1-.181-.2-.272 0 0l-.9-1.357c-1-1.719-2.2-3.799-4.4-4.342-3.9-.905-6.2 2.895-7.8 5.427-1.3 1.991-2.4 4.162-4 6.061 0 0 0 .091-.1.091-.2.181-.4.452-.6.633-.4.452-.8.904-1.2 1.266-.8.905-1.7 1.719-2.5 2.533-.8.814-1.7 1.538-2.6 2.261-.4.272-.8.543-1.1.905l-.1.091-.1.09c-.2.09-.3.181-.5.271l-.6.272c-.1 0-.1.09-.2.09-.4.091-.8.272-1.3.452-.5.181-1 .272-1.4.453-3.4.181-6.5 1.357-9.6 2.442-1.5.543-3.1.995-4.6 1.176-2.4.271-4.7.362-7.1.543-2.8.181-5.6.362-8.5.543-5.6.361-11.3.633-16.9.542-4.8-.09-9.6-.181-14.4.091-.1 0-.3 0-.4-.091-3.9-.542-8-.904-11.8.181-1.4.091-3 .724-4.2 1.357-1 .543-2 1.266-2.9 2.081-.8.723-1.4 1.537-2 2.351-.7.724-1.2 1.538-1.7 2.443-.9 1.628-1.7 3.347-1.9 5.156-.2 1.176-.4 2.261-.3 3.437v.091c-.2 1.266-.4 2.533-.7 3.708-.3 1.81-.7 3.619-1.4 5.338-.4.814-.9 1.537-1.5 2.351-1.4 1.538-3 2.805-4.6 3.981-4.1 2.894-8.4 5.517-12.6 8.322-5 3.347-10.3 6.965-13.8 11.759-1.6 2.171-2.8 4.523-4.5 6.694-1.5 1.628-3.5 2.895-5.2 4.432-2.4 2.081-4.5 4.795-4.5 7.961 0 1.266.8 2.985 2.2 3.527 1.4.543 2.5.905 4.1.905 1.1 0 2.2-.181 3.2-.452 1.5-.453 2.9-1.086 4.4-1.719 1.3-.452 2.5-.724 3.9-.905 2.7-.271 5.4-.271 8.1-.452 3-.181 6.1-.543 9.1-1.176 5.4-1.085 10.6-3.256 15-6.332 4.3-2.985 7.9-6.603 10.1-11.126 1.1-2.171 1.9-4.342 2.5-6.694.3-1.357.6-2.714.9-4.161l.1.091c.2.18.3.452.4.633.3.452.6.904.8 1.357.5.904 1 1.899 1.5 2.804 1.8 3.437 4.2 6.603 7 9.407l.3.272c-.4.271-.8.542-1.2.904-1.1.814-2.1 1.809-2.8 2.985-.4.634-.8 1.357-1 2.081-.3 1.176-.2 2.08 0 3.256.1 1.538 1.1 2.895 2.2 4.071 1.1 1.085 2.4 1.9 3.6 2.714.4.271.8.542 1.1.904.9.724 1.7 1.538 2.5 2.352 1.5 1.628 2.9 3.257 4.7 4.704 1.3 1.085 2.7 1.628 4.4 2.08 1.7.453 3.4.724 5.2.905 1.5.181 3.3.181 4.7-.362 1.4-.452 2.5-1.176 3.2-2.352 1-1.628.8-3.799-.8-5.156-1.7-1.447-4-1.538-6.2-1.718h-.2c-.1-.091-.2-.091-.3-.181-.1-.091-.2-.091-.3-.181-.5-.453-1.1-.905-1.6-1.357-.5-.543-.9-.995-1.4-1.538-.1-.09-.1-.181-.2-.271-.4-.453-.8-.905-1.1-1.357-.8-.905-1.6-1.719-2.3-2.533-.1-.09-.1-.181-.2-.181-.1-.09-.2-.271-.3-.362.2 0 .4 0 .6.091 1.1.09 2.1.181 3.1.181 2.9-.091 5.6-.905 7.8-2.624 4.1-3.347 4.4-8.593 5.4-13.206h.2c.7.452 1.5.723 2.4.633 1.1-.091 2.1-.181 3.2-.272 4.4-.542 8.6-1.537 13-2.171 3.5-.361 7-.452 10.4-.18.9.271 1.8.633 2.7.814.3.09.6.09.9.181.5.814 1 1.718 1.4 2.623l.3.543s.1.09.1.18c0 0 0 .091.1.091.1.181.2.452.3.633.3.633.6 1.357.9 1.99.9 2.081 1.7 4.252 2.2 6.423.7 2.894 1.2 5.789 2.4 8.503.1.181.2.362.3.633.1.995.3 1.9.6 2.895 1 3.075 3.1 6.332 6.9 6.965 2.5.452 5.1-.091 7.3-1.448 1.4-.814 2.1-2.08 1.9-3.618-.2-1.357-1.3-2.714-2.9-2.985-.1 0-.3-.09-.4-.09.3.09.1.09-.2 0l-.1-.091c-.1 0-.2-.09-.3-.09.1 0 .1 0 .2.09-.1-.09-.2-.09-.4-.181l-.6-.543-.3-.271c0-.09-.1-.09-.1-.09 0 .09.1.09.1.09-.2-.271-.3-.452-.5-.724-.1-.18-.3-.452-.4-.723 0-.091-.1-.091-.1-.181-.2-.452-.4-.905-.6-1.447-.4-1.086-.7-2.171-1-3.257-.5-1.99-.9-4.07-1.4-6.061l-.9-3.256c-.5-1.719-.9-3.437-1.1-5.156v-.362c0-.181 0-.271-.1-.452 2.5-.181 5.1-.543 7.5-1.086 3.9-.814 7.6-2.08 10.9-4.07 3.3-1.99 6.2-4.523 9-7.056 2.5-2.352 5.2-4.613 7.5-7.146 2.8-2.985 5.1-6.151 6.6-9.86 1.5-3.618 2.1-7.508 2.5-11.307.4-3.98.4-7.599.3-11.307zm-145.3 59.792c.1-.09.2-.271.4-.362.1-.181.3-.271.4-.452-.3.271-.5.543-.8.814zm26.6 14.473s.1 0 0 0c.4.272.8.633 0 0zm5.7-20.262l-.6-.543h1.3c-.3.271-.5.362-.7.543zm58.3-31.389c0 .09 0 .09 0 0-.1-.181 0-.543 0-.814v.814zm21.6-41.882l.2-.181.2-.181-.4.362z" fill="#FFFBF2"/><path d="M891 555.926c-2.9-2.081-13.5.452-18.4 1.99-1.8 6.241-1.1 12.121 8.7 12.754 9.8.634 10.8-1.628 12.3-3.618 1.4-1.899 1-8.503-2.6-11.126z" fill="#F6F3D6"/><path d="M861.6 628.291c-.1-.091-.1-.181-.3-.271l.3.271zm1.3.816c-.1 0-.2-.091-.4-.091 0 0 .1 0 .1.091h.3z" fill="#FFFBF2"/><path d="M868.7 538.649c-.2-.814-.5-1.538-.8-2.262-.6-1.447-1.4-2.894-2.1-4.341-.1-.272-.5-.362-.8-.272-.3.091-.6.181-1 .362-.6.271-.7 1.266.2 1.176.2 0 .4-.091.6-.091.3.724.7 1.448 1 2.171l-.1.091c-.3.271-.1.181-.4.09-.3-.09-.6-.09-.9-.09-.7.09-1.4.543-1.8.995-.4.362-.5.814-.3 1.266 0 0 .1.272.1.181v.543c-.2 1.719.1 4.613 2.8 4.252.3 0 .5-.272.6-.543v-.091c.3 0 .6-.09.7-.271l.2-.181c.3.09.5 0 .7-.181.4-.09.8-.181.9-.543v-.09c.2.09.5 0 .6-.181.3-.543 0-1.357-.2-1.99zm22.801-7.328c-.1-.181 0-.181 0-.271.2-.271-.1-.633-.4-.543l-.6.271c-.3 0-.6.091-.8.453-.1.181-.1.271-.2.452 0 .091-.1.091-.1.091-.3.361-.6.723-.8 1.085-.3 0-.5.271-.5.543 0 1.538 1.5 2.442 3.1 2.442.5 0 .8-.362.9-.814 0-.995.2-2.623-.6-3.709z" fill="#B0C9CC"/><path d="M877.5 550.498c-1.4-2.443-4.9-3.257-7.7-2.804-.7.09-.6.904-.1 1.176 0 .09.1.271.2.361 1.7 1.719 4.3 2.714 6.8 2.533.7-.09 1.2-.633.8-1.266zm14-2.713c0-.723-.8-.995-1.4-.723-.1 0-.2.09-.3.09-1.6.995-3.2 2.623-2.8 4.523.1.543.9.724 1.3.543 1.7-.905 3.2-2.624 3.2-4.433z" fill="#240B00"/><path d="M885.3 553.756l-.299-.814c-.2-.543-.3-1.086-.5-1.538-.1-.362-.7-.362-.8 0-.3.633-.3 1.266 0 1.99.1.271.3.633.5.905.2.271.4.361.8.452.2.09.499-.091.499-.272-.1-.271-.1-.452-.2-.723z" fill="#F6F3D6"/><path d="M891.7 565.515c-.4.091-.7.452-1 .724-.4.362-.8.633-1.3.904l-.2.181v-.362c.1-.723 0-1.356-.1-2.08h.3c.1 0 .2-.091.4-.091.1 0 .1-.09.2-.09.1-.091.3-.181.4-.271l.1-.091c.1-.09.1-.09.1-.181.1-.181.3-.362.4-.633.1-.09.1-.181.1-.362.1-.181.1-.362.1-.543v-.271c0-.181 0-.271-.1-.452s-.2-.362-.4-.543c-.1-.09-.2-.181-.3-.181-.1-.09-.2-.09-.3-.09h-.2c-.1 0-.3 0-.4-.091-.2 0-.5 0-.7.091-.2 0-.3.09-.5.09 0 0-.1 0-.1-.09-.1-.091-.3-.091-.4-.091-.3 0-.6.091-.8.272-.2.18-.3.452-.3.723v.633c0 .272.1.543.1.815.1.18.1.452.3.633.1.09.1.181.2.271l.3.271.3.272c-.1.09-.1.181-.1.271 0 .633 0 1.267-.1 1.9 0 .362-.1.724-.2 1.085-2.2.453-4.3-.09-6.3-.814-1.1-.362-2.1-.814-3.1-1.357-.5-.181-1-.452-1.5-.633-.4-.181-.9-.452-1.4-.362-.3 0-.4.362-.3.543.2.452.7.724 1.1.905.5.271 1 .633 1.5.904 1.1.543 2.3 1.086 3.5 1.448 2.1.723 4.8 1.356 7 .452.1-.091.3-.181.3-.362.1-.09.1-.181.2-.271.4-.272.8-.543 1.3-.724.7-.452 1.8-.995 2-1.809.4-.362.2-.633-.1-.543zm-2.3-3.347h.2c0 .091 0 .091-.1.181-.1.091-.1.181-.2.271.1-.09.1-.09.1-.181-.1.091-.2.181-.2.272 0-.181-.1-.271-.1-.452v-.091h.3z" fill="#240B00"/><path d="M868.9 580.531c-2.3-1.447-4.9-2.623-7.2-4.161-2.3-1.538-4.4-3.257-6.1-5.247-1.2-1.266-2.2-2.713-3.2-4.07-1.2-1.538-2.3-3.076-3.3-4.795-.5-.814-.9-1.718-1.2-2.532-.2-.543-.3-1.267-.1-1.9.2-.362-.5-.543-.7-.271-.9 1.176-.2 2.804.3 3.98.9 1.809 2 3.528 3.3 5.156 1 1.357 2 2.714 3.1 4.07 1.7 2.171 3.8 4.071 6.1 5.699 1.3.905 2.6 1.809 4 2.624 1.4.814 2.9 1.718 4.5 2.351.6.091 1.1-.633.5-.904zm12.5 6.331c-.3-.362-.7-.362-1.1-.452-.6-.09-1.1-.362-1.6-.543-1-.452-1.8-.904-3-.904-.3 0-.5.452-.2.633 1.1.452 2 .995 3.1 1.538.7.271 2.4.995 2.8.09.1-.181.1-.271 0-.362zm-26.7 13.117l-.6-1.9c-.4-1.266-.9-2.352-1.1-3.708-.1-.453-.9-.362-.8.09.1 1.266.2 2.623.6 3.799.2.543.4 1.176.6 1.719.2.543.4 1.266.9 1.719.2.181.6.09.7-.181.1-.453-.2-.995-.3-1.538zm-86.4-5.79c-.3-.814-.9-1.538-1.3-2.261-.6-.905-1.1-1.81-1.6-2.805-.9-1.718-1.6-3.708-1.5-5.608.1-.543-.9-.633-1-.09-.3 1.99.3 3.98 1.2 5.879.5.995 1 1.99 1.6 2.895.5.814 1.1 1.809 1.9 2.352.4.181.9 0 .7-.362zM720 618.342s0 .091 0 0c.1 0 .1 0 0 0zm67.6-.362c-.1 0-.1.091 0 0 .1.182.1 0 0 0zm21.202-17.459a22.539 22.539 0 00-.901-3.709c-.8-2.442-2.1-4.613-4-6.513-.3-.271-.7.091-.5.362 1.5 1.99 2.7 4.161 3.5 6.513.4 1.176.6 2.352.8 3.528.2 1.266.2 2.532.3 3.708.1.634 1.001.634 1.101 0 .1-1.266-.1-2.623-.3-3.889zm30.099 2.534c-.3-.272-.5-.633-.7-.995-.4-.724-.8-1.538-1.1-2.352-.6-1.538-1.2-3.166-1.8-4.613-.2-.453-1-.272-.8.18.6 1.629.9 3.347 1.5 4.976.3.814.6 1.628 1.1 2.442.3.543.9 1.719 1.7 1.719.2 0 .5-.091.5-.362 0-.543-.2-.724-.4-.995zm15.999-44.868c-.5-.814-1-1.538-1.4-2.352-.9-1.538-1.6-3.166-1.4-4.885.1-.452-.8-.542-.9-.09-.3 1.809.2 3.528 1 5.156.4.814.9 1.628 1.4 2.442.2.362.5.724.8 1.176.3.362.5.724.9.995.3.091.5 0 .6-.271 0-.724-.7-1.628-1-2.171zm1.6-2.442l-.9-2.171c-.3-.724-.6-1.447-.8-2.262-.2-.814-.6-1.628-.7-2.442 0-.271-.5-.271-.5 0 0 .814-.1 1.538 0 2.352.1.814.4 1.628.7 2.352l.9 2.171c.3.723.6 1.628 1.1 2.261.2.272.9.272.8-.181.1-.633-.3-1.357-.6-2.08z" fill="#B0C9CC"/><path d="M874.9 540.548c0-1.357-.6-2.623-.9-3.89-.1-.271-.4-.181-.4.091 0 1.085.3 2.171.5 3.256.1.543.1 1.176-.2 1.629-.3.542-.8.814-1.2 1.266-.1.181-.1.452.2.452 1.5 0 2-1.628 2-2.804z" fill="#F6F3D6"/><path d="M769 561.082c-2.3-.633-4.6 1.086-5.6 2.804-.6.905-.9 1.9-1.2 2.895-.1.543-.3 1.085-.4 1.628-.1.543-.3 1.086-.1 1.538.2.271.6.271.8.09.4-.271.4-.904.5-1.266.1-.452.2-.905.4-1.357.2-.904.6-1.809 1-2.623.4-.724 1-1.448 1.8-1.9.4-.271.8-.452 1.3-.543.6-.18 1.1-.271 1.6-.542.4-.181.2-.634-.1-.724zm104 36.635c0-.271-.4-.543-.7-.362-.5.272-.8.905-1.1 1.357-.4.543-.9.995-1.5 1.447-.3.181.1.724.4.453.6-.362 1.2-.814 1.8-1.267.5-.362 1.1-.995 1.1-1.628z" fill="#B0C9CC"/><path d="M800.6 636.886c-.1-.181-.2-.452-.4-.543-.1-.09-.2-.09-.3-.18-.2-.091-.5-.181-.7-.181-.2 0-.4 0-.6.09-.2.091-.3.181-.5.271-.1.091-.2.272-.3.453-.1.181-.1.271-.1.543 0 .09 0 .271.1.361.1.181.2.453.4.543.1.091.2.091.3.181.2.091.5.181.7.181.2 0 .4 0 .6-.09.2-.091.3-.181.5-.272.1-.09.2-.271.3-.452.1-.181.1-.362.1-.543-.1-.09-.1-.181-.1-.362zm2.1-1.629c-1.6 0-1.6 2.261 0 2.261s1.6-2.261 0-2.261zm3.301-2.26c-.5-.543-1.5-.634-2-.091-.3.272-.4.543-.4.905 0 .181.1.452.2.633.1.09.1.181.3.271l.3.272c.3.09.6.181.8.09.2 0 .4-.09.5-.181.3-.181.5-.452.6-.723.1-.453 0-.815-.3-1.176zm51.699.722c-1.7 0-1.7 2.442 0 2.442s1.8-2.442 0-2.442zm2.9-.271a1.18 1.18 0 000 2.352c1.7 0 1.7-2.352 0-2.352zm2.6-1.177a1.18 1.18 0 000 2.353c1.7 0 1.7-2.353 0-2.353z" fill="#240B00"/><path d="M860.3 628.745c-1 0-2.2.271-3.2.542-1.1.181-2.1.543-3.1.996-.4.181-.1.723.3.542 1.1-.361 2.2-.452 3.4-.633 1-.181 2.1-.271 2.9-.905.2-.09 0-.452-.3-.542zm-61.099 3.165a.56.56 0 00-.5-.271c-.4.09-.5.362-.8.543-.3.18-.7.361-1 .542-.8.362-1.4.633-2 1.267-.4.452.1 1.175.7.814.7-.453 1.6-.724 2.4-1.176.5-.362 1.4-1.086 1.2-1.719zm95.299-95.704c-.1-.452-.1-.995-.1-1.447-.1-.995-.1-1.99-.6-2.895-.2-.362-.9-.181-.9.181.1 1.086.1 2.171.2 3.166.1.724.2 2.262 1.1 2.623.2.091.5 0 .5-.181.2-.452-.1-.904-.2-1.447zM459 703.01c-4.6.362-8.7 1.9-13.1.724-8.9-2.352-16.6-7.689-22.4-14.293-.1-.181-.3-.361-.4-.452-5.9-6.784-10-14.654-13.3-22.705-2.9-7.146-5.4-14.654-4.8-22.252.5-7.146 4.1-14.473 10.6-18.363.4-.271.8-.452 1.2-.724 7.3-3.708 18-2.08 22.1 4.614 13.2 21.709 16 49.028 20.1 73.451z" fill="#B0C9CC"/><path d="M580.3 640.864c-2.1 19.901-8.9 39.44-20.3 56.627H446.4c-6.8-10.222-12-21.348-15.5-32.836-.6-1.99-1.2-3.98-1.7-6.061 0-.09-.1-.181-.1-.362-1.5-6.241-2.6-12.573-3.2-18.905-2-21.439 1.5-43.239 10.4-63.14 1.2-2.623 2.5-5.246 3.9-7.779 4.7-8.774 10.5-17.096 14.5-26.233 1-2.351 1.9-4.794 2.6-7.236 2-7.056 2.4-14.473 0-21.348h91.8c-2.5 7.146-1.9 14.835.2 22.071.7 2.262 1.5 4.433 2.4 6.513 3.9 9.137 9.7 17.459 14.5 26.233 12.1 22.343 16.7 47.762 14.1 72.456z" fill="#FFFBF2"/><path d="M477.2 479.217c-3.1-1.447-6.3-2.713-9.7-2.985-3.4-.271-7.1.724-9.3 3.257-1.8 2.08-2.2 4.884-1.8 7.417.6 3.799 2.9 7.327 6.3 9.679 4.7-5.518 9.8-11.85 14.5-17.368z" fill="#F7F3D6"/><path d="M466.5 493.691c-1.9-1.629-3.8-3.347-4.7-5.608-.9-2.262-.4-5.066 1.7-6.332 1.4-.814 3.3-.814 5-.543 2.4.452 4.7 1.447 6.5 2.985-3.3 3.347-5.6 5.97-8.5 9.498z" fill="#B0C9CC"/><path d="M526.3 479.217c3.1-1.447 6.3-2.713 9.7-2.985 3.4-.271 7.1.724 9.3 3.257 1.8 2.08 2.2 4.884 1.8 7.417-.6 3.799-2.9 7.327-6.3 9.679-4.8-5.518-9.9-11.85-14.5-17.368z" fill="#F7F3D6"/><path d="M537 493.691c1.9-1.629 3.8-3.347 4.7-5.608.9-2.262.4-5.066-1.7-6.332-1.4-.814-3.3-.814-5-.543-2.4.452-4.7 1.447-6.5 2.985 3.2 3.347 5.6 5.97 8.5 9.498zm10.099 34.102c-9.7 11.578-22 31.75-43.9 31.75-22.1 0-33.5-21.8-43.5-33.741 2-7.055.1-5.336-2.3-12.211h91.8c-2.6 7.146-4.2 6.875-2.1 14.202z" fill="#B0C9CC"/><path d="M556.799 517.753c-9.1 13.117-25.2 33.741-53.599 33.741-28.4 0-43-20.896-53.6-34.283 5.1-14.654 14.1-28.223 26.1-39.168.3-.091.6-.091.9-.181 18.2-3.347 33.1-2.985 51.599.543.2 0 .5.09.8.18 8.6 7.87 20.3 20.172 24.7 30.575 1.3 2.895 2.3 5.699 3.1 8.593z" fill="#FFFBF2"/><path d="M527.8 524.809c-.1.271-.3.542-.4.814-2.4 4.161-7.4 7.236-13 8.684-5.6 1.447-11.7 1.447-17.5.633-5-.633-10-1.9-13.8-4.523-2.5-1.628-4.4-3.98-5-6.423-.4-1.356-.4-2.623 0-3.98.8-2.532 2.9-4.613 5.2-6.512 2.3-1.9 4.9-3.619 6.7-5.699 1.9-2.171 3-4.885 2.1-7.327 6.4-2.352 17.6-1.99 21-.543-1 3.618.4 7.508 3.6 10.222 2.2 1.809 5.2 3.075 7.6 4.703 1.8 1.267 3.3 2.714 3.9 4.523.7 1.809.4 3.709-.4 5.428z" fill="#F7F3D6"/><path d="M491.599 516.034c.3-1.266 2.6-1.628 4.4-1.809 4.5-.271 9.1-.271 13.6-.09 1.6.09 3.8.271 4 1.447 1 6.332-10.8 12.212-10.8 12.212-.1 0-12.5-6.242-11.2-11.76z" fill="#240B00"/><path d="M547.7 703.01c4.6.362 8.7 1.9 13.1.724 8.9-2.352 16.6-7.689 22.4-14.293.1-.181.3-.361.4-.452 5.9-6.784 10-14.654 13.3-22.705 3-7.146 5.4-14.654 4.9-22.252-.5-7.146-4.1-14.473-10.6-18.363-.4-.271-.8-.452-1.2-.724-7.3-3.708-18-2.08-22.1 4.614-13.3 21.709-16.2 49.028-20.2 73.451z" fill="#B0C9CC"/><path d="M583.299 689.531c.1-.181.3-.362.4-.452 5.9-6.785 10-14.654 13.301-22.705 3-7.146 5.399-14.654 4.899-22.253-.5-7.146-4.1-14.473-10.6-18.362-7.2 20.533-9.9 42.334-8 63.772z" fill="#FFFBF2"/><path d="M480 498.486c-5 1.628-9.6 4.07-13.5 7.327 4.2 1.718 8.5 3.527 13 3.889 11.6.814 14.5-5.88 13.8-7.417-.9-1.809-3.7-6.875-13.3-3.799zm44.9 0c5 1.628 9.6 4.07 13.5 7.327-4.2 1.718-8.5 3.527-13 3.889-11.6.814-14.5-5.88-13.8-7.417.8-1.809 3.6-6.875 13.3-3.799z" fill="#F7F3D6"/><path d="M485.5 507.803c-1.2.543-2.9.814-5.1.724-.9-.091-1.8-.181-2.7-.453-1.7-.452-3.3-1.176-4.9-1.809 1.3-1.176 2.9-2.08 4.5-2.895 1.1-.542 2.2-.995 3.3-1.356 1.1-.362 2-.543 2.8-.543 3.4-.181 4.5 1.899 4.9 2.714.4.633-.3 2.532-2.8 3.618zm38.599-5.79c2.9.904 5.6 2.352 7.8 4.251-2.4.995-4.9 2.081-7.5 2.262-6.699.452-8.399-3.438-7.999-4.342.5-.995 2.1-3.98 7.699-2.171z" fill="#FFFBF2"/><path d="M527.8 524.807c-.1.272-.3.543-.4.815-2.4 4.161-7.4 7.236-13 8.683-5.6 1.448-11.7 1.448-17.5.634-5-.634-10-1.9-13.8-4.523-2.5-1.628-4.4-3.98-5-6.423 1.8 2.533 5 4.342 8.1 5.609 5.3 2.08 10.3 2.894 16.6-1.809 5.6 5.427 14.8 2.532 18 1.085 2.4-1.176 4.8-2.533 7-4.071zm32.299 172.686h-113.7c-6.8-10.222-12-21.348-15.5-32.837-.6-1.99-1.2-3.98-1.7-6.06 0-.091-.1-.181-.1-.362-1.5-6.242-2.6-12.574-3.2-18.906.4-.814.8-1.718 1.2-2.532 7.3-15.378 21.9-27.228 32.9-40.706 1.6 11.578 10 64.044 43.8 64.767 32.7.724 44.9-54.998 45.5-71.552 13.8 5.971 21.6 22.253 26.6 35.369 2 5.247 3.4 10.674 4.4 16.102-2 20.081-8.8 39.53-20.2 56.717z" fill="#B0C9CC"/><path d="M549.8 662.756c-1.5 12.302-5.4 23.881-11.3 34.826h-73.4c-5.3-10.403-8-21.619-9.1-33.379 8.2 5.699 16.4 11.307 25.7 15.378 9.3 4.07 19.7 6.332 29.9 4.885 15.1-2.171 27.1-12.212 38.2-21.71z" fill="#94ADAF"/><path d="M474.5 496.586c.7 0 1.3-.181 1.8-.543 1.8-1.538 5.5-2.804 10.5-1.628 1.2.271 2.4-.181 2.8-.905.4-.723-.2-1.628-1.3-1.899-6-1.447-12.1-.362-15.5 2.623-.7.633-.5 1.538.4 2.08.4.181.9.272 1.3.272zm56.2 0c-.7 0-1.3-.181-1.8-.543-1.8-1.538-5.5-2.804-10.5-1.628-1.2.271-2.4-.181-2.8-.905-.4-.723.2-1.628 1.3-1.899 6-1.447 12.1-.362 15.5 2.623.7.633.5 1.538-.4 2.08-.4.181-.9.272-1.3.272z" fill="#F7F3D6"/><path d="M485.9 704.638h-38.5c-2.1-3.89-4-7.779-5.8-11.669-4.2-9.227-7.8-18.635-10.6-28.224-.6-1.99-1.2-3.979-1.7-6.06 0-.09-.1-.182-.1-.362-6.7-27.228-4.4-56.264 7.2-82.135 13.1.18 28.2 11.398 35.3 21.348-10.3 34.826-3.6 66.124 11 100.045 1.1 2.262 2.1 4.614 3.2 7.057z" fill="#FFFBF2"/><path d="M476.2 703.371c0 .452-.1.814-.2 1.266h-28.6c-2.1-3.889-4-7.779-5.8-11.669 12.8-.723 27 2.714 29.2 4.071 2.3 1.447 5.5 3.709 5.4 6.332z" fill="#F7F3D6"/><path d="M480.199 713.865c-2.4.995-6 1.628-10.1 1.99-2.2.181-4.6.271-7.1.362-2 0-4 0-6-.091-2.4-.09-4.8-.271-7-.542-1.9-.181-3.7-.453-5.4-.724a49.89 49.89 0 01-6.8-1.447c-1.9-.543-3.3-1.176-4.4-1.81.7-6.603 7.2-11.397 14.3-13.025 13.1-2.895 29.6-.905 32.1.361 2.5 1.267 6 3.166 6.2 5.699.3 3.709-2.1 7.689-5.8 9.227z" fill="#FFFBF2"/><path d="M445.8 708.347l-1.2 6.513c-2.6-.362-4.9-.905-6.8-1.448.8-2.171 2-4.161 3.7-5.879.6-.634 1.2-1.176 2.1-1.357.8-.181 1.9.09 2.2.814.1.362 0 .904 0 1.357zm11.6.994c-.1 2.262-.3 4.433-.4 6.694-2.4-.09-4.8-.271-7-.543.5-2.352 1.5-4.613 3-6.603.5-.633 1.1-1.266 1.9-1.628.8-.272 1.9-.091 2.3.543.3.542.2 1.085.2 1.537zm12.7 6.514c-2.2.181-4.6.272-7.1.362-.1-2.442.5-4.794 1.5-7.056.4-.723.8-1.447 1.5-1.899.7-.452 1.8-.452 2.4.181.3.362.4.904.5 1.357.4 2.261.8 4.703 1.2 7.055z" fill="#240B00"/><path d="M520.7 704.637h38.5c6.9-12.845 12.4-26.142 16.5-39.982.6-1.99 1.2-3.98 1.7-6.06 0-.091.1-.181.1-.362 6.7-27.228 4.4-56.265-7.2-82.135-13.1.181-28.2 11.397-35.3 21.348 10.3 34.826 3.6 66.124-11 100.045-1.1 2.352-2.2 4.704-3.3 7.146z" fill="#FFFBF2"/><path d="M530.8 703.371c0 .452.1.814.2 1.266h28.6c2.1-3.889 4-7.779 5.8-11.669-12.8-.723-27 2.714-29.2 4.071-2.4 1.447-5.6 3.709-5.4 6.332z" fill="#F7F3D6"/><path d="M526.399 713.865c2.4.995 6.001 1.628 10.101 1.99 2.2.181 4.6.271 7.1.362 2 0 4 0 6-.091 2.4-.09 4.8-.271 7-.542 1.9-.181 3.7-.453 5.4-.724 2.6-.362 4.9-.905 6.8-1.447 1.9-.543 3.3-1.176 4.4-1.81-.7-6.603-7.2-11.397-14.3-13.025-13.1-2.895-29.6-.905-32.1.361-2.501 1.267-6.001 3.166-6.201 5.699-.3 3.709 2.1 7.689 5.8 9.227z" fill="#FFFBF2"/><path d="M560.9 708.347l1.2 6.513c2.6-.362 4.9-.905 6.8-1.448-.8-2.171-2-4.161-3.7-5.879-.6-.634-1.2-1.176-2.1-1.357-.8-.181-1.9.09-2.2.814-.2.362-.1.904 0 1.357zm-11.7.994c.1 2.262.3 4.433.4 6.694 2.4-.09 4.8-.271 7-.543-.5-2.352-1.5-4.613-3-6.603-.5-.633-1.1-1.266-1.9-1.628-.8-.272-1.9-.091-2.3.543-.2.542-.2 1.085-.2 1.537zm-12.7 6.514c2.2.181 4.6.272 7.1.362.1-2.442-.5-4.794-1.5-7.056-.4-.723-.8-1.447-1.5-1.899-.7-.452-1.8-.452-2.4.181-.3.362-.4.904-.5 1.357-.4 2.261-.8 4.703-1.2 7.055z" fill="#240B00"/><path d="M423.4 689.531c-.1-.181-.3-.362-.4-.452-5.9-6.785-10-14.654-13.3-22.705-3-7.146-5.4-14.654-4.9-22.253.5-7.146 4.1-14.473 10.6-18.362 7.2 20.533 9.9 42.334 8 63.772z" fill="#FFFBF2"/><path d="M486.3 505.45c0 .905-.3 1.719-.8 2.352-1.2.543-2.9.814-5.1.724-.9-.091-1.8-.181-2.7-.453-.6-.723-1-1.628-1-2.623 0-.724.2-1.447.6-2.08 1.1-.543 2.2-.995 3.3-1.357 1.1-.362 2-.543 2.8-.543 1.7.633 2.9 2.171 2.9 3.98z" fill="#240B00"/><path d="M472.899 506.265c1.3-1.176 2.9-2.081 4.5-2.895 1.1-.542 2.2-.995 3.3-1.356 1.1-.362 2-.543 2.8-.543 3.4-.181 4.5 1.899 4.9 2.713l-15.5 2.081zm45.601-.815c0 .905.3 1.719.8 2.352 1.2.543 2.9.814 5.1.724.9-.091 1.8-.181 2.7-.453.6-.723 1-1.628 1-2.623 0-.724-.2-1.447-.6-2.08-1.1-.543-2.2-.995-3.3-1.357-1.1-.362-2-.543-2.8-.543-1.7.633-2.9 2.171-2.9 3.98z" fill="#240B00"/><path d="M531.9 506.265c-1.4-1.176-2.9-2.081-4.5-2.895a25.37 25.37 0 00-3.3-1.356c-1.1-.362-2-.543-2.8-.543-3.401-.181-4.501 1.899-4.901 2.713l15.501 2.081z" fill="#240B00"/><path d="M464.5 561.082c-4.5-.361-9.4.815-12.2 4.071-3.3 3.799-2.8 9.317-1.2 13.93 5.8 17.097 19.5 29.218 38.8 33.108 13.1 2.623 31.5 1.899 43.5-3.528 12-5.428 21.4-16.011 23.3-28.042 1.1-7.055-1.4-15.649-8.8-18.182-6.1-2.171-12.8.633-19 2.624-11.1 3.618-23.1 4.884-34.9 3.708-5.2-.542-10.5-1.357-15.3-3.166-4.7-1.899-9-4.07-14.2-4.523z" fill="#FCFAFA"/><path d="M439.3 615.357c.6 2.623 1.5 5.246 3.3 7.327 1.8 2.08 4.8 3.528 7.7 2.985 3.2-.543 5.3-3.166 7-5.609 5.6-8.141 9.6-17.096 11.9-26.413 1.4-5.97 2.1-12.574-.9-18.092-2.5-4.613-9-8.503-14.9-7.688-5.4.814-7.8 6.784-9.8 10.764-5.7 11.398-7.3 24.514-4.3 36.726zm126.899 0c-.6 2.623-1.5 5.246-3.3 7.327-1.8 2.08-4.799 3.528-7.699 2.985-3.2-.543-5.301-3.166-7-5.609-5.6-8.141-9.601-17.096-11.901-26.413-1.4-5.97-2.099-12.574.901-18.092 2.5-4.613 8.999-8.503 14.899-7.688 5.4.814 7.8 6.784 9.8 10.764 5.7 11.398 7.3 24.514 4.3 36.726z" fill="#FCFAFA"/><path d="M390.101 372.568c-3.2-5.066-5-11.127-7.3-16.735-2.3-5.699-5.4-11.307-10.3-14.202-3.1-1.9-6.9-2.623-10.5-3.256-6.6-1.176-13.1-2.443-19.7-3.619-.6-.09-1.2-.181-1.8 0-1.2.362-2.1 1.719-2.4 2.985-.3 1.357 0 2.624.2 3.89.6 3.437 1.4 6.965 3.2 9.679 4.1 6.151 12.6 7.418 15.9 14.202 1.3 2.714 1.5 6.061 2.7 8.774 1.1 2.804 3.9 5.156 6.7 4.071l23.3-5.789z" fill="#333332"/><path d="M339.701 331.772c-2-.905-4-1.99-6.3-2.081-.6 0-1.3.091-1.5.724-.2.543.2.995.6 1.447.6.633 1.3 1.267 1.9 1.9-.6.271-1.5-.905-1.9.633-.2 1.357.7 1.085 1.2 1.538-.2.09-.4.181-.5.271-.2 1.719.4 3.347 1.5 4.433.2.271.5.452.7.814.2.271.1.814-.1 1.085-.5.452-1.4.091-1.7.724-.1.271.1.633.3.904 2 2.171 1.5 5.79 3.9 7.418.8.543 4.2-.362 5.2-.362.4 0 .8-.09 1-.452.1-.272 0-.543 0-.814-.6-2.171-1.3-4.342-1.9-6.513-.4-1.357-.8-2.804-.7-4.342.1-1.538.9-3.166 2.2-3.89 1.3-.724 3.3 0 4.5-1.176-2.9-.904-5.7-1.176-8.4-2.261z" fill="#4D4D4D"/><path d="M403.101 365.423c.5 2.532-.8 5.517-3 6.874-1.9 1.267-4.3 1.267-6.3 2.352-1.4.814-3 5.609-6.2 9.498-5.5 6.785-23.8 13.659-25.8 13.569-2.4 0-8.1-.091-8.2-1.719 0-1.628 1.6-11.578 13.6-23.428 4-3.89 9-6.151 13.9-8.322 4.4-1.9 9-3.619 13.5-3.8 3.4-.09 7.8 1.176 8.5 4.976z" fill="#3C3C3B"/><path d="M397.6 364.337c1.3 0 2.2 1.175 2.1 2.532 0 .724-.3 1.357-1.2 1.719-2.2.904-3.7.09-5.1-1.9-1.4-1.99-2.2-1.99-2.2-1.99s-.7-1.266.6-1.176c1.3.091 2.5.995 3.9.815.7 0 1.3-.091 1.9 0z" fill="#AEAEAF"/><path d="M372.601 407.666l-1.4 1.9-2.1-2.533s0-3.076.2-3.076 1.2.453 1.2.453l2.1 3.256zm-7.701 1.358l2.5 2.261-1.1 1.99-2.3-1.809v-3.437l.9.995z" fill="#E6332A"/><path d="M366.8 400.52c-.7 2.624-1.5 5.156-2.5 7.689-.1.362-.3.814-.7.995h-.2c-.2-.09-.1-.362-.1-.542.6-2.895 1.9-5.699 2.1-8.594v-.362l1.4.814z" fill="#BE1622"/><path d="M368.001 412.641c-.3-.09-1.7-2.985-2.8-2.985-.3.091.5 1.357.7 2.171.3.995 1.1 2.895.9 2.985-.5.091-.7-.995-.9-1.537-.5-1.357-1.1-2.533-1.8-3.619 0 1.176.3 3.619-.2 3.528-.3 0-.2-1.538-.2-2.623 0-.272.1-1.628-.2-2.081-.4-.995-2-2.171-1.6-2.533.5-.271 1.5 2.171 2.8 2.805 1.6.542 4 3.889 3.3 3.889z" fill="#BE1622"/><path d="M368.001 413.274l-.3-.543c-.1-.09 0-.181.1-.271.1-.091.2 0 .2 0l.3.542v.091s0 .09-.1.09c-.1.091-.2.091-.2.091zm-1.201 1.989c0-.09-.1-.271-.1-.361v-.362s0-.091.1-.091.2-.09.2 0c.1.181.2.453.2.724 0 .09 0 .181-.1.181-.2 0-.3 0-.3-.091zm-2.9-1.898v-.724c0-.09.1-.181.2-.181s.1.091.2.091v.724s0 .09-.1.09l-.1.091c-.1 0-.2 0-.2-.091z" fill="#4D4D4D"/><path d="M322.2 359.452c.5-.452 1.1-.633 1.7-.814 6.5-2.262 13.1-4.523 19.6-6.785 3.6-1.266 7.4-2.532 11-2.532 5.8-.091 10.8 2.894 15.2 6.422 3.8 2.985 7.4 6.423 11.6 8.955.7.362 3.4 2.895-.6 5.88s-10.3 3.528-16.6 11.217c-2 2.533-5.7 1.719-7.9.09-2.2-1.718-3.8-4.251-6.1-5.789-5.7-3.89-14.2-.724-20.4-3.618-2.8-1.357-4.9-3.799-6.9-6.242-.7-.904-1.5-1.809-1.8-3.075 0-1.357.3-2.895 1.2-3.709zm32.5 37.992c-.1-.724-.1-1.448-.2-2.171 0-.272-.1-.453 0-.724.1-.362.4-.724.7-.995 2.7-2.623 5.6-4.975 8.6-6.965.5-.362 1.1-.724 1.6-.362.2.181.3.362.4.633.8 2.352.8 5.88-2 6.965-1.4.543-3 .634-4.4 1.176-.6.181-4.7 1.9-4.7 2.443z" fill="#3C3C3B"/><path d="M352.9 402.147c-.5.814-1.3 1.719-2 1.267-.3-.091-.4-.453-.5-.724-.3-1.176.2-2.714 1.2-3.618-.5-.091-1.2.723-1.6.452-.7-.995-.4-2.714.5-3.709-.4-.723 0-1.809.7-2.442.7-.633 1.5-.905 2.3-1.176 2.8-.995 5.4-2.533 8.1-3.98-1.3.814-2.1 2.352-2.7 3.799-1.2 2.714.3 2.895.1 3.076-.2.18-1.1.814-2 1.718-1.5 1.809-2.9 3.438-4.1 5.337zm-37.7-45.59c-.4.091-.8.091-1.2.362-.4.181-.7.724-.6 1.085.1.362.4.543.7.724 1 .543 2.1.905 3.3 1.176-.1.543-.7.724-1.2.905-.5.18-1 .723-.8 1.175.1.181.3.272.5.272 1.1.362 2.3.633 3.4.995-.9.814-.7 2.533.1 3.256.8.724 2 .814 3.1.814.2 1.086-1.1 2.262-.8 3.347.1.272.3.543.6.724 1 .633 2.3.362 3.5 0 .2-.09.5-.09.7-.09.4.18.5.723.8.995.4.361 1.2.18 1.7.361.2.091.4.272.6.362.9.543 2 .362 3 .362 1.5 0 2.8.181 4.3.271 3.8.272 7.7-.452 11.3 0 2 .272 4 .995 4.9 2.805-2.2-3.076-5.8-4.704-9.3-5.699-3.6-.995-7.4-1.447-10.8-2.804-1.1-.453-2.2-.995-2.8-1.99-.6-1.176-.7-2.714-1.5-3.709-.3-.362-.8-.633-1.1-.905-.4-.362-.7-.904-.6-1.447 3.2-1.357 6.5-2.533 9.7-4.071 2.4-1.176 4.8-2.532 7-4.342.7-.542 2.8-2.351 1.1-1.899-1.3.362-3.3.904-4.6 1.357-5.3 1.718-10.6 3.256-16 4.161-2.9.723-6 1.176-9 1.447z" fill="#4D4D4D"/><path d="M395.5 367.142c.2.814 1 1.176 1.8.814s1.3-1.267 1.1-2.081c-.2-.814-1-1.176-1.8-.814s-1.3 1.266-1.1 2.081z" fill="#AEAEAF"/><path d="M396.3 366.689c0 .362.3.633.6.543.3 0 .7-.452.6-.814 0-.362-.3-.634-.6-.543-.3 0-.6.452-.6.814zm6.301 2.17s3.3 3.166 4.3 4.252c.7.904 2.9 3.256 2.4 3.618-.5.362-7.7-2.804-8.4-3.528-1.6-1.628 1.7-4.342 1.7-4.342z" fill="#4D4D4D"/><path d="M402.9 368.587c0-.361-.3-.904-.5-1.175-.1-.091-.6.18-.7.271-.3.181-.5.543-.6.814-.1.362 0 .724.1.995.1.09.2.271.2.271.3.181.7.091 1-.09.8-.091.6-.543.5-1.086z" fill="#AEAEAF"/><path d="M369.9 394.459c-.5 1.628-1.1 3.257-1.6 4.885-.3.904-.6 1.809-1.2 2.442-.6.724-1.6 1.086-2.4.905-.2-.091-.5-.181-.7-.362-.3-.362-.2-.814-.2-1.266.2-1.629.3-3.257.4-4.795v-.181s.1 0 .1.091l5.6-1.719z" fill="#3C3C3B"/><path d="M373.7 396.449c-1.1 2.442-2.3 4.885-3.6 7.146-.2.362-.5.724-.8.814-.1 0-.2 0-.3-.09-.1-.091-.1-.362 0-.543 1.1-2.714 2.7-5.247 3.4-8.141 0-.181 0-.272.1-.362l1.2 1.176z" fill="#BE1622"/><path d="M373.001 408.843c-.2-.091-1.1-3.347-2.2-3.619-.3.091.201 1.448.301 2.352.1 1.086.599 3.166.299 3.166-.5 0-.5-1.176-.6-1.809-.3-1.447-.7-2.804-1.1-4.071-.2 1.176-.4 3.709-.8 3.528-.3-.09.099-1.628.199-2.713 0-.272.401-1.629.301-2.171-.3-1.086-1.5-2.624-1.1-2.895.5-.181 1 2.533 2.2 3.437 1.4.995 3.1 4.885 2.5 4.795z" fill="#BE1622"/><path d="M372.9 409.384c0-.091-.1-.181-.1-.272v-.361s0-.091.1-.091h.2c.1.181.2.362.2.633 0 .091 0 .181-.1.181-.2 0-.3 0-.3-.09zm-1.5 1.72v-.271c0-.091 0-.272-.1-.362 0-.091 0-.181.1-.181s.2 0 .2.09c.1.272.1.453.1.724 0 .09-.1.181-.2.181 0-.091-.1-.091-.1-.181zm-2.5-2.534c.1-.272.1-.452.1-.724 0-.09.1-.181.2-.09.1 0 .1.09.1.181 0 .181-.1.452-.1.723 0 .091-.1.181-.2.091-.1 0-.2-.091-.1-.181z" fill="#4D4D4D"/><path d="M377.6 391.202c-.8 1.537-1.6 3.075-2.3 4.523-.4.814-.9 1.628-1.6 2.261-.7.543-1.7.724-2.4.362-.2-.091-.5-.272-.6-.543-.2-.362 0-.904.1-1.357.4-1.628.8-3.166 1.2-4.794 0-.091 0-.09.1-.09 0 0 .1-.001.1.09l5.4-.452zm-18.799.814c-1.2 2.714.3 2.985.1 3.166-.2.181-1.1.814-2 1.809-.4.453-.8.905-1.3 1.448-.3.181-.6.271-.8.361 0-.18 0-.452.1-.633-.4-.181-1 .181-1.3-.09-.2-.181-.3-.453-.2-.814.1-.362.3-.543.5-.814.6-.815 1.1-1.629 1.7-2.352-.4.09-.9.09-1.3.181 0-.453.3-.996.7-1.176-.1 0-.2-.091-.3-.091.1-.724.8-1.266 1.3-1.628.2-.181.4-.272.7-.452 1.7-.815 3.4-1.81 5.1-2.714-1.6.723-2.4 2.261-3 3.799z" fill="#3C3C3B"/><path d="M393.4 373.653c-.4.361-.9.633-1.4.904h-.2c-.1-.09 0-.181.1-.181.5-.362.9-.633 1.4-.904h.2s-.1.09-.1.181zm-17.1 16.825c-.4.181-.7.271-1.1.452-.1 0-.2 0-.2-.09 0-.091 0-.181.1-.181.4-.181.7-.272 1.1-.452.1 0 .2 0 .2.09s-.1.181-.1.181zm-4.1 2.804c-.9.271-1.9.452-2.8.543-.2 0-.2-.272 0-.272.9-.09 1.8-.271 2.8-.543.1 0 .2.001.2.091-.2.09-.2.181-.2.181zm-7.1 3.619h-3.4c-.2 0-.1-.271.1-.271h3.4c.1 0 0 .271-.1.271zm25.3-35.277l-2.7.814c-.2 0-.2-.181-.1-.272l2.7-.814c.2 0 .2.272.1.272zm-2 2.441c-.7.181-1.3.543-2 .814-.2.091-.2-.181-.1-.271.6-.362 1.3-.543 2-.814.2-.091.2.181.1.271zm.2 7.598c-.4.181-.7.271-1.1.452-.1 0-.2 0-.2-.09 0-.091 0-.181.1-.181.4-.181.7-.272 1.1-.452.1 0 .2 0 .2.09s0 .181-.1.181zm-.999-.724c-.4.272-.8.453-1.3.634-.1 0-.2 0-.2-.091 0-.09 0-.181.1-.181.4-.09.8-.271 1.2-.542h.2c.1 0 .1.18 0 .18zm-4.901-6.783l-2.4.814c-.2 0-.2-.181-.1-.272l2.4-.814c.3-.09.3.181.1.272zm-24.899 24.604c-.6.814-1.1 1.718-1.4 2.623 0 .09-.1.181-.2.09-.1 0-.1-.09-.1-.18.3-.995.9-1.9 1.5-2.805.1-.09.3.091.2.272z" fill="#AEAEAF"/><path d="M1477.1 441.419v9.86h7.4v26.233h-19.8v-36.093c0-.361.3-.633.7-.633h11c.4 0 .7.272.7.633z" fill="#F6F6F6"/><path d="M1464.8 471.541h19.8v-6.061h-19.8v6.061z" fill="#D65229"/><path d="M1471.5 462.494h2.3v-4.251c0-.09-.1-.271-.2-.271h-1.8c-.1 0-.2.09-.2.271v4.251h-.1z" fill="#C6C6C6"/><path d="M1472.1 458.424h1.2c.1 0 .2.09.2.181v1.086c0 .09-.1.181-.2.181h-1.2c-.1 0-.2-.091-.2-.181v-1.086c0-.091 0-.181.2-.181z" fill="#546C82"/><path d="M1471.5 451.278h2.3v-4.252c0-.09-.1-.271-.2-.271h-1.8c-.1 0-.2.09-.2.271v4.252h-.1z" fill="#C6C6C6"/><path d="M1472.1 447.117h1.2c.1 0 .2.091.2.181v1.086c0 .09-.1.18-.2.18h-1.2c-.1 0-.2-.09-.2-.18v-1.086c0-.09 0-.181.2-.181z" fill="#546C82"/><path d="M1473 440.786h2.5v-7.96c0-.633-.5-1.086-1.2-1.086h-.1c-.7 0-1.2.453-1.2 1.086v7.96z" fill="#3C3C3B"/><path d="M1473 440.784h2.5v-4.975c0-.633-.5-1.085-1.2-1.085h-.1c-.7 0-1.2.452-1.2 1.085v4.975z" fill="#1D1D1B"/><path d="M1469.7 440.786h2.5v-7.96c0-.633-.5-1.086-1.2-1.086h-.1c-.7 0-1.2.453-1.2 1.086v7.96z" fill="#3C3C3B"/><path d="M1469.7 440.784h2.5v-4.975c0-.633-.5-1.085-1.2-1.085h-.1c-.7 0-1.2.452-1.2 1.085v4.975z" fill="#1D1D1B"/><path d="M1466.4 440.786h2.5v-7.96c0-.633-.5-1.086-1.2-1.086h-.1c-.7 0-1.2.453-1.2 1.086v7.96z" fill="#3C3C3B"/><path d="M1466.4 440.784h2.5v-4.975c0-.633-.5-1.085-1.2-1.085h-.1c-.7 0-1.2.452-1.2 1.085v4.975z" fill="#1D1D1B"/><path d="M1465.6 436.264v4.523h.8l4.5-1.991 4.5 1.991h.8v-4.523h-10.6zm9.4.361l-4.1 1.81-4.1-1.81h8.2zm-3.7 1.991l4.5-1.991v3.981l-4.5-1.99zm-5.3-1.991l4.5 1.991-4.5 1.99v-3.981z" fill="#3C3C3B"/><path d="M1423.6 485.018h68.3v-8.231h-30.4V465.57l1.6-6.061h-10.7v-13.478h-31.3l2.5 5.97v33.017z" fill="#EDEDED"/><path d="M1434.1 450.554h18.3v-3.799h-16.8l-1.5 3.799z" fill="#D65229"/><path d="M1449.1 449.831h.8l.8-2.262h-.8l-.8 2.262zm-1.6 0h.8l.8-2.262h-.8l-.8 2.262zm-1.7 0h.8l.8-2.262h-.8l-.8 2.262zm-1.6 0h.8l.8-2.262h-.8l-.8 2.262zm-1.7 0h.8l.8-2.262h-.8l-.8 2.262zm-1.6 0h.8l.8-2.262h-.8l-.8 2.262zm-1.6 0h.8l.8-2.262h-.8l-.8 2.262zm-1.7 0h.8l.8-2.262h-.8l-.8 2.262zm-1.6 0h.8l.8-2.262h-.8l-.8 2.262z" fill="#546C82"/><path d="M1421.1 446.031l2.5 5.97h9.9l2.5-5.97h-14.9z" fill="#F6F6F6"/><path d="M1433.7 450.554l1.4-3.799h-2.7v3.799h1.3zm-10.3 0l-1.4-3.799h2.7v3.799h-1.3zm5.4 0h3.3v-3.799h-3.3v3.799zm-3.7 0h3.3v-3.799h-3.3v3.799z" fill="#546C82"/><path d="M1423.6 458.787h9.9v-6.784h-9.9v6.784z" fill="#E6E6E6"/><path d="M1431 458.787h2.5v-6.784h-2.5v6.784z" fill="#DEDEDE"/><path d="M1423.6 458.787h2.5v-6.784h-2.5v6.784z" fill="#EDEDED"/><path d="M1443.4 458.787h2.2v-4.252c0-.09-.1-.271-.2-.271h-1.8c-.1 0-.2.09-.2.271v4.252z" fill="#C6C6C6"/><path d="M1443.9 454.625h1.2c.1 0 .2.09.2.181v1.085c0 .091-.1.181-.2.181h-1.2c-.1 0-.2-.09-.2-.181v-1.085c0-.091.1-.181.2-.181z" fill="#546C82"/><path d="M1443.4 464.757h2.2v-4.251c0-.091-.1-.272-.2-.272h-1.8c-.1 0-.2.091-.2.272v4.251z" fill="#C6C6C6"/><path d="M1443.9 460.687h1.2c.1 0 .2.09.2.18v1.086c0 .09-.1.181-.2.181h-1.2c-.1 0-.2-.091-.2-.181v-1.086c0-.09.1-.18.2-.18zm4.4-4.162h1.6v-1.538h-1.6v1.538zm-9 0h1.6v-1.538h-1.6v1.538zm-4.2 0h1.6v-1.538h-1.6v1.538zm24.9 6.785h1.7l.6-2.261h-1.6l-.7 2.261zm-2.4 0h1.6l.6-2.261h-1.6l-.6 2.261zm-2.7 0h1.8l.6-2.261h-2.5l.1 2.261zm-.8-2.261h-2.5v2.261h2.5v-2.261z" fill="#546C82"/><path d="M1580.6 479.591h-.2l-26-3.618v.904l8.9 2.352h.1l15.2 4.071 2-3.709zm-12.3.362l-1.8-1.086 2.6-.271-.5 1.447-.3-.09zm-4.4-1.176l.3-.905h.1l1.2.724-1.4.181h-.2zm1.2-.724l2.7.362-1.7.181-1-.543zm8.3 3.257l-1.8-1.357 2.5-.543-.7 1.9zm1.1-1.9l1.4 1.357-2.1.543.7-1.9zm-3.2.181l-1.1-.905 3.2.453-2.1.452zm-1.8-.905l1.3 1.086-1.8.362h-.1l.6-1.448zm1.7 1.267l1.4 1.085-2.8-.723 1.4-.362zm5 1.176l1.4 1.357-3.2-.905 1.8-.452zm.4-.181l3-.814-1.3 2.352-1.7-1.538zm-.2-.271l-1.3-1.267 3.9.543-2.6.724zm-19.9-3.89l7.3.995-.3.814-7-1.809zm9.5 2.171l1.1.724-2.1-.543 1-.181z" fill="#FFA333"/><path d="M1586.6 484.294h-9v-3.166c0-1.266 1.1-2.352 2.6-2.352h3.9c1.4 0 2.6 1.086 2.6 2.352l-.1 3.166z" fill="#E38716"/><path d="M1554.9 476.877h-.2v3.528h.2v-3.528zm-.7 0h-.2v3.528h.2v-3.528z" fill="#3C3C3B"/><path d="M1555.3 476.425c0 .453-.4.815-.9.815s-.9-.362-.9-.815c0-.452.4-.814.9-.814s.9.362.9.814zm-.6 4.794v-.181c.3-.09.5-.362.4-.633 0-.272-.3-.452-.6-.543-.4-.09-.8.181-.8.633 0 .272.2.453.4.633v.272c0 .09.1.181.2.181.2 0 .4.181.3.452-.1.362-.7.271-.8 0-.1.362.2.543.5.543.4 0 .6-.272.7-.543.2-.633-.3-.814-.3-.814z" fill="#3C3C3B"/><path d="M1579.8 480.404h-.5v2.714h.5v-2.714zm1.3 0h-.5v2.714h.5v-2.714zm1.3 0h-.5v2.714h.5v-2.714zm1.2 0h-.5v2.714h.5v-2.714zm1.3 0h-.5v2.714h.5v-2.714z" fill="#CC7914"/><path d="M1457.8 458.786h1.2v-21.891c0-.271-.3-.542-.6-.542s-.6.271-.6.542v21.891zm-2.9 0h1.2v-21.891c0-.271-.3-.542-.6-.542s-.6.271-.6.542v21.891z" fill="#1D1D1B"/><path d="M1422 443.59h.8v-.995h-.8v.995z" fill="#DEDEDE"/><path d="M1421.4 445.309h2.9l-1.2-1.809c0-.091-.1-.091-.2-.091h-.9c-.1 0-.2.091-.2.181l-.4 1.719z" fill="#E6E6E6"/><path d="M1419.5 442.866h5.8c.2 0 .4-.181.4-.362s-.2-.361-.4-.361h-5.8c-.2 0-.4.18-.4.361s.2.362.4.362zm18.3 2.442h.6V416h-.2l-.4 29.308zm-3.1.001h.4v-14.292h-.2l-.2 14.292z" fill="#F6F6F6"/><path d="M1443.2 430.835h.8v-.905h-.8v.905z" fill="#DEDEDE"/><path d="M1442.8 431.74h2.7l-1.2-1.085c0-.091-.1-.091-.2-.091h-1c-.1 0-.2.091-.2.091l-.1 1.085z" fill="#E6E6E6"/><path d="M1440.7 430.021h5.8c.2 0 .4-.181.4-.362s-.2-.362-.4-.362h-5.8c-.2 0-.4.181-.4.362 0 .271.2.362.4.362z" fill="#F6F6F6"/><path d="M1442.5 430.292v1.718h5.3l-2.3 9.408.6.09.2-.814 3.2-2.261 2.6 2.171v.723h.6v-17.82h2.2c.1 0 .2-.09.2-.181 0-.09-.1-.181-.2-.181h-2.2v-2.351h-.4v-.453h.9v-.362h-3.3v.362h.9v.453h-.4l-.1.271h-2.1v1.99h-1.7c-.1 0-.2.09-.2.181 0 .09.1.181.2.181h3.2l-.5 2.08h-6v1.719h5.6l-.7 2.714h-5.5l-.1.362zm9.6-8.775v.453h-1.2l.1-.453h1.1zm-.7 4.433l.2.361h-1.3l.3-.361h.8zm-.6-.181l.3-.362.2.362h-.5zm.6-.724l.7-.904v1.537h-.3l-.4-.633zm-1.5 5.247l.7-.724.5.724h-1.2zm1.4.181l.2.361h-2.2l.4-.361h1.6zm-.4-1.267l1.2-1.357v2.352h-.5l-.7-.995zm1.2 1.267v.361h-.1l-.2-.361h.3zm0-4.162l-.2-.361h.2v.361zm0 9.318l-1.8-1.9 1.8-1.538v3.438zm-.2.361h-4.1l2.3-1.99 1.8 1.99zm-3.2-3.98h3l-1.7 1.448-1.3-1.448zm0-.542l.4-.453h2.5l.3.453h-3.2zm.2-.995h.3l-.4.361h-.1l.2-.361zm-5.3-3.981h5.6l-.1.453h-5.5v-.453zm5.7-.542l-.1.361h-5.6v-.361h5.7zm.2 1.899l.9 1.267-1 1.085h-.4l.5-2.352zm.2-.271h2.1l-1.2 1.357-.9-1.357zm.5-1.086h1.6l.3.453h-2.2l.3-.453zm-.3-.181l.1-.361h.2l-.3.361zm-1.4-3.346h1.5l-.1.361h-1.4v-.361zm0-.815h1.7l-.1.543h-1.6v-.543zm1.9-.723l-.1.543h-1.8v-.543h1.9zm.5 3.618l-.6.724h-.3l.4-1.628.5.904zm-.3-1.357h1.4l-.8.995-.6-.995zm.1-.723h1.4v.361h-1.5l.1-.361zm.2-.815h1.3v.543h-1.4l.1-.543zm1.2-1.175h-1v-.453h1v.453zm-2.3 17.367l2.3-1.628v3.528l-2.3-1.9zm-2.1-1.809h3.9l-2.1 1.538-1.8-1.538zm-.4.181l1.9 1.628-2.7 1.9.8-3.528zm1.1-4.432l1.4 1.447-2.2 1.809.8-3.256zm-5.6-1.267h5.3l-.1.453h-5.2v-.453zm0-.542h5.4l-.1.361h-5.4l.1-.361z" fill="#F6F6F6"/><path d="M1441.7 445.307h18.1v-5.246H1445l-3.3 5.246z" fill="#EDEDED"/><path d="M1448.3 445.309h2.2v-4.252c0-.09-.1-.271-.2-.271h-1.8c-.1 0-.2.091-.2.271v4.252z" fill="#C6C6C6"/><path d="M1448.8 441.147h1.2c.1 0 .2.091.2.181v1.086c0 .09-.1.181-.2.181h-1.2c-.1 0-.2-.091-.2-.181v-1.086c0-.09.1-.181.2-.181z" fill="#546C82"/><path d="M1421.2 446.032h39.5v-.723h-39.5v.723zm-.1-2.985v2.171h.2v-.633h6.3v.633h.2v-.633h6.4v.633h.2v-.633h6.4v.633h.2v-.633h6.4v.633h.2v-.633h6.4v.633h.2v-.633h6.3v.633h.2v-2.171h-39.6zm13.1.181v.452h-6.4v-.452h6.4zm6.6 0v.452h-6.4v-.452h6.4zm6.6 0v.452h-6.4v-.452h6.4zm6.5 0v.452h-6.4v-.452h6.4zm6.5.452h-6.3v-.452h6.3v.452zm-6.2.724v-.543h6.3v.543h-6.3zm-6.6 0v-.543h6.4v.543h-6.4zm-6.6 0v-.543h6.4v.543h-6.4zm-6.6 0v-.543h6.4v.543h-6.4zm-6.5 0v-.543h6.4v.543h-6.4zm-6.5-.543h6.3v.543h-6.3v-.543zm0-.633h6.3v.452h-6.3v-.452zm31 8.773h32.9v-.724h-32.9v.724zm6.5-2.803v.452h-6.5v.181h6.5v.542h-6.5v.181h6.5v.633h.2v-.633h6.4v.633h.2v-.633h6.4v.633h.2v-.633h6.4v.633h.2v-.633h5.4v.633h.2v-2.17h-32v.181h6.4zm13.2 0v.452h-6.4v-.452h6.4zm6.5 0v.452h-6.4v-.452h6.4zm5.7.452h-5.4v-.452h5.4v.452zm-5.5.814v-.543h5.4v.543h-5.4zm-6.5 0v-.543h6.4v.543h-6.4zm-6.6 0v-.543h6.4v.543h-6.4zm-6.6-.633h6.4v.542h-6.4v-.542zm0-.633h6.4v.452h-6.4v-.452zm-5.9 27.589h46.9v-.814h-46.9v.814zm45.3 8.232h.8v-8.232h-.8v8.232z" fill="#3C3C3B"/><path d="M1458.9 473.984v.452h-5.6v.181h5.6v.543h-5.6v.18h5.6v.634h.2v-.634h6.4v.634h.2v-.634h6.4v.634h.2v-.634h6.4v.634h.2v-.634h6.4v.634h.2v-.634h6.4v.634h.2v-.634h7.1v.634h.2v-2.171h-46v.181h5.5zm13.2 0v.452h-6.4v-.452h6.4zm6.5 0v.452h-6.4v-.452h6.4zm6.6 0v.452h-6.4v-.452h6.4zm6.6 0v.452h-6.4v-.452h6.4zm7.3.452h-7.1v-.452h7.1v.452zm-7.1.724v-.543h7.1v.543h-7.1zm-6.6 0v-.543h6.4v.543h-6.4zm-6.6 0v-.543h6.4v.543h-6.4zm-6.5 0v-.543h6.4v.543h-6.4zm-6.6 0v-.543h6.4v.543h-6.4zm-6.6-.543h6.4v.543h-6.4v-.543zm0-.633h6.4v.452h-6.4v-.452z" fill="#3C3C3B"/><path d="M1487.4 479.138c0-.181-.1-.362-.4-.362-1.8.181-7.8.453-12.3.453-5.1 0-12.7-.453-12.7-.453s.7 3.98 3.8 4.614c2.2.452 16.1.271 19 .271.3 0 .5-.181.6-.452.1-.633.3-1.448 1.7-2.081l.3-1.99z" fill="#FFA333"/><path d="M1485.2 481.038c-.2.905-1 1.99-2 1.99s-14.4.09-15.4 0-2.8-.181-3.6-.995c.5.814 1.8 1.176 3.8 1.266 1.7.091 14.4 0 15.2 0 1 0 1.8-.633 2-2.261zm-22.7-2.262c1.7.091 7.9.453 12.2.453 4 0 9.2-.181 11.6-.362 0 0-4.9 1.085-13 .904-8.1-.09-10.8-.995-10.8-.995z" fill="#C6C6C6"/><path d="M1481.3 484.295h2v-.633c0-.181-.1-.271-.3-.271h-1.4c-.2 0-.3.09-.3.271v.633zm-12.2 0h2v-.633c0-.181-.1-.271-.3-.271h-1.4c-.2 0-.3.09-.3.271v.633z" fill="#3C3C3B"/><path d="M1521.1 479.138c0-.181-.1-.362-.4-.362-1.8.181-7.9.453-12.3.453-5.1 0-12.7-.453-12.7-.453s.7 3.98 3.8 4.614c2.2.452 16.1.271 19 .271.3 0 .5-.181.6-.452.1-.633.3-1.448 1.7-2.081l.3-1.99z" fill="#FFA333"/><path d="M1519 481.038c-.2.905-1 1.99-2 1.99s-14.4.09-15.4 0-2.8-.181-3.6-.995c.5.814 1.8 1.176 3.8 1.266 1.7.091 14.4 0 15.2 0 .9 0 1.7-.633 2-2.261zm-22.8-2.262c1.7.091 7.9.453 12.2.453 4 0 9.2-.181 11.6-.362 0 0-4.9 1.085-13 .904-8.1-.09-10.8-.995-10.8-.995z" fill="#C6C6C6"/><path d="M1515 484.295h2v-.633c0-.181-.1-.271-.3-.271h-1.4c-.2 0-.3.09-.3.271v.633zm-12.2 0h2v-.633c0-.181-.1-.271-.3-.271h-1.4c-.2 0-.3.09-.3.271v.633zm-49.5-15.559v-.181h11.4v.181h-5.6v.452h5.6v.181h-5.6v.542h5.6v.181h-5.6v.633h-.2v-.542h-5.6v-.181h5.6v-.543h-5.6v-.181h5.6v-.452l-5.6-.09zm-.1 2.805h11.5v-.724h-11.5v.724z" fill="#3C3C3B"/><path d="M1416.2 457.068h.8v-.905h-.8v.905z" fill="#DEDEDE"/><path d="M1415.6 458.967h2.1l-.4-1.99c0-.09-.1-.09-.1-.09h-1c-.1 0-.1.09-.1.09l-.5 1.99zm1-4.703h-2.5v.181l2.5.542v-.723zm0-1.448h-2.5v.181l2.5.543v-.724z" fill="#E6E6E6"/><path d="M1416.6 456.073c.2 0 .3-.09.3-.271v-5.246c0-.181-.1-.272-.3-.272-.2 0-.3.091-.3.272v5.246c0 .09.2.271.3.271z" fill="#F6F6F6"/><path d="M1416.6 455.259c.7 0 1.2.362 1.2.723h-2.5c.1-.452.6-.723 1.3-.723z" fill="#E6E6E6"/><path d="M1413.7 456.344h5.8c.2 0 .4-.181.4-.362s-.2-.362-.4-.362h-5.8c-.2 0-.4.181-.4.362s.2.362.4.362zm.7-3.527h.6v-.543c0-.091-.1-.181-.2-.181h-.2c-.1 0-.2.09-.2.181v.543zm0 1.447h.6v-.543c0-.091-.1-.181-.2-.181h-.2c-.1 0-.2.09-.2.181v.543z" fill="#F6F6F6"/><path d="M1415.4 459.511h47.7v-.724h-47.7v.724zm0-2.987v2.171h.2v-.633h7.1v.633h.2v-.633h6.4v.633h.2v-.633h6.4v.633h.2v-.633h6.4v.633h.2v-.633h6.4v.633h.2v-.633h6.4v.633h.2v-.633h7.1v.633h.2v-2.171h-47.8zm13.9.181v.452h-6.4v-.452h6.4zm6.6 0v.452h-6.4v-.452h6.4zm6.5 0v.452h-6.4v-.452h6.4zm6.6 0v.452h-6.4v-.452h6.4zm6.6 0v.452h-6.4v-.452h6.4zm7.3.452h-7.1v-.452h7.1v.452zm-7.1.815v-.543h7.1v.543h-7.1zm-6.6 0v-.543h6.4v.543h-6.4zm-6.5 0v-.543h6.4v.543h-6.4zm-6.6 0v-.543h6.4v.543h-6.4zm-6.6 0v-.543h6.4v.543h-6.4zm-6.6 0v-.543h6.4v.543h-6.4zm-7.3-.634h7.1v.543h-7.1v-.543zm0-.633h7.1v.452h-7.1v-.452zm49.1 8.052l2.5-2.262h18.1v.724h-18.1l-2.5 2.261h-23v-.723h23z" fill="#3C3C3B"/><path d="M1445.7 462.766v.452h-4v.181h4v.543h-4v.18h4v.634h.2v-.634h6.4v.634h.2v-.634h6.4v.634h.2v-.634h5.4v.634h.2v-.634h.1l2.4-2.17v.633h.2v-.633h4.6v.633h.2v-.633h6.4v.633h.2v-.633h5.4v.633h.2v-2.262h-17.1l-2.5 2.262h-23.1v.181h4zm33.1-1.629h5.4v.543h-5.4v-.543zm0-.633h5.4v.452h-5.4v-.452zm-6.5.633h6.4v.543h-6.4v-.543zm0-.633h6.4v.452h-6.4v-.452zm-4.9.633h4.6v.543h-4.6v-.543zm0-.633h4.6v.452h-4.6v-.452zm-2.7 2.895l2.5-2.171v.543h-.1l-2.4 2.171v-.543zm0-.633l2.5-2.262v.452h-.1l-2.4 2.171v-.361zm-5.6.633h5.4v.543h-5.4v-.543zm0-.633h5.4v.452h-5.4v-.452zm-6.6.633h6.4v.543h-6.4v-.543zm0-.633h6.4v.452h-6.4v-.452zm-6.6.633h6.4v.543h-6.4v-.543zm0-.633h6.4v.452h-6.4v-.452zm14.6 19.449v.452h-4.9v.181h4.9v.543h-4.9v.181h4.9v.633h.2v-.633h6.4v.633h.2v-.633h6.4v.633h.2v-.633h6.4v.633h.2v-.633h6.4v.633h.2v-.633h6.4v.633h.2v-.633h6.4v.633h.2v-.633h6.4v.633h.2v-.633h6.4v.633h.2v-.633h6.4v.633h.2v-.633h6.4v.633h.2v-.633h6.4v.633h.2v-.633h7.1v.633h.2v-2.171h-85v.181h4.9zm72.6.633h7.1v.543h-7.1v-.543zm0-.633h7.1v.452h-7.1v-.452zm-6.5.633h6.4v.543h-6.4v-.543zm0-.633h6.4v.452h-6.4v-.452zm-6.6.633h6.4v.543h-6.4v-.543zm0-.633h6.4v.452h-6.4v-.452zm-6.6.633h6.4v.543h-6.4v-.543zm0-.633h6.4v.452h-6.4v-.452zm-6.6.633h6.4v.543h-6.4v-.543zm0-.633h6.4v.452h-6.4v-.452zm-6.6.633h6.4v.543h-6.4v-.543zm0-.633h6.4v.452h-6.4v-.452zm-26.5 0v.452h-6.4v-.452h6.4zm6.6 0v.452h-6.4v-.452h6.4zm6.6 0v.452h-6.4v-.452h6.4zm6.6 0v.452h-6.4v-.452h6.4zm6.5.543h-6.4v-.452h6.4v.452zm-6.4.724v-.634h6.4v.543h-6.4v.091zm-6.5 0v-.634h6.4v.543h-6.4v.091zm-6.6 0v-.634h6.4v.543h-6.4v.091zm-6.6 0v-.634h6.4v.543h-6.4v.091zm-6.6 0v-.634h6.4v.543h-6.4v.091zm-6.6-.634h6.4v.543h-6.4v-.543zm0-.633h6.4v.452h-6.4v-.452zm-106.2-6.151h21.4v-1.085c0-.724-.6-1.176-1.3-1.176h-18.7c-.8 0-1.3.542-1.3 1.176l-.1 1.085zm23.9.001l.6-1.628a.58.58 0 01.7-.362l27.5 1.267-28.8.723z" fill="#3C3C3B"/><path d="M1591.4 484.295l-3.3-1.537h-37.8l-9.9 1.537h8.2l1.6-.723h37l.8.723h3.4z" fill="#D65229"/><path d="M1516.6 502.748l-102.8.181c.3.361-33.7-.814-46.1-8.865l-16.4-13.478 1.6-5.247h57.6l4.9-15.739h26.3v6.06h11.5v13.478l5.8 5.247h132.4l5.8 2.985h6.5c1.4 0 2.5.995 2.5 2.261 0 .453-.2.905-.6 1.267-1.4 1.266-5.1 4.251-10.9 5.427l-12.4 5.247-22.2.723-43.5.453z" fill="#F6F6F6"/><path d="M1606.2 489.632c0 .452-.2.905-.6 1.266-1.1 1.086-3.9 3.347-8.1 4.704h-54.6l-13.2 2.985h-150.2c-7.5-1.176-8-2.171-11.8-4.523l-9.1-7.508h102.9l-2.5-2.261h132.4l5.8 2.985h6.5c1.4 0 2.5 1.086 2.5 2.352z" fill="#1D1D1B"/><path d="M1351.7 479.048l1.2-3.799h57.6l3.3 3.799h-62.1z" fill="#D65229"/><path d="M1435.1 464.033h2.5v-2.262h-2.5v2.262zm-6.5 0h2.5v-2.262h-2.5v2.262zm-7.4 0h2.5v-2.262h-2.5v2.262zm13.9 6.06h2.5v-2.262h-2.5v2.262zm-6.5 0h2.5v-2.262h-2.5v2.262zm-7.4 0h2.5v-2.262h-2.5v2.262zm13.9 5.971h2.5v-2.261h-2.5v2.261zm-6.5 0h2.5v-2.261h-2.5v2.261zm-7.4 0h2.5v-2.261h-2.5v2.261zm-5.8 0h1.6v-2.261h-1.6v2.261zm0-5.971h1.6v-2.262h-1.6v2.262zm19.7 11.942h2.5v-2.262h-2.5v2.262zm6.6-11.942h2.5v-2.262h-2.5v2.262zm0 5.971h2.5v-2.261h-2.5v2.261zm0 5.971h2.5v-2.262h-2.5v2.262zm6.6-11.942h2.5v-2.262h-2.5v2.262zm0 5.971h2.5v-2.261h-2.5v2.261zm0 5.971h2.5v-2.262h-2.5v2.262zm-19.7 0h2.5v-2.262h-2.5v2.262zm-7.4 0h2.5v-2.262h-2.5v2.262z" fill="#546C82"/><path d="M1461.5 486.556h134.3l-4.3-2.261h-132.4l2.4 2.261z" fill="#D65229"/><path d="M1335.33 600.054c-2.83-1.724 0-12.319.36-15.52.5-6.529.86-12.935 6.64-17.247 9.94-7.391 23.2-2.832 28.36 7.514 3.93 7.883 2.82 10.964 11.41 15.028 4.92 2.342 9.95 2.957 13.76 6.775 5.52 5.666 7.98 12.441 11.66 19.093 2.58 4.559 6.39 8.622 9.46 13.058 7.48 10.961 16.33 21.187 23.57 32.271 1.23 1.971 2.33 4.066 3.44 6.037 2.33 4.312 1.47 4.065.73 8.129-.36 2.093 1.85 2.217-.12 3.82-1.35 1.108-2.58-.123-4.05-.123-1.23-.124-2.33-1.357-3.44-1.357-1.47 0-2.33 1.849-4.3 1.726-2.57-.123-5.15-2.958-6.99-4.558-3.69-3.202-4.67-3.695-9.09-5.175-5.65-1.97-10.68-6.528-16.7-7.39-5.28-.739-12.03 1.231-16.08 2.588-3.32 1.108-11.67 3.571-15.96 1.231-4.91-2.588-8.48-9.237-13.14-12.441-2.46-1.724-4.79-1.601-7.12-4.682-2.46-3.202-4.18-7.268-6.14-10.715-3.32-5.175-7.25-10.47-8.23-16.506-1.23-7.021.98-14.535 1.97-21.556z" fill="#D3D3D3"/><path d="M1355.09 573.693c-3.07-1.48-7.49-1.48-9.08-4.805 3.19-1.847 11.42-3.571 14.85-1.354 5.65 3.694-2.21 5.051-5.77 6.159z" fill="#EEEDED"/><path d="M1366.76 662.258c-2.95-.246-8.72-1.601-8.11 3.325 2.83.246 5.65.492 8.35.739 0-1.355-.24-2.71-.24-4.064z" fill="#A3A3A2"/><path d="M1339.62 585.147c8.23 2.34 21.86 3.571 29.35-1.108 2.94 5.172-7.74 14.043-13.14 13.304-3.44-.493-4.54-3.081-7.73-4.928-3.56-2.094-7.49-2.217-8.48-7.268z" fill="#B8B7B7"/><path d="M1363.44 586.255c-5.4 1.231-12.28.246-17.92.369 6.5 3.82 12.52 7.022 17.92-.369z" fill="#A3A3A2"/><path d="M1348.1 596.357c-4.3-.615-9.58 0-13.39-2.339-3.8 6.898 13.02 3.694 16.21 3.447-.86-.369-1.84-.861-2.82-1.108z" fill="#EEEDED"/><path d="M1356.08 581.576c-3.2 1.232-1.6 5.541-.25 7.883 1.72-2.216 2.95-6.282.25-7.883z" fill="#231F20"/><path d="M1356.08 581.576c-1.23 1.478-.62 3.817-.25 6.036.74-2.095 1.35-4.558.25-6.036z" fill="#4A4445"/><path d="M1349.94 589.951c-.25.493-.62.985-.86 1.601.24.123.61.246.86.246.74-1.108 0-1.601 0-1.847zm1.35.37c-.25.985-1.11 1.355 0 1.724v-1.724zm-4.67-2.095c-.49.615-1.1 1.231-1.59 1.972.24.123.36.37.61.493.98-.862.86-1.973.98-2.465zm6.02 2.957c-.12.985-.25 1.972-.37 2.957h.74c.49-1.477-.25-2.219-.37-2.957zm1.47.616c-.12.985-.24 2.093-.37 3.081.25 0 .62 0 .86.123.5-1.603-.24-2.342-.49-3.204zm2.58.246c.12.862.24 1.724.24 2.586.38-.123.62-.246.99-.246.12-1.601-.99-1.848-1.23-2.34zm2.7-1.232c.25 1.109.61 2.094.98 3.081.37-.248.62-.371.99-.618-.25-.369-.37-.739-.62-1.108l1.48.369c.12-.246.36-.615.49-.862-1.23-1.108-2.09-.738-3.32-.862zm2.83-1.969c.37.615-.62 1.354 1.22 1.847.13-.246.25-.37.37-.616-.49-.369-.98-.739-1.59-1.231zm1.59-1.481c.49.37.98.616 1.6.985.24-.123.37-.369.61-.492-.86-.246-1.47-.37-2.21-.493z" fill="#D3D3D3"/><path d="M1343.8 575.662c2.82-1.972 6.26-.371 8.35 1.971-2.58 1.354-8.47 4.063-8.35-1.971z" fill="#231F20"/><path d="M1344.41 575.786c1.84-.862 7.37-.37 5.53 2.339-1.85 2.835-5.41.123-5.53-2.339z" fill="#EFB125"/><path d="M1368.11 575.662c-2.82-1.972-6.26-.371-8.35 1.971 2.7 1.477 8.47 4.186 8.35-1.971z" fill="#231F20"/><path d="M1367.49 575.909c-1.84-.862-7.36-.37-5.52 2.339 1.84 2.709 5.4 0 5.52-2.339z" fill="#EFB125"/><path d="M1351.41 578.495c1.84 4.928-7.61 6.775-7.74 1.108 2.58 2.463 5.65 1.971 7.74-1.108zm9.09.492c-1.36 4.559 5.64 4.805 7.85 1.724-2.7.37-5.52.616-7.85-1.724z" fill="#EEEDED"/><path d="M1352.64 565.438c.12.738.24 1.6.37 2.342.24 0 .61-.124.86-.124.12-.741.24-1.48.24-2.218h-1.47zm1.96-.983c.13.615.25 1.354.25 1.97 1.72-.862 1.11-.123 1.47-2.096-.61.126-1.23.126-1.72.126zm-3.19.369c0 .616.12 1.232.12 1.847-1.59-.369-1.1 0-1.84-1.477.62-.123 1.11-.247 1.72-.37zm3.56 2.709v1.478h.98c.87-1.847-.49-.739-.98-1.478zm2.7-1.723c-.12.615-.12 1.231-.24 1.847 2.21-.985.61-1.109.24-1.847zm-8.22.736c.12.492.25.985.25 1.478-.25.123-.5.246-.62.246-1.11-1.355.25-.985.37-1.724zm9.94 0c0 .985-.98 1.108.13 1.724 1.1-1.231-.13-1.108-.13-1.724zm1.97-.369c-.25.492-.37.862-.62 1.354 1.73-.246.74-.739.62-1.354zm-14.12 0c0 1.108 1.11 1.231 0 1.97-1.36-1.355 0-1.355 0-1.97z" fill="#4D484A"/><path d="M1348.83 573.937c.98.493 1.97.862 3.07 1.355-.24-1.971-1.35-2.463-3.07-1.355zm10.07 1.11c1.23.123 2.46.369 2.95-1.478-1.48 0-1.84.739-2.95 1.478z" fill="#B8B7B7"/><path d="M1443.99 667.06c-1.6-2.709-3.68-8.253-6.51-10.1-3.19-2.093-7.61.37-11.79 1.478-7.98 2.216-15.96.862-23.69 4.312 4.91 1.355 9.08 4.556 13.87 6.283 5.65 2.093 7.86 5.294 13.14 8.375 4.54 2.586 3.19.247 7.12.37 1.35 0 5.16 2.216 6.88 1.724 4.05-.985 2.82-8.746.98-12.442z" fill="#A3A3A2"/><path d="M1440.55 661.147c-4.3-5.667-4.05-5.667-10.8-3.694 4.91 5.667 9.57 11.824 14.97 17.244 3.44-3.694-2.21-10.1-4.17-13.55z" fill="#B8B7B7"/><path d="M1440.92 673.591c-2.46-3.204-9.21-14.661-12.77-15.769-2.09-.493-6.75 1.849-9.21 2.096-3.56.369-7.12-.001-10.68.615 6.51 4.803 11.66 9.361 17.31 14.289 3.56 3.078 5.28 3.817 9.46 3.94.61 0 1.22-1.108 1.96-1.108.98 0 1.96 1.232 2.95 1.232 2.33.123 3.43 1.354 5.52-.247-1.47-1.724-3.07-3.448-4.54-5.048z" fill="#848484"/><path d="M1443.38 679.625c-3.81-4.066-7.86-8.007-11.18-12.442-1.1-1.601-4.05-8.253-5.77-8.868-1.35-.493-4.79 1.354-6.38 1.6 5.15 6.16 10.19 12.442 15.22 18.601 2.09-1.972 5.4.616 8.11 1.109z" fill="#D3D3D3"/><path d="M1432.45 656.715c4.54 5.171 9.08 10.345 13.5 15.643 0-4.312-8.96-18.109-13.5-15.643z" fill="#848484"/><path d="M1366.39 595.988c-5.65.37-11.17.247-16.33 2.833-6.63 3.327-6.26 8.252-5.16 15.397 1.84 11.702 11.3 22.664 20.63 29.439 8.84 6.406 21.73 8.499 32.54 10.348 5.52.986 11.42 2.094 16.57 3.571 2.46.616 14 7.145 13.14-.123 2.7.985 9.7 3.697 10.68-1.354.86-4.189-7-6.652-9.7-8.13-8.59-5.051-13.87-11.333-20.63-18.724-6.13-6.652-12.15-13.304-18.29-19.955-7.49-8.007-12.65-11.208-23.45-13.302z" fill="#D3D3D3"/><path d="M1375.11 588.718c2.21.985 18.04 6.405 17.68 7.637-1.72 5.42-16.09-5.541-17.68-7.637z" fill="#EEEDED"/><path d="M1370.81 594.631c1.72-.739 2.82-1.109 4.18-.37-1.48 1.603-2.95 1.973-4.18.37zm4.05-2.094c.37.37.74.616 1.11.986.24-.247.61-.493.86-.739-.86-1.478-.99-.123-1.97-.247zm1.72 1.85c-.74.492-.98 1.108-1.96 1.231 2.21.739 4.29-.123 1.96-1.231zm2.95.367c-.25.492-.49.985-.74 1.478.37.246.61.492.99.738 1.59-1.477.24-1.108-.25-2.216zm-6.39-4.31c-.61 1.109-.37 2.463-2.58.616.86-.123 1.72-.369 2.58-.616z" fill="#4D484A"/><path d="M1400.9 661.393c-7.74-2.339-15.84-3.448-23.7-5.543-8.84-2.34-12.65-3.941-18.79-10.962-4.78-5.297-9.94-9.115-13.62-14.535-4.92-7.145-8.11-12.688-10.69-21.064-1.47 10.223-.12 15.766 4.91 24.635 2.7 4.805 5.16 10.471 8.6 14.904 2.94 3.943 5.89 3.82 9.33 6.16 3.31 2.339 6.02 8.006 9.09 9.979 4.05 2.709 7.85 1.6 12.4 1.231 5.64-.369 6.01-2.711 11.91-3.45 2.57-.247 10.43-.123 10.56-1.355z" fill="#B8B7B7"/><path d="M1366.76 663.735c-3.07 0-7.25-.369-9.82 1.601-2.46 1.847-3.81 4.805.49 5.79 2.33.616 5.4-1.724 7.73-2.339 3.07-.616 5.89.862 7.37-2.835-1.72-.862-3.69-1.847-5.77-2.217z" fill="#D3D3D3"/><path d="M1365.16 670.265c.37-4.805 11.54-5.421 10.81-.742-.49 3.081-8.6 2.219-10.81.742z" fill="#D3D3D3"/><path d="M1355.34 667.309c-2.46 0-4.67 1.231-4.55 3.817 1.6-.985 3.44-1.601 5.41-1.847-.25-.739-.49-1.355-.86-1.97zm15.23 2.213c-2.58.247-2.34 2.712-1.48 5.298 1.35-1.601 1.97-3.325 1.48-5.298z" fill="#4D484A"/><path d="M1415.26 639.96c.86-.123 1.59-.247 2.45-.493-8.84-9.607-17.56-19.214-26.52-28.824-5.52-5.91-8.59-10.223-16.33-12.685-6.26-1.973-11.66-1.85-18.17-1.48 5.03 1.849 10.44 3.327 14.98 6.282 5.16 3.45 9.95 8.499 14.49 12.811 5.4 5.174 9.94 11.211 15.47 16.136 4.05 3.574 8.72 5.667 13.63 8.253z" fill="#EEEDED"/><path d="M1369.83 641.933c-12.65-12.935-18.79-23.65-22.23-41.389-9.7 3.081.74 23.159 3.81 28.331 5.16 8.871 13.63 15.892 23.21 19.094-1.6-2.094-3.2-4.066-4.79-6.036z" fill="#B8B7B7"/><path d="M1421.27 643.534c-3.07-6.16-8.22.862-12.52 2.339-3.93 1.355-9.82 1.601-13.88 1.601-10.43 0-20.99-2.832-31.06-5.297 8.72 7.885 22.84 9.855 34.26 11.826 5.52.985 11.42 2.093 16.57 3.573 2.46.616 14 7.144 13.14-.123 3.56 1.231 13.51 2.955 10.07-4.312-1.72-3.571-13.02-7.514-16.58-9.607z" fill="#B8B7B7"/><path d="M1421.27 643.533c-2.7-5.667-8.47 0-12.15 2.094 6.26 4.189 12.4 8.375 18.54 12.688v-.862c3.56 1.231 13.5 2.955 10.06-4.313-1.59-3.571-12.89-7.513-16.45-9.607z" fill="#A3A3A2"/><path d="M1416.36 641.687c-.98.246-2.21 1.231-3.07 1.723 4.06 3.079 19.03 17.245 23.95 13.92 4.42-2.958-5.04-4.805-7.13-6.036-4.91-2.589-9.33-6.406-13.75-9.607zm-2.82 11.577c-3.44-3.82-4.67-6.406-9.46-6.775-2.94-.247-6.13.985-9.21.985-6.5 0-14.48-.862-20.74-2.832 2.45 6.649 12.89 7.39 19.03 8.499 6.38 1.108 17.06 5.294 23.08 4.309-.74-1.354-1.72-2.832-2.7-4.186z" fill="#EEEDED"/><path d="M1400.03 646.985c4.54 7.021 5.53 7.883 13.14 10.715-3.93-5.418-6.02-12.439-13.14-10.715z" fill="#A3A3A2"/><path d="M1389.96 652.528c1.6.369 3.19.616 4.79.862-2.09-3.327-3.19-7.637-7.86-6.898.99 2.093 1.97 4.066 3.07 6.036z" fill="#B8B7B7"/><path d="M1381.37 650.062l5.52 1.847c-1.96-5.664-1.84-5.541-7.85-6.28.73 1.478 1.47 2.955 2.33 4.433z" fill="#A3A3A2"/><path d="M1391.19 598.571c3.07.618 5.65.741 7.61 3.451-2.45 1.724-7.85-.986-7.61-3.451zm-4.42-.367c5.16 1.478.49 2.588-2.33.37.86-.124 1.6-.247 2.33-.37zm-3.93-1.847c1.23 2.094-.37 2.956-2.33 1.847.86-.615 1.59-1.231 2.33-1.847zm4.67 4.679c-.74.495-1.35 1.357-2.09 1.85 2.21 1.108 3.93.246 2.09-1.85zm4.66.865c-1.22.985-.73 2.094-2.58 2.463 1.72 2.709 6.02-.369 2.58-2.463zm9.46 7.388c-1.11-1.232-2.58-1.847-4.18-2.094.25 2.217 2.34 2.709 4.55 3.943-.13-.616-.25-1.234-.37-1.849zm-4.3.369c2.21.739 3.07 1.97 1.72 3.697-.98-.616-2.46-1.973-3.07-2.835.37-.369.86-.616 1.35-.862zm-1.35-.984c-1.59-.247-2.7.123-2.09-2.34.62.739 1.36 1.478 2.09 2.34zm-44.57-6.898a14.67 14.67 0 015.53-1.847c-.37 2.339-2.95 2.955-5.53 1.847zm10.8-3.695c-5.52-.616-3.8 2.955 1.48 1.231-.49-.369-.99-.862-1.48-1.231zm4.79-.002c-.49.246-.98.372-1.59.618 1.72.493 2.09.493 3.8-.372-.61-.123-1.35-.246-2.21-.246zm.37 2.096c-1.35-.123-2.82 0-4.17.37 1.72 1.354 2.7.615 4.17-.37zm4.79-1.355c-1.11.616-1.84.862-2.09 2.094 1.84 0 2.21-.124 3.44-1.478-.49-.246-.86-.369-1.35-.616zm-11.17 2.34c-1.35.123-2.58.739-3.69 1.478 1.97 1.111 2.58.123 3.69-1.478zm-12.04 1.357c-.86.369-1.71.615-2.57.985 2.21 1.108 1.96-.247 2.57-.985zm4.06.862c-1.23.369-2.33 1.354-3.07 2.34 2.09 1.354 5.65-.124 3.07-2.34zm6.14 1.477c-.99.37-1.97.986-2.95 1.478 1.84 1.231 2.95.985 2.95-1.478zm5.77-1.477c-1.23.492-2.21 1.354-2.95 2.34 2.09 1.354 3.81.615 4.54-1.724-.49-.247-1.1-.493-1.59-.616zm-17.44 7.759c1.35-.123 2.58.37 3.93 0-1.23 1.848-3.19 2.094-3.93 0zm8.1.493c1.48-.369 3.2-.369 4.67-.738.61 3.201-3.68 3.571-4.67.738zm12.28-3.573c-1.47.738-2.45 1.849-3.93 2.465 1.85 2.462 5.77.492 3.93-2.465zm4.05-4.557c-1.1.862-1.96 1.108-1.59 2.586 1.47-.246 1.72-.862 2.82-1.724-.37-.37-.86-.616-1.23-.862zm-20.13 5.296c1.6.862 2.46 1.477 3.93-.247-1.47-.862-2.33-.492-3.93.247zm2.95 4.928c-1.48.738-3.07 1.231-4.67 1.6 1.84 2.094 5.4 1.478 4.67-1.6zm-3.44 4.186c-.86.372-1.84.864-2.7 1.234 1.47 1.847 2.7 1.354 3.8-.739-.37-.123-.73-.372-1.1-.495zm14.24-3.817c-1.1.492-2.33 1.601-3.31 2.463 2.21 2.342 5.15.618 5.52-2.34-.74-.123-1.47-.123-2.21-.123zm9.33-1.357c1.6-.862 2.82-.739 3.93-2.586 1.1 3.204-1.6 5.298-3.93 2.586zm5.4-9.85c-1.1.739-1.59 1.847-2.94 2.462 2.33 1.355 5.52-.615 2.94-2.462zm-17.68 18.598c-1.47 0-3.07.369-4.54.369 2.09 2.586 6.02 2.955 7.12-.616-.86.123-1.72.123-2.58.247zm12.77-2.71c-1.35.862-2.08 2.094-3.68 2.709 2.58 2.956 8.35-1.847 3.68-2.709zm-2.21-2.834c-1.23.37-2.45 1.111-3.56 1.604 1.97.862 3.69.369 5.04-1.48-.49-.124-.98-.124-1.48-.124zm12.16-6.157c-1.11.985-1.6 2.217-2.95 2.956 2.58 1.477 5.89-1.109 2.95-2.956zm-2.7 5.295c-1.23.616-2.34 1.724-3.32 2.588 2.09.862 4.05.247 5.04-1.849-.62-.246-1.23-.493-1.72-.739zm-11.67 9.977c-1.59.123-3.19.615-4.79.739 1.84 2.339 4.55 2.462 6.39 0-.62-.247-1.11-.493-1.6-.739zm-8.59 1.233c-1.84.616-3.81.739-5.65.739 1.35 3.201 5.4 2.586 5.65-.739zm-7.25-3.696c-1.35-.246-2.7-.123-3.93.369 1.6 2.096 4.79 2.219 3.93-.369zm27.75-2.955c-.98 1.724-2.7 2.832-4.66 2.832 2.82 2.834 8.35.616 4.66-2.832zm7.98-4.559c-7.12 5.051 6.63 1.97 0 0zm1.11 7.268c-1.23.618-1.84 1.849-3.32 2.465 2.21 2.216 4.91.123 3.32-2.465zm-11.05 4.804a8.993 8.993 0 01-4.67 1.724c1.72 3.202 6.14 1.355 4.67-1.724zm-12.28 3.574c-1.72.615-3.44.985-5.28.985 1.84 2.586 6.14 2.832 5.28-.985zm6.88 2.832c-.74.246-1.48.615-2.34.862-1.1 2.093 3.32.369 3.93-.616-.49 0-1.1-.123-1.59-.246zm13.5-4.802c-1.35 1.354-2.94 2.586-4.66 3.448 2.58 3.45 8.59-1.232 4.66-3.448zm10.19-4.436c-11.91 5.788 8.23 2.094 0 0zm-.12 6.898c-10.68.739 1.6 5.172 0 0zm4.79-3.203c-.98.492-1.84 1.6-2.58 2.462 1.84.988 3.56.247 4.79-1.6-.61-.247-1.35-.616-2.21-.862zm-40.64 8.868c1.35.492 7.24-.616 5.52 1.231-1.59 1.85-6.63 1.85-5.52-1.231zm-1.72-3.818c-.61 2.709-3.56 2.709-4.79.247 1.47-.124 3.32-.493 4.79-.247zm13.26 4.064c-5.16 1.108-1.35 4.187 1.59 1.108-.61-.369-1.1-.739-1.59-1.108zm7.86-2.463c-1.48.493-2.7 1.355-3.56 2.709 1.96 1.231 4.05.493 5.4-1.478-.61-.369-1.23-.738-1.84-1.231zm8.1 1.478c-1.1.493-1.84.862-2.09 1.97 2.34 1.355 4.91.247 4.55-2.586-.86.247-1.72.493-2.46.616zm13.87 2.586c-1.35.372-2.7 1.357-4.17 1.727 1.96 2.463 6.26 1.108 4.17-1.727zm.99-5.172c-.61.369-1.35.862-1.97 1.231 1.72 1.847 3.32.862 3.69-1.6-.49.246-1.11.246-1.72.369zm-12.16 8.5c-1.23.246-2.21.615-2.94 1.6 1.84 1.601 3.68 1.355 4.66-.985-.61-.246-1.23-.492-1.72-.615zm-57.58-31.414c1.22-1.108 2.33-1.724 3.8-1.231-.73 1.847-2.09 2.216-3.8 1.231zm-1.35 3.202c1.1-.369 2.58-.246 3.68-.369-.86 2.218-2.94 3.45-3.68.369zm1.71-8.373c1.48.985 1.97 1.847 3.32-.123-1.11 0-2.21 0-3.32.123zm4.55 8.745c-.98.615-1.72.985-2.46 1.847 2.33.616 2.09-.37 2.46-1.847zm-.99 6.157c-1.1.126-2.33.495-3.43.741.86 2.094 3.8 1.478 3.43-.741zm-2.33-2.955c-.98 0-2.08.123-3.07.123.37 1.85 1.85 1.85 3.69.988a9.89 9.89 0 00-.62-1.111zm5.28-.369c-3.44 2.093.37 2.957 0 0zm1.23 6.281c-.49.247-1.1.493-1.6.739 0 2.712 2.83-.985 2.83-.985-.37 0-.86.123-1.23.246zm-4.05 3.571c-.86.123-1.84.247-2.7.247 1.35 1.849 3.07 1.48 2.7-.247zm7.61 1.853c-3.19 3.078.49 3.201 1.6.246-.62-.123-1.11-.123-1.6-.246zm-6.01 4.8c1.22-.37 2.7-.123 3.92-.246-.36 2.095-2.21 2.342-3.92.246z" fill="#4D484A"/><path d="M1347.48 578.372a1.23 1.23 0 10-.002-2.464 1.23 1.23 0 00.002 2.464zm16.82 0a1.23 1.23 0 10-.002-2.464 1.23 1.23 0 00.002 2.464z" fill="#231F20"/></g><defs><linearGradient id="paint0_linear" x1="1745.59" y1="638.37" x2="1755.86" y2="638.37" gradientUnits="userSpaceOnUse"><stop offset=".001" stop-color="#fff" stop-opacity=".05"/><stop offset=".382" stop-color="#ACC0CD" stop-opacity=".413"/><stop offset=".807" stop-color="#557E99" stop-opacity=".816"/><stop offset="1" stop-color="#336484"/></linearGradient><linearGradient id="paint1_linear" x1="10" y1="28.349" x2="1934" y2="28.349" gradientUnits="userSpaceOnUse"><stop stop-color="#C8E9FA"/><stop offset=".741" stop-color="#C8E9FA"/></linearGradient><linearGradient id="paint2_linear" x1="972" y1="745" x2="972" y2="46" gradientUnits="userSpaceOnUse"><stop stop-color="#fff"/><stop offset=".741" stop-color="#C8E9FA"/></linearGradient><linearGradient id="paint3_linear" x1="1060.91" y1="245.21" x2="1640.4" y2="245.21" gradientUnits="userSpaceOnUse"><stop offset=".085" stop-color="#1A1A1A"/><stop offset=".92" stop-color="#fff"/></linearGradient><linearGradient id="paint4_linear" x1="1060.91" y1="245.21" x2="1640.4" y2="245.21" gradientUnits="userSpaceOnUse"><stop offset=".085" stop-color="#fff"/><stop offset=".92" stop-color="#C8E9FA"/></linearGradient><linearGradient id="paint5_linear" x1="1317.95" y1="336.423" x2="240.8" y2="336.423" gradientUnits="userSpaceOnUse"><stop offset=".085" stop-color="#1A1A1A"/><stop offset=".92" stop-color="#fff"/></linearGradient><linearGradient id="paint6_linear" x1="1317.95" y1="336.423" x2="240.8" y2="336.423" gradientUnits="userSpaceOnUse"><stop offset=".085" stop-color="#fff"/><stop offset=".92" stop-color="#C8E9FA"/></linearGradient><linearGradient id="paint7_linear" x1="1744.85" y1="121.199" x2="130.912" y2="121.199" gradientUnits="userSpaceOnUse"><stop offset=".085" stop-color="#fff"/><stop offset=".92" stop-color="#C8E9FA"/></linearGradient><linearGradient id="paint8_linear" x1="825.2" y1="501.471" x2="825.2" y2="744.711" gradientUnits="userSpaceOnUse"><stop stop-color="#E6E6E6"/><stop offset=".844" stop-color="#E6E6E6"/></linearGradient><linearGradient id="paint9_linear" x1="972" y1="501.001" x2="972" y2="745.001" gradientUnits="userSpaceOnUse"><stop stop-color="#409CCB"/><stop offset=".844" stop-color="#3E5680"/></linearGradient><linearGradient id="paint10_linear" x1="641.364" y1="200.967" x2="132.564" y2="200.967" gradientUnits="userSpaceOnUse"><stop offset=".099" stop-color="#fff"/><stop offset=".92" stop-color="#C8E9FA"/></linearGradient><linearGradient id="paint11_linear" x1="972" y1="569" x2="972" y2="745" gradientUnits="userSpaceOnUse"><stop offset=".318" stop-color="#fff"/><stop offset="1" stop-color="#B5E0F1"/></linearGradient><linearGradient id="paint12_linear" x1="1149.5" y1="525.75" x2="1640.41" y2="525.75" gradientUnits="userSpaceOnUse"><stop stop-color="#409CCB"/><stop offset=".844" stop-color="#3E5680"/></linearGradient><linearGradient id="paint13_linear" x1="397.8" y1="564.992" x2="949.806" y2="564.992" gradientUnits="userSpaceOnUse"><stop stop-color="#E6E6E6"/><stop offset=".844" stop-color="#333"/></linearGradient><linearGradient id="paint14_linear" x1="397.8" y1="564.992" x2="949.806" y2="564.992" gradientUnits="userSpaceOnUse"><stop stop-color="#409CCB"/><stop offset=".844" stop-color="#3E5680"/></linearGradient><linearGradient id="paint15_linear" x1="295.6" y1="555.255" x2="346.84" y2="555.255" gradientUnits="userSpaceOnUse"><stop stop-color="#E6E6E6"/><stop offset=".844" stop-color="#333"/></linearGradient><linearGradient id="paint16_linear" x1="295.6" y1="555.255" x2="346.84" y2="555.255" gradientUnits="userSpaceOnUse"><stop stop-color="#409CCB"/><stop offset=".844" stop-color="#3E5680"/></linearGradient><linearGradient id="paint17_linear" x1="240.799" y1="575.926" x2="968.985" y2="575.926" gradientUnits="userSpaceOnUse"><stop stop-color="#409CCB"/><stop offset=".844" stop-color="#3E5680"/></linearGradient><clipPath id="clip0"><path fill="#fff" d="M0 0h1934v844H0z"/></clipPath></defs></svg>