<svg width="320" height="518" fill="none" xmlns="http://www.w3.org/2000/svg"><path opacity=".44" d="M270.375 307.748h-81.308c2.07 1.83 4.29 3.382 5.4 8.815.496 2.44 2.186 17.576 2.518 20.015.529 3.937 1.788-5.766 2.335-7.207.778-2.052 3.462-10.368 4.455-11.532.48-.555.976-.998 1.341-2.052.298-.831.465-1.885.713-2.827.596-2.273 1.673-2.329 2.6-2.218 1.126.111 3.297 10.756 3.71 7.928.364-2.606 3.18-8.981 4.853-10.312.894-.61 2.119-.444 3.015.111 1.755.998 6.046 1.22 7.75 2.827 1.707 1.553 2.502 2.828 5.268 2.274.811-.167 2.799 2.051 3.412 1.275 2.021-2.44 2.684 4.213 4.423 2.716 5.664-4.768 4.969.167 6.724 1.497.829.61 1.358 5.157 1.606 5.489.696 1.054 1.111-3.326 1.906-3.659 1.672-.665 3.279-2.273 4.952-2.661 1.739-.444 7.684-1.109 8.397-2.273 1.607-2.606 5.995-7.097 5.93-8.206z" fill="url(#paint0_linear)"/><path opacity=".44" d="M38.56 333.086v10.867c10.467 5.101 23.436 14.193 26.036 14.304 2.385.111 3.23-.832 6.145-.166 2.849.665 3.627 2.55 7.023 4.324 2.815 1.497 3.693.777 6.244 2.218 4.604 2.661 10.07 9.814 10.517 8.982 1.839-3.216 7.619-9.703 8.282-13.584 1.258-7.207-.183-13.029-.183-13.029 2.137-1.94 5.93 2.384 16.248 3.937 3.843.554 8.464-.167 11.91.277 9.208 1.109 9.705 2.661 12.356 1.885 4.074-1.22 6.327-4.38 10.583-10.368 3.76-5.267 5.632-7.928 5.433-9.592l-120.595-.055z" fill="url(#paint1_linear)"/><path d="M318.688 0H0v457h318.688V0z" fill="url(#paint2_linear)"/><path d="M270.375 162.155c-29.946-15.358-59.693-17.576-83.909-12.919-16.05 3.105-16.148-3.881.017-3.714 40.414.388 51.46-14.915 83.892.776v15.857z" fill="url(#paint3_linear)"/><path opacity=".5" d="M248.714 409.209c-.629-2.772-1.921-3.881-2.799-5.821-.928-2.052-2.071-2.44-3.015-4.325-.828-1.663-1.507-4.158-2.12-6.598-.596-2.439-1.142-4.989-1.706-7.484a.956.956 0 00-.065-.278c-.084-.221-.183-.055-.233.167a1.917 1.917 0 00-.05.554c.199 3.604.613 7.041 1.193 10.146.514 2.717 1.159 5.156 1.905 7.152.828 2.218 1.756 3.771 2.7 5.378.96 1.664 1.921 3.382 2.716 5.877.762 2.329 1.64 3.937 2.07 7.097.084.61 4.091 20.902 4.108 20.348.083-4.159-3.975-28.997-4.704-32.213z" fill="#B5E0F1"/><path d="M142.994 467c110.714 0 176.01-141.612 176.01-326.761V1c-7.566 0-92.285.733-175.224.733C60.833 1.733 8.072 1 .996 1v129.712C.996 315.861 32.28 467 142.994 467z" fill="#DCEFF9" stroke="#fff" stroke-width=".25" stroke-miterlimit="10"/><path d="M157.117 314.135c78.409 0 141.912-60.335 141.912-134.691S235.526 44.753 157.117 44.753c-78.41 0-141.911 60.335-141.911 134.691s63.502 134.691 141.911 134.691z" fill="#FFFCE8" fill-opacity=".5"/><path d="M157.118 275.146c55.65 0 100.768-42.877 100.768-95.704 0-52.827-45.118-95.704-100.768-95.704-55.651 0-100.77 42.877-100.77 95.704 0 52.827 45.119 95.704 100.77 95.704z" fill="#FFF7BD" fill-opacity=".5"/><path d="M155.128 229.375c29.118 0 52.671-22.343 52.671-50.023 0-27.68-23.553-50.023-52.671-50.023-29.117 0-52.669 22.343-52.669 50.023 0 27.68 23.552 50.023 52.669 50.023z" fill="#FEF4A2"/><g opacity=".44"><path opacity=".44" d="M155.991 333.086H64.564c2.335 1.663 4.82 3.105 6.078 8.039.563 2.218 2.468 16.079 2.832 18.296.58 3.604 2.021-5.267 2.617-6.597.878-1.885 3.893-9.481 5.002-10.535.53-.499 1.093-.942 1.507-1.885.332-.776.53-1.718.796-2.605.662-2.052 1.871-2.107 2.915-2.052 1.275.111 3.693 9.869 4.157 7.208.414-2.384 3.561-8.206 5.466-9.426 1.01-.554 2.384-.388 3.395.111 1.971.943 6.807 1.109 8.713 2.551 1.921 1.441 2.798 2.606 5.928 2.107.911-.167 3.147 1.829 3.843 1.164 2.286-2.218 3.031 3.825 4.969 2.495 6.378-4.38 5.582.111 7.57 1.33.927.555 1.523 4.713 1.804 5.046.78.942 1.259-3.05 2.137-3.327 1.873-.61 3.677-2.051 5.565-2.439 1.955-.388 8.646-.998 9.441-2.052 1.823-2.328 6.774-6.431 6.692-7.429z" fill="url(#paint4_linear)"/><path opacity=".44" d="M155.991 333.086H64.564c2.335 1.663 4.82 3.105 6.078 8.039.563 2.218 2.468 16.079 2.832 18.296.58 3.604 2.021-5.267 2.617-6.597.878-1.885 3.893-9.481 5.002-10.535.53-.499 1.093-.942 1.507-1.885.332-.776.53-1.718.796-2.605.662-2.052 1.871-2.107 2.915-2.052 1.275.111 3.693 9.869 4.157 7.208.414-2.384 3.561-8.206 5.466-9.426 1.01-.554 2.384-.388 3.395.111 1.971.943 6.807 1.109 8.713 2.551 1.921 1.441 2.798 2.606 5.928 2.107.911-.167 3.147 1.829 3.843 1.164 2.286-2.218 3.031 3.825 4.969 2.495 6.378-4.38 5.582.111 7.57 1.33.927.555 1.523 4.713 1.804 5.046.78.942 1.259-3.05 2.137-3.327 1.873-.61 3.677-2.051 5.565-2.439 1.955-.388 8.646-.998 9.441-2.052 1.823-2.328 6.774-6.431 6.692-7.429z" fill="url(#paint5_linear)"/><path opacity=".44" d="M47.636 333.086c.497.333.927 1.663 1.043 2.661.166 1.442.298 2.939.398 4.436.099 1.386.099 2.772.298 4.102.083.61.215 1.054.364 1.608.182.666.282 1.331.249 2.107-.017.166-.033.388.033.333.166-.056.497-.776.63-1.331a39.22 39.22 0 00.53-2.328c.132-.721.248-1.442.33-2.218.067-.776.1-1.553.216-2.329a9.88 9.88 0 011.027-3.216c1.01-1.94 2.318-1.995 3.379-3.825h-8.497z" fill="url(#paint6_linear)"/><path opacity=".44" d="M47.636 333.086c.497.333.927 1.663 1.043 2.661.166 1.442.298 2.939.398 4.436.099 1.386.099 2.772.298 4.102.083.61.215 1.054.364 1.608.182.666.282 1.331.249 2.107-.017.166-.033.388.033.333.166-.056.497-.776.63-1.331a39.22 39.22 0 00.53-2.328c.132-.721.248-1.442.33-2.218.067-.776.1-1.553.216-2.329a9.88 9.88 0 011.027-3.216c1.01-1.94 2.318-1.995 3.379-3.825h-8.497z" fill="url(#paint7_linear)"/></g><path opacity=".6" d="M.333 304.2v-56.662c9.39-22.289 35.13-50.121 35.13-50.121 2.98 4.546 16.563 25.947 19.378 24.395 4.422-2.384 10.054-10.091 10.865-11.421 1.69-2.828 13.748-.167 18.253 2.106 0 0 8.662-10.09 12.753-9.924 2.352.111 9.474 17.298 23.668 50.01 1.078 2.495 8.894-7.651 8.894-7.651 5.152 4.712 9.442 29.551 9.442 29.551 3.626 5.045 3.278 25.337 4.637 29.773L.333 304.2zm318.67 3.26V162.198l-37.674 22.433c-3.193 5.194-17.764 29.837-20.79 28.069-4.74-2.763-10.78-11.603-11.644-13.15-1.813-3.26-14.737-.221-19.577 2.431 0 0-9.281-11.603-13.673-11.382-2.528.11-10.162 19.946-25.382 57.519-1.163 2.873-9.53-8.841-9.53-8.841-5.523 5.415-10.129 33.981-10.129 33.981-3.893 5.802-3.526 29.119-4.974 34.202h153.373z" fill="#ACDCF6"/><path d="M270.375 307.748H.333v149.086h270.042V307.748z" fill="url(#paint8_linear)"/><path d="M318.671 307H0v149.552h318.671V307z" fill="url(#paint9_linear)"/><path opacity=".6" d="M95.768 231.902c-.398-1.386-.862-2.44-1.292-3.66a20.815 20.815 0 01-1.16-4.324c-.281-1.83-.447-3.826-.38-5.877 0-.166.016-.333.033-.555.149-1.552.116-3.271.165-4.934.033-1.164-.149-1.386-.165-.277-.083 3.493-.878 7.041-.878 10.589 0 3.161.414 6.155.977 8.594.298 1.275.63 2.495 1.01 3.548.414 1.165.878 2.218 1.243 3.549.728 2.661 1.093 6.431 1.325 9.924.281 4.269.447 9.924.248 14.249-.05 1.109.15.887.232-.277.514-8.317.53-17.964-.447-25.837-.249-1.718-.53-3.326-.911-4.712zm25.971 43.189c-1.442 5.655-2.899 7.484-6.162 9.037-1.011.499-2.037 1.386-2.849 3.659-.215.61-.398 1.275-.563 2.051a4.67 4.67 0 00-.116.555 55.86 55.86 0 00-.794 5.211c-.117 1.109.049 1.165.164.056.183-1.719.613-3.715.944-5.212.298-.942.928-.388 1.326-.554.398-.166.81-.333 1.208-.499a6.59 6.59 0 002.601-1.996c1.74-2.218 2.932-6.986 4.207-11.31.232-.777.282-1.83.034-.998zm24.181 16.301c-.612-1.608-1.159-2.717-1.407-5.212-.149-1.497.082-5.322.132-6.819.05-1.442.166-2.883 0-4.214-.281-2.384-.845-3.77-1.507-4.934-.845-1.442-1.74-2.606-2.667-3.327-.231-.166-.331-.055-.132.277.761 1.22 1.904 2.939 2.418 4.768.513 1.83.397 4.602.546 7.097.1 1.497-.017 3.659.133 5.045.116 1.165.298 2.273.53 3.271.463 2.052 1.159 3.771 1.904 4.491.216.167.233.056.05-.443z" fill="#A9D5E4"/><path d="M305.758 365.889c-3.634-1.72-4.68-3.329-9.212-9.655-4.515-6.27-21.112 4.55-25.99 6.603-4.88-2.053-21.494-12.817-25.993-6.603-4.531 6.326-5.576 7.935-9.211 9.655-10.373 4.882-18.987-7.99-22.075-1.11-.598 1.332 1.643 20.807.398 34.679-.996 11.041-46.223 17.034-47.236 10.431-1.676-10.82.83-21.362 0-23.97-2.639-8.489-11.883-3.274-12.349-6.603-1.095-7.823.532-12.595.067-20.696-.398-6.936-25.775-16.368-39.203-3.717-15.436 14.481-27.436 20.03-38.971 22.138-.266.056.432 7.657.166 7.713-.498.055-5.693-2.996-5.859-4.494-.747-6.714-25.61-4.994-31.884-3.163v-.111c-6.174-1.831-31.203-3.496-31.95 3.218-.166 1.554-5.36 4.605-5.858 4.494-.266-.055.431-7.657.165-7.712-.248-.056-.514-.111-.763-.167v79.678h38.34v.055h280.331v-91.607c-3.668 1.61-8.1 3.163-12.913.944z" fill="url(#paint10_linear)"/><path d="M.333 333.086v-39.032c13.796-18.296 30.856-50.786 34.285-51.285 3.147-.443 4.24 3.049 8.1.665 3.759-2.328 4.77-9.148 9.241-15.524 3.71-5.267 4.87-2.716 8.215-8.039 6.063-9.592 13.267-35.095 13.847-32.268 2.418 11.477 10.02 34.874 10.915 48.624 1.673 25.836-.249 46.794-.249 46.794 2.8 6.93 7.818-8.594 21.4-14.194 5.068-2.106 11.147.555 15.686-.942 12.124-3.992 12.786-9.592 16.264-6.709 5.366 4.38 8.332 15.746 13.946 37.258 4.953 18.961 7.42 28.442 7.156 34.486l-158.806.166z" fill="#FAFDFF"/><path d="M38.56 333.085c.297-3.16 1.54-7.928 1.54-7.928 2.567-7.928 21.018-50.231 23.767-50.675 2.518-.443 3.147 4.38 6.211 1.996 2.998-2.329 3.893-13.583 7.454-19.959 2.964-5.267 3.875-2.828 6.575-8.04 2.7-5.211 5.599 10.535 6.062 13.307 1.938 11.476 4.505 21.345 5.218 35.095 1.325 25.837 6.193 28.997 8.563 28.83 4.621-.221 6.823-17.021 17.689-22.62 4.057-2.107 9.573 2.107 13.217.776 4.537-1.663 6.063-10.701 8.845-7.873 4.289 4.38 10.004 15.58 14.493 37.091H38.559z" fill="#B5E0F1"/><path d="M.349 332.919v-7.928c2.567-7.928 21.018-50.231 23.767-50.675 2.518-.443 3.147 4.38 6.212 1.996 2.997-2.328 3.892-13.583 7.453-19.959 2.965-5.267 3.876-2.828 6.575-8.04 2.7-5.211 5.599 10.535 6.062 13.307 1.938 11.476 4.506 21.345 5.218 35.095 1.325 25.837 6.194 28.997 8.563 28.831 4.62-.222 6.824-17.021 17.689-22.621 4.058-2.107 9.573 2.107 13.217.776 4.538-1.663 6.062-10.701 8.845-7.873 4.289 4.38 10.003 15.58 14.492 37.091H.349z" fill="#B5E0F1"/><path d="M149.333 321.72c-.795-1.608-7.47-2.55-9.441-3.105-1.888-.554-3.693-2.827-5.565-3.714-.879-.444-1.358-6.543-2.137-5.046-.265.499-.878 6.764-1.805 7.651-1.971 1.83-1.192 8.705-7.57 2.052-1.953-2.052-2.699 7.152-4.969 3.77-.696-1.054-2.932 1.996-3.842 1.774-3.13-.776-4.008.998-5.929 3.216-1.906 2.162-6.741 2.495-8.713 3.881-1.01.721-2.385.998-3.395.111-1.888-1.885-5.052-10.756-5.466-14.305-.464-3.992-2.882 10.812-4.157 10.978-1.044.111-2.253.056-2.915-3.105-.282-1.275-.464-2.772-.795-3.936-.414-1.442-.977-2.052-1.508-2.828-1.126-1.608-4.14-13.084-5.001-15.967-.613-1.996-2.038-15.414-2.617-9.98-.365 3.437-2.27 24.395-2.833 27.777-1.258 7.485-3.743 9.702-6.078 12.253h91.427c.05-1.664-4.902-7.873-6.691-11.477z" fill="#87C8E1"/><path d="M318.986 238.942c-5.912 4.816-12.089 11.181-18.269 19.76 0 0-18.219-5.59-25.944-25.405 0 0-.889 9.575-1.88 23.412-.134 1.882-2.451-8.855-2.586-6.863v58.227h48.696l-.017-69.131z" fill="#B5E0F1"/><path d="M180.206 216.367s1.232 6.901 2.847 17.335c.316 2.043 2.097 1.325 2.447 3.644.432 2.926-.567 8.889-.118 12.091 2.53 18.218 5.11 40.632 5.426 58.023h128.195v-80.438c-14.697 13.747-24.184 1.877-33.055 3.754-8.039 1.712-17.094.276-27.481-2.263-.881-.221.217 3.202-.698 2.981-.716-.165-3.446-3.975-4.195-4.196-19.391-5.024-43.242-12.587-73.368-10.931z" fill="#FAFDFF"/><path d="M189.05 307.748c.265-12.363.447-23.341.58-32.933.033-3.16 1.193-1.996 1.226-4.879.049-4.712-1.044-13.195-1.027-17.132.033-7.263.016-13.195 0-17.852-.017-1.719.314-1.83.298-3.216 0-.887-.348-3.16-.365-3.937a347.56 347.56 0 00-.082-5.488c3.245.998 7.503 2.106 12.455 4.102.282.111-.232 5.267.762 8.483 1.325 4.269.546 14.637.91 15.302.265.499 1.161-4.989 1.392-12.031.165-5.322.282-10.368.48-10.257 10.054 4.602 22.36 12.919 34.7 30.328 0 0 17.971-5.6 25.589-25.449 0 0 .879 9.592 1.855 23.453.133 1.885 2.419-8.871 2.551-6.875v58.271H189.05v.11z" fill="#B5E0F1"/><path d="M.333 332.919h45.68c.067-1.552-4.869-7.762-6.674-11.31-.795-1.608-7.47-2.551-9.441-3.105-1.888-.555-3.694-2.828-5.565-3.715-.878-.443-1.358-6.542-2.137-5.045-.265.499-.878 6.764-1.805 7.651-1.971 1.83-1.193 8.705-7.57 2.051-1.954-2.051-2.7 7.153-4.968 3.771-.696-1.054-2.932 1.996-3.843 1.774-1.74-.388-2.783-.056-3.694.72l.017 7.208zm318.67-96.227c-3.27-.946-6.354-.445-9.054 2.895 0 0-29.257 26.836-44.028-6.903 0 0-1.576 10.912-1.576 16.368 0 0 6.455 24.943 23.037 23.05 8.031-.947 30.465 30.454 30.465 30.454.251 0 .637-.111 1.156-.445v-65.419z" fill="#87C8E1"/><path d="M.366 474.815c2.589 7.609 8.1 13.94 11.435 14.384 16.415 2 32.066-8.331 48.38-12.996 8.25-2.333 16.498-5.554 24.797-4.721 14.174 1.389 28.165 14.44 42.239 10.053 4.814-1.5 9.528-5.054 14.375-5.61 13.427-1.61 25.691 19.384 39.085 22.327 18.49 4.055 36.165-26.492 54.605-21.271 4.183 1.166 8.332 4.221 12.531 3.721 4.016-.5 7.85-4.221 11.817-5.887 6.838-2.833 13.826.722 20.613 4.221 13.428 6.942 28.399 35.656 38.738 38.655.05 0 0-1.555 0-1.666v-7.109c-.017-1.222.017-7.665.017-12.83 0-.833-.017-27.103 0-31.602.016-7.72-.017-7.164-.017-12.274v-.444c-.017-.722-1.094.833-1.677 1.222-3.301 2.166-6.77 2.221-10.157 2.166-31.667-.222-63.318-.389-94.985-.611l-53.343-.333-57.675-.334c-28.83-.166-57.659-.333-86.488-.555-5.776-.056-12.415-7.22-14.323 3.277" fill="#94D8F0"/><path d="M35.012 437.181c-2.041.172-3.86.903-5.813.344-3.95-1.119-7.366-3.657-9.94-6.797-.044-.087-.133-.173-.177-.216-2.618-3.226-4.437-6.969-5.902-10.798-1.287-3.398-2.396-6.969-2.13-10.583.222-3.399 1.82-6.883 4.704-8.733.177-.129.355-.215.533-.344 3.239-1.764 7.987-.99 9.806 2.194 5.857 10.325 7.1 23.317 8.919 34.933z" fill="#B0C9CC"/><path d="M88.836 407.625c-.931 9.465-3.949 18.757-9.007 26.931H29.42a61.581 61.581 0 01-6.877-15.617 54.695 54.695 0 01-.755-2.882c0-.043-.044-.086-.044-.172a68.91 68.91 0 01-1.42-8.991c-.888-10.196.665-20.564 4.615-30.029a56.585 56.585 0 011.73-3.7c2.086-4.173 4.66-8.131 6.434-12.476a31.46 31.46 0 001.154-3.441c.887-3.356 1.065-6.884 0-10.153h40.734c-1.11 3.398-.843 7.055.089 10.497.31 1.075.665 2.108 1.065 3.097 1.73 4.345 4.304 8.303 6.434 12.476 5.369 10.626 7.41 22.715 6.256 34.46z" fill="#FFFBF2"/><path d="M43.087 330.746c-1.375-.688-2.795-1.291-4.304-1.42-1.508-.129-3.15.344-4.126 1.549-.8.989-.977 2.323-.8 3.528.267 1.807 1.288 3.484 2.796 4.603 2.086-2.624 4.349-5.636 6.434-8.26z" fill="#F7F3D6"/><path d="M38.34 337.63c-.843-.774-1.687-1.591-2.086-2.667-.4-1.076-.177-2.409.754-3.011.622-.388 1.465-.388 2.22-.259 1.064.215 2.085.689 2.883 1.42-1.464 1.592-2.484 2.839-3.771 4.517z" fill="#B0C9CC"/><path d="M64.874 330.746c1.376-.688 2.796-1.291 4.305-1.42 1.508-.129 3.15.344 4.126 1.549.8.989.976 2.323.8 3.528-.267 1.807-1.288 3.484-2.796 4.603-2.13-2.624-4.393-5.636-6.434-8.26z" fill="#F7F3D6"/><path d="M69.622 337.63c.844-.774 1.686-1.591 2.086-2.667.4-1.076.177-2.409-.755-3.011-.62-.388-1.464-.388-2.218-.259-1.065.215-2.086.689-2.884 1.42 1.42 1.592 2.484 2.839 3.771 4.517z" fill="#B0C9CC"/><path d="M264.445 299.599c-.713-1.164-6.641-1.83-8.398-2.273-1.673-.444-3.28-2.052-4.951-2.662-.78-.277-1.211-4.712-1.905-3.659-.25.388-.779 4.879-1.607 5.489-1.756 1.331-1.06 6.265-6.724 1.497-1.74-1.442-2.403 5.156-4.423 2.717-.63-.721-2.601 1.441-3.413 1.275-2.782-.555-3.577.721-5.267 2.273-1.705 1.552-5.995 1.774-7.751 2.828-.894.499-2.12.72-3.014.111-1.69-1.331-4.489-7.763-4.853-10.313-.414-2.883-2.568 7.818-3.711 7.928-.927.111-2.003.056-2.599-2.217-.249-.943-.415-1.996-.713-2.828-.365-1.053-.877-1.497-1.342-2.051-.993-1.165-3.676-9.426-4.455-11.532-.546-1.442-1.805-11.144-2.335-7.208-.332 2.495-2.021 17.575-2.518 20.015-1.109 5.433-3.329 6.986-5.4 8.815h81.308c.066-1.164-4.322-5.655-5.929-8.205zm-48.049-65.535c-.415 1.22.364 6.487.86 9.925.813 5.655 1.044 7.984 1.159 11.088.167 4.824-.496 6.82-.413 6.931.083.111 1.309-4.269 1.209-9.758-.1-5.212-.167-7.485.231-9.758.365-2.162.067-5.489 1.624-4.99 0 0-1.209-.832-2.17-1.663-1.142-1.054-2.5-1.775-2.5-1.775zm22.741 39.809c-.598 0-2.767-1.331-5.549-12.863-2.336-9.703-5.864-16.245-5.864-16.245-1.026-1.774-2.616-3.881-2.616-3.881 4.985 4.491 10.12 10.146 15.271 17.409 0 0 17.971-5.6 25.589-25.448 0 0 .812 6.431.812 9.591 0 0-3.346 14.637-11.909 13.528-4.141-.498-15.734 17.909-15.734 17.909z" fill="#87C8E1"/><path d="M74.104 353.849c-4.305 5.507-9.762 15.1-19.48 15.1-9.806 0-14.865-10.368-19.302-16.046.887-3.356.044-2.539-1.02-5.808h40.734c-1.154 3.398-1.864 3.269-.932 6.754z" fill="#B0C9CC"/><path d="M46.77 344.344c-.532.258-1.287.387-2.263.344-.4-.043-.799-.086-1.198-.215-.754-.215-1.464-.559-2.174-.86.577-.56 1.287-.99 1.997-1.377a10.86 10.86 0 011.464-.645c.488-.173.887-.259 1.242-.259 1.509-.086 1.997.904 2.175 1.291.177.301-.134 1.205-1.243 1.721zm17.128-2.755c1.287.43 2.485 1.118 3.461 2.022-1.065.473-2.174.989-3.328 1.075-2.973.215-3.727-1.635-3.55-2.065.222-.473.932-1.893 3.417-1.032z" fill="#FFFBF2"/><path d="M42.644 437.353c0 .215-.044.387-.089.602h-12.69a103.42 103.42 0 01-2.574-5.55c5.68-.344 11.98 1.291 12.957 1.936 1.02.689 2.44 1.764 2.396 3.012zm24.228 0c0 .215.044.387.088.602h12.691c.932-1.85 1.775-3.7 2.574-5.55-5.68-.344-11.98 1.291-12.957 1.936-1.065.689-2.485 1.764-2.396 3.012z" fill="#F7F3D6"/><path d="M26.27 395.494c.267 1.248.666 2.495 1.465 3.485.798.989 2.13 1.677 3.416 1.419 1.42-.258 2.352-1.505 3.107-2.667a39.805 39.805 0 005.28-12.562c.621-2.839.932-5.98-.4-8.604-1.109-2.194-3.993-4.044-6.611-3.657-2.396.387-3.461 3.227-4.349 5.119-2.529 5.421-3.239 11.659-1.908 17.467zm56.31 0c-.267 1.248-.666 2.495-1.465 3.485-.799.989-2.13 1.677-3.417 1.419-1.42-.258-2.352-1.505-3.106-2.667a39.805 39.805 0 01-5.28-12.562c-.621-2.839-.932-5.98.399-8.604 1.11-2.194 3.994-4.044 6.612-3.657 2.396.387 3.46 3.227 4.348 5.119 2.53 5.421 3.24 11.659 1.908 17.467z" fill="#FCFAFA"/><path d="M222.636 387.156s-1.445-4.776-5.822-4.622c-1.529-.039-2.065.963-1.487 1.887.289.385 2.106.539 2.395-.616 0-.693 1.983-.924 4.914 3.351z" fill="#fff"/><path d="M56.115 333.086c-1.043-2.772-2.368-2.828-3.378-5.821a21.467 21.467 0 01-1.027-4.879c-.1-1.165-.133-2.329-.216-3.493a39.898 39.898 0 00-.33-3.327c-.15-1.22-.349-2.384-.531-3.548-.149-.887-.48-1.885-.63-1.996-.066-.056-.032.277-.032.499a13.744 13.744 0 01-.249 3.16 24.815 24.815 0 00-.364 2.439c-.2 1.996-.2 4.159-.298 6.266-.1 2.273-.232 4.49-.398 6.708-.116 1.497-.547 3.493-1.043 4.048h8.496v-.056z" fill="#87C8E1"/><path d="M78.409 349.075c-4.038 6.238-11.183 16.046-23.784 16.046-12.602 0-19.08-9.938-23.784-16.305 2.263-6.969 6.256-13.422 11.581-18.628.133-.043.266-.043.4-.086 8.075-1.591 14.687-1.419 22.896.258.089 0 .222.043.355.087 3.816 3.742 9.008 9.593 10.96 14.541a29.465 29.465 0 011.376 4.087z" fill="#FFFBF2"/><path d="M65.54 352.429c-.044.129-.133.259-.178.388-1.064 1.979-3.283 3.441-5.768 4.13-2.485.688-5.192.688-7.765.301-2.219-.301-4.438-.904-6.124-2.151-1.11-.775-1.952-1.893-2.218-3.055a3.43 3.43 0 010-1.893c.355-1.204 1.286-2.194 2.307-3.097 1.02-.904 2.174-1.721 2.973-2.71.843-1.033 1.331-2.324.932-3.485 2.84-1.119 7.81-.947 9.318-.258-.444 1.721.178 3.57 1.597 4.861.977.86 2.308 1.463 3.373 2.237.799.602 1.464 1.291 1.73 2.151.311.861.178 1.764-.177 2.581z" fill="#F7F3D6"/><path d="M49.477 348.258c.134-.602 1.154-.774 1.953-.86a56.508 56.508 0 016.035-.043c.71.043 1.686.129 1.774.688.444 3.012-4.792 5.808-4.792 5.808-.044 0-5.547-2.968-4.97-5.593z" fill="#240B00"/><path d="M74.37 437.181c2.042.172 3.861.903 5.813.344 3.95-1.119 7.366-3.657 9.94-6.797.044-.087.133-.173.177-.216 2.618-3.226 4.438-6.969 5.902-10.798 1.331-3.398 2.397-6.969 2.174-10.583-.222-3.399-1.819-6.883-4.703-8.733-.178-.129-.355-.215-.533-.344-3.239-1.764-7.987-.99-9.806 2.194-5.902 10.325-7.188 23.317-8.963 34.933z" fill="#B0C9CC"/><path d="M90.167 430.771a.942.942 0 01.177-.215c2.618-3.227 4.438-6.969 5.902-10.798 1.332-3.399 2.396-6.97 2.174-10.583-.222-3.399-1.82-6.884-4.703-8.734a77.314 77.314 0 00-3.55 30.33z" fill="#FFFBF2"/><path d="M44.331 339.911c-2.219.775-4.26 1.936-5.99 3.485 1.864.817 3.771 1.678 5.768 1.85 5.148.387 6.434-2.797 6.124-3.528-.4-.86-1.642-3.269-5.902-1.807zm19.923 0c2.219.775 4.26 1.936 5.99 3.485-1.863.817-3.771 1.678-5.768 1.85-5.147.387-6.434-2.797-6.123-3.528.355-.86 1.597-3.269 5.901-1.807z" fill="#F7F3D6"/><path d="M65.54 352.431c-.044.129-.133.258-.177.387-1.065 1.979-3.284 3.442-5.769 4.13-2.485.689-5.191.689-7.765.301-2.219-.301-4.437-.903-6.124-2.151-1.109-.774-1.952-1.892-2.218-3.054.798 1.205 2.218 2.065 3.594 2.667 2.352.99 4.57 1.377 7.366-.86 2.485 2.581 6.567 1.204 7.987.516a23.186 23.186 0 003.106-1.936zm14.333 82.125H29.42c-3.018-4.861-5.325-10.153-6.878-15.616-.266-.947-.533-1.893-.755-2.883 0-.043-.044-.086-.044-.172a68.927 68.927 0 01-1.42-8.991c.178-.387.355-.817.533-1.205 3.239-7.313 9.717-12.95 14.598-19.36.71 5.507 4.438 30.46 19.436 30.804 14.51.344 19.923-26.157 20.19-34.029 6.123 2.839 9.584 10.582 11.802 16.82.888 2.495 1.51 5.077 1.953 7.658-.888 9.551-3.905 18.8-8.963 26.974z" fill="#B0C9CC"/><path d="M75.302 418.038c-.666 5.851-2.396 11.358-5.014 16.563h-32.57c-2.352-4.947-3.55-10.282-4.038-15.875 3.639 2.711 7.277 5.378 11.404 7.314s8.741 3.011 13.267 2.323c6.7-1.032 12.026-5.808 16.951-10.325z" fill="#94ADAF"/><path d="M41.89 339.008c.31 0 .576-.086.798-.258.799-.731 2.44-1.333 4.66-.774.532.129 1.064-.086 1.242-.43.177-.344-.089-.775-.577-.904-2.663-.688-5.37-.172-6.878 1.248-.31.301-.222.731.178.989.177.086.399.129.576.129zm24.937 0c-.31 0-.577-.086-.799-.258-.799-.731-2.44-1.333-4.66-.774-.532.129-1.064-.086-1.242-.43-.177-.344.09-.775.577-.904 2.663-.688 5.37-.172 6.878 1.248.31.301.222.731-.177.989-.178.086-.4.129-.577.129z" fill="#F7F3D6"/><path d="M46.948 437.955H29.865a103.42 103.42 0 01-2.574-5.55c-1.864-4.388-3.461-8.862-4.703-13.422a54.404 54.404 0 01-.755-2.883c0-.043-.044-.086-.044-.172-2.973-12.949-1.953-26.759 3.195-39.063 5.813.086 12.513 5.421 15.663 10.153-4.57 16.563-1.597 31.448 4.881 47.581.489 1.076.932 2.194 1.42 3.356z" fill="#FFFBF2"/><path d="M44.42 442.345c-1.066.473-2.663.775-4.482.947-.977.086-2.041.129-3.15.172-.888 0-1.776 0-2.663-.043a34.799 34.799 0 01-3.106-.258 35.356 35.356 0 01-2.396-.345 20.813 20.813 0 01-3.018-.688 8.256 8.256 0 01-1.952-.86c.31-3.141 3.195-5.421 6.345-6.195 5.813-1.377 13.134-.431 14.244.172 1.11.602 2.662 1.505 2.75 2.71.134 1.764-.93 3.657-2.573 4.388z" fill="#FFFBF2"/><path d="M29.154 439.719l-.532 3.098a20.807 20.807 0 01-3.017-.688 7.81 7.81 0 011.641-2.797c.266-.301.533-.559.932-.645.355-.086.843.043.976.387.045.172 0 .43 0 .645zm5.147.473c-.044 1.076-.133 2.108-.177 3.184a34.428 34.428 0 01-3.106-.259 8.242 8.242 0 011.33-3.14c.223-.301.489-.602.844-.774.355-.129.843-.043 1.02.258.134.258.09.516.09.731zm5.636 3.099c-.976.086-2.04.129-3.15.172-.044-1.162.222-2.28.666-3.356.177-.344.355-.688.665-.903.31-.215.799-.215 1.065.086.133.172.178.43.222.645.177 1.076.355 2.237.532 3.356z" fill="#240B00"/><path d="M62.39 437.956h17.084a104.351 104.351 0 007.321-19.015c.266-.947.533-1.893.754-2.883 0-.043.045-.086.045-.172 2.973-12.949 1.952-26.759-3.195-39.063-5.813.086-12.513 5.421-15.664 10.153 4.57 16.563 1.598 31.448-4.88 47.581a254.555 254.555 0 00-1.465 3.399z" fill="#FFFBF2"/><path d="M64.918 442.345c1.065.473 2.663.775 4.482.947.976.086 2.041.129 3.15.172.888 0 1.775 0 2.663-.043a34.811 34.811 0 003.106-.258 35.375 35.375 0 002.396-.345 20.807 20.807 0 003.017-.688 8.253 8.253 0 001.953-.86c-.31-3.141-3.195-5.421-6.346-6.195-5.812-1.377-13.134-.431-14.243.172-1.11.602-2.663 1.505-2.751 2.71-.133 1.764.932 3.657 2.573 4.388z" fill="#FFFBF2"/><path d="M80.228 439.719l.532 3.098a20.807 20.807 0 003.018-.688 7.826 7.826 0 00-1.642-2.797c-.266-.301-.532-.559-.932-.645-.355-.086-.843.043-.976.387-.089.172-.044.43 0 .645zm-5.191.473c.044 1.076.133 2.108.177 3.184a34.43 34.43 0 003.106-.259 8.242 8.242 0 00-1.331-3.14c-.222-.301-.488-.602-.843-.774-.355-.129-.843-.043-1.02.258-.09.258-.09.516-.09.731zm-5.637 3.099c.977.086 2.042.129 3.151.172.045-1.162-.222-2.28-.665-3.356-.178-.344-.355-.688-.666-.903-.31-.215-.799-.215-1.065.086-.133.172-.177.43-.222.645-.177 1.076-.355 2.237-.532 3.356z" fill="#240B00"/><path d="M19.215 430.771a.945.945 0 00-.178-.215c-2.618-3.227-4.437-6.969-5.901-10.798-1.331-3.399-2.396-6.97-2.175-10.583.222-3.399 1.82-6.884 4.704-8.734a77.309 77.309 0 013.55 30.33z" fill="#FFFBF2"/><path d="M47.126 343.223c0 .43-.134.817-.355 1.119-.533.258-1.287.387-2.263.344-.4-.043-.8-.086-1.199-.215a2.046 2.046 0 01-.443-1.248c0-.344.088-.688.266-.989.488-.259.976-.474 1.464-.646.488-.172.888-.258 1.243-.258a2.037 2.037 0 011.287 1.893z" fill="#240B00"/><path d="M41.179 343.613c.577-.56 1.287-.99 1.997-1.377.488-.258.976-.473 1.464-.645.488-.173.887-.259 1.242-.259 1.509-.086 1.997.904 2.175 1.291l-6.878.99zm20.235-.39c0 .43.133.817.355 1.119.532.258 1.286.387 2.262.344.4-.043.8-.086 1.199-.215.266-.345.443-.775.443-1.248a1.95 1.95 0 00-.266-.989 10.738 10.738 0 00-1.464-.646c-.488-.172-.888-.258-1.243-.258a2.037 2.037 0 00-1.286 1.893z" fill="#240B00"/><path d="M67.36 343.613c-.621-.56-1.287-.99-1.997-1.377a10.865 10.865 0 00-1.464-.645c-.489-.173-.888-.259-1.243-.259-1.508-.086-1.997.904-2.174 1.291l6.878.99z" fill="#240B00"/><path opacity=".1" d="M266.729 345.117c-.646.665-1.407-.388-2.053-.721-.563-.277-1.111-.055-1.673.111-1.888.665-2.501 2.106-3.676 1.885-.117 0-.15.055-.034.11.463.222 1.39.111 1.407.111.531-.111 1.011-.388 1.523-.609.582-.278 1.161-.388 1.74-.278.53.111 1.061.499 1.59.666.415.11.828-.056 1.159-.998.067-.166.117-.333.017-.277z" fill="#B5E0F1"/><path opacity=".12" d="M79.95 359.698c-1.606.277-3.23.277-4.836-.166-1.425-.388-2.8-1.164-4.207-1.83-1.325-.61-2.617-.831-3.959-.332-1.341.499-2.65 1.497-3.991 2.051a6.85 6.85 0 01-4.323.388c-.067 0-.067.166-.017.222 1.458.998 2.981.998 4.472.443 1.44-.554 2.882-1.275 4.34-1.441 1.44-.166 2.882 0 4.322.388 2.7.776 5.516 2.55 8.199.554.116-.11.116-.277 0-.277z" fill="#B5E0F1"/><path opacity=".06" d="M175.651 325.267c-.713-.388-1.425-.221-2.137 0-.795.278-1.574.666-2.385.666-.795 0-1.59-.278-2.385-.666-.712-.332-1.441-.72-2.17-.72-.679 0-1.375.332-1.988 1.219-.033 0-.115.222-.115.277-.05.167-.034.278.05.167.032-.056.065-.056.115-.111 1.375-1.22 2.849 0 4.223.776.713.388 1.426.665 2.137.554.729-.111 1.458-.333 2.17-.61.398-.166.795-.388 1.193-.609.43-.277.86-.776 1.292-.776.065.055.082-.111 0-.167z" fill="#B5E0F1"/><path d="M154.152 358.978s-5.631-.609-6.012 5.6c-.446 7.263 5.366 17.021 5.947 15.081 0 0-.233-1.553-.331-3.382a29.038 29.038 0 01-.05-1.719c-.034-6.154.844-7.873.446-15.58zm58.931 6.764s4.224-1.22 5.268 4.657c1.821 10.423-3.066 25.947-4.82 29.662 0 0 .629-6.154.331-16.411-.315-9.647-.977-13.972-.779-17.908zm-46.526 21.456s-.795.887-1.888 2.052c-1.408 1.497-2.104.499-2.286 1.774-.232 1.552-.116 6.487 1.076 11.976 1.276 5.821 2.8 7.595 2.966 7.373 0 0-.546-5.1-.546-11.809.015-1.497.877-7.817.678-11.366z" fill="#B5E0F1"/><path d="M209.679 399.398c-1.193-.728 0-5.202.155-6.554.207-2.757.363-5.462 2.8-7.283 4.2-3.121 9.8-1.196 11.977 3.173 1.66 3.329 1.193 4.63 4.822 6.346 2.074.989 4.2 1.249 5.808 2.861 2.332 2.393 3.369 5.254 4.925 8.063 1.089 1.925 2.696 3.641 3.993 5.514 3.162 4.629 6.895 8.947 9.955 13.628.518.832.985 1.717 1.451 2.549.985 1.821.622 1.717.311 3.433-.155.884.778.936-.052 1.613-.57.468-1.088-.052-1.71-.052-.519-.052-.985-.573-1.453-.573-.622 0-.985.781-1.814.729-1.089-.052-2.177-1.249-2.956-1.925-1.555-1.352-1.97-1.56-3.836-2.185-2.385-.832-4.511-2.757-7.052-3.121-2.229-.312-5.081.52-6.792 1.093-1.4.468-4.925 1.508-6.741.52-2.073-1.093-3.577-3.901-5.547-5.254-1.037-.728-2.023-.676-3.008-1.977-1.037-1.352-1.762-3.069-2.592-4.525-1.4-2.185-3.059-4.421-3.474-6.97-.518-2.965.415-6.138.83-9.103z" fill="#D3D3D3"/><path d="M218.026 388.266c-1.296-.625-3.163-.625-3.837-2.029 1.348-.78 4.822-1.508 6.274-.572 2.385 1.56-.933 2.133-2.437 2.601z" fill="#EEEDED"/><path d="M222.952 425.666c-1.245-.104-3.681-.676-3.422 1.404 1.192.104 2.385.208 3.526.312 0-.572-.104-1.144-.104-1.716z" fill="#A3A3A2"/><path d="M211.493 393.103c3.474.988 9.229 1.508 12.392-.468 1.244 2.184-3.267 5.93-5.548 5.618-1.452-.208-1.919-1.301-3.267-2.081-1.503-.884-3.163-.936-3.577-3.069z" fill="#B8B7B7"/><path d="M221.552 393.571c-2.282.52-5.186.104-7.57.156 2.747 1.613 5.288 2.965 7.57-.156z" fill="#A3A3A2"/><path d="M215.072 397.838c-1.816-.26-4.045 0-5.653-.988-1.607 2.913 5.497 1.56 6.845 1.456-.363-.156-.778-.364-1.192-.468z" fill="#EEEDED"/><path d="M218.441 391.595c-1.349.52-.674 2.34-.104 3.329.726-.936 1.244-2.653.104-3.329z" fill="#231F20"/><path d="M218.441 391.595c-.519.624-.259 1.612-.104 2.549.311-.885.572-1.925.104-2.549z" fill="#4A4445"/><path d="M215.849 395.132c-.104.208-.26.416-.364.676.104.052.26.104.364.104.311-.468 0-.676 0-.78zm.571.156c-.104.416-.469.572 0 .728v-.728zm-1.97-.885c-.209.26-.468.52-.675.833.104.052.155.156.259.208.416-.364.364-.833.416-1.041zm2.54 1.249l-.156 1.249h.312c.207-.624-.105-.937-.156-1.249zm.622.26c-.052.416-.104.884-.156 1.301.104 0 .26 0 .364.052.208-.677-.104-.989-.208-1.353zm1.088.104c.052.364.104.728.104 1.092.156-.052.26-.104.416-.104.051-.676-.416-.78-.52-.988zm1.141-.52c.103.468.259.884.415 1.301.155-.105.259-.157.415-.261-.104-.156-.156-.312-.26-.468l.623.156c.052-.104.156-.26.207-.364-.518-.468-.882-.312-1.4-.364zm1.193-.832c.156.26-.26.572.519.78.051-.104.103-.156.155-.26-.207-.156-.415-.312-.674-.52zm.673-.625c.208.156.416.26.675.416.104-.052.155-.156.26-.208a7.738 7.738 0 00-.935-.208z" fill="#D3D3D3"/><path d="M213.256 389.098c1.192-.833 2.644-.157 3.525.832-1.088.572-3.577 1.716-3.525-.832z" fill="#231F20"/><path d="M213.516 389.15c.777-.364 3.11-.156 2.332.988-.777 1.197-2.281.052-2.332-.988z" fill="#EFB125"/><path d="M223.522 389.098c-1.192-.833-2.645-.157-3.526.832 1.141.624 3.578 1.768 3.526-.832z" fill="#231F20"/><path d="M223.263 389.203c-.777-.364-3.111-.156-2.334.988.779 1.144 2.282 0 2.334-.988z" fill="#EFB125"/><path d="M216.471 390.294c.778 2.081-3.215 2.861-3.266.468 1.088 1.04 2.385.832 3.266-.468zm3.837.208c-.571 1.925 2.385 2.029 3.318.728-1.14.156-2.333.26-3.318-.728z" fill="#EEEDED"/><path d="M216.989 384.78c.053.312.104.676.156.989.104 0 .259-.052.363-.052.052-.313.104-.625.104-.937h-.623zm.83-.415c.052.26.104.572.104.832.726-.364.467-.051.623-.885-.26.053-.52.053-.727.053zm-1.348.156c0 .26.052.52.052.78-.674-.156-.466 0-.778-.624.26-.052.467-.104.726-.156zm1.504 1.144v.624h.414c.364-.78-.207-.312-.414-.624zm1.14-.727c-.052.259-.052.519-.104.779.934-.416.259-.467.104-.779zm-3.472.31c.052.208.104.416.104.624-.104.052-.209.104-.261.104-.468-.572.104-.416.157-.728zm4.199 0c0 .416-.417.468.051.728.469-.52-.051-.468-.051-.728zm.829-.156c-.103.208-.155.364-.259.572.728-.104.312-.312.259-.572zm-5.962 0c0 .468.468.52 0 .832-.572-.572 0-.572 0-.832z" fill="#4D484A"/><path d="M215.382 388.369c.415.208.829.364 1.296.572-.104-.832-.57-1.04-1.296-.572zm4.251.469c.519.052 1.038.156 1.245-.624-.623 0-.778.312-1.245.624z" fill="#B8B7B7"/><path d="M255.565 427.694c-.674-1.144-1.555-3.485-2.748-4.265-1.348-.884-3.214.156-4.978.624-3.369.936-6.74.364-10.006 1.821 2.074.572 3.837 1.924 5.858 2.653 2.386.884 3.319 2.236 5.549 3.537 1.918 1.092 1.348.104 3.006.156.571 0 2.179.936 2.904.728 1.711-.416 1.193-3.693.415-5.254z" fill="#A3A3A2"/><path d="M254.114 425.197c-1.816-2.393-1.712-2.393-4.563-1.56 2.073 2.393 4.043 4.993 6.325 7.282 1.451-1.56-.933-4.265-1.762-5.722z" fill="#B8B7B7"/><path d="M254.269 430.452c-1.038-1.353-3.889-6.191-5.393-6.659-.881-.208-2.851.781-3.889.885-1.503.156-3.007 0-4.51.26 2.747 2.028 4.926 3.953 7.31 6.034 1.503 1.3 2.23 1.612 3.993 1.664.259 0 .518-.468.829-.468.415 0 .83.52 1.244.52.986.052 1.453.572 2.334-.104-.622-.728-1.296-1.456-1.918-2.132z" fill="#848484"/><path d="M255.306 433c-1.608-1.717-3.319-3.381-4.718-5.254-.467-.676-1.712-3.485-2.438-3.745-.57-.208-2.022.572-2.695.676 2.177 2.601 4.303 5.254 6.429 7.855.881-.833 2.281.26 3.422.468z" fill="#D3D3D3"/><path d="M250.691 423.325c1.919 2.184 3.837 4.369 5.704 6.606 0-1.821-3.785-7.647-5.704-6.606z" fill="#848484"/><path d="M222.797 397.681c-2.386.156-4.719.104-6.897 1.196-2.8 1.405-2.644 3.485-2.177 6.502.778 4.942 4.77 9.571 8.711 12.432 3.732 2.705 9.176 3.589 13.739 4.37 2.333.416 4.823.884 7 1.508 1.037.26 5.91 3.017 5.548-.052 1.14.416 4.096 1.561 4.51-.572.363-1.769-2.954-2.809-4.096-3.433-3.629-2.133-5.858-4.786-8.711-7.907-2.591-2.809-5.132-5.618-7.724-8.427-3.163-3.381-5.341-4.733-9.903-5.617z" fill="#D3D3D3"/><path d="M226.478 394.611c.933.416 7.621 2.705 7.466 3.225-.726 2.289-6.792-2.34-7.466-3.225z" fill="#EEEDED"/><path d="M224.663 397.108c.725-.312 1.192-.468 1.763-.156-.623.677-1.245.833-1.763.156zm1.712-.884c.155.156.311.26.466.416.104-.104.259-.208.364-.312-.364-.624-.416-.052-.83-.104zm.725.781c-.311.208-.415.468-.829.52.933.312 1.814-.052.829-.52zm1.244.155l-.311.624c.156.104.259.208.416.312.674-.624.104-.468-.105-.936zm-2.696-1.82c-.26.468-.156 1.04-1.089.26a8.27 8.27 0 001.089-.26z" fill="#4D484A"/><path d="M237.367 425.301c-3.266-.988-6.689-1.456-10.006-2.341-3.734-.988-5.341-1.664-7.933-4.629-2.022-2.237-4.2-3.849-5.755-6.138-2.075-3.017-3.423-5.358-4.511-8.895-.622 4.317-.052 6.658 2.073 10.403 1.141 2.029 2.178 4.422 3.63 6.294 1.244 1.665 2.489 1.613 3.94 2.601 1.4.988 2.541 3.381 3.838 4.214 1.71 1.144 3.317.676 5.236.52 2.385-.156 2.54-1.145 5.029-1.457 1.089-.104 4.408-.052 4.459-.572z" fill="#B8B7B7"/><path d="M222.952 426.29c-1.296 0-3.059-.156-4.148.676-1.037.78-1.607 2.029.208 2.445.984.26 2.281-.728 3.266-.988 1.296-.26 2.489.364 3.112-1.197-.727-.364-1.556-.78-2.438-.936z" fill="#D3D3D3"/><path d="M222.278 429.047c.156-2.029 4.874-2.289 4.563-.313-.207 1.301-3.63.937-4.563.313z" fill="#D3D3D3"/><path d="M218.13 427.799c-1.037 0-1.971.52-1.919 1.612a5.677 5.677 0 012.282-.78 4.023 4.023 0 00-.363-.832zm6.43.935c-1.09.104-.986 1.145-.623 2.237.571-.676.83-1.404.623-2.237z" fill="#4D484A"/><path d="M243.433 416.25a7.323 7.323 0 001.037-.208c-3.734-4.057-7.415-8.114-11.2-12.172-2.333-2.496-3.629-4.317-6.896-5.357-2.645-.833-4.925-.781-7.674-.625 2.127.781 4.407 1.405 6.326 2.653 2.178 1.457 4.2 3.589 6.118 5.41 2.281 2.185 4.2 4.734 6.533 6.814 1.712 1.509 3.681 2.393 5.756 3.485z" fill="#EEEDED"/><path d="M224.248 417.083c-5.34-5.462-7.933-9.987-9.385-17.478-4.096 1.301.311 9.78 1.607 11.964 2.178 3.746 5.756 6.711 9.8 8.063a109.187 109.187 0 00-2.022-2.549z" fill="#B8B7B7"/><path d="M245.973 417.759c-1.297-2.601-3.474.364-5.288.988-1.66.572-4.148.676-5.86.676-4.407 0-8.866-1.196-13.118-2.237 3.682 3.33 9.644 4.162 14.467 4.994 2.333.416 4.822.884 6.999 1.509 1.037.26 5.91 3.017 5.548-.052 1.504.52 5.703 1.248 4.251-1.821-.725-1.508-5.495-3.173-6.999-4.057z" fill="#B8B7B7"/><path d="M245.973 417.759c-1.14-2.393-3.578 0-5.133.884a415.066 415.066 0 017.829 5.358v-.364c1.504.52 5.704 1.248 4.252-1.821-.674-1.508-5.444-3.173-6.948-4.057z" fill="#A3A3A2"/><path d="M243.899 416.979c-.414.104-.934.52-1.296.728 1.711 1.3 8.036 7.282 10.111 5.878 1.866-1.249-2.126-2.028-3.008-2.548-2.074-1.093-3.94-2.706-5.807-4.058zm-1.193 4.89c-1.451-1.613-1.969-2.705-3.992-2.861-1.244-.104-2.592.416-3.889.416-2.747 0-6.118-.364-8.762-1.196 1.037 2.808 5.444 3.121 8.036 3.589 2.697.468 7.208 2.236 9.748 1.82a16.9 16.9 0 00-1.141-1.768z" fill="#EEEDED"/><path d="M237.003 419.216c1.918 2.965 2.333 3.329 5.548 4.525-1.66-2.288-2.541-5.253-5.548-4.525z" fill="#A3A3A2"/><path d="M232.752 421.557c.673.156 1.347.26 2.021.364-.881-1.405-1.348-3.225-3.317-2.913.414.884.829 1.717 1.296 2.549z" fill="#B8B7B7"/><path d="M229.122 420.517l2.333.78c-.829-2.392-.777-2.34-3.318-2.652.311.624.622 1.248.985 1.872z" fill="#A3A3A2"/><path d="M233.27 398.772c1.295.261 2.385.313 3.214 1.457-1.036.728-3.318-.416-3.214-1.457zm-1.866-.155c2.177.624.207 1.093-.985.156.363-.052.674-.104.985-.156zm-1.66-.78c.518.884-.156 1.248-.985.78.363-.26.674-.52.985-.78zm1.971 1.976c-.311.209-.57.573-.882.781.934.468 1.659.104.882-.781zm1.969.365c-.518.416-.311.884-1.088 1.04.725 1.144 2.54-.156 1.088-1.04zm3.993 3.12c-.466-.52-1.089-.78-1.762-.884.103.936.984 1.144 1.918 1.665l-.156-.781zm-1.815.156c.934.312 1.297.832.726 1.561-.414-.26-1.037-.833-1.296-1.197.155-.156.362-.26.57-.364zm-.57-.416c-.674-.104-1.141.052-.882-.988.26.312.571.624.882.988zm-18.822-2.913a6.211 6.211 0 012.334-.78c-.156.988-1.244 1.248-2.334.78zm4.563-1.56c-2.333-.26-1.607 1.248.622.52-.207-.156-.415-.364-.622-.52zm2.023-.001c-.208.104-.415.157-.674.261.726.208.881.208 1.607-.157a4.632 4.632 0 00-.933-.104zm.155.885c-.57-.052-1.192 0-1.762.156.725.572 1.14.26 1.762-.156zm2.022-.572c-.467.26-.778.364-.881.884.777 0 .933-.052 1.452-.624-.208-.104-.364-.156-.571-.26zm-4.718.988c-.571.052-1.089.312-1.556.624.83.469 1.089.052 1.556-.624zm-5.082.573c-.363.156-.725.26-1.088.416.933.468.829-.104 1.088-.416zm1.712.364c-.518.156-.985.572-1.297.988.882.572 2.386-.052 1.297-.988zm2.592.624c-.414.156-.829.416-1.244.624.778.52 1.244.416 1.244-.624zm2.437-.624c-.518.208-.933.572-1.244.988.881.572 1.607.26 1.918-.728a3.567 3.567 0 00-.674-.26zm-7.362 3.277c.57-.052 1.088.156 1.658 0-.518.78-1.347.884-1.658 0zm3.422.209c.622-.156 1.348-.156 1.97-.312.26 1.352-1.555 1.508-1.97.312zm5.185-1.51c-.622.312-1.037.781-1.659 1.041.777 1.04 2.436.208 1.659-1.041zm1.71-1.924c-.466.364-.829.469-.674 1.093.623-.104.726-.365 1.194-.729-.157-.156-.364-.26-.52-.364zm-8.502 2.236c.674.364 1.037.624 1.659-.104-.622-.364-.985-.208-1.659.104zm1.244 2.081c-.622.312-1.296.52-1.97.676.777.884 2.281.624 1.97-.676zm-1.453 1.768c-.363.157-.777.365-1.14.521.622.78 1.14.572 1.608-.312-.157-.052-.312-.157-.468-.209zm6.016-1.612c-.467.208-.985.676-1.4 1.04.933.989 2.177.261 2.333-.988-.311-.052-.622-.052-.933-.052zm3.941-.573c.673-.364 1.192-.312 1.658-1.092.467 1.353-.674 2.237-1.658 1.092zm2.28-4.16c-.466.312-.674.78-1.244 1.04.985.572 2.334-.26 1.244-1.04zm-7.466 7.854c-.623 0-1.296.156-1.918.156.881 1.092 2.541 1.248 3.007-.26-.363.052-.726.052-1.089.104zm5.393-1.144c-.571.364-.882.884-1.557 1.144 1.09 1.248 3.526-.78 1.557-1.144zm-.933-1.197c-.52.156-1.038.469-1.504.677.829.364 1.556.156 2.126-.625-.207-.052-.415-.052-.622-.052zm5.133-2.6c-.467.416-.674.936-1.245 1.248 1.089.624 2.489-.468 1.245-1.248zm-1.142 2.236c-.518.26-.985.728-1.399 1.093.881.364 1.71.104 2.126-.781-.259-.104-.519-.208-.727-.312zm-4.925 4.213c-.674.052-1.348.26-2.022.312.777.988 1.918 1.04 2.695 0-.259-.104-.466-.208-.673-.312zm-3.629.522c-.778.26-1.608.312-2.386.312.57 1.352 2.282 1.092 2.386-.312zm-3.059-1.562a2.996 2.996 0 00-1.66.156c.675.885 2.022.937 1.66-.156zm11.717-1.248c-.415.728-1.141 1.196-1.97 1.196 1.192 1.197 3.526.26 1.97-1.196zm3.37-1.925c-3.007 2.133 2.801.832 0 0zm.467 3.069c-.519.261-.778.781-1.4 1.041.933.936 2.074.052 1.4-1.041zm-4.667 2.029a3.791 3.791 0 01-1.97.728c.726 1.352 2.592.572 1.97-.728zm-5.184 1.51c-.726.26-1.452.416-2.23.416.778 1.092 2.592 1.196 2.23-.416zm2.903 1.195c-.311.104-.622.26-.984.364-.468.884 1.399.156 1.658-.26-.207 0-.466-.052-.674-.104zm5.704-2.027c-.571.572-1.245 1.092-1.971 1.456 1.089 1.457 3.629-.52 1.971-1.456zm4.303-1.873c-5.029 2.443 3.473.883 0 0zm-.052 2.913c-4.511.312.674 2.184 0 0zm2.022-1.354c-.415.208-.777.676-1.089 1.04.778.417 1.504.104 2.023-.676-.259-.104-.571-.26-.934-.364zm-17.161 3.745c.57.208 3.058-.26 2.332.52-.674.781-2.799.781-2.332-.52zm-.726-1.612c-.259 1.144-1.504 1.144-2.023.104.622-.052 1.401-.208 2.023-.104zm5.6 1.716c-2.179.468-.571 1.768.673.468a7.539 7.539 0 01-.673-.468zm3.317-1.04c-.622.208-1.14.572-1.503 1.144.829.52 1.71.208 2.282-.624a6.68 6.68 0 01-.779-.52zm3.422.624c-.466.208-.777.364-.881.832.985.572 2.074.104 1.918-1.092-.363.104-.726.208-1.037.26zm5.859 1.092c-.57.157-1.14.573-1.762.729.829 1.04 2.643.468 1.762-.729zm.416-2.183c-.259.156-.571.364-.831.52.727.78 1.401.364 1.556-.676-.207.104-.466.104-.725.156zm-5.134 3.588c-.518.104-.933.26-1.244.676.778.676 1.555.572 1.97-.416a6.288 6.288 0 00-.726-.26zm-24.317-13.265c.518-.468.985-.728 1.607-.52-.311.78-.882.936-1.607.52zm-.57 1.352c.467-.156 1.089-.104 1.556-.156-.363.937-1.245 1.457-1.556.156zm.726-3.536c.622.416.829.78 1.4-.052-.467 0-.934 0-1.4.052zm1.918 3.693c-.415.26-.726.416-1.037.78.985.26.881-.156 1.037-.78zm-.415 2.6c-.467.053-.985.209-1.452.313.363.884 1.607.624 1.452-.313zm-.984-1.248c-.415 0-.882.052-1.297.052.155.781.778.781 1.556.417-.052-.104-.156-.313-.259-.469zm2.229-.156c-1.453.884.156 1.249 0 0zm.518 2.653c-.207.104-.466.208-.674.312 0 1.145 1.193-.416 1.193-.416a1.84 1.84 0 00-.519.104zm-1.711 1.508a8.46 8.46 0 01-1.141.104c.57.781 1.297.625 1.141-.104zm3.214.783c-1.347 1.3.208 1.352.674.104-.259-.052-.466-.052-.674-.104zm-2.54 2.026c.519-.156 1.141-.052 1.659-.104-.155.885-.933.989-1.659.104z" fill="#4D484A"/><path d="M214.811 390.242a.52.52 0 100-1.039.52.52 0 000 1.039zm7.103 0a.52.52 0 100-1.04.52.52 0 000 1.04z" fill="#231F20"/><path d="M236.437 365.576s1.888-.998 4.505-4.269c1.607-1.996 3.246-5.378 3.859-5.212 0 0 1.424-.832 3.047 1.663 1.839 2.883 3.876 9.148 3.595 9.037-4.969-2.55-14.973-.277-15.006-1.219z" fill="#B5E0F1"/><path opacity=".5" d="M87.917 411.538c-.746-2.329-1.657-3.937-2.385-6.265-.414-1.331-.73-2.883-.928-4.658-.215-1.996-.281-4.102-.464-6.154-.347-3.714-1.308-6.043-2.368-7.263-1.425-1.608-2.998-2.384-4.489-2.107-.33.056-.364.388-.115.499 1.043.388 2.103 1.22 3.014 2.883.927 1.719 1.59 5.323 2.136 8.428.514 2.938.895 6.209 1.64 8.593.414 1.331.911 2.274 1.392 3.272.447.942.877 1.995 1.258 3.16.911 2.716 2.418 8.15 2.435 12.419 0 .721.066-2.439.083-2.994.1-3.825-.381-7.263-1.21-9.813zm-27.478 31.935c-1.077-7.762-3.478-12.087-5.88-13.916-1.375-1.054-2.816-1.054-4.14-2.717-1.359-1.719-2.518-4.491-3.628-7.54-.53-1.442-1.077-2.828-1.723-3.604-.596-.721-1.258-.942-1.871-.443-.066 0-.116.11-.15.277-.066.332-.016.887.1.998 1.193 1.552 2.336 3.659 3.346 6.265.497 1.275.96 2.606 1.408 4.103.447 1.496.811 3.271 1.275 4.601.48 1.386 1.077 1.719 1.69 1.719.629-.055 1.258-.277 1.888-.333 1.308-.055 2.666.333 3.892 2.052 1.408 1.94 2.948 6.819 3.958 10.479.183.609-.082-1.276-.165-1.941z" fill="#B5E0F1"/><path opacity=".12" d="M196.885 337.299c-2.203-1.607-4.489-.166-6.692.499-1.177.333-2.352.499-3.528.333-1.193-.167-2.369-.721-3.544-1.164-1.209-.444-2.451-.499-3.645.332-.05.056-.033.167.017.167 1.177-.278 2.369-.167 3.528.277 1.094.443 2.152 1.274 3.246 1.662 1.094.388 2.153.222 3.23-.277 1.142-.554 2.27-1.164 3.428-1.496a9.466 9.466 0 013.943-.166c.099.055.099-.111.017-.167z" fill="#B5E0F1"/><path opacity=".08" d="M246.688 336.079c-.745-.388-1.506-.222-2.269 0-.844.277-1.672.61-2.517.61-.844 0-1.673-.277-2.518-.61-.761-.332-1.523-.665-2.286-.665-.728 0-1.44.333-2.086 1.109-.033 0-.116.221-.133.277-.049.166-.033.221.05.111.033-.056.067-.056.117-.111 1.456-1.109 2.996 0 4.455.665.745.332 1.49.609 2.253.499.76-.111 1.523-.278 2.285-.555.43-.166.845-.332 1.259-.554.446-.277.911-.72 1.374-.665.1.111.116-.055.016-.111zm-64.462 31.326c-.364 0-.712-.333-1.043-.499a7.356 7.356 0 00-.961-.444c-.58-.222-1.176-.388-1.755-.443-.581-.111-1.16.055-1.739.277-1.111.443-2.303 1.109-3.413.333-.033 0-.066-.056-.083-.056-.066-.055-.066-.055-.032.111.016.055.065.166.099.166.497.555 1.044.832 1.606.832.596.055 1.177-.166 1.756-.333.646-.221 1.275-.388 1.921-.332.646.055 1.292.277 1.938.499.58.221 1.159.332 1.739.11.05-.11.034-.221-.033-.221z" fill="#B5E0F1"/><path opacity=".1" d="M200.214 379.99c-.332-.832-.762-1.053-1.193-.943-.546.167-1.093.555-1.64.61-.596.111-1.209 0-1.805-.277-.53-.222-1.027-.443-1.573-.61-.017 0-.978-.166-1.441.111-.134.056-.1.166.032.111 1.226-.222 1.856 1.164 3.809 1.774.581.167 1.143.388 1.724.111.662-.277 1.456-1.331 2.119-.665.083.111.033-.056-.032-.222z" fill="#B5E0F1"/><path opacity=".08" d="M169.805 350.05c-.515 0-1.028-.499-1.526-.776a7.512 7.512 0 00-1.406-.665 14.737 14.737 0 00-2.551-.72c-.862-.167-1.69 0-2.534.277-1.623.554-3.363 1.496-4.987.277-.049-.056-.082-.056-.131-.111-.083-.111-.1-.055-.05.111.017.055.099.222.149.277.712.831 1.524 1.219 2.335 1.275.862.055 1.723-.167 2.567-.444.928-.277 1.872-.443 2.816-.388.944.056 1.871.444 2.815.832.846.277 1.69.499 2.535.221.082-.055.066-.166-.032-.166z" fill="#B5E0F1"/><path opacity=".06" d="M234.351 355.597c-2.816-.777-5.633-.998-8.448-.499-1.391.221-2.799.665-4.191.887-.695.111-1.39.166-2.069-.056s-1.359-.61-2.038-.998c-1.391-.831-2.832-1.608-4.224-.222-.081.056-.017.167.017.167 1.358-.167 2.784.665 4.107 1.552.646.444 1.26 1.165 1.906 1.442.678.277 1.324-.222 2.003-.388.696-.167 1.392.111 2.088.166.663 0 1.325-.222 1.987-.554a12.854 12.854 0 014.174-1.054 65.665 65.665 0 014.671-.166c.116-.056.116-.222.017-.277z" fill="#B5E0F1"/><path d="M289.24 390.803c-.397.554-.795 1.108-1.176 1.718.448.333.729-2.106 1.176-1.718z" stroke="url(#paint11_linear)" stroke-miterlimit="10"/><path d="M140.312 422.592l1.159 3.351.579 1.04 2.897.423 6.29.193 1.864.424 1.448-2.273.083-.885-3.684-.539-3.891.076-3.186.077-1.696-3.041-1.863 1.154z" fill="#ED6944"/><path d="M141.596 423.901l.662 2.273 1.821.963.206.154-2.193-.347-.579-1.04-1.159-3.351.911-.577.331 1.925z" fill="#DC4D29"/><path d="M148.134 426.29l3.103.808.994.771-.994-.231-4.676-.116c-1.573-.578-3.27-1.232-3.476-1.541l.496-.346h1.449l3.104.655zm5.257-1.039l1.158.308-.042.192-1.034 1.694-1.697-.924-5.008-1.116-1.325-.424 1.987-.154 5.961.424z" fill="#E84325"/><path d="M145.319 427.215l-.414-.077-.331.192.745.347.496.347-.496-.809zm7.657.154l-.496.116-.083.192.579.539.787.308-.042-.501-.745-.654zm1.2-2.389l-.083.27.248.193.745-.077.538.116-.124-.347-1.324-.155z" fill="#020203"/><path d="M154.258 386.35l2.235.539 2.483 1.656 1.698 2.041.579 2.234.083 1.309-.579-.346-1.532.115-2.359.231-3.104-.577v-1.079l.496-6.123z" fill="#E84325"/><path d="M154.259 386.35l.869.192c.868.77 2.401 2.118 2.401 2.118l.413 1.811-.124 1.348-.166.962s-.621.424-.744.501c-.083.039-1.035.27-1.863.539l-1.159-.192-.041-1.117.414-6.162z" fill="#EB7A2E"/><path d="M154.673 386.427l2.235 2.465.29 1.694-.208 1.348s-.579.655-.744.771c-.166.077-1.491.346-1.491.346h-.952v-.539l.497-6.162.373.077z" fill="#EB7A2E"/><path d="M158.191 389.394l.331 1.309v1.117s-.166.693-.289.847c-.083.116-1.118 1.002-1.118 1.002l.91-.347.746-.77s.289-1.079.289-1.233c0-.077-.869-1.925-.869-1.925z" fill="#CF301C"/><path d="M159.226 390.664l.29 1.001.041.77-.331.578-.662.5-.539.116.952-.154.621-.578s.29-.693.29-.847c0-.115-.166-.885-.166-.885l-.496-.501z" fill="#CF301C"/><path d="M153.886 391.203l.041-.654 1.077.616.827.5s.91.385 1.035.385c.124 0 .91.077 1.035.116.123.038 1.034.346 1.034.346l1.076.501.579.77h-.165a7.804 7.804 0 01-.538-.577l-1.2-.54-1.573-.269-1.158-.308-2.07-.886z" fill="#F28C46"/><path d="M153.804 394.131l1.2-2.735.083-2.657-.497-2.465-.042-.039c-.662-.808-1.531-1.502-2.566-1.887-1.614-.693-3.351-1.078-5.09-1.194-2.027.732-3.724 2.08-4.801 3.852v.038c-.827 1.31-1.448 2.773-1.737 4.314l-.166 2.734-1.117 1.31a11.725 11.725 0 00-1.987 3.081l-.373.809-3.269 2.657a29.022 29.022 0 00-5.297 5.777l-.498.809-5.917 3.929c.165.346 2.979-.231 3.972-.424.208-.038.331-.077.331-.077l-3.103 2.465a21.485 21.485 0 00-3.062 2.966l-.373.5a24.09 24.09 0 00-.787 1.04l-.579.809-3.601 3.004 1.201 2.003 1.696 1.117.87-.501a32.751 32.751 0 019.104-3.543l2.566.346 1.531.694 1.531 1.848 2.153 1.117 2.152-.963 1.035-1.04 3.187-1.425.745-.269a37.203 37.203 0 005.752-2.773l4.263-2.542c.538-.308.993-.693 1.449-1.079l3.268-2.888a9.186 9.186 0 001.656-2.08 9.46 9.46 0 00.828-2.349l.248-1.618c.125-.693.125-1.309.083-2.003a43.938 43.938 0 01-.166-1.964c0-.154-.621-1.271-1.075-2.195-.414-.848-1.077-1.618-1.822-2.234l-.704-.616-1.2-.616-1.075-3.043z" fill="#FFFEFA"/><path d="M136.96 423.98l1.324-3.274.166-.578c.58-1.656 1.532-3.12 2.814-4.391l.869-.847.373.077c1.324.308 2.772.347 4.18.116l6.29-1.233a5.94 5.94 0 001.904-.693l.414-.231a13.739 13.739 0 002.608-1.887l1.282-1.194c-.745 1.348-1.572 2.811-2.731 3.89l-1.821 1.694c-.207.193-.538.424-.828.694-1.159.924-2.442 1.694-3.725 2.387l-3.393 1.772c-.828.501-1.697.924-2.649 1.233l-2.441.885-3.187 1.425-1.035 1.04-2.152.963-.952-.5 2.69-1.348z" fill="#8C8B83"/><path d="M114.57 422.747l3.601-3.043.579-.809c.248-.346.537-.693.786-1.04l.372-.5a21.492 21.492 0 013.063-2.966l3.104-2.465s-.125.039-.331.077c-.994.193-3.849.809-3.974.424l6.002-4.044.496-.809a25.739 25.739 0 015.297-5.777l3.27-2.658.373-.808c.537-1.117 1.158-2.119 1.986-3.081l1.117-1.31.166-2.734c.29-1.541.911-2.966 1.738-4.314v-.039c1.076-1.771 2.773-3.081 4.801-3.851 1.738.116 3.477.539 5.091 1.194a6.206 6.206 0 012.566 1.926l.04.038.498 2.465-.083 2.658-1.2 2.734 1.034 2.966.124.038-1.117.193-1.324 1.848-2.152 1.772-2.732.886-2.69.308-1.118.077c-.414.963-.62 2.041-.537 3.081a7.694 7.694 0 01-.414 3.197l-.787 2.118c-.703 1.656-1.614 3.158-2.731 4.583l-.787.963-1.821 1.772-2.689 2.619-.083.115a11.944 11.944 0 00-1.531 3.467l-.952-1.117-1.532-.693-2.566-.347c-3.187.77-6.29 1.964-9.104 3.543l-.869.501-1.697-1.117-1.283-2.041z" fill="#020203"/><path d="M148.547 385.889l2.773-.577c.496-.077.952-.039 1.407.154.538.231.952.693 1.076 1.232l.703 2.234.498 2.234v.231l-1.201 2.696-.952.385-2.566.347-1.117-.347a12.066 12.066 0 01-4.636-2.773l-.91-1.001-.414-1.002c-.29-.732.083-1.54.828-1.81l1.49-.616 3.021-1.387z" fill="#FFFEFA"/><path d="M143.25 390.126l3.973 1.656 2.856.616 2.732.193-1.283 2.041-1.242.154-1.283-.385a11.637 11.637 0 01-4.346-2.58l-1.076-1.002-.331-.693zm2.194-2.736l3.104-1.502.828-.154 1.407.578-.207 2.426-1.324-.385-1.945-.308-2.897-.154 1.034-.501z" fill="#8C8B83"/><path d="M148.34 394.208l2.649-.27 1.408-1.502.91-1.771 1.075-.848.539.27.207.963v.231l-1.242 2.811-.538.27c-.331.116-.703.231-1.034.27l-.911.115c-.828.116-1.655 0-2.401-.308l-.662-.231z" fill="#615A58"/><path d="M152.645 392.012l.703-1.27 1.076-.847.497.269.206.963v.231l-.331.808-1.283.231-.868-.385z" fill="#E05F1E"/><path d="M150.533 388.7l-1.323-.385-1.945-.309-2.897-.154.538-.192 3.682.231.953-.539.786-.886.373.501-.167 1.733z" fill="#615A58"/><path d="M149.5 387.352l.538-.617.786.732.042.693s-.125.308-.373.27c-.124-.039-.993-.424-1.614-.77l.621-.308z" fill="#E05F1E"/><path d="M149.5 387.351l.538-.616.786.693-.124.577-.497.039-.745-.346-.207-.193.249-.154z" fill="#020203"/><path d="M137.414 424.557l2.153 2.696 1.283.654 3.558.077 3.973.077 1.118 1.348.703 1.31-1.573.655-3.599.731-1.533.193-4.013-1.695-.994-1.502-.289-.885-2.98-2.735 2.193-.924z" fill="#ED6944"/><path d="M135.801 425.289l1.737 1.31 1.656 1.694.331 1.579.745 1.04-.745-.269-.993-1.502-.29-.886-2.98-2.735.539-.231z" fill="#DC4D29"/><path d="M140.808 429.486l2.359.539 2.649.924 2.897.424-3.6.731-.208.039-4.055-2.079-.042-.578zm1.738-.655l2.194-.077 2.648-.115 1.491-.077.744.885.704 1.31-.414.192-1.531-.308-2.483-.732c-.125-.038-3.228-.77-3.353-1.078z" fill="#E84325"/><path d="M143.995 432.067c-.042-.077-.29-.116-.29-.116l-.165.193.041.27.828.192.579.193-.993-.732zm4.966-1.116l-.331.154v.193l.704.154.662.115.125.077-.249-.423-.911-.27zm-.703-2.812l-.041.193.165.155.538-.039.538.077-.248-.309-.952-.077z" fill="#020203"/><path d="M214.941 321.065s-1.626-5.13-4.423-7.121c-2.83-1.992-6.18-1.6-6.733-.996-.553.603 3.383 2.173 3.09 3.349-.293 1.177-2.504 2.445-2.504 2.445l10.57 2.323zm-46.998 20.732c1.529-.664 5.237-3.712 5.237-3.712l1.756.121s2.537 3.983 3.805 5.009c1.269 1.026 4.586 2.806 3.936 3.379-.651.574-7.871 0-9.205-1.81-.13-.151-.227-.332-.325-.513-.13.151-.293.302-.488.422-1.854 1.388-8.911.031-9.399-.694-.423-.724 3.122-1.539 4.683-2.202z" fill="#27262C"/><path d="M236.537 344.059c1.171-1.57.293-7.182-2.537-11.045-2.829-3.862-10.473-9.445-18.766-12.583-7.936-3.018-15.482-3.108-22.67-.845-9.041 2.837-20.165 15.118-19.807 20.369 1.138 1.146 5.952-4.949 8.977-6.277 1.984-.875 10.83-4.345 18.506.03 9.269 5.311 32.72 15.058 36.297 10.351z" fill="#27262C"/><path d="M172.984 340.106c7.188-11.738 20.458-10.531 21.727-11.195 1.268-.664-4.521-2.987-1.562-4.345 2.96-1.358 10.181 4.677 12.23 7.061 2.049 2.384 11.188 5.492 13.79 6.608 2.602 1.117 5.399.936 6.96.664 1.561-.241 4.163 1.449 6.44 3.772 1.464 1.509 2.96 1.66 3.773 1.599-4.131 4.195-26.995-5.341-36.102-10.531-7.676-4.375-16.523-.905-18.507-.03-2.829 1.237-7.318 6.759-8.749 6.397zm46.121-9.777c1.268-.573 4.163 1.871 5.463 2.565 1.269.725 2.472 1.932.716 2.233-1.756.332-9.204-3.409-6.179-4.798z" fill="#F2F2F0"/><path d="M218.487 336.907s-2.505 6.035-9.14 6.608c-6.667.573-8.066-.996-8.164-1.72-.065-.724 3.676-.06 5.757-1.961 2.049-1.901 3.578-4.798 4.977-5.522l6.57 2.595z" fill="#27262C"/><path d="M228.113 337.118c-.097.332.033.663.293.694.228.06.488-.181.553-.543.098-.332-.032-.664-.292-.694-.196 0-.456.211-.554.543z" fill="#020203"/><path d="M211.363 342.037c-.292 0-.292-.422 0-.452.326.03.293.452 0 .452zm-1.268.573c-.13.091-.228.151-.358.242-.032.03-.097.03-.13.03-.032.03-.097 0-.13 0-.032 0-.065-.03-.097-.06l-.098-.091c-.065-.06-.065-.151-.033-.241 0 0 0-.031.033-.061a.243.243 0 01.13-.12c.13-.091.228-.151.358-.242.032-.03.097-.03.13-.03.032-.03.098 0 .13 0 .033 0 .065.03.098.06l.097.091c.065.06.065.151.033.241 0 0 0 .03-.033.061-.065.03-.097.09-.13.12zm-2.245.362c-.065 0-.162-.03-.26-.03-.032 0-.065-.03-.097-.06a8.136 8.136 0 01-.098-.091c-.032-.03-.032-.09-.032-.12-.033-.03 0-.091 0-.121 0 0 0-.03.032-.06.033-.03.065-.091.13-.121.033 0 .033-.03.065-.03h.163c.065 0 .163.03.26.03.033 0 .065.03.098.06l.097.091c.033.03.033.09.033.121.032.03 0 .09 0 .12 0 0 0 .03-.033.061a.243.243 0 01-.13.12c-.032 0-.032.03-.065.03h-.163zm4.847-1.208c-.033-.03-.065-.03-.098-.06l-.098-.09c-.032-.03-.065-.06-.065-.09-.032-.031 0-.091 0-.121s0-.06.033-.09c0-.03.032-.061.065-.061.032-.06.098-.06.13-.09h.098c.065 0 .097 0 .162.06.033.03.065.03.098.061l.098.09c.032.03.065.06.065.09.032.03 0 .091 0 .121s0 .06-.033.09l-.065.06c-.032.03-.098.061-.13.091h-.098c-.097-.03-.13-.03-.162-.061zm-3.708.333c-.032.03-.098.03-.163.03h-.097c-.033 0-.033 0-.098-.03-.032 0-.065-.03-.065-.06-.032 0-.032-.061-.032-.091v-.06c0-.03 0-.06.032-.121l.033-.03c.032-.03.065-.06.097-.06.033-.03.098-.03.163-.03h.097c.033 0 .033 0 .098.03.033 0 .065.03.065.06.033 0 .033.06.033.091v.06c0 .03 0 .06-.033.121 0 .03-.032.03-.032.06-.033 0-.065 0-.098.03zm-2.635 1.117c-.065 0-.162-.03-.26-.03-.032 0-.065-.03-.065-.03s-.065-.03-.065-.061c0 0-.032-.06-.032-.09v-.091c.032-.06.065-.12.097-.12 0 0 .033-.031.065-.031.033-.03.098 0 .13 0 .065 0 .163.031.26.031.033 0 .066.03.066.03s.065.03.065.06c0 0 .032.061.032.091v.09c-.032.061-.065.121-.097.121 0 .03-.033.03-.066.03-.032.03-.097 0-.13 0zm23.939-11.98c-.13-.181-.261-.422-.423-.603-.065-.061-.065-.151-.033-.242 0-.06.065-.15.13-.18.163-.091.358-.031.423.12.13.181.261.422.423.603.065.06.065.151.033.241 0 .061-.065.151-.13.181-.13.061-.293.03-.423-.12zm-1.789-2.021c-.13-.06-.293-.121-.39-.181l-.098-.091c-.032-.03-.065-.06-.065-.09-.033-.031 0-.091 0-.121s0-.061.032-.091a.33.33 0 01.196-.151h.097c.065 0 .098 0 .163.061.13.06.293.12.39.181l.098.09c.032.031.065.061.065.091.032.03 0 .091 0 .121s0 .06-.033.09a.322.322 0 01-.195.151h-.097a.257.257 0 01-.163-.06zm-.13 1.357c-.098-.061-.163-.091-.26-.151l-.098-.091c-.032-.03-.065-.06-.065-.09-.033-.03 0-.091 0-.121s0-.06.032-.09c0 0 .033-.061.066-.061.032-.06.097-.06.13-.09h.097c.065 0 .098 0 .163.06.097.061.162.091.26.151l.097.091c.033.03.065.06.065.09.033.03 0 .09 0 .121 0 .03 0 .06-.032.09 0 0-.033.06-.065.06-.033.061-.098.061-.13.091h-.098a.257.257 0 00-.162-.06zm-1.789-2.383c-.066-.091-.131-.151-.196-.272-.065-.09-.065-.181-.097-.301-.033-.031 0-.091 0-.121s0-.06.032-.09l.098-.091c.032-.03.065-.06.097-.06.066-.03.196 0 .261.03s.13.121.162.181c.033.06.033.12.065.181 0-.03-.032-.03-.032-.061.032.091.097.151.13.212-.033 0-.033-.031-.065-.061h.032c.033.03.065.061.065.091.033.03.033.06.033.12a.313.313 0 01-.098.211.361.361 0 01-.227.091h-.065c-.098 0-.163-.03-.195-.06zm5.431 3.861c-.097-.06-.162-.09-.26-.151l-.097-.09c-.033-.03-.065-.06-.065-.091-.033-.03 0-.09 0-.12s0-.061.032-.091c0 0 .033-.06.065-.06.033-.03.098-.06.13-.091h.098c.065 0 .097 0 .162.061.098.06.163.09.261.151l.097.09c.033.03.065.06.065.091.033.03 0 .09 0 .12s0 .06-.032.091l-.065.06c-.033.06-.098.06-.13.09h-.098c-.065 0-.13 0-.163-.06zm-5.269-2.323l-.195-.091c-.032 0-.065-.03-.065-.06-.032 0-.032-.06-.032-.091v-.09c0-.03 0-.03.032-.091l.033-.03c.032-.03.065-.06.097-.06h.065c.033 0 .065 0 .13.03l.196.091s.065.03.065.06c0 0 .032.06.032.09v.091c0 .03 0 .03-.032.09l-.033.031c-.032.03-.065.06-.097.06h-.066c-.032-.03-.097-.03-.13-.03zm-1.723-1.6c-.033-.06-.065-.151-.098-.181-.032 0-.032-.06-.032-.09v-.09c0-.031.032-.061.032-.061 0-.03.033-.06.065-.06 0-.03.033-.03.065-.03.033-.03.098 0 .13 0 .033 0 .033 0 .065.03l.098.09c.032.061.065.151.097.181 0 0 .033.06.033.09v.091c0 .03-.033.06-.033.06 0 .03-.032.06-.065.06 0 .03-.032.03-.065.03-.032.03-.097 0-.13 0-.032 0-.032 0-.065-.03l-.097-.09zm.13-1.84c-.033-.03-.033-.06-.065-.09 0 0-.033-.061-.033-.091v-.09c.033-.03.033-.061.065-.091 0-.03.033-.06.065-.06.033 0 .033-.03.065-.03.033-.03.098 0 .13 0 .033 0 .033 0 .065.03l.098.09c.032.031.032.061.065.091 0 0 .032.06.032.09v.091c0 .03-.032.06-.032.06 0 .03-.033.061-.065.061 0 .03-.033.03-.065.03-.033.03-.098 0-.13 0 0 0-.033 0-.065-.03-.098 0-.13-.031-.13-.061zm-.651.332h-.227c-.033 0-.065-.03-.065-.03h-.033l-.065-.06c-.065-.03-.065-.091-.097-.151v-.09c-.033 0-.033-.031 0-.061 0-.03.032-.06.065-.06.032 0 .065-.03.097-.03h.065c.033 0 .065 0 .13.03l.033.03c.032.03.065.06.065.091 0 0-.033-.031-.033-.061.033 0 .033 0 .033.03-.033 0-.033-.03-.033-.06l.033.03c-.033 0-.033-.03-.065-.03.032 0 .032 0 .032.03 0 0-.032 0-.065-.03h.033-.065.032-.065.13c.033 0 .033 0 .098.03l.065.061s.032.06.032.09v.06c0 .031.001.061-.032.121 0 .03-.033.03-.033.06 0-.03-.032 0-.065 0zm-1.268-1.298l-.293-.18a.166.166 0 01-.097-.151v-.09c0-.031 0-.031.032-.091.033-.06.098-.09.13-.09.065 0 .13 0 .195.03l.293.181c.065.03.097.09.097.15v.091c0 .03 0 .03-.032.09-.033.06-.098.09-.13.09-.065 0-.13 0-.195-.03zm-1.138.422c-.033 0-.098-.031-.163-.061-.033 0-.065-.03-.098-.06l-.097-.09c-.033-.03-.033-.091-.033-.121-.032-.03 0-.09 0-.12s0-.03.033-.06a.241.241 0 01.13-.121c.032 0 .032-.03.065-.03h.163c.032 0 .097.03.162.06.033 0 .065.03.098.061l.097.09c.033.03.033.09.033.12.032.03 0 .091 0 .121s0 .03-.033.06a.243.243 0 01-.13.12c-.032 0-.032.031-.065.031-.032 0-.097.03-.162 0zm-.911-1.267s-.032-.03-.065-.03c.033 0 .065 0 .065.03h-.065.065c0 .03-.032.03-.065.03.033-.03.065-.03.065-.03.033-.03 0 0 0 0h-.13c-.032 0-.065 0-.097-.03l-.098-.09c-.033-.031-.065-.061-.065-.091v-.09c0-.06 0-.09.065-.151 0-.03.032-.06.065-.06.033-.06.098-.06.13-.09h.033c.032 0 .065-.03.13 0 .065 0 .097 0 .162.03.033 0 .033 0 .065.03.033 0 .065.03.098.03l.033.03.097.091c.033.03.065.06.065.09.033.03 0 .09 0 .12s0 .061-.032.091c0 .03-.033.06-.065.06-.033.06-.098.06-.131.09h-.097c-.13-.03-.195-.03-.228-.06z" fill="#42404B"/><path d="M259.167 278.55v4.749h2.165v12.633h-5.792V278.55c0-.174.087-.305.204-.305h3.219c.117 0 .204.131.204.305z" fill="#F6F6F6"/><path d="M255.569 293.056h5.793v-2.918h-5.793v2.918z" fill="#D65229"/><path d="M257.529 288.701h.673v-2.048c0-.043-.03-.131-.059-.131h-.526c-.03 0-.059.044-.059.131v2.048h-.029z" fill="#C6C6C6"/><path d="M257.704 286.74h.352c.029 0 .058.044.058.087v.523c0 .043-.029.087-.058.087h-.352c-.029 0-.058-.044-.058-.087v-.523c0-.043 0-.087.058-.087z" fill="#546C82"/><path d="M257.529 283.298h.673v-2.047c0-.044-.03-.131-.059-.131h-.526c-.03 0-.059.044-.059.131v2.047h-.029z" fill="#C6C6C6"/><path d="M257.704 281.295h.352c.029 0 .058.044.058.087v.523c0 .044-.029.087-.058.087h-.352c-.029 0-.058-.043-.058-.087v-.523c0-.043 0-.087.058-.087z" fill="#546C82"/><path d="M257.968 278.245h.731v-3.834c0-.305-.146-.522-.351-.522h-.029c-.205 0-.351.217-.351.522v3.834z" fill="#3C3C3B"/><path d="M257.968 278.244h.731v-2.396c0-.305-.146-.523-.351-.523h-.029c-.205 0-.351.218-.351.523v2.396z" fill="#1D1D1B"/><path d="M257.002 278.245h.731v-3.834c0-.305-.146-.522-.351-.522h-.029c-.205 0-.351.217-.351.522v3.834z" fill="#3C3C3B"/><path d="M257.002 278.244h.731v-2.396c0-.305-.146-.523-.351-.523h-.029c-.205 0-.351.218-.351.523v2.396z" fill="#1D1D1B"/><path d="M256.037 278.245h.731v-3.834c0-.305-.146-.522-.351-.522h-.029c-.205 0-.351.217-.351.522v3.834z" fill="#3C3C3B"/><path d="M256.037 278.244h.731v-2.396c0-.305-.146-.523-.351-.523h-.029c-.205 0-.351.218-.351.523v2.396z" fill="#1D1D1B"/><path d="M255.803 276.067v2.179h.234l1.316-.959 1.317.959h.234v-2.179h-3.101zm2.75.175l-1.2.871-1.199-.871h2.399zm-1.083.958l1.317-.958v1.916l-1.317-.958zm-1.55-.958l1.316.958-1.316.958v-1.916z" fill="#3C3C3B"/><path d="M243.515 299.548h19.982v-3.965h-8.894v-5.402l.468-2.918h-3.13v-6.492h-9.158l.732 2.876v15.901z" fill="#EDEDED"/><path d="M246.586 282.95h5.355v-1.83h-4.916l-.439 1.83z" fill="#D65229"/><path d="M250.975 282.601h.234l.234-1.089h-.234l-.234 1.089zm-.468 0h.234l.234-1.089h-.234l-.234 1.089zm-.497 0h.234l.234-1.089h-.234l-.234 1.089zm-.468 0h.234l.234-1.089h-.234l-.234 1.089zm-.498 0h.234l.235-1.089h-.235l-.234 1.089zm-.467 0h.234l.234-1.089h-.234l-.234 1.089zm-.469 0h.234l.235-1.089h-.235l-.234 1.089zm-.497 0h.234l.234-1.089h-.234l-.234 1.089zm-.468 0h.234l.234-1.089h-.234l-.234 1.089z" fill="#546C82"/><path d="M242.783 280.771l.732 2.876h2.896l.731-2.876h-4.359z" fill="#F6F6F6"/><path d="M246.47 282.95l.409-1.83h-.79v1.83h.381zm-3.014 0l-.409-1.83h.79v1.83h-.381zm1.58 0h.966v-1.83h-.966v1.83zm-1.082 0h.965v-1.83h-.965v1.83z" fill="#546C82"/><path d="M243.515 286.914h2.896v-3.268h-2.896v3.268z" fill="#E6E6E6"/><path d="M245.68 286.914h.732v-3.268h-.732v3.268z" fill="#DEDEDE"/><path d="M243.515 286.914h.731v-3.268h-.731v3.268z" fill="#EDEDED"/><path d="M249.308 286.915h.644v-2.048c0-.044-.029-.131-.059-.131h-.526c-.03 0-.059.044-.059.131v2.048z" fill="#C6C6C6"/><path d="M249.455 284.911h.351c.029 0 .058.044.058.087v.522c0 .044-.029.088-.058.088h-.351c-.03 0-.059-.044-.059-.088v-.522c0-.043.029-.087.059-.087z" fill="#546C82"/><path d="M249.308 289.791h.644v-2.048c0-.044-.029-.131-.059-.131h-.526c-.03 0-.059.044-.059.131v2.048z" fill="#C6C6C6"/><path d="M249.455 287.829h.351c.029 0 .058.044.058.087v.523c0 .044-.029.087-.058.087h-.351c-.03 0-.059-.043-.059-.087v-.523c0-.043.029-.087.059-.087zm1.286-2.003h.468v-.741h-.468v.741zm-2.633 0h.469v-.741h-.469v.741zm-1.229 0h.468v-.741h-.468v.741zm7.285 3.267h.497l.176-1.089h-.468l-.205 1.089zm-.702 0h.468l.176-1.089h-.469l-.175 1.089zm-.79 0h.527l.175-1.089h-.731l.029 1.089zm-.234-1.089h-.731v1.089h.731v-1.089z" fill="#546C82"/><path d="M289.447 296.934h-.058l-7.607-1.743v.436l2.604 1.133h.029l4.447 1.96.585-1.786zm-3.598.174l-.527-.523.761-.13-.146.697-.088-.044zm-1.287-.566l.087-.436h.03l.351.349-.41.087h-.058zm.351-.349l.79.175-.498.087-.292-.262zm2.428 1.569l-.527-.654.732-.261-.205.915zm.322-.915l.409.653-.614.262.205-.915zm-.936.087l-.322-.436.936.218-.614.218zm-.527-.436l.38.523-.526.174h-.03l.176-.697zm.497.61l.41.523-.819-.348.409-.175zm1.463.567l.41.653-.936-.436.526-.217zm.117-.088l.878-.392-.38 1.133-.498-.741zm-.058-.13l-.381-.61 1.141.261-.76.349zm-5.822-1.874l2.135.48-.087.392-2.048-.872zm2.779 1.046l.322.349-.615-.262.293-.087z" fill="#FFA333"/><path d="M291.203 299.199h-2.633v-1.524c0-.61.322-1.133.76-1.133h1.141c.41 0 .761.523.761 1.133l-.029 1.524z" fill="#E38716"/><path d="M281.929 295.627h-.059v1.699h.059v-1.699zm-.205 0h-.058v1.699h.058v-1.699z" fill="#3C3C3B"/><path d="M282.045 295.409c0 .218-.117.392-.263.392-.146 0-.263-.174-.263-.392 0-.218.117-.392.263-.392.146 0 .263.174.263.392zm-.174 2.308v-.087c.087-.043.146-.174.117-.305 0-.13-.088-.217-.176-.261-.117-.044-.234.087-.234.305 0 .131.059.218.117.305v.131c0 .043.029.087.059.087.058 0 .117.087.087.217-.029.175-.204.131-.234 0-.029.175.059.262.147.262.117 0 .175-.131.205-.262.058-.304-.088-.392-.088-.392z" fill="#3C3C3B"/><path d="M289.214 297.325h-.147v1.307h.147v-1.307zm.38 0h-.146v1.307h.146v-1.307zm.38 0h-.146v1.307h.146v-1.307zm.351 0h-.146v1.307h.146v-1.307zm.381 0h-.146v1.307h.146v-1.307z" fill="#CC7914"/><path d="M253.521 286.914h.351v-10.542c0-.131-.088-.262-.176-.262s-.175.131-.175.262v10.542zm-.849 0h.351v-10.542c0-.131-.087-.262-.175-.262s-.176.131-.176.262v10.542z" fill="#1D1D1B"/><path d="M243.047 279.597h.234v-.48h-.234v.48z" fill="#DEDEDE"/><path d="M242.872 280.424h.848l-.351-.872c0-.043-.029-.043-.059-.043h-.263c-.029 0-.058.043-.058.087l-.117.828z" fill="#E6E6E6"/><path d="M242.315 279.248h1.697c.058 0 .117-.087.117-.174s-.059-.175-.117-.175h-1.697c-.059 0-.117.088-.117.175s.058.174.117.174zm5.354 1.175h.176v-14.114h-.059l-.117 14.114zm-.906 0h.117v-6.883h-.059l-.058 6.883z" fill="#F6F6F6"/><path d="M249.249 273.453h.234v-.435h-.234v.435z" fill="#DEDEDE"/><path d="M249.132 273.888h.79l-.351-.522c0-.044-.029-.044-.058-.044h-.293c-.029 0-.058.044-.058.044l-.03.522z" fill="#E6E6E6"/><path d="M248.518 273.061h1.697c.058 0 .117-.088.117-.175s-.059-.174-.117-.174h-1.697c-.059 0-.117.087-.117.174 0 .131.058.175.117.175z" fill="#F6F6F6"/><path d="M249.044 273.191v.828h1.551l-.673 4.53.176.044.058-.392.936-1.089.761 1.045v.349h.176v-8.582h.643c.029 0 .059-.044.059-.088 0-.043-.03-.087-.059-.087h-.643v-1.132h-.117v-.218h.263v-.174h-.966v.174h.264v.218h-.117l-.03.13h-.614v.959h-.497c-.03 0-.059.043-.059.087 0 .043.029.087.059.087h.936l-.146 1.002h-1.756v.828h1.639l-.205 1.307h-1.609l-.03.174zm2.809-4.226v.218h-.351l.029-.218h.322zm-.205 2.135l.059.174h-.381l.088-.174h.234zm-.175-.087l.087-.175.059.175h-.146zm.175-.349l.205-.435v.74h-.088l-.117-.305zm-.439 2.527l.205-.349.146.349h-.351zm.41.087l.058.174h-.643l.117-.174h.468zm-.117-.61l.351-.653v1.132h-.146l-.205-.479zm.351.61v.174h-.029l-.059-.174h.088zm0-2.004l-.058-.174h.058v.174zm0 4.487l-.527-.915.527-.74v1.655zm-.058.174h-1.2l.673-.958.527.958zm-.937-1.916h.878l-.497.697-.381-.697zm0-.262l.117-.218h.732l.088.218h-.937zm.059-.479h.088l-.117.174h-.03l.059-.174zm-1.551-1.917h1.639l-.03.218h-1.609v-.218zm1.668-.261l-.029.174h-1.639v-.174h1.668zm.058.915l.264.61-.293.522h-.117l.146-1.132zm.059-.131h.614l-.351.653-.263-.653zm.146-.523h.468l.088.218h-.644l.088-.218zm-.088-.087l.03-.174h.058l-.088.174zm-.409-1.612h.439l-.03.174h-.409v-.174zm0-.392h.497l-.029.262h-.468v-.262zm.556-.348l-.03.261h-.526v-.261h.556zm.146 1.742l-.176.349h-.087l.117-.784.146.435zm-.088-.653h.41l-.234.479-.176-.479zm.029-.349h.41v.174h-.439l.029-.174zm.059-.392h.38v.262h-.409l.029-.262zm.351-.566h-.293v-.218h.293v.218zm-.673 8.364l.673-.784v1.699l-.673-.915zm-.614-.871h1.141l-.615.74-.526-.74zm-.117.087l.556.784-.79.915.234-1.699zm.322-2.135l.409.697-.644.872.235-1.569zm-1.639-.61h1.551l-.029.218h-1.522v-.218zm0-.261h1.58l-.029.174h-1.58l.029-.174z" fill="#F6F6F6"/><path d="M248.811 280.423h5.295v-2.527h-4.33l-.965 2.527z" fill="#EDEDED"/><path d="M250.741 280.423h.644v-2.047c0-.044-.029-.131-.059-.131h-.526c-.03 0-.059.044-.059.131v2.047z" fill="#C6C6C6"/><path d="M250.887 278.42h.351c.029 0 .059.043.059.087v.522c0 .044-.03.087-.059.087h-.351c-.029 0-.058-.043-.058-.087v-.522c0-.044.029-.087.058-.087z" fill="#546C82"/><path d="M242.813 280.772h11.556v-.348h-11.556v.348zm-.03-1.437v1.045h.059v-.304h1.843v.304h.058v-.304h1.873v.304h.058v-.304h1.873v.304h.058v-.304h1.873v.304h.058v-.304h1.873v.304h.058v-.304h1.843v.304h.059v-1.045h-11.586zm3.833.087v.218h-1.873v-.218h1.873zm1.931 0v.218h-1.873v-.218h1.873zm1.931 0v.218h-1.873v-.218h1.873zm1.901 0v.218h-1.872v-.218h1.872zm1.902.218h-1.843v-.218h1.843v.218zm-1.814.348v-.261h1.843v.261h-1.843zm-1.931 0v-.261h1.873v.261h-1.873zm-1.931 0v-.261h1.873v.261h-1.873zm-1.931 0v-.261h1.873v.261h-1.873zm-1.901 0v-.261h1.872v.261h-1.872zm-1.902-.261h1.843v.261h-1.843v-.261zm0-.305h1.843v.218h-1.843v-.218zm9.07 4.224h9.625v-.348h-9.625v.348zm1.902-1.35v.218h-1.902v.087h1.902v.261h-1.902v.088h1.902v.304h.058v-.304h1.873v.304h.058v-.304h1.872v.304h.059v-.304h1.872v.304h.059v-.304h1.58v.304h.058v-1.045h-9.362v.087h1.873zm3.861 0v.218h-1.872v-.218h1.872zm1.902 0v.218h-1.872v-.218h1.872zm1.668.218h-1.58v-.218h1.58v.218zm-1.609.392v-.261h1.579v.261h-1.579zm-1.902 0v-.261h1.872v.261h-1.872zm-1.931 0v-.261h1.872v.261h-1.872zm-1.931-.305h1.873v.261h-1.873v-.261zm0-.305h1.873v.218h-1.873v-.218zm-1.726 13.288h13.721v-.393h-13.721v.393z" fill="#3C3C3B"/><path d="M265.428 299.547h.234v-3.964h-.234v3.964zm-11.586-5.314v.217h-1.638v.088h1.638v.261h-1.638v.087h1.638v.305h.059v-.305h1.872v.305h.059v-.305h1.872v.305h.059v-.305h1.872v.305h.059v-.305h1.872v.305h.059v-.305h1.872v.305h.059v-.305h2.077v.305h.058v-1.045h-13.458v.087h1.609zm3.862 0v.217h-1.872v-.217h1.872zm1.902 0v.217h-1.872v-.217h1.872zm1.931 0v.217h-1.872v-.217h1.872zm1.931 0v.217h-1.873v-.217h1.873zm2.136.217h-2.078v-.217h2.078v.217zm-2.078.349v-.261h2.078v.261h-2.078zm-1.931 0v-.261h1.873v.261h-1.873zm-1.93 0v-.261h1.872v.261h-1.872zm-1.902 0v-.261h1.872v.261h-1.872zm-1.931 0v-.261h1.872v.261h-1.872zm-1.931-.261h1.872v.261h-1.872v-.261zm0-.305h1.872v.217h-1.872v-.217z" fill="#3C3C3B"/><path d="M262.181 296.716c0-.087-.03-.174-.117-.174-.527.087-2.282.218-3.599.218-1.492 0-3.715-.218-3.715-.218s.204 1.917 1.111 2.222c.644.218 4.711.13 5.559.13.088 0 .146-.087.176-.217.029-.305.087-.697.497-1.002l.088-.959z" fill="#FFA333"/><path d="M261.537 297.631c-.059.435-.293.958-.585.958-.293 0-4.213.044-4.506 0-.292-.043-.819-.087-1.053-.479.146.392.527.566 1.112.61.497.043 4.213 0 4.447 0 .292 0 .526-.305.585-1.089zm-6.641-1.089c.497.044 2.311.218 3.569.218 1.17 0 2.691-.087 3.394-.174 0 0-1.434.522-3.804.435-2.37-.043-3.159-.479-3.159-.479z" fill="#C6C6C6"/><path d="M260.396 299.199h.585v-.305c0-.087-.029-.13-.088-.13h-.409c-.059 0-.088.043-.088.13v.305zm-3.569 0h.585v-.305c0-.087-.029-.13-.088-.13h-.41c-.058 0-.087.043-.087.13v.305z" fill="#3C3C3B"/><path d="M272.04 296.716c0-.087-.029-.174-.117-.174-.527.087-2.311.218-3.599.218-1.492 0-3.715-.218-3.715-.218s.205 1.917 1.112 2.222c.643.218 4.71.13 5.558.13.088 0 .147-.087.176-.217.029-.305.088-.697.497-1.002l.088-.959z" fill="#FFA333"/><path d="M271.426 297.631c-.059.435-.293.958-.586.958-.292 0-4.212.044-4.505 0-.293-.043-.819-.087-1.053-.479.146.392.526.566 1.111.61.498.043 4.213 0 4.447 0 .264 0 .498-.305.586-1.089zm-6.671-1.089c.498.044 2.312.218 3.57.218 1.17 0 2.691-.087 3.393-.174 0 0-1.433.522-3.803.435-2.37-.043-3.16-.479-3.16-.479z" fill="#C6C6C6"/><path d="M270.255 299.199h.585v-.305c0-.087-.029-.13-.087-.13h-.41c-.058 0-.088.043-.088.13v.305zm-3.569 0h.585v-.305c0-.087-.029-.13-.088-.13h-.409c-.059 0-.088.043-.088.13v.305zm-14.482-7.493v-.087h3.335v.087h-1.638v.218h1.638v.087h-1.638v.261h1.638v.088h-1.638v.304h-.058v-.261h-1.639v-.087h1.639v-.261h-1.639v-.087h1.639v-.218l-1.639-.044zm-.029 1.351h3.364v-.348h-3.364v.348z" fill="#3C3C3B"/><path d="M241.35 286.087h.234v-.436h-.234v.436z" fill="#DEDEDE"/><path d="M241.174 287.001h.615l-.117-.958c0-.044-.03-.044-.03-.044h-.292c-.029 0-.029.044-.029.044l-.147.958zm.293-2.265h-.732v.087l.732.262v-.349zm0-.697h-.732v.087l.732.262v-.349z" fill="#E6E6E6"/><path d="M241.467 285.607c.058 0 .087-.043.087-.13v-2.527c0-.087-.029-.131-.087-.131-.059 0-.088.044-.088.131v2.527c0 .043.058.13.088.13z" fill="#F6F6F6"/><path d="M241.467 285.215c.205 0 .351.174.351.348h-.732c.03-.217.176-.348.381-.348z" fill="#E6E6E6"/><path d="M240.618 285.738h1.697c.059 0 .117-.087.117-.174s-.058-.174-.117-.174h-1.697c-.058 0-.117.087-.117.174s.059.174.117.174zm.205-1.698h.176v-.261c0-.044-.03-.088-.059-.088h-.058c-.03 0-.059.044-.059.088v.261zm0 .696h.176v-.261c0-.044-.03-.087-.059-.087h-.058c-.03 0-.059.043-.059.087v.261z" fill="#F6F6F6"/><path d="M241.116 287.264h13.955v-.349h-13.955v.349zm0-1.44v1.046h.058v-.305h2.077v.305h.059v-.305h1.872v.305h.059v-.305h1.872v.305h.059v-.305h1.872v.305h.059v-.305h1.872v.305h.059v-.305h1.872v.305h.059v-.305h2.077v.305h.058v-1.046h-13.984zm4.066.087v.218h-1.872v-.218h1.872zm1.931 0v.218h-1.872v-.218h1.872zm1.902 0v.218h-1.872v-.218h1.872zm1.931 0v.218h-1.873v-.218h1.873zm1.931 0v.218h-1.873v-.218h1.873zm2.136.218h-2.078v-.218h2.078v.218zm-2.078.392v-.261h2.078v.261h-2.078zm-1.931 0v-.261h1.873v.261h-1.873zm-1.901 0v-.261h1.872v.261h-1.872zm-1.931 0v-.261h1.872v.261h-1.872zm-1.931 0v-.261h1.872v.261h-1.872zm-1.931 0v-.261h1.872v.261h-1.872zm-2.136-.305h2.077v.262h-2.077v-.262zm0-.305h2.077v.218h-2.077v-.218zm14.366 3.879l.731-1.089h5.295v.349h-5.295l-.731 1.089h-6.729v-.349h6.729z" fill="#3C3C3B"/><path d="M249.981 288.831v.217h-1.17v.087h1.17v.262h-1.17v.087h1.17v.305h.058v-.305h1.873v.305h.058v-.305h1.873v.305h.058v-.305h1.58v.305h.059v-.305h.029l.702-1.046v.305h.059v-.305h1.345v.305h.059v-.305h1.872v.305h.059v-.305h1.58v.305h.058v-1.089H256.3l-.731 1.089h-6.758v.088h1.17zm9.684-.785h1.58v.262h-1.58v-.262zm0-.305h1.58v.218h-1.58v-.218zm-1.902.305h1.872v.262h-1.872v-.262zm0-.305h1.872v.218h-1.872v-.218zm-1.433.305h1.345v.262h-1.345v-.262zm0-.305h1.345v.218h-1.345v-.218zm-.79 1.394l.731-1.045v.261h-.029l-.702 1.046v-.262zm0-.304l.731-1.09v.218h-.029l-.702 1.046v-.174zm-1.639.304h1.58v.262h-1.58v-.262zm0-.304h1.58v.217h-1.58v-.217zm-1.931.304h1.873v.262h-1.873v-.262zm0-.304h1.873v.217h-1.873v-.217zm-1.931.304h1.873v.262h-1.873v-.262zm0-.304h1.873v.217h-1.873v-.217zm4.272 9.366v.218h-1.434v.087h1.434v.262h-1.434v.087h1.434v.305h.058v-.305h1.872v.305h.059v-.305h1.872v.305h.059v-.305h1.872v.305h.059v-.305h1.872v.305h.059v-.305h1.872v.305h.059v-.305h1.872v.305h.059v-.305h1.872v.305h.059v-.305h1.872v.305h.058v-.305h1.873v.305h.058v-.305h1.873v.305h.058v-.305h1.873v.305h.058v-.305h2.077v.305h.059v-1.046h-24.868v.087h1.434zm21.24.305h2.077v.262h-2.077v-.262zm0-.305h2.077v.218h-2.077v-.218zm-1.902.305h1.872v.262h-1.872v-.262zm0-.305h1.872v.218h-1.872v-.218zm-1.931.305h1.873v.262h-1.873v-.262zm0-.305h1.873v.218h-1.873v-.218zm-1.931.305h1.873v.262h-1.873v-.262zm0-.305h1.873v.218h-1.873v-.218zm-1.931.305h1.873v.262h-1.873v-.262zm0-.305h1.873v.218h-1.873v-.218zm-1.931.305h1.873v.262h-1.873v-.262zm0-.305h1.873v.218h-1.873v-.218zm-7.753 0v.218H256.3v-.218h1.872zm1.931 0v.218h-1.872v-.218h1.872zm1.931 0v.218h-1.872v-.218h1.872zm1.931 0v.218h-1.872v-.218h1.872zm1.902.262h-1.873v-.218h1.873v.218zm-1.873.348v-.305h1.873v.262h-1.873v.043zm-1.901 0v-.305h1.872v.262h-1.872v.043zm-1.931 0v-.305h1.872v.262h-1.872v.043zm-1.931 0v-.305h1.872v.262h-1.872v.043zm-1.931 0v-.305h1.872v.262H256.3v.043zm-1.931-.305h1.872v.262h-1.872v-.262zm0-.305h1.872v.218h-1.872v-.218zm-31.07-2.962h6.261v-.523c0-.349-.176-.566-.381-.566h-5.471c-.234 0-.38.261-.38.566l-.029.523zm6.992 0l.176-.784c.029-.13.117-.218.204-.174l8.046.61-8.426.348z" fill="#3C3C3B"/><path d="M292.607 299.2l-.965-.741h-11.059l-2.896.741h2.399l.468-.349h10.825l.234.349h.994z" fill="#D65229"/><path d="M270.723 308.086l-30.075.087c.087.174-9.86-.392-13.488-4.269l-4.798-6.491.468-2.527h16.852l1.434-7.58h7.694v2.918h3.365v6.491l1.697 2.527h38.735l1.697 1.438h1.902c.409 0 .731.479.731 1.089a1.1 1.1 0 01-.175.61c-.41.61-1.492 2.047-3.189 2.614l-3.628 2.526-6.495.349-12.727.218z" fill="#F6F6F6"/><path d="M296.937 301.77a1.1 1.1 0 01-.175.609c-.322.523-1.141 1.612-2.37 2.266h-15.974l-3.862 1.437h-43.943c-2.195-.566-2.341-1.045-3.453-2.178l-2.662-3.616h30.105l-.731-1.089h38.735l1.697 1.438h1.902c.409 0 .731.523.731 1.133z" fill="#1D1D1B"/><path d="M222.479 296.673l.352-1.83h16.851l.966 1.83h-18.169z" fill="#D65229"/><path d="M246.879 289.442h.732v-1.089h-.732v1.089zm-1.901 0h.731v-1.089h-.731v1.089zm-2.165 0h.731v-1.089h-.731v1.089zm4.066 2.918h.732v-1.089h-.732v1.089zm-1.901 0h.731v-1.089h-.731v1.089zm-2.165 0h.731v-1.089h-.731v1.089zm4.066 2.875h.732v-1.089h-.732v1.089zm-1.901 0h.731v-1.089h-.731v1.089zm-2.165 0h.731v-1.089h-.731v1.089zm-1.697 0h.468v-1.089h-.468v1.089zm0-2.875h.468v-1.089h-.468v1.089zm5.763 5.751h.732v-1.09h-.732v1.09zm1.932-5.751h.731v-1.089h-.731v1.089zm0 2.875h.731v-1.089h-.731v1.089zm0 2.876h.731v-1.09h-.731v1.09zm1.93-5.751h.732v-1.089h-.732v1.089zm0 2.875h.732v-1.089h-.732v1.089zm0 2.876h.732v-1.09h-.732v1.09zm-5.763 0h.731v-1.09h-.731v1.09zm-2.165 0h.731v-1.09h-.731v1.09z" fill="#546C82"/><path d="M254.603 300.288h39.292l-1.259-1.089h-38.735l.702 1.089z" fill="#D65229"/><defs><linearGradient id="paint0_linear" x1="189.067" y1="322.629" x2="270.375" y2="322.629" gradientUnits="userSpaceOnUse"><stop stop-color="#409CCB"/><stop offset=".844" stop-color="#3E5680"/></linearGradient><linearGradient id="paint1_linear" x1="38.559" y1="353.384" x2="159.167" y2="353.384" gradientUnits="userSpaceOnUse"><stop stop-color="#409CCB"/><stop offset=".844" stop-color="#3E5680"/></linearGradient><linearGradient id="paint2_linear" x1="159.344" y1="457" x2="159.344" y2="0" gradientUnits="userSpaceOnUse"><stop stop-color="#fff"/><stop offset=".741" stop-color="#C8E9FA"/></linearGradient><linearGradient id="paint3_linear" x1="174.394" y1="150.681" x2="270.375" y2="150.681" gradientUnits="userSpaceOnUse"><stop offset=".085" stop-color="#1A1A1A"/><stop offset=".92" stop-color="#fff"/></linearGradient><linearGradient id="paint4_linear" x1="64.564" y1="346.682" x2="155.992" y2="346.682" gradientUnits="userSpaceOnUse"><stop stop-color="#E6E6E6"/><stop offset=".844" stop-color="#333"/></linearGradient><linearGradient id="paint5_linear" x1="64.564" y1="346.682" x2="155.992" y2="346.682" gradientUnits="userSpaceOnUse"><stop stop-color="#409CCB"/><stop offset=".844" stop-color="#3E5680"/></linearGradient><linearGradient id="paint6_linear" x1="47.636" y1="340.714" x2="56.123" y2="340.714" gradientUnits="userSpaceOnUse"><stop stop-color="#E6E6E6"/><stop offset=".844" stop-color="#333"/></linearGradient><linearGradient id="paint7_linear" x1="47.636" y1="340.714" x2="56.123" y2="340.714" gradientUnits="userSpaceOnUse"><stop stop-color="#409CCB"/><stop offset=".844" stop-color="#3E5680"/></linearGradient><linearGradient id="paint8_linear" x1="135.353" y1="307.749" x2="135.353" y2="456.835" gradientUnits="userSpaceOnUse"><stop stop-color="#E6E6E6"/><stop offset=".844" stop-color="#E6E6E6"/></linearGradient><linearGradient id="paint9_linear" x1="159.336" y1="307.001" x2="159.336" y2="456.553" gradientUnits="userSpaceOnUse"><stop stop-color="#409CCB"/><stop offset=".844" stop-color="#3E5680"/></linearGradient><linearGradient id="paint10_linear" x1="159.336" y1="348.679" x2="159.336" y2="456.553" gradientUnits="userSpaceOnUse"><stop offset=".318" stop-color="#fff"/><stop offset="1" stop-color="#B5E0F1"/></linearGradient><linearGradient id="paint11_linear" x1="287.798" y1="391.657" x2="289.499" y2="391.657" gradientUnits="userSpaceOnUse"><stop offset=".001" stop-color="#fff" stop-opacity=".05"/><stop offset=".382" stop-color="#ACC0CD" stop-opacity=".413"/><stop offset=".807" stop-color="#557E99" stop-opacity=".816"/><stop offset="1" stop-color="#336484"/></linearGradient></defs></svg>