<svg width="64" height="56" fill="none" xmlns="http://www.w3.org/2000/svg"><path d="M6.403 52.188h-.921L5.338 51H1.064l-.143 1.188H0V49.84h.703c.044-.07.117-.225.219-.465.1-.241.202-.58.303-1.017.102-.443.187-.994.257-1.653.07-.665.101-1.45.095-2.356h3.98v5.491h.846v2.346zM4.256 49.84v-4.332H2.783c-.038 1.127-.13 2.052-.275 2.774-.14.716-.282 1.235-.428 1.558h2.176zm13.19-5.491h3.942v1.159h-2.64v1.548h2.403v1.16h-2.404v1.624h2.689V51h-3.99v-6.65zm19.992 1.159H35.5V51h-1.3v-5.491h-1.95V44.35h5.187v1.159zM52.3 47.314l.076-.864h-.048l-.446.892L49.402 51h-.978v-6.65h1.301v3.62l-.095.892h.057l.466-.921 2.48-3.591h.968V51H52.3v-3.686zM9.813 14.442h4.866L9.672 0H4.987L0 14.442h4.806l.603-2.373h3.78l.624 2.373zm-3.54-5.674L7.3 4.808l1.026 3.96H6.274zm9.21 5.674h4.363V9.016c0-1.32.744-2.001 1.93-2.001.744 0 1.308.185 1.549.33l-.201-3.61c-.141-.124-.563-.269-1.146-.269-.946 0-1.71.537-2.132 1.3l-.402-1.052h-3.961v10.728zm13.689.248c1.247 0 2.413-.31 2.956-.537l.563-3.425c-.503.227-1.549.516-2.494.516-1.367 0-1.95-.598-1.95-2.104 0-1.671.543-2.311 1.79-2.311.904 0 1.89.33 2.392.578l-.2-3.404c-.564-.227-1.77-.537-3.057-.537-3.66 0-5.309 1.857-5.309 5.674 0 3.734 1.65 5.55 5.309 5.55zm11.413-3.508c-.885 0-1.387-.31-1.387-1.3V6.705h2.573V3.714h-2.573V.619l-4.364.825v2.27h-1.508v2.991h1.508v3.384c0 3.198 1.589 4.58 4.183 4.58 1.065 0 2.03-.248 2.473-.433l.583-3.363c-.302.124-.905.31-1.488.31zm2.6-8.706h4.363V0h-4.363v2.476zm0 11.966h4.363V3.714h-4.363v10.728zm11.097.248c1.247 0 2.413-.31 2.956-.537l.563-3.425c-.503.227-1.548.516-2.493.516-1.368 0-1.95-.598-1.95-2.104 0-1.671.542-2.311 1.789-2.311.905 0 1.89.33 2.393.578l-.201-3.404c-.563-.227-1.77-.537-3.057-.537-3.66 0-5.308 1.857-5.308 5.674 0 3.734 1.648 5.55 5.308 5.55zM12.447 32.752l-2.493-5.446c1.307-.805 1.95-2.187 1.95-4.065 0-3.094-1.71-4.93-5.288-4.93H0v14.441h4.585V28.09H5.71l1.79 4.662h4.946zM4.585 22.024h1.608c.764 0 1.126.454 1.126 1.259 0 .804-.362 1.258-1.126 1.258H4.585v-2.517zM16.503 33c1.267 0 2.152-.495 2.916-1.3l.402 1.052h3.961V22.024H19.42v6.623c0 .64-.221.97-.764.97-.584 0-.765-.33-.765-.97v-6.623h-4.363v7.82c0 1.836.985 3.156 2.976 3.156zm13.049-.041c3.64 0 4.966-1.218 4.966-3.487 0-2.063-.844-3.115-2.815-3.507l-1.468-.29c-.643-.123-.784-.247-.784-.494 0-.227.181-.351.664-.351 1.568 0 3.116.433 3.84.763l-.18-3.115c-.684-.289-2.192-.66-3.861-.66-3.137 0-4.585 1.238-4.585 3.445 0 2.022.784 3.033 2.875 3.466l1.488.31c.604.103.724.227.724.454 0 .247-.2.392-.744.392-1.85 0-3.62-.516-4.424-.888l.523 3.343c.724.268 2.252.619 3.78.619zm10.333 0c3.64 0 4.967-1.218 4.967-3.487 0-2.063-.844-3.115-2.815-3.507l-1.468-.29c-.644-.123-.784-.247-.784-.494 0-.227.18-.351.663-.351 1.569 0 3.117.433 3.841.763l-.18-3.115c-.685-.289-2.193-.66-3.862-.66-3.137 0-4.584 1.238-4.584 3.445 0 2.022.784 3.033 2.875 3.466l1.488.31c.603.103.724.227.724.454 0 .247-.201.392-.744.392-1.85 0-3.62-.516-4.424-.888l.523 3.343c.724.268 2.252.619 3.78.619zm6.373-12.173h4.363V18.31h-4.363v2.476zm0 11.966h4.363V22.024h-4.363v10.728zm8.865.248c1.488 0 2.393-.743 2.654-1.3l.402 1.052H62V26.13c0-2.744-1.548-4.312-5.108-4.312-1.488 0-2.855.206-3.478.371l-.563 3.404c.623-.227 1.91-.515 3.137-.515 1.307 0 1.79.268 1.79 1.01v.042h-1.951c-2.574 0-3.861 1.258-3.861 3.425 0 2.145 1.066 3.445 3.157 3.445zm1.669-2.97c-.563 0-.925-.248-.925-.888 0-.619.322-.908.925-.908h.985v.784c0 .743-.382 1.011-.985 1.011z" fill="#174479"/></svg>