<svg width="79" height="70" fill="none" xmlns="http://www.w3.org/2000/svg"><path d="M9.43 63.48H8.12l-.203-1.688H1.842L1.64 63.48H.33v-3.335h1a5.77 5.77 0 00.31-.662c.144-.341.288-.823.432-1.444.144-.63.265-1.413.364-2.349.1-.945.144-2.061.135-3.348h5.657v7.803h1.201v3.334zm-3.052-3.335v-6.156H4.286c-.054 1.602-.185 2.916-.392 3.942-.198 1.017-.4 1.755-.607 2.214h3.091zm18.744-7.803h5.602v1.647h-3.753v2.2h3.416v1.648H26.97v2.308h3.82v1.647h-5.67v-9.45zm28.41 1.647h-2.754v7.803h-1.85v-7.803h-2.767v-1.647h7.37v1.647zm21.119 2.565l.108-1.229h-.068l-.634 1.27-3.524 5.197h-1.39v-9.45h1.85v5.144l-.136 1.269h.081l.662-1.31 3.523-5.103H76.5v9.45h-1.85v-5.238zm-62.28-38.257h5.972L12.198.793H6.45L.33 18.297h5.897l.74-2.875h4.64l.764 2.875zM8.03 11.42l1.257-4.8 1.258 4.801H8.03zm11.298 6.877h5.355V11.72c0-1.6.913-2.425 2.369-2.425.913 0 1.603.225 1.9.4l-.247-4.377c-.173-.15-.691-.325-1.407-.325-1.16 0-2.097.65-2.615 1.576l-.494-1.276h-4.86v13.005zm16.798.301c1.53 0 2.961-.376 3.628-.65l.69-4.152c-.616.275-1.9.625-3.06.625-1.677 0-2.393-.725-2.393-2.55 0-2.026.667-2.801 2.196-2.801 1.11 0 2.32.4 2.937.7l-.247-4.126c-.691-.276-2.171-.65-3.75-.65-4.491 0-6.515 2.25-6.515 6.877 0 4.526 2.024 6.727 6.514 6.727zm14.005-4.252c-1.085 0-1.702-.375-1.702-1.575V8.92h3.158V5.293H48.43v-3.75l-5.355 1v2.75h-1.85V8.92h1.85v4.1c0 3.877 1.95 5.553 5.133 5.553 1.307 0 2.492-.3 3.035-.526l.715-4.076c-.37.15-1.11.375-1.826.375zm3.19-10.553h5.355V.792H53.32v3zm0 14.505h5.355V5.292H53.32v13.005zm13.618.3c1.53 0 2.96-.376 3.627-.65l.69-4.152c-.616.275-1.9.625-3.059.625-1.678 0-2.393-.725-2.393-2.55 0-2.026.666-2.801 2.196-2.801 1.11 0 2.32.4 2.936.7l-.247-4.126c-.69-.276-2.171-.65-3.75-.65-4.491 0-6.514 2.25-6.514 6.877 0 4.526 2.023 6.727 6.514 6.727zM15.604 40.492l-3.06-6.602c1.604-.976 2.393-2.651 2.393-4.927 0-3.75-2.097-5.977-6.489-5.977H.33v17.506h5.626V34.84h1.382l2.196 5.652h6.07zM5.956 27.488H7.93c.937 0 1.382.55 1.382 1.525 0 .976-.445 1.526-1.382 1.526H5.956v-3.051zM20.58 40.792c1.555 0 2.64-.6 3.579-1.575l.493 1.275h4.86V27.488h-5.354v8.027c0 .776-.27 1.176-.937 1.176-.716 0-.938-.4-.938-1.176v-8.027H16.93v9.478c0 2.225 1.209 3.826 3.652 3.826zm16.012-.05c4.466 0 6.095-1.475 6.095-4.226 0-2.501-1.036-3.776-3.454-4.252l-1.802-.35c-.79-.15-.962-.3-.962-.6 0-.275.222-.425.814-.425 1.925 0 3.825.525 4.713.925l-.222-3.776c-.839-.35-2.69-.8-4.738-.8-3.849 0-5.625 1.5-5.625 4.176 0 2.45.962 3.676 3.528 4.201l1.826.375c.74.125.888.276.888.55 0 .3-.246.476-.913.476-2.27 0-4.441-.625-5.428-1.075l.641 4.05c.889.326 2.764.751 4.64.751zm12.681 0c4.466 0 6.094-1.475 6.094-4.226 0-2.501-1.036-3.776-3.454-4.252l-1.801-.35c-.79-.15-.963-.3-.963-.6 0-.275.222-.425.815-.425 1.924 0 3.824.525 4.712.925l-.222-3.776c-.839-.35-2.69-.8-4.737-.8-3.85 0-5.626 1.5-5.626 4.176 0 2.45.962 3.676 3.529 4.201l1.825.375c.74.125.889.276.889.55 0 .3-.247.476-.913.476-2.27 0-4.442-.625-5.429-1.075l.642 4.05c.888.326 2.763.751 4.639.751zm7.819-14.755h5.355v-3h-5.355v3zm0 14.505h5.355V27.488h-5.355v13.004zm10.878.3c1.826 0 2.937-.9 3.258-1.575l.493 1.275h4.688v-8.028c0-3.326-1.9-5.226-6.267-5.226-1.826 0-3.504.25-4.269.45l-.69 4.126c.764-.275 2.343-.625 3.849-.625 1.603 0 2.196.325 2.196 1.225v.05h-2.394c-3.158 0-4.737 1.526-4.737 4.152 0 2.6 1.307 4.176 3.874 4.176zm2.049-3.601c-.691 0-1.136-.3-1.136-1.076 0-.75.395-1.1 1.136-1.1h1.209v.95c0 .9-.47 1.226-1.21 1.226z" fill="#fff"/></svg>