<svg width="316" height="101" fill="none" xmlns="http://www.w3.org/2000/svg"><g clip-path="url(#clip0)"><path d="M55.296 76.832c-2.727.128-5.58-.18-8.434 0-.959.05-1.691.512-2.07 1.485-.58 1.433-1.01 2.944-1.97 4.198-.53.717-1.06 1.434-1.893 1.818-1.01.46-1.818.103-2.298-.922-.404-.87-.53-1.817-.934-2.688-.354-.82-.934-1.331-1.59-1.229-.733.103-1.289.768-1.364 1.639-.101.896.151 1.74.48 2.56.302.794.58 1.587.732 2.432.429 2.637-1.995 3.713-3.762 3.303-1.086-.23-2.02-.794-2.879-1.485-1.843-1.434-3.181-3.328-4.62-5.12-1.718-2.177-3.485-4.302-5.657-6.042-1.767-1.434-3.838-2.151-5.959-2.791-.833-.256-1.716-.41-2.5-.845-1.06-.589-1.16-1.408-.327-2.304.782-.82 1.792-1.28 2.777-1.792.454-.23.96-.436 1.313-.845.252-.282.227-.487 0-.743-.455-.486-1.111-.64-1.667-.972-.53-.308-1.06-.564-1.514-.973-.834-.769-1.061-1.51-.455-2.458.757-1.203.606-2.304 0-3.482-1.364-2.637-.631-4.276 1.389-6.068 2.474-2.176 4.949-4.352 7.12-6.861.202-.23.278-.487.43-.717.176-.256.201-.563-.026-.794-.227-.204-.53-.179-.783 0-.555.41-1.11.82-1.64 1.255-.354.282-.733.486-1.137.691-.657.333-1.212-.077-1.515-.998-.404-1.255-.58-2.535-.682-3.84-.151-1.69-.328-3.38-.278-5.07.05-1.843.253-3.687.632-5.504.378-1.844.883-3.61 1.616-5.326.96-2.278 2.297-4.3 3.939-6.118 2.095-2.305 4.57-4.046 7.271-5.377 2.5-1.229 5.152-1.971 7.929-2.33 2.399-.332 4.797-.153 7.17-.256 2.147-.076 4.268-.384 6.313-1.152 1.641-.614 3.182-1.485 4.823-2.15 1.187-.461 2.373-.896 3.636-.922.076 0 .177-.026.252 0 .354.077.808.102.96.512.151.41-.227.64-.48.845-.858.717-1.843 1.306-2.626 2.15-1.742 1.895-2.777 4.071-2.297 6.76.429 2.483 2.6 3.993 4.797 4.3.404.052.808.103 1.187.154.505.077.681.359.505.87-.278.794-.606 1.588-.859 2.407-.858 2.817-.353 5.326 2.121 7.22.278.23.58.46.833.691.228.205.505.435.354.82-.152.358-.505.281-.783.307-.884.051-1.717.281-2.323.973a34.864 34.864 0 00-1.717 2.125 22.076 22.076 0 00-1.06 1.612c-.657 1.127-.354 2.151.757 2.766.379.204.783.41 1.162.64 1.11.64 1.338 1.587.555 2.637-.858 1.177-2.07 1.997-3.156 2.918-.53.461-1.086.896-1.616 1.357-1.06.922-1.389 2.048-.833 3.38.454 1.126.782 2.304.984 3.507.303 1.715.43 3.482.581 5.223.177 2.15.379 4.301.53 6.452.101 1.356.177 2.713.404 4.07.228 1.409.935 2.381 2.273 2.868.1.025.227.025.278.077.227.204.656.256.606.614-.05.333-.455.282-.707.359-.632.204-1.39.179-2.298.179zm.227-48.772c.025-1.818-.732-3.15-2.171-4.045-.707-.436-1.263-.128-1.364.717-.05.486 0 .972.127 1.459.151.538.151 1.05-.076 1.613-.328.768-.859 1.382-1.187 2.125-.328.742-.656 1.46-.278 2.33.379.844 1.086 1.28 1.742 1.792.505.41 1.01.819.985 1.587 0 .768-.606 1.127-1.086 1.536-.656.538-1.464.87-2.045 1.51-.757.794-.732 1.383.05 2.151.43.435.91.691 1.465.41.48-.23.505-.768.455-1.229-.076-.998.353-1.664 1.161-2.227.884-.615 1.869-1.025 2.651-1.818.707-.717.707-1.28 0-1.971-.202-.205-.429-.385-.63-.564a1.715 1.715 0 01-.582-1.229c-.025-.69.127-1.357.329-2.022.227-.743.505-1.434.454-2.125zm-20.048 21.3c.43-.076.934-.178 1.44-.255a3.725 3.725 0 002.448-1.536c.632-.87.783-1.895.884-2.945.076-.665.227-1.331.505-1.945.455-.999 1.364-1.409 2.323-1.69a57.82 57.82 0 002.247-.717c1.742-.614 2.399-2.048 2.778-3.687.075-.384.252-.768.202-1.203-.026-.18-.076-.333-.227-.384-.228-.102-.278.077-.354.23-.202.384-.404.743-.606 1.127-.455.947-1.035 1.766-2.096 2.074-1.287.358-2.575.64-3.863.998-1.389.384-2.45 1.152-2.878 2.663-.303 1.05-.329 2.1-.329 3.149 0 1.254-.505 2.202-1.59 2.816-.38.205-.834.307-1.238.486-.227.103-.606.154-.555.461.05.23.379.307.631.384.076-.025.152-.05.278-.025zm-3.358-14.31v-.666c0-.308-.05-.615-.379-.692-.303-.077-.43.23-.58.435l-1.137 1.997c-1.59 2.791-3.485 5.377-5.201 8.065-.834 1.306-1.667 2.637-2.298 4.07-.101.206-.152.36.05.538.177.154.38.154.556 0 .177-.153.353-.281.48-.46 1.212-1.537 2.297-3.15 3.736-4.48 1.061-1 2.197-1.947 3.131-3.073 1.339-1.639 1.54-3.661 1.642-5.735zm3.535 17.716c.075.845.404 1.562.883 2.227.707.947 1.591 1.715 2.5 2.458.859.691 1.49 1.51 1.389 2.688-.025.205.025.41.227.538.253.128.43-.051.58-.18 1.087-.844 1.137-2.048 1.112-3.25-.025-.846-.354-1.614-.758-2.356-.353-.666-.656-1.332-.984-2.023-.127-.256-.303-.512-.632-.46-.378.05-.429.409-.429.716 0 .487-.025.973.253 1.434.151.256.252.563.025.794-.278.281-.556.025-.758-.128a9.406 9.406 0 01-1.994-2.023c-.202-.282-.455-.512-.733-.742-.151-.129-.303-.23-.505-.103-.151.077-.151.282-.176.41zm5.428-2.612c.253-.025.455-.05.632-.076 1.691-.154 2.954-.922 3.51-2.612.428-1.28 1.06-2.227 2.448-2.534.606-.129 1.061-.64 1.313-1.255.076-.205.152-.46-.075-.614-.177-.128-.354 0-.48.128-.43.384-.96.588-1.54.64-.657.076-1.338.076-1.944.332-1.01.41-1.54 1.28-1.768 2.33-.202 1.024-.606 1.844-1.692 2.15-.202.052-.404.078-.58.18-.404.23-1.137.23-1.086.794.1.665.884.358 1.262.537zm-6.312 8.705c.126-1.1-.58-1.843-1.288-2.56-.252-.256-.555-.691-.883-.512-.404.23-.102.717 0 1.05.176.588.328 1.203.126 1.792-.227.717-.505 1.408-.783 2.125-.505 1.357-.758 2.688.202 3.942.227.308.454.768.858.666.43-.102.38-.64.404-.998.026-.897.253-1.716.606-2.535.38-.896.783-1.843.758-2.97zm4.217-27.855c-.026-.512-.505-.742-1.01-.512-.91.41-1.642 1.024-2.273 1.766-1.086 1.255-1.54 2.791-1.97 4.327-.075.23-.277.512.051.717.278.18.48-.077.682-.256 1.515-1.203 2.828-2.586 3.762-4.327.278-.563.631-1.126.758-1.715zm6.54-3.533c-.556 0-1.01.23-1.49.358-1.894.512-3.08 1.767-3.662 3.636-.075.23-.151.512.127.665.277.18.454-.076.606-.23.883-.896 1.893-1.638 2.929-2.355.606-.41 1.237-.743 1.767-1.255.151-.153.354-.333.252-.589-.1-.281-.353-.204-.53-.23z" fill="#980101"/><path d="M46.207 94.164c-1.287.205-2.878 0-4.469-.204-1.464-.205-2.929-.461-4.242-1.23-.303-.179-.631-.383-.555-.793.1-.46.505-.358.858-.358.202 0 .404.025.606.076 2.273.615 4.596.743 6.893.461 3.359-.41 6.187-1.92 8.484-4.506a22.618 22.618 0 003.813-6.016 11.55 11.55 0 011.212-2.1c.48-.64 1.01-.87 1.616-.69.48.127.96.92.985 1.56.025.82-.026 1.64.227 2.407.202.615.53.692 1.035.308.43-.308.707-.794 1.136-1.076.278-.179.53-.256.834-.128.328.154.277.461.277.743.026 1.126-.58 2.022-1.136 2.893-1.54 2.38-3.712 4.02-6.11 5.376-2.096 1.178-4.267 2.125-6.59 2.688-1.465.359-3.03.538-4.874.59zm18.28-48.746c1.288-.077 1.465.077 1.819 1.178.858 2.688 1.439 5.453 2.222 8.167.328 1.152.605 2.304.934 3.456.1.384.075.768.126 1.152.177 1.255-1.288 1.843-2.096 1.357a8.262 8.262 0 00-1.06-.538c-.758-.332-1.364-.102-1.97.308-.934.64-1.818 1.382-2.903 1.817-.834.308-1.364-.025-1.44-.921-.075-.768.278-1.434.505-2.1.43-1.152.834-2.33 1.086-3.533.177-.896-.328-1.613-.833-2.253-.227-.307-.53-.563-.783-.845-.252-.281-.353-.537.025-.819.228-.18.278-.41.101-.64-.252-.307-.1-.538.05-.768.354-.538.607-1.075.632-1.74.025-.36.152-.667.505-.846.404-.23.379-.486 0-.742a3.045 3.045 0 01-.353-.256c-.253-.205-.278-.435.025-.64.43-.308.934-.436 1.414-.512.656-.077 1.363-.41 1.994-.282zM76.659.026h5.63c.38 0 .53.076.53.486a750.854 750.854 0 000 10.676c0 .384-.075.563-.48.538a59.777 59.777 0 00-3.029 0c-.53 0-.758-.18-.732-.743.05-2.15-.05-4.3.05-6.426.025-.46-.278-.358-.53-.358-2.272 0-4.57-.026-6.843 0-.58 0-.782-.128-.732-.743.05-.921.05-1.843 0-2.765C70.498.18 70.6 0 71.18 0c1.818.051 3.635.026 5.479.026z" fill="#9A0303"/><path d="M76.658 101c-1.843 0-3.661-.026-5.504 0-.43 0-.53-.128-.53-.538.025-.947.025-1.92 0-2.893-.026-.512.15-.665.656-.665 2.171.025 4.368 0 6.54.025.555 0 .732-.128.707-.716-.026-2.125 0-4.25-.026-6.375 0-.41.101-.59.53-.564 1.112.026 2.223.026 3.334 0 .353 0 .429.128.429.461v10.855c0 .384-.152.436-.455.436-1.893-.026-3.787-.026-5.68-.026z" fill="#980101"/><path d="M6.01.027h5.504c.379 0 .53.077.53.512a64.533 64.533 0 000 3.123c0 .436-.151.538-.555.538-2.323-.026-4.646 0-6.969-.026-.454 0-.555.103-.555.59.05 2.124 0 4.25.025 6.374 0 .461-.177.615-.606.615a56.829 56.829 0 00-2.954 0c-.329 0-.404-.103-.404-.436V.411C0 0 .202.027.48.027h5.53z" fill="#9A0303"/><path d="M5.908 101c-1.792 0-3.585-.026-5.378 0-.429 0-.53-.102-.53-.538a752.3 752.3 0 000-10.676c0-.358.05-.537.48-.537.984.025 1.97.025 2.954 0 .43 0 .58.128.58.589-.025 2.125 0 4.25-.025 6.374 0 .538.127.717.682.692 2.172-.026 4.368 0 6.54-.026.555 0 .682.18.656.691-.05.922-.05 1.844 0 2.765.026.538-.151.64-.63.615-1.768.025-3.536.051-5.329.051z" fill="#980101"/><path d="M96.151 80.032c-2.07 0-4.166-.026-6.236.025-.505 0-.581-.153-.581-.614.025-3.2.025-6.426 0-9.626 0-.436.076-.59.555-.59.985.052.985 0 .985 1.05v7.604c0 .41.05.615.53.59a36.179 36.179 0 013.333 0c.48.025.556-.18.53-.59-.025-2.688 0-5.35-.025-8.039 0-.486.127-.614.606-.614.96.025.96 0 .96.947v7.732c0 .41.076.563.53.538a82.51 82.51 0 013.56 0c.455 0 .581-.103.581-.564-.025-2.688 0-5.35-.025-8.039 0-.537.151-.691.631-.614.177.025.354.025.556 0 .277-.026.378.077.378.358 0 3.354-.025 6.708 0 10.062 0 .435-.227.384-.505.384h-6.363zm62.442-24.552c0 1.254-.025 2.406 0 3.558 0 .41-.101.512-.505.512-1.06-.025-1.06 0-1.06-1.1v-2.843c-.43.077-.707.333-1.036.513-.934.512-1.843 1.075-2.802 1.561-.531.256-.733.59-.657 1.178.025.205.152.614-.101.666-.454.076-.909 0-1.363-.026-.026 0-.051-.102-.051-.154v-.256c0-.64-.202-1.433.076-1.92.252-.46 1.01-.665 1.565-.973a215.15 215.15 0 013.611-2.022c-.909-.512-1.742-.999-2.575-1.46-.733-.41-1.465-.844-2.222-1.228-.354-.18-.505-.41-.455-.82.025-.332 0-.665 0-.973 0-.921 0-.896.909-.947.606-.051.732.205.631.717-.101.614.152.947.682 1.229 1.263.666 2.5 1.382 3.813 2.125 0-1.203.025-2.33 0-3.43 0-.436.05-.64.581-.615.984.051.984 0 .984 1.05v2.995c.505-.154.909-.461 1.339-.691.833-.461 1.641-.973 2.499-1.383.556-.256.758-.614.707-1.229-.025-.23-.176-.614.152-.691.429-.077.884-.026 1.313 0 .025 0 .05.102.075.154.026.076 0 .153 0 .256 0 .665.202 1.459-.075 1.997-.253.486-1.035.69-1.591 1.024-1.111.64-2.247 1.28-3.358 1.92-.025 0-.025.025-.076.102.682.384 1.364.794 2.071 1.178.909.512 1.792 1.024 2.701 1.51.253.154.379.308.379.615-.025.563-.025 1.1 0 1.664 0 .256-.025.384-.354.41-1.186.05-1.186.05-1.211-1.127 0-.205.025-.384-.202-.512a206.015 206.015 0 00-4.394-2.535zm7.02-42.295c0-1.613.026-3.226 0-4.839 0-.41.101-.512.505-.512 2.374.026 4.747 0 7.146.026 1.262 0 2.146.64 2.702 1.74.53 1.102.479 2.203-.228 3.175-.277.384-.353.615-.025 1.024.732.948.808 2.049.278 3.098-.53 1.076-1.414 1.69-2.601 1.716-2.449.05-4.873 0-7.322.025-.354 0-.429-.102-.429-.435-.026-1.664-.026-3.354-.026-5.018zm4.848-3.712h-2.904c-.252 0-.429.025-.404.358a36.35 36.35 0 010 2.381c0 .23.076.307.303.307 1.945 0 3.864 0 5.808-.025.884-.026 1.439-.717 1.414-1.588-.025-.819-.657-1.433-1.49-1.433-.909-.026-1.818 0-2.727 0zm-.076 7.578c.96-.026 1.945.026 2.904-.026.859-.05 1.439-.716 1.389-1.536-.025-.768-.657-1.357-1.515-1.357-1.869 0-3.712 0-5.58-.025-.379 0-.48.128-.455.486a24.92 24.92 0 010 1.971c-.025.436.152.487.505.487.934-.026 1.843 0 2.752 0zm46.484 31.669h3.46c1.287 0 2.196.64 2.752 1.767.555 1.152.454 2.279-.328 3.277-.253.333-.278.487 0 .82.757.947.883 2.048.353 3.149-.53 1.126-1.464 1.74-2.702 1.766-2.398.026-4.797 0-7.196.026-.353 0-.479-.077-.479-.461.025-3.277.025-6.58 0-9.857 0-.435.126-.486.505-.486h3.635zm.657 1.614h-2.853c-.278 0-.404.076-.404.358.025.768.025 1.562 0 2.33 0 .256.05.358.328.358 1.919-.025 3.838 0 5.732-.025.909-.026 1.489-.717 1.464-1.613-.025-.82-.682-1.408-1.591-1.408h-2.676zm.025 4.66h-2.853c-.303 0-.455.05-.429.383.025.743.025 1.46 0 2.202 0 .23.05.333.303.333 1.944-.026 3.863 0 5.807-.026.884-.025 1.439-.691 1.414-1.51-.025-.794-.656-1.383-1.54-1.383h-2.702zM99.737 10.907c-1.44 2.124-2.879 4.224-4.369 6.426-1.49-2.176-2.954-4.353-4.52-6.631v7.424c0 .41-.075.564-.504.564-1.06-.026-1.06 0-1.06-1.076v-9.19c0-.41.1-.513.504-.564.783-.077 1.263.205 1.692.896 1.136 1.792 2.348 3.508 3.535 5.248.1.154.202.282.353.487 1.263-1.843 2.475-3.661 3.712-5.479.076-.102.152-.205.202-.307.303-.768.884-.922 1.641-.87.43.025.531.127.531.563-.026 2.79 0 5.606 0 8.397v.794c0 1.075 0 1.05-1.086 1.075-.404 0-.505-.102-.505-.512.025-2.176 0-4.378 0-6.554v-.666c-.025 0-.076-.025-.126-.025z" fill="#9A0303"/><path d="M125.389 59.525h-6.287c-.404 0-.555-.103-.48-.512v-.18c0-.921 0-.947.909-.896.43.026.581-.076.581-.563a189.068 189.068 0 010-5.325c0-2.023 1.288-3.328 3.283-3.328 2.247 0 4.519.025 6.766-.026.531 0 .606.154.606.64-.025 2.611.026 5.223-.025 7.834 0 .666.202.82.758.743.101-.026.202 0 .303 0 .328-.051.454.077.454.435.025 1.178.025 1.178-1.111 1.178h-5.757zm.051-1.588h3.383c.303 0 .429-.076.404-.41a302.265 302.265 0 010-6.733c0-.332-.101-.46-.429-.46-1.894.025-3.787 0-5.681 0-.884 0-1.49.614-1.49 1.51-.025 1.869 0 3.764 0 5.633 0 .358.101.435.429.435 1.137 0 2.273.025 3.384.025zm107.968 1.588h-4.848c-.328 0-.455-.077-.455-.435.026-3.303.026-6.631 0-9.934 0-.333.076-.435.43-.435 3.257.025 6.489.025 9.746 0 .429 0 .48.179.48.537 0 1.101 0 1.101-1.061 1.101-2.474 0-4.974.026-7.448-.025-.505 0-.606.179-.581.614.025.614.025 1.229 0 1.843-.025.461.076.615.581.615 2.121-.026 4.242 0 6.363-.026.479 0 .656.077.631.615-.051.998 0 .998-1.035.998h-5.985c-.404 0-.58.077-.555.538.05.614.05 1.229 0 1.843-.025.435.076.589.555.589 2.652-.026 5.278 0 7.929-.026.505 0 .707.128.606.64a.639.639 0 000 .308c.076.512-.076.691-.631.691-1.566-.077-3.157-.051-4.722-.051zm-59.059 0c-1.616 0-3.232-.026-4.848 0-.379 0-.505-.103-.505-.512a644.36 644.36 0 000-9.831c0-.41.101-.513.505-.513 3.207.026 6.414.026 9.62 0 .429 0 .53.103.53.538-.025 1.075 0 1.075-1.085 1.075h-7.449c-.429 0-.606.077-.581.564.051.64.051 1.305 0 1.971-.025.435.101.538.531.538 2.171-.026 4.317 0 6.489-.026.454 0 .581.102.555.563-.025 1.075 0 1.075-1.035 1.075h-5.984c-.404 0-.556.103-.53.538.025.64.025 1.28 0 1.895-.026.41.101.512.505.512 2.676-.026 5.327 0 8.004-.026.53 0 .681.154.606.64a1.222 1.222 0 000 .435c.075.436-.101.564-.531.538-1.615 0-3.206.026-4.797.026zm-68.704-25.807c0-1.639.025-3.277 0-4.916 0-.384.101-.46.479-.46 3.232.025 6.464.025 9.696 0 .404 0 .505.102.505.511 0 1.127 0 1.127-1.111 1.127h-7.448c-.404 0-.556.102-.556.537a27.28 27.28 0 010 2.023c-.025.41.101.512.505.512 2.171-.026 4.368 0 6.54-.026.429 0 .555.103.53.538-.025 1.101 0 1.101-1.061 1.101h-5.984c-.378 0-.53.102-.505.512.026.64.026 1.306 0 1.971-.025.384.101.487.48.461 2.676-.025 5.328 0 8.004-.025.556 0 .707.179.631.69-.025.18-.025.36 0 .564.026.307-.075.384-.378.384h-9.923c-.404 0-.329-.23-.329-.46-.075-1.742-.075-3.38-.075-5.044z" fill="#980101"/><path d="M300.193 54.174c0 1.613-.025 3.226 0 4.839 0 .41-.126.512-.505.512-1.06-.026-1.06 0-1.06-1.101 0-.538-.025-1.075 0-1.588 0-.307-.101-.384-.379-.384-1.414 0-2.828.026-4.242 0-.277 0-.454.128-.631.308-.783.793-1.591 1.561-2.348 2.406-.404.461-.859.359-1.338.333-.278 0-.278-.947.025-1.255.53-.537 1.035-1.075 1.591-1.612.227-.205.303-.333-.051-.512-1.187-.615-1.742-1.639-1.717-2.996 0-.563-.025-1.152.025-1.715a3.05 3.05 0 013.03-2.714h7.095c.379 0 .505.102.505.512-.025 1.664 0 3.328 0 4.967zm-4.772-3.84h-2.727c-.984 0-1.565.588-1.59 1.587v1.229c.025 1.075.58 1.69 1.641 1.69 1.843.025 3.661 0 5.504.025.328 0 .404-.102.404-.41a90.621 90.621 0 010-3.686c0-.333-.076-.461-.429-.461-.96.051-1.869.026-2.803.026zm-58.832-37.098c0 1.613-.025 3.226 0 4.839 0 .46-.101.589-.556.589-1.01-.026-.984 0-1.01-1.024-.025-.666.303-1.562-.126-1.946-.353-.333-1.237-.102-1.868-.102-.96 0-2.096-.308-2.879.076-.959.487-1.641 1.537-2.449 2.33-.303.307-.53.768-1.086.64-.227-.05-.606.128-.631-.128-.051-.358-.202-.819.151-1.152.531-.538 1.036-1.075 1.591-1.587.278-.256.227-.359-.101-.538-1.111-.589-1.666-1.562-1.666-2.842 0-.716-.076-1.433.075-2.125.354-1.459 1.541-2.406 3.005-2.406 2.323 0 4.646.025 6.969-.026.505 0 .581.154.581.615-.025 1.587 0 3.2 0 4.787zm-4.798-3.763h-2.727c-.959 0-1.54.589-1.565 1.561-.025.436 0 .845 0 1.28.025 1.05.581 1.64 1.591 1.665 1.843.025 3.711 0 5.555.025.277 0 .378-.076.378-.384a93.156 93.156 0 010-3.738c0-.384-.151-.435-.454-.41h-2.778zm21.033 24.347c0 1.613-.025 3.226 0 4.839 0 .41-.126.512-.505.512-1.06 0-1.06 0-1.06-1.1 0-.539-.025-1.076 0-1.588 0-.307-.101-.384-.379-.384-1.414 0-2.828.025-4.242 0-.278 0-.454.128-.631.307-.783.794-1.591 1.562-2.348 2.407-.404.46-.859.358-1.339.332-.277 0-.277-.947.026-1.254.53-.538 1.035-1.075 1.59-1.613.228-.205.303-.333-.05-.512-1.187-.614-1.742-1.639-1.717-2.995 0-.564-.025-1.153.025-1.716a3.05 3.05 0 013.03-2.714h7.095c.379 0 .505.103.505.512-.025 1.639 0 3.303 0 4.967zm-4.772-3.866h-2.727c-.985 0-1.565.59-1.591 1.588v1.228c.026 1.076.581 1.69 1.642 1.69 1.843.026 3.661 0 5.504.026.328 0 .404-.103.404-.41a90.621 90.621 0 010-3.686c0-.333-.076-.461-.429-.461-.96.05-1.869.025-2.803.025zm-21.386 5.069v-3.43c0-1.92 1.313-3.226 3.181-3.252h4.419c1.616 0 3.005 1.306 3.03 2.97.025 2.483 0 4.941.025 7.425 0 .384-.151.435-.454.435-1.111 0-1.111.026-1.111-1.1 0-.462-.025-.948 0-1.409.025-.41-.076-.563-.505-.563a278.47 278.47 0 01-6.54 0c-.429 0-.505.128-.48.512.026.717 0 1.434.026 2.15 0 .282-.076.384-.354.384-1.186.052-1.186.077-1.186-1.126-.051-.999-.051-1.997-.051-2.996zm5.277-.537c1.086 0 2.172-.026 3.283 0 .404 0 .555-.077.53-.512-.051-.794 0-1.588 0-2.381 0-.999-.581-1.613-1.566-1.613h-4.368c-.985 0-1.565.589-1.591 1.587-.025.845 0 1.69 0 2.51 0 .332.101.409.404.409 1.086-.026 2.197 0 3.308 0zm-56.052.512c0 1.203-.026 2.407 0 3.61 0 .435-.127.538-.556.538-1.035-.026-1.035 0-1.035-1.076 0-.537-.025-1.075 0-1.587.025-.333-.101-.41-.404-.41h-6.717c-.328 0-.404.103-.404.41.026.717 0 1.434 0 2.15 0 .359-.05.513-.454.513-1.111 0-1.111.025-1.111-1.101 0-2.125.05-4.25-.025-6.375-.051-1.972 1.565-3.482 3.282-3.354 1.439.102 2.853.026 4.293.026 1.717 0 3.055 1.356 3.08 3.097.051 1.204.051 2.381.051 3.56zm-5.303-.512c1.111 0 2.222-.026 3.333 0 .354 0 .429-.102.429-.435-.025-.845 0-1.664 0-2.51 0-.972-.606-1.56-1.565-1.56h-4.368c-.985 0-1.591.588-1.616 1.586-.026.82.025 1.639-.026 2.458-.025.435.152.487.505.487 1.111-.052 2.197-.026 3.308-.026zm103.574 20.866V51.92c.025-1.869 1.338-3.2 3.156-3.2h4.419a3.049 3.049 0 013.055 2.995c.025 2.458 0 4.916.025 7.348 0 .41-.151.46-.505.46-1.06 0-1.06 0-1.085-1.075 0-.64.277-1.51-.127-1.868-.353-.308-1.186-.103-1.818-.103-1.666 0-3.307.026-4.974-.026-.48 0-.682.103-.631.615.05.666 0 1.357.025 2.023 0 .307-.076.41-.404.41-1.161.025-1.161.05-1.161-1.102.025-.998.025-2.022.025-3.046zm5.277-.487c1.111 0 2.222-.025 3.333 0 .354 0 .48-.077.48-.46-.025-.82 0-1.64 0-2.458 0-.999-.581-1.613-1.566-1.613h-4.368c-.959 0-1.565.588-1.591 1.536-.025.87 0 1.715-.025 2.586 0 .332.101.41.404.41 1.111-.026 2.222 0 3.333 0zm-68.882-40.4v-3.43c.025-1.87 1.338-3.2 3.181-3.2h4.419c1.666 0 3.03 1.33 3.03 2.995.025 2.457 0 4.915.025 7.347 0 .359-.101.436-.429.436-1.111 0-1.111.025-1.137-1.076 0-.64.278-1.51-.126-1.869-.353-.307-1.186-.102-1.818-.102h-5.075c-.379 0-.53.102-.505.512.025.717 0 1.434.025 2.15 0 .333-.101.41-.404.41-1.161.026-1.161.051-1.161-1.126-.025-.999-.025-2.023-.025-3.047zm5.327-.486c1.111 0 2.222-.026 3.333 0 .328 0 .455-.077.429-.435-.025-.82 0-1.639 0-2.458 0-1.05-.58-1.639-1.615-1.639h-4.293c-.985 0-1.591.589-1.616 1.588-.025.844.025 1.69-.025 2.508 0 .359.126.436.454.436h3.333zm-52.847 61.957c0 1.177-.025 2.38 0 3.558 0 .41-.076.564-.53.538-1.035-.026-1.035 0-1.035-1.05 0-.537-.026-1.075 0-1.587 0-.307-.076-.435-.404-.435-2.247.025-4.469.025-6.717 0-.378 0-.429.128-.429.46.025.743 0 1.46 0 2.202 0 .282-.076.384-.379.384-1.186.052-1.186.077-1.186-1.126 0-2.125.025-4.25 0-6.375-.051-1.946 1.59-3.43 3.257-3.303 1.439.103 2.904.026 4.368.026 1.641 0 3.005 1.357 3.03 3.021.05 1.229.025 2.458.025 3.687zm-5.353-.59c1.137 0 2.273-.025 3.384 0 .353 0 .429-.102.429-.434-.025-.845 0-1.665 0-2.51 0-.972-.606-1.561-1.566-1.561h-4.368c-.984 0-1.59.589-1.616 1.587-.025.82.026 1.639-.025 2.458-.025.435.152.486.505.486 1.111-.025 2.172-.025 3.257-.025zm-51.559-62.161v-2.279c0-1.715 1.338-3.072 3.03-3.072h4.368c1.843 0 3.182 1.255 3.232 3.15a67.08 67.08 0 010 4.53c-.05 1.895-1.363 3.124-3.257 3.124h-4.419c-1.641 0-2.954-1.331-2.954-2.995v-2.458zm1.565.051v2.202c0 .947.531 1.587 1.465 1.587 1.54.026 3.055.026 4.595 0 .834-.025 1.414-.588 1.44-1.433.05-1.562.05-3.15 0-4.711-.026-.845-.657-1.408-1.465-1.408a137.47 137.47 0 00-4.595 0c-.834 0-1.44.64-1.44 1.485-.025.742 0 1.51 0 2.278zm42.646.026v-2.33c0-1.715 1.338-3.072 3.03-3.072h4.368c1.843 0 3.182 1.254 3.257 3.149a67.11 67.11 0 010 4.531c-.05 1.895-1.363 3.124-3.257 3.124h-4.419c-1.666 0-2.954-1.332-2.954-2.996-.025-.819-.025-1.613-.025-2.406zm1.565-.052v2.28c0 .895.531 1.51 1.389 1.535 1.566.051 3.156.051 4.722 0 .808-.025 1.389-.589 1.414-1.408.05-1.562.05-3.149 0-4.71-.025-.845-.631-1.409-1.439-1.434a142.116 142.116 0 00-4.672 0c-.808 0-1.388.64-1.388 1.459-.026.768-.026 1.51-.026 2.278zm-15.729 40.938v-2.33c0-1.766 1.338-3.097 3.08-3.097h4.293c1.868 0 3.181 1.254 3.257 3.123.05 1.51.05 3.021 0 4.532-.05 1.894-1.363 3.123-3.232 3.123h-4.419c-1.666 0-2.954-1.306-2.979-2.995v-2.356zm1.565-.077v2.28c0 .92.531 1.535 1.414 1.56 1.541.052 3.106.026 4.672 0 .808-.025 1.388-.588 1.414-1.382.05-1.587.05-3.2 0-4.787-.026-.82-.632-1.383-1.414-1.383a142.116 142.116 0 00-4.672 0c-.833 0-1.414.64-1.414 1.51-.025.718 0 1.46 0 2.203zM121.629 74.63V72.3c0-1.766 1.338-3.072 3.08-3.098h4.293c1.843 0 3.181 1.255 3.257 3.124a67.11 67.11 0 010 4.531c-.05 1.895-1.363 3.124-3.232 3.124h-4.419c-1.666 0-2.954-1.306-2.979-2.996V74.63zm1.565-.077v2.279c0 .921.531 1.536 1.414 1.561 1.541.052 3.106.026 4.672 0 .808-.025 1.388-.588 1.414-1.382.05-1.587.05-3.2 0-4.788-.026-.819-.632-1.382-1.414-1.382a142.116 142.116 0 00-4.672 0c-.833 0-1.414.64-1.414 1.51v2.202zm-8.611-21.762v3.431c-.026 1.997-1.313 3.303-3.258 3.303h-4.166c-1.439 0-2.702-1.203-2.878-2.637-.051-.333.025-.461.353-.435a2.4 2.4 0 00.606 0c.379-.077.556.076.657.486.176.64.681.973 1.313.973 1.439.025 2.903.051 4.368 0 .909-.026 1.414-.615 1.464-1.536.076-1.357.076-1.357-1.262-1.357-1.641 0-3.257.025-4.899-.026-1.641-.051-2.903-1.382-2.903-3.072 0-.896.025-1.792 0-2.688-.026-.41.101-.512.505-.512 1.06.025 1.06 0 1.06 1.1v2.074c.025.768.53 1.434 1.288 1.46 1.995.05 3.989.025 5.984.05.354 0 .253-.23.253-.409 0-1.254.025-2.483 0-3.738 0-.384.075-.512.479-.512 1.086.026 1.086 0 1.086 1.076-.05.972-.05 1.97-.05 2.97zM89.282 33.692c0-1.613.026-3.226 0-4.838 0-.436.127-.538.53-.538 1.036.025 1.036 0 1.036 1.075v7.553c0 .435.076.614.58.614 2.147-.026 4.318-.026 6.49 0 .404 0 .505-.102.505-.512-.026-2.714 0-5.427-.026-8.167 0-.46.102-.589.556-.563 1.01.025 1.01 0 1.01 1.024v7.655c0 .435.126.538.53.538.96-.026.96 0 .96.972 0 .564-.026 1.101 0 1.665.025.358-.127.46-.455.435h-.252c-.859 0-.884 0-.859-.87.025-.513-.151-.59-.606-.59-3.156.026-6.287 0-9.443.026-.455 0-.58-.102-.556-.563.026-1.639 0-3.277 0-4.916zm60.827.026c0-1.588.026-3.2 0-4.788 0-.46.076-.614.581-.614 2.348.025 4.671 0 7.02.025 1.691 0 3.03 1.357 3.055 3.073V33c0 1.664-1.288 3.02-2.904 3.072a96.66 96.66 0 01-5.454 0c-.656-.026-.783.205-.732.794.05.64 0 1.254.025 1.894 0 .282-.076.384-.379.384-1.186.052-1.186.077-1.186-1.126-.026-1.434-.026-2.867-.026-4.301zm4.848-3.764h-2.853c-.278 0-.454 0-.454.359.025 1.254 0 2.534 0 3.789 0 .256.05.358.328.358 1.919-.025 3.838 0 5.757-.025.934-.026 1.439-.64 1.464-1.613v-1.28c0-.999-.58-1.588-1.565-1.613-.909.025-1.793.025-2.677.025zm45.299 9.191h-3.636c-.353 0-.479-.05-.479-.46.025-3.303.025-6.58 0-9.883 0-.435.151-.486.53-.486 1.035 0 1.06 0 1.06 1.05 0 .768.026 1.561 0 2.33 0 .358.101.434.43.434 1.868-.025 3.711 0 5.58 0 1.717 0 3.03 1.357 3.08 3.098.051 1.306-.151 2.484-1.287 3.303-.531.384-1.086.589-1.743.589-1.212.025-2.373.025-3.535.025zm.682-5.376h-2.853c-.253 0-.429 0-.429.333.025 1.05 0 2.074 0 3.123 0 .23.05.333.303.333 1.944-.026 3.913 0 5.858-.026.808-.025 1.338-.69 1.363-1.51v-.666c0-.947-.606-1.561-1.565-1.561-.859-.026-1.768-.026-2.677-.026zM99.61 50.052c.253.768-.252 1.28-.934 1.74-.909.615-1.742 1.332-2.626 1.972-.379.282-.429.41-.025.717 1.06.768 2.096 1.613 3.156 2.381.303.23.48.46.43.87-.026.231 0 .461 0 .666 0 1.178 0 1.152-1.162 1.127-.278 0-.454-.077-.379-.384.202-.922-.277-1.46-1.01-1.92-.833-.564-1.641-1.204-2.424-1.844-.277-.23-.454-.18-.707.026-.96.742-1.893 1.536-2.903 2.202-.53.358-.581.793-.53 1.305.05.436-.051.64-.556.615-.985-.051-.91-.026-1.01-.999-.101-.973.227-1.587 1.035-2.1.91-.588 1.742-1.33 2.626-1.97.328-.23.379-.359 0-.64a159.022 159.022 0 01-3.282-2.51c-.253-.179-.38-.384-.354-.716.025-.359 0-.743 0-1.101 0-.794 0-.743.808-.82.631-.05.833.154.732.769-.1.588.152.921.606 1.254.96.691 1.869 1.408 2.803 2.15.252.18.404.282.707.026a65.625 65.625 0 013.08-2.355c.455-.333.354-.768.329-1.152-.05-.538.126-.768.656-.666.126.026.278.026.43 0 .353-.051.53.051.48.46 0 .257.025.513.025.897zm31.815-16.232c0 1.613-.025 3.226 0 4.84 0 .409-.126.511-.505.511-1.061-.026-1.061 0-1.061-1.1 0-1-.025-1.998 0-2.996 0-.359-.101-.435-.454-.435-2.222.025-4.444.025-6.666 0-.354 0-.455.102-.455.46.026 1.178-.025 2.381.026 3.56 0 .434-.127.537-.531.537-1.035-.026-1.035 0-1.035-1.05v-9.191c0-.46.126-.589.556-.563 1.01.025 1.01 0 1.01 1.024v3.2c0 .333.05.46.404.46a293.66 293.66 0 016.716 0c.379 0 .404-.153.404-.46-.025-1.254 0-2.483-.025-3.738 0-.384.101-.486.454-.486 1.111 0 1.111 0 1.111 1.126.051 1.383.051 2.842.051 4.301zm111.831 20.252v-4.84c0-.383.076-.511.48-.511 1.085.025 1.085 0 1.085 1.075v3.2c0 .307.076.41.404.41 2.248-.026 4.47-.026 6.717 0 .353 0 .429-.128.429-.461-.025-1.255 0-2.483-.025-3.738 0-.358.05-.486.454-.486 1.111 0 1.111 0 1.111 1.1v9.09c0 .511-.101.716-.631.64a.823.823 0 00-.354 0c-.454.076-.631-.077-.606-.59.051-1.152 0-2.33.026-3.507 0-.333-.076-.46-.43-.46-2.221.025-4.443.025-6.665 0-.404 0-.455.153-.455.486.025 1.177 0 2.33.025 3.507 0 .435-.101.563-.53.538-1.035-.026-1.035 0-1.035-1.05v-4.404zm26.032.051c0 1.638-.025 3.277 0 4.915 0 .41-.101.512-.505.512-1.06-.025-1.06 0-1.06-1.075 0-.998-.026-1.997 0-2.995 0-.333-.076-.461-.43-.461-2.222.025-4.444.025-6.666 0-.404 0-.454.153-.454.512.025 1.178-.025 2.33.025 3.507 0 .436-.101.564-.53.538-1.035-.026-1.035 0-1.035-1.05 0-3.046.025-6.093-.026-9.14 0-.512.101-.717.606-.614a.823.823 0 00.354 0c.454-.077.631.102.606.589-.051 1.203 0 2.406-.025 3.61 0 .384.101.46.479.46a282.83 282.83 0 016.591 0c.429 0 .479-.153.479-.512-.025-1.228 0-2.457-.025-3.686 0-.359.076-.487.455-.487 1.111 0 1.111 0 1.111 1.127.05 1.382.05 2.816.05 4.25zm-57.999-20.38c0-1.638.025-3.277 0-4.915 0-.41.101-.512.505-.512 1.06.025 1.06 0 1.06 1.1v3.124c0 .307.026.46.404.46 2.247-.025 4.469-.025 6.717 0 .378 0 .404-.153.404-.46-.026-1.229.025-2.458-.026-3.687 0-.435.101-.563.531-.537 1.035.025 1.035 0 1.035 1.05v9.19c0 .461-.126.59-.581.564-1.01-.026-1.01 0-1.01-1.024s-.025-2.048 0-3.072c0-.359-.101-.436-.429-.436-2.222.026-4.444.026-6.666 0-.328 0-.454.103-.454.435.025 1.204 0 2.407.025 3.61 0 .384-.101.487-.48.487-1.086 0-1.086.025-1.086-1.05.051-1.434.051-2.867.051-4.327zm-30.525-20.507v-2.33c0-1.715 1.338-3.072 3.03-3.072h4.595c1.49 0 2.778 1.23 2.954 2.714.026.256 0 .384-.277.358a2.4 2.4 0 00-.606 0c-.404.052-.632-.05-.758-.512-.177-.64-.707-.921-1.338-.947a140.83 140.83 0 00-4.596 0c-.858 0-1.439.615-1.439 1.485v4.608c0 .82.556 1.46 1.389 1.485 1.565.052 3.156.026 4.722 0 .606 0 1.136-.332 1.287-.921.127-.461.329-.538.733-.512 1.035.025 1.111.102.732 1.1a3.047 3.047 0 01-2.879 1.972h-4.545c-1.717 0-3.004-1.331-3.004-3.072v-2.356zm-59.489 0v-2.33c0-1.664 1.339-3.046 3.005-3.046h4.671c1.49 0 2.803 1.254 2.929 2.74 0 .076.051.23.025.23-.378.204-.782.05-1.161.102-.177.026-.303.026-.404-.23-.328-.948-.732-1.204-1.692-1.204h-4.166c-1.035 0-1.616.59-1.616 1.613v4.352c0 .948.53 1.562 1.465 1.588 1.54.025 3.055.025 4.595 0 .657 0 1.187-.359 1.364-1.024.101-.384.277-.436.606-.436 1.161 0 1.262.154.757 1.23-.555 1.151-1.464 1.817-2.752 1.843h-4.596c-1.666 0-2.979-1.332-2.979-3.021-.051-.82-.051-1.613-.051-2.407zm62.745 40.861v-2.33c0-1.69 1.338-3.046 2.979-3.046h4.671c1.49 0 2.778 1.229 2.954 2.714.026.281-.025.384-.303.358a2.013 2.013 0 00-.555 0c-.404.051-.657 0-.808-.512-.177-.614-.707-.922-1.338-.922-1.541 0-3.056-.025-4.596 0-.833 0-1.439.64-1.439 1.485v4.608c0 .794.53 1.434 1.338 1.46 1.616.051 3.232.025 4.848 0 .581 0 1.086-.359 1.212-.922.126-.486.354-.512.758-.512 1.035.026 1.111.102.707 1.127a3.049 3.049 0 01-2.879 1.945h-4.545a2.995 2.995 0 01-3.004-3.02v-2.433zm22.271-35.536c-1.49.461-2.5-.179-3.434-1.254-.833-.973-1.818-1.818-2.677-2.74-.303-.332-.606-.486-1.06-.435-.581.052-1.338-.256-1.667.128-.277.333-.101 1.101-.101 1.665 0 .768-.025 1.561 0 2.33 0 .332-.101.409-.404.409-1.161.025-1.161.051-1.161-1.127 0-3.02.025-6.042-.025-9.088 0-.512.101-.717.606-.615a.819.819 0 00.353 0c.455-.077.631.103.606.59-.05 1.202 0 2.406-.025 3.609 0 .384.126.435.48.486 1.338.18 2.373-.23 3.232-1.33.833-1.05 1.868-1.921 2.777-2.92.303-.332.606-.486 1.061-.435.479.051.959 0 1.59 0-.808.82-1.489 1.562-2.196 2.279-.909.947-1.844 1.894-2.778 2.816-.278.256-.252.41 0 .666a381.764 381.764 0 014.495 4.557c.126.153.328.256.328.41zM146.977 8.09c-1.641 1.613-3.257 3.226-4.923 4.788-.354.358-.303.537.025.845 1.465 1.46 2.904 2.944 4.368 4.403.127.128.329.23.48.333-.05.051-.076.128-.126.18h-1.843c-.228 0-.329-.129-.455-.257-1.237-1.254-2.525-2.483-3.737-3.763-.379-.384-.732-.563-1.262-.512-.531.051-1.212-.154-1.515.102-.354.307-.101 1.024-.127 1.588a37.804 37.804 0 000 2.38c0 .333-.05.461-.429.461-1.136.026-1.136.026-1.136-1.126v-9.14c0-.46.126-.589.555-.563 1.01.025 1.01 0 1.01 1.024 0 1.05.026 2.073 0 3.123 0 .359.051.487.48.538 1.338.154 2.348-.256 3.232-1.357.833-1.05 1.869-1.92 2.778-2.919.303-.333.606-.46 1.06-.435.48.026.96 0 1.439 0 0 .154.051.23.126.307zM118.37 69.433c-.758.716-1.54 1.408-2.273 2.15-.909.896-1.767 1.844-2.701 2.74-.303.281-.278.435 0 .717 1.616 1.612 3.232 3.251 4.949 4.992h-2.096c-.177 0-.278-.154-.379-.282-1.288-1.28-2.575-2.534-3.838-3.84-.303-.307-.58-.435-1.01-.41-.429.026-.883.026-1.338 0-.379-.025-.48.103-.48.487.026 1.178 0 2.38.026 3.559 0 .41-.127.511-.505.511-1.061-.025-1.061 0-1.061-1.1v-9.191c0-.436.101-.538.53-.538 1.036.025 1.036 0 1.036 1.05 0 1.075.025 2.124 0 3.2 0 .358.101.486.454.435h.126c1.313.205 2.273-.23 3.106-1.306.833-1.075 1.894-1.945 2.828-2.944.278-.307.581-.46 1.01-.41.48.026.985 0 1.49 0 .025.026.075.103.126.18zm29.164 5.248c0 1.613-.025 3.226 0 4.839 0 .41-.126.512-.505.512-1.06-.026-1.06 0-1.06-1.101v-7.553c0-.46-.101-.588-.556-.563-1.767.026-3.56 0-5.327.026-1.061 0-1.642.589-1.642 1.664 0 2.304-.025 4.608 0 6.938 0 .487-.151.615-.606.589-.959-.026-.959 0-.959-.999v-6.426c0-2.073 1.288-3.38 3.308-3.38h6.842c.404 0 .505.103.505.513v4.941zm43.733-40.912c0 1.613-.026 3.226 0 4.839 0 .435-.101.563-.531.537-1.035-.025-1.035 0-1.035-1.05 0-2.534-.025-5.069.025-7.603 0-.486-.151-.563-.58-.563-1.768.025-3.51 0-5.277 0-1.111 0-1.692.563-1.692 1.69 0 2.304-.025 4.608 0 6.938 0 .46-.101.588-.556.563-1.01-.026-1.01 0-1.01-1.024V31.67c0-2.074 1.288-3.354 3.333-3.354h6.717c.454 0 .631.076.606.589-.026 1.638 0 3.251 0 4.864zM60.625 13.287c-.025 1.767-1.085 2.817-2.449 3.636a6.817 6.817 0 00-.985.691c-.126.128-.176.282-.1.435.075.154.252.128.378.128.455-.025.884-.256 1.338-.307.91-.102 1.49.077 1.642.615.176.69-.278 1.638-1.036 1.817-1.515.384-3.51-.076-4.292-1.74-.303-.64-.253-1.306-.05-1.972.53-1.792 1.413-3.354 2.853-4.531.202-.154.404-.308.656-.436 1.237-.64 1.92.077 2.07 1.357-.025.103-.025.205-.025.307zM203.412 48.72c1.59 0 3.181.026 4.772 0 .404 0 .555.078.555.538-.025 1.101 0 1.101-1.06 1.101-.985 0-1.97.026-2.954 0-.455-.025-.581.103-.581.563.025 2.689 0 5.351.025 8.04 0 .46-.076.64-.581.614-.984-.051-.984 0-.984-.998v-7.656c0-.41-.076-.563-.531-.563-1.161.026-2.348 0-3.509.026-.354 0-.48-.051-.48-.461 0-1.178-.025-1.178 1.162-1.178 1.363-.025 2.777-.025 4.166-.025zm-62.645-20.379c1.591 0 3.182.026 4.772 0 .404 0 .556.077.556.538-.025 1.1 0 1.1-1.061 1.1-.959 0-1.944.026-2.903 0-.505-.025-.632.103-.632.615.026 2.663 0 5.325.026 7.962 0 .461-.076.64-.581.615-.985-.051-.985 0-.985-.998v-7.604c0-.461-.076-.64-.581-.615-1.136.051-2.297 0-3.459.026-.353 0-.48-.051-.48-.461 0-1.178-.025-1.178 1.162-1.178h4.166zm145.035 63.647c.884.487 1.692.922 2.5 1.357.328.18.581 1.152.379 1.434-.152.179-.379.05-.556.077-.252.025-.278-.154-.227-.333.101-.436-.177-.615-.505-.768-.53-.256-1.035-.538-1.54-.82-.354-.204-.53-.23-.505.282.025.384 0 .768 0 1.178 0 .281.025.486-.379.486-.429 0-.429-.205-.429-.538v-1.177c.025-.359-.051-.512-.429-.282-.505.307-1.01.615-1.515.896-.278.154-.455.307-.404.666.075.358-.127.384-.43.384-.277 0-.353-.077-.378-.384-.051-.64.075-1.101.757-1.383.657-.281 1.263-.716 1.97-1.126a61.285 61.285 0 01-2.298-1.357c-.303-.18-.581-1.178-.379-1.46.152-.204.379-.076.556-.102.202-.025.227.128.202.282-.101.486.227.691.58.87.455.256.909.512 1.364.794.328.205.429.128.404-.256-.025-.46.025-.896 0-1.357-.025-.384.177-.358.454-.384.303 0 .379.077.379.384-.025.46 0 .947 0 1.408 0 .282.051.384.328.23.657-.358 1.313-.716 1.97-1.05.252-.127.252-.357.227-.562-.051-.333.126-.41.429-.41.278 0 .404.026.429.384.051.666-.101 1.1-.757 1.357-.783.435-1.439.87-2.197 1.28zm24.491 0c0-.793.025-1.587 0-2.38 0-.36.05-.513.454-.487 1.187.025 2.374 0 3.561 0 .656 0 1.161.307 1.464.896.303.589.303 1.203-.126 1.715-.177.23-.127.333 0 .563.732 1.101.05 2.535-1.263 2.586-1.237.051-2.499 0-3.737.026-.303 0-.378-.103-.378-.384.025-.87.025-1.716.025-2.535zm2.601-.435h1.388c.53 0 .884-.333.884-.794 0-.46-.354-.793-.884-.793h-2.045c-1.212 0-1.187 0-1.136 1.254.025.256.076.359.353.333h1.44zm-.026 2.458h1.338c.581 0 .935-.307.96-.794 0-.486-.354-.794-.934-.794h-2.045c-1.086 0-1.086 0-1.086 1.127 0 .358.05.512.454.486.43-.05.884-.025 1.313-.025zm-43.328.87h-3.156c-.253 0-.531.077-.505-.384.025-.333.025-.563.454-.486.354.076.379-.154.379-.436v-2.688c0-1.126.682-1.766 1.793-1.792 1.136 0 2.272.026 3.383-.026.48-.025.555.154.555.59-.025 1.254 0 2.534-.025 3.814 0 .333 0 .614.455.538.404-.077.328.23.353.46.025.256-.025.41-.353.41-1.111-.026-2.222 0-3.333 0zm.05-.87c.556 0 1.086-.026 1.641 0 .303 0 .43-.052.405-.384a67.778 67.778 0 010-3.252c0-.307-.051-.435-.379-.435-.934.026-1.894 0-2.828 0-.556 0-.859.307-.884.87-.025.948 0 1.87 0 2.817 0 .307.101.384.379.384h1.666zm-55.977.87h-3.207c-.303 0-.48-.025-.454-.41.025-.307.05-.511.429-.46.379.077.404-.154.404-.461-.025-.87 0-1.767 0-2.637 0-1.152.682-1.792 1.818-1.818 1.111 0 2.222.026 3.333 0 .429 0 .581.077.581.563-.026 1.28 0 2.586-.026 3.866 0 .333 0 .59.43.487.378-.077.353.179.378.435.026.307-.05.435-.378.435-1.137-.025-2.222 0-3.308 0zm-.025-.87c.555 0 1.136-.026 1.691 0 .303 0 .379-.103.379-.384a72.724 72.724 0 010-3.303c0-.282-.076-.384-.379-.384-.934.026-1.893 0-2.828 0-.58 0-.883.307-.909.896-.025.922 0 1.843 0 2.765 0 .359.152.41.43.384.53.026 1.085.026 1.616.026zm15.325-1.434c.707-1.024 1.389-2.074 2.121-3.098.101-.153.152-.333.354-.384.53-.128.732 0 .732.563v4.66c0 .307.076.589-.429.563-.505 0-.404-.307-.404-.589v-3.686c-.859 1.229-1.591 2.355-2.399 3.533-.783-1.152-1.566-2.279-2.424-3.559v3.84c0 .308-.051.461-.404.461-.354 0-.429-.102-.429-.46.025-1.588 0-3.15.025-4.737 0-.205-.202-.538.202-.589.303-.025.631-.077.858.282.632.973 1.288 1.92 1.945 2.893.025.102.05.256.252.307zM67.946 30.927c.076.896-.404 1.664-.808 2.432-.48.896-.556 1.767-.127 2.663.505 1.075.985 2.176 1.339 3.303.277.87.48 1.766.454 2.688 0 .18-.025.358-.1.538-.051.179-.178.358-.38.332-.201-.025-.252-.205-.252-.358-.101-2.304-1.54-4.02-2.576-5.914-.63-1.152-.681-2.125.127-3.2.681-.922 1.363-1.844 1.742-2.945.076-.179.177-.41.43-.358.252.051.15.333.176.512 0 .077-.025.154-.025.307zm224.876 63.954c-.808 0-1.616-.025-2.424 0-.328 0-.455-.051-.455-.435a153.29 153.29 0 000-4.89c0-.333.076-.46.43-.46 1.616.025 3.232.025 4.847 0 .379 0 .404.127.43.46.025.384-.152.41-.455.41-1.338-.026-2.651 0-3.989-.026-.354 0-.429.102-.429.435 0 1.152-.026 1.152 1.111 1.152.858 0 1.691.026 2.55 0 .378 0 .429.128.429.461 0 .307-.076.41-.404.41-1.06-.026-2.146 0-3.207-.026-.303 0-.454.026-.454.41 0 1.178-.025 1.178 1.136 1.178 1.111 0 2.222.025 3.333 0 .379 0 .404.153.429.46 0 .308-.076.436-.404.41-.883.026-1.691.051-2.474.051zm-71.483 0h-2.424c-.328 0-.454-.051-.454-.435a164.47 164.47 0 000-4.967c0-.281.076-.384.379-.384 1.641 0 3.307.026 4.949 0 .404 0 .328.205.353.46.025.308-.05.436-.404.41-1.338-.025-2.651 0-3.989-.025-.379 0-.505.102-.505.512.025 1.1 0 1.1 1.111 1.1.833 0 1.641.026 2.474 0 .354 0 .505.052.505.462 0 .384-.151.41-.48.41-1.06-.026-2.095 0-3.156 0-.303 0-.454.025-.454.409 0 1.178-.026 1.178 1.136 1.178 1.111 0 2.222.025 3.333 0 .379 0 .429.128.429.46 0 .308-.076.436-.404.41-.783-.025-1.591 0-2.399 0zm-12.574-2.227c0 .614-.025 1.229 0 1.843 0 .282-.076.384-.379.384-.252 0-.454 0-.454-.384s.202-.947-.101-1.152c-.278-.205-.783-.077-1.162-.077h-2.424c-.277 0-.404.077-.378.384.025.23 0 .487 0 .743s.075.512-.354.512c-.404 0-.454-.154-.454-.512.025-1.152 0-2.33 0-3.482 0-1.101.681-1.792 1.767-1.792h2.172c1.035 0 1.691.665 1.717 1.715.05.589.05 1.203.05 1.818zm-2.853-.23h1.692c.151 0 .353.05.353-.206 0-.537.025-1.1-.05-1.638-.051-.41-.379-.614-.783-.614-.429 0-.833.025-1.263 0-2.146-.077-1.944.204-1.969 2.048 0 .307.076.435.404.41.53-.026 1.06 0 1.616 0zm-16.893.179v-1.767c.026-1.024.707-1.715 1.717-1.715h2.248c1.01 0 1.691.665 1.717 1.664.025 1.254 0 2.483.025 3.738 0 .281-.076.384-.379.384-.252 0-.454 0-.454-.384s.202-.948-.101-1.152c-.278-.205-.783-.077-1.162-.077h-2.424c-.303 0-.404.077-.379.384.026.23 0 .486 0 .742s.076.512-.378.512c-.404 0-.455-.153-.455-.512.051-.64.025-1.229.025-1.817zm2.854-.18h1.691c.152 0 .354.052.354-.204 0-.538.025-1.101-.051-1.64-.05-.383-.353-.588-.732-.588-.833 0-1.641-.025-2.474 0-.48.026-.783.333-.783.82-.025.435 0 .844 0 1.28-.025.281.076.358.353.332.505-.025 1.061 0 1.642 0zm46.458-2.023l-3.56 4.072c-.076.076-.126.153-.202.23-.227.307-.555.205-.833.154-.253-.052-.126-.359-.126-.538v-4.66c0-.332 0-.563.454-.563.505 0 .354.333.354.589v4.02c.328-.359.555-.615.757-.871.985-1.126 1.995-2.253 2.98-3.38.227-.255.454-.358.782-.332.253 0 .354.077.354.358 0 1.69-.025 3.405 0 5.095 0 .333-.152.333-.404.358-.303.026-.429-.05-.429-.41.025-1.126 0-2.252 0-3.379v-.665a.14.14 0 00-.127-.077zm-95.014 3.278c1.287-1.46 2.474-2.79 3.661-4.148.101-.102.177-.23.278-.307.227-.23.555-.154.808-.102.227.05.101.307.101.486v4.788c0 .281.05.512-.379.512s-.429-.18-.429-.512c.025-1.127 0-2.253 0-3.38 0-.18.075-.41-.127-.64-.934 1.075-1.843 2.1-2.752 3.15-.303.358-.631.69-.909 1.074-.252.359-.606.333-.909.256-.303-.076-.151-.435-.151-.64-.026-1.536 0-3.072-.026-4.608 0-.333.026-.512.43-.512.429 0 .378.23.378.486.026 1.306.026 2.612.026 4.097zm-39.617 0c1.313-1.485 2.5-2.816 3.687-4.148.101-.102.177-.23.278-.307.252-.23.555-.153.808-.077.202.052.101.308.101.487v4.787c0 .282 0 .487-.404.487-.354 0-.43-.128-.43-.461.026-1.331 0-2.637 0-3.994-.303.026-.378.23-.479.358a441.311 441.311 0 00-3.283 3.764c-.177.18-.328.307-.606.333-.404.025-.505-.103-.505-.512.025-1.588.025-3.2 0-4.788 0-.358.051-.486.455-.512.454 0 .353.256.353.512.025 1.28.025 2.586.025 4.07zm142.005-3.405a369.167 369.167 0 00-3.686 4.224 1.345 1.345 0 01-.253.282c-.252.23-.555.153-.808.077-.227-.052-.101-.308-.101-.487v-4.787c0-.308.051-.461.429-.487.379 0 .404.18.404.461-.025 1.127 0 2.253 0 3.38v.742c1.288-1.46 2.475-2.79 3.662-4.122.101-.102.176-.205.277-.333.228-.256.531-.153.808-.128.278.051.127.333.127.512v4.737c0 .307.025.537-.404.512-.48 0-.404-.282-.404-.564V90.99c0-.154-.026-.359-.051-.717zM178.59 93.55c.707-.794 1.389-1.587 2.071-2.381.53-.589 1.06-1.178 1.54-1.792.278-.333.606-.333.934-.23.278.076.127.409.127.64.025 1.561 0 3.097.025 4.659 0 .333-.076.46-.429.46-.354 0-.43-.127-.43-.46.026-1.331 0-2.688 0-4.173-.984 1.152-1.868 2.176-2.752 3.226-.328.358-.656.717-.934 1.126-.202.282-.429.308-.732.308-.253 0-.354-.052-.354-.333 0-1.69.025-3.38 0-5.095 0-.307.127-.359.404-.359.278 0 .455.026.43.384-.026 1.153 0 2.279 0 3.431 0 .128-.051.333.1.589zm-27.849 0c.707-.794 1.389-1.587 2.07-2.381.531-.589 1.036-1.203 1.566-1.792.126-.128.202-.282.429-.282.404-.026.657 0 .631.563-.05 1.588-.025 3.175 0 4.788 0 .333-.075.46-.429.46-.353 0-.429-.153-.429-.46.025-1.331 0-2.688 0-4.173-.985 1.152-1.869 2.176-2.752 3.226-.329.358-.657.717-.935 1.126-.202.282-.429.307-.732.307-.252 0-.353-.05-.353-.332 0-1.69.025-3.38 0-5.095 0-.307.126-.359.404-.359.277 0 .454.026.429.384-.025 1.152 0 2.279 0 3.431 0 .128-.076.333.101.589zm22.674-4.455h1.161c.884.026 1.591.666 1.641 1.562.051.87.051 1.766 0 2.637-.05.947-.732 1.562-1.666 1.587h-2.348c-.935-.025-1.591-.614-1.616-1.536a22.744 22.744 0 010-2.637c.05-.947.707-1.562 1.666-1.587.354-.026.758-.026 1.162-.026zm-.051.87h-1.136c-.53 0-.833.308-.859.82a37.804 37.804 0 000 2.38c.026.538.303.846.834.846.782 0 1.565.025 2.348 0 .555 0 .858-.308.858-.87a34.81 34.81 0 000-2.33c-.025-.538-.303-.82-.833-.846-.404-.025-.808 0-1.212 0zm-49.312 4.916h-1.212c-.884-.026-1.541-.614-1.591-1.51a23.635 23.635 0 010-2.689c.05-.921.707-1.536 1.616-1.561.783-.026 1.565 0 2.348 0 .934 0 1.641.665 1.692 1.587.05.845.05 1.715 0 2.586-.051.972-.733 1.613-1.717 1.613-.354-.026-.758-.026-1.136-.026zm.025-4.916h-1.136c-.556 0-.859.308-.884.845a36.196 36.196 0 000 2.33c.025.563.328.87.884.87h2.297c.556 0 .884-.307.884-.844.025-.768.025-1.562 0-2.33-.025-.563-.328-.845-.884-.87-.404-.026-.782 0-1.161 0zm153.113 4.916c-.429 0-.858.026-1.262 0-.859-.025-1.49-.64-1.541-1.51-.05-.896-.05-1.792 0-2.688.051-.922.707-1.562 1.616-1.562a38.263 38.263 0 012.424 0c.884.025 1.591.665 1.616 1.562.051.87.051 1.766 0 2.636-.05.922-.757 1.537-1.691 1.562h-1.162zm-.025-.87h1.136c.581-.026.884-.307.909-.896.025-.743 0-1.46 0-2.202 0-.64-.303-.922-.934-.947h-2.222c-.556 0-.884.281-.909.845a37.804 37.804 0 000 2.38c.025.513.328.82.858.82h1.162zm-12.371-2.637c0 .589.025 1.177 0 1.766-.025 1.05-.707 1.716-1.742 1.716h-2.172c-.732-.026-1.287-.436-1.515-1.101-.05-.154-.202-.41 0-.461.228-.051.581-.205.732.154.202.486.581.563 1.036.563.656-.026 1.287 0 1.944 0 .707-.026 1.187-.794.909-1.46-.101-.23-.278-.128-.404-.128h-2.727c-1.035 0-1.692-.665-1.742-1.715-.025-.41.025-.82 0-1.229-.025-.358.151-.384.429-.384.328-.025.429.103.404.41a8.09 8.09 0 000 1.1c.025.64.303.948.934.948.909 0 1.818-.026 2.727 0 .354 0 .429-.128.429-.46-.025-.539 0-1.076 0-1.588 0-.307.051-.435.379-.435.354 0 .455.102.429.46-.075.615-.05 1.23-.05 1.844zm-150.515.614c0-.793.025-1.587 0-2.38 0-.36.051-.513.455-.487 1.186.025 2.373 0 3.56.025.934 0 1.591.666 1.641 1.613.025.333.025.666 0 .973-.05.896-.707 1.562-1.616 1.588-.884.025-1.767.05-2.651 0-.53-.026-.682.153-.606.64.025.153 0 .332 0 .486.025.282.025.486-.379.486-.429 0-.429-.204-.429-.512.05-.844.025-1.638.025-2.432zm2.424.435h1.54c.581 0 .884-.281.909-.896v-.563c-.025-.717-.277-.998-.984-.998-.783 0-1.566.05-2.349-.026-.631-.051-.808.154-.732.768.051.538-.177 1.28.101 1.587.303.359 1.061.077 1.515.128zm-20.83-.435c0-.82.025-1.638 0-2.458 0-.358.101-.435.454-.435 1.213.026 2.424 0 3.636 0 .253 0 .48.077.707.18.808.409 1.162 1.459.884 2.713-.177.794-.858 1.28-1.742 1.28s-1.767.026-2.651 0c-.354 0-.455.103-.43.435.026.23 0 .461 0 .666 0 .256.051.512-.378.512-.404 0-.455-.18-.455-.512-.025-.794-.025-1.587-.025-2.38zm2.575.435h1.44c.505 0 .782-.281.833-.793.025-.23.025-.487 0-.743-.025-.64-.303-.921-.934-.921-.884 0-1.768.025-2.652-.026-.429-.026-.505.154-.48.512.026.46.026.947 0 1.408-.025.41.076.589.506.538.454-.026.858.025 1.287.025zM58.555 68.434c.05-.665.151-1.28.429-1.792.48-.922 1.515-1.178 2.45-.614.656.383 1.287.793 2.02.998.555.154.605.435.1.743-.656.41-1.363.793-2.045 1.126-.58.282-1.111.614-1.717.82-.657.23-.859.178-1.06-.487a3.23 3.23 0 01-.177-.794zm195.71 23.554c-.682-.512-1.288-.973-1.894-1.434-.227-.179-.404-1.152-.252-1.356.151-.205.379-.077.555-.103.228-.025.278.128.253.307-.101.487.202.692.53.922.505.358.96 1.05 1.515 1.024.505-.025.985-.666 1.465-1.024.328-.23.631-.435.53-.922-.076-.358.202-.307.404-.332.227 0 .404-.026.429.332.025.59-.025 1.05-.606 1.383-.53.307-1.01.742-1.565 1.178.606.486 1.212.921 1.792 1.382.303.23.531 1.024.354 1.357-.126.256-.354.102-.53.128-.127.026-.329 0-.278-.205.177-.665-.354-.87-.758-1.177-.404-.333-.833-.871-1.262-.871-.429 0-.859.538-1.263.87-.378.308-.909.513-.757 1.178.05.205-.126.23-.278.205-.177-.026-.404.128-.53-.128-.152-.333.05-1.152.353-1.357.581-.41 1.162-.845 1.793-1.357zm-165.663-.025c0-.82.025-1.639 0-2.458 0-.307.075-.41.404-.41 1.64.026 3.282.026 4.898 0 .278 0 .379.077.379.384a168.25 168.25 0 000 5.044c0 .307-.101.384-.379.384s-.454-.026-.454-.384c.025-1.332-.026-2.663.025-3.994.025-.487-.152-.563-.581-.563a56.23 56.23 0 01-2.904 0c-.454-.026-.63.076-.606.588.05 1.255.026 2.535.026 3.815 0 .256.1.563-.38.563-.428 0-.428-.204-.428-.537v-2.432zm214.066 1.357c-.101.947-.681 1.536-1.616 1.536-.808.025-1.616.025-2.424 0-.909-.026-1.565-.64-1.616-1.562-.05-.87-.05-1.767 0-2.637.051-.922.707-1.536 1.616-1.562a39.89 39.89 0 012.475 0c.656.026 1.288.487 1.464 1.075.051.154.202.41-.025.487-.202.051-.581.205-.707-.103-.252-.563-.682-.614-1.187-.588-.656.025-1.287 0-1.944 0-.606 0-.909.281-.934.87a36.196 36.196 0 000 2.33c.025.537.303.845.833.845h2.348c.278 0 .505-.077.707-.308.455-.435.455-.46 1.01-.384zm-168.642-.026c-.101.973-.682 1.562-1.591 1.562-.808.025-1.616.025-2.424 0-.909-.026-1.565-.64-1.616-1.562-.05-.87-.05-1.767 0-2.637.051-.922.707-1.562 1.616-1.562a39.89 39.89 0 012.475 0c.656.026 1.288.46 1.464 1.075.051.154.202.41 0 .487-.202.077-.58.205-.707-.103-.252-.614-.732-.614-1.262-.614h-1.944c-.556 0-.859.307-.884.87a36.196 36.196 0 000 2.33c.025.563.328.845.884.845h2.297c.303 0 .632-.077.733-.358.227-.512.605-.333.959-.333zm7.045.026c-.101.947-.682 1.536-1.616 1.536-.808.025-1.616.025-2.424 0-.909-.026-1.566-.64-1.616-1.562a22.744 22.744 0 010-2.637c.05-.922.707-1.536 1.616-1.562a39.858 39.858 0 012.474 0c.657.026 1.288.487 1.465 1.075.05.154.202.41-.026.487-.202.051-.58.205-.706-.103-.253-.563-.682-.614-1.187-.588h-1.944c-.606 0-.909.281-.935.87a36.196 36.196 0 000 2.33c.026.537.303.845.834.845h2.348c.278 0 .505-.077.707-.308.454-.435.429-.46 1.01-.384zm21.563 0c-.101.972-.707 1.536-1.666 1.561h-2.298c-.985 0-1.641-.64-1.667-1.638a41.977 41.977 0 010-2.51c.051-.972.707-1.612 1.692-1.638h2.348c.707 0 1.339.46 1.541 1.101.05.154.202.41-.026.46-.202.052-.58.206-.707-.102-.252-.588-.681-.614-1.186-.588h-1.945c-.606 0-.909.281-.934.87a36.196 36.196 0 000 2.33c.025.563.328.845.884.845h2.247c.303 0 .631-.051.732-.308.228-.512.581-.46.985-.384zM57.217 50.078c.328.512.783.717 1.212.973.48.307.48.537.025.844-.58.384-1.161.436-1.793.026-.48-.307-.883-.691-1.287-1.1-.379-.36-.303-.718.1-1.025 1.061-.768 2.122-1.587 3.359-2.074.328-.128.656-.179.985-.05.58.204.606.28.151.665a.605.605 0 00-.227.41c-.025.204-.05.41-.101.614-.202 1.126-.455 1.28-1.49.947-.278-.102-.53-.307-.934-.23zm144.73 39.094c-.884.896-1.717 1.74-2.55 2.56-.202.205-.202.307 0 .512.833.82 1.666 1.664 2.55 2.56-.606.103-1.111.18-1.54-.358-.531-.614-1.137-1.178-1.692-1.741-.126-.128-.253-.282-.505-.307-1.086-.103-1.086-.103-1.086.998v1.05c0 .282 0 .46-.378.435-.329 0-.455-.077-.455-.435a161.09 161.09 0 000-4.916c0-.358.101-.435.455-.435.353 0 .378.154.378.435-.025.564 0 1.101 0 1.665 0 .281.076.358.379.384.631.05 1.111-.077 1.54-.59.379-.486.884-.844 1.263-1.33.404-.564.909-.666 1.641-.487zm-32.219 5.632c-.757.18-1.288.026-1.742-.537-.455-.563-1.01-1.05-1.54-1.562-.152-.128-.253-.282-.505-.282-1.086-.076-1.086-.102-1.086.999v.973c0 .281.025.486-.379.486-.429 0-.429-.205-.429-.512 0-1.587.025-3.2 0-4.787 0-.359.076-.487.454-.487.455 0 .354.256.354.512 0 .512.025 1.024 0 1.536-.025.359.126.41.454.436.606.05 1.061-.128 1.465-.615.379-.46.858-.87 1.262-1.306.632-.64.632-.64 1.642-.486-.808.82-1.566 1.638-2.374 2.38-.404.36-.328.538.025.871.808.768 1.566 1.562 2.399 2.381zM63.426 30.927c-.076.512-.025 1.127-.404 1.613-.202.256-.53.461-.631.051-.404-1.357-1.616-2.176-2.096-3.43-.328-.845-.404-1.767.101-2.586.278-.486.632-.486.808.026.328.998 1.035 1.69 1.642 2.432.403.537.555 1.152.58 1.894zm2.804-14.081c.075.614-.203 1.178-.38 1.715-.252.794-.075 1.46.278 2.15.228.436.48.897.556 1.409.025.23.025.46-.177.614-.227.18-.379-.076-.505-.179a31.565 31.565 0 01-1.919-1.766c-.48-.487-.555-1.178-.252-1.793.404-.767.782-1.536 1.186-2.304.026-.025.026-.076.05-.102.203-.307.33-.794.809-.666.404.103.379.538.353.922zm240.074 72.249c.833 0 1.666.026 2.474 0 .354 0 .379.154.379.435 0 .282-.025.461-.379.436-.555-.026-1.085 0-1.641-.026-.328-.026-.454.077-.429.435.025 1.332 0 2.663.025 3.994 0 .333-.025.512-.454.512-.404 0-.379-.205-.379-.486v-3.917c0-.384-.076-.564-.48-.512-.454.05-.934 0-1.389 0-.277 0-.58.102-.58-.41-.026-.563.303-.435.606-.435.757-.026 1.489-.026 2.247-.026zM63.05 64.466c-.228.051-.48.128-.708.128-.176 0-.48 0-.378-.358.202-.717 2.12-1.716 2.777-1.434.151.051.278.18.404.256.278.18.631.384.454.742-.176.384-.353.82-.883.87-.606.103-1.111-.127-1.667-.204z" fill="#9A0303"/><path d="M180.486 89.095c-.707 0-1.364-.435-1.591-1.075-.05-.154-.202-.41 0-.487.227-.076.505-.153.732.103.707.87.985.845 1.743-.026.201-.23.504-.153.706-.077.228.077.051.333 0 .461-.227.666-.858 1.101-1.59 1.101zm-27.851 0c-.707 0-1.364-.41-1.616-1.075-.051-.154-.177-.41 0-.487.227-.077.53-.179.757.128.556.794 1.187.794 1.692 0 .202-.333.53-.205.732-.153.278.076.051.358 0 .512-.227.665-.858 1.075-1.565 1.075z" fill="#9A0303"/></g><defs><clipPath id="clip0"><path fill="#fff" d="M0 0h316v101H0z"/></clipPath></defs></svg>