<svg width="295" height="218" fill="none" xmlns="http://www.w3.org/2000/svg"><path d="M136.978.728V0c.728 0 1.512.728 1.512 1.511 0 .728 0 .728-.784.728.784-.728-1.512-.728-.728-1.511zm9.069.783c0-.727 0-.727.784-.727.727 0 2.239 0 2.239 1.511 0 .784 0 .784-.784.784-.728-.84-2.239-.056-2.239-1.568zm-26.422 3.023c-.784 0-1.512.784-1.512-.728 0-1.51.728-.727 1.512-.727.783 0 1.511-.784 1.511.727 0 1.456-.784.728-1.511.728zm6.774-.784c.728 0 .728 0 .728.728 0 1.512-.728.784-1.511.784-.784 0-.784 0-.784-.784.84.784.84-1.455 1.567-.727zm-19.592 1.512h.783c-.783 1.511-1.511 3.023-3.022 3.75-.728 0-.728 0-.728-.783.672-1.456 1.455-2.183 2.967-2.967zm8.284.784c.784 0 .784 0 .784.727 0 .728-.784 1.512-1.511 1.512-.784 0-.784 0-.784-.728 0-.784.728-1.511 1.511-1.511zm37.001 9.795c-1.512-3.75-1.512-6.045-.784-9.795 4.534 1.51 3.023 5.261 3.751 8.284-.728.784-2.24.784-2.967 1.511zm-42.265-7.556c.728 0 1.511.783 1.511 1.511-.783 3.023-3.022 3.75-5.262 5.318.728-1.512-2.239 0-1.511-1.512 2.239-1.51 3.751-3.806 5.262-5.317zm-12.088 3.022c-.784 0-.784 0-.784-.783v-.728c.784-.728.784 1.511 1.511.728 0 .783 0 .783-.727.783zm-5.321 0c.784-.783.784 1.512 1.512.728 0 1.511-2.295 1.511-2.295 3.023 0 .728-.728 1.511.727 1.511-.727.784-1.51 1.512-2.238 2.295-1.512 0-2.296-1.511-3.807-1.511-3.75.728 2.295 5.262-2.24 5.262-.727.783-.727-1.512-1.51-.728-.728 1.511-2.295 2.24-3.75 2.24-.785 0-1.512-.729-1.512-1.512 2.239-.728.727-3.023 1.511-3.75 1.511-1.512 3.75-1.512 5.262-2.296 1.511-.727.784-1.511 1.511-2.239.728-.728.728 2.24 2.295.784.728 0 1.512 1.511 2.295-.784.728-.728 1.512-2.239 2.24-3.023zm9.07.784c.784-.728.784 1.511 1.511.728 0 1.511-1.511.727-2.295 1.511-.727 0-.727 0-.727-.728 0-.783.783-1.51 1.511-1.51zM73.557 23.398c-.784 0-.784 0-.784-.783 0-.728 0-.728.784-.728.728 0 .728 0 .728.728.056.783.056.783-.728.783zm1.51 5.262c1.511 0 .783 1.512 1.511 2.295 0 .728-.728 1.512-1.511 1.512.783-.728-2.295-.728-.784-2.24-.728-.783 1.567-.783.784-1.567zm86.037 12.091c2.239 0-.728 2.24 1.511 2.24-.783 2.294-3.022 3.75-3.022 6.773-.728 1.511 0 2.295.783 3.75-.783.728-1.511 1.511-2.295 2.24v-.728c-.783-.728 2.295-.728.784-2.24 0-1.51-1.511-3.022-1.511-4.534.783-.727 1.511-1.511 2.295-2.239 1.455-1.455-1.568-4.478 1.455-5.262zm-89.06 14.33c-.728 0-.728 0-.728-.727h1.456c.056.727.056.727-.728.727zm4.536.784c1.511.728 2.295 1.512 2.295 3.023v2.24h-1.512c-1.511-.729-2.295-2.24-2.295-3.751 0-.784.784-1.512 1.512-1.512zm85.307 8.285c.784 0 1.511.728 1.511 1.511 0 1.512-.727 2.24-2.239 3.023.728-.728-2.239-.728-.727-2.24-.056-.783-.056-2.294 1.455-2.294zm-88.331.783h.728c.783 0 .783 0 .783.728s0 .728-.783.728c.783-.728-1.456-.728-.728-1.456zm5.317 4.535c0-.784-.784-1.512.728-1.512 2.295.728 0 3.023 1.511 3.75.784.728 1.512 1.512 2.295 2.24 0 .728.728 1.511-.783 1.511 0-1.511-2.296-.783-2.296-1.511.056-1.511-1.455-3.023-1.455-4.478zm-1.511 10.523c-.784 0-.784 0-.784-.727v-.728c.784-.784.784 2.239 2.295.728 0 1.511-.784.727-1.511.727zm7.558 13.603l4.534 4.534c0 .728 0 .728-.784.728-2.295-.728-4.534-1.512-5.262-4.534.728.783.728-1.512 1.512-.728zm-3.023 6.773c0-.728-.784-1.511.727-1.511 4.534 3.022 3.023 8.284 6.046 12.091 0 1.511-.728.727-1.512.727-3.75-2.966-2.239-8.284-5.261-11.307z" fill="#528FBF"/><path d="M156.625 107.924c-.783 0-.783 0-.783-.728h1.511c0 .728 0 .728-.728.728z" fill="#5893C5"/><path d="M84.92 114.753c3.022 3.023 1.51 6.773 3.022 9.796.728.728 2.295 0 2.295 1.512 0 1.511-.784.783-1.511.783-5.262-2.295-1.512-8.284-4.535-11.307.728-.056.728-.056.728-.784zm75.457 7.501c1.511 0 .727.728.727 1.511 0 .728.728 1.512-.727 1.512-1.512 0-.784-1.512-1.512-2.239.728.727.728-1.512 1.512-.784zM93.203 128.3c1.511 0 .784 1.511 2.295 1.511-.784.728 0 2.239-1.511 2.239 1.511 3.023 2.295 6.046 6.045 8.285 2.295 1.511-2.239 6.045 1.512 8.284.783.728-2.295.728-.784 2.295h-1.511c-3.023-3.022 0-7.557-2.24-9.068-3.022-3.75-3.022-8.285-5.261-11.307-.056-1.456 1.455-.728 1.455-2.239zm-6.045 14.33v-.728c2.295.728 1.512 2.239 2.295 3.751 0 .727.784 1.511-.783 1.511-2.296-.728-.784-3.023-1.512-4.534zm6.046.783c0-.727-.784-1.511.783-1.511 1.512 0 1.512 1.511 1.512 2.239 0 .784.784 1.512-.784 1.512-1.511 0-1.511-1.512-1.511-2.24z" fill="#528FBF"/><path d="M161.886 85.31c1.512-.729 1.512-2.24 2.295-3.751-2.295-.728-.783-3.023-1.511-3.75h-1.511c-.728 3.022-1.512 5.261-1.512 8.284h-2.295l-2.239-2.24c-.728-.727 3.751-3.022-.728-3.022 0-.784-1.511-2.24.728-2.24 0-2.294 1.512-.783 2.239-.783 1.512-2.239 3.751-4.534 2.295-7.557-1.511-2.295-2.295-.727-3.022-.727 0 1.511 0 3.022-1.512 3.022l-2.239-2.239c-.784-3.023 0-5.262 1.511-8.284 0-1.512 1.512-.728 1.512-.728.784 1.511 1.511 1.511 2.295 1.511-1.511-2.239 1.511-5.261-1.511-6.773-.784 1.511-.784 3.023-2.24 3.023-6.045-2.295 4.535-8.285-.783-10.58-.728 1.512-1.512 2.24-3.023 1.512v-1.512c.728.728.728-1.511 2.295-1.511 3.023 0 1.511-3.75 3.023-6.046h-2.239c.783-3.022-1.512-6.045 0-7.557 2.239-2.295 3.022-5.262 6.045-7.557h2.239c0 5.262-5.262 7.557-6.773 12.092 0 .727 1.511 1.51.728 3.022h1.511c.784-2.295 2.295-3.75 3.751-5.262 1.511-1.511.727-4.534 1.511-6.773 1.511-4.534-1.511-9.068-2.239-13.602 0-1.512-.784-.784-1.511-.784 0 2.24-3.023 3.023-3.023 5.262-1.512-2.24-1.512 1.511-3.751.728-4.534-3.023.784-3.023 0-4.535-3.022 0-5.262-4.534-9.068-2.239-.784-2.239-3.023-.727-3.75-2.239 0-.783-.728-1.511.783-1.511 0-4.534 2.239-.728 3.023-.728.728 1.512 3.023 5.262 5.262 3.023 0-.728 1.511-2.295.784-3.75-.784 0-1.512 1.51-2.24-.728-.783-.728-2.295-2.24-3.022-3.75h-2.239l-2.295 2.294c-4.535 2.24-6.046-1.511-9.796-2.295 0 .728-.728 1.512.783 1.512-1.511 3.75-5.262 3.75-8.284 4.534 0-1.512-1.512-1.512-2.295-1.512-2.296.784-3.751 3.023-6.046 3.75-1.511 1.512-3.023 3.751-3.75 5.263-2.296 3.75-3.023.727-4.535.727 1.512-1.51-1.511-1.51-.783-2.295-3.751 2.296-8.285 2.296-12.091 6.046-.728 0-2.24 1.511-2.24-.728-3.806 2.24-6.773 4.534-10.58 6.046-2.238 1.511 2.296 3.75 0 6.045-.727.728-2.238-.783-3.022 1.512-1.511 3.75-3.75 6.773-3.023 10.58 0 1.51 2.295 3.022 1.512 4.534-.784.727-.784.727-.784 1.51h1.511c1.512-3.022 0-6.045 0-9.067.728-2.24 2.24-4.535 3.023-4.535 3.75 0 .728 4.535 1.512 6.774 2.295 3.023 5.261 4.534 5.261 8.284-.727 0-1.511 1.512-2.239-.727-.783-.728-.783-1.512-1.511-2.295-.784 0-2.295-.728-1.511.727 1.51 2.295 2.295 4.534 2.295 6.773-2.295 0-.728 1.512-.728 2.24 1.511 0 1.511-1.512 1.511-2.24h1.512c4.534 3.023 1.511 5.262 0 6.774-.784 1.511-1.512-3.023-2.295-2.295-2.295 3.022 1.511 6.045 2.295 9.068.727 4.534 3.023-2.295 3.023 0 .727 3.023-3.023 4.534-3.751 7.557-.728 6.773 3.75 13.602 8.285 19.592 1.511 1.511-.728 4.534-1.512 7.557-.727 3.75 3.023 6.045 4.534 8.284 0 .784 3.75 3.023-.783 3.023 0 1.512-.728.728-1.512.728 0-1.511-1.511-2.239-1.511-3.751-3.023.784-1.512 3.751-1.512 5.262.728 2.295-1.51 4.534.728 6.046.728 0 2.24-.728 3.023-2.239 0 0 1.511-.728 1.511.727 3.023-1.511.784-5.261 3.023-6.773.784 0 1.512.728 1.512 1.512-1.512 1.511 1.511 2.295 0 3.75-1.512 1.511-4.535 3.751-3.023 4.534 1.511 2.239-1.512 5.262 0 6.773 3.023 1.512 2.239 4.535 3.75 6.046.784.728 2.295-3.023 4.534 0 .784 1.511 0 2.239 0 3.023-2.239 2.295-1.511 3.75-1.511 6.045.728 1.512 4.534 0 4.534 3.023-1.511-.728-1.511 1.511-3.023.728v2.239c3.751-1.512 7.557-.728 11.308-1.512.728 0-1.512-1.511-.728-2.239 2.239 0 6.773 0 5.262 3.751h1.511c-.727-3.023 1.512-3.751 2.239-6.046 0-1.511 1.512-1.511 2.295-1.511 2.24 3.023 5.262 3.023 8.285 4.534.728 0 .728-1.511 1.511-2.295 2.24-4.534 4.535 0 6.774-.728v-2.239c-1.512-.727-3.751-1.511-5.262-1.511-2.295.728-3.023 4.534-5.262 3.023-1.511-1.512-3.75-.728-4.534-2.239-.728-1.512.728-3.751 2.239-3.751.784 0 .784 1.511 1.511 2.239.728 2.295 1.512.784 2.239.784 1.512-.784 3.023-1.512 4.535-3.023 0 1.511 1.511.728 2.295 1.511.727-1.511 2.239-2.239 3.022-2.239 2.295.728-3.75 1.512 0 4.534.728.728 2.295 0 3.023.728l4.534-4.534c2.295-5.262 3.023-11.307 3.751-17.353-4.534 0-.728-2.239-.728-3.023 2.239-3.022 3.023-6.045 5.262-8.284 2.239-2.239 1.511-4.534 1.511-6.774-.727-1.511-3.75-3.022-2.239-4.534.784-1.511 3.023-3.022 1.512-5.261-1.512-.784-2.239-1.512-1.512-3.023.784-.728.784-.728 1.512-1.512 2.798-2.35-2.463-4.646.559-6.885zm-76.24-57.377h.727c.784 0 .784 0 .784.727 0 .728 0 .728-.784.728.784-.728-1.455-.728-.728-1.455zm0 10.58c-.728 1.51.727 3.75-1.512 4.533-1.511-3.022-1.511-5.261-2.239-8.284 0-.728 0-2.24 1.511-2.24 2.24.784 2.24 3.751 4.535 4.535-.056 1.455-1.568.672-2.296 1.455zm5.261 28.66c.728 0 .728 0 .728.727 0 .728 0 .728-.728.728-.727 0-.727 0-.727-.728 0-.727 0-.727.727-.727zm-1.511 18.864c-2.295-.728-1.511-2.24-1.511-3.75-.784.727-.784-2.296-2.296-.728v-1.512c0-2.239 2.296-2.239 3.023-4.534 2.295.728 2.295 3.023 3.023 5.262-.728 1.511.056 4.534-2.239 5.262zm3.806 6.773c-1.511 0-1.511-1.511-1.511-2.239.728-1.511 1.511-2.295 3.023-3.023.784 0 .784 0 .784.728-1.568 1.567-.784 3.806-2.296 4.534zm10.58 33.978c-.784 0-.784 0-.784-.783 0-.728 0-.728.784-.728.728 0 .728 0 .728.728 0 .783 0 .783-.728.783zm15.842 21.887c-1.512 1.512-1.512-1.511-2.295-.727-1.512 0-1.512 2.239-3.023 1.511-1.512-1.511-4.534 1.511-5.262-1.511 1.511-2.24 2.239-3.751 4.534-5.262.784 0 1.511-.728 1.511.727.784.728-1.511.728-.727 1.512v1.511c2.239.728 5.262-1.511 6.773 1.512 0 1.511-.784.727-1.511.727zm2.239-4.534c-1.512-.728-3.751 0-4.534-2.239.783.728.783-2.239 2.295-.728 1.511.728 3.022.728 3.75 2.239 0 1.512-.728.728-1.511.728zm0-126.788c-1.512.728-1.512-1.512-3.023-.784-2.239 0-3.751 2.295-6.046 2.295-.727 0-.727 0-.727-.727.727-2.296 3.022-4.535 6.045-3.75 1.512-.729 2.295 0 3.751.783.727.728.727-1.512 1.511-.784.784 0 1.511-.728 1.511.784-.727 1.455-1.511 2.183-3.022 2.183zm9.852-4.534c-.784.727-.784-2.295-2.295-.728-1.512.728-2.239 2.24-3.751 2.24.784-.729-1.511-.729-.784-1.512 1.512-1.512 3.023-1.512 4.535-3.75h2.295c.783 0 3.022-3.751 3.022.727-.783 1.511-1.567 2.295-3.022 3.023zm5.262 3.022c-.784 0-1.512.728-1.512-.727 0-.784.728-1.512 1.512-1.512 1.511-1.511 1.511 1.512 2.239.728 0 1.511-1.512 1.511-2.239 1.511zm14.33 70.98c0-1.512 1.511-1.512 2.295-1.512.783 0 1.511-.728 1.511.728-.728 1.511-1.511 2.295-3.023 2.295-1.511 0-.783-.784-.783-1.511zm-2.239-64.206c2.239-.728 1.511 3.023 3.75 3.023 2.239-1.512 3.751-3.751 6.046-5.262h1.511v1.511c0 .728 1.511 2.24-.784 2.24-2.295.727-4.534 2.238-6.045 3.022-.728.728-.728 2.239-2.295 3.023-3.023-1.512-.728-5.262-3.023-7.557h.84zm1.511 37l-1.511 1.512v-.728c0-.727 0-.727.727-.727h.784v-.056zm-1.511 30.956c1.511 0 2.239.728 2.239 2.24 0 .727.783 1.51-.728 1.51-1.511-.727-2.295-1.51-2.295-3.022 0-.728 0-.728.784-.728zm2.239 7.557c0 .728 0 .728-.728.728-.784 0-.784 0-.784-.728h1.512zm-6.046-80.775c.784 0 .784 0 .784.728 0 .727 0 .727-.784.727-.728 0-.728 0-.728-.727 0-.728 0-.728.728-.728zm2.295 121.526h-3.023v-1.511c0-.728.728-1.511 1.512-1.511 1.511.727 3.75 0 4.534 2.239 0 4.534-2.295.783-3.023.783zm5.262-13.602c0 .728 0 2.295-1.511 2.295-.728 0-1.512-.728-1.512-1.511.784-.728 1.512-1.512 2.295-2.24 1.512-.056.728.728.728 1.456zm5.262-30.956c0 .728 1.511 1.512.784 3.023 1.511 2.24-2.295 3.023-2.295 4.534 1.511 2.239 3.022 3.751 4.534 6.046-.728 2.239-3.023 3.75-4.534 6.045-3.023-1.511-3.023-4.534-3.751-6.773-.784-2.295 2.239-2.295 2.239-3.75 0-1.512-1.511-2.295-1.511-3.75 3.023-3.751-1.512-9.069 3.023-12.092 1.511 0 3.022.728 3.022 3.023-.727.672.784 2.967-1.511 3.695zm-4.474 52.843c.783 0 .783 0 .783.728 0 .727-.783 1.511-1.511 1.511v-.728c-.784-.727 1.455-.727.728-1.511zm-27.207 6.829c.728 0 1.511.728 1.511 1.512 0 1.511-.783.783-1.511.783-.784 0-.784 0-.784-.783-.727-.784 1.568-.784.784-1.512z" fill="#528FBF"/><path d="M99.248 156.232v-1.511c.784 0 .784 0 .784.728-.056.783-.056.783-.784.783z" fill="#5893C5"/><path d="M185.341 10.3c-.056-.392-.784-.056-.224-.336.28.168.504.336.224.336zm-80.776 41.535c1.736-1.96 2.687.615 4.31-.504.168-.056-.335 1.231.112 1.008 1.624-1.512 3.191.111 4.591 1.623l-.168.336c.28.28.783-.84 1.063-.672l-.112.672c.168-.728.616-.28.784-.784l.112 1.176.28-.784c.671-1.903 1.175.224 1.959-.728l-.112.504c1.176-1.064 2.463-.784 3.694-1.12l-.055 1.12c.055-.84.447-1.008.783-1.175.112.895.56-.784.896-.224l-.056.167c.28-.951.392.504.616-.615l.168.672c.111-1.232.391.615.615-.056v-.28c.224-.336.336.28.504.056l.056.168c.448-.336.728.28.672-.672.168.784-.448.392-.112 1.511 1.511-1.12 3.079-1.063 4.59-1.175l.448.84c.112-.225.56-.225.616-.728-.056 0 .167.503.223.503.336.336.168-1.063.56-.671v.951c.168-.783.504-.671.784-.951l-.056.56c.224-.896.672.167.84-.448v.56c.559.56-.056-1.176.391-.896l.056.615c.224-1.119.84-.895 1.176-1.343v.224c.392-.224.896 0 1.231-.56.224.224.224 1.344.616 1.008-.28-1.064.616-.616.112-1.791.392.111 1.064.335 1.232-.056-.056.447.503 1.287.223 1.455l.392.616c.056.447-.28-.112-.056.447.168-.111.504-.615.672-.503.112-.728.056-2.015.448-2.295-.112.448.448 1.175.336 1.4l.056-2.24c.112-.112.28.84.392.504l-.056-.728c.112.112.559-.392.951.616.168.392-.168.28.112.616.28-.056.168-.448.448-.504l.056.112c.224.112.392-.56 0-1.12-.112 0 .28.616-.056.336-.056-.616.224-.895.448-1.008l.112.784c.112-.951.336-1.4.616-1.903-.168-.504.167.952.055.728.728.447.672-1.4 1.456-.56-.056.112-.28-.672-.224-.56.28-.056.504.672.56.336.168.392.168-.224.28-.392-.056-.336.112.168 0 .28.112-.448.727-1.455 1.511-1.063-.112-.28-.112-1.12 0-1.12l.224.672c.28.336.392-.224.616.336-.056-.896-.728 1.063-.616.335.336.504.056-1.231.336-.336.224-.111.168-.951.616-.447-.112-.056.167.951.391.84.28-.28-.056-.337.168-.672l.056-.336c-.28-.616.336-.056-.112-.672.28.504.336-.504.784.504l.336.783c.112-.111-.168-.951-.224-1.343l.224.336c-.56-1.232.392-.056.112-1.064.504.28.784-.28 1.287.336.056-.504 0-1.063.392-.951l.056.503c.336.224.224-.112.28-.391.056.224.672.503 1.064.783 0-.504-.392-1.063-.616-1.455.84 1.007.168-1.12 1.007-.224 0 .224 0 .784.336.952.84 1.007-.112-1.12.56-.728l-.616-.896c.504.504.112-.84.672.168-.112-.392.56.056-.056-.84 1.008.448.952-1.231 2.351.168-.056-.223.28-.167-.056-.615-.448-.392.056.447-.224.168l-.168-.448c.28.112.448.112.784.951.728.336-.616-1.735.056-1.679.224.392.336.504.448.336l-.168-.784c.392-.056.728.728 1.175 1.344.112-.224.28-.28.056-.784l.728.616c-.56-.448-.112-.448-.168-.616l.056.168c.224.224.28-.056.28-.168-.28-.336-.56-.336-.784-.392-.112-.336.056-.336-.056-.727.392.615.56.223.728.167.224 0-.224-.671-.168-.671.224.28.28-.112.448.391.056.112-.336-.223-.168.112.28.168.672.672.56.168-.112-.391-.896-1.12-.392-.951l.336.727.504.113-.392-.56.224.224c-.336-.616.224-.504-.224-1.176.056-.168.559.168.727.112v.056c.392.168.448-.168.224-.616l.112.112c.112 0 .224-.28.056-.672.504.224 1.68 1.904 1.344 1.064.168-.168-.448-1.231-.84-1.455.616.056.336-1.12 1.344-.616l-.28-.56c.671-.224.559-1.511 1.847-.896.056.336.448.504.728.784-.28-.56.559.336-.056-.448-.448-.447-.616-.671-.952-.727.056-.504.56-.896 1.12-.616-.28-.112-.336-.336-.392-.504.671.728.951.616.895.168l-.392-.448.504.336c-.056-.224-.839-.951-.28-.728l.504.392c-.168-.504-.56-1.343-.056-1.175l.784.447c0-.167-.28-.615-.56-.671.672.056.896-.112 1.511.28-.839-1.792-.223-2.631.448-3.191l.336.28c.448.112-.504-.56-.168-.504.28.336.84.448 1.12.896.56.056-.336-.784-.336-1.12-.448-.392.168.392-.392-.112-.112-.168.616-.056 0-.616.336.168.784.616 1.008.84l-.224-.392c.951.448 1.063 1.568 2.183 2.183v-.224c.84.448.448 1.064 1.063.84-.168-.448-1.063-1.343-1.511-1.455.112-.504-1.511-1.456-1.175-1.736.503.224-.168.336.503.728.672.28-.056-.56.28-.56-.392-.056-1.007-.727-1.007-.895.503.056.559.615.839.447-.392-.335-.448-.783-.951-.84-.84-.783.503-.055-.112-.727.727.392 1.287 1.4 1.847 1.344-.672-.448-.56-.952-1.623-1.512.279 0 .783.392 1.063.728.504.112-.895-1.232.392-.392l-.616-.504c.224.112.448.112.84.28.112-.168-.56-1.12.392-.392-.056-.112.168-.447-.56-.783-.56-.056.336.615-.616.056.84.392.112-.392-.112-.672l.392.224c-.112-.168.056-.28-.28-.616l.56.392-.56-.448c-.112-.504 1.064.616 1.064.224l.336.504c-.056-.112.559.168.448-.112l-1.456-1.288c-.112-.335.672.336.168-.168l.504.616c.168.168.951.448 1.119.224-.112-.28-.727-.951-1.175-.951.056-.112.504-.056.84.28-.056-.392-.616-.336-.784-.784.392.168 1.119.224 1.735.392l.784.783.112-.168c.615.672.615.28 1.343.84.168-.056 0-.336-.112-.56-1.399-.448-1.455-1.4-2.687-2.015-.056-.56 2.911 1.4 1.4-.056-.336-.112-1.064-.84-.896-.392.28-.168-1.063-.84-.392-.84.336.504 1.288.448 1.792 1.176-.392-.224-.392 0-.336.112.504.168 1.119.728 1.287.448 0-.224.112-.448-.504-.784-.671-.392-.056.28-.671-.224-.056-.448 1.007.056-.056-.727-.056.28-.728-.112-1.176-.336l-.112-.392.392.28c.56-.168-.728-.56-.392-.84l1.008.336c.727.504-.672.336.616.951.167-.223-.392-.615.056-.671l.279.504c.112-.056 1.792.727 1.008-.112-.28-.392-.392-.28-.84-.56.112-.448-.28-.784-.224-1.064.896.504.28-.391 1.064.336-.56-.112-.84.392-.112 1.008 1.176.448-.336.224.672.895.224-.28 1.287.28 1.959.616.112-.056-.168-.28-.224-.392-.616-.392-.672-.28-1.343-.615.391-.224.224-.784-.336-1.288.392.056 1.007.392 1.007.616 0-.56.28-.952.672-1.288-1.175-.28-.056-.615-1.008-.84-.335.113-1.175-.055-1.623-.447.112-.112.448.224.728.28-.504-.448 1.063.168.224-.448.168.56 1.287.728 2.071 1.176-.336-.504.616.28.728 0-.336-.504-.56-1.064-.616-1.456 1.007-.056.448-1.008.56-1.4.503 0 1.455.56 1.679.393.112-.28-1.12-.28-.56-.448l.168.112c-.168-.224.952-.392-.392-1.064l1.008.56c.112-.056-.112-.168-.168-.28l.896.392c.839.056.111-.504.167-.784l-.727-.112c-.336-.616.448-.672.392-1.12l.615.224-.28-.391c.56.28 1.064.168.616-.112l1.288 1.175c-.448.056-.672-.504-1.344-.615-.56-.112-.56.335 0 .615.112-.112 0-.168-.168-.392.896.28.784.504 1.288.84 0-.112.28-.112.056-.224.336.336.336.504.28.784-.28-.28-.56-.112-.784-.28.728.336.896.672.56.896-.952-.112.28.84-.112 1.12-.728-.449-1.232-.896-1.456-1.232-.503.056-.112.28-.559.335.503.336 1.343.784 1.567 1.232l-.56-.224c.168.392 1.008.728.672 1.064-.56.503-.784 1.12-1.064 1.511l-.559-.224c1.063.84.056 1.064.447 1.623-.783.336-.056 1.568-1.119 1.344-.168 1.175-.28 2.239-1.12 3.135l-.671-.616c.447.504-.504-.168-.504.112.728.168.616.727 1.007 1.12-.895.055-.559 1.063-.335 1.79l-.504-.335c.727 1.007-.448.951-.896 1.343-.224-.056-.784-.336-.84-.112.672.84.504.952.784 1.68-.168.28-.672.615-1.175.671.391 1.904-1.232 2.295-1.456 3.863l-.616-.392c.336 1.96-1.791 2.295-1.959 3.638l-.839-.895c-.504 0-.28.84.391 1.343-.503 0-.167 1.064-1.007.56-.392.112.112.728.056 1.064-.784.224-.952.447-1.288 1.063l.168-.056c-.112-.224-.504-.616-.671-.56.056.392-.952.392.279 1.288-1.119-.168-.839 1.623-2.127 1.231.336.28.224.448.336.672-.504.448-1.511.224-1.455 1.12-.224-.112-.336-.616-.56-.504 0 .224.336.392.336.727-.336 1.288-2.071.784-2.687 1.512-.784 1.735-2.631 2.183-3.918 3.19l-.168-.28c.112 1.232-1.68-.335-1.176 1.344-.28-.168-.504.168-.672-.392.056.896-1.399 0-1.399 1.176l.056-.224c-.84-.224-.896.84-1.735.672l-.056-.56c-.504-.392.056 1.4-.728.224-.112.112.224.672.28.616-1.512.224-2.575 1.511-3.807 2.407-1.343-.336-1.007-2.184-1.399-.84-.168-.224.168.504.056.224-.168.504-1.064-1.288-1.008-.504.448.784.056.504.224 1.008-.839-.28-1.231-.952-1.455-.112l-.112-.448c-.056 1.455-.952 1.063-.952 2.63-3.022 1.568-6.101 2.8-9.292 3.863-3.247.728-6.437 1.288-9.852.84-.84-1.12-.896-1.12-1.735-.56v-.448c0 1.008-.616.168-.616 1.064-1.231-.056-2.351.28-3.638.168.223-.112.335-.896.056-.84l-.28.616-.056-.28c-.168.112-.336.616-.224.952-3.303.56-6.27-1.512-9.348-1.736-.672-.56-1.736-.448-2.575-.392-2.072-1.847-3.807-3.302-6.382-2.966.28 0 1.344-2.351 2.407-2.687zm80.665-41.087c-.504-.112-.84.056-1.4-.336l1.4.335z" fill="#000"/><path d="M177.897 15.002c.111.056-.224 0-.28 0 0-.112-.336-.336-.112-.28 0 .056.224.168.392.28zm-.896 1.343c-.392-.224-.56-.727-.504-.895l.504.895zm-2.349.505c-.392-.057-.56-.169-.448-.337l.448.336zm.837.559c-.056.112-.335.056-.559-.056.336.224-.056-.336.559.056zm-2.853 2.127c0 .056.224.392-.224.224.336.112-.28-.616.224-.224zm-.226 1.624l-.056.111c-.224-.056-.448-.28-.448-.392l.504.28zm-18.806 20.32l.055-.28.168.391-.223-.112zm-11.197 5.26c-.056.337-.224-.335-.28-.39.168-.113.112.559.28.39zm-5.991 3.807h.056l.168.84-.224-.84zm103.226 41.591c.335-.615-.84-.28.056-.56.223.336.335.616-.056.56z" fill="#000"/><path d="M129.197 25.358c1.567 2.799-1.4 4.758-.672 7.389 0 .28-1.231-.336-1.064.336.84 2.518-.055 5.765-1.847 8.452l-.336-.224c-.335.504.784 1.232.56 1.791-.224 0-.336-.223-.672-.112.672.168.224 1.064.728 1.288-.28.224-.84.168-1.175.448l.783.336c1.904.951-.448 2.183.784 3.358-.168-.056-.336-.168-.504-.056 1.344 1.904 1.4 4.31 2.015 6.382-.28-.056-.839-.056-1.119.112.839 0 1.119.615 1.343 1.175-.839.392.896.84.504 1.567h-.168c.952.336-.448.84.672 1.008l-.616.448c1.232 0-.56.84.112 1.12l.224-.057c.392.28-.168.616.168.896l-.112.056c.56.728.056 1.343.952 1.12-.672.447-.56-.672-1.512 0 1.791 2.407 2.407 5.15 3.303 7.78-.28.448-.336.672-.616.896.28.168.504.952 1.008 1.008-.056-.056-.392.335-.392.503-.112.616 1.231.056 1.119.728a.977.977 0 00-.951.168c.895.112 1.119.728 1.623 1.12-.168 0-.336-.112-.616.056 1.064.168.392 1.063 1.12 1.287l-.616.056c-.168 1.064 1.176-.28 1.176.56-.224-.056-.392.056-.616.168 1.231.168 1.455 1.287 2.127 1.735l-.224.112c.448.616.56 1.455 1.344 1.96-.056.391-1.232.615-.616 1.23.951-.615 1.063.952 1.903-.167.112.727.336 1.847 1.008 1.959-.56 0-.896 1.064-1.344.672l-.28.727c-.392.224-.168-.447-.559 0 .223.224 1.119.616 1.119.896.896 0 2.239-.392 2.911.168-.616-.056-.84.952-1.176.84l2.463-.392c.224.168-.671.615-.168.728.224-.224.448-.169.728-.224-.056.168.952.727.168 1.511-.224.392-.448-.224-.56.28.336.392.672.168 1.008.56l-.112.112c.112.391 1.008.447 1.231-.224-.112-.224-.447.503-.391.056.615-.224 1.119.112 1.455.503-.224 0-.448.224-.728.336 1.064-.056 1.736.336 2.463.672.392-.336-.839.448-.727.168.056 1.343 2.239.616 2.071 1.903-.168 0 .448-.616.336-.448.335.336-.224.896.224.896-.28.336.391.168.727.224.336-.112-.056.224-.336.056.616 0 2.407.616 2.743 1.735.168-.224 1.176-.448 1.288-.28l-.504.504c-.112.448.616.448.28.952.895-.336-1.903-.672-1.008-.728-.224.56 1.4-.28.728.392.392.28 1.175-.056 1.175.728-.056-.168-.839.503-.559.727.615.336.336-.168.895 0h.448c.392-.504.392.448.672-.336-.28.504.951.336.224 1.176l-.56.672c.28.112.84-.448 1.287-.672l-.112.392c.784-1.12.56.392 1.4-.28.28.672 1.287.727 1.119 1.623.616-.112 1.232-.336 1.568.168-.168.056-.28 0-.448.28.112.504.336.224.728.168-.168.168.224 1.008.336 1.623.615-.112.783-.839 1.063-1.231-.224 1.399 1.512-.168 1.456 1.175-.224.112-.896.28-.672.728-.224 1.399 1.175-.448 1.511.448l.336-1.064c0 .784 1.12-.112.616.896.336-.28.56.728.951-.28.56 1.511 2.687.392 2.631 2.463.224-.112.56.168.672-.392-.056-.616-.504.28-.448-.112.168 0 .28-.28.336-.392.224.336.504.504-.168 1.232.504.84 1.4-1.456 2.183-.784-.168.392-.168.616.112.616l.728-.56c.56.336.056 1.064-.168 1.791.336 0 .784.112 1.064-.335l.112 1.007c-.112-.728.391-.336.615-.504l-.224.112c-.056.336.392.28.616.224.056-.448-.28-.783-.448-.951.28-.28.504-.112.84-.448-.28.672.392.672.616.839.28.28.504-.503.56-.503-.112.391.447.224.111.671-.112.112-.111-.447-.391-.168.112.336-.056.952.447.616.392-.28.28-1.455.728-.783l-.448.615.448.56.168-.672v.336c.336-.616.84.056 1.176-.672.279.056.503.616.727.672l-.056.056c.28.392.728.224 1.12-.224l-.056.168c.168.056.616 0 .896-.336.391.56-.28 2.519.391 1.736.504.056.896-1.12.784-1.568.784.504 1.847-.448 2.463.672.168-.28.112-.448.336-.56 1.175.392 2.575-.504 3.47.896-.335.224-.055.672-.055 1.063.335-.559.335.672.503-.335 0-.616.056-.896-.28-1.176.728-.224 1.792-.112 2.184.448-.224-.28-.056-.448.111-.616-.056 1.008.504 1.064.896.728l.056-.616.28.616c.168-.168.168-1.232.56-.728l.112.616c.392-.504.951-1.344 1.399-.896l.392.84c.168-.112.504-.616.112-.84.784.504 1.287.504 1.623 1.232 1.176-1.792 3.023-2.295 4.534-2.407l.056.447c.504.336.056-.783.392-.559-.056.448.504.839.224 1.399.672.336.616-.896.952-1.119-.056-.56-.224.391-.28-.336 0-.224.895.336.784-.56.223.336.223.952.223 1.343l.28-.447c.672.951-.615 1.959.056 3.134l.336-.168c.504.84-.728 1.176.224 1.344.28-.504.336-1.791-.056-2.127.728-.392-.112-2.127.728-2.239.336.447-.616.28-.28.951.56.56.672-.616 1.063-.448-.447-.223-.335-1.175-.167-1.399.503.28-.056.896.503.784-.056-.504.392-1.008-.168-1.232-.112-1.175.672.168.728-.784.392.728-.112 1.96.616 2.184-.28-.728.504-1.232-.168-2.239.28.167.504.727.448 1.231.504.336.448-1.567 1.007-.168l-.112-.784c.168.224.392.336.728.728.336-.056.672-1.287 1.008-.168.056-.168.727-.392.224-1.063-.56-.336-.28.783-.896-.224.616.783.56-.336.728-.728l.168.448c.056-.224.447-.28.335-.784 0 .28.168.56.28.616l-.112-.728c.448-.56.56 1.12 1.064.728l-.224.672c.056-.168.504.391.672.056a32.939 32.939 0 01-.28-1.96c.224-.391.392.616.504-.112l-.112.896c0 .224.671.896 1.063.728.168-.336.28-1.344-.28-1.512.224-.112.672.168.672.672.392-.392-.336-.616-.056-1.119.336.335 1.12.671 1.679 1.119v1.176l.28-.112c-.056.951.448.503.616 1.455.28.056.392-.336.504-.616-1.176-1.007-.168-2.127-.952-3.246.56-.728 1.848 2.687 1.736.391-.28-.223-.336-1.343-.672-.727.504-.112-.28-1.344.504-1.176-.168.672 1.063.952.839 1.959-.168-.391-.503-.111-.503.056.447.336.559 1.232 1.063.952.28-.28.672-.504.28-1.064-.392-.671-.392.28-.56-.503.448-.56 1.12.448.728-.896-.336.28-.784-.336-1.008-.84l.28-.503.168.503c.84-.056-.224-.895.504-1.12l.784.729c.279.84-1.176.168-.336 1.343.448-.168.28-.896.839-.784l-.168.392c.168-.056 1.232 1.512 1.344.224.112-.56-.168-.504-.448-.951.56-.56.504-1.176.84-1.512.448.952.783-.392.895.784-.559-.392-1.455.28-1.175 1.287.84.896-.616.168-.168 1.288.616-.28 1.175.727 1.623 1.399.168-.056.168-.448.168-.616-.336-.671-.504-.559-.895-1.175.727-.224 1.063-.952 1.007-1.791.392.167.728.84.504 1.063.616-.671 1.455-1.063 2.239-1.343-1.12-.672.616-.728-.28-1.344-.504 0-1.287-.504-1.399-1.063.28-.056.28.448.504.616-.112-.728 1.063.56.727-.448-.392.727.728 1.287 1.176 2.127.168-.728.392.56.839.224.168-.728.448-1.568.84-2.072 1.176.224 1.567-1.287 2.127-1.735.616.112 1.064 1.12 1.512 1.008.335-.336-1.008-.672-.168-.728l.112.224c0-.336 1.511-.28.615-1.567l.616 1.007c.168 0 .056-.28.056-.448.28.28.616.392.616.728.839.28.56-.784.895-1.12l-.671-.28c.224-.95 1.063-.839 1.455-1.623l.448.504.056-.616c.392.56 1.008.504.784-.055l.279 2.015c-.503-.056-.279-.84-.951-1.12-.56-.28-.952.392-.56.896.28-.168.168-.28.168-.616.728.616.392.896.672 1.455.056-.112.448-.112.28-.335.112.56-.056.783-.392 1.175 0-.504-.504-.28-.616-.56.56.616.392 1.12-.224 1.4-.951-.392-.448 1.287-1.175 1.511-.336-.84-.448-1.567-.336-2.071-.616-.056-.392.336-1.008.28.224.615.728 1.4.504 2.071l-.448-.448c-.224.56.336 1.288-.28 1.568-1.119.503-2.015 1.287-2.799 1.791l-.391-.448c.391 1.399-1.064 1.287-1.288 2.183-1.287.112-1.791 1.847-2.855 1.288-1.399 1.567-2.855 2.63-4.814 3.47l-.112-.951c-.056.727-.448-.336-.727-.056.671.447-.056 1.063-.056 1.679-1.12-.168-1.904 1.007-2.463 1.847l-.28-.56c-.336 1.344-1.68.784-2.743 1.008-.224-.168-.56-.672-.84-.504-.168 1.12-.504 1.176-1.063 2.071-.56.224-1.624.224-2.351.056-1.848 1.847-4.367 1.903-6.606 2.967l-.28-.672c-2.071 1.848-5.15 1.12-7.053 1.848l.112-1.232c-.672-.336-1.399.392-1.175 1.288-.672-.336-1.568.671-2.015-.336-.672-.168-.784.615-1.288.783-1.287-.336-1.791-.391-3.023-.28l.28.112c.168-.279.168-.783-.112-.895-.448.28-1.623-.504-1.231 1.007-1.232-.951-3.135.392-4.311-.895.056.392-.279.448-.447.727-1.176-.112-2.239-1.063-3.303-.447-.168-.224.392-.616-.056-.728-.28.112-.112.504-.448.728-2.071.671-3.582-1.344-5.262-1.68-3.078-.168-6.045-1.455-8.844-2.239l.112-.28c-1.4.784-1.679-1.791-3.023-.671-.112-.392-.728-.56-.336-.952-1.007.336-1.567-1.679-3.022-1.343h.335c-.671-1.12-1.959-.784-2.743-1.904.168-.056.392-.056.56-.28-.112-.727-1.567.56-1.063-.783-.224-.112-.504.504-.392.56-2.071-1.568-4.814-2.352-7.053-3.975-1.008-1.903 1.399-1.959-.448-2.071.056-.28-.392.392-.224.112-.728-.056.28-1.791-.448-1.511-.448.783-.504.224-.895.615-.56-1.175-.168-1.903-1.344-2.015l.336-.28c-1.679.28-2.183-1.063-3.974-.56-3.863-4.59-9.181-8.06-11.812-13.602-2.854-5.262-5.933-10.356-6.605-16.513.728-1.68.672-1.736-.224-3.079.224 0 .28.112.448-.056-1.008.168-.392-1.008-1.399-.952l-.952-6.493c.168.336.952.448.84 0l-.672-.392.28-.112c-.168-.28-.672-.56-1.008-.224-1.791-5.765.392-11.475.952-17.017.56-1.287.28-3.19.392-4.702 2.463-3.918 4.534-7.109 4.87-11.531-.112-.056 2.127 1.455 2.183 3.247zM239.194 92.81c-.447-.224-1.007-.112-1.231-.84l1.231.84z" fill="#000"/><path d="M226.764 97.008c.056.112-.28-.055-.336-.111.112-.113-.056-.504.224-.392-.112.112 0 .28.112.503zm-2.685 1.4c-.224-.392.112-1.008.392-1.288l-.392 1.288zm-3.248-.056c-.392-.168-.448-.392-.168-.56l.168.56zm.392.951c-.224.112-.448-.055-.672-.223.224.335.336-.448.672.224zm-5.819 1.568c-.112.112-.224.56-.56.168.28.224.392-.84.56-.168zm-2.243 1.567l-.224.112c-.224-.112-.168-.504-.056-.56l.28.448zm-48.809-.168l.391-.056-.224.392-.167-.336zm-17.916-13.098c-.392-.056.168-.448.168-.504.224.168-.448.28-.168.504zm-9.235-8.397l.112.112-.784.448.672-.56zm59.17-28.436c.168-.168.056-.784.112-.336-.056.336-.112.615-.112.336zm-29.445-12.987c1.735-1.567.727.56 1.959-.336.112-.056-.784 1.008-.504.784 1.4-1.176 1.288.056.896 1.455l-.224.28c-.056.28.728-.616.728-.448l-.392.504c.447-.56.336-.168.671-.56l-.615 1.008.503-.616c1.232-1.455.224.336 1.008-.336l-.336.392c.952-.728 1.176-.336 1.735-.448l-.615.952c.503-.672.727-.784.895-.896-.447.728.56-.56.392-.112l-.112.168c.56-.727-.168.504.448-.336l-.336.616c.728-1.007-.224.616.168.112l.112-.224c.224-.224-.112.336.056.168l-.056.112c.28-.168 0 .448.504-.392-.392.672-.336.224-.84 1.176.952-.56 1.232-.056 1.68.168l-.336.783c.168-.168.28-.056.559-.447 0 0-.223.447-.223.503-.112.336.615-.84.503-.447l-.503.783c.447-.616.503-.448.727-.616l-.336.448c.504-.671.112.224.448-.168l-.336.448c-.168.672.616-1.007.56-.56l-.336.504c.616-.84.616-.448.896-.672l-.112.224c.168-.056.168.28.504-.056-.056.224-.672 1.176-.448 1.064.56-1.008.448-.28.951-1.455 0 .224 0 .671.224.391-.224.336-.559 1.232-.727 1.288l-.224.616c-.224.392 0-.168-.28.336.056 0 .392-.336.392-.168.392-.56 1.063-1.68 1.287-1.736-.28.336-.504 1.12-.672 1.288l1.176-1.791c.056 0-.392.783-.168.56l.392-.56c-.056.111.28-.169-.168.84-.168.391-.168.167-.28.559.112.056.28-.28.336-.28l-.056.112c0 .168.392-.336.56-.896 0-.056-.28.616-.168.28.336-.56.504-.672.56-.616l-.392.672c.504-.727.727-.895 1.007-1.175.224-.448-.447.84-.336.56-.167.727.784-.784.448.28-.056.055.28-.672.224-.56.056.111-.28.783-.112.56-.168.391.112-.113.224-.169.168-.28-.056.224-.168.224.224-.28.784-.783.672-.112.112-.28.56-.951.56-.895l-.28.615c-.112.392.168 0-.056.56.392-.727-.616.504-.224-.056-.224.56.616-.951.168-.056.112 0 .448-.671.28-.056 0-.112-.448.84-.392.84l.336-.448.168-.224c.28-.615.056.112.336-.56-.224.504.279-.223-.168.784l-.336.784c.056-.056.448-.784.616-1.12l-.112.392c.503-1.231.056.168.503-.784-.056.448.224.112-.056.896.224-.336.504-.784.448-.504-.056.112-.112.112-.224.392-.112.392.056.056.168-.112-.112.168-.168.784-.28 1.232.224-.336.448-1.008.616-1.456-.392 1.232.56-.727.168.448-.112.168-.336.56-.392.896-.392 1.231.504-.84.392-.224l.448-1.064c-.168.672.392-.56 0 .504.168-.336 0 .392.392-.616-.112.896.615-.336.112 1.456.112-.168.112.056.28-.504.167-.56-.224.392-.112 0 .056 0 .168-.28.168-.448-.056.224 0 .336-.336 1.176-.112.671.727-1.68.783-1.232-.168.392-.168.56-.112.504l.336-.672c.056.224-.28.952-.504 1.68.112-.112.168-.056.392-.56l-.224.895c.168-.671.224-.392.28-.56l-.112.169c-.112.28.056.167.112.056.168-.448.112-.616.168-.784.112-.28.168-.224.336-.56-.28.672-.056.504-.056.616 0 .168.28-.616.28-.56-.112.336.056.112-.168.56-.056.112.056-.392-.056-.056-.056.28-.28.895-.056.448.168-.336.448-1.4.392-.896l-.28.672-.056.392.224-.616-.112.28c.28-.672.224-.168.504-.896.056-.056-.056.448 0 .56l-.056.056c-.056.392.112.168.28-.224l-.056.168c0 .056.112 0 .28-.392-.056.504-.728 2.407-.392 1.623.112 0 .504-1.12.616-1.567 0 .504.503-.504.335.504l.224-.56c.112.336.672-.616.448.728l-.28 1.007c.224-.56-.112.616.168-.392.168-.56.28-.84.28-1.12.224-.279.392-.223.336.337l.224-.616c-.28.952-.224 1.12-.056.784l.168-.56-.112.616c.056-.168.336-1.176.28-.616l-.168.616c.168-.448.504-1.176.448-.672l-.168.84c.056-.056.224-.56.28-.84 0 .56.056.616-.112 1.343.671-1.679 1.063-1.679 1.287-1.511l-.112.448c0 .392.224-.728.224-.448l-.336 1.4c0 .447.336-.728.448-.896.168-.56-.168.336.056-.336.056-.168.056.448.28-.392l-.336 1.288.168-.392c-.168 1.007-.616 1.735-.84 2.967l.112-.112c-.168.895-.392.951-.336 1.287.168-.392.504-1.623.56-2.015.168-.224.56-2.015.672-1.903-.056.503-.168.112-.28.783-.112.728.224-.336.224-.112 0-.336.28-1.175.336-1.343 0 .392-.224.784-.168.896l.336-1.176c.28-1.12.056.336.28-.504-.168.784-.56 1.791-.504 2.183.168-.783.392-1.007.56-2.127 0 .224-.112.84-.28 1.288-.056.504.503-1.344.168.168l.223-.784c-.055.28-.055.448-.111.896.056 0 .447-1.008.167.167.056-.111.168-.056.28-.84.056-.503-.224.56 0-.503-.168.896.168-.112.28-.392l-.112.448c.056-.168.112-.056.224-.56l-.112.672.168-.672c.168-.336-.224 1.232-.112 1.064l-.224.504c.056-.112-.056.56.056.336.168-.616.336-1.4.504-1.848.112-.28-.112.728.056.056l-.224.728c-.056.224-.168 1.064-.112 1.064.112-.224.392-1.12.392-1.456.056 0 0 .392-.112.84.168-.224.112-.672.28-1.064-.056.448-.112 1.064-.168 1.68l-.336 1.063h.056c-.224.84-.112.672-.336 1.511 0 .168.112-.168.224-.391.168-1.456.56-1.904.784-3.247.224-.336-.56 3.19 0 1.175.056-.335.336-1.343.168-.951.056.168.336-1.288.336-.728-.168.504-.168 1.344-.448 2.071.112-.447 0-.336-.056-.224-.056.504-.28 1.288-.168 1.344.112-.112.168-.112.28-.784.168-.727-.112.056.112-.672.168-.224-.056.896.28-.391-.112.111.056-.672.168-1.176l.168-.28-.112.504c.056.392.223-.896.335-.728l-.112 1.008c-.223.84-.111-.392-.391.952.056.055.224-.616.28-.224l-.112.28c0 .055-.28 1.903.056.84.167-.393.112-.505.223-1.009.168-.111.336-.671.392-.727-.224 1.007.168.112-.168 1.12.056-.616-.168-.56-.391.391-.168 1.176-.056-.168-.336 1.008.112.056-.112 1.231-.28 2.015 0 .056.112-.28.168-.392.168-.728.112-.728.28-1.455.112.224.279-.168.503-.84-.056.392-.168 1.064-.224 1.12.224-.168.336-.056.448.224.112-1.176.224-.224.336-1.232-.056-.28.056-1.12.224-1.68.056.057-.112.505-.112.784.168-.615-.112 1.064.168.056-.224.336-.28 1.456-.504 2.351.168-.503-.112.672 0 .672.168-.504.392-.896.56-1.063 0 .895.336.111.504.056 0 .503-.224 1.51-.168 1.735.112 0 .112-1.12.168-.616l-.056.224c.056-.224.112.784.392-.728l-.224 1.12c0 .112.056-.168.112-.28l-.168.952c-.056.783.168-.112.28-.112l.056-.672c.224-.504.224.168.392 0l-.112.672.167-.392c-.111.615-.111 1.063.056.56l-.503 1.567c0-.392.168-.784.28-1.456.056-.56-.112-.447-.224.224.056.056.056-.056.112-.28-.112.896-.168.896-.336 1.456.056-.056.056.28.056-.056-.112.448-.168.504-.28.504l.112-.84c-.112.784-.28 1.064-.336.784.056-.952-.28.56-.392.28.168-.784.336-1.456.504-1.736 0-.447-.112 0-.112-.447-.112.615-.336 1.51-.504 1.903l.112-.616c-.168.28-.28 1.175-.392 1.008-.168-.336-.392-.392-.504-.504l.112-.616c-.335 1.287-.391.392-.615.952-.112-.616-.56.504-.448-.56-.448.392-.84.784-1.176.504l.224-.84c-.168.616.056-.504-.056-.392-.056.728-.28.896-.448 1.4 0-.728-.391 0-.671.56l.112-.616c-.392 1.063-.336.056-.504-.168.056-.28.112-.84.056-.784-.336.952-.336.84-.616 1.455-.112 0-.224-.28-.28-.671-.727 1.287-.951.336-1.567 1.063l.168-.727c-.784 1.399-.952 0-1.512.615l.336-1.175c0-.392-.336.224-.504 1.063 0-.392-.447.504-.223-.503-.056-.28-.28.503-.448.615-.112-.504-.224-.447-.504-.28l.056.112c.112-.28.224-.727.224-.84-.168.28-.168-.391-.56 1.008 0-.895-.728.504-.616-.671-.112.391-.168.447-.28.671-.223-.056-.168-.895-.559-.28.056-.224.28-.615.168-.727l-.28.672c-.56.615-.392-.952-.784-.84-.784.56-1.176 0-1.735-.056l.112-.28c-.56 1.007 0-1.232-.728.336.056-.28-.112-.168.112-.672-.392.672-.112-.84-.672.056l.112-.112c.056-.672-.448.112-.448-.504l.28-.448c.112-.56-.672 1.064-.168-.223-.056 0-.28.671-.28.615-.224-.615-1.007-.056-1.623 0 0-.951.952-2.183.28-1.343.112-.28-.224.504-.112.224-.28.336.504-1.512.112-.896-.336.784-.28.448-.448.896.056-.616.336-1.344-.112-.84l.224-.392c-.728 1.064-.616.336-1.399 1.624-1.12-.28-2.463 0-3.527-.392-.84-.784-2.183-.616-2.687-1.96.448-1.175.392-1.119-.112-.895l.224-.336c-.56.84-.224-.056-.728.728-.223-.392-.671-.392-1.007-.616.112-.056.56-.728.504-.672l-.392.504.112-.224c-.112.112-.448.448-.56.784-1.343.056-1.064-2.127-2.015-2.52.056-.447-.448-.39-.784-.39.168-1.512.28-2.744-.951-2.464-.28-.112 1.455-2.015 2.071-2.295z" fill="#000"/><path d="M196.199 52.395c.056-.504 0-.784.168-1.4l-.168 1.4zm-1.342-5.43v-.28c.056-.056.112-.448.112-.168l-.112.448zm-.445-.392c.056-.448.28-.728.336-.784l-.336.784zm-.172-1.903c.056-.392.056-.56.112-.56l-.112.56zm-.221 1.007c-.056 0 0-.28 0-.504-.056.336.168-.223 0 .504zm-.784-1.455c-.056.056-.168.392-.056-.112-.112.336.224-.504.056.112zm-.616.56c-.056-.168.056-.504.112-.56l-.112.56zm-9.18-.84l.112-.168-.168.392.056-.224zm-3.638-1.623c-.168.224.168-.392.168-.448.056 0-.28.504-.168.448zm-2.968.951h.056l-.448.784.392-.784zm-52.563 86.933c.223.168.783-.168.335.112-.391 0-.615 0-.335-.112zm13.211-44.223c1.567 1.848-.728 1.064.112 2.408.056.112-1.008-.728-.84-.448 1.12 1.511-.224 1.68-1.791 1.511l-.28-.223c-.28 0 .616.727.392.783l-.56-.392c.56.392.112.392.56.728l-1.064-.504.616.504c1.511 1.232-.448.392.28 1.175l-.448-.28c.728 1.008.224 1.456.28 2.128l-.952-.56c.728.448.84.672.896.896-.784-.392.616.615.112.56l-.168-.113c.728.56-.56-.056.392.56l-.616-.28c1.064.616-.616-.168-.112.28l.224.112c.224.224-.336 0-.224.168l-.112-.056c.168.336-.504.168.392.56-.728-.28-.224-.336-1.287-.784.559 1.12.112 1.68-.224 2.351l-.84-.224c.168.168.056.336.448.616 0-.056-.448-.168-.504-.168-.392-.056.896.56.448.504l-.784-.448c.616.448.448.504.616.784l-.504-.28c.728.504-.28.168.168.56l-.504-.28c-.727-.056 1.008.56.56.56l-.56-.28c.84.56.392.727.672 1.007l-.224-.112c.056.224-.336.28-.056.672-.28 0-1.231-.56-1.119-.28 1.007.448.279.504 1.455.896-.224.112-.728.168-.448.448-.336-.224-1.287-.448-1.343-.616l-.672-.168c-.392-.168.168-.056-.336-.224 0 .112.336.448.112.448.56.392 1.679.951 1.735 1.231-.335-.28-1.175-.391-1.343-.559l1.903 1.063c.056.112-.84-.28-.56-.112l.672.336c-.112 0 .168.392-.84.056-.391-.112-.168-.224-.559-.28 0 .112.336.28.28.392l-.112-.056c-.168.056.335.392.951.56.056-.056-.616-.224-.28-.168.56.28.728.504.672.616l-.728-.336c.784.448.952.727 1.232 1.063.504.168-.896-.392-.616-.336-.784 0 .84.84-.224.728-.056-.056.728.224.56.168-.112.112-.784-.168-.56 0-.392-.112.112.168.224.28.28.168-.224-.056-.224-.112.336.224.84.896.168.952.28.112 1.008.503.952.559l-.616-.223c-.392-.056 0 .223-.56.055.784.392-.56-.727.056-.335-.56-.112.952.559.112.224 0 .111.672.447.056.391.112 0-.896-.391-.84-.28l.504.336.224.168c.616.224-.112.112.616.28-.56-.168.28.336-.784 0l-.839-.28c.056.112.839.392 1.175.56l-.392-.112c1.288.392-.168.168.784.504-.504 0-.168.392-.952.224.336.224.784.448.448.504-.112-.056-.112-.112-.392-.168-.392 0-.056.112.112.224-.168-.056-.783-.056-1.287-.056.336.224 1.063.391 1.455.503-1.287-.224.728.56-.448.392-.168-.112-.559-.336-.951-.336-1.288-.224.895.448.224.448l1.063.224c-.671-.112.56.392-.504.112.336.168-.391.112.616.336-.951.056.336.784-1.567.504.168.056-.056.168.504.224.615.056-.392-.168 0-.112 0 .056.279.112.447.168-.279.056-.335.056-1.175-.224-.728.056 1.735.615 1.231.783-.447-.112-.615-.112-.559-.056l.727.28c-.224.112-1.007-.112-1.735-.28.112.112.056.224.56.392l-.952-.112c.672.056.448.168.616.224l-.168-.056c-.336-.056-.168.112-.056.168.448.056.672 0 .84 0 .28.112.224.168.559.28-.727-.168-.559.056-.671.056-.168.056.616.224.616.224-.392-.056-.112.112-.616-.056-.112-.056.392 0 .056-.112-.28 0-.952-.168-.504.056.336.168 1.399.28.952.336l-.728-.224-.392.056.672.112-.336-.056c.672.168.168.28.951.448.056.056-.503.056-.559.112h-.056c-.392 0-.168.168.28.336l-.168-.056c-.056.055.056.167.392.279-.504.056-2.519-.391-1.68-.112 0 .112 1.176.392 1.624.448-.448.112.615.56-.448.616l.56.168c-.28.28.727.784-.616.84l-1.064-.168c.616.168-.616 0 .392.168.616.056.896.112 1.12.056.279.223.279.503-.28.559l.615.112c-.951-.168-1.119 0-.783.112l.56.112h-.616c.168.056 1.231.224.672.224l-.616-.056c.448.168 1.287.448.783.504h-.839c.056.056.616.224.839.168-.559.112-.615.28-1.343.224 1.735.56 1.791 1.063 1.623 1.455l-.447-.056c-.448.056.783.112.447.168l-1.455-.112c-.448.112.728.28.952.392.559.056-.336-.112.391-.056.224.056-.447.168.392.28l-1.343-.112.392.112c-1.064.056-1.792-.392-3.079-.392l.112.112c-.896 0-1.008-.336-1.344-.112.448.112 1.68.336 2.072.28.223.224 2.071.28 1.959.448-.504 0-.112-.168-.84-.168-.728.056.392.224.112.28.336-.056 1.232.056 1.343.168-.391.056-.839-.112-.951 0 .504.056.84.224 1.231.112 1.12.112-.336.112.56.28-.784 0-1.847-.28-2.239-.168.784.056 1.008.279 2.183.279-.224.056-.84 0-1.287-.055-.504.055 1.399.335-.168.279l.783.056c-.279 0-.447.056-.895.056 0 .056 1.063.336-.168.28.112.056.056.224.895.168.504-.112-.615-.168.504-.168-.895.056.112.168.392.28h-.448c.168.056.056.112.56.168h-.672l.728.056c.336.168-1.231 0-1.064.168l-.559-.168c.112.056-.56.056-.336.168.616.056 1.399.168 1.903.168.28.112-.728 0-.056.112l-.784-.168c-.223 0-1.063.056-1.063.168.224.112 1.119.224 1.511.112 0 .056-.392.112-.839.056.223.168.727 0 1.063.112-.448.056-1.063.168-1.679.224l-1.064-.168v.056c-.839-.112-.671.056-1.567-.056-.168.056.168.112.392.168 1.455-.112 1.959.224 3.302.224.336.223-3.246.056-1.175.335.336-.056 1.343.112.951-.056-.167.112 1.344.112.784.28-.56-.112-1.343.112-2.127-.056.448 0 .336-.112.224-.112-.504.056-1.344-.056-1.344.112.112.112.112.224.84.224.784 0-.056-.112.672-.056.28.168-.896.168.448.28-.112-.112.671-.112 1.231-.112l.28.112-.504-.056c-.392.168.896.056.728.28l-1.008.056c-.839-.056.392-.28-1.007-.28-.056.112.616.168.28.28l-.28-.112c-.056.056-1.903.112-.84.28.448.112.504 0 1.008.056.168.224.727.28.783.392-1.007 0-.112.224-1.175.112.616-.056.504-.392-.448-.448-1.231.056.168-.168-1.063-.224-.056.168-1.232.168-2.016.168-.056.056.28.112.392.112.728 0 .728-.056 1.512-.056-.168.168.223.392.951.448-.336.056-1.063.056-1.175 0 .224.224.112.448-.056.671 1.175-.167.28.224 1.287.112.28-.112 1.12-.223 1.679-.168-.056.056-.503.001-.783.056.671.056-1.064.168 0 .224-.392-.168-1.456 0-2.407 0 .56.168-.672 0-.672.168.504.112.952.28 1.176.448-.896.224 0 .504.056.728-.504.112-1.512.112-1.736.224 0 .112 1.12-.168.672.056h-.224c.28.056-.728.392.84.336h-1.176c-.112.056.168.056.28.056l-.952.056c-.783.167.112.223.168.391l.672-.112c.56.168-.112.392.112.56l-.672.056.392.112c-.616 0-1.063.168-.504.168l-1.623-.224c.392-.112.784.056 1.455-.056.56-.112.392-.28-.279-.28-.056.056.056.056.335.112-.951.112-.895-.056-1.511-.056.056.056-.224.112.056.112-.448-.056-.504-.112-.56-.28l.84-.056c-.784.056-1.064-.056-.84-.224.952-.167-.615-.279-.392-.503.84.056 1.512.112 1.848.168.392-.168-.056-.112.392-.28-.616 0-1.568 0-1.96-.168l.616-.056c-.336-.112-1.231-.056-1.064-.28.28-.336.28-.616.336-.896l.616-.056c-1.287-.112-.504-.392-1.063-.559.559-.28-.616-.672.447-.784-.503-.504-.895-1.008-.615-1.512l.895.112c-.616-.112.504-.056.392-.168-.728.112-.896-.167-1.455-.223.727-.224 0-.56-.616-.784h.616c-1.12-.28-.112-.504.112-.728.28 0 .839-.056.783-.112-.951-.168-.895-.28-1.511-.504 0-.167.28-.391.672-.559-1.344-.672-.392-1.232-1.176-1.96h.728c-1.456-.727 0-1.399-.728-1.959l1.232.168c.391-.112-.28-.392-1.176-.448.392-.112-.56-.503.448-.447.224-.112-.56-.28-.672-.448.504-.28.392-.392.224-.784l-.112.056c.28.056.784.168.84.056-.336-.168.392-.392-1.064-.504.84-.224-.616-.895.56-1.063-.392-.056-.448-.112-.728-.224 0-.28.84-.504.224-.84.224 0 .672.224.728.056l-.728-.224c-.727-.616.896-.84.84-1.287-.56-.896.056-1.624.168-2.407l.28.056c-1.008-.504 1.287-.28-.336-.896.28 0 .168-.168.728 0-.728-.392.895-.336 0-.896l.111.112c.728-.112-.055-.615.56-.727.112.056.168.168.448.224.56.056-1.119-.616.28-.28 0-.056-.672-.224-.616-.168.728-.504.056-1.456-.056-2.239.952-.224 2.295.727 1.4 0 .28.056-.504-.168-.224-.112-.336-.28 1.567.28.895-.056-.839-.224-.447-.224-.951-.392.616-.112 1.399.056.839-.392l.448.168c-1.119-.672-.392-.784-1.735-1.511.112-1.624-.112-3.36.504-4.87.895-1.288.951-2.967 2.351-4.03 1.231.223 1.231.167.951-.393l.336.224c-.839-.504.056-.28-.783-.783.447-.448.391-1.064.727-1.568.056.112.728.56.728.448l-.504-.392.224.112c-.112-.112-.448-.448-.784-.56.112-1.735 2.575-1.959 3.191-3.302.56-.056.504-.672.56-1.12 1.679-.224 3.079-.392 2.967-1.847-.168.448 1.735 2.071 2.015 2.799zm-13.321 44.055c.504-.056.784-.224 1.4-.168l-1.4.168z" fill="#000"/><path d="M129.085 126.564c-.168 0 .168-.056.28-.056.056.056.448.056.224.112-.056-.056-.28 0-.504-.056zm.282-.783c.448 0 .784.168.84.28l-.84-.28zm1.791-.672c.392-.056.56-.056.56.056l-.56-.056zm-1.01-.056c0-.056.28-.112.504-.112-.392 0 .224.112-.504.112zm1.4-1.511c-.056-.056-.392-.112.112-.168-.336.056.56.224-.112.168zm-.56-.728v-.056c.224-.056.504 0 .56.056h-.56zm.224-13.211l.168.168-.392-.168h.224zm1.565-5.597c-.224-.168.392.111.448.111.056.056-.448-.223-.448-.111zm-.894-3.807v.056l-.783-.392.783.336zm68.238 51.555c.056.28.672.392.224.28-.28-.224-.504-.392-.224-.28zm11.921-42.599c2.295.336 0 1.288 1.512 1.736.112.056-1.232.056-.952.224 1.791.447.784 1.511-.56 2.239l-.336-.056c-.223.168.952.28.784.392h-.672c.728 0 .336.224.84.28l-1.175.167.839.056c1.959.224-.112.56.896.84h-.504c1.176.504 1.008 1.12 1.455 1.735l-1.119-.056c.84.056 1.063.224 1.231.392-.839.056.784.28.28.448h-.168c.896.168-.559.168.56.336l-.672.056c1.232.112-.671.168-.056.28h.28c.28.112-.336.168-.112.224h-.112c.28.224-.391.336.56.392-.784.055-.336-.224-1.455-.168.895.783.671 1.511.615 2.295l-.895.056c.168.112.168.28.616.391 0 0-.504 0-.56.056-.392.112 1.063.224.616.336l-.896-.168c.728.224.616.336.84.504-.168-.056-.224-.112-.56-.112.839.28-.224.28.336.448l-.56-.112c-.672.168 1.175.224.728.336l-.616-.112c1.007.28.616.56.951.784l-.223-.056c.112.224-.224.392.168.671-.28.056-1.344-.223-1.176 0 1.12.168.448.448 1.679.504-.168.168-.615.392-.28.56-.391-.168-1.343-.112-1.455-.28h-.672c-.448-.112.168-.112-.392-.168.056.056.448.336.28.392.672.224 1.904.56 2.016.84-.392-.168-1.232-.168-1.4-.224l2.071.671c.056.056-.895-.111-.616 0l.672.224c-.112 0 .168.336-.895.224-.448-.056-.168-.168-.616-.168 0 .168.336.224.336.336h-.168c-.168.056.392.336 1.007.392.056-.056-.671-.112-.336-.112.616.168.728.392.728.504l-.783-.224c.783.336 1.007.616 1.287.896.504.112-.896-.28-.616-.224-.783.112.84.783-.224.783-.056-.056.728.112.56.112-.112.112-.84-.056-.56.112-.447-.112.112.112.224.28.28.112-.224 0-.224-.112.336.224.896.84.168.952.28.056 1.008.392.952.504l-.672-.168c-.392-.056 0 .224-.56.112.784.336-.559-.672.056-.336-.559-.056 1.008.504.112.28 0 .112.728.448.056.392.112 0-.895-.336-.895-.224l.503.335.28.168c.616.168-.112.168.616.28-.56-.112.28.336-.784.056l-.839-.224c.056.112.839.336 1.231.504l-.392-.056c1.288.336-.168.168.84.504-.504.056-.168.392-1.008.28.336.224.784.504.504.56-.112-.056-.168-.112-.392-.224-.391 0-.056.112.112.224-.168-.056-.783-.056-1.287-.056.336.224 1.063.392 1.455.503-1.287-.223.728.616-.448.392-.167-.112-.559-.392-.951-.336-1.288-.279.896.504.224.504l1.063.28c-.671-.112.56.448-.503.112.335.168-.392.112.615.392-.951.056.336.952-1.567.504.168.112-.056.168.504.28.56.112-.392-.224 0-.112 0 .056.28.168.448.168-.28 0-.336.056-1.176-.28-.672 0 1.679.783 1.176.951-.392-.168-.56-.168-.56-.056l.672.392c-.224.112-1.008-.224-1.68-.448.112.112.056.224.56.448l-.896-.168c.672.112.392.224.56.336l-.168-.112c-.28-.112-.168.056-.056.168.448.112.672.112.784.056.28.168.224.224.56.392-.672-.28-.56 0-.616.056-.168.056.616.336.56.336-.336-.112-.112.112-.56-.112-.112-.056.392.056.056-.112-.28-.056-.896-.28-.504 0 .336.224 1.399.448.896.504l-.672-.336-.392.056.616.224-.28-.112c.672.28.112.336.896.615.056.112-.504 0-.616.056l-.056-.056c-.392-.056-.224.168.168.392l-.112-.056c-.056.056 0 .168.336.392-.56-.056-2.407-.84-1.68-.448-.056.112 1.064.616 1.456.728-.504.056.392.728-.672.504l.504.28c-.392.224.392 1.007-.952.727l-.951-.391c.503.279-.616-.168.336.279.559.224.839.336 1.119.336.224.336.056.616-.504.504l.56.28c-.896-.392-1.063-.336-.84-.056l.504.224-.56-.168c.168.112 1.12.56.56.448l-.616-.224c.392.28 1.064.784.56.728l-.839-.28c.056.112.503.392.783.392-.56 0-.671.112-1.399-.168 1.455 1.119 1.287 1.679.951 2.015l-.391-.224c-.448-.056.671.392.335.336l-1.287-.616c-.504-.056.616.56.728.728.503.28-.28-.224.336.112.167.112-.504 0 .279.447l-1.175-.615.336.28c-.952-.336-1.512-1.064-2.687-1.512l.112.168c-.84-.336-.84-.672-1.232-.616.336.28 1.456.952 1.848 1.008.112.28 1.847 1.008 1.679 1.176-.504-.168-.056-.224-.672-.504-.672-.224.28.392 0 .336.336.056 1.064.503 1.176.671-.392-.056-.728-.447-.84-.336.448.28.728.56 1.064.616 1.007.56-.392 0 .391.504-.727-.336-1.567-1.008-2.015-1.008.728.336.84.672 1.903 1.12-.223-.056-.783-.336-1.175-.56-.448-.112 1.12.896-.224.224l.672.392c-.224-.112-.448-.112-.84-.28-.056.056.84.784-.224.224.112.056-.056.28.728.56.504.112-.448-.448.56.056-.84-.336 0 .224.28.448l-.392-.224c.112.112 0 .168.448.447l-.616-.335.616.391c.223.336-1.12-.559-1.008-.279l-.448-.392c.112.056-.504-.168-.392 0l1.624 1.007c.224.224-.672-.28-.112.112l-.616-.504c-.168-.112-.952-.447-1.008-.279.168.167.896.783 1.288.783 0 .056-.392-.056-.784-.336.112.28.616.336.896.616-.392-.168-1.008-.28-1.624-.504l-.895-.671-.056.056c-.672-.504-.616-.28-1.344-.784-.168 0 .112.224.28.392 1.344.56 1.624 1.175 2.799 1.791.224.392-2.855-1.455-1.175-.168.335.112 1.119.728.895.392-.168.056 1.12.784.56.672-.392-.392-1.231-.56-1.847-1.12.392.224.336.056.224 0-.448-.224-1.176-.672-1.232-.56.056.168.056.28.616.616.672.392 0-.168.616.28.168.336-.84-.224.28.504-.056-.168.671.224 1.119.448l.224.279-.448-.279c-.392.056.784.503.56.671l-.896-.392c-.727-.503.504-.111-.727-.783-.112.112.503.504.112.448l-.168-.224c-.056 0-1.68-.896-.84-.112.336.28.392.28.84.559 0 .28.447.616.391.784-.839-.56-.223.168-1.007-.504.56.224.672-.056-.112-.671-1.064-.56.224-.056-.784-.728-.112.168-1.119-.504-1.791-.84-.056 0 .168.224.28.336.616.392.672.336 1.287.728-.28.056-.056.448.504.895-.336-.111-.951-.503-.951-.615.056.336-.168.504-.504.56 1.119.503.112.391 1.007.839.28.056 1.064.392 1.512.728-.112.056-.448-.28-.672-.392.504.448-.952-.448-.168.224-.224-.392-1.231-.84-1.959-1.344.336.392-.56-.335-.672-.223.336.391.616.783.672 1.063-.896-.28-.336.448-.392.672-.448-.168-1.287-.84-1.511-.84-.056.112 1.007.56.503.448l-.167-.112c.167.168-.784-.112.447.784l-.951-.672c-.112-.056.112.168.168.224l-.784-.56c-.728-.336-.056.28-.056.392l.616.336c.336.504-.336.224-.224.56l-.56-.392.28.336c-.504-.392-.896-.56-.504-.168l-1.175-1.232c.391.168.615.56 1.175.896.504.28.448 0-.056-.392-.112 0 0 .112.168.28-.784-.504-.672-.56-1.175-.952 0 .056-.224-.056 0 .112-.336-.336-.336-.448-.28-.56.28.28.503.28.727.448-.671-.447-.839-.727-.559-.727.839.447-.336-.56-.056-.56.671.504 1.175.951 1.399 1.231.392.112.056-.112.448 0-.504-.392-1.232-.951-1.456-1.287l.504.336c-.168-.28-.951-.784-.727-.84.391-.056.559-.336.783-.448l.504.336c-1.008-.784-.168-.616-.56-1.063.672.056-.168-.84.84-.392-.112-.616-.336-1.288.056-1.624l.728.504c-.504-.392.447.224.391.056-.671-.28-.727-.56-1.175-.895.672.111.168-.504-.28-1.008l.56.28c-.896-.728.056-.448.336-.616.224.112.783.336.727.224-.783-.616-.727-.616-1.175-1.12.056-.112.392-.223.784-.168-1.008-1.119.056-1.231-.448-2.071l.671.28c-1.119-1.175.392-1.175-.111-1.903l1.063.56c.392 0-.168-.448-.952-.728.392 0-.391-.56.56-.224.28-.056-.448-.392-.56-.56.56-.056.504-.224.392-.559l-.112.056c.224.112.728.335.84.279-.28-.223.448-.223-.952-.671.896.056-.335-.896.84-.728-.392-.112-.392-.224-.672-.336.112-.224.952-.168.448-.616.224.056.616.28.672.224l-.672-.336c-.504-.615 1.064-.503.952-.951-.56-.896 0-1.456.056-2.127l.28.112c-1.008-.56 1.231-.168-.336-.84.28.056.168-.168.727.056-.727-.392.84-.28-.056-.784l.112.112c.672-.056-.112-.504.56-.615.112.056.168.111.448.223.56.056-1.12-.559.224-.223 0-.056-.672-.224-.616-.168.672-.448-.056-1.288-.168-1.96.952-.224 2.351.504 1.4-.056.28.056-.504-.168-.224-.056-.336-.223 1.623.168.895-.112-.839-.167-.447-.167-.951-.279.616-.112 1.399 0 .839-.392l.448.112c-1.175-.504-.448-.672-1.847-1.176.168-1.343-.448-2.743-.56-4.086.392-1.232-.168-2.575.784-3.807 1.231-.223 1.175-.279.728-.615l.447.056c-1.007-.056-.056-.224-1.007-.336.224-.504.056-.952 0-1.4.112.056.895.168.84.056l-.616-.112h.28c-.168-.056-.616-.168-.952-.112-.896-1.231 1.008-2.463.728-3.694.392-.336 0-.728-.224-1.008 1.287-1.007 2.295-2.015 1.343-2.91-.671-.056 1.848-.224 2.463.167zm-11.864 42.375c.448.28.727.336 1.175.784l-1.175-.784z" fill="#000"/><path d="M206.165 151.642c-.112-.056.224.056.28.112 0 .056.336.336.112.224l-.392-.336zm.73-.616c.335.224.559.56.559.728l-.559-.728zm1.957.28c.335.168.503.224.447.336l-.447-.336zm-.84-.56c0-.056.28.056.504.112-.336-.168.167.28-.504-.112zm1.904-.951c0-.056-.279-.336.168-.112-.335-.112.392.448-.168.112zm-.225-1.064v-.056c.224.056.448.28.448.336l-.448-.28zm4.086-14.442l.224.112-.448-.112h.224zm1.627-6.269c-.28-.112.391 0 .503 0 0 .112-.503-.112-.503 0zm-1.568-3.751v.056l-.84-.168.84.112z" fill="#000"/><path d="M32.13 178.231c-1.622-1.903-3.582-3.246-5.933-4.03-2.35-.784-5.541-1.176-9.572-1.176H0v1.176h1.68c1.735 0 3.022.448 3.862 1.399.615.672.895 2.351.895 5.094v27.933c0 2.463-.224 4.03-.671 4.702-.84 1.175-2.183 1.791-4.143 1.791H0v1.176h19.48v-1.176h-1.735c-1.68 0-2.967-.448-3.807-1.399-.615-.672-.951-2.351-.951-5.094v-12.595c1.455.28 2.799.504 4.086.672a27.08 27.08 0 003.527.224c4.422 0 7.892-1.12 10.3-3.303 2.406-2.239 3.638-5.094 3.638-8.621 0-2.63-.784-4.87-2.407-6.773zm-7.78 14.05c-1.68 1.736-3.638 2.575-5.934 2.575-.615 0-1.399-.056-2.295-.168a49.748 49.748 0 01-3.134-.503V176.16c1.735-.392 3.19-.616 4.31-.616 1.847 0 3.526.392 4.982 1.176 1.455.784 2.575 2.015 3.358 3.638a11.823 11.823 0 011.176 5.206c.056 2.799-.784 4.982-2.463 6.717zm54.016 20.264c-.28.168-.616.224-.951.224-.336 0-.616-.112-.896-.336-.28-.224-.448-.615-.56-1.231-.112-.616-.168-2.351-.168-5.094V196.2c0-2.799-.224-4.702-.615-5.598-.616-1.399-1.624-2.407-2.911-3.079-1.736-.839-3.975-1.287-6.718-1.287-3.526 0-6.325.784-8.284 2.295-1.96 1.567-2.967 3.247-2.967 5.094 0 .952.28 1.735.784 2.295.504.56 1.231.84 2.07.84.84 0 1.568-.28 2.072-.784.56-.504.784-1.287.784-2.239l-.056-1.847c0-.952.392-1.736 1.287-2.463.84-.728 1.96-1.064 3.359-1.064 1.847 0 3.246.56 4.254 1.623.952 1.064 1.456 3.079 1.456 5.99v1.176c-5.262 1.847-9.069 3.358-11.308 4.646-2.295 1.287-3.862 2.631-4.758 4.086-.672 1.064-1.008 2.239-1.008 3.694 0 2.24.672 4.031 2.072 5.43 1.399 1.4 3.134 2.071 5.261 2.071 1.344 0 2.631-.279 3.863-.783.784-.336 2.799-1.68 5.933-4.031 0 1.736.336 2.967 1.008 3.639.672.728 1.511 1.063 2.631 1.063 2.295 0 4.702-1.623 7.221-4.814v-1.791c-1.455 1.12-2.407 1.903-2.855 2.183zm-8.06-2.519c-2.8 2.071-5.038 3.135-6.718 3.135-1.231 0-2.35-.504-3.358-1.511-.952-1.008-1.456-2.239-1.456-3.751 0-1.175.392-2.295 1.12-3.302.783-1.008 2.015-1.96 3.806-2.855 1.008-.504 3.19-1.4 6.55-2.687v10.971h.055zm43.329-22.95v1.175c2.071.056 3.414.336 4.03.952.672.56.952 1.735.952 3.358v16.57c-1.68 1.623-3.135 2.743-4.311 3.302-1.231.56-2.295.84-3.246.84-1.4 0-2.631-.448-3.583-1.288-1.008-.839-1.511-2.63-1.511-5.373V187.02H95.162v1.175c1.623 0 2.743.112 3.359.392.615.28 1.063.672 1.4 1.176.335.503.503 1.455.503 2.742v13.155c0 2.743.224 4.87.728 6.381a7.638 7.638 0 002.631 3.695c1.287.952 2.742 1.455 4.478 1.455a9.542 9.542 0 004.422-1.063c1.399-.672 3.415-2.407 6.046-5.094v6.157h1.511l9.236-3.526-.448-1.176c-.895.392-1.679.56-2.351.56-.504 0-.951-.168-1.287-.448-.392-.28-.616-.839-.84-1.567-.168-.728-.28-2.799-.28-6.102v-17.8h-10.635v-.056zm40.804-16.122l-9.236 3.527.56 1.175c.896-.336 1.623-.503 2.239-.503.56 0 1.008.167 1.343.391.336.28.616.784.784 1.568.168.783.224 2.799.224 6.101v26.477c0 1.792-.168 3.023-.448 3.639-.28.616-.672 1.064-1.231 1.343-.504.28-1.456.392-2.855.392v1.176h15.17v-1.176c-1.624 0-2.687-.168-3.303-.448a2.726 2.726 0 01-1.287-1.343c-.28-.616-.448-1.791-.448-3.583v-38.736h-1.512zm42.376 15.226c-.28.504-.504.84-.672.952-.223.168-.503.224-.839.224-.392 0-1.12-.168-2.295-.448-1.736-.504-3.191-.728-4.367-.728-2.742 0-4.981.784-6.661 2.407-1.735 1.623-2.575 3.639-2.575 6.046 0 1.847.504 3.358 1.512 4.59 1.007 1.231 3.134 2.631 6.381 4.142 3.247 1.511 5.374 2.799 6.437 3.807 1.064 1.007 1.624 2.239 1.624 3.694 0 1.232-.504 2.239-1.456 3.135-.951.839-2.239 1.287-3.75 1.287-2.183 0-4.142-.783-5.878-2.295-1.735-1.511-2.911-3.75-3.582-6.773h-1.176v10.412h1.176c.28-.448.671-.672 1.231-.672.448 0 1.064.112 1.791.28 2.408.616 4.535.895 6.438.895 2.631 0 4.982-.839 7.053-2.463 2.127-1.623 3.191-3.75 3.191-6.437 0-3.47-2.295-6.213-6.83-8.341l-4.87-2.295c-2.127-.951-3.526-1.903-4.198-2.798-.672-.84-1.007-1.848-1.007-3.079 0-.952.503-1.847 1.399-2.631.952-.784 2.183-1.176 3.75-1.176 2.016 0 3.695.56 4.982 1.68 1.288 1.119 2.407 3.246 3.247 6.381h1.176v-9.964h-1.232v.168zm43.495 24.126c-1.512 1.064-3.247 1.568-5.262 1.568-3.023 0-5.654-1.232-7.893-3.639-2.239-2.463-3.359-5.822-3.359-10.132h21.384c0-3.638-1.12-6.493-3.303-8.676-2.239-2.183-5.038-3.247-8.508-3.247-4.087 0-7.501 1.4-10.188 4.198-2.687 2.799-4.031 6.718-4.031 11.7 0 4.59 1.288 8.284 3.975 11.027 2.631 2.743 5.821 4.086 9.516 4.086 3.414 0 6.213-1.175 8.508-3.582 2.295-2.407 3.639-5.094 4.087-8.061l-1.176-.672c-1.007 2.575-2.239 4.423-3.75 5.43zm-13.883-19.816c1.456-1.343 3.135-2.071 5.038-2.071 1.232 0 2.407.336 3.527 1.008 1.119.672 1.959 1.623 2.519 2.799.336.783.616 2.071.728 3.974h-14.387c.224-2.407 1.064-4.31 2.575-5.71zm45.566-4.31h-1.455l-9.349 3.527.504 1.175c.896-.336 1.624-.504 2.295-.504.56 0 1.064.112 1.4.392.336.28.615.784.783 1.568.168.783.28 2.91.28 6.381v10.915c0 2.128-.28 3.527-.783 4.311-.56.727-1.568 1.119-3.079 1.119h-.672v1.176h15.17v-1.176c-1.679 0-2.799-.168-3.359-.448a2.734 2.734 0 01-1.287-1.343c-.224-.448-.392-1.679-.392-3.639v-15.505c2.631-2.799 5.262-4.142 7.893-4.142 1.679 0 2.911.615 3.638 1.791.728 1.231 1.064 3.134 1.064 5.821v12.035c0 1.68-.056 2.631-.112 2.967-.224.784-.616 1.4-1.232 1.848-.559.391-1.567.615-3.022.615h-.616v1.176H295v-1.176c-1.512 0-2.519-.168-3.079-.448a2.498 2.498 0 01-1.176-1.231c-.335-.672-.447-1.903-.447-3.751v-12.482c0-2.631-.224-4.591-.728-5.878-.728-1.847-1.679-3.135-2.855-3.974-1.175-.784-2.631-1.176-4.31-1.176-3.247 0-6.661 2.015-10.244 6.102v-6.046h-.168z" fill="#528FBF"/></svg>