<svg width="170" height="157" fill="none" xmlns="http://www.w3.org/2000/svg"><rect x="10.217" y=".385" width="155.615" height="155.615" rx="14" fill="#E1E1E1"/><path d="M84.482 30.857v-.293c.3 0 .625.293.625.608 0 .293 0 .293-.324.293.324-.293-.626-.293-.301-.608zm3.751.315c0-.293 0-.293.325-.293.3 0 .926 0 .926.609 0 .316 0 .316-.324.316-.301-.339-.927-.023-.927-.632zm-10.93 1.218c-.324 0-.625.315-.625-.293 0-.61.3-.294.625-.294.324 0 .625-.315.625.294 0 .586-.324.293-.625.293zm2.802-.317c.301 0 .301 0 .301.293 0 .61-.3.316-.625.316-.324 0-.324 0-.324-.316.347.316.347-.586.648-.293zM72 32.682h.325c-.324.608-.625 1.216-1.25 1.509-.302 0-.302 0-.302-.316.278-.585.603-.878 1.228-1.193zm3.427.315c.324 0 .324 0 .324.293s-.324.61-.625.61c-.324 0-.324 0-.324-.294 0-.316.3-.609.625-.609zm15.307 3.942c-.625-1.51-.625-2.433-.324-3.942 1.876.608 1.25 2.117 1.552 3.334-.302.315-.927.315-1.228.608zM73.25 33.898c.301 0 .625.316.625.609-.324 1.216-1.25 1.509-2.176 2.14.3-.609-.927 0-.626-.609.927-.608 1.552-1.531 2.177-2.14zm-5.001 1.216c-.324 0-.324 0-.324-.315v-.293c.324-.293.324.608.625.293 0 .316 0 .316-.301.316zm-2.201 0c.325-.316.325.608.626.292 0 .608-.95.608-.95 1.217 0 .292-.301.608.301.608-.3.315-.625.608-.926.923-.625 0-.95-.608-1.575-.608-1.551.293.95 2.117-.926 2.117-.301.316-.301-.608-.625-.292-.301.608-.95.9-1.552.9-.324 0-.625-.292-.625-.608.926-.292.3-1.216.625-1.509.625-.608 1.552-.608 2.177-.923.625-.293.324-.608.625-.901.301-.293.301.9.95.315.3 0 .625.608.949-.315.301-.293.625-.901.926-1.216zm3.752.316c.324-.293.324.608.625.292 0 .609-.625.293-.95.609-.3 0-.3 0-.3-.293 0-.316.324-.608.625-.608zm-11.555 4.55c-.324 0-.324 0-.324-.316 0-.293 0-.293.324-.293.301 0 .301 0 .301.293.023.316.023.316-.3.316zm.625 2.117c.625 0 .324.608.625.923 0 .293-.301.608-.625.608.324-.293-.95-.293-.325-.9-.3-.316.649-.316.325-.631zm35.592 4.865c.926 0-.301.9.625.9-.324.924-1.25 1.51-1.25 2.726-.302.609 0 .924.324 1.51-.325.292-.626.608-.95.9v-.292c-.324-.293.95-.293.324-.901 0-.608-.625-1.217-.625-1.825.324-.293.625-.608.95-.9.602-.586-.649-1.803.602-2.118zM57.62 52.73c-.302 0-.302 0-.302-.294h.602c.024.293.024.293-.3.293zm1.876.313c.626.293.95.608.95 1.216v.901h-.625a1.65 1.65 0 01-.95-1.509c0-.315.324-.608.625-.608zm35.29 3.334c.324 0 .625.293.625.608 0 .608-.3.901-.926 1.216.301-.292-.926-.292-.301-.9-.023-.316-.023-.924.602-.924zm-36.541.314h.3c.325 0 .325 0 .325.294 0 .293 0 .293-.324.293.324-.293-.602-.293-.301-.587zm2.199 1.825c0-.315-.324-.608.301-.608.95.293 0 1.216.626 1.51.324.292.625.607.95.9 0 .293.3.608-.325.608 0-.608-.95-.315-.95-.608.024-.608-.602-1.216-.602-1.802zm-.624 4.235c-.325 0-.325 0-.325-.293v-.293c.324-.316.324.902.95.293 0 .609-.325.293-.626.293zm3.126 5.473l1.875 1.824c0 .293 0 .293-.324.293-.95-.293-1.876-.608-2.177-1.824.301.315.301-.608.626-.293zm-1.251 2.726c0-.293-.324-.608.301-.608 1.876 1.216 1.25 3.333 2.501 4.865 0 .608-.3.293-.625.293-1.551-1.194-.926-3.334-2.177-4.55z" fill="#528FBF"/><path d="M92.61 73.99c-.325 0-.325 0-.325-.293h.625c0 .293 0 .293-.3.293z" fill="#5893C5"/><path d="M62.946 76.738c1.25 1.217.625 2.726 1.25 3.942.301.293.95 0 .95.608 0 .609-.325.316-.626.316-2.176-.924-.625-3.334-1.875-4.55.3-.023.3-.023.3-.316zm31.215 3.019c.626 0 .301.292.301.608 0 .293.301.608-.3.608-.626 0-.325-.608-.626-.901.301.293.301-.608.625-.315zm-27.789 2.432c.626 0 .324.608.95.608-.325.292 0 .9-.626.9.626 1.217.95 2.433 2.501 3.334.95.608-.926 2.433.626 3.334.324.292-.95.292-.325.923h-.625c-1.25-1.216 0-3.04-.926-3.649-1.25-1.509-1.25-3.333-2.177-4.55-.023-.585.602-.292.602-.9zm-2.5 5.766v-.293c.95.293.625.901.95 1.51 0 .292.324.607-.325.607-.95-.292-.324-1.216-.625-1.824zm2.501.315c0-.293-.324-.608.324-.608.626 0 .626.608.626.901 0 .315.324.608-.325.608-.625 0-.625-.608-.625-.9z" fill="#528FBF"/><path d="M94.786 64.89c.625-.293.625-.9.95-1.509-.95-.293-.325-1.216-.626-1.51h-.625c-.301 1.217-.625 2.118-.625 3.334h-.95l-.926-.9c-.301-.293 1.552-1.217-.301-1.217 0-.315-.625-.9.301-.9 0-.924.625-.316.926-.316.626-.901 1.552-1.825.95-3.04-.626-.924-.95-.294-1.25-.294 0 .609 0 1.217-.626 1.217l-.926-.901c-.324-1.217 0-2.117.625-3.334 0-.608.625-.293.625-.293.324.609.625.609.95.609-.626-.901.625-2.118-.626-2.726-.324.608-.324 1.216-.926 1.216-2.5-.923 1.876-3.333-.324-4.257-.301.609-.625.901-1.25.609v-.609c.3.293.3-.608.949-.608 1.25 0 .625-1.509 1.25-2.432h-.926c.324-1.217-.625-2.433 0-3.041.926-.923 1.25-2.117 2.501-3.04h.926c0 2.117-2.176 3.04-2.802 4.864 0 .293.626.609.301 1.217h.626c.324-.924.95-1.51 1.551-2.118.625-.608.301-1.824.625-2.725.626-1.824-.625-3.649-.926-5.473 0-.608-.324-.316-.625-.316 0 .901-1.25 1.217-1.25 2.118-.626-.901-.626.608-1.552.292-1.876-1.216.324-1.216 0-1.824-1.25 0-2.177-1.824-3.752-.9-.324-.902-1.25-.294-1.551-.902 0-.315-.301-.608.324-.608 0-1.824.926-.293 1.25-.293.302.608 1.251 2.117 2.177 1.216 0-.292.626-.923.325-1.509-.325 0-.626.609-.927-.292-.324-.293-.95-.901-1.25-1.51h-.927l-.949.924c-1.876.901-2.5-.608-4.052-.924 0 .293-.301.609.324.609-.625 1.509-2.177 1.509-3.427 1.824 0-.608-.626-.608-.95-.608-.95.315-1.551 1.216-2.5 1.51a8.806 8.806 0 00-1.552 2.116c-.95 1.51-1.25.293-1.876.293.625-.608-.625-.608-.324-.923-1.552.923-3.427.923-5.002 2.432-.301 0-.927.608-.927-.293-1.574.901-2.801 1.825-4.376 2.433-.926.608.95 1.51 0 2.432-.301.293-.926-.315-1.25.609-.626 1.509-1.552 2.725-1.251 4.257 0 .608.95 1.216.625 1.824-.324.293-.324.293-.324.608h.625c.625-1.216 0-2.432 0-3.649.301-.9.927-1.824 1.25-1.824 1.552 0 .302 1.824.626 2.725.95 1.217 2.177 1.825 2.177 3.334-.301 0-.626.608-.927-.293-.324-.293-.324-.608-.625-.923-.324 0-.95-.293-.625.292.625.924.95 1.825.95 2.726-.95 0-.302.608-.302.9.626 0 .626-.607.626-.9h.625c1.876 1.216.625 2.117 0 2.725-.324.608-.625-1.216-.95-.923-.95 1.216.626 2.432.95 3.649.3 1.824 1.25-.924 1.25 0 .301 1.216-1.25 1.824-1.551 3.04-.301 2.726 1.551 5.474 3.427 7.884.625.608-.301 1.824-.625 3.04-.301 1.51 1.25 2.433 1.876 3.334 0 .315 1.551 1.216-.325 1.216 0 .608-.3.293-.625.293 0-.608-.625-.901-.625-1.51-1.25.316-.626 1.51-.626 2.118.302.924-.625 1.825.302 2.433.3 0 .926-.293 1.25-.901 0 0 .625-.293.625.293 1.25-.609.325-2.118 1.25-2.726.325 0 .626.293.626.608-.625.608.625.924 0 1.51-.625.608-1.876 1.508-1.25 1.824.625.9-.626 2.117 0 2.725 1.25.608.926 1.825 1.551 2.433.324.293.95-1.217 1.876 0 .324.608 0 .9 0 1.216-.927.923-.626 1.51-.626 2.432.302.609 1.876 0 1.876 1.217-.625-.293-.625.608-1.25.293v.9c1.551-.608 3.126-.292 4.677-.608.302 0-.625-.608-.3-.9.926 0 2.801 0 2.176 1.509h.625c-.3-1.217.626-1.51.927-2.433 0-.608.625-.608.95-.608.925 1.216 2.176 1.216 3.426 1.824.301 0 .301-.608.626-.923.926-1.825 1.875 0 2.802-.293v-.9c-.626-.294-1.552-.61-2.177-.61-.95.294-1.25 1.825-2.177 1.217-.625-.608-1.551-.293-1.876-.9-.3-.609.301-1.51.927-1.51.324 0 .324.608.625.901.301.924.625.315.926.315.625-.315 1.25-.608 1.876-1.216 0 .608.625.293.95.608.3-.608.926-.9 1.25-.9.95.292-1.552.608 0 1.824.3.293.95 0 1.25.293l1.876-1.825c.95-2.117 1.25-4.55 1.552-6.982-1.876 0-.302-.901-.302-1.216.927-1.217 1.251-2.433 2.177-3.334.926-.901.626-1.824.626-2.725-.301-.609-1.552-1.217-.927-1.825.324-.608 1.25-1.216.626-2.117-.626-.315-.927-.608-.626-1.216.324-.293.324-.293.626-.609 1.157-.945-1.02-1.869.231-2.77zm-31.54-23.087h.301c.324 0 .324 0 .324.293s0 .293-.324.293c.324-.293-.602-.293-.3-.586zm0 4.257c-.3.608.301 1.51-.625 1.825-.625-1.217-.625-2.118-.926-3.334 0-.293 0-.9.625-.9.926.314.926 1.508 1.876 1.824-.023.585-.649.27-.95.585zm2.177 11.532c.301 0 .301 0 .301.293s0 .293-.301.293-.301 0-.301-.293 0-.293.3-.293zm-.625 7.59c-.95-.292-.626-.9-.626-1.508-.324.293-.324-.924-.949-.293v-.608c0-.901.95-.901 1.25-1.825.95.293.95 1.217 1.251 2.118-.301.608.023 1.824-.926 2.117zm1.574 2.726c-.625 0-.625-.608-.625-.9.301-.609.625-.924 1.25-1.217.325 0 .325 0 .325.293-.649.63-.324 1.531-.95 1.824zM70.75 81.58c-.324 0-.324 0-.324-.315 0-.293 0-.293.324-.293.301 0 .301 0 .301.293 0 .315 0 .315-.3.315zm6.553 8.807c-.625.608-.625-.608-.949-.293-.625 0-.625.901-1.25.608-.626-.608-1.876.609-2.177-.608.625-.9.926-1.509 1.876-2.117.324 0 .625-.293.625.293.324.293-.626.293-.301.608v.608c.926.293 2.176-.608 2.802.608 0 .608-.325.293-.626.293zm.927-1.824c-.626-.293-1.552 0-1.876-.901.324.292.324-.901.95-.293.625.293 1.25.293 1.551.9 0 .609-.301.294-.625.294zm0-51.017c-.626.293-.626-.608-1.25-.315-.927 0-1.552.923-2.502.923-.3 0-.3 0-.3-.293.3-.923 1.25-1.824 2.5-1.509.625-.292.95 0 1.552.316.3.293.3-.608.625-.316.324 0 .625-.292.625.316-.3.585-.625.878-1.25.878zm4.075-1.824c-.324.293-.324-.924-.949-.293-.625.293-.926.9-1.552.9.325-.292-.625-.292-.324-.607.626-.608 1.25-.608 1.876-1.51h.95c.324 0 1.25-1.508 1.25.293-.324.609-.649.924-1.25 1.217zm2.177 1.216c-.324 0-.625.293-.625-.293 0-.315.301-.608.625-.608.625-.608.625.608.926.293 0 .608-.625.608-.926.608zm5.928 28.56c0-.608.626-.608.95-.608.324 0 .625-.293.625.293-.301.608-.625.923-1.25.923-.626 0-.325-.315-.325-.608zm-.926-25.835c.926-.292.625 1.217 1.552 1.217.926-.608 1.551-1.51 2.5-2.117h.626v.608c0 .292.625.9-.324.9-.95.293-1.876.901-2.501 1.217-.301.293-.301.9-.95 1.216-1.25-.608-.3-2.117-1.25-3.04h.347zm.625 14.889l-.625.608v-.293c0-.293 0-.293.301-.293h.324v-.022zm-.625 12.455c.625 0 .926.293.926.901 0 .293.325.608-.3.608-.626-.292-.95-.608-.95-1.216 0-.293 0-.293.324-.293zm.926 3.041c0 .293 0 .293-.3.293-.325 0-.325 0-.325-.293h.625zm-2.5-32.502c.324 0 .324 0 .324.293s0 .293-.325.293c-.3 0-.3 0-.3-.293s0-.293.3-.293zm.949 48.9h-1.25v-.609c0-.293.3-.608.625-.608.625.293 1.551 0 1.875.901 0 1.824-.95.315-1.25.315zm2.177-5.474c0 .293 0 .924-.626.924-.3 0-.625-.293-.625-.609.324-.292.625-.608.95-.9.625-.023.3.292.3.585zm2.176-12.456c0 .293.626.609.325 1.217.625.9-.95 1.216-.95 1.824.625.901 1.25 1.51 1.876 2.433-.301.9-1.25 1.509-1.876 2.432-1.25-.608-1.25-1.824-1.551-2.725-.325-.924.926-.924.926-1.51 0-.607-.625-.923-.625-1.508 1.25-1.51-.626-3.65 1.25-4.865.625 0 1.25.292 1.25 1.216-.3.27.325 1.194-.625 1.486zM91.36 89.78c.324 0 .324 0 .324.292 0 .293-.324.608-.625.608v-.293c-.324-.292.602-.292.301-.608zm-11.255 2.747c.3 0 .625.293.625.608 0 .608-.324.316-.625.316-.325 0-.325 0-.325-.316-.3-.315.649-.315.325-.608z" fill="#528FBF"/><path d="M68.873 93.43v-.61c.324 0 .324 0 .324.294-.023.315-.023.315-.324.315z" fill="#5893C5"/><path d="M104.489 34.71c-.024-.158-.325-.023-.093-.136.116.068.209.136.093.136zM71.073 51.42c.718-.788 1.111.248 1.783-.202.07-.023-.139.496.046.405.672-.608 1.32.046 1.9.654l-.07.135c.115.113.324-.338.44-.27l-.047.27c.07-.293.255-.113.325-.316l.046.474.116-.316c.278-.766.486.09.81-.293l-.046.203c.486-.428 1.019-.315 1.528-.45l-.023.45c.023-.338.185-.405.324-.473.047.36.232-.315.37-.09l-.022.068c.115-.383.162.202.254-.248l.07.27c.046-.495.162.248.255-.023v-.112c.092-.135.138.113.208.022l.023.068c.185-.135.301.113.278-.27.07.315-.185.157-.046.608.625-.45 1.273-.428 1.899-.473l.185.338c.046-.09.231-.09.254-.293-.023 0 .07.203.093.203.14.135.07-.428.232-.27v.382c.07-.315.208-.27.324-.383l-.023.226c.092-.36.278.067.347-.18v.225c.232.225-.023-.473.162-.36l.023.247c.093-.45.348-.36.487-.54v.09c.162-.09.37 0 .51-.226.092.09.092.54.254.406-.116-.428.255-.248.046-.721.162.045.44.135.51-.023-.023.18.208.519.092.586l.162.248c.023.18-.115-.045-.023.18.07-.045.209-.248.278-.203.046-.292.023-.81.185-.923-.046.18.186.473.14.563l.022-.901c.047-.045.116.338.162.203l-.023-.293c.047.045.232-.158.394.248.07.157-.07.112.046.247.116-.022.07-.18.186-.202l.023.045c.092.045.162-.225 0-.45-.046 0 .116.247-.023.134-.023-.247.092-.36.185-.405l.046.315c.046-.383.14-.563.255-.766-.07-.202.07.383.023.293.301.18.278-.563.602-.225-.023.045-.116-.27-.093-.225.116-.023.209.27.232.135.07.158.07-.09.116-.158-.023-.135.046.068 0 .113.046-.18.3-.586.625-.428-.046-.113-.046-.45 0-.45l.093.27c.116.135.162-.09.255.135-.024-.36-.302.428-.255.135.139.203.023-.495.139-.135.092-.045.07-.383.254-.18-.046-.023.07.383.163.338.115-.113-.024-.136.069-.27l.023-.136c-.116-.248.14-.022-.046-.27.116.203.139-.203.324.203l.139.315c.046-.045-.07-.383-.093-.54l.093.135c-.232-.496.162-.023.046-.428.209.112.325-.113.533.135.023-.203 0-.428.162-.383l.023.203c.14.09.093-.046.116-.158.023.09.278.203.44.315 0-.203-.162-.428-.255-.586.348.406.07-.45.417-.09 0 .09 0 .316.139.383.347.406-.046-.45.232-.293l-.255-.36c.208.203.046-.338.278.068-.047-.158.231.022-.023-.338.416.18.393-.496.972.067-.023-.09.116-.067-.023-.247-.185-.158.023.18-.093.067l-.07-.18c.117.045.186.045.325.383.301.135-.255-.698.023-.676.093.158.14.203.186.135l-.07-.315c.162-.023.301.293.486.54.047-.09.116-.112.023-.315l.302.248c-.232-.18-.047-.18-.07-.248l.023.068c.093.09.116-.023.116-.068-.116-.135-.232-.135-.324-.157-.046-.136.023-.136-.023-.293.162.248.231.09.3.067.093 0-.092-.27-.069-.27.093.113.116-.045.186.158.023.045-.14-.09-.07.045.116.067.278.27.232.067-.047-.157-.37-.45-.162-.383l.138.293.209.045-.162-.225.092.09c-.139-.248.093-.203-.092-.473.023-.067.231.068.3.045v.023c.163.067.186-.068.093-.248l.047.045c.046 0 .092-.113.023-.27.208.09.695.766.556.428.07-.068-.186-.496-.348-.586.255.023.14-.45.556-.248l-.116-.225c.278-.09.232-.608.764-.36.024.135.186.202.301.315-.115-.225.232.135-.023-.18-.185-.18-.254-.27-.393-.293a.314.314 0 01.463-.248c-.116-.045-.14-.135-.162-.203.278.293.393.248.37.068l-.162-.18.209.135c-.024-.09-.348-.383-.116-.293l.208.158c-.07-.203-.231-.54-.023-.473l.324.18c0-.067-.116-.248-.231-.27.277.022.37-.045.625.112-.348-.72-.093-1.058.185-1.283l.14.112c.184.045-.21-.225-.07-.203.115.136.347.18.463.36.231.023-.14-.315-.14-.45-.184-.157.07.158-.161-.045-.047-.067.254-.022 0-.247.139.067.324.247.416.337l-.092-.157c.394.18.44.63.903.878v-.09c.347.18.185.428.44.338-.07-.18-.44-.54-.625-.586.046-.202-.626-.585-.486-.698.208.09-.07.135.208.293.278.112-.023-.225.116-.225-.162-.023-.417-.293-.417-.36.208.022.231.247.347.18-.162-.136-.185-.316-.394-.338-.347-.316.209-.023-.046-.293.301.157.533.563.764.54-.277-.18-.231-.383-.671-.608.116 0 .324.158.44.293.208.045-.37-.495.162-.158l-.255-.202c.093.045.185.045.348.112.046-.067-.232-.45.162-.157-.023-.045.07-.18-.232-.316-.231-.022.139.248-.255.023.348.157.047-.158-.046-.27l.162.09c-.046-.068.023-.113-.116-.248l.232.157-.232-.18c-.046-.202.44.248.44.09l.14.203c-.024-.045.23.068.184-.045l-.602-.518c-.046-.135.278.135.07-.068l.208.248c.07.068.394.18.463.09-.046-.112-.3-.383-.486-.383.023-.045.209-.022.348.113-.024-.158-.255-.135-.325-.315.162.067.463.09.718.157l.324.316.047-.068c.254.27.254.113.555.338.07-.023 0-.135-.046-.225-.579-.18-.602-.563-1.111-.811-.023-.225 1.204.563.579-.023-.14-.045-.44-.338-.371-.157.116-.068-.44-.338-.162-.338.139.203.532.18.741.473-.162-.09-.162 0-.139.045.208.068.463.293.533.18 0-.09.046-.18-.209-.315-.278-.158-.023.112-.278-.09-.023-.18.417.022-.023-.293-.023.113-.3-.045-.486-.135l-.046-.158.162.113c.231-.068-.301-.226-.162-.338l.416.135c.301.203-.278.135.255.383.07-.09-.162-.248.023-.27l.116.202c.046-.022.741.293.417-.045-.116-.157-.162-.112-.347-.225.046-.18-.116-.315-.093-.428.37.203.116-.158.44.135-.232-.045-.347.158-.046.406.486.18-.139.09.277.36.093-.113.533.113.811.248.046-.023-.07-.113-.093-.158-.254-.158-.278-.112-.555-.248.162-.09.092-.315-.139-.518.162.023.416.158.416.248 0-.225.116-.383.278-.518-.486-.113-.023-.248-.416-.338-.139.045-.487-.022-.672-.18.046-.045.185.09.301.113-.208-.18.44.067.093-.18.069.225.532.292.856.472-.139-.202.255.113.301 0a1.552 1.552 0 01-.254-.585c.417-.023.185-.406.231-.563.209 0 .602.225.695.157.046-.112-.463-.112-.232-.18l.07.045c-.07-.09.394-.157-.162-.428l.417.225c.046-.022-.047-.067-.07-.112l.371.158c.347.022.046-.203.069-.316l-.301-.045c-.139-.248.185-.27.162-.45l.255.09-.116-.158c.232.113.44.068.255-.045l.533.473c-.186.023-.278-.203-.556-.248-.232-.045-.232.135 0 .248.046-.045 0-.068-.07-.158.371.113.324.203.533.338 0-.045.116-.045.023-.09.139.135.139.203.116.315-.116-.112-.232-.045-.324-.112.301.135.37.27.231.36-.393-.045.116.338-.046.45-.301-.18-.51-.36-.602-.495-.209.023-.047.113-.232.135.209.135.556.316.649.496l-.232-.09c.07.157.417.293.278.428-.232.202-.324.45-.44.608l-.232-.09c.44.338.024.428.186.653-.325.135-.024.63-.464.54-.069.474-.115.901-.463 1.262l-.278-.248c.186.203-.208-.067-.208.045.301.068.255.293.417.45-.371.023-.232.429-.139.721l-.208-.135c.301.406-.186.383-.371.54-.093-.022-.324-.134-.347-.044.278.338.208.383.324.675-.07.113-.278.248-.486.27.162.767-.51.924-.603 1.555l-.254-.158c.139.789-.741.924-.81 1.464l-.348-.36c-.209 0-.116.338.162.54-.208 0-.07.428-.417.226-.162.045.047.293.023.428-.324.09-.393.18-.532.428l.07-.023c-.047-.09-.21-.248-.279-.225.023.158-.393.158.116.518-.463-.068-.347.653-.88.495.14.113.093.18.14.27-.21.18-.626.09-.603.451-.093-.045-.139-.247-.232-.203 0 .09.14.158.14.293-.14.518-.858.316-1.112.608-.324.699-1.089.879-1.621 1.284l-.07-.112c.047.495-.694-.135-.486.54-.116-.067-.208.068-.278-.157.023.36-.579 0-.579.473l.023-.09c-.347-.09-.37.337-.718.27l-.023-.225c-.208-.158.023.563-.3.09-.047.045.092.27.115.247-.625.09-1.065.609-1.575.969-.555-.135-.416-.879-.579-.338-.069-.09.07.203.024.09-.07.203-.44-.518-.417-.203.185.316.023.203.093.406-.348-.113-.51-.383-.603-.045l-.046-.18c-.023.585-.394.428-.394 1.058a26.648 26.648 0 01-3.844 1.554c-1.343.293-2.663.519-4.075.338-.348-.45-.37-.45-.718-.225v-.18c0 .405-.255.068-.255.428-.51-.023-.972.112-1.505.067.093-.045.139-.36.023-.337l-.116.247-.023-.112c-.07.045-.139.248-.093.383-1.366.225-2.593-.608-3.867-.699-.278-.225-.718-.18-1.065-.157-.857-.744-1.575-1.33-2.64-1.194.116 0 .556-.946.996-1.081zm33.37-16.53c-.208-.046-.347.022-.579-.136l.579.135z" fill="#000"/><path d="M101.41 36.601c.046.023-.093 0-.116 0 0-.045-.139-.136-.046-.113 0 .023.092.068.162.113zm-.372.541c-.162-.09-.232-.293-.208-.36l.208.36zm-.971.203c-.162-.023-.232-.068-.186-.136l.186.136zm.347.225c-.023.044-.14.022-.232-.023.139.09-.024-.135.232.022zm-1.18.855c0 .023.092.159-.093.09.139.046-.116-.248.093-.09zm-.094.654l-.023.045c-.093-.023-.185-.113-.185-.158l.208.113zm-7.78 8.177l.023-.113.07.158-.094-.045zm-4.632 2.117c-.023.136-.093-.136-.116-.159.07-.045.047.227.116.159zm-2.479 1.53h.023l.07.339-.093-.339zm42.703 16.737c.14-.249-.348-.113.024-.226.093.136.139.249-.024.226z" fill="#000"/><path d="M81.263 40.767c.648 1.126-.579 1.914-.278 2.973 0 .113-.51-.135-.44.135.348 1.014-.023 2.32-.764 3.401l-.139-.09c-.139.203.324.496.232.721-.093 0-.14-.09-.278-.045.278.067.092.428.3.518-.115.09-.347.068-.486.18l.325.135c.787.383-.186.879.324 1.352-.07-.023-.139-.068-.209-.023.556.766.58 1.735.834 2.568-.116-.023-.347-.023-.463.045.347 0 .463.248.556.473-.348.158.37.338.208.63h-.07c.394.136-.184.338.279.406l-.255.18c.51 0-.232.338.046.45l.093-.022c.162.113-.07.248.07.36l-.047.023c.231.293.023.54.394.45-.278.18-.232-.27-.626 0 .741.97.996 2.073 1.367 3.131-.116.18-.14.27-.255.36.116.068.208.384.417.406-.023-.022-.162.135-.162.203-.047.248.51.023.463.293a.414.414 0 00-.394.067c.37.045.463.293.672.45-.07 0-.14-.044-.255.023.44.068.162.428.463.518l-.255.023c-.07.428.487-.113.487.225-.093-.022-.162.023-.255.068.51.067.602.518.88.698l-.093.045c.186.248.232.586.556.788-.023.158-.51.248-.255.496.394-.248.44.383.788-.068.046.293.139.744.416.789-.231 0-.37.428-.555.27l-.116.293c-.162.09-.07-.18-.232 0 .093.09.463.247.463.36.371 0 .927-.157 1.205.068-.255-.023-.348.383-.487.338l1.02-.158c.092.068-.279.248-.07.293.092-.09.185-.068.3-.09-.022.067.394.292.07.608-.092.157-.185-.09-.231.112.139.158.278.068.417.226l-.047.045c.047.157.417.18.51-.09-.047-.09-.185.202-.162.022.254-.09.463.045.602.203-.093 0-.186.09-.301.135.44-.023.718.135 1.019.27.162-.135-.348.18-.301.068.023.54.926.248.856.766-.07 0 .186-.248.14-.18.138.135-.093.36.092.36-.116.135.162.067.301.09.139-.045-.023.09-.139.022.255 0 .996.248 1.135.699.07-.09.486-.18.532-.113l-.208.203c-.046.18.255.18.116.383.37-.136-.788-.27-.417-.293-.093.225.579-.113.3.157.163.113.487-.022.487.293-.023-.067-.347.203-.231.293.254.135.139-.067.37 0h.185c.163-.203.163.18.278-.135-.115.203.394.135.093.473l-.232.27c.116.045.348-.18.533-.27l-.046.158c.324-.45.231.157.579-.113.115.27.532.293.463.653.254-.045.51-.135.648.068-.07.022-.116 0-.185.112.046.203.139.09.3.068-.069.068.094.405.14.653.255-.045.324-.338.44-.495-.093.563.625-.068.602.473-.093.045-.37.112-.278.293-.093.563.486-.18.625.18l.14-.428c0 .315.462-.045.254.36.139-.112.231.293.394-.112.231.608 1.111.157 1.088.99.093-.044.231.068.278-.157-.023-.248-.209.112-.185-.045.07 0 .115-.113.138-.158.093.135.209.203-.069.496.209.338.579-.586.903-.316-.07.158-.07.248.047.248l.3-.225c.232.135.024.428-.069.72.139 0 .324.046.44-.135l.046.406c-.046-.293.162-.135.255-.203l-.093.045c-.023.135.163.113.255.09.023-.18-.116-.315-.185-.383.116-.112.208-.045.347-.18-.115.27.162.27.255.338.116.113.208-.203.232-.203-.047.158.185.09.046.27-.046.046-.046-.18-.162-.067.046.135-.023.383.185.248.162-.113.116-.586.301-.316l-.185.248.185.225.07-.27v.135c.139-.247.347.023.486-.27.116.023.208.248.301.27l-.023.023c.116.158.301.09.463-.09l-.023.067c.069.023.254 0 .37-.135.162.225-.116 1.014.162.698.209.023.371-.45.325-.63.324.203.764-.18 1.018.27.07-.112.047-.18.139-.225.487.157 1.066-.203 1.436.36-.139.09-.023.27-.023.428.139-.225.139.27.208-.135 0-.248.024-.36-.115-.473.301-.09.741-.045.903.18-.093-.112-.023-.18.046-.248-.023.406.208.428.371.293l.023-.248.115.248c.07-.067.07-.495.232-.293l.046.248c.162-.203.394-.54.579-.36l.162.338c.07-.045.209-.248.047-.338.324.203.532.203.671.495.487-.72 1.251-.923 1.876-.968l.023.18c.209.135.023-.315.162-.225-.023.18.209.338.093.563.278.135.255-.36.394-.45-.024-.226-.093.157-.116-.136 0-.09.37.135.324-.225.093.135.093.383.093.54l.115-.18c.278.383-.254.789.024 1.262l.138-.068c.209.338-.301.473.093.54.116-.202.139-.72-.023-.855.301-.158-.046-.856.301-.901.139.18-.255.113-.116.383.232.225.278-.248.44-.18-.185-.09-.139-.473-.069-.563.208.112-.023.36.208.315-.023-.203.162-.406-.069-.496-.047-.473.278.068.301-.315.162.293-.047.788.254.878-.115-.292.209-.495-.069-.9.116.067.208.292.185.495.209.135.185-.63.417-.068l-.046-.315c.069.09.162.135.301.293.139-.023.278-.518.417-.068.023-.067.301-.157.092-.428-.231-.135-.116.316-.37-.09.254.316.231-.135.301-.292l.069.18c.023-.09.185-.113.139-.316 0 .113.07.226.116.248l-.046-.293c.185-.225.231.45.44.293l-.093.27c.023-.067.208.158.278.023a13.037 13.037 0 01-.116-.788c.093-.158.162.247.208-.046l-.046.36c0 .091.278.361.44.294.07-.135.116-.54-.116-.608.093-.046.278.067.278.27.162-.158-.139-.248-.023-.45.139.134.463.27.695.45v.473l.116-.045c-.024.383.185.203.254.585.116.023.162-.135.209-.247-.487-.406-.07-.856-.394-1.307.232-.293.764 1.081.718.158-.116-.09-.139-.54-.278-.293.208-.045-.116-.54.208-.473-.069.27.44.383.348.789-.07-.158-.209-.046-.209.022.186.135.232.495.44.383.116-.113.278-.203.116-.428-.162-.27-.162.113-.231-.203.185-.225.463.18.301-.36-.139.112-.325-.135-.417-.338l.116-.203.069.203c.347-.023-.093-.36.208-.45l.325.292c.115.338-.487.068-.139.54.185-.067.116-.36.347-.314l-.069.157c.069-.022.509.608.555.09.047-.225-.069-.202-.185-.383.232-.225.209-.473.347-.608.186.383.325-.157.371.316-.232-.158-.602.112-.486.518.347.36-.255.067-.07.518.255-.113.487.292.672.563.069-.023.069-.18.069-.248-.139-.27-.208-.225-.37-.473.301-.09.44-.383.417-.72.162.067.301.337.208.427.255-.27.602-.428.926-.54-.463-.27.255-.293-.116-.54-.208 0-.532-.204-.578-.429.115-.022.115.18.208.248-.046-.293.44.225.301-.18-.162.293.301.518.486.856.07-.293.162.225.348.09.069-.293.185-.63.347-.834.486.09.648-.518.88-.698.255.045.44.45.625.406.139-.136-.417-.27-.069-.293l.046.09c0-.135.625-.113.255-.63l.255.405c.069 0 .023-.113.023-.18.115.112.254.157.254.292.348.113.232-.315.371-.45l-.278-.113c.093-.383.44-.338.602-.653l.185.203.024-.248c.162.225.416.203.324-.023l.116.811c-.209-.022-.116-.338-.394-.45-.232-.113-.394.157-.232.36.116-.067.07-.112.07-.248.301.248.162.36.278.586.023-.045.185-.045.115-.135.047.225-.023.315-.162.473 0-.203-.208-.113-.254-.225.231.247.162.45-.093.563-.394-.158-.185.518-.486.608-.139-.338-.186-.63-.139-.834-.255-.022-.162.136-.417.113.093.248.301.563.208.833l-.185-.18c-.093.225.139.518-.116.63-.463.204-.833.519-1.158.722l-.162-.18c.162.563-.44.517-.532.878-.533.045-.741.743-1.181.518a5.36 5.36 0 01-1.992 1.396l-.046-.382c-.023.292-.185-.136-.301-.023.278.18-.023.428-.023.676-.463-.068-.788.405-1.019.743l-.116-.225c-.139.54-.695.315-1.135.405-.092-.067-.231-.27-.347-.203-.07.451-.208.474-.44.834-.232.09-.672.09-.973.022-.764.744-1.806.766-2.732 1.194l-.116-.27c-.857.743-2.13.45-2.918.743l.047-.495c-.278-.136-.579.157-.487.518-.278-.136-.648.27-.833-.136-.278-.067-.325.248-.533.316-.533-.135-.741-.158-1.25-.113l.115.045c.07-.112.07-.315-.046-.36-.185.112-.672-.203-.509.405-.51-.383-1.297.158-1.784-.36.024.158-.115.18-.185.293-.486-.045-.926-.428-1.366-.18-.07-.09.162-.248-.023-.293-.116.045-.047.203-.185.293-.857.27-1.483-.541-2.177-.676-1.274-.068-2.501-.586-3.659-.901l.046-.113c-.579.316-.694-.72-1.25-.27-.046-.158-.301-.225-.14-.383-.416.135-.647-.676-1.25-.54h.14c-.279-.45-.811-.316-1.135-.766.07-.023.162-.023.231-.113-.046-.293-.648.225-.44-.315-.092-.045-.208.203-.162.225-.857-.63-1.991-.946-2.918-1.6-.416-.765.58-.788-.185-.833.023-.112-.162.158-.093.045-.3-.022.116-.72-.185-.608-.185.316-.208.09-.37.248-.232-.473-.07-.766-.556-.81l.139-.113c-.695.112-.903-.428-1.644-.226-1.598-1.847-3.798-3.243-4.886-5.473-1.181-2.117-2.455-4.167-2.733-6.644.301-.676.278-.699-.093-1.24.093 0 .116.046.186-.022-.417.068-.162-.405-.58-.383l-.393-2.612c.07.135.394.18.347 0l-.277-.158.115-.045c-.07-.113-.278-.225-.416-.09-.742-2.32.162-4.618.393-6.848.232-.518.116-1.283.162-1.892 1.02-1.576 1.876-2.86 2.015-4.64-.046-.022.88.586.903 1.307zm45.504 27.143c-.185-.09-.417-.045-.509-.339l.509.34z" fill="#000"/><path d="M121.626 69.599c.023.045-.116-.023-.14-.046.047-.045-.023-.204.093-.158-.046.045 0 .113.047.204zm-1.112.561c-.093-.157.046-.405.162-.517l-.162.518zm-1.343-.02c-.162-.069-.185-.159-.069-.227l.069.226zm.162.382c-.093.045-.185-.023-.278-.091.093.136.139-.182.278.09zm-2.408.631c-.046.045-.092.226-.232.068.116.09.163-.34.232-.068zm-.927.631l-.092.045c-.093-.045-.07-.204-.024-.226l.116.18zm-20.192-.068l.162-.023-.093.16-.07-.137zm-7.411-5.271c-.163-.023.07-.181.07-.204.092.068-.186.113-.07.204zm-3.821-3.379l.047.046-.325.181.278-.227zm24.478-11.442c.069-.067.023-.317.046-.135-.023.136-.046.249-.046.136zM96.87 46.399c.718-.63.301.225.81-.135.047-.023-.323.405-.208.315.58-.473.533.023.37.586l-.092.112c-.023.113.301-.248.301-.18l-.162.203c.186-.225.14-.068.278-.225l-.255.405.209-.248c.51-.585.092.135.417-.135l-.14.158c.394-.293.487-.136.719-.18l-.255.382c.208-.27.3-.315.37-.36-.185.293.232-.225.162-.045l-.046.068c.232-.293-.07.202.185-.136l-.139.248c.301-.405-.092.248.07.045l.046-.09c.093-.09-.046.135.023.068l-.023.045c.116-.068 0 .18.209-.158-.162.27-.14.09-.348.473.394-.225.51-.023.695.068l-.139.315c.07-.068.116-.023.232-.18 0 0-.093.18-.093.203-.046.135.255-.338.208-.18l-.208.315c.185-.248.208-.18.301-.248l-.139.18c.209-.27.046.09.185-.068l-.139.18c-.069.27.255-.405.232-.225l-.139.203c.255-.338.255-.18.371-.27l-.047.09c.07-.023.07.113.209-.023-.024.09-.278.473-.186.428.232-.405.186-.112.394-.585 0 .09 0 .27.093.157-.093.136-.232.496-.301.518l-.093.248c-.093.158 0-.067-.116.135.023 0 .162-.135.162-.067.162-.225.44-.676.533-.698-.116.135-.208.45-.278.518l.486-.721c.024 0-.162.315-.069.225l.162-.225c-.023.045.116-.068-.069.338-.07.157-.07.067-.116.225.046.023.116-.113.139-.113l-.023.045c0 .068.162-.135.231-.36 0-.023-.116.248-.069.113.139-.226.208-.27.231-.248l-.162.27c.208-.293.301-.36.417-.473.093-.18-.185.338-.139.225-.07.293.324-.315.185.113-.023.023.116-.27.093-.225.023.045-.116.315-.046.225-.07.158.046-.045.092-.068.07-.112-.023.09-.069.09.092-.112.324-.315.278-.044.046-.113.231-.383.231-.36l-.116.247c-.046.157.07 0-.023.225.162-.293-.255.203-.092-.022-.093.225.254-.383.069-.023.046 0 .185-.27.116-.023 0-.044-.185.338-.162.338l.139-.18.069-.09c.116-.248.023.045.139-.225-.093.203.116-.09-.069.315l-.139.316c.023-.023.185-.316.254-.451l-.046.158c.209-.496.023.067.209-.316-.024.18.092.045-.024.36.093-.134.209-.315.186-.202-.024.045-.047.045-.093.158-.046.157.023.022.069-.045-.046.067-.069.315-.115.495.092-.135.185-.405.254-.585-.162.495.232-.293.07.18a1.069 1.069 0 00-.162.36c-.162.496.208-.338.162-.09l.185-.428c-.069.27.162-.225 0 .203.07-.135 0 .157.162-.248-.046.36.255-.135.047.586.046-.068.046.022.115-.203.07-.225-.092.158-.046 0 .023 0 .069-.113.069-.18-.023.09 0 .135-.138.473-.047.27.301-.676.324-.496-.07.158-.07.225-.047.203l.139-.27c.024.09-.115.383-.208.675.046-.045.069-.022.162-.225l-.093.36c.07-.27.093-.157.116-.225l-.046.068c-.046.113.023.067.046.022.07-.18.047-.247.07-.315.046-.113.069-.09.139-.225-.116.27-.024.203-.024.248 0 .067.116-.248.116-.226-.046.136.023.045-.069.226-.023.045.023-.158-.023-.023-.024.113-.116.36-.024.18.07-.135.186-.563.163-.36l-.116.27-.023.158.092-.248-.046.113c.116-.27.093-.068.208-.36.023-.023-.023.18 0 .224l-.023.023c-.023.158.046.068.116-.09l-.023.068c0 .022.046 0 .116-.158-.024.203-.301.968-.162.653.046 0 .208-.45.254-.63 0 .202.209-.203.139.202l.093-.225c.046.135.278-.248.185.293l-.116.405c.093-.225-.046.248.07-.158.069-.225.116-.337.116-.45.092-.113.162-.09.138.135l.093-.248c-.116.383-.093.45-.023.316l.069-.226-.046.248c.023-.067.139-.473.116-.248l-.07.248c.07-.18.209-.473.186-.27l-.07.338c.023-.023.093-.226.116-.338 0 .225.023.248-.046.54.278-.675.44-.675.532-.608l-.046.18c0 .158.093-.292.093-.18l-.139.563c0 .18.139-.292.185-.36.069-.225-.07.135.023-.135.023-.068.023.18.116-.158l-.139.518.069-.157c-.069.405-.254.698-.347 1.193l.046-.045c-.069.36-.162.383-.139.518.07-.157.209-.653.232-.81.069-.09.232-.811.278-.766-.023.202-.07.045-.116.315-.046.293.093-.135.093-.045 0-.135.115-.473.139-.54 0 .157-.093.315-.07.36l.139-.473c.116-.45.023.135.116-.203-.07.315-.232.72-.209.878.07-.315.163-.405.232-.855a1.9 1.9 0 01-.116.518c-.023.202.209-.54.07.067l.092-.315c-.023.112-.023.18-.046.36.023 0 .185-.405.07.068.023-.045.069-.023.115-.338.023-.203-.092.225 0-.203-.069.36.07-.045.116-.157l-.046.18c.023-.068.046-.023.092-.225l-.046.27.07-.27c.069-.136-.093.495-.047.428l-.092.202c.023-.045-.024.226.023.135.069-.247.139-.563.208-.743.047-.113-.046.293.023.023l-.092.292c-.023.09-.07.428-.047.428.047-.09.162-.45.162-.585.024 0 .001.157-.046.338.07-.09.047-.27.116-.428-.023.18-.046.428-.07.675l-.138.428h.023c-.093.338-.047.27-.139.608 0 .068.046-.067.092-.157.07-.586.232-.766.325-1.307.092-.135-.232 1.284 0 .473.023-.135.139-.54.069-.383.023.068.139-.517.139-.292-.069.202-.069.54-.185.833.046-.18 0-.135-.023-.09-.024.203-.116.518-.07.54.046-.045.07-.045.116-.315.069-.293-.046.023.046-.27.07-.09-.023.36.116-.158-.046.045.023-.27.069-.473l.07-.112-.046.202c.023.158.092-.36.139-.292l-.047.405c-.092.338-.046-.158-.162.383.023.022.093-.248.116-.09l-.046.112c0 .023-.116.766.023.338.069-.157.046-.202.092-.405.07-.045.139-.27.163-.293-.093.406.069.045-.07.45.023-.247-.069-.225-.162.158-.07.473-.023-.067-.139.406.046.022-.046.495-.116.81 0 .023.047-.112.07-.157.069-.293.046-.293.115-.586.047.09.116-.067.209-.338-.023.158-.07.428-.093.45.093-.067.139-.022.186.09.046-.472.092-.09.138-.495-.023-.112.024-.45.093-.675.023.022-.046.202-.046.315.069-.248-.047.428.069.023-.092.135-.116.585-.208.946.069-.203-.046.27 0 .27.069-.203.162-.36.231-.428 0 .36.139.045.209.022 0 .203-.093.608-.07.699.047 0 .047-.45.07-.248l-.023.09c.023-.09.046.315.162-.293l-.093.45c0 .046.023-.067.046-.112l-.069.383c-.023.315.069-.045.116-.045l.023-.27c.093-.203.093.067.162 0l-.046.27.069-.158c-.046.248-.046.428.023.225l-.208.631c0-.158.069-.315.116-.586.023-.225-.047-.18-.093.09.023.023.023-.022.046-.112-.046.36-.069.36-.139.586.024-.023.024.112.024-.023-.047.18-.07.203-.116.203l.046-.338c-.046.315-.116.428-.139.315.023-.383-.116.225-.162.113.07-.316.139-.586.209-.698 0-.18-.047 0-.047-.18a4.561 4.561 0 01-.208.765l.046-.248c-.069.113-.116.473-.162.406-.069-.135-.162-.158-.208-.203l.046-.248c-.139.518-.162.158-.255.383-.046-.247-.231.203-.185-.225-.185.158-.347.315-.486.203l.092-.338c-.069.248.023-.203-.023-.158-.023.293-.116.36-.185.563 0-.292-.162 0-.278.226l.046-.248c-.162.428-.139.022-.208-.068.023-.112.046-.338.023-.315-.139.383-.139.338-.255.586-.046 0-.092-.113-.116-.27-.301.517-.393.134-.648.427l.07-.293c-.325.563-.394 0-.626.248l.139-.473c0-.157-.139.09-.208.428 0-.158-.185.203-.093-.203-.023-.112-.116.203-.185.248-.046-.203-.093-.18-.208-.112l.023.045c.046-.113.092-.293.092-.338-.069.112-.069-.158-.231.405 0-.36-.301.203-.255-.27-.046.158-.069.18-.116.27-.092-.022-.069-.36-.231-.112.023-.09.115-.248.069-.293l-.116.27c-.231.248-.162-.383-.324-.338-.324.225-.486 0-.718-.022l.047-.113c-.232.405 0-.495-.301.135.023-.112-.047-.067.046-.27-.162.27-.046-.338-.278.022l.046-.045c.023-.27-.185.045-.185-.202l.116-.18c.046-.226-.278.427-.07-.09-.023 0-.115.27-.115.247-.093-.248-.417-.022-.672 0 0-.383.394-.878.116-.54.046-.113-.093.202-.046.09-.116.135.208-.608.046-.36-.139.315-.116.18-.185.36.023-.248.139-.54-.047-.338l.093-.158c-.301.428-.255.135-.579.653-.463-.112-1.019 0-1.459-.157-.347-.316-.903-.248-1.111-.789.185-.473.162-.45-.047-.36l.093-.135c-.232.338-.093-.023-.301.293-.093-.158-.278-.158-.417-.248.046-.023.232-.293.208-.27l-.162.202.047-.09c-.047.045-.186.18-.232.316-.556.022-.44-.856-.834-1.014.023-.18-.185-.158-.324-.158.07-.608.116-1.103-.394-.99-.115-.046.603-.812.857-.924z" fill="#000"/><path d="M108.981 51.647c.024-.203 0-.315.07-.563l-.07.563zm-.555-2.185v-.113c.023-.022.046-.18.046-.067l-.046.18zm-.185-.157a.576.576 0 01.139-.316l-.139.316zm-.07-.765c.023-.159.023-.227.046-.227l-.046.227zm-.092.404c-.024 0 0-.113 0-.204-.024.136.069-.09 0 .204zm-.325-.585c-.023.022-.07.158-.023-.046-.047.136.093-.203.023.046zm-.255.226c-.023-.068.024-.204.047-.227l-.047.227zm-3.797-.339l.046-.068-.069.158.023-.09zm-1.505-.653c-.069.09.07-.158.07-.18.023 0-.116.203-.07.18zm-1.227.382h.023l-.185.317.162-.317zm-21.745 34.98c.093.068.325-.068.139.045-.163 0-.255 0-.14-.045zm5.465-17.794c.649.744-.3.428.047.969.023.045-.417-.293-.348-.18.464.608-.092.675-.74.608l-.116-.09c-.116 0 .254.292.162.315l-.232-.158c.232.158.046.158.232.293l-.44-.203.254.203c.626.496-.185.158.116.473l-.185-.113c.301.406.093.586.116.856l-.394-.225c.301.18.347.27.37.36-.324-.157.255.248.047.226l-.07-.045c.302.225-.231-.023.162.225l-.254-.113c.44.248-.255-.067-.046.113l.092.045c.093.09-.139 0-.092.068l-.047-.023c.07.135-.208.068.162.225-.3-.112-.092-.135-.532-.315.231.45.046.676-.093.946l-.347-.09c.07.067.023.135.185.248 0-.023-.185-.068-.209-.068-.162-.022.371.225.186.203l-.324-.18c.254.18.185.202.254.315l-.208-.113c.3.203-.116.068.07.226l-.209-.113c-.301-.023.417.225.231.225l-.231-.112c.347.225.162.292.278.405l-.093-.045c.023.09-.139.112-.023.27-.116 0-.51-.225-.463-.112.417.18.116.202.602.36-.093.045-.301.067-.185.18-.14-.09-.533-.18-.556-.248l-.278-.067c-.162-.068.07-.023-.139-.09 0 .045.14.18.046.18.232.158.695.383.718.495-.139-.112-.486-.157-.555-.225l.787.428c.023.045-.347-.112-.232-.045l.278.135c-.046 0 .07.158-.347.023-.162-.045-.07-.09-.232-.113 0 .045.14.113.116.158l-.046-.023c-.07.023.139.158.393.225.024-.022-.254-.09-.115-.067.231.113.3.203.278.248l-.302-.135c.325.18.394.292.51.427.208.068-.37-.157-.255-.135-.324 0 .348.338-.092.293-.024-.022.3.09.231.068-.046.045-.324-.068-.231 0-.163-.045.046.067.092.112.116.068-.092-.022-.092-.045.138.09.347.36.07.383.115.045.416.203.393.225l-.255-.09c-.162-.022 0 .09-.232.023.325.158-.231-.293.024-.135-.232-.045.393.225.046.09 0 .045.278.18.023.157.046 0-.37-.157-.347-.112l.208.135.093.068c.254.09-.047.045.254.112-.231-.067.116.135-.324 0l-.347-.112c.023.045.347.157.486.225l-.162-.045c.533.157-.07.067.324.203-.208 0-.07.157-.393.09.139.09.324.18.185.202-.046-.022-.046-.045-.162-.067-.162 0-.023.045.046.09-.07-.023-.324-.023-.532-.023.138.09.44.158.602.203-.533-.09.3.225-.186.158a.794.794 0 00-.393-.136c-.533-.09.37.18.092.18l.44.09c-.278-.044.232.158-.208.046.139.067-.162.045.255.135-.394.022.138.315-.649.203.07.022-.023.067.209.09.254.022-.163-.068 0-.045 0 .022.115.045.185.067-.116.023-.14.023-.486-.09-.302.023.717.248.509.316-.185-.046-.255-.046-.232-.023l.301.113c-.092.045-.416-.045-.717-.113.046.045.023.09.231.158l-.394-.045c.278.022.186.067.255.09l-.07-.023c-.138-.022-.069.045-.022.068.185.022.278 0 .347 0 .116.045.093.067.231.112-.3-.067-.231.023-.277.023-.07.023.254.09.254.09-.162-.023-.046.045-.254-.023-.047-.022.162 0 .023-.044-.116 0-.394-.068-.209.022.14.068.58.113.394.135l-.301-.09-.162.023.278.045-.14-.023c.279.068.07.113.394.18.024.023-.208.023-.231.045h-.023c-.162 0-.07.068.116.136l-.07-.023c-.023.023.023.068.162.113-.208.022-1.042-.158-.695-.045 0 .045.487.157.672.18-.185.045.255.225-.185.248l.231.067c-.115.113.301.315-.254.338l-.44-.068c.254.068-.255 0 .162.068.254.022.37.045.463.022.116.09.116.203-.116.226l.255.045c-.394-.068-.463 0-.324.045l.231.045h-.255c.07.022.51.09.278.09l-.254-.023c.185.068.532.18.324.203h-.347c.023.023.254.09.347.068-.232.045-.255.112-.556.09.718.225.741.428.672.585l-.186-.022c-.185.022.325.045.186.067l-.602-.045c-.186.045.3.113.393.158.232.023-.139-.045.162-.022.093.022-.185.067.162.112l-.555-.045.162.045c-.44.023-.741-.158-1.274-.158l.046.046c-.37 0-.416-.136-.555-.046.185.046.694.136.856.113.093.09.857.113.811.18-.208 0-.046-.067-.347-.067-.301.022.162.09.046.112.139-.022.51.023.556.068-.162.022-.348-.045-.394 0 .208.022.347.09.51.045.463.045-.14.045.231.112-.324 0-.764-.112-.926-.067.324.022.417.113.903.113-.093.022-.347 0-.533-.023-.208.023.58.135-.07.113l.325.022c-.116 0-.185.023-.37.023 0 .022.44.135-.07.112.046.023.023.09.37.068.209-.045-.254-.068.209-.068-.37.023.046.068.162.113h-.185c.07.022.023.045.231.067h-.278l.302.023c.138.068-.51 0-.44.068l-.232-.068c.046.023-.232.023-.139.068.255.022.579.067.787.067.116.045-.3 0-.023.045l-.324-.067c-.093 0-.44.022-.44.067.093.045.463.09.625.045 0 .023-.162.045-.347.023.093.067.301 0 .44.045-.185.022-.44.067-.695.09l-.44-.068v.023c-.347-.045-.278.022-.648-.023-.07.023.07.045.162.068.602-.045.81.09 1.366.09.14.09-1.343.023-.486.135.139-.022.556.045.394-.022-.07.045.555.045.324.112-.232-.045-.556.045-.88-.022.185 0 .139-.045.092-.045-.208.022-.555-.023-.555.045.046.045.046.09.347.09.324 0-.023-.045.278-.023.116.068-.37.068.185.113-.046-.045.278-.045.51-.045l.115.045-.208-.023c-.162.068.37.023.301.113l-.417.023c-.347-.023.162-.113-.417-.113-.023.045.255.067.116.113l-.116-.046c-.023.023-.787.046-.347.113.185.045.208 0 .417.023.07.09.3.112.324.157-.417 0-.046.09-.486.045.254-.022.208-.157-.186-.18-.509.023.07-.067-.44-.09-.023.068-.509.068-.833.068-.023.022.116.045.162.045.301 0 .301-.023.625-.023-.07.068.093.158.394.18-.14.023-.44.023-.486 0 .092.09.046.18-.024.27.487-.067.116.09.533.046.116-.045.463-.09.695-.068-.023.023-.209 0-.325.023.278.022-.44.067 0 .09-.162-.068-.602 0-.995 0 .231.067-.278 0-.278.067.208.045.394.113.486.18-.37.09 0 .203.023.293-.208.045-.625.045-.718.09 0 .045.464-.067.278.023h-.092c.115.022-.301.158.347.135h-.486c-.047.023.07.023.116.023l-.394.022c-.324.068.046.09.07.158l.277-.045c.232.067-.046.157.047.225l-.278.022.162.045c-.255 0-.44.068-.209.068l-.671-.09c.162-.045.324.022.602-.023.231-.045.162-.112-.116-.112-.023.022.023.022.139.045-.394.045-.37-.023-.625-.023.023.023-.093.045.023.045-.185-.022-.208-.045-.232-.112l.348-.023c-.324.023-.44-.022-.348-.09.394-.067-.254-.112-.162-.203.348.023.626.046.764.068.163-.068-.023-.045.163-.113-.255 0-.649 0-.81-.067l.254-.023c-.14-.045-.51-.022-.44-.112.116-.135.116-.248.139-.36l.255-.023c-.533-.045-.209-.158-.44-.225.231-.113-.255-.27.185-.316-.209-.202-.37-.405-.255-.608l.37.045c-.254-.045.209-.022.163-.067-.301.045-.37-.068-.602-.09.3-.09 0-.226-.255-.316h.255c-.464-.112-.047-.203.046-.293.116 0 .347-.022.324-.045-.394-.067-.37-.112-.625-.202 0-.068.116-.158.278-.226-.556-.27-.162-.495-.487-.788h.302c-.603-.293 0-.563-.302-.788l.51.067c.162-.045-.116-.157-.486-.18.162-.045-.232-.203.185-.18.093-.045-.232-.113-.278-.18.208-.113.162-.158.093-.316l-.047.023c.116.023.325.068.348.023-.14-.068.162-.158-.44-.203.347-.09-.255-.36.231-.428-.162-.023-.185-.045-.3-.09 0-.113.346-.203.092-.338.092 0 .278.09.3.022l-.3-.09c-.301-.248.37-.338.347-.518-.231-.36.023-.653.07-.968l.115.022c-.416-.202.533-.112-.138-.36.115 0 .069-.068.3 0-.3-.158.371-.135 0-.36l.047.045c.3-.046-.023-.248.231-.293.047.022.07.067.186.09.231.022-.463-.248.115-.113 0-.022-.277-.09-.254-.067.3-.203.023-.586-.023-.901.393-.09.949.293.579 0 .115.022-.209-.068-.093-.045-.14-.113.648.112.37-.023-.347-.09-.185-.09-.393-.157.254-.046.579.022.347-.158l.185.067c-.463-.27-.162-.315-.718-.608.047-.653-.046-1.351.209-1.96.37-.517.394-1.193.972-1.621.51.09.51.068.394-.158l.139.09c-.347-.202.023-.112-.324-.315.185-.18.162-.428.3-.63.024.044.302.225.302.18l-.209-.158.093.045c-.046-.045-.185-.18-.324-.225.046-.698 1.065-.789 1.32-1.33.231-.022.208-.27.231-.45.695-.09 1.274-.157 1.228-.743-.07.18.718.834.833 1.126zm-5.511 17.727c.208-.023.324-.09.579-.068l-.58.068z" fill="#000"/><path d="M81.216 81.49c-.07 0 .07-.022.116-.022.024.022.186.022.093.045-.023-.023-.116 0-.209-.023zm.117-.315c.186 0 .325.068.348.113l-.348-.113zm.741-.27c.163-.022.232-.022.232.023l-.232-.023zm-.417-.022c0-.022.116-.045.209-.045-.162 0 .093.045-.209.045zm.579-.608c-.023-.023-.163-.046.046-.069-.139.023.232.091-.046.069zm-.232-.293v-.023c.093-.023.209 0 .232.023h-.232zm.093-5.316l.07.069-.163-.069h.093zm.648-2.253c-.093-.068.162.046.185.046.023.022-.185-.091-.185-.046zm-.37-1.531v.022l-.325-.158.325.136zm28.228 20.744c.023.113.278.158.093.113-.116-.09-.209-.159-.093-.113zm4.932-17.14c.95.135 0 .518.626.698.046.023-.51.023-.394.09.741.18.324.609-.232.901l-.138-.022c-.093.067.393.112.324.158h-.278c.301 0 .139.09.347.112l-.486.068.347.022c.811.09-.046.225.371.338h-.209c.487.203.417.45.602.698l-.463-.022c.348.022.44.09.51.157-.348.023.324.113.116.18h-.07c.371.068-.232.068.232.136l-.278.022c.509.045-.278.068-.023.113h.115c.116.045-.139.068-.046.09h-.046c.116.09-.162.135.231.158-.324.022-.139-.09-.602-.068.371.316.278.608.255.924l-.371.022c.07.045.07.113.255.158 0 0-.208 0-.231.022-.162.045.44.09.254.135l-.37-.067c.301.09.255.135.347.203-.069-.023-.092-.045-.231-.045.347.112-.093.112.139.18l-.232-.045c-.278.067.486.09.301.135l-.255-.045c.417.112.255.225.394.315l-.093-.022c.047.09-.092.157.07.27-.116.023-.556-.09-.486 0 .463.067.185.18.694.203-.069.067-.255.157-.116.225-.162-.068-.555-.045-.602-.113h-.278c-.185-.045.07-.045-.162-.067.024.022.186.135.116.157.278.09.788.226.834.338-.162-.067-.51-.067-.579-.09l.857.27c.023.023-.371-.045-.255 0l.278.09c-.046 0 .069.136-.371.09-.185-.022-.069-.067-.254-.067 0 .068.139.09.139.135h-.07c-.069.023.162.135.417.158.023-.023-.278-.045-.139-.045.255.067.301.157.301.203l-.324-.09c.324.135.417.247.532.36.209.045-.37-.113-.254-.09-.325.045.347.315-.093.315-.023-.022.301.045.232.045-.047.045-.348-.022-.232.045-.185-.045.046.045.093.113.115.045-.093 0-.093-.045.139.09.371.338.07.383.115.022.416.157.393.202l-.278-.067c-.162-.023 0 .09-.231.045.324.135-.232-.27.023-.135-.232-.023.417.202.046.112 0 .045.301.18.023.158.047 0-.37-.135-.37-.09l.208.135.116.068c.255.067-.046.067.255.112-.232-.045.116.135-.324.023l-.348-.09c.023.045.348.135.51.202l-.162-.022c.532.135-.07.067.347.203-.208.022-.07.157-.417.112.139.09.324.203.209.225-.047-.022-.07-.045-.163-.09-.162 0-.023.045.047.09-.07-.022-.324-.022-.533-.022.139.09.44.157.602.203-.532-.09.301.247-.185.157-.07-.045-.232-.157-.394-.135-.532-.112.371.203.093.203l.44.112c-.278-.045.231.18-.209.046.139.067-.162.044.255.157-.393.023.139.383-.648.203.069.045-.023.067.208.112.232.046-.162-.09 0-.045 0 .023.116.068.185.068-.115 0-.138.022-.486-.113-.278 0 .695.316.486.383-.162-.067-.231-.067-.231-.022l.278.157c-.093.045-.417-.09-.695-.18.046.045.023.09.232.18l-.371-.067c.278.045.162.09.232.135l-.07-.045c-.116-.045-.069.022-.023.067.185.046.278.046.324.023.116.068.093.09.232.158-.278-.113-.232 0-.255.022-.069.023.255.135.232.135-.139-.045-.047.045-.232-.045-.046-.022.162.023.023-.045-.115-.022-.37-.112-.208 0 .139.09.579.18.37.203l-.277-.135-.163.022.255.09-.116-.045c.278.113.047.135.371.248.023.045-.209 0-.255.023l-.023-.023c-.162-.022-.093.068.069.158l-.046-.023c-.023.023 0 .068.139.158-.231-.023-.996-.338-.695-.18-.023.045.44.248.602.293-.208.022.163.292-.277.202l.208.113c-.162.09.162.405-.394.293l-.393-.158c.208.113-.255-.068.139.113.231.09.347.135.463.135.092.135.023.248-.209.203l.232.112c-.371-.157-.44-.135-.347-.022l.208.09-.232-.068c.07.045.464.225.232.18l-.255-.09c.162.113.44.316.232.293l-.348-.113c.024.046.209.158.325.158-.232 0-.278.045-.579-.068.602.451.532.676.393.811l-.162-.09c-.185-.022.278.158.139.135l-.532-.247c-.209-.023.254.225.301.293.208.112-.116-.09.139.044.069.046-.209 0 .115.18l-.486-.247.139.113c-.394-.135-.625-.428-1.112-.609l.047.068c-.348-.135-.348-.27-.51-.248.139.113.602.383.765.406.046.112.764.405.694.473-.208-.068-.023-.09-.278-.203-.278-.09.116.158 0 .135.139.023.44.203.487.27-.162-.022-.301-.18-.348-.135.186.113.301.225.44.248.417.225-.162 0 .162.203-.301-.135-.648-.406-.833-.406.301.135.347.27.787.45a2.919 2.919 0 01-.486-.224c-.185-.046.463.36-.093.09l.278.157c-.093-.045-.185-.045-.347-.112-.023.022.347.315-.093.09.046.022-.023.112.301.225.208.045-.185-.18.232.023-.348-.136 0 .09.115.18l-.162-.09c.047.045 0 .067.186.18l-.255-.135.255.157c.092.136-.464-.225-.417-.112l-.185-.158c.046.023-.209-.067-.163 0l.672.406c.093.09-.278-.113-.046.044l-.255-.202c-.07-.045-.394-.18-.417-.113.07.068.371.316.533.316 0 .022-.162-.023-.324-.136.046.113.254.136.37.248-.162-.067-.417-.112-.672-.203l-.37-.27-.023.023c-.278-.203-.255-.113-.556-.316-.069 0 .046.09.116.158.556.225.671.473 1.158.72.092.159-1.181-.585-.487-.067.139.045.464.293.371.158-.07.022.463.315.231.27-.162-.157-.509-.225-.764-.45.162.09.139.022.093 0-.185-.09-.486-.27-.51-.225.024.067.024.112.255.247.278.158 0-.067.255.113.069.135-.347-.09.116.203-.023-.068.278.09.463.18l.092.112-.185-.112c-.162.022.324.203.232.27l-.371-.158c-.301-.202.209-.045-.301-.315-.046.045.209.203.047.18l-.07-.09c-.023 0-.695-.36-.347-.045.139.113.162.113.347.225 0 .113.185.248.162.316-.347-.226-.092.067-.417-.203.232.09.278-.023-.046-.27-.44-.226.093-.023-.324-.293-.047.067-.463-.203-.741-.338-.023 0 .069.09.116.135.254.158.277.135.532.293-.116.022-.023.18.209.36-.139-.045-.394-.202-.394-.248.023.136-.07.203-.208.226.463.203.046.157.416.338.116.022.44.157.626.292-.047.023-.186-.112-.278-.157.208.18-.394-.18-.07.09-.092-.158-.509-.338-.81-.54.139.157-.232-.136-.278-.09.139.157.255.314.278.427-.371-.112-.139.18-.162.27-.186-.067-.533-.337-.626-.337-.023.045.417.225.209.18l-.07-.045c.07.067-.324-.045.186.315l-.394-.27c-.046-.023.046.067.069.09l-.324-.225c-.301-.136-.023.112-.023.157l.255.135c.139.203-.139.09-.093.226l-.231-.158.115.135c-.208-.157-.37-.225-.208-.067l-.486-.496c.162.068.254.225.486.36.208.113.185 0-.023-.157-.047 0 0 .045.069.112-.324-.202-.278-.225-.486-.383 0 .023-.093-.022 0 .046-.139-.136-.139-.18-.116-.226.116.113.209.113.301.18-.278-.18-.347-.292-.231-.292.347.18-.139-.226-.024-.226.278.203.487.383.579.496.163.045.024-.045.186 0-.209-.158-.51-.383-.602-.518l.208.135c-.069-.113-.394-.315-.301-.338.162-.022.232-.135.324-.18l.209.135c-.417-.315-.07-.248-.232-.428.278.023-.069-.338.347-.157-.046-.248-.139-.519.024-.654l.301.203c-.209-.158.185.09.162.023-.278-.113-.301-.226-.487-.36.278.044.07-.203-.115-.406l.231.112c-.37-.292.023-.18.139-.247.093.045.324.135.301.09-.324-.248-.301-.248-.486-.45.023-.046.162-.09.324-.068-.417-.45.023-.496-.185-.834l.278.113c-.463-.473.162-.473-.047-.766l.44.225c.162 0-.069-.18-.393-.293.162 0-.162-.225.231-.09.116-.022-.185-.157-.231-.225.231-.022.208-.09.162-.225l-.047.022c.093.046.301.136.348.113-.116-.09.185-.09-.394-.27.371.022-.139-.36.347-.293-.162-.045-.162-.09-.277-.135.046-.09.393-.068.185-.248.092.023.255.113.278.09l-.278-.135c-.209-.248.44-.203.394-.383-.232-.36 0-.585.023-.856l.115.045c-.416-.225.51-.067-.138-.338.115.023.069-.067.301.023-.301-.158.347-.113-.024-.315l.047.045c.278-.023-.047-.203.231-.248.047.022.07.045.186.09.231.023-.464-.225.092-.09 0-.023-.278-.09-.255-.068.278-.18-.023-.518-.069-.788.394-.09.973.203.579-.022.116.022-.209-.068-.093-.023-.139-.09.672.068.371-.045-.348-.068-.185-.068-.394-.113.255-.045.579 0 .347-.157l.186.045c-.487-.203-.186-.27-.764-.473.069-.54-.186-1.104-.232-1.645.162-.495-.07-1.036.324-1.531.51-.09.486-.113.301-.248l.185.023c-.416-.023-.023-.09-.416-.136.092-.202.023-.382 0-.563.046.023.37.068.347.023l-.255-.045h.116a.991.991 0 00-.394-.045c-.37-.496.417-.991.301-1.487.163-.135 0-.293-.092-.405.532-.406.949-.811.556-1.171-.278-.023.764-.09 1.018.067zm-4.908 17.05c.185.113.301.135.486.315l-.486-.315z" fill="#000"/><path d="M113.103 91.58c-.046-.022.093.023.116.046 0 .022.139.135.046.09l-.162-.136zm.302-.246c.14.09.232.226.232.293l-.232-.293zm.81.112c.139.068.209.09.185.136l-.185-.136zm-.348-.225c0-.023.116.023.209.045-.139-.068.069.113-.209-.045zm.788-.383c0-.023-.116-.136.07-.045-.14-.046.162.18-.07.045zm-.093-.428v-.022c.093.022.186.113.186.135l-.186-.113zm1.691-5.811l.093.045-.186-.045h.093zm.673-2.523c-.117-.046.162 0 .208 0 0 .047-.208-.046-.208 0zm-.649-1.508v.022l-.348-.068.348.046z" fill="#000"/><path d="M41.109 102.28a5.421 5.421 0 00-2.455-1.621c-.973-.316-2.293-.473-3.96-.473h-6.878v.473h.695c.718 0 1.25.18 1.598.563.255.27.37.946.37 2.049v11.239c0 .992-.092 1.622-.277 1.892-.348.473-.904.721-1.714.721h-.672v.473h8.06v-.473h-.719c-.694 0-1.227-.18-1.574-.563-.255-.27-.394-.946-.394-2.05v-5.067c.602.112 1.158.202 1.69.27.533.068 1.02.09 1.46.09 1.829 0 3.264-.45 4.26-1.329.996-.901 1.505-2.049 1.505-3.468 0-1.059-.324-1.96-.995-2.726zm-3.22 5.654c-.694.698-1.505 1.036-2.454 1.036-.255 0-.579-.023-.95-.068a20.76 20.76 0 01-1.296-.203v-7.252c.718-.158 1.32-.248 1.783-.248.764 0 1.459.158 2.06.473.603.315 1.066.811 1.39 1.464a4.65 4.65 0 01.487 2.095c.023 1.126-.325 2.004-1.02 2.703zm22.346 8.152a.774.774 0 01-.393.09.578.578 0 01-.37-.135c-.117-.09-.186-.248-.232-.495-.047-.248-.07-.946-.07-2.05v-3.987c0-1.126-.093-1.892-.255-2.252a2.542 2.542 0 00-1.204-1.239c-.718-.338-1.644-.518-2.779-.518-1.459 0-2.616.315-3.427.923-.81.631-1.227 1.307-1.227 2.05 0 .383.116.698.324.924.209.225.51.337.857.337s.648-.112.857-.315c.231-.203.324-.518.324-.901l-.023-.743c0-.383.162-.698.532-.991.348-.293.81-.428 1.39-.428.764 0 1.343.225 1.76.653.393.428.602 1.239.602 2.41v.473c-2.177.743-3.752 1.352-4.678 1.87-.95.518-1.598 1.058-1.968 1.644-.278.428-.417.901-.417 1.486 0 .901.278 1.622.857 2.185s1.297.834 2.176.834c.556 0 1.089-.113 1.598-.316.325-.135 1.158-.675 2.455-1.621 0 .698.139 1.193.417 1.464.278.292.625.428 1.088.428.95 0 1.945-.654 2.987-1.937v-.721c-.602.45-.995.766-1.18.878zm-3.334-1.013c-1.158.833-2.084 1.261-2.78 1.261-.509 0-.972-.203-1.389-.608a2.08 2.08 0 01-.602-1.509c0-.473.162-.924.464-1.329.324-.406.833-.789 1.574-1.149.417-.203 1.32-.563 2.71-1.081v4.415h.023zm17.924-9.234v.473c.857.022 1.413.135 1.668.383.278.225.393.698.393 1.351v6.667c-.694.654-1.296 1.104-1.783 1.329-.51.225-.95.338-1.343.338-.579 0-1.088-.18-1.482-.518-.417-.338-.625-1.059-.625-2.162v-7.884h-4.47v.473c.672 0 1.135.045 1.39.158.255.113.44.27.579.473.139.203.208.586.208 1.104v5.293c0 1.104.093 1.959.301 2.568a3.08 3.08 0 001.089 1.486 3.066 3.066 0 001.852.586c.626 0 1.25-.135 1.83-.428.579-.27 1.412-.969 2.5-2.05v2.478h.626l3.82-1.419-.184-.473c-.37.157-.695.225-.973.225a.844.844 0 01-.533-.18c-.162-.113-.254-.338-.347-.631-.07-.293-.116-1.126-.116-2.455v-7.163h-4.4v-.022zm16.882-6.487l-3.821 1.419.231.473c.37-.136.672-.203.927-.203a1 1 0 01.555.158c.14.112.255.315.325.63.069.316.092 1.126.092 2.455v10.654c0 .721-.07 1.216-.185 1.464a1.073 1.073 0 01-.51.541c-.208.112-.602.157-1.18.157v.473h6.275v-.473c-.671 0-1.111-.067-1.366-.18a1.114 1.114 0 01-.533-.54c-.116-.248-.185-.721-.185-1.442V99.352h-.625zm17.53 6.126c-.116.202-.208.338-.278.383a.573.573 0 01-.347.09c-.162 0-.463-.068-.95-.18-.718-.203-1.32-.293-1.806-.293-1.135 0-2.061.315-2.756.968-.717.653-1.065 1.464-1.065 2.433 0 .743.209 1.351.625 1.847.417.495 1.297 1.058 2.64 1.667 1.343.608 2.223 1.126 2.663 1.531.44.406.672.901.672 1.487 0 .495-.209.901-.602 1.261-.394.338-.926.518-1.552.518-.903 0-1.713-.315-2.431-.923-.718-.609-1.204-1.509-1.482-2.726h-.487v4.19h.487a.558.558 0 01.509-.271c.185 0 .44.045.741.113.996.248 1.876.36 2.663.36a4.698 4.698 0 002.918-.991c.88-.653 1.32-1.509 1.32-2.59 0-1.396-.949-2.5-2.825-3.356l-2.015-.923c-.88-.383-1.459-.766-1.737-1.127-.277-.337-.416-.743-.416-1.238 0-.383.208-.744.579-1.059.393-.315.903-.473 1.551-.473.834 0 1.528.225 2.061.676.533.45.996 1.306 1.343 2.567h.486v-4.009h-.509v.068zm17.993 9.708c-.625.428-1.343.631-2.177.631-1.25 0-2.339-.496-3.265-1.464-.926-.991-1.389-2.343-1.389-4.077h8.846c0-1.464-.464-2.613-1.367-3.491-.926-.879-2.084-1.306-3.52-1.306-1.69 0-3.103.563-4.214 1.689-1.112 1.126-1.667 2.703-1.667 4.707 0 1.847.532 3.334 1.644 4.438 1.088 1.103 2.408 1.644 3.936 1.644 1.413 0 2.571-.473 3.52-1.442.95-.968 1.505-2.049 1.691-3.243l-.487-.27c-.416 1.036-.926 1.779-1.551 2.184zm-5.743-7.973c.602-.541 1.297-.834 2.084-.834.51 0 .996.136 1.459.406.463.27.81.653 1.042 1.126.139.315.255.833.301 1.599h-5.951c.092-.968.44-1.734 1.065-2.297zm18.849-1.735h-.602l-3.867 1.419.209.473c.37-.136.671-.203.949-.203.232 0 .44.045.579.158.139.112.255.315.324.63.07.316.116 1.171.116 2.568v4.392c0 .856-.116 1.419-.324 1.734-.232.293-.649.451-1.274.451h-.278v.473h6.276v-.473c-.695 0-1.158-.068-1.39-.18a1.12 1.12 0 01-.532-.541c-.093-.18-.162-.676-.162-1.464v-6.239c1.088-1.126 2.176-1.667 3.265-1.667.694 0 1.204.248 1.505.721.301.495.44 1.261.44 2.342v4.843c0 .676-.023 1.059-.046 1.194a1.328 1.328 0 01-.51.743c-.231.158-.648.248-1.25.248h-.255v.473h6.345v-.473c-.625 0-1.042-.068-1.274-.18a1.024 1.024 0 01-.486-.496c-.139-.27-.185-.766-.185-1.509v-5.023c0-1.058-.093-1.847-.301-2.365-.301-.743-.695-1.261-1.181-1.599-.487-.315-1.089-.473-1.783-.473-1.343 0-2.756.811-4.238 2.455v-2.432h-.07z" fill="#528FBF"/><path d="M37.704 134.636c.304 0 .568.104.792.312.224.208.336.472.336.792l-.048 6.06.144-.252 5.412-6.756h.252v8.196h-.744l.036-6.648-.168.264-3.84 4.896-1.332 1.5h-.456v-7.248a.434.434 0 00-.12-.3.364.364 0 00-.276-.132.503.503 0 00-.204.048.37.37 0 00-.168.144l-.564-.384a1.147 1.147 0 01.948-.492zm11.667 8.544a5.258 5.258 0 01-1.74-.288 6.098 6.098 0 01-1.428-.708l.336-.588c.392.28.816.504 1.272.672.464.16.932.24 1.404.24.672 0 1.212-.176 1.62-.528.416-.352.624-.82.624-1.404 0-.36-.088-.684-.264-.972a1.776 1.776 0 00-.72-.696 2.073 2.073 0 00-1.02-.252h-1.8v-.672h1.788c.264 0 .516-.068.756-.204.248-.144.448-.328.6-.552.152-.224.228-.456.228-.696 0-.368-.164-.664-.492-.888-.32-.232-.736-.348-1.248-.348-.448 0-.904.056-1.368.168-.464.104-.804.232-1.02.384l-.18-.648c.264-.168.628-.304 1.092-.408a6.116 6.116 0 011.44-.168c.752 0 1.356.168 1.812.504.456.336.684.776.684 1.32 0 .408-.124.796-.372 1.164-.24.36-.532.596-.876.708.488.088.888.356 1.2.804.32.44.48.956.48 1.548 0 .496-.12.936-.36 1.32-.232.376-.56.668-.984.876-.424.208-.912.312-1.464.312zm11.05 1.74V143h-6.467v1.92h-.72v-2.592l.66-.024c.576-1.016 1.016-1.892 1.32-2.628.304-.736.528-1.46.672-2.172.144-.712.272-1.616.384-2.712h3.816l-.012 7.536h1.068v2.592h-.72zm-3.515-9.456c-.152 1.36-.388 2.524-.708 3.492-.32.968-.84 2.092-1.56 3.372h4.728v-6.864h-2.46zm5.995 7.692a1.08 1.08 0 01-.66-.204.951.951 0 01-.348-.528l.552-.3c.04.104.096.192.168.264a.43.43 0 00.276.096.287.287 0 00.228-.096c.064-.064.128-.172.192-.324l3.072-7.38h.24L70.113 143h-.768l-1.14-2.724h-3.42l-.9 2.232c-.08.2-.212.36-.396.48-.184.112-.38.168-.588.168zm5.016-3.552l-1.296-3.228-.132-.48-.12.48-1.296 3.228h2.844zm3.366-4.14a.366.366 0 00-.3.132.4.4 0 00-.108.276h-.684c0-.296.104-.548.312-.756.216-.216.464-.324.744-.324h5.436v.672h-2.808V143h-.72v-7.536h-1.872zm7.601 0c-.16 0-.28.012-.36.036a.387.387 0 00-.192.108.692.692 0 00-.132.204.614.614 0 00-.048.228l-.66-.012c.016-.376.136-.676.36-.9.12-.112.26-.192.42-.24.168-.056.376-.088.624-.096h5.244v.672h-4.536v2.856H82.7v.672h-3.096v3.336h4.536V143h-5.256v-7.536zm7.174 7.728a1.244 1.244 0 01-1.02-.504l.528-.408a.627.627 0 00.528.252c.175 0 .312-.048.407-.144.105-.104.197-.26.276-.468.088-.24.153-.516.192-.828.049-.32.093-.688.133-1.104l.023-.288c.097-1.208.153-2.844.168-4.908l5.004-.012V143h-.72v-7.536h-3.611a69.63 69.63 0 01-.144 3.972c-.088 1.376-.245 2.328-.469 2.856-.127.304-.295.532-.503.684-.209.144-.472.216-.792.216zm11.044-4.884c.544 0 1.028.108 1.452.324.424.208.752.5.984.876.24.376.36.8.36 1.272 0 .496-.14.94-.42 1.332-.272.392-.668.672-1.188.84-.344.112-.812.168-1.404.168-.68 0-1.2-.02-1.56-.06l-.624-.072v-8.196h.72v3.516h1.68zm-.096 4.152c.68 0 1.212-.144 1.596-.432.392-.288.588-.704.588-1.248 0-.528-.18-.96-.54-1.296-.352-.336-.844-.504-1.476-.504h-1.752v3.42l.78.036.804.024zm8.173.816a3.905 3.905 0 01-2.088-.576 4.162 4.162 0 01-1.452-1.572 4.541 4.541 0 01-.528-2.16c0-.8.184-1.544.552-2.232a4.35 4.35 0 011.5-1.656 3.771 3.771 0 012.088-.612c.472 0 .924.072 1.356.216.44.136.796.34 1.068.612.28.272.42.6.42.984 0 .312-.112.58-.336.804a1.063 1.063 0 01-.78.324c-.24 0-.468-.08-.684-.24l.42-.528a.545.545 0 00.276.096.33.33 0 00.264-.132.513.513 0 00.108-.336c0-.232-.112-.432-.336-.6a2.273 2.273 0 00-.816-.384 3.655 3.655 0 00-.948-.132 3.11 3.11 0 00-1.764.528c-.52.344-.928.808-1.224 1.392a4.134 4.134 0 00-.444 1.896c0 .656.14 1.264.42 1.824.288.552.684.992 1.188 1.32.512.32 1.096.48 1.752.48.576 0 1.112-.128 1.608-.384a3.328 3.328 0 001.224-1.08l.552.384a3.926 3.926 0 01-1.488 1.32c-.6.296-1.236.444-1.908.444zm5.209-7.812a.366.366 0 00-.3.132.4.4 0 00-.108.276h-.684c0-.296.104-.548.312-.756.216-.216.464-.324.744-.324h5.436v.672h-2.808V143h-.72v-7.536h-1.872zm7.601-.132c-.16 0-.28.012-.36.036a.387.387 0 00-.192.108.692.692 0 00-.132.204.614.614 0 00-.048.228l-.66-.012c.016-.376.136-.676.36-.9.12-.112.26-.192.42-.24.168-.056.376-.088.624-.096h2.64c.456 0 .868.092 1.236.276.368.176.656.428.864.756.216.328.324.708.324 1.14 0 .4-.084.748-.252 1.044-.16.288-.38.48-.66.576a.263.263 0 00-.072.036 2.717 2.717 0 01-.288.096c.048.016.104.032.168.048.072.016.144.04.216.072.4.184.712.464.936.84.224.368.336.796.336 1.284 0 .784-.292 1.364-.876 1.74-.576.368-1.396.552-2.46.552-.672 0-1.168-.02-1.488-.06l-.636-.072v-7.656zm2.328 7.128c1.608 0 2.412-.552 2.412-1.656 0-.568-.192-1.012-.576-1.332-.384-.328-.864-.492-1.44-.492h-1.14v-.66h1.056c.52 0 .936-.132 1.248-.396.312-.264.468-.632.468-1.104 0-.464-.14-.82-.42-1.068-.272-.256-.644-.396-1.116-.42h-2.1v7.068l1.176.048.432.012zm8.525.744c-.776 0-1.48-.18-2.112-.54a4.116 4.116 0 01-1.488-1.5 4.257 4.257 0 01-.54-2.124v-.228c0-.784.18-1.496.54-2.136a3.975 3.975 0 011.476-1.524 4.01 4.01 0 012.076-.552c.768 0 1.464.184 2.088.552a3.975 3.975 0 011.476 1.524c.36.64.54 1.352.54 2.136v.228c0 .792-.176 1.504-.528 2.136a3.874 3.874 0 01-1.452 1.488c-.616.36-1.308.54-2.076.54zm-.036-.672a3.297 3.297 0 002.928-1.704 3.636 3.636 0 00.444-1.788v-.228c0-.664-.152-1.264-.456-1.8a3.23 3.23 0 00-1.224-1.272 3.233 3.233 0 00-1.716-.468 3.21 3.21 0 00-1.704.468c-.512.312-.916.74-1.212 1.284a3.636 3.636 0 00-.444 1.788v.228c0 .656.148 1.252.444 1.788.296.528.7.944 1.212 1.248.52.304 1.096.456 1.728.456z" fill="#727171"/></svg>