<svg width="346" height="156" fill="none" xmlns="http://www.w3.org/2000/svg"><rect width="346" height="156" rx="14" fill="#E1E1E1"/><path d="M284.639 70.38c-.532.518-1.111.846-1.649 1.213a13.657 13.657 0 00-2.746 2.386c-1.091 1.258-1.824 2.654-1.993 4.345-.114 1.2-.316 2.386-.101 3.579.37 2.11.788 4.214 1.851 6.121a42.204 42.204 0 002.82 4.372c1.394 1.907 3.177 3.434 4.9 5.02.976.898 2.127 1.6 3.211 2.366.727.518 1.48.977 2.295 1.357.101.046.202.098.303.144.855.347.935.295.935-.61v-33.99c0-1.933-.881-3.44-2.396-4.613-.626-.485-1.38-.721-2.187-.721-3.817 0-7.626-.033-11.442.006-8.252.073-16.504.007-24.762.033-.633 0-.64-.006-.64-.603V45.79c0-.13 0-.262.014-.393.013-.15.094-.236.256-.242.181 0 .356-.007.538-.007 9.78 0 19.559-.006 29.339.007 1.299 0 2.605.13 3.87.406 1.79.393 3.385 1.213 4.886 2.255 1.508 1.048 2.76 2.353 4.039 3.63 3.123 3.133 6.239 6.266 9.362 9.4 2.921 2.929 5.842 5.852 8.756 8.788 1.091 1.101 2.174 2.202 3.278 3.284.707.695 1.239 1.54 1.824 2.333.963 1.304 1.663 2.72 2.161 4.254.471 1.455.666 2.923.666 4.437-.013 7.491-.007 14.976-.007 22.467 0 .793.115.721-.767.721h-48.851c-1.595 0-3.176-.177-4.738-.446-.72-.124-1.407-.426-2.093-.688-1.784-.681-3.332-1.75-4.934-2.752-1.716-1.069-3.15-2.445-4.617-3.789-1.131-1.035-1.985-2.294-2.793-3.578-.081-.131-.155-.269-.242-.394-.781-1.114-1.192-2.385-1.636-3.644-.545-1.54-.687-3.139-.828-4.751-.121-1.33 0-2.615.296-3.887.471-2.032 1.326-3.92 2.376-5.741 1.043-1.81 2.639-3.041 4.335-4.201a13.715 13.715 0 013.197-1.645c1.972-.695 3.944-1.37 6.111-1.35 5.694.039 11.395.012 17.089.012.195.014.397-.026.714.105zm-117.187.177c-.579.57-1.158 1.14-1.743 1.704-4.395 4.306-8.784 8.612-13.179 12.918-.33.327-.666.648-.976.996-.229.255-.491.314-.828.314-7.107-.006-14.221 0-21.329 0h-.269c-.902.04-1.313.433-1.353 1.298-.007.197 0 .393 0 .59v17.879c0 .917.067.832-.882.832h-25.165c-.902 0-.835.072-.835-.806 0-8.081-.013-16.155.007-24.236.007-2.373.397-4.686 1.595-6.816a8.64 8.64 0 011.508-1.98c2.059-2.005 4.078-4.05 6.111-6.081 1.44-1.436 2.874-2.884 4.314-4.32l8.541-8.532c1.596-1.593 3.204-3.179 4.786-4.785.868-.884 1.75-1.743 2.78-2.464.848-.59 1.75-1.075 2.726-1.383a10.95 10.95 0 013.365-.55c10.183.013 20.367.006 30.55.006.902 0 .828-.072.828.813v14.215c0 .983.114.846-.835.846h-34.521c-2.107 0-4.375 1.77-4.853 3.768-.047.19-.074.387-.074.583a568.04 568.04 0 000 4.522c0 .512.014.518.512.525.336.006.673 0 1.009 0h38.149l.061.144zm38.572.46V45.93c0-.826-.094-.786.788-.786 4.307 0 8.615-.026 12.923.006 3.769.033 7.538.007 11.3.02.115 0 .222.007.337 0 .269-.02.356.118.35.354-.007.196 0 .393 0 .59 0 13.383.006 26.766-.007 40.148 0 1.94.868 3.454 2.362 4.634.546.433 1.272.603 2.02.603 3.883-.007 7.76-.007 11.643 0 .983 0 .882-.138.882.885.007 4.607 0 9.214 0 13.822v.327c-.013.498-.013.505-.538.505-1.461.007-2.915 0-4.375 0-8.992 0-17.991-.013-26.983.02a15.132 15.132 0 01-3.446-.374 2.94 2.94 0 01-.814-.301c-.384-.223-.801-.394-1.198-.597-.748-.373-1.333-.97-1.885-1.553-1.279-1.344-2.255-2.877-2.746-4.666-.364-1.33-.626-2.668-.619-4.057.02-8.16.006-16.326.006-24.492zM90.266 98.602c-.498-.354-.74-.734-.996-1.069-1.084-1.435-2.497-2.51-3.998-3.46-1.548-.983-3.298-1.435-5.17-1.383-.713.02-1.433-.026-2.146.112-2.033.38-3.79 1.186-5.237 2.7-2.53 2.654-5.155 5.223-7.74 7.831-2.382 2.406-4.752 4.817-7.134 7.216-.155.157-.222.367-.417.551a519.06 519.06 0 01-2.1-2.111c-1.946-1.966-3.89-3.925-5.83-5.892-2.375-2.405-4.758-4.81-7.133-7.222-.7-.708-1.4-1.422-2.296-1.894a9.713 9.713 0 00-4.025-1.134c-.558-.032-1.117-.006-1.675-.072-.175-.02-.357 0-.539.026-2.06.282-3.917.977-5.553 2.281-1.137.905-2.16 1.894-3.055 3.022a9.029 9.029 0 01-.384.452c-.027.032-.074.039-.114.059-.196-.046-.135-.203-.135-.322V74.78c0-.76.249-1.468.579-2.137.76-1.527 1.783-2.877 3.116-3.985.841-.7 1.81-1.206 2.773-1.717.195-.105.41-.19.626-.23 1.636-.268 3.271-.641 4.934-.425a18.78 18.78 0 016.05 1.855c4.187 2.09 7.04 5.387 9.215 9.332 1.292 2.333 2.066 4.876 2.934 7.38.808 2.333 1.588 4.68 2.383 7.019.033.098.087.197.141.321.276-.098.276-.34.343-.53.808-2.38 1.616-4.766 2.43-7.145.693-2.025 1.36-4.07 2.282-6.01 1.554-3.27 3.688-6.127 6.549-8.44.605-.492 1.272-.892 1.938-1.298 2.234-1.357 4.65-2.248 7.262-2.589 1.057-.138 2.1-.04 3.143.138.196.032.398.065.6.078 1.03.066 1.938.42 2.833.924 1.541.872 2.84 1.973 3.857 3.389.424.59.82 1.2 1.124 1.854.37.806.572 1.639.565 2.537-.013 7.576-.007 15.152-.007 22.728.007.197.007.407.007.774zm107.696-22.469v30.128c0 .865.115.78-.774.78h-24.021c-.949 0-.882.118-.882-.826v-60.25c0-.95-.027-.812.821-.819h24.022c.915 0 .834-.105.834.8v30.187z" fill="#045596"/><path d="M81.213 61.591c-.397-.02-.787-.072-1.184-.059-2.047.06-4.046.308-5.997.99-2.376.832-4.692 1.737-6.751 3.178-2.598 1.822-4.658 4.142-6.347 6.777-1.245 1.946-2.154 4.063-2.995 6.2-.081.202-.108.419-.323.642-.162-.4-.303-.767-.451-1.134-.936-2.294-1.952-4.548-3.372-6.606-2.942-4.24-6.805-7.314-11.866-8.867-.108-.033-.216-.06-.317-.098-1.81-.8-3.755-.97-5.694-1.167-.29-.026-.579.013-.868.033-.29.02-.579.046-.875.059-.034 0-.074-.026-.114-.04.303-.491 22.278-22.275 23.584-23.376 7.874 7.78 15.756 15.558 23.63 23.344-.02.032-.04.078-.06.124z" fill="#045596"/></svg>