<svg width="322" height="156" fill="none" xmlns="http://www.w3.org/2000/svg"><rect width="322" height="156" rx="14" fill="#E1E1E1"/><path fill-rule="evenodd" clip-rule="evenodd" d="M37.367 40.576c0-5.334-.137-6.4-2.742-6.667l-1.097-.134c-.548-.266-.548-1.933.137-1.933a209.18 209.18 0 0115.423-.533c4.73 0 9.459.466 13.434 1.866 7.54 2.667 11.721 9.267 11.721 16.268 0 7.533-3.701 13.6-10.35 16.8-3.907 1.934-8.636 2.667-14.6 2.667-2.742 0-5.62-.333-7.677-.333-2.741 0-5.689.066-8.979.2-.48-.334-.48-1.667 0-2l1.782-.267c2.605-.467 2.948-.867 2.948-6V40.576zm8.293 17.8c0 3.067.138 5.134 1.166 6.267s2.741 1.6 4.798 1.6c10.007 0 13.366-8.667 13.366-16.267 0-10.134-5.484-16.134-15.902-16.134-1.577 0-2.674.267-3.016.733-.343.467-.412 1.534-.412 3.267v20.534zm40.853-2.534c-1.371 0-1.577.067-1.92 1.133L82.47 63.51c-.343 1.133-.412 1.6-.412 2 0 .334.48.667 2.057.933l1.713.267c.343.4.48 1.667-.137 2-1.988-.133-4.318-.133-6.786-.2-1.987 0-3.29.2-5.963.2-.617-.333-.548-1.533-.206-2l1.577-.2c1.37-.2 2.605-.6 3.496-2.8 1.028-2.267 1.987-4.933 3.564-9l5.21-13.734c1.37-3.533 2.398-5.533 2.261-7.133 2.742-.6 4.935-3.4 5.004-3.4.754 0 1.097.266 1.302 1.133.48 1.6 1.165 3.733 2.605 7.667l7.882 22c1.234 3.4 1.714 4.6 3.839 5l2.193.334c.343.267.48 1.6-.068 2-2.742-.133-5.895-.2-8.911-.2-2.879 0-5.14.067-7.814.2-.617-.333-.754-1.533-.137-2l1.85-.267c1.303-.2 1.577-.6 1.577-.933 0-.4-.411-1.734-1.097-3.8l-1.576-4.8c-.274-.934-.754-1-2.742-1h-6.237v.066zm6.169-3c1.302 0 1.645-.2 1.165-1.6l-1.508-4.533c-.823-2.4-1.577-4.734-2.056-5.867a89.047 89.047 0 00-2.4 6.2l-1.439 4.133c-.548 1.534-.206 1.667 1.234 1.667h5.004zm34.751 6.4c0 2.667.206 4.467.96 5.334.754.933 1.782 1.4 6.032 1.4 5.278 0 6.854-.2 10.281-6.667.48-.533 1.782-.333 2.194.334-.275 2.933-1.645 7.6-2.468 9.067-3.084-.134-8.568-.2-13.366-.2h-7.745c-2.674 0-5.552.066-9.117.2-.548-.334-.617-1.6-.205-2l2.193-.267c2.605-.4 2.948-.8 2.948-6V39.575c0-5.2-.343-5.6-2.948-6.067l-1.645-.2c-.548-.333-.548-1.6.137-1.933 3.016.133 5.895.2 8.637.2 2.741 0 5.689-.067 8.568-.2.479.333.479 1.6 0 1.933l-1.508.2c-2.605.467-2.948.867-2.948 6.067v19.667zm34.339-13.133c0 1.6.069 1.666 1.645 1.666h3.976c3.016 0 3.633-.4 4.25-3.066l.274-1.4c.411-.467 1.85-.467 2.125.066-.137 1.8-.206 3.8-.206 5.934 0 2.133.069 4.133.206 5.933-.275.534-1.714.534-2.125.067l-.274-1.4c-.617-2.667-1.303-3.133-4.25-3.133h-3.976c-1.576 0-1.645.066-1.645 1.733v6.667c0 2.6.206 4.4.891 5.333.754 1 1.851 1.467 6.032 1.467 5.004 0 6.992-.2 10.145-6.533.479-.6 1.919-.4 2.124.266-.205 2.934-1.645 7.467-2.399 9-3.084-.133-8.636-.2-13.365-.2h-7.472c-2.741 0-5.62.067-9.938.2-.48-.333-.48-1.666 0-2l2.741-.4c2.605-.333 2.948-.733 2.948-5.866V39.509c0-5.134-.343-5.534-2.948-5.934l-1.439-.267c-.548-.333-.48-1.6.137-1.933 2.742.133 5.552.2 8.294.2h12.2c3.702 0 6.992-.067 7.746-.2.068.867.48 4.934.754 8.734-.206.6-1.577.733-2.125.2-.617-1.934-1.439-3.667-2.193-4.467-1.097-1.067-2.811-1.734-5.69-1.734h-4.592c-1.919 0-1.919.134-1.919 2.2v9.8h.068zm26.595-5.533c0-5.6-.137-6.2-2.536-6.6l-1.576-.2c-.549-.267-.549-1.667.137-1.934 4.318-.267 8.842-.533 14.325-.533 4.935 0 9.116.733 11.31 2 3.358 1.933 5.072 4.733 5.072 8.333 0 5-3.427 7.134-6.1 8.4-.549.267-.549.6-.275 1.267 3.839 7.534 6.169 11.734 8.98 14.067 1.508 1.2 3.016 1.534 3.838 1.534.548.267.548 1.133.206 1.467-.891.4-2.742.533-4.593.533-5.346 0-8.636-1.867-11.172-5.867-1.851-3-3.153-5.733-4.524-8.667-.686-1.533-1.645-2-3.085-2-1.987 0-2.124.133-2.124 1.2v6.934c0 5.133.342 5.533 2.947 6l1.576.266c.412.267.412 1.6 0 2-3.084-.133-5.689-.2-8.499-.2a182.2 182.2 0 00-8.431.2c-.48-.333-.48-1.666 0-2l1.577-.266c2.604-.467 2.947-.867 2.947-6V40.576zm7.883 7.133c0 2 .205 2.134 3.564 2.134 2.056 0 3.29-.534 4.387-1.6.959-.934 2.056-2.734 2.056-6.067 0-5.067-3.085-8.334-7.54-8.334-2.33 0-2.33.2-2.467 2.867v11zM37.161 94.644c0-5.6-.137-6.2-2.536-6.6l-1.577-.2c-.548-.267-.548-1.667.137-1.934 4.319-.266 8.843-.533 14.326-.533 4.935 0 9.116.733 11.31 2 3.358 1.933 5.072 4.734 5.072 8.334 0 5-3.427 7.133-6.1 8.4-.549.267-.549.6-.274 1.267 3.838 7.533 6.168 11.733 8.979 14.067 1.508 1.2 3.016 1.533 3.838 1.533.548.267.548 1.134.206 1.467-.891.4-2.742.533-4.593.533-5.277 0-8.636-1.866-11.172-5.867-1.851-3-3.153-5.733-4.524-8.667-.686-1.533-1.645-2-3.085-2-1.987 0-2.124.134-2.124 1.2v6.934c0 5.133.342 5.534 2.947 6l1.576.267c.412.267.412 1.6 0 2-3.084-.133-5.689-.2-8.499-.2-2.879 0-5.415.067-8.43.2-.48-.333-.48-1.667 0-2l1.576-.267c2.604-.466 2.947-.867 2.947-6V94.644zm7.883 7.134c0 2 .205 2.133 3.564 2.133 2.056 0 3.29-.533 4.387-1.6.96-.933 2.056-2.734 2.056-6.067 0-5.067-3.085-8.334-7.54-8.334-2.399 0-2.399.2-2.467 2.867v11.001zm65.87 2.133c0 12.267-8.43 19.601-20.837 19.601-11.584 0-20.014-7.401-20.014-19.134 0-11.134 8.567-19.734 20.631-19.734 11.995 0 20.22 7.866 20.22 19.267zm-20.7-16.667c-7.128 0-10.898 6.467-10.898 15.8 0 6.867 2.467 17.868 11.926 17.868 7.54 0 10.488-7.201 10.488-16.268-.069-9.6-4.387-17.4-11.516-17.4zm77.248.534c-1.302.333-1.988.733-2.399 1.266-.617.867-1.645 2.667-3.153 6.267-2.879 6.6-9.322 20.534-12.201 27.868-.343.266-1.165.466-1.919.466-.617 0-1.165-.2-1.577-.466-.616-1.334-1.439-3.4-2.193-4.934l-2.399-5.333c-.823-1.8-1.576-3.467-2.056-4.334-.549.934-1.234 2.334-1.988 3.867l-2.742 5.734c-.959 1.8-1.508 3.4-2.399 5.266-.274.267-1.028.467-1.919.467-.617 0-.96-.2-1.508-.467-.891-2.333-3.222-7.4-5.209-11.6l-9.459-20.067c-1.508-3.4-1.919-3.734-3.839-4l-1.439-.267c-.48-.533-.411-1.667.206-1.934 2.124.134 4.592.2 7.471.2 2.536 0 4.798-.066 6.991-.2.48.2.686 1.6.137 1.934l-1.028.2c-1.028.2-1.439.466-1.439.867 0 .4 1.165 3 3.016 6.933l5.689 12.401c1.645 3.466 2.193 4.666 2.879 6 .685-1.267 1.645-2.934 2.741-5.467l.754-1.6c.412-.867.754-2.134.754-2.467 0-.333-.137-.933-.342-1.533l-5.552-11.867c-1.303-2.8-1.714-3.134-3.907-3.4l-.549-.067c-.548-.467-.48-1.734.206-1.934 2.467.134 4.729.2 7.265.2 2.948 0 5.141-.066 6.649-.2.686.2.617 1.667.206 1.934l-.96.2c-.685.133-1.576.4-1.576.8 0 .467.274 1.067.548 1.667l1.714 3.866c.548 1.2 1.096 2.4 1.645 3.4.548-1.2 1.165-2.333 1.713-3.533l.549-1.133c1.028-2.134 1.576-3.8 1.576-4.134 0-.4-.206-.533-1.165-.8l-1.714-.4c-.411-.4-.342-1.667.206-1.933 1.645.133 3.77.2 5.689.2 2.262 0 4.387-.067 5.895-.2.479.266.548 1.6.068 2l-1.645.333c-1.988.4-2.399.6-4.387 4-1.37 2.334-2.81 4.867-3.564 6.334-.548 1-1.302 2.667-1.302 2.933 0 .2.068.534.48 1.4l2.741 5.667c1.371 3.134 2.194 4.734 2.536 5.534 2.742-6.534 5.484-13.467 8.226-20.334.411-.934 1.576-4.134 1.576-4.8 0-.4-.343-.6-1.097-.8l-1.302-.334c-.48-.533-.343-1.667.206-1.933 1.85.133 4.181.2 5.895.2a62.43 62.43 0 005.277-.2c.549.266.549 1.533.206 1.933l-1.782.334z" fill="#322D2D"/><path fill-rule="evenodd" clip-rule="evenodd" d="M206.189 113.112c0 3.666 0 7.2.137 9.067-.411.666-1.988 1.266-3.427 1.266-.069 0-1.988-2.866-4.661-6.133l-13.366-16.068c-3.29-4.066-5.278-6.333-6.306-7.2-.274.534-.274 1.534-.274 3.6v10.867c0 4.534.205 8.734.891 10.267.548 1.201 1.85 1.534 3.358 1.801l1.645.2c.48.466.343 1.6 0 2-3.153-.134-5.415-.2-7.745-.2-2.125 0-4.25.066-6.443.2-.343-.334-.48-1.534 0-2l.96-.2c1.576-.334 2.673-.667 3.153-1.867.548-1.534.822-5.734.822-10.267V94.178c0-3.067 0-4-.411-4.8-.411-.934-1.234-1.534-3.29-1.934l-1.645-.2c-.412-.467-.343-1.8.205-1.933 2.742.133 5.621.2 7.951.2 1.988 0 3.633-.067 4.867-.2.548 2.533 4.318 6.8 9.527 12.8l4.867 5.534c2.605 2.933 4.181 4.866 5.552 6.2.206-.534.206-1.534.206-2.534v-7.733c0-4.534-.206-8.734-.891-10.267-.549-1.2-1.782-1.534-3.359-1.8l-1.576-.2c-.48-.467-.343-1.6 0-1.934 3.084.134 5.346.2 7.745.2 2.125 0 4.181-.066 6.443-.2.343.334.48 1.534 0 1.934l-1.028.2c-1.508.333-2.605.666-3.153 1.866-.617 1.534-.891 5.734-.891 10.267v13.468h.137zm20.974-12.935c0 1.6.069 1.667 1.645 1.667h3.976c3.015 0 3.632-.4 4.249-3.067l.274-1.4c.412-.466 1.851-.467 2.125.067-.137 1.8-.205 3.8-.205 5.933 0 2.134.068 4.134.205 5.934-.274.533-1.713.533-2.125.067l-.274-1.4c-.617-2.667-1.302-3.134-4.249-3.134h-3.976c-1.576 0-1.645.067-1.645 1.733v6.667c0 2.6.206 4.401.96 5.334.754 1 1.85 1.467 6.031 1.467 5.004 0 6.992-.2 10.145-6.534.48-.6 1.919-.4 2.125.267-.206 2.933-1.645 7.467-2.399 9-3.085-.133-8.637-.2-13.366-.2h-7.54c-2.742 0-5.621.067-9.939.2-.48-.333-.48-1.667 0-2l2.742-.4c2.605-.333 2.947-.733 2.947-5.867V93.577c0-5.133-.342-5.534-2.947-5.934l-1.44-.266c-.548-.334-.479-1.6.138-1.934 2.741.134 5.552.2 8.293.2h12.27c3.701 0 6.991-.066 7.745-.2.069.867.48 4.934.754 8.734-.206.6-1.577.733-2.125.2-.617-1.933-1.439-3.667-2.193-4.467-1.097-1.066-2.811-1.733-5.621-1.733h-4.729c-1.92 0-1.92.133-1.92 2.2v9.8h.069zm40.441 14.401c0 5.2.343 5.6 2.948 6l2.33.267c.411.333.411 1.6 0 2-3.77-.134-6.58-.2-9.39-.2-2.742 0-5.689.066-9.048.2-.48-.334-.48-1.6 0-2l1.988-.267c2.604-.4 2.947-.8 2.947-6v-2.867c0-2.8-.069-3.733-1.576-6.667l-6.855-13.8c-1.165-2.334-1.645-3.134-3.701-3.534l-1.988-.333c-.548-.467-.48-1.8.206-1.934 2.604.134 4.729.2 8.156.2 3.496 0 6.443-.066 8.431-.2.549.2.617 1.534.137 1.934l-1.987.466c-1.029.2-1.371.467-1.371.534 0 .467.274 1.267 1.508 3.933l2.741 6c.891 1.867 1.988 4.067 2.674 5.534 1.645-2.733 3.29-6 4.866-8.867 2.194-4 3.016-5.867 3.016-6.534 0-.333-.548-.533-1.988-.8l-1.302-.2c-.48-.266-.548-1.666.068-1.933 2.331.133 4.387.2 6.444.2a71.88 71.88 0 005.689-.2c.685.2.685 1.6.205 1.933l-1.508.267c-1.028.2-2.125.534-2.741 1.334-.891 1.066-2.331 3.066-5.073 8l-3.632 6.4c-1.508 2.667-2.057 4.067-2.057 7.267v3.867h-.137z" fill="#322D2D"/><path fill-rule="evenodd" clip-rule="evenodd" d="M227.986 50.642l38.11-24.934 38.111 24.934-38.111 24.868-38.11-24.868z" fill="#009846"/><path clip-rule="evenodd" d="M237.102 50.576l28.993-18.867 28.994 18.867-28.994 18.934-28.993-18.934z" stroke="#FEFEFE" stroke-width=".98" stroke-miterlimit="3.864"/><path clip-rule="evenodd" d="M237.102 50.576l28.993-18.867 28.994 18.867-28.994 18.934-28.993-18.934z" stroke="#FEFEFE" stroke-width="1.162" stroke-miterlimit="3.864"/></svg>