<svg width="317" height="156" fill="none" xmlns="http://www.w3.org/2000/svg"><rect x=".156" y=".385" width="316.788" height="155.615" rx="14" fill="#E1E1E1"/><g clip-path="url(#clip0)"><path d="M71.848 98.557c-2.302.108-4.711-.151-7.12 0-.81.043-1.428.432-1.748 1.253-.49 1.209-.852 2.484-1.662 3.542-.448.605-.895 1.21-1.599 1.534-.853.389-1.535.086-1.94-.778-.34-.734-.447-1.533-.788-2.268-.299-.691-.79-1.123-1.343-1.037-.618.087-1.087.648-1.151 1.383-.086.756.128 1.469.405 2.16.255.67.49 1.339.618 2.052.362 2.225-1.684 3.132-3.176 2.787-.917-.195-1.706-.67-2.43-1.253-1.556-1.21-2.686-2.808-3.901-4.321-1.45-1.836-2.942-3.629-4.775-5.098-1.492-1.21-3.24-1.814-5.03-2.354-.704-.216-1.45-.346-2.11-.713-.896-.497-.981-1.188-.278-1.944.661-.691 1.514-1.08 2.345-1.512.384-.195.81-.367 1.108-.713.214-.238.192-.41 0-.627-.383-.41-.938-.54-1.406-.82-.448-.26-.896-.476-1.28-.821-.703-.648-.895-1.275-.383-2.074.64-1.015.511-1.944 0-2.938-1.151-2.225-.533-3.607 1.172-5.12 2.09-1.835 4.178-3.671 6.011-5.788.17-.195.235-.41.363-.605.149-.216.17-.475-.022-.67-.191-.173-.447-.151-.66 0-.47.346-.938.691-1.386 1.059-.298.237-.618.41-.96.583-.553.28-1.022-.065-1.278-.843-.341-1.058-.49-2.138-.576-3.24-.128-1.426-.277-2.851-.234-4.277a26.29 26.29 0 01.533-4.644c.32-1.556.746-3.046 1.364-4.493.81-1.923 1.94-3.63 3.325-5.163 1.77-1.944 3.858-3.413 6.14-4.536 2.11-1.037 4.348-1.664 6.692-1.966 2.026-.281 4.05-.13 6.054-.216 1.812-.065 3.603-.324 5.33-.972 1.385-.519 2.685-1.253 4.07-1.815 1.002-.389 2.004-.756 3.07-.777.064 0 .15-.022.213 0 .299.064.682.086.81.431.128.346-.192.54-.405.713-.724.605-1.556 1.102-2.217 1.815-1.47 1.598-2.344 3.434-1.94 5.703.363 2.095 2.196 3.37 4.05 3.629.342.043.683.086 1.002.13.427.064.576.302.427.734-.235.67-.512 1.34-.725 2.03-.725 2.377-.298 4.494 1.79 6.092.235.194.49.389.704.583.192.173.426.367.298.691-.127.303-.426.238-.66.26-.746.043-1.45.237-1.961.82-.512.584-.98 1.167-1.45 1.793-.32.433-.618.908-.895 1.361-.554.95-.299 1.815.64 2.333.32.173.66.346.98.54.938.54 1.13 1.34.469 2.225-.725.994-1.748 1.685-2.665 2.463-.447.389-.916.756-1.364 1.145-.895.777-1.172 1.728-.703 2.851.383.95.66 1.944.831 2.96.256 1.447.362 2.937.49 4.406.15 1.815.32 3.63.448 5.444.085 1.145.15 2.29.34 3.434.193 1.189.79 2.01 1.92 2.42.085.021.191.021.234.065.192.172.554.216.511.518-.042.28-.383.238-.596.303-.533.172-1.173.15-1.94.15zm.192-41.151c.021-1.534-.619-2.657-1.834-3.413-.596-.367-1.065-.108-1.15.605-.043.41 0 .82.106 1.231.128.454.128.886-.064 1.36-.277.649-.725 1.167-1.002 1.794-.277.626-.554 1.231-.234 1.966.32.712.916 1.08 1.47 1.512.427.345.853.69.832 1.339 0 .648-.512.95-.917 1.296-.554.454-1.236.734-1.726 1.275-.64.67-.618 1.166.042 1.814.363.367.768.583 1.237.346.405-.195.426-.648.383-1.037-.064-.843.299-1.404.98-1.88.747-.518 1.578-.864 2.24-1.533.596-.605.596-1.08 0-1.664-.172-.172-.363-.324-.534-.475a1.446 1.446 0 01-.49-1.037c-.021-.583.106-1.145.277-1.706.192-.627.426-1.21.384-1.793zM55.115 75.378c.362-.064.788-.15 1.215-.216a3.145 3.145 0 002.068-1.296c.532-.734.66-1.598.745-2.484a5.485 5.485 0 01.427-1.642c.384-.842 1.15-1.188 1.96-1.425a51.4 51.4 0 001.898-.605c1.47-.519 2.025-1.728 2.345-3.11.064-.325.213-.649.17-1.016-.021-.151-.064-.28-.192-.324-.191-.087-.234.065-.298.194-.17.324-.341.627-.511.95-.384.8-.874 1.491-1.77 1.75-1.087.303-2.174.54-3.261.843-1.172.324-2.068.972-2.43 2.246-.256.886-.277 1.772-.277 2.657 0 1.059-.426 1.858-1.343 2.377-.32.172-.703.259-1.045.41-.191.087-.511.13-.469.389.043.194.32.26.533.324a.4.4 0 01.235-.022zM52.28 63.303v-.562c0-.259-.043-.518-.32-.583-.256-.065-.362.195-.49.367l-.96 1.685c-1.342 2.355-2.941 4.537-4.39 6.805-.704 1.102-1.407 2.225-1.94 3.434-.086.173-.128.303.042.454.15.13.32.13.47 0 .149-.13.298-.238.404-.389 1.024-1.296 1.94-2.657 3.155-3.78.895-.843 1.855-1.642 2.643-2.592 1.13-1.383 1.3-3.09 1.386-4.839zm2.984 14.948c.064.713.341 1.318.746 1.88.597.799 1.343 1.447 2.11 2.073.725.584 1.258 1.275 1.173 2.269-.022.172.021.345.192.453.213.108.362-.043.49-.151.916-.713.96-1.728.938-2.744-.021-.712-.299-1.36-.64-1.987-.298-.561-.554-1.123-.831-1.706-.107-.216-.256-.432-.533-.39-.32.044-.362.347-.362.606 0 .41-.022.82.213 1.21.128.215.213.475.021.669-.234.238-.469.022-.64-.108a7.937 7.937 0 01-1.683-1.707 3.415 3.415 0 00-.618-.626c-.128-.108-.256-.194-.427-.086-.128.064-.128.237-.149.345zm4.583-2.203c.213-.022.384-.043.533-.065 1.428-.13 2.494-.778 2.963-2.203.362-1.08.895-1.88 2.067-2.139.512-.108.896-.54 1.109-1.058.064-.173.128-.39-.064-.519-.15-.108-.299 0-.405.108a2.2 2.2 0 01-1.3.54c-.555.065-1.13.065-1.642.281-.852.346-1.3 1.08-1.492 1.966-.17.864-.511 1.555-1.428 1.814-.17.044-.341.065-.49.152-.341.194-.96.194-.917.67.085.56.746.302 1.066.453zm-5.329 7.344c.107-.928-.49-1.555-1.087-2.16-.213-.216-.47-.583-.746-.432-.341.195-.085.605 0 .886.149.497.277 1.015.106 1.512-.191.605-.426 1.188-.66 1.793-.427 1.145-.64 2.268.17 3.327.192.259.384.648.725.561.362-.086.32-.54.34-.842.022-.756.214-1.448.513-2.139.32-.756.66-1.555.639-2.506zm3.56-23.502c-.022-.432-.427-.626-.853-.432-.767.346-1.385.864-1.918 1.49-.917 1.059-1.3 2.355-1.663 3.651-.064.195-.234.432.043.605.234.151.405-.065.575-.216 1.28-1.015 2.388-2.182 3.176-3.65.235-.476.533-.951.64-1.448zm5.52-2.981c-.468 0-.852.194-1.257.303-1.599.431-2.6 1.49-3.09 3.067-.065.194-.129.432.106.561.234.152.383-.064.511-.194.746-.756 1.599-1.382 2.473-1.987.511-.346 1.044-.627 1.492-1.059.128-.13.299-.28.213-.497-.085-.237-.298-.172-.447-.194z" fill="#980101"/><path d="M64.174 113.18c-1.087.173-2.43 0-3.773-.172-1.236-.173-2.473-.389-3.58-1.037-.257-.151-.534-.324-.47-.67.085-.389.426-.302.725-.302.17 0 .34.021.511.064 1.919.519 3.88.627 5.82.389 2.835-.345 5.222-1.62 7.162-3.802a19.076 19.076 0 003.219-5.076 9.76 9.76 0 011.023-1.771c.405-.54.852-.735 1.364-.583.405.108.81.777.831 1.317.022.691-.021 1.383.192 2.031.17.518.448.583.874.259.362-.259.597-.67.96-.907.234-.151.447-.216.703-.108.277.129.234.389.234.626.022.951-.49 1.707-.959 2.441-1.3 2.009-3.134 3.392-5.159 4.536-1.769.994-3.602 1.793-5.563 2.269-1.236.302-2.558.453-4.114.496zm15.433-41.128c1.087-.065 1.236.065 1.535.993.724 2.269 1.215 4.602 1.875 6.891.278.972.512 1.944.79 2.916.084.325.063.649.106.973.149 1.058-1.087 1.555-1.77 1.144a6.98 6.98 0 00-.895-.453c-.64-.281-1.15-.087-1.662.26-.79.54-1.535 1.166-2.452 1.533-.703.259-1.15-.022-1.215-.778-.064-.648.235-1.21.427-1.771.362-.972.703-1.966.916-2.981.15-.756-.277-1.361-.703-1.901-.192-.26-.448-.475-.661-.713-.213-.238-.298-.454.021-.691.192-.151.235-.346.085-.54-.213-.26-.085-.454.043-.648.299-.454.512-.908.533-1.47.021-.302.128-.56.426-.712.341-.195.32-.41 0-.626a2.587 2.587 0 01-.298-.216c-.213-.173-.235-.368.021-.54.363-.26.789-.368 1.194-.433.554-.064 1.151-.345 1.684-.237zm10.274-38.3h4.754c.32 0 .447.065.447.41a634.91 634.91 0 000 9.008c0 .324-.063.475-.404.454a50.493 50.493 0 00-2.558 0c-.448 0-.64-.151-.619-.627.043-1.814-.042-3.629.043-5.422.021-.388-.234-.302-.448-.302-1.918 0-3.858-.022-5.776 0-.49 0-.661-.108-.618-.626a21.31 21.31 0 000-2.333c-.022-.432.064-.584.554-.584 1.535.044 3.07.022 4.625.022z" fill="#9A0303"/><path d="M89.882 118.948c-1.556 0-3.091-.021-4.647 0-.363 0-.448-.108-.448-.453.021-.8.021-1.621 0-2.441-.021-.432.128-.562.554-.562 1.834.022 3.688 0 5.521.022.47 0 .618-.108.597-.605-.021-1.793 0-3.586-.021-5.379 0-.346.085-.497.447-.475a62.84 62.84 0 002.814 0c.299 0 .362.108.362.389v9.159c0 .324-.128.367-.383.367-1.599-.022-3.198-.022-4.796-.022z" fill="#980101"/><path d="M30.24 33.753h4.647c.32 0 .448.065.448.432-.022.886-.022 1.75 0 2.636 0 .367-.128.453-.47.453-1.96-.021-3.921 0-5.882-.021-.384 0-.47.086-.47.496.043 1.793 0 3.586.022 5.38 0 .388-.15.518-.512.518a47.998 47.998 0 00-2.494 0c-.277 0-.34-.087-.34-.368v-9.202c-.022-.345.148-.324.383-.324h4.668z" fill="#9A0303"/><path d="M30.154 118.948c-1.514 0-3.027-.021-4.54 0-.363 0-.448-.086-.448-.453.021-3.003.021-6.006 0-9.008 0-.303.043-.454.405-.454a47.13 47.13 0 002.494 0c.362 0 .49.108.49.497-.021 1.793 0 3.586-.021 5.379 0 .453.107.605.576.583 1.833-.022 3.687 0 5.52-.022.47 0 .576.152.554.584a21.31 21.31 0 000 2.333c.022.453-.127.54-.532.518-1.492.022-2.985.043-4.498.043z" fill="#980101"/><path d="M106.337 101.256c-1.748 0-3.517-.021-5.265.022-.426 0-.49-.13-.49-.518.021-2.7.021-5.422 0-8.123 0-.367.064-.496.469-.496.831.043.831 0 .831.885v6.416c0 .346.043.518.448.497a30.566 30.566 0 012.814 0c.405.021.469-.151.447-.497-.021-2.268 0-4.515-.021-6.783 0-.41.107-.518.512-.518.81.021.81 0 .81.799v6.523c0 .346.064.476.447.454a69.73 69.73 0 013.006 0c.383 0 .49-.086.49-.475-.021-2.268 0-4.515-.021-6.783 0-.454.128-.583.533-.518.149.021.298.021.469 0 .234-.022.319.064.319.302 0 2.83-.021 5.66 0 8.489 0 .368-.192.324-.426.324h-5.372zm52.714-20.715c0 1.059-.021 2.03 0 3.003 0 .345-.085.432-.426.432-.895-.022-.895 0-.895-.93V80.65c-.363.065-.597.28-.874.432-.789.432-1.556.907-2.366 1.318-.448.216-.618.497-.554.993.021.173.127.519-.086.562-.383.065-.767 0-1.151-.021-.021 0-.042-.087-.042-.13v-.216c0-.54-.171-1.21.064-1.62.213-.389.852-.562 1.321-.821.981-.562 1.982-1.123 3.048-1.707-.767-.432-1.471-.842-2.174-1.23-.618-.347-1.236-.714-1.876-1.038-.298-.15-.426-.345-.383-.691.021-.28 0-.562 0-.82 0-.778 0-.757.767-.8.512-.043.618.173.533.605-.085.518.128.799.575 1.037 1.066.561 2.111 1.166 3.219 1.793 0-1.016.021-1.966 0-2.895 0-.367.043-.54.49-.519.832.044.832 0 .832.886v2.528c.426-.13.767-.39 1.129-.584.704-.388 1.386-.82 2.111-1.166.469-.216.639-.519.596-1.037-.021-.194-.149-.518.128-.583.363-.065.746-.022 1.109 0 .021 0 .042.086.064.13.021.064 0 .129 0 .215 0 .562.17 1.232-.064 1.685-.213.41-.874.584-1.343.864-.938.54-1.897 1.08-2.835 1.62-.021 0-.021.022-.064.087.575.324 1.151.67 1.748.993.767.432 1.513.865 2.281 1.275.213.13.319.26.319.518-.021.476-.021.93 0 1.404 0 .217-.021.325-.298.346-1.002.043-1.002.043-1.023-.95 0-.173.021-.324-.171-.432a173.775 173.775 0 00-3.709-2.139zm5.927-35.686c0-1.36.021-2.721 0-4.082 0-.346.085-.432.426-.432 2.004.021 4.007 0 6.032.021 1.066 0 1.812.54 2.281 1.47.448.928.405 1.857-.192 2.678-.234.324-.298.518-.021.864.618.8.682 1.728.234 2.614-.447.907-1.193 1.425-2.195 1.447-2.068.043-4.114 0-6.182.022-.298 0-.362-.087-.362-.368-.021-1.404-.021-2.83-.021-4.233zm4.092-3.132h-2.451c-.213 0-.363.022-.341.303.021.67.021 1.339 0 2.009 0 .194.064.259.256.259 1.641 0 3.261 0 4.902-.022.746-.021 1.215-.605 1.194-1.339-.021-.691-.554-1.21-1.258-1.21-.767-.021-1.534 0-2.302 0zm-.064 6.394c.81-.021 1.642.022 2.452-.021.724-.043 1.215-.605 1.172-1.296-.021-.648-.554-1.145-1.279-1.145-1.577 0-3.133 0-4.711-.022-.32 0-.405.108-.384.41.022.562.022 1.102 0 1.664-.021.367.128.41.427.41.788-.021 1.556 0 2.323 0zm39.243 26.721h2.92c1.087 0 1.854.54 2.323 1.49.469.972.384 1.923-.277 2.765-.213.281-.234.41 0 .692.64.799.746 1.728.299 2.657-.448.95-1.237 1.469-2.281 1.49-2.025.022-4.05 0-6.075.022-.298 0-.405-.065-.405-.39.021-2.764.021-5.55 0-8.316 0-.367.107-.41.426-.41h3.07zm.554 1.36h-2.409c-.234 0-.341.066-.341.303a29.28 29.28 0 010 1.966c0 .216.043.302.277.302 1.62-.021 3.24 0 4.839-.021.767-.022 1.258-.605 1.236-1.361-.021-.691-.575-1.188-1.343-1.188h-2.259zm.021 3.932h-2.408c-.256 0-.384.044-.363.324.022.627.022 1.232 0 1.858 0 .194.043.28.256.28 1.641-.02 3.261 0 4.903-.02.746-.022 1.215-.584 1.193-1.275-.021-.67-.554-1.167-1.3-1.167h-2.281zm-99.46-37.197c-1.215 1.793-2.43 3.564-3.688 5.422-1.257-1.836-2.494-3.673-3.815-5.595v6.264c0 .346-.064.476-.427.476-.895-.022-.895 0-.895-.908v-7.755c0-.345.085-.432.426-.475.661-.065 1.066.173 1.429.756.959 1.512 1.982 2.96 2.984 4.428.085.13.17.238.298.41 1.066-1.554 2.089-3.088 3.134-4.622.064-.086.128-.173.17-.259.256-.648.746-.778 1.386-.735.362.022.447.108.447.476-.021 2.354 0 4.73 0 7.085v.67c0 .907 0 .885-.916.907-.341 0-.427-.086-.427-.432.022-1.836 0-3.694 0-5.53v-.562c-.021 0-.064-.021-.106-.021z" fill="#9A0303"/><path d="M131.022 83.954h-5.308c-.341 0-.469-.087-.405-.432v-.151c0-.778 0-.8.767-.756.363.021.491-.065.491-.476a152.94 152.94 0 010-4.493c0-1.706 1.087-2.808 2.771-2.808 1.897 0 3.815.022 5.712-.022.448 0 .512.13.512.54-.021 2.204.021 4.407-.021 6.61 0 .562.17.692.639.627.085-.022.171 0 .256 0 .277-.043.383.065.383.367.022.994.022.994-.937.994h-4.86zm.042-1.34h2.856c.256 0 .363-.064.342-.345a244.504 244.504 0 010-5.681c0-.281-.086-.39-.363-.39-1.599.023-3.197 0-4.796 0-.746 0-1.258.52-1.258 1.275-.021 1.577 0 3.176 0 4.753 0 .302.086.367.363.367.959 0 1.918.022 2.856.022zm91.147 1.34h-4.093c-.277 0-.384-.065-.384-.367a532.19 532.19 0 000-8.382c0-.28.064-.367.363-.367 2.75.022 5.478.022 8.228 0 .362 0 .405.151.405.454 0 .928 0 .928-.896.928-2.089 0-4.199.022-6.288-.021-.426 0-.511.151-.49.518.021.519.021 1.037 0 1.555-.021.39.064.519.49.519 1.791-.022 3.581 0 5.372-.022.405 0 .554.065.533.519-.043.842 0 .842-.874.842h-5.052c-.341 0-.49.065-.469.454a9.392 9.392 0 010 1.555c-.021.367.064.497.469.497 2.238-.022 4.455 0 6.693-.022.426 0 .597.108.512.54a.517.517 0 000 .26c.064.432-.064.583-.533.583-1.322-.065-2.665-.043-3.986-.043zm-49.858 0c-1.364 0-2.728-.022-4.093 0-.319 0-.426-.086-.426-.432.021-2.765.021-5.53 0-8.295 0-.346.085-.432.426-.432 2.707.022 5.415.022 8.122 0 .362 0 .447.086.447.454-.021.907 0 .907-.916.907h-6.288c-.363 0-.512.065-.491.475.043.54.043 1.102 0 1.663-.021.368.086.454.448.454 1.833-.022 3.645 0 5.478-.022.384 0 .49.087.469.476-.021.907 0 .907-.874.907h-5.052c-.341 0-.469.086-.447.454.021.54.021 1.08 0 1.598-.022.346.085.432.426.432 2.259-.022 4.498 0 6.757-.022.448 0 .576.13.512.54a1.028 1.028 0 000 .368c.064.367-.086.475-.448.453-1.364 0-2.707.022-4.05.022zM114.352 62.18c0-1.383.021-2.765 0-4.148 0-.324.085-.388.405-.388 2.728.021 5.456.021 8.185 0 .341 0 .426.086.426.432 0 .95 0 .95-.938.95h-6.288c-.341 0-.469.086-.469.454a23.12 23.12 0 010 1.706c-.021.346.085.432.426.432 1.834-.021 3.688 0 5.521-.021.363 0 .469.086.448.453-.021.93 0 .93-.895.93h-5.052c-.32 0-.448.086-.427.431.022.54.022 1.102 0 1.663-.021.325.086.41.405.39 2.26-.022 4.498 0 6.758-.022.469 0 .596.15.533.583a1.718 1.718 0 000 .475c.021.26-.064.324-.32.324h-8.377c-.341 0-.277-.194-.277-.389-.064-1.469-.064-2.851-.064-4.255z" fill="#980101"/><path d="M278.59 79.44c0 1.36-.021 2.72 0 4.082 0 .345-.106.432-.426.432-.895-.022-.895 0-.895-.929 0-.454-.021-.907 0-1.34 0-.258-.085-.323-.32-.323-1.194 0-2.387.021-3.581 0-.234 0-.384.108-.533.259-.661.67-1.343 1.318-1.982 2.03-.341.39-.725.303-1.13.281-.234 0-.234-.799.021-1.058.448-.454.874-.907 1.343-1.361.192-.173.256-.281-.042-.432-1.002-.519-1.471-1.383-1.45-2.528 0-.475-.021-.972.022-1.447a2.573 2.573 0 012.557-2.29h5.99c.32 0 .426.087.426.432-.021 1.404 0 2.809 0 4.191zm-4.028-3.241h-2.302c-.832 0-1.322.497-1.343 1.34v1.036c.021.907.49 1.426 1.385 1.426 1.556.021 3.091 0 4.647.021.277 0 .341-.086.341-.345a76.8 76.8 0 010-3.11c0-.282-.064-.39-.362-.39-.81.043-1.578.022-2.366.022zm-49.665-31.3c0 1.36-.022 2.721 0 4.082 0 .39-.086.497-.469.497-.853-.021-.832 0-.853-.864-.021-.561.256-1.317-.107-1.642-.298-.28-1.044-.086-1.577-.086-.81 0-1.769-.26-2.43.065-.81.41-1.386 1.296-2.068 1.966-.255.259-.447.648-.916.54-.192-.044-.512.108-.533-.108-.043-.303-.171-.692.128-.972.447-.454.874-.908 1.343-1.34.234-.216.191-.302-.086-.453-.938-.497-1.406-1.318-1.406-2.398 0-.605-.064-1.21.063-1.793.299-1.231 1.301-2.03 2.537-2.03 1.961 0 3.922.021 5.883-.022.427 0 .491.13.491.518-.022 1.34 0 2.7 0 4.04zm-4.05-3.176h-2.303c-.81 0-1.3.497-1.321 1.318-.022.367 0 .713 0 1.08.021.886.49 1.383 1.343 1.404 1.556.022 3.133 0 4.689.022.235 0 .32-.065.32-.324a78.953 78.953 0 010-3.154c0-.324-.128-.367-.384-.346h-2.344zm17.755 20.543c0 1.361-.021 2.722 0 4.083 0 .346-.106.432-.426.432-.895 0-.895 0-.895-.929 0-.454-.022-.907 0-1.34 0-.258-.086-.323-.32-.323-1.194 0-2.387.021-3.581 0-.235 0-.384.108-.533.259-.661.67-1.343 1.318-1.982 2.03-.342.39-.725.303-1.13.281-.235 0-.235-.799.021-1.058.448-.454.874-.907 1.343-1.361.192-.173.256-.28-.043-.432-1.001-.519-1.47-1.383-1.449-2.527 0-.476-.021-.973.021-1.448a2.574 2.574 0 012.558-2.29h5.99c.32 0 .426.087.426.433-.021 1.382 0 2.786 0 4.19zm-4.028-3.262h-2.303c-.831 0-1.321.497-1.343 1.34v1.037c.022.907.491 1.425 1.386 1.425 1.556.022 3.091 0 4.647.022.277 0 .341-.087.341-.346a76.8 76.8 0 010-3.11c0-.281-.064-.39-.362-.39-.81.044-1.578.022-2.366.022zm-18.054 4.278v-2.895c0-1.62 1.108-2.722 2.685-2.743h3.731c1.364 0 2.536 1.101 2.558 2.505.021 2.096 0 4.17.021 6.265 0 .324-.128.367-.384.367-.938 0-.938.022-.938-.929 0-.389-.021-.8 0-1.188.022-.346-.064-.475-.426-.475-1.833.021-3.688.021-5.521 0-.362 0-.426.108-.405.432.021.605 0 1.21.021 1.814 0 .238-.064.324-.298.324-1.002.044-1.002.065-1.002-.95-.042-.843-.042-1.685-.042-2.527zm4.455-.454c.916 0 1.833-.022 2.771 0 .341 0 .469-.065.447-.432-.042-.67 0-1.34 0-2.01 0-.842-.49-1.36-1.321-1.36h-3.688c-.831 0-1.322.497-1.343 1.34-.021.712 0 1.425 0 2.116 0 .281.085.346.341.346.917-.022 1.855 0 2.793 0zm-47.322.432c0 1.015-.021 2.03 0 3.045 0 .368-.106.454-.469.454-.874-.022-.874 0-.874-.907 0-.454-.021-.907 0-1.34.022-.28-.085-.345-.341-.345h-5.67c-.277 0-.341.086-.341.346.021.604 0 1.21 0 1.814 0 .302-.042.432-.384.432-.937 0-.937.022-.937-.929 0-1.793.042-3.586-.022-5.379-.042-1.663 1.322-2.937 2.771-2.83 1.215.087 2.409.022 3.624.022 1.449 0 2.579 1.145 2.601 2.614.042 1.015.042 2.009.042 3.003zm-4.476-.432c.938 0 1.876-.022 2.814 0 .298 0 .362-.087.362-.368-.021-.712 0-1.404 0-2.117 0-.82-.512-1.317-1.322-1.317h-3.687c-.832 0-1.343.497-1.365 1.339-.021.691.022 1.383-.021 2.074-.021.367.128.41.426.41.938-.043 1.855-.021 2.793-.021zm87.437 17.605v-2.895c.021-1.577 1.13-2.7 2.665-2.7h3.73a2.573 2.573 0 012.579 2.527c.021 2.074 0 4.148.021 6.2 0 .346-.127.389-.426.389-.895 0-.895 0-.917-.907 0-.54.235-1.275-.106-1.577-.299-.26-1.002-.087-1.535-.087-1.407 0-2.792.022-4.199-.021-.405 0-.576.086-.533.518.043.562 0 1.145.021 1.707 0 .259-.064.345-.341.345-.98.022-.98.043-.98-.929.021-.842.021-1.706.021-2.57zm4.455-.41c.938 0 1.876-.022 2.814 0 .298 0 .405-.066.405-.39-.021-.69 0-1.382 0-2.073 0-.843-.49-1.361-1.322-1.361h-3.687c-.81 0-1.322.497-1.343 1.296-.022.734 0 1.447-.022 2.182 0 .28.086.345.341.345.938-.021 1.876 0 2.814 0zM202.92 45.936V43.04c.021-1.577 1.13-2.7 2.686-2.7h3.73c1.407 0 2.558 1.123 2.558 2.527.021 2.074 0 4.148.021 6.2 0 .302-.085.367-.362.367-.938 0-.938.022-.959-.907 0-.54.234-1.275-.107-1.577-.298-.26-1.002-.087-1.535-.087h-4.284c-.32 0-.448.087-.427.433.022.604.001 1.21.022 1.814 0 .28-.085.346-.341.346-.981.021-.981.043-.981-.95-.021-.843-.021-1.707-.021-2.571zm4.498-.41c.937 0 1.875-.022 2.813 0 .277 0 .384-.066.363-.368-.022-.691 0-1.383 0-2.074 0-.886-.491-1.382-1.365-1.382h-3.623c-.832 0-1.343.497-1.365 1.339-.021.713.022 1.426-.021 2.117 0 .302.107.367.384.367h2.814zm-44.615 52.275c0 .994-.022 2.009 0 3.003 0 .345-.064.475-.448.453-.874-.021-.874 0-.874-.885 0-.454-.021-.908 0-1.34 0-.259-.064-.367-.341-.367a248.07 248.07 0 01-5.67 0c-.32 0-.362.108-.362.389.021.626 0 1.231 0 1.858 0 .237-.064.324-.32.324-1.002.043-1.002.064-1.002-.951 0-1.793.021-3.586 0-5.379-.043-1.641 1.343-2.894 2.75-2.786 1.215.086 2.451.021 3.688.021 1.385 0 2.536 1.145 2.557 2.55.043 1.036.022 2.073.022 3.11zm-4.519-.497c.959 0 1.918-.022 2.856 0 .299 0 .362-.086.362-.367-.021-.713 0-1.404 0-2.117 0-.82-.511-1.318-1.321-1.318h-3.688c-.831 0-1.343.497-1.364 1.34-.021.69.021 1.382-.021 2.073-.022.367.128.41.426.41.938-.02 1.833-.02 2.75-.02zm-43.527-52.449v-1.922c0-1.447 1.13-2.592 2.558-2.592h3.687c1.556 0 2.686 1.058 2.729 2.657a58.028 58.028 0 010 3.823c-.043 1.599-1.151 2.636-2.75 2.636h-3.73c-1.386 0-2.494-1.124-2.494-2.528v-2.074zm1.321.044v1.858c0 .799.448 1.339 1.237 1.339 1.3.021 2.579.021 3.879 0 .704-.022 1.194-.497 1.215-1.21a61.25 61.25 0 000-3.975c-.021-.712-.554-1.188-1.236-1.188-1.3-.021-2.579-.021-3.88 0-.703 0-1.215.54-1.215 1.253-.021.627 0 1.275 0 1.923zm36.003.021v-1.965c0-1.448 1.13-2.593 2.558-2.593h3.688c1.556 0 2.685 1.059 2.749 2.657a56.68 56.68 0 010 3.824c-.042 1.598-1.151 2.635-2.749 2.635h-3.731c-1.407 0-2.494-1.123-2.494-2.527-.021-.691-.021-1.361-.021-2.03zm1.322-.043v1.922c0 .757.447 1.275 1.172 1.297 1.322.043 2.665.043 3.986 0 .682-.022 1.172-.497 1.194-1.188a62.707 62.707 0 000-3.975c-.022-.713-.533-1.188-1.215-1.21a120.032 120.032 0 00-3.944 0c-.682 0-1.172.54-1.172 1.232-.021.648-.021 1.274-.021 1.922zm-13.28 34.54v-1.965c0-1.49 1.13-2.614 2.601-2.614h3.623c1.578 0 2.686 1.058 2.75 2.635a56.677 56.677 0 010 3.824c-.043 1.598-1.151 2.635-2.728 2.635h-3.731c-1.407 0-2.494-1.102-2.515-2.527v-1.988zm1.322-.064v1.922c0 .778.447 1.296 1.193 1.318 1.301.043 2.622.021 3.944 0 .682-.022 1.172-.497 1.193-1.167.043-1.339.043-2.7 0-4.04-.021-.69-.532-1.166-1.193-1.166a120.032 120.032 0 00-3.944 0c-.703 0-1.193.54-1.193 1.275-.022.605 0 1.231 0 1.858zm-13.6 17.346v-1.966c0-1.49 1.129-2.592 2.6-2.614h3.624c1.556 0 2.686 1.059 2.75 2.635a58.028 58.028 0 010 3.824c-.043 1.598-1.151 2.635-2.729 2.635h-3.73c-1.407 0-2.494-1.101-2.515-2.527v-1.987zm1.321-.065v1.922c0 .778.448 1.297 1.194 1.318 1.3.043 2.622.022 3.943 0 .683-.021 1.173-.497 1.194-1.166.043-1.34.043-2.7 0-4.04-.021-.691-.533-1.166-1.194-1.166a119.971 119.971 0 00-3.943 0c-.703 0-1.194.54-1.194 1.274v1.858zm-7.268-18.362v2.895c-.022 1.685-1.109 2.787-2.75 2.787h-3.517c-1.215 0-2.281-1.015-2.43-2.225-.043-.281.021-.39.298-.367.171.021.341.021.512 0 .32-.065.469.064.554.41.149.54.576.82 1.108.82 1.215.022 2.452.044 3.688 0 .767-.02 1.194-.518 1.236-1.295.064-1.145.064-1.145-1.065-1.145-1.386 0-2.75.022-4.136-.022-1.385-.043-2.451-1.166-2.451-2.592 0-.756.021-1.512 0-2.268-.021-.346.085-.432.426-.432.896.022.896 0 .896.929v1.75c.021.648.447 1.21 1.087 1.23 1.684.044 3.368.022 5.052.044.298 0 .213-.194.213-.346 0-1.058.021-2.095 0-3.153 0-.325.064-.433.405-.433.916.022.916 0 .916.908-.042.82-.042 1.663-.042 2.505zM100.54 62.158c0-1.36.021-2.722 0-4.083 0-.367.106-.453.447-.453.874.021.874 0 .874.907v6.372c0 .368.064.519.491.519 1.811-.022 3.645-.022 5.478 0 .341 0 .426-.087.426-.432-.021-2.29 0-4.58-.021-6.891 0-.389.085-.497.469-.475.852.021.852 0 .852.864v6.459c0 .367.107.453.448.453.81-.021.81 0 .81.821 0 .475-.021.929 0 1.404.021.303-.107.39-.384.367h-.213c-.725 0-.746 0-.725-.734.022-.432-.128-.497-.511-.497-2.665.022-5.308 0-7.972.022-.384 0-.491-.087-.469-.475.021-1.383 0-2.765 0-4.148zm51.35.022c0-1.34.021-2.7 0-4.04 0-.388.064-.518.49-.518 1.982.022 3.943 0 5.926.022 1.428 0 2.558 1.145 2.579 2.592v1.34c0 1.403-1.087 2.548-2.451 2.591a81.83 81.83 0 01-4.605 0c-.554-.021-.66.173-.618.67.043.54 0 1.058.022 1.599 0 .237-.064.323-.32.323-1.002.044-1.002.065-1.002-.95-.021-1.21-.021-2.42-.021-3.629zm4.092-3.175h-2.408c-.235 0-.384 0-.384.302.021 1.058 0 2.139 0 3.197 0 .216.043.302.277.302 1.62-.021 3.24 0 4.86-.021.789-.022 1.215-.54 1.236-1.361v-1.08c0-.843-.49-1.34-1.321-1.361-.768.022-1.514.022-2.26.022zm38.241 7.755h-3.07c-.298 0-.405-.044-.405-.39.021-2.786.021-5.55 0-8.338 0-.367.128-.41.448-.41.874 0 .895 0 .895.886 0 .648.021 1.317 0 1.965 0 .303.085.368.362.368 1.578-.022 3.134 0 4.711 0 1.45 0 2.558 1.145 2.601 2.614.042 1.101-.128 2.095-1.087 2.786-.448.324-.917.497-1.471.497-1.023.022-2.004.022-2.984.022zm.575-4.537h-2.409c-.213 0-.362 0-.362.281.021.886 0 1.75 0 2.635 0 .195.043.281.256.281 1.641-.021 3.304 0 4.945-.021.682-.022 1.13-.584 1.151-1.275v-.561c0-.8-.511-1.318-1.321-1.318-.725-.022-1.493-.022-2.26-.022zM109.257 75.96c.213.649-.213 1.081-.788 1.47-.768.518-1.471 1.123-2.217 1.663-.32.238-.363.346-.022.605.896.648 1.77 1.36 2.665 2.009.256.194.405.389.362.734-.021.195 0 .39 0 .562 0 .994 0 .972-.98.95-.235 0-.384-.064-.32-.324.17-.777-.235-1.23-.853-1.62a28.577 28.577 0 01-2.046-1.555c-.235-.194-.384-.151-.597.022-.81.626-1.599 1.296-2.451 1.857-.448.303-.49.67-.448 1.102.043.367-.042.54-.469.519-.831-.044-.767-.022-.852-.843-.086-.82.191-1.34.874-1.771.767-.497 1.47-1.124 2.216-1.664.277-.194.32-.302 0-.54-.938-.69-1.854-1.404-2.771-2.117-.213-.15-.319-.324-.298-.604.021-.303 0-.627 0-.93 0-.669 0-.626.682-.69.533-.044.703.13.618.647-.085.497.128.778.512 1.059a63.18 63.18 0 012.366 1.814c.213.152.341.238.597.022a55.066 55.066 0 012.6-1.987c.384-.281.299-.648.277-.972-.042-.454.107-.648.555-.562a.999.999 0 00.362 0c.298-.043.448.043.405.389 0 .216.021.432.021.756zm26.858-13.694c0 1.36-.021 2.721 0 4.082 0 .346-.106.432-.426.432-.895-.021-.895 0-.895-.928 0-.843-.022-1.685 0-2.528 0-.302-.086-.367-.384-.367a239.88 239.88 0 01-5.627 0c-.299 0-.384.086-.384.389.021.994-.021 2.009.021 3.002 0 .368-.106.454-.447.454-.874-.022-.874 0-.874-.886v-7.755c0-.388.106-.496.469-.475.852.022.852 0 .852.864v2.7c0 .281.043.39.341.39a248.07 248.07 0 015.67 0c.32 0 .341-.13.341-.39-.021-1.058 0-2.095-.021-3.153 0-.324.085-.41.384-.41.938 0 .938 0 .938.95.042 1.166.042 2.397.042 3.629zm94.408 17.087V75.27c0-.324.064-.432.405-.432.917.022.917 0 .917.907v2.7c0 .26.064.346.341.346a248.07 248.07 0 015.67 0c.299 0 .362-.108.362-.389-.021-1.058 0-2.095-.021-3.154 0-.302.043-.41.384-.41.938 0 .938 0 .938.929v7.668c0 .432-.086.605-.533.54a.696.696 0 00-.299 0c-.383.065-.532-.064-.511-.496.042-.973 0-1.966.021-2.96 0-.28-.064-.389-.362-.389a244.41 244.41 0 01-5.628 0c-.341 0-.383.13-.383.41.021.994 0 1.966.021 2.96 0 .367-.085.475-.448.454-.874-.022-.874 0-.874-.886v-3.715zm21.978.043c0 1.382-.021 2.765 0 4.147 0 .346-.085.432-.426.432-.896-.021-.896 0-.896-.907 0-.843-.021-1.685 0-2.527 0-.281-.064-.39-.362-.39a239.88 239.88 0 01-5.627 0c-.341 0-.384.13-.384.433.021.993-.021 1.965.021 2.96 0 .366-.085.474-.447.453-.874-.022-.874 0-.874-.886 0-2.57.021-5.141-.022-7.712 0-.432.086-.604.512-.518a.691.691 0 00.298 0c.384-.065.533.086.512.497-.043 1.015 0 2.03-.021 3.046 0 .324.085.388.405.388 1.854-.021 3.709-.021 5.563 0 .362 0 .405-.13.405-.432-.021-1.036 0-2.073-.021-3.11 0-.303.064-.41.383-.41.938 0 .938 0 .938.95.043 1.166.043 2.376.043 3.586zm-48.963-17.195c0-1.382.021-2.765 0-4.147 0-.346.085-.432.426-.432.895.021.895 0 .895.929v2.635c0 .26.022.389.341.389a248.07 248.07 0 015.67 0c.32 0 .341-.13.341-.389-.021-1.037.022-2.074-.021-3.11 0-.368.085-.476.448-.454.874.021.874 0 .874.885v7.755c0 .39-.107.497-.491.476-.852-.022-.852 0-.852-.864s-.021-1.729 0-2.593c0-.302-.085-.367-.363-.367a239.88 239.88 0 01-5.627 0c-.277 0-.384.087-.384.367.022 1.016 0 2.03.022 3.046 0 .324-.086.41-.405.41-.917 0-.917.022-.917-.885.043-1.21.043-2.42.043-3.65zm-25.771-17.302v-1.966c0-1.447 1.129-2.592 2.558-2.592h3.879c1.258 0 2.345 1.037 2.494 2.29.021.216 0 .324-.235.302a2.023 2.023 0 00-.511 0c-.341.043-.533-.043-.64-.432-.149-.54-.596-.778-1.129-.8-1.301-.02-2.58-.02-3.88 0-.725 0-1.215.52-1.215 1.254v3.888c0 .691.469 1.231 1.173 1.253 1.321.043 2.664.021 3.986 0 .511 0 .959-.281 1.087-.778.106-.389.277-.453.618-.432.874.022.938.086.618.929a2.572 2.572 0 01-2.43 1.663h-3.837c-1.449 0-2.536-1.123-2.536-2.592V44.9zm-50.22 0v-1.966c0-1.404 1.13-2.57 2.536-2.57h3.944c1.258 0 2.366 1.058 2.473 2.31 0 .066.042.195.021.195-.32.173-.661.043-.981.087-.149.021-.255.021-.341-.195-.277-.8-.618-1.015-1.428-1.015h-3.517c-.874 0-1.364.497-1.364 1.36v3.673c0 .8.447 1.318 1.236 1.34 1.3.02 2.579.02 3.88 0 .554 0 1.001-.303 1.151-.865.085-.324.234-.367.511-.367.981 0 1.066.13.64 1.037-.469.972-1.237 1.533-2.324 1.555h-3.879c-1.407 0-2.515-1.123-2.515-2.549-.043-.691-.043-1.36-.043-2.03zm52.97 34.475V77.41c0-1.426 1.129-2.571 2.515-2.571h3.943c1.258 0 2.345 1.037 2.494 2.29.022.237-.021.324-.255.302a1.704 1.704 0 00-.469 0c-.341.043-.555 0-.683-.432-.149-.518-.596-.778-1.129-.778-1.301 0-2.58-.021-3.88 0-.703 0-1.215.54-1.215 1.253v3.889c0 .67.448 1.21 1.13 1.23 1.364.044 2.728.022 4.093 0 .49 0 .916-.302 1.023-.777.106-.41.298-.432.639-.432.874.022.938.087.597.95a2.573 2.573 0 01-2.43 1.642h-3.837a2.527 2.527 0 01-2.536-2.549v-2.052zm18.8-29.982c-1.257.389-2.11-.151-2.899-1.059-.703-.82-1.534-1.533-2.259-2.31-.256-.282-.512-.411-.895-.368-.491.043-1.13-.216-1.407.108-.235.28-.085.929-.085 1.404 0 .648-.022 1.318 0 1.966 0 .28-.086.345-.341.345-.981.022-.981.044-.981-.95 0-2.55.021-5.098-.021-7.669 0-.432.085-.605.511-.518a.696.696 0 00.299 0c.383-.065.533.086.511.497-.042 1.015 0 2.03-.021 3.046 0 .324.107.367.405.41 1.13.151 2.004-.194 2.728-1.123.704-.886 1.578-1.62 2.345-2.463.256-.28.512-.41.895-.367.405.043.81 0 1.343 0-.682.691-1.257 1.318-1.854 1.922-.768.8-1.556 1.599-2.345 2.377-.234.216-.213.345 0 .561a315.472 315.472 0 013.794 3.845c.107.13.277.216.277.346zm-50.071-8.835c-1.385 1.36-2.75 2.722-4.156 4.04-.299.302-.256.453.021.712 1.236 1.231 2.451 2.484 3.687 3.716.107.108.278.194.405.28-.042.044-.063.108-.106.152h-1.556c-.192 0-.277-.108-.384-.216-1.044-1.059-2.131-2.096-3.155-3.176-.319-.324-.618-.475-1.065-.432-.448.043-1.024-.13-1.279.087-.299.259-.086.864-.107 1.339a32.04 32.04 0 000 2.009c0 .28-.043.389-.362.389-.96.021-.96.021-.96-.95v-7.713c0-.388.107-.496.469-.475.853.022.853 0 .853.864 0 .886.021 1.75 0 2.636 0 .302.043.41.405.453 1.13.13 1.982-.216 2.729-1.145.703-.885 1.577-1.62 2.344-2.462.256-.281.512-.389.896-.367.405.021.81 0 1.215 0 0 .13.042.194.106.259zm-24.151 51.756c-.64.605-1.301 1.188-1.919 1.815-.767.756-1.492 1.555-2.281 2.311-.255.238-.234.368 0 .605a714.289 714.289 0 014.178 4.212h-1.769c-.149 0-.234-.129-.32-.237-1.087-1.08-2.174-2.139-3.24-3.24-.255-.26-.49-.368-.852-.346a9.859 9.859 0 01-1.13 0c-.32-.022-.405.086-.405.41.021.994 0 2.01.021 3.003 0 .346-.106.432-.426.432-.895-.022-.895 0-.895-.929v-7.755c0-.367.085-.453.447-.453.874.021.874 0 .874.885 0 .907.022 1.793 0 2.7 0 .303.085.41.384.368h.106c1.109.172 1.919-.195 2.622-1.102.704-.907 1.599-1.642 2.388-2.484.234-.26.49-.389.852-.346.405.022.832 0 1.258 0 .021.022.064.087.107.151zm24.62 4.429c0 1.36-.021 2.721 0 4.082 0 .346-.107.432-.426.432-.896-.021-.896 0-.896-.928v-6.373c0-.389-.085-.497-.468-.475-1.493.021-3.006 0-4.498.021-.895 0-1.386.497-1.386 1.405 0 1.944-.021 3.888 0 5.854 0 .41-.128.518-.511.496-.81-.021-.81 0-.81-.842v-5.422c0-1.75 1.087-2.851 2.792-2.851h5.777c.341 0 .426.086.426.432v4.169zm36.919-34.519c0 1.361-.021 2.722 0 4.083 0 .367-.085.475-.448.454-.874-.022-.874 0-.874-.886 0-2.139-.021-4.277.022-6.416 0-.41-.128-.475-.491-.475-1.492.022-2.962 0-4.455 0-.937 0-1.428.475-1.428 1.426 0 1.944-.021 3.888 0 5.854 0 .388-.085.496-.469.475-.852-.022-.852 0-.852-.864v-5.422c0-1.75 1.087-2.83 2.813-2.83h5.67c.384 0 .533.065.512.497-.021 1.382 0 2.743 0 4.104zM76.346 44.942c-.022 1.49-.917 2.376-2.068 3.067a5.749 5.749 0 00-.831.584c-.107.108-.15.237-.086.367s.214.108.32.108c.384-.022.746-.216 1.13-.26.767-.086 1.257.065 1.385.519.15.583-.234 1.383-.873 1.534-1.28.324-2.963-.065-3.624-1.47-.256-.54-.213-1.1-.043-1.663.448-1.512 1.194-2.83 2.409-3.823.17-.13.34-.26.554-.367 1.044-.54 1.62.065 1.748 1.145-.021.086-.021.172-.021.259zm120.541 29.896c1.343 0 2.686.022 4.029 0 .341 0 .469.065.469.454-.021.928 0 .928-.895.928-.832 0-1.663.022-2.494 0-.384-.021-.491.087-.491.476.022 2.268 0 4.514.022 6.782 0 .39-.064.54-.49.519-.832-.043-.832 0-.832-.843v-6.458c0-.346-.064-.476-.447-.476-.981.022-1.983 0-2.963.022-.299 0-.405-.043-.405-.389 0-.993-.022-.993.98-.993 1.151-.022 2.345-.022 3.517-.022zm-52.885-17.194c1.342 0 2.685.021 4.028 0 .341 0 .469.064.469.453-.021.929 0 .929-.895.929-.81 0-1.641.022-2.451 0-.427-.022-.533.086-.533.518.021 2.247 0 4.494.021 6.719 0 .388-.064.54-.49.518-.832-.043-.832 0-.832-.843v-6.415c0-.389-.063-.54-.49-.519-.959.044-1.94 0-2.92.022-.298 0-.405-.043-.405-.389 0-.993-.021-.993.98-.993h3.518zm122.439 53.701c.746.41 1.428.778 2.11 1.145.277.151.491.972.32 1.209-.128.152-.32.044-.469.065-.213.022-.234-.129-.192-.281.086-.367-.149-.518-.426-.648a24.289 24.289 0 01-1.3-.691c-.299-.173-.448-.194-.427.238.022.324 0 .648 0 .993 0 .238.022.411-.319.411-.363 0-.363-.173-.363-.454v-.993c.022-.303-.042-.432-.362-.238-.426.259-.853.518-1.279.756-.235.13-.384.259-.341.562.064.302-.107.324-.362.324-.235 0-.299-.065-.32-.324-.043-.54.064-.929.639-1.167.554-.237 1.066-.605 1.663-.95a51.988 51.988 0 01-1.94-1.145c-.256-.151-.49-.994-.32-1.231.128-.173.32-.065.469-.087.171-.021.192.108.171.238-.085.41.192.583.49.734.384.216.768.432 1.151.67.277.173.363.108.341-.216-.021-.389.022-.756 0-1.145-.021-.324.149-.303.384-.324.256 0 .32.065.32.324-.022.389 0 .799 0 1.188 0 .238.042.324.277.194.554-.302 1.108-.604 1.662-.885.214-.108.214-.303.192-.475-.042-.281.107-.346.363-.346.234 0 .341.021.362.324.043.562-.085.929-.639 1.145-.661.367-1.215.734-1.855 1.08zm20.676 0c0-.67.021-1.34 0-2.009 0-.303.043-.432.384-.411 1.002.022 2.003 0 3.005 0 .554 0 .981.259 1.237.756.255.497.255 1.015-.107 1.448-.149.194-.107.28 0 .475.618.929.043 2.138-1.066 2.181-1.044.044-2.11 0-3.155.022-.255 0-.319-.086-.319-.324.021-.734.021-1.447.021-2.138zm2.196-.368h1.172c.448 0 .746-.281.746-.669 0-.389-.298-.67-.746-.67h-1.727c-1.023 0-1.002 0-.959 1.058.021.216.064.303.299.281h1.215zm-.022 2.074h1.13c.49 0 .789-.259.81-.67 0-.41-.298-.669-.789-.669h-1.726c-.917 0-.917 0-.917.95 0 .303.043.432.384.411.362-.044.746-.022 1.108-.022zm-36.578.734h-2.664c-.213 0-.448.065-.427-.324.022-.28.022-.475.384-.41.299.065.32-.13.32-.367v-2.268c0-.951.575-1.491 1.513-1.512.96 0 1.919.021 2.857-.022.405-.022.469.13.469.497-.022 1.058 0 2.138-.022 3.218 0 .281 0 .519.384.454.341-.065.277.194.298.389.022.216-.021.345-.298.345-.938-.021-1.876 0-2.814 0zm.043-.734c.469 0 .916-.022 1.385 0 .256 0 .363-.043.341-.324a59.72 59.72 0 010-2.743c0-.26-.042-.368-.319-.368-.789.022-1.599 0-2.388 0-.469 0-.724.26-.746.735-.021.799 0 1.577 0 2.376 0 .259.086.324.32.324h1.407zm-47.258.734h-2.707c-.256 0-.405-.021-.384-.345.022-.26.043-.432.363-.389.319.065.341-.13.341-.389-.022-.734 0-1.491 0-2.225 0-.972.575-1.512 1.534-1.534.938 0 1.876.022 2.814 0 .363 0 .49.065.49.476-.021 1.08 0 2.181-.021 3.261 0 .281 0 .497.362.411.32-.065.299.151.32.367.022.259-.042.367-.32.367-.959-.021-1.875 0-2.792 0zm-.021-.734c.469 0 .959-.022 1.428 0 .256 0 .32-.087.32-.324a58.852 58.852 0 010-2.787c0-.237-.064-.324-.32-.324-.789.022-1.599 0-2.387 0-.491 0-.746.259-.768.756-.021.778 0 1.556 0 2.333 0 .303.128.346.363.324.447.022.916.022 1.364.022zm12.939-1.21c.597-.864 1.173-1.749 1.791-2.613.085-.13.128-.281.298-.324.448-.108.619 0 .619.475v3.931c0 .26.063.497-.363.476-.426 0-.341-.26-.341-.497v-3.111c-.725 1.037-1.343 1.987-2.025 2.981-.661-.972-1.321-1.922-2.046-3.002v3.24c0 .259-.043.389-.341.389-.299 0-.363-.087-.363-.389.022-1.34 0-2.657.022-3.997 0-.172-.171-.453.17-.496.256-.022.533-.065.725.237.533.821 1.087 1.62 1.641 2.441.022.087.043.216.213.259zM82.527 59.825c.064.756-.341 1.404-.682 2.052-.405.756-.47 1.49-.107 2.247.427.907.832 1.836 1.13 2.787.235.734.405 1.49.384 2.268 0 .15-.022.302-.086.453-.042.152-.149.303-.32.281-.17-.021-.213-.173-.213-.302-.085-1.944-1.3-3.392-2.174-4.99-.533-.972-.575-1.793.107-2.7.575-.778 1.15-1.556 1.47-2.484.065-.152.15-.346.363-.303.213.043.128.28.15.432 0 .065-.022.13-.022.26zm189.84 53.96c-.682 0-1.364-.021-2.046 0-.277 0-.383-.043-.383-.367.021-1.382.021-2.765 0-4.126 0-.281.063-.389.362-.389 1.364.022 2.728.022 4.092 0 .32 0 .342.108.363.389.021.324-.128.346-.384.346-1.13-.022-2.238 0-3.368-.022-.298 0-.362.087-.362.367 0 .972-.021.972.938.972.725 0 1.428.022 2.153 0 .319 0 .362.108.362.389 0 .26-.064.346-.341.346-.895-.022-1.812 0-2.707-.022-.256 0-.384.022-.384.346 0 .994-.021.994.959.994.938 0 1.876.021 2.814 0 .32 0 .341.129.362.388 0 .26-.063.368-.341.346-.746.022-1.428.043-2.089.043zm-60.345 0h-2.047c-.277 0-.383-.043-.383-.367.021-1.404.021-2.787 0-4.191 0-.237.064-.324.32-.324 1.385 0 2.792.022 4.177 0 .341 0 .278.173.299.389.021.259-.043.367-.341.346-1.13-.022-2.238 0-3.368-.022-.32 0-.426.087-.426.432.021.929 0 .929.937.929.704 0 1.386.022 2.089 0 .299 0 .427.043.427.389 0 .324-.128.346-.405.346-.896-.022-1.769 0-2.665 0-.256 0-.383.021-.383.345 0 .994-.022.994.959.994.938 0 1.876.021 2.813 0 .32 0 .363.108.363.389 0 .259-.064.367-.341.345-.661-.021-1.343 0-2.025 0zm-10.616-1.879c0 .518-.021 1.037 0 1.555 0 .238-.064.324-.319.324-.214 0-.384 0-.384-.324s.17-.799-.085-.972c-.235-.173-.661-.065-.981-.065h-2.046c-.235 0-.341.065-.32.324.021.195 0 .411 0 .627 0 .216.064.432-.298.432-.342 0-.384-.13-.384-.432.021-.972 0-1.966 0-2.938 0-.929.575-1.512 1.492-1.512h1.833c.874 0 1.428.561 1.45 1.447.042.497.042 1.015.042 1.534zm-2.408-.195h1.428c.128 0 .298.044.298-.172 0-.454.022-.929-.042-1.383-.043-.346-.32-.518-.661-.518-.363 0-.704.021-1.066 0-1.812-.065-1.641.172-1.663 1.728 0 .259.064.367.341.345.448-.021.896 0 1.365 0zm-14.261.152v-1.491c.021-.864.597-1.447 1.45-1.447h1.897c.852 0 1.428.561 1.449 1.404.022 1.058 0 2.095.022 3.154 0 .237-.064.324-.32.324-.213 0-.384 0-.384-.324s.171-.8-.085-.972c-.235-.173-.661-.065-.981-.065h-2.046c-.256 0-.341.065-.32.324.022.194 0 .41 0 .626 0 .216.064.432-.319.432-.342 0-.384-.129-.384-.432.042-.54.021-1.037.021-1.533zm2.409-.152h1.428c.128 0 .298.044.298-.172 0-.454.022-.929-.042-1.383-.043-.324-.299-.497-.618-.497-.704 0-1.386-.021-2.089 0-.405.022-.661.281-.661.692-.021.367 0 .712 0 1.08-.021.237.064.302.298.28.427-.021.896 0 1.386 0zm39.221-1.706l-3.005 3.435c-.064.064-.107.129-.171.194-.192.259-.469.173-.703.13-.213-.044-.107-.303-.107-.454v-3.931c0-.281 0-.476.384-.476.426 0 .298.281.298.497v3.392c.277-.303.469-.519.64-.735.831-.95 1.684-1.901 2.515-2.851.192-.216.384-.303.661-.281.213 0 .298.065.298.302 0 1.426-.021 2.873 0 4.299 0 .281-.128.281-.341.302-.256.022-.362-.043-.362-.345.021-.951 0-1.901 0-2.852v-.561a.117.117 0 00-.107-.065zm-80.212 2.765c1.087-1.231 2.088-2.355 3.09-3.499.086-.087.15-.195.235-.26.192-.194.469-.129.682-.086.192.043.085.259.085.41v4.04c0 .238.043.432-.32.432-.362 0-.362-.151-.362-.432.021-.951 0-1.901 0-2.851 0-.152.064-.346-.107-.541-.788.908-1.556 1.772-2.323 2.657-.256.303-.533.584-.767.908-.213.302-.512.281-.768.216-.255-.065-.128-.368-.128-.54-.021-1.296 0-2.592-.021-3.889 0-.28.021-.432.362-.432.363 0 .32.195.32.411.022 1.101.022 2.203.022 3.456zm-33.444 0c1.109-1.253 2.111-2.376 3.112-3.499.086-.087.15-.195.235-.26.213-.194.469-.129.682-.064.17.043.085.259.085.41v4.04c0 .237 0 .41-.341.41-.298 0-.362-.108-.362-.389.021-1.123 0-2.225 0-3.37-.256.022-.32.195-.405.303a357.144 357.144 0 00-2.771 3.175c-.149.151-.277.259-.512.281-.341.022-.426-.086-.426-.432.021-1.339.021-2.7 0-4.04 0-.302.042-.41.384-.432.383 0 .298.216.298.432.021 1.081.021 2.182.021 3.435zm119.88-2.873a319.077 319.077 0 00-3.112 3.564 1.127 1.127 0 01-.213.238c-.214.194-.469.13-.682.065-.192-.043-.086-.259-.086-.411v-4.039c0-.259.043-.389.363-.411.319 0 .341.152.341.389-.022.951 0 1.901 0 2.852v.626c1.087-1.231 2.089-2.354 3.091-3.478.085-.086.149-.173.234-.281.192-.216.448-.129.682-.108.235.044.107.281.107.432v3.997c0 .259.021.453-.341.432-.405 0-.341-.238-.341-.475v-2.787c0-.13-.022-.302-.043-.605zm-56.658 2.766c.597-.67 1.173-1.34 1.748-2.009.448-.497.895-.994 1.3-1.512.235-.281.512-.281.789-.195.235.065.107.346.107.54.021 1.318 0 2.614.021 3.932 0 .28-.064.388-.362.388-.299 0-.363-.108-.363-.388.022-1.124 0-2.269 0-3.521-.831.972-1.577 1.836-2.323 2.721-.277.303-.554.605-.789.951-.17.237-.362.259-.618.259-.213 0-.298-.043-.298-.281 0-1.425.021-2.851 0-4.298 0-.26.106-.303.341-.303.234 0 .383.022.362.324-.021.972 0 1.923 0 2.895 0 .108-.043.281.085.497zm-23.511 0c.597-.67 1.173-1.34 1.748-2.009.448-.497.874-1.016 1.322-1.513.107-.108.17-.237.362-.237.341-.022.555 0 .533.475-.042 1.339-.021 2.679 0 4.04 0 .28-.064.388-.362.388-.299 0-.362-.129-.362-.388.021-1.124 0-2.269 0-3.521-.832.972-1.578 1.836-2.324 2.721-.277.303-.554.605-.789.951-.17.237-.362.259-.618.259-.213 0-.298-.043-.298-.281 0-1.426.021-2.851 0-4.299 0-.259.106-.302.341-.302.234 0 .384.022.362.324-.021.972 0 1.923 0 2.895 0 .108-.064.28.085.497zm19.142-3.76h.98c.746.022 1.343.562 1.386 1.318.043.734.043 1.491 0 2.225-.043.799-.618 1.318-1.407 1.339h-1.982c-.789-.021-1.343-.518-1.364-1.296a19.205 19.205 0 010-2.225c.042-.799.596-1.317 1.406-1.339.299-.022.64-.022.981-.022zm-.043.735h-.959c-.448 0-.703.259-.725.691a32.04 32.04 0 000 2.009c.022.454.256.713.704.713.661 0 1.321.021 1.982 0 .469 0 .725-.259.725-.735.021-.648.021-1.317 0-1.965-.021-.454-.256-.692-.704-.713-.341-.022-.682 0-1.023 0zm-41.63 4.147h-1.023c-.746-.022-1.3-.518-1.343-1.275a20.428 20.428 0 010-2.268c.043-.777.597-1.296 1.364-1.317.661-.022 1.322 0 1.983 0 .788 0 1.385.561 1.428 1.339.043.713.043 1.447 0 2.182-.043.821-.618 1.361-1.45 1.361-.298-.022-.639-.022-.959-.022zm.022-4.148h-.96c-.469 0-.724.26-.746.713a30.684 30.684 0 000 1.966c.022.475.277.735.746.735h1.94c.469 0 .746-.26.746-.713.021-.648.021-1.318 0-1.966-.021-.475-.277-.713-.746-.735-.341-.021-.661 0-.98 0zm129.259 4.149c-.362 0-.724.021-1.065 0-.725-.022-1.258-.54-1.301-1.275a20.428 20.428 0 010-2.268c.043-.778.597-1.318 1.365-1.318a33.231 33.231 0 012.046 0c.746.022 1.343.562 1.364 1.318.043.735.043 1.491 0 2.225-.042.778-.639 1.296-1.428 1.318h-.981zm-.021-.735h.959c.491-.021.746-.259.768-.756.021-.626 0-1.231 0-1.858 0-.54-.256-.777-.789-.799h-1.876c-.469 0-.746.238-.767.713a32.04 32.04 0 000 2.009c.021.432.277.691.725.691h.98zm-10.445-2.225c0 .497.021.994 0 1.49-.022.886-.597 1.448-1.471 1.448h-1.833c-.619-.022-1.088-.367-1.279-.929-.043-.13-.171-.346 0-.389.191-.043.49-.173.618.13.17.41.49.475.874.475.554-.022 1.087 0 1.641 0 .597-.022 1.002-.67.767-1.231-.085-.195-.234-.108-.341-.108h-2.302c-.874 0-1.428-.562-1.471-1.448-.021-.345.022-.691 0-1.037-.021-.302.128-.324.363-.324.277-.021.362.087.341.346a6.857 6.857 0 000 .929c.021.54.256.799.789.799.767 0 1.534-.021 2.302 0 .298 0 .362-.108.362-.389-.021-.453 0-.907 0-1.339 0-.259.043-.367.32-.367.298 0 .383.086.362.389-.064.518-.042 1.037-.042 1.555zm-127.065.519c0-.67.022-1.34 0-2.009 0-.303.043-.432.384-.411 1.002.022 2.004 0 3.006.022.788 0 1.343.561 1.385 1.361.022.28.022.561 0 .821-.042.756-.597 1.317-1.364 1.339-.746.021-1.492.043-2.238 0-.448-.022-.576.129-.512.54.022.129 0 .281 0 .41.022.238.022.411-.32.411-.362 0-.362-.173-.362-.432.043-.713.021-1.383.021-2.052zm2.047.367h1.3c.49 0 .746-.238.767-.756v-.476c-.021-.604-.234-.842-.831-.842-.661 0-1.322.043-1.982-.022-.533-.043-.682.13-.618.648.042.454-.15 1.081.085 1.34.256.302.895.065 1.279.108zm-17.585-.368c0-.691.021-1.382 0-2.073 0-.303.085-.368.383-.368 1.023.022 2.047 0 3.07 0 .213 0 .405.065.597.152.682.345.98 1.231.746 2.289-.15.67-.725 1.08-1.471 1.08-.746 0-1.492.022-2.238 0-.299 0-.384.087-.363.368.022.194 0 .388 0 .561 0 .216.043.432-.319.432-.342 0-.384-.151-.384-.432-.021-.669-.021-1.339-.021-2.009zm2.174.368h1.215c.426 0 .661-.238.703-.67a2.985 2.985 0 000-.627c-.021-.54-.256-.777-.788-.777-.747 0-1.493.021-2.239-.022-.362-.021-.426.13-.405.432a10.7 10.7 0 010 1.188c-.021.346.064.497.427.454.383-.022.724.022 1.087.022zm-33.679-20.24c.042-.562.128-1.08.362-1.513.405-.777 1.279-.993 2.068-.518.554.324 1.087.67 1.705.843.469.13.511.367.085.626-.554.346-1.15.67-1.726.95-.49.238-.938.519-1.45.692-.554.194-.725.15-.895-.41a2.722 2.722 0 01-.15-.67zm165.22 19.873c-.576-.432-1.088-.821-1.599-1.21-.192-.151-.341-.972-.213-1.145.128-.173.319-.065.469-.086.191-.022.234.108.213.259-.085.41.17.583.447.778.427.302.81.885 1.279.864.427-.022.832-.562 1.237-.864.277-.195.533-.368.447-.778-.064-.302.171-.259.341-.281.192 0 .341-.021.363.281.021.497-.022.886-.512 1.166-.447.26-.852.627-1.321.994.511.411 1.023.778 1.513 1.167.256.194.448.864.298 1.144-.106.217-.298.087-.447.108-.107.022-.277 0-.235-.172.15-.562-.298-.735-.639-.994-.341-.281-.704-.734-1.066-.734-.362 0-.725.453-1.066.734-.319.259-.767.432-.639.994.042.172-.107.194-.235.172-.149-.021-.341.109-.447-.108-.128-.28.042-.972.298-1.144.49-.346.981-.713 1.514-1.145zm-139.854-.022c0-.692.021-1.383 0-2.074 0-.259.064-.346.341-.346 1.385.022 2.771.022 4.135 0 .235 0 .32.065.32.324-.021 1.426-.021 2.83 0 4.256 0 .259-.085.324-.32.324-.234 0-.383-.022-.383-.324.021-1.123-.022-2.247.021-3.37.021-.41-.128-.475-.49-.475-.81.021-1.642.021-2.452 0-.383-.022-.533.065-.511.497.042 1.058.021 2.138.021 3.218 0 .216.085.475-.32.475-.362 0-.362-.172-.362-.453v-2.052zm180.716 1.145c-.086.799-.576 1.296-1.364 1.296-.683.022-1.365.022-2.047 0-.767-.021-1.321-.54-1.364-1.317a19.205 19.205 0 010-2.225c.043-.778.597-1.297 1.364-1.318a33.068 33.068 0 012.089 0c.554.021 1.087.41 1.237.907.042.13.17.346-.022.411-.17.043-.49.172-.597-.087-.213-.475-.575-.518-1.002-.497-.554.022-1.087 0-1.641 0-.511 0-.767.238-.789.735a30.684 30.684 0 000 1.966c.022.453.256.712.704.712h1.982c.235 0 .427-.064.597-.259.384-.367.384-.389.853-.324zm-142.369-.021c-.085.82-.576 1.317-1.343 1.317-.682.022-1.364.022-2.046 0-.768-.021-1.322-.54-1.365-1.317a19.661 19.661 0 010-2.225c.043-.778.597-1.318 1.365-1.318a33.068 33.068 0 012.089 0c.554.021 1.087.389 1.236.907.043.13.17.346 0 .411-.171.064-.49.172-.597-.087-.213-.518-.618-.518-1.066-.518h-1.641c-.469 0-.725.259-.746.734a30.684 30.684 0 000 1.966c.021.475.277.713.746.713h1.94c.255 0 .533-.065.618-.303.192-.432.511-.28.81-.28zm5.947.021c-.085.799-.576 1.296-1.364 1.296-.682.022-1.365.022-2.047 0-.767-.021-1.321-.54-1.364-1.317a19.661 19.661 0 010-2.225c.043-.778.597-1.297 1.364-1.318a33.068 33.068 0 012.089 0c.555.021 1.087.41 1.237.907.042.13.17.346-.022.411-.17.043-.49.172-.597-.087-.213-.475-.575-.518-1.001-.497h-1.642c-.511 0-.767.238-.788.735a29.29 29.29 0 000 1.966c.021.453.255.712.703.712h1.982c.235 0 .427-.064.597-.259.384-.367.363-.389.853-.324zm18.204 0c-.085.82-.597 1.296-1.407 1.317h-1.94c-.831 0-1.385-.54-1.407-1.382a35.577 35.577 0 010-2.117c.043-.821.597-1.361 1.429-1.383h1.982c.597 0 1.13.389 1.3.929.043.13.171.346-.021.389-.171.043-.49.173-.597-.086-.213-.497-.575-.519-1.002-.497h-1.641c-.512 0-.768.237-.789.734a30.684 30.684 0 000 1.966c.021.475.277.713.746.713h1.897c.256 0 .533-.043.619-.259.191-.432.49-.389.831-.324zM73.469 75.983c.277.432.66.605 1.023.82.405.26.405.454.02.713-.49.325-.98.368-1.513.022-.404-.26-.745-.583-1.087-.929-.32-.302-.255-.605.086-.864.895-.648 1.79-1.34 2.835-1.75.277-.108.554-.15.831-.043.49.173.512.238.128.562a.511.511 0 00-.192.346 4.47 4.47 0 01-.085.518c-.17.95-.384 1.08-1.258.8-.234-.087-.448-.26-.788-.195zm122.182 32.985a200.83 200.83 0 01-2.153 2.16c-.171.173-.171.26 0 .432.703.692 1.407 1.405 2.153 2.161-.512.086-.938.151-1.301-.303-.447-.518-.959-.993-1.428-1.469-.106-.108-.213-.237-.426-.259-.917-.086-.917-.086-.917.843v.885c0 .238 0 .389-.319.367-.277 0-.384-.064-.384-.367.021-1.382.021-2.765 0-4.147 0-.303.085-.367.384-.367.298 0 .319.129.319.367-.021.475 0 .929 0 1.404 0 .237.064.302.32.324.533.043.938-.065 1.3-.497.32-.41.746-.713 1.066-1.123.341-.475.768-.562 1.386-.411zm-27.199 4.753c-.639.151-1.087.022-1.47-.454-.384-.475-.853-.885-1.301-1.317-.128-.108-.213-.238-.426-.238-.917-.065-.917-.086-.917.843v.82c0 .238.022.411-.319.411-.363 0-.363-.173-.363-.432 0-1.34.022-2.7 0-4.04 0-.302.064-.41.384-.41.384 0 .298.216.298.432 0 .432.022.864 0 1.296-.021.302.107.346.384.367.512.043.895-.108 1.236-.518.32-.389.725-.735 1.066-1.102.533-.54.533-.54 1.386-.41-.682.691-1.322 1.382-2.004 2.009-.341.302-.277.453.021.734.682.648 1.322 1.318 2.025 2.009zM78.711 59.825c-.064.432-.021.95-.341 1.361-.17.216-.448.389-.533.043-.34-1.145-1.364-1.836-1.77-2.894-.276-.713-.34-1.49.086-2.182.235-.41.533-.41.682.021.277.843.874 1.426 1.386 2.053.34.453.469.972.49 1.598zm2.367-11.881c.063.518-.171.993-.32 1.447-.213.67-.064 1.231.234 1.815.192.367.405.756.47 1.188.02.194.02.389-.15.518-.192.151-.32-.065-.426-.151a26.62 26.62 0 01-1.62-1.49c-.405-.411-.47-.994-.214-1.513.342-.648.661-1.296 1.002-1.944.022-.021.022-.065.043-.086.17-.26.277-.67.682-.562.341.087.32.454.299.778zm202.672 60.959c.703 0 1.407.022 2.089 0 .298 0 .32.13.32.368 0 .237-.022.388-.32.367-.469-.022-.917 0-1.386-.022-.277-.021-.384.065-.362.367.021 1.124 0 2.247.021 3.37 0 .281-.021.432-.384.432-.341 0-.319-.173-.319-.41v-3.305c0-.324-.064-.475-.405-.432-.384.043-.789 0-1.173 0-.234 0-.49.086-.49-.346-.021-.475.256-.367.512-.367.639-.022 1.257-.022 1.897-.022zM78.392 88.123c-.192.043-.405.108-.597.108-.15 0-.405 0-.32-.302.17-.605 1.79-1.448 2.345-1.21.128.043.234.151.34.216.235.151.534.324.385.626-.15.324-.299.692-.747.735-.511.086-.938-.108-1.406-.173z" fill="#9A0303"/><path d="M177.533 108.904c-.597 0-1.151-.367-1.343-.907-.043-.13-.171-.346 0-.411.192-.065.426-.129.618.087.597.734.831.713 1.471-.022.17-.194.426-.13.596-.065.192.065.043.281 0 .389-.191.562-.724.929-1.342.929zm-23.512 0c-.597 0-1.151-.346-1.364-.907-.043-.13-.149-.346 0-.411.192-.065.448-.151.639.108.469.67 1.002.67 1.429 0 .17-.281.447-.173.618-.129.234.064.042.302 0 .432-.192.561-.725.907-1.322.907z" fill="#9A0303"/></g><defs><clipPath id="clip0"><path fill="#fff" transform="translate(25.166 33.73)" d="M0 0h266.769v85.218H0z"/></clipPath></defs></svg>