<svg width="375" height="156" fill="none" xmlns="http://www.w3.org/2000/svg"><rect width="375" height="156" rx="14" fill="#E1E1E1"/><path d="M352.994 55.743c.107 11.511-4.503 20.677-12.437 28.458-6.54 6.395-14.581 10.019-23.694 11.298-7.826 1.066-15.438.426-22.514-3.198-7.612-3.837-12.437-9.912-14.045-18.119-2.252-11.298.321-21.53 7.934-30.483 6.861-8.1 15.653-12.896 26.159-14.921 7.076-1.386 14.045-.96 20.8 1.598 9.113 3.518 15.331 9.7 17.69 19.292.214 2.132 0 4.263.107 6.075zm-55.751 8.847c.108.64.215 1.811.429 2.877.751 4.157 2.788 7.461 6.326 9.806 6.004 3.837 12.329 3.517 18.548.533 6.432-3.091 10.506-8.207 12.329-15.028.858-2.985.858-5.969-.322-8.847-2.465-6.501-8.791-10.019-15.545-9.912-4.396 0-8.47 1.386-12.223 3.944-5.682 3.837-9.327 9.06-9.542 16.627zm-178.615 2.557c.107-9.272 3.216-17.266 9.435-24.194 7.505-8.314 16.939-13.11 27.982-14.495 9.435-1.173 18.226.64 25.946 6.395 6.218 4.69 9.756 10.978 10.399 18.865.536 8.313-1.823 15.88-6.218 22.809-5.897 9.166-14.152 15.134-24.766 17.906-8.577 2.238-17.154 2.344-25.517-1.066-9.756-3.944-15.331-11.192-16.832-21.424-.215-1.598-.322-3.197-.429-4.796zm55.965-8.207c-.107-.959-.107-1.705-.215-2.344-1.608-8.634-9.434-13.004-17.261-12.577-3.967.213-7.612 1.492-10.935 3.73-6.755 4.583-10.722 10.765-9.435 19.185 1.286 8.847 8.684 13.643 17.047 13.003 5.039-.32 9.434-2.345 13.187-5.649 4.61-4.05 7.183-9.379 7.612-15.348zM70.704 71.198h-13.83c.75-4.37 1.393-8.527 2.143-12.684H92.79c-.215 1.172-.322 2.132-.537 3.198-1.393 6.608-3.43 12.896-7.504 18.438-6.004 8.1-13.938 13.217-23.909 15.029-7.29 1.385-14.474 1.066-21.442-1.6-8.685-3.303-14.152-9.485-16.082-18.544-.43-1.919 0-4.05-.215-5.97-.536-7.034 1.073-13.642 4.396-19.824 3.324-6.181 8.041-11.19 14.045-14.921 7.612-4.69 15.867-6.608 24.766-6.182 6.54.213 12.758 1.812 17.797 6.288 3.324 2.878 5.468 6.395 6.862 10.445.107.32-.215 1.066-.429 1.173-5.36 2.132-10.721 4.157-16.082 6.182-.75-1.6-1.394-3.304-2.359-4.69-2.68-4.05-6.754-5.542-11.471-5.223-9.328.64-14.688 6.395-18.12 14.39-2.358 5.541-2.787 11.297-.642 17.159a13.692 13.692 0 0012.543 8.74c4.932.106 9.328-1.173 12.973-4.69 1.716-1.812 3.11-4.583 3.324-6.715zM239.992 30.27c-.75 4.69-1.501 9.272-2.251 13.962-4.396 0-8.577.107-12.759 0-1.286 0-1.608.426-1.715 1.492-1.072 6.715-2.144 13.323-3.216 20.038-1.18 7.354-2.359 14.602-3.646 21.956-.321 1.705-.536 3.517-.857 5.222-.107.32-.536.96-.751.96-5.36.106-10.828 0-16.296 0 2.68-16.627 5.468-33.041 8.148-49.668h-14.152c.322-2.238.643-4.37.965-6.395.322-2.132.75-4.263 1.072-6.395.107-.746.322-1.172 1.287-1.172h44.171z" fill="#00539A"/><path d="M263.257 93.793h-16.94c2.681-16.52 5.361-32.934 8.149-49.561h-14.153c.751-4.69 1.501-9.273 2.252-13.962h45.351c-.751 4.583-1.501 9.166-2.252 13.855h-12.972c-.858 0-1.18.214-1.394 1.066-.965 6.289-2.037 12.683-3.109 18.972-1.18 6.821-2.252 13.643-3.431 20.357-.643 3.198-1.072 6.182-1.501 9.273zm-154.278 0h-16.94c3.538-21.21 6.969-42.313 10.4-63.524h16.939c-3.431 21.21-6.861 42.314-10.399 63.524z" fill="#00539A"/><path d="M23.66 104.894h17.484v3.303h-6.93V128H30.59v-19.803h-6.928v-3.303zM55.018 128h-9.894v-23.106h9.395c1.869 0 3.464.617 4.785 1.853 1.322 1.235 1.982 2.653 1.982 4.253 0 .924-.193 1.773-.58 2.546-.376.774-.752 1.311-1.128 1.612l-.596.467c.086.043.204.118.354.226.162.096.446.316.855.66.408.333.757.704 1.047 1.112.3.408.575.94.822 1.595.257.645.386 1.316.386 2.014 0 1.848-.709 3.438-2.127 4.77-1.418 1.332-3.185 1.998-5.3 1.998zm-6.268-3.142h6.268c1.074 0 1.977-.36 2.707-1.08.73-.73 1.096-1.632 1.096-2.707 0-1.074-.365-1.976-1.096-2.707-.72-.73-1.622-1.095-2.707-1.095H48.75v7.589zm5.769-16.822H48.75v6.268h5.769c.902 0 1.648-.296 2.24-.887.6-.601.902-1.348.902-2.239 0-.903-.301-1.649-.903-2.24-.59-.602-1.337-.902-2.24-.902zm17.982 2.336c-1.654 1.654-2.481 3.679-2.481 6.075 0 2.395.827 4.426 2.481 6.091 1.665 1.665 3.695 2.497 6.09 2.497 2.407 0 4.437-.832 6.092-2.497 1.665-1.665 2.497-3.696 2.497-6.091 0-2.396-.832-4.421-2.497-6.075-1.655-1.665-3.685-2.497-6.091-2.497-2.396 0-4.426.832-6.091 2.497zm-2.594 14.502c-2.342-2.299-3.513-5.108-3.513-8.427 0-3.32 1.171-6.129 3.513-8.427 2.342-2.299 5.237-3.449 8.685-3.449 3.459 0 6.36 1.15 8.701 3.449 2.342 2.298 3.513 5.107 3.513 8.427 0 3.319-1.171 6.128-3.513 8.427-2.342 2.299-5.242 3.448-8.701 3.448-3.448 0-6.343-1.149-8.685-3.448zm26.2-19.98h9.233c2.202 0 4.044.725 5.527 2.175 1.493 1.439 2.239 3.196 2.239 5.269 0 2.062-.746 3.813-2.239 5.253-1.483 1.439-3.325 2.159-5.527 2.159h-5.608V128h-3.625v-23.106zm9.233 3.303h-5.608v8.25h5.608c1.139 0 2.111-.392 2.916-1.176.806-.795 1.209-1.773 1.209-2.933 0-1.171-.403-2.154-1.209-2.949-.805-.795-1.777-1.192-2.916-1.192zM138 128h-3.625v-16.661L121.5 128h-3.125v-23.106H122v16.677l12.875-16.677H138V128zm16.839-23.106v11.231l10.393-11.231h4.624l-8.91 9.571L170.517 128h-4.463l-7.59-10.893-3.625 3.964V128h-3.626v-23.106h3.626zM171.516 128l9.571-23.106h3.626L194.284 128h-3.786l-2.482-6.107h-10.232L175.303 128h-3.787zm11.392-18.981l-3.803 9.571h7.59l-3.787-9.571zm18.982-4.125v11.231l10.393-11.231h4.624l-8.91 9.571L217.568 128h-4.464l-7.589-10.893-3.625 3.964V128h-3.626v-23.106h3.626zM227.816 128v-23.106h14.84v3.303h-11.215V128h-3.625zm22.091-3.303h13.036V128h-16.661v-23.106h16.339v3.303h-12.714v6.107h10.071v3.303h-10.071v7.09zm36.642-19.803V128h-3.626v-10.071h-11.392V128h-3.625v-23.106h3.625v9.748h11.392v-9.748h3.626zM312.765 128h-3.625v-16.661L296.265 128h-3.126v-23.106h3.626v16.677l12.874-16.677h3.126V128zm26.233 0h-3.626v-16.661L322.498 128h-3.126v-23.106h3.625v16.677l12.875-16.677h3.126V128zm-11.376-29.036c.44.44.988.66 1.643.66.666 0 1.219-.22 1.66-.66.44-.44.66-.994.66-1.66h2.466c0 1.322-.451 2.423-1.354 3.303-.902.881-2.046 1.322-3.432 1.322-1.386 0-2.53-.441-3.432-1.322-.902-.88-1.354-1.981-1.354-3.303h2.482c0 .656.22 1.209.661 1.66zm21.446 22.929h-2.642l-.661-16.999h3.964l-.661 16.999zm-2.819 5.801c-.43-.43-.645-.929-.645-1.499 0-.58.215-1.085.645-1.514.429-.43.929-.645 1.498-.645s1.069.215 1.499.645c.429.429.644.934.644 1.514 0 .57-.215 1.069-.644 1.499-.43.419-.93.628-1.499.628-.569 0-1.069-.209-1.498-.628z" fill="#0066A9"/></svg>