<svg width="26" height="22" fill="none" xmlns="http://www.w3.org/2000/svg"><path d="M13.232 3.097C9.572.24 6.196.252 3.182 3.137a7.286 7.286 0 00-1.673 2.376 7.025 7.025 0 00-.587 2.809c0 .964.2 1.918.587 2.808.388.89.956 1.697 1.672 2.376l.03.028a4371.29 4371.29 0 008.2 7.053l1.038.893c.176.173.401.292.647.343.055.01.11.016.166.017a.551.551 0 00.27-.072l.103-.046c.481-.348.943-.72 1.381-1.117 1.08-.919 3.388-2.88 8.242-7.053l.033-.03a7.284 7.284 0 001.673-2.374c.388-.89.588-1.845.588-2.81 0-.963-.2-1.918-.588-2.808a7.283 7.283 0 00-1.673-2.375c-3.683-3.537-7.405-2.123-10.06-.058z" fill="#fff" fill-opacity=".4"/></svg>