<svg width="24" height="22" fill="none" xmlns="http://www.w3.org/2000/svg"><g clip-path="url(#clip0)" fill="#fff"><path d="M22.776 10.754c0-1.132-.958-2.054-2.132-2.054H15.87c.29-.846.746-2.423.746-4.033 0-1.733-.798-3.257-2.032-3.883-.83-.42-1.741-.372-2.498.13a.455.455 0 00-.206.377v2.462c0 1.624-1.198 2.871-2.47 4.192-.469.489-.94.985-1.36 1.505V20.5a3.772 3.772 0 001.936.525h9.023c1.044 0 1.895-.82 1.895-1.826a1.77 1.77 0 00-.35-1.053 2.02 2.02 0 00.989-1.732c0-.364-.103-.72-.293-1.03a2.03 2.03 0 00.957-1.71 1.98 1.98 0 00-.403-1.199c.59-.367.972-1.008.972-1.721zM6.197 8.717H1.934c-.524 0-.948.408-.948.913v10.957c0 .504.424.913.948.913h4.263c.523 0 .947-.409.947-.913V9.63c0-.505-.424-.913-.947-.913zm-1.323 11.47c-.501 0-.908-.392-.908-.875s.407-.875.908-.875c.501 0 .908.392.908.875s-.407.875-.908.875z"/></g><defs><clipPath id="clip0"><path fill="#fff" transform="translate(.863)" d="M0 0h22.389v22H0z"/></clipPath></defs></svg>