<svg width="258" height="128" fill="none" xmlns="http://www.w3.org/2000/svg"><path d="M117.213 42.637L129.587 9.67c.561-.621.561-1.508.118-2.188-.443-.71-1.329-1.065-2.333-1.065H5.463V2.1C5.463.946 4.223 0 2.687 0 1.122 0 0 .976 0 2.1v123.77c0 1.153 1.24 2.099 2.687 2.099 1.447 0 2.688-.975 2.688-2.099V78.947h121.879c1.004 0 1.89-.444 2.333-1.154.443-.71.443-1.508-.119-2.188l-12.255-32.968z" fill="#4683C6"/><path d="M5.464 74.63V10.645H124.33l-10.867 30.869c-.562.71-.562 1.596 0 2.276l10.749 30.87H5.464v-.03z" fill="#fff"/><path fill-rule="evenodd" clip-rule="evenodd" d="M30.065 17.031c1.092.089 2.126.533 3.071 1.094.62.266 1.152.65 1.654 1.124-.414.591-.975 1.094-1.536 1.537 2.57.65 5.168-.059 7.738-.384 1.801-.236 3.662.266 5.227 1.153.768.414 1.27 1.124 1.92 1.686.678.59 1.21 1.36 2.008 1.833.856.473 1.712.976 2.687 1.094.088-.946-.295-1.952.059-2.868.325.03.709 0 .974.207 1.064.975 2.393 1.833 2.777 3.311a7.188 7.188 0 01-1.3.562c.857.237 1.713.385 2.599.385.295.916-.207 1.773-.886 2.335-.738-.71-1.565-1.39-2.333-2.099.177.532.236 1.094.148 1.656-1.418-.03-2.836-.71-3.751-1.745-.325-.502.207-.976.561-1.271-1.034-.325-2.067-.769-2.894-1.508.06.296.089.591.177.887.295.266.65.414.945.71.561.798.148 2.07-.768 2.424-.413.237-.827-.03-1.18-.207-1.035 1.272-2.57 1.952-4.135 2.306.827.74 1.742 1.39 2.628 2.04.916.651 1.683 1.686 2.894 1.686.443.089 1.034-.148 1.359.237-.118.088-.355.295-.473.384.325.325.65.71.413 1.212 0 .562-.62.592-1.033.414-.827-.207-1.3-.975-1.89-1.537-.975-1.035-2.156-1.863-3.367-2.573.709 2.543 1.27 5.145 2.067 7.658-.974.267-1.949.562-2.953.799.325 1.596.798 3.193 1.004 4.82.827.147 1.713.236 2.422.709.266.207.62.74.177.946-.915.355-1.92.266-2.864.266-.591.03-1.093-.502-1.093-1.094 0-1.863-.473-3.696-.768-5.529l-2.067-.089c-.296 1.508-.739 2.987-1.004 4.495-.118.502.147.975.088 1.449-.059.384-.413.68-.827.68-.945.03-1.92.118-2.864 0-.532-.09-.886-.947-.355-1.272.798-.414 1.743-.473 2.6-.68.236-1.656.737-3.252 1.151-4.879-1.418-.414-2.717-1.094-4.016-1.774.945-2.75 2.037-5.44 2.894-8.22-1.152-.443-2.363-.887-3.249-1.774-.59-.562-1.033-1.242-1.447-1.922-1.329 1.183-2.923 2.011-4.548 2.72.148.917.266 1.834.414 2.75-.827.385-1.713.474-2.57.68.384 1.39.798 2.81 1.152 4.2.148.324-.177.502-.384.68.06 1.152.266 2.276.414 3.43a21.5 21.5 0 00-1.477.383c.207 1.331.414 2.662.502 3.992.62-.03 1.24-.148 1.89-.118.59.089 1.152.591 1.3 1.183-.119.591-.739.887-1.27.946-.798.118-1.625.088-2.392-.207-.65-.266-.827-1.035-.886-1.686-.148-1.39-.119-2.809-.178-4.228l-1.417.178a7.09 7.09 0 00-.384-1.745c-.266.65-.295 1.39-.384 2.07-.472.06-.975.148-1.447.236-.06 1.597.177 3.194 0 4.76-.709.858-1.95.74-2.953.71-.532-.059-1.359-.177-1.33-.887-.029-.295.237-.413.473-.473.886-.266 1.772-.355 2.688-.443.059-1.212.177-2.425.236-3.608-.473.03-.915.06-1.358.09-.119-.917-.06-1.893-.207-2.81a3.08 3.08 0 01-.473-.177c.03-1.42.119-2.81.178-4.228-.325.236-.65.561-1.064.561-.59-.088-.886-.65-1.27-1.034-.65.591-1.299 1.182-1.949 1.744-.383.325-.502.858-.945 1.124a3.886 3.886 0 01-.088-.621c-.62-.03-1.27 0-1.89-.148v-.148c.65-.384 1.24-1.005 2.096-.887.827-.503 1.477-1.271 2.127-1.981-.325-.65 0-1.33.531-1.745.68-.59 1.447-1.123 2.274-1.478-1.122-.591-2.303-1.271-2.982-2.365-.502.088-1.123.295-1.566-.03-.708-.473-.767-1.508-.413-2.247.236-.473.738-.71 1.181-.917.384-1.567 1.624-2.78 3.042-3.46a2.689 2.689 0 01-.62-.531c.354.03.738.206 1.122.088-.03-.325-.354-.502-.502-.768.473-.06.975.029 1.447.118a7.538 7.538 0 00-.68-1.272c.532.326.975.74 1.389 1.183.118-.207.236-.384.354-.591.089.236.177.443.266.68.384-.296.709-.65 1.004-1.006a2.897 2.897 0 01-.413 1.095c1.594-.06 3.278 0 4.695.768.739.385 1.359.976 1.92 1.597.62-.089 1.358.118 1.654.74.59.945.03 2.453-1.152 2.512a7.21 7.21 0 01-1.418 2.543c.473-.177.975-.502 1.507-.266 1.387-.591 2.746-1.271 3.839-2.336.384-.384.59-.916 1.092-1.123.325-.119.62.177.739.443.738 1.922 2.362 3.578 4.37 4.14-1.004-.71-1.949-1.567-2.48-2.69-.355-.74-.414-1.598-.384-2.396-.473-.503-1.211-1.094-.916-1.892.178-.887 1.152-1.213 1.95-1.124.059-.088.177-.236.236-.325a8.565 8.565 0 01-3.574-.296c.148.503.266 1.005.384 1.508-1.476.148-3.16.207-4.43-.71.325-.68.827-1.241 1.418-1.714-.768.088-1.506.118-2.274.206.207-.798.473-1.596.68-2.395a90.65 90.65 0 012.126 1.39c-.562-1.035-1.418-1.922-1.211-3.016zm1.092 1.124c.03.177.06.325.119.502.354.503.62 1.124 1.21 1.39.119-.088.266-.207.384-.296.118-.059.325-.177.414-.236-.59-.621-1.388-.976-2.067-1.508-.03-.473-.503.207-.06.148zm-.03 3.252l-.885.621-.089.03c.148.236.62.414.886.236h.236c.414.148.857.09 1.27.06-.236-.355-.443-.74-.679-1.094-.236.03-.472.088-.738.147zm8.21 1.33c-.442-.088-.797-.383-1.151-.65-1.358.976-1.95 2.78-1.742 4.377.206 1.3 1.24 2.188 2.244 2.927 1.329.975 3.071 1.153 4.637.887 1.535-.207 3.16-.71 4.104-2.01.857-.977.827-2.366.503-3.549-1.27-.473-2.747-.296-3.928-1.005-.738-.414-1.3-1.035-1.772-1.715-.886.502-1.86.946-2.894.739zm-17.482-.472c.03.148.059.443.059.562-.325-.148-.62-.326-.945-.444.03.296.088.591.118.887a7.134 7.134 0 00-1.063-.798c-.03.473-.089.946-.325 1.36a12.97 12.97 0 01-.384-.976c-.354.384-.768.68-1.24.858l.236-.562c-.797.473-1.565 1.035-2.156 1.744-.59.68-.709 1.715-.384 2.543.414 1.153 1.211 2.247 2.363 2.75 1.89.798 4.105.858 5.965-.06 1.506-.56 2.688-1.832 3.278-3.31.443-1.272-.147-2.81-1.3-3.49-1.24-.828-2.775-1.064-4.222-1.064zm13.378 1.064c-.236.444-.06 1.006.325 1.33.266-.59.531-1.152.738-1.773-.354.088-.856.059-1.063.443zm18.34 1.094c.058.355.117.68.206 1.035.03.266.059.562.088.828.384.207.827.237 1.24.207v-.177c.119 0 .385-.03.503-.03l-.443-.62c-.384-.563-1.004-.918-1.595-1.243zm-25.428.266c.089.474.118.976.207 1.479.384.236.561-.414.561-.71 0-.443-.473-.591-.768-.769zm-13.998 3.49c.118.384.531.443.856.384-.206-.592-.325-1.212-.413-1.833-.354.384-.797.916-.443 1.448zm34.907-1.45a8.275 8.275 0 01-.68 1.863c.65.178 1.152-.384 1.27-.946.03-.414-.324-.68-.59-.916zm2.864 1.036c.591.62 1.418.946 2.215 1.153l-.177-.532c-.118-.267-.236-.503-.354-.77-.177-.177-.325-.413-.561-.502-.443.06-.798.384-1.123.65zM27.141 30.07c-.354.089-.68.207-1.034.295v.09c-.826-.12-1.535.384-2.244.709-.295.089-.561.177-.856.266l.03.148c-.178 0-.562.03-.74.03v.147c-.442 0-.856.03-1.299.03l.03.147c-.502 0-1.034-.059-1.536 0-1.063.444-2.097 1.006-2.923 1.804-.089.947.59 2.336 1.712 2.07.532-.207.71-.74.916-1.212v1.183l.118.029c-.03 1.271.03 2.513-.03 3.785.119-.03.325-.119.414-.178l-.03-.088c.266-.03.561-.09.827-.148.296-.06.62-.119.916-.207.325-.03.68-.06 1.004-.089l.03-.148c.442 0 .856-.03 1.299-.03l-.03-.147c.473 0 .945.03 1.388-.148.207 0 .443-.03.68-.03l-.03-.148c.413 0 .945-.059 1.152-.473-.148-.443-.355-.857-.532-1.3a27.293 27.293 0 00-.384-1.479c-.03-.414-.059-.798-.088-1.212h-.502c0-.118-.03-.385-.03-.532.62.03 1.27.059 1.89-.148.414-.06.797-.119 1.181-.207a22.844 22.844 0 01-.443-.858l-.177-.532c-.118-.562-.236-1.123-.236-1.715a3.927 3.927 0 01-.443.296zm12.079.739c-.768 1.449-1.093 3.075-1.625 4.613-.413 1.33-1.092 2.572-1.535 3.932 1.181.592 2.51 1.006 3.81 1.301 1.771.414 3.602.089 5.286-.443-.62-2.987-1.27-5.944-2.186-8.841-1.27.207-2.54-.06-3.75-.562zm-19.403 9.373c0 .858-.03 1.745-.118 2.602.915-.118 1.83-.325 2.776-.414-.089-.65-.177-1.271-.236-1.922a7.903 7.903 0 011.86-.148c.03.532.118 1.065.325 1.538a16.255 16.255 0 012.658-.296c-.118-.887-.295-1.774-.413-2.661-2.304.414-4.548.917-6.852 1.301zm45.39-19.13c-.088-.385.267-.71.65-.65h15.534c.266-.03.443.147.65.265.236-.177.502-.325.797-.266h8.24c.325-.03.62.118.738.444.916 2.75 1.89 5.5 3.278 8.042 1.3-2.602 2.451-5.293 3.367-8.042a.676.676 0 01.65-.444h7.678c.384-.059.797.237.709.68-.473 9.196-.827 18.421-.916 27.646.03.355-.118.799-.531.799-1.772.03-3.515 0-5.287 0a.85.85 0 01-.767-.326c-.089-2.188-.03-4.405-.119-6.593l-.885 1.33v.118a188.497 188.497 0 01-3.042 5.293c-.266.355-.473.976-1.034.828-.354-.236-.561-.65-.827-1.005-1.093-1.804-2.244-3.548-3.337-5.352a31.644 31.644 0 00-.827-1.301c-.148 2.07.03 4.14-.207 6.21.119.088.325.236.443.295a.86.86 0 01-.265-.06c-.207.178-.325.533-.65.503-1.772.03-3.544 0-5.316 0-.354.06-.768-.207-.709-.62-.295-9.166-.384-18.333-1.21-27.47.03 1.154-.119 2.337-.119 3.49-.177 2.661-.265 5.352-.472 8.013-1.654.03-3.249-.385-4.902-.296 0 1.567-.178 3.105-.178 4.672 1.536.03 3.072-.237 4.607-.266.06.207.089.414.148.62a145.7 145.7 0 00-.797 5.175c0 .384-.266.828-.71.71-1.062-.119-2.125-.414-3.189-.385-.059.06-.206.148-.295.207-.148 1.833 0 3.667-.118 5.5 0 .325-.207.68-.59.65-2.629.03-5.228 0-7.856 0-.355-.03-.739.06-1.034-.177-.236-.65-.147-1.39-.236-2.1-.03-2.75-.207-5.529-.236-8.278-.177-2.602-.118-5.204-.296-7.806-.118-3.341-.413-6.683-.531-10.054zm1.241.473c0 1.951.207 3.903.266 5.854.207 1.479.148 2.986.207 4.465.177 2.188.03 4.406.265 6.564.03 3.282.237 6.564.237 9.846 1.181.148 2.362.06 3.544.089 1.299-.03 2.598.059 3.898-.089-.03-1.744.03-3.489.03-5.263.029-.355-.06-.916.413-.976 1.3-.148 2.599.119 3.927.207.119-1.035.06-2.129.532-3.075l-.147.089.088-.976c-1.388.06-2.805.296-4.194.148-.531-.06-.442-.71-.413-1.094.266-1.922.06-3.844.354-5.766 1.625-.266 3.279-.03 4.903.148.088-3.252.354-6.505.502-9.757.059-.326-.06-.444-.384-.414-4.666 0-9.362.03-14.028 0zm16.479.207c.236.118.384.295.354.561.178 3.844.502 7.688.591 11.561.207 2.425.089 4.88.266 7.304.059 2.395.059 4.79.236 7.185 1.388-.03 2.806-.03 4.194 0 .059-2.632.177-5.293.177-7.924-.089-.592.768-.799 1.033-.326 1.743 2.691 3.367 5.47 5.139 8.131.06 0 .177-.029.236-.029 1.566-2.661 3.072-5.352 4.607-8.013.148-.296.443-.562.798-.414.443.118.384.65.413 1.005 0 2.484.089 4.968.059 7.481 1.447.148 2.894 0 4.341.089.148-5.559.207-11.147.473-16.706.148-3.37.266-6.771.443-10.142h-6.852c-.974 2.927-2.303 5.707-3.603 8.486-.147.384-.442.65-.767.887-.177-.177-.414-.325-.561-.532a53.638 53.638 0 01-3.662-8.841c-2.245-.03-4.49 0-6.734-.03-.413.06-.797.178-1.181.267zm-59.448 2.483c-.531.621.473 1.745 1.034 1.006.502-.68-.414-1.508-1.034-1.006zm16.686.207c-.355.385-.178 1.301.443 1.183.384-.148.502-.769.236-1.094-.118-.237-.532-.384-.68-.089zm-20.88.533a.772.772 0 00-.088 1.034c.177.385.827.474 1.004 0 .413-.502-.354-1.36-.916-1.034zm25.103.207c-.325.325-.03 1.064.443 1.005.413 0 .56-.562.384-.858-.119-.325-.62-.473-.827-.147zM24.07 27.735c-1.743.857-3.84.858-5.611.06 1.004.945 2.274 1.832 3.72 1.684 1.713-.147 3.102-1.508 3.663-3.075-.62.414-1.093 1.035-1.772 1.33zm14.588-1.183c.473.917 1.005 1.893 1.861 2.484 1.654 1.123 3.987.325 5.05-1.242-.709.207-1.329.65-2.067.68-1.802.148-3.574-.62-4.844-1.922zM55.67 42.016c-1.772.414-3.042 2.307-2.717 4.11.236 1.804 1.95 3.194 3.75 3.105 2.009-.03 3.751-1.981 3.485-3.992-.118-2.188-2.421-3.814-4.518-3.223zm-1.713 1.893c-.738 1.212-.443 2.897.59 3.814.296.118.62.118.916.177.532-.266 1.093-.502 1.506-.946.532-.532.857-1.242 1.093-1.922-.502-.71-.03-1.656-.413-2.395-1.33-.502-2.983 0-3.692 1.272zm4.873.147c-.207 1.597-1.24 2.987-2.628 3.756-.237.059-.443.148-.68.207.532.207 1.063.236 1.625.206v-.147c.383 0 .708-.178 1.033-.326 1.122-.857 1.359-2.483.65-3.696z" fill="#020102"/><path fill-rule="evenodd" clip-rule="evenodd" d="M31.157 18.155c-.472.06 0-.62.06-.118l-.06.118zm60.659 2.661c.295.207.59.444.68.799.767 2.188 1.505 4.376 2.539 6.446 1.034-1.952 1.86-4.051 2.57-6.121.117-.473.383-.917.856-1.094-.916 2.78-2.068 5.44-3.367 8.042-1.388-2.572-2.363-5.322-3.278-8.072zm-8.89.917c.237.118.385.296.355.562.177 3.844.502 7.687.59 11.56.208 2.425.09 4.88.267 7.304.059 2.395.059 4.79.236 7.185 1.388-.03 2.805-.03 4.193 0 .06-2.631.178-5.293.178-7.924-.089-.591.767-.798 1.033-.325 1.743 2.69 3.367 5.47 5.139 8.13.059 0 .177-.029.236-.029 1.565-2.66 3.071-5.352 4.607-8.013.148-.295.443-.561.797-.414.443.119.384.65.414 1.006 0 2.483.088 4.967.059 7.48 1.447.148 2.894 0 4.341.09.148-5.56.207-11.148.473-16.707.147-3.37.265-6.77.443-10.142h-6.852c-.974 2.928-2.303 5.707-3.603 8.486-.147.385-.443.65-.768.887-.177-.177-.413-.325-.56-.532a53.632 53.632 0 01-3.663-8.84c-2.244-.03-4.488 0-6.733-.03-.413.059-.797.177-1.181.266zm6.793 26.995c.236-2.07.06-4.139.207-6.209.295.414.59.858.827 1.301-.207 1.45-.06 2.898-.177 4.347 0 .355-.266.62-.443.887-.089-.089-.325-.237-.414-.326zm9.244-4.82c.295-.443.56-.916.886-1.33.088 2.188.03 4.406.118 6.594-.325-.177-.71-.325-.798-.71-.265-1.448.089-2.986-.236-4.405l.03-.148z" fill="#0076CE"/><path fill-rule="evenodd" clip-rule="evenodd" d="M66.448 21.525c4.695.03 9.361 0 14.057 0 .325-.03.443.089.384.414-.148 3.252-.414 6.505-.502 9.757-1.625-.177-3.278-.414-4.903-.148-.295 1.922-.088 3.844-.354 5.766-.03.385-.118 1.035.413 1.094 1.388.148 2.806-.089 4.194-.148l-.089.976.148-.089c-.473.947-.443 2.04-.532 3.075-1.3-.088-2.599-.354-3.927-.206-.502.059-.414.59-.414.975 0 1.745-.059 3.49-.03 5.263-1.299.148-2.598.06-3.898.09-1.18-.03-2.362.058-3.544-.09 0-3.282-.236-6.564-.236-9.846-.236-2.188-.088-4.376-.266-6.564-.088-1.478-.029-2.986-.206-4.465-.089-1.951-.295-3.903-.295-5.854zm-36.295.532l.088-.03c.266 0 .502.03.739.06 0 .059.029.148.058.207-.265.177-.738 0-.885-.237zm9.066 8.752c1.181.503 2.451.799 3.75.532.916 2.898 1.595 5.884 2.186 8.841-1.713.532-3.544.858-5.286.444-1.3-.296-2.6-.68-3.81-1.301.413-1.33 1.093-2.573 1.536-3.933.531-1.537.856-3.134 1.624-4.583zm37.27 1.804c0 1.567-.178 3.105-.178 4.672 1.536.03 3.071-.237 4.607-.266.06.206.089.413.148.62.059-.59-.296-1.271-.945-1.271-1.152.03-2.274.207-3.426.207.03-1.094.089-2.188.118-3.282 1.181-.03 2.333.177 3.485.325.532.089.915-.296 1.122-.71-1.654.06-3.278-.354-4.932-.295zm-56.673 7.57c2.274-.385 4.548-.917 6.822-1.302.148.887.296 1.774.414 2.661-.886.03-1.772.119-2.658.296-.236-.473-.325-1.005-.325-1.537-.62-.03-1.24.03-1.86.147.058.65.147 1.272.236 1.922-.916.09-1.831.296-2.776.414.118-.857.177-1.715.147-2.602zm34.14 3.725c.738-1.272 2.391-1.774 3.72-1.301.414.74-.059 1.715.414 2.395-.266.71-.59 1.39-1.093 1.922-.413.414-1.004.65-1.506.946-.325-.06-.62-.06-.915-.177-1.093-.887-1.388-2.573-.62-3.785zm22.119-.562c-.148 1.833 0 3.667-.118 5.5.177-.325.384-.68.354-1.065.03-1.537.089-3.075.06-4.612-.09.03-.237.148-.296.177zM35.409 54.464c1.063-.178 2.333-.089 3.13.739.473.502.03 1.449-.649 1.36-.768-.118-1.506-.503-2.274-.236-.916.325-1.329 1.33-1.388 2.247-.089 1.035.295 2.276 1.388 2.66.856.326 1.683-.147 2.51-.295.532-.03.916.621.709 1.094-.177.473-.65.769-1.093.917-1.594.502-3.543.147-4.607-1.213-1.417-1.862-1.24-4.908.591-6.445.443-.444 1.034-.71 1.683-.828zm39.514 1.153c.207-.591.65-1.183 1.33-1.212.649-.09 1.269.354 1.505.975.709 1.952 1.388 3.903 2.068 5.855.118.384.324.828.147 1.242-.325.591-1.3.65-1.654.059-.266-.444-.384-.976-.531-1.479h-2.983c-.148.503-.266 1.006-.532 1.479-.324.561-1.27.532-1.535-.06-.177-.443 0-.946.147-1.39.68-1.832 1.359-3.666 2.038-5.47zm.443 3.755h1.89c-.295-.946-.59-1.922-.915-2.868-.384.946-.65 1.922-.975 2.868zm15.298-3.726c-.03-.502.177-1.182.767-1.242.562-.147 1.093.296 1.093.858.118 1.42 0 2.868.06 4.287 1.27-1.508 2.391-3.134 3.602-4.642.295-.384.857-.65 1.33-.414.413.207.472.74.472 1.153v5.678c0 .473 0 .975-.296 1.36-.384.413-1.151.325-1.447-.178-.147-.325-.147-.68-.177-1.005-.03-1.242.03-2.484-.03-3.696-1.21 1.508-2.362 3.105-3.543 4.612-.384.503-1.24.77-1.684.207-.206-.354-.177-.768-.177-1.153.03-1.922 0-3.873.03-5.825zm-77.788.71c.03-1.005.975-1.804 1.95-1.745 1.092 0 2.214-.059 3.337.03.531.089.708.71.708 1.183.03 1.833 0 3.666.03 5.5.325.088.827.118.915.532.089.739.06 1.478 0 2.217-.177.503-.856.562-1.27.355-.502-.325-.324-.976-.354-1.478H13.35c-.03.384.03.798-.089 1.182-.295.65-1.535.533-1.595-.236-.029-.799-.118-1.626.178-2.395.265-.06.531-.118.768-.237.177-.236.177-.562.236-.857.059-1.36-.03-2.69.03-4.051zm1.89-.03c-.059.06-.147.148-.177.207-.118 1.597.177 3.253-.266 4.82h2.658v-5.056c-.738 0-1.506-.06-2.215.03zm6.261-.502c-.03-.503.207-1.094.798-1.183a19.86 19.86 0 013.248 0c.443.03.65.444.857.798-.148.296-.237.68-.591.799-.768.266-1.595.089-2.392.118v1.508c.738.03 1.476-.118 2.185.118.65.237.62 1.272-.03 1.508-.708.207-1.447.118-2.155.118v1.568c.797.03 1.624-.09 2.392.118.502.148.738.798.413 1.242-.354.502-1.033.384-1.565.443-.856-.03-1.772.089-2.628-.118-.502-.148-.532-.74-.532-1.153 0-1.981-.03-3.933 0-5.884zm5.73-1.094c-.62.207-.65 1.242-.03 1.478.502.178 1.063.148 1.595.178V61.5c0 .414 0 .887.295 1.242.384.502 1.3.354 1.506-.237.266-.976.089-2.01.118-3.016.03-1.035.06-2.07 0-3.075.561-.03 1.152.03 1.654-.207.62-.325.502-1.33-.177-1.478-.886-.207-1.831-.06-2.747-.118-.768.03-1.535-.119-2.215.118zm13.2.059c.384-.503 1.359-.355 1.506.296.207.828.06 1.685.118 2.542.945-.916 1.831-1.922 2.776-2.838.414-.444 1.182-.385 1.477.148.295.355.03.798-.236 1.064-.739.799-1.565 1.508-2.304 2.306.916 1.124 1.95 2.1 2.806 3.253.384.444.148 1.183-.384 1.36-.443.207-.916-.148-1.21-.473l-2.659-3.105c-.709.947.089 2.307-.56 3.282-.296.414-.946.414-1.3.119-.325-.355-.355-.887-.355-1.33V56.12c.03-.414.03-.947.325-1.331zm9.126-.148c-1.093.266-1.979 1.094-2.422 2.129-.856 1.981-.384 4.76 1.624 5.854 1.27.651 2.894.621 4.135-.118 1.21-.739 1.83-2.158 1.83-3.548.06-1.242-.324-2.572-1.27-3.43-1.003-1.005-2.568-1.212-3.897-.887zm.354 1.774c.797-.355 1.92-.148 2.363.65.62 1.095.62 2.573-.148 3.608-.797.976-2.57.769-3.071-.384-.562-1.242-.443-3.135.856-3.874zm5.877-.591c-.06-.532.266-1.153.856-1.183a32.41 32.41 0 012.924-.03c.443 0 .768.296 1.034.621-.06.355-.089.858-.532.976-.768.266-1.624.089-2.422.148v1.478c.71.03 1.477-.088 2.156.119.62.177.709 1.153.118 1.448-.708.355-1.535.148-2.303.178v1.567c.797.03 1.654-.118 2.421.118.739.207.68 1.39-.059 1.538-1.122.177-2.303.118-3.455.059-.531 0-.856-.562-.797-1.035.059-1.98.059-3.992.059-6.002zm11.37.177c.03 2.01-.06 4.051.03 6.062 0 .857 1.18 1.241 1.653.532.354-.74.177-1.626.236-2.425 1.063 0 2.274.148 3.19-.562 1.063-.768 1.21-2.276.797-3.459-.384-1.035-1.506-1.656-2.599-1.656-.915 0-1.83-.118-2.717.089-.56.207-.59.917-.59 1.42zm1.92.266c.472 0 .944-.03 1.417.06.915.206.974 1.714.088 2.01-.502.148-1.004.089-1.506.089v-2.159zm13.673-.266c.147-.857.974-1.508 1.83-1.508a61.82 61.82 0 013.308 0c.561 0 .857.532.857 1.035.03 1.863 0 3.755 0 5.618.354.148.915.148.974.621.089.65.06 1.301.03 1.981-.03.798-1.3.858-1.595.207-.118-.384-.089-.769-.118-1.153H82.72c0 .355 0 .71-.06 1.064-.206.71-1.447.71-1.594-.03-.089-.709-.118-1.478 0-2.187.147-.532 1.063-.296 1.063-.917.236-1.537-.06-3.134.148-4.73zm1.713.237c-.237 1.656.147 3.37-.296 4.997h2.688v-5.027a21.5 21.5 0 00-2.392.03zm18.044-1.686a4.699 4.699 0 012.923.148c1.211.503 2.038 1.715 2.245 3.016.177 1.301.029 2.72-.798 3.785-1.506 1.951-4.902 1.922-6.349-.089-.827-1.123-.975-2.602-.68-3.932.266-1.36 1.33-2.573 2.659-2.928zm.354 1.804c-.62.296-.945 1.005-1.063 1.685-.177.474.531.976 0 1.36.147.533.325 1.095.797 1.42.857.65 2.333.414 2.806-.621.531-1.124.502-2.69-.414-3.607-.561-.503-1.447-.592-2.126-.237z" fill="#E50023"/><path d="M24.768 99.152l-.216.096a.966.966 0 00-.264.024c-.56.128-1.04.368-1.44.72a4.91 4.91 0 00-.984 1.272 6.523 6.523 0 00-.576 1.656 10.313 10.313 0 00-.168 1.872c0 1.04.304 1.864.912 2.472.624.608 1.504.912 2.64.912.368 0 .736-.016 1.104-.048.384-.048.744-.096 1.08-.144.352-.064.672-.112.96-.144.288-.048.528-.072.72-.072.368 0 .6.08.696.24.112.144.168.352.168.624 0 .016-.016.104-.048.264-.032.144-.056.224-.072.24a1.93 1.93 0 01-.384.336c-.128.096-.28.192-.456.288a3.26 3.26 0 00-.216.12c-.08.032-.144.064-.192.096a.163.163 0 01-.12.048c-.032 0-.064.016-.096.048h-.12c-.016.016-.048.024-.096.024a.883.883 0 01-.264.072 1.509 1.509 0 01-.24.024.463.463 0 01-.24.072 3.154 3.154 0 01-.24.048c-.08.032-.208.056-.384.072-.176.016-.32.032-.432.048a11.58 11.58 0 01-.72.024h-.648c-.88 0-1.656-.152-2.328-.456a4.744 4.744 0 01-1.68-1.176 5.51 5.51 0 01-1.032-1.752 6.343 6.343 0 01-.336-2.064c0-1.008.104-1.96.312-2.856a9.11 9.11 0 01.936-2.472.48.48 0 00.12-.288c.032-.128.088-.208.168-.24a.85.85 0 00.264-.336 1.3 1.3 0 01.216-.36.505.505 0 00.216-.144.883.883 0 00.168-.216c.064 0 .104-.024.12-.072a.558.558 0 01.096-.144c.032 0 .064-.016.096-.048a.787.787 0 00.12-.096c.048-.032.128-.08.24-.144a.677.677 0 00.216-.216c.096-.032.192-.056.288-.072a.79.79 0 01.24-.048.304.304 0 01.168-.144c.096-.048.2-.112.312-.192.176 0 .304-.008.384-.024a.642.642 0 01.24-.048c.128-.064.336-.12.624-.168.288-.064.552-.096.792-.096.368 0 .736.072 1.104.216.368.128.664.304.888.528.336.336.504.688.504 1.056 0 .176-.048.392-.144.648-.016.064-.056.16-.12.288a.724.724 0 01-.384.288c-.16.048-.328.072-.504.072h-.384a.67.67 0 01-.24-.144.54.54 0 00-.192-.096l-.144-.096c-.224-.112-.424-.168-.6-.168a.395.395 0 00-.12.024.213.213 0 01-.096.024l-.192-.072zm14.761 11.208a.453.453 0 01-.144-.024h-.384a.59.59 0 01-.216-.048 1.57 1.57 0 01-.168-.096.453.453 0 00-.144-.024c0-.064-.032-.128-.096-.192a.64.64 0 01-.144-.216c-.064-.24-.144-.584-.24-1.032-.08-.464-.184-.96-.312-1.488a24.66 24.66 0 00-.384-1.56 7.217 7.217 0 00-.456-1.248 32.941 32.941 0 01-1.176 2.664c-.4.8-.816 1.488-1.248 2.064-.416.56-.84.992-1.272 1.296-.416.32-.84.48-1.272.48-.24 0-.432-.064-.576-.192a1.696 1.696 0 01-.336-.408 4.025 4.025 0 00-.24-.384c-.064-.128-.152-.192-.264-.192a.692.692 0 01.264-.264l-.12-.096a.267.267 0 00.12-.024l.096-.048c.128-.016.192-.056.192-.12-.016-.016-.024-.032-.024-.048v-.024a.514.514 0 01.288-.168 4.35 4.35 0 01.432-.12c.272-.064.56-.272.864-.624.304-.352.6-.768.888-1.248.304-.496.584-1.016.84-1.56.272-.56.512-1.08.72-1.56.208-.496.376-.92.504-1.272.144-.352.232-.56.264-.624.096-.208.224-.376.384-.504a.863.863 0 01.6-.216c.304 0 .52.04.648.12.144.064.28.2.408.408.16.256.328.592.504 1.008.192.416.376.872.552 1.368l.144.336c0 .08.016.152.048.216a.296.296 0 01.048.168.425.425 0 01.12.192c.032.064.064.168.096.312.096.192.16.408.192.648.032.24.12.52.264.84.176.56.312 1.056.408 1.488.112.432.168.736.168.912 0 .096-.008.2-.024.312 0 .112-.024.168-.072.168 0 .128-.04.232-.12.312-.032.032-.08.048-.144.048a.304.304 0 00-.144.072.351.351 0 00-.168.12c-.032.048-.088.072-.168.072zm9.57 2.136c-.144.72-.344 1.408-.6 2.064-.24.656-.568 1.32-.984 1.992a3.3 3.3 0 01-.24.312 29.58 29.58 0 00-.264.312.954.954 0 01-.144.12c-.032.032-.08.088-.144.168-.128.16-.256.344-.384.552a2.754 2.754 0 01-.384.504 6.58 6.58 0 01-1.944 1.392c-.704.352-1.496.528-2.376.528-.448 0-.784-.088-1.008-.264a2.567 2.567 0 01-.144-.12c-.016-.016-.032-.088-.048-.216-.032-.016-.04-.064-.024-.144 0-.08-.024-.136-.072-.168.016-.016.024-.04.024-.072 0-.032-.016-.064-.048-.096-.016-.016-.024-.032-.024-.048.032-.032.048-.064.048-.096v-.048c-.016 0-.024-.008-.024-.024a.931.931 0 00.048-.12c0-.032.04-.072.12-.12 0-.064.032-.104.096-.12.048-.016.072-.072.072-.168.08-.064.168-.12.264-.168a.566.566 0 01.24-.072c.16 0 .28.008.36.024.08.016.144.024.192.024h.192c.608 0 1.16-.144 1.656-.432a5.585 5.585 0 001.368-1.08c.368-.4.688-.824.96-1.272.272-.448.496-.872.672-1.272.032-.08.072-.16.12-.24a.94.94 0 00.12-.216c.048-.192.112-.416.192-.672.096-.256.184-.504.264-.744l.24-.84v-.096c0-.048.016-.128.048-.24.128-.512.224-.992.288-1.44.08-.464.16-.864.24-1.2.08-.368.128-.608.144-.72.032-.128.048-.216.048-.264 0-.064-.024-.096-.072-.096-.064 0-.12.04-.168.12-.048.08-.184.28-.408.6-.128.176-.296.392-.504.648a4.997 4.997 0 01-.696.744c-.256.24-.544.448-.864.624a1.846 1.846 0 01-.936.264c-.608 0-1.04-.208-1.296-.624a2.772 2.772 0 01-.384-1.44c0-.512.016-.952.048-1.32.048-.368.088-.664.12-.888.032-.128.04-.272.024-.432 0-.16.016-.312.048-.456 0-.08-.008-.16-.024-.24v-.24a2.74 2.74 0 00-.024-.384 1.49 1.49 0 00-.024-.288 1.112 1.112 0 01-.024-.216v-.24c.032-.16.064-.28.096-.36.048-.08.088-.16.12-.24a.64.64 0 01.144-.216c0-.064.04-.096.12-.096a.79.79 0 00.24-.048c.08-.016.192-.024.336-.024l.264.12c.112.064.216.144.312.24a.79.79 0 01.24.384c.096.384.144.664.144.84-.016.16-.056.36-.12.6a2.898 2.898 0 00-.072.6 8.805 8.805 0 00-.048.432c-.016.176-.04.36-.072.552l-.048.576a5.135 5.135 0 00-.024.456c0 .336.088.504.264.504.16 0 .352-.072.576-.216.224-.144.448-.328.672-.552.224-.224.448-.48.672-.768.224-.304.416-.608.576-.912.176-.32.344-.6.504-.84.176-.256.408-.384.696-.384.112 0 .24.024.384.072.16.032.304.112.432.24.224.208.376.416.456.624.08.208.12.504.12.888 0 .112-.016.32-.048.624-.016.288-.048.632-.096 1.032s-.112.848-.192 1.344c-.08.48-.168.968-.264 1.464l-.36 1.728zm10.89-4.032a.258.258 0 00.145-.048c.048-.032.112-.072.192-.12l.264-.168c.08-.064.152-.136.216-.216a.429.429 0 00.12-.12c.032-.064.064-.104.096-.12a.558.558 0 00.096-.144.555.555 0 01.072-.12c.032 0 .064-.032.096-.096.048-.064.096-.136.144-.216l.384-.504.096-.192a.558.558 0 01.096-.144c.272-.432.496-.88.672-1.344.176-.464.328-.904.456-1.32a3.047 3.047 0 01.528-.984.32.32 0 01.144-.12.533.533 0 00.168-.072c.048-.032.088-.056.12-.072a.296.296 0 01.168-.048h.192c.256 0 .456.08.6.24.16.16.24.36.24.6 0 .352-.064.752-.192 1.2-.112.448-.208.848-.288 1.2-.16.592-.296 1.104-.408 1.536-.096.432-.144.88-.144 1.344 0 .336.048.608.144.816.096.192.28.288.552.288.144 0 .264-.016.36-.048.112-.032.224-.048.336-.048.16 0 .288.048.384.144.096.096.144.256.144.48a.393.393 0 01-.024.096c0 .064-.024.096-.072.096.032.032.048.08.048.144 0 .096-.056.144-.168.144.032.064.048.12.048.168 0 .112-.048.2-.144.264a.674.674 0 01-.264.168c-.16.064-.328.128-.504.192a1.536 1.536 0 01-.528.096c-.416 0-.768-.064-1.056-.192a1.831 1.831 0 01-.672-.528 1.954 1.954 0 01-.384-.72 4.081 4.081 0 01-.096-.888v-.312c0-.112.008-.208.024-.288l.048-.24c-.24.368-.488.72-.744 1.056-.256.336-.52.632-.792.888a3.594 3.594 0 01-.768.6c-.256.16-.488.24-.696.24-.416 0-.776-.216-1.08-.648-.304-.432-.456-1.032-.456-1.8 0-.144.008-.312.024-.504s.04-.36.072-.504l-.48.84a.611.611 0 01-.144.144.64.64 0 00-.12.168c-.048.08-.088.168-.12.264a.955.955 0 01-.144.24c-.352.48-.752.896-1.2 1.248-.432.368-.904.552-1.416.552-.416 0-.752-.216-1.008-.648-.256-.432-.384-1.032-.384-1.8 0-.432.024-.832.072-1.2.016-.112.04-.224.072-.336.032-.128.064-.248.096-.36a.736.736 0 00.024-.312c0-.08.016-.184.048-.312a13.26 13.26 0 00.192-1.776c0-.224-.032-.408-.096-.552a1.41 1.41 0 01-.096-.528c0-.224.064-.376.192-.456l.096-.24c.048-.08.112-.12.192-.12.08-.08.144-.136.192-.168a.431.431 0 01.264-.072.6.6 0 01.312.072.639.639 0 00.288.072c.064 0 .12.032.168.096a.476.476 0 01.144.168c.08.128.152.288.216.48s.096.4.096.624c0 .336-.032.704-.096 1.104-.064.384-.144.776-.24 1.176-.08.4-.152.792-.216 1.176a5.811 5.811 0 00-.096.984c0 .24.088.36.264.36.208 0 .472-.16.792-.48.32-.32.64-.72.96-1.2.32-.48.616-1 .888-1.56.288-.576.488-1.104.6-1.584 0-.08-.008-.168-.024-.264a1.749 1.749 0 01-.024-.288c0-.272.08-.48.24-.624.176-.144.352-.216.528-.216.16 0 .312.016.456.048a.72.72 0 01.408.168c.112.08.2.216.264.408.064.192.096.456.096.792s-.032.704-.096 1.104c-.048.384-.104.776-.168 1.176-.064.4-.128.792-.192 1.176a7.696 7.696 0 00-.072.984c0 .24.088.36.264.36zm14 1.8a3.98 3.98 0 01-.025-.48v-.552c0-.144-.024-.232-.072-.264-.032-.048-.064-.072-.096-.072a.23.23 0 00-.168.072l-.168.168a4.913 4.913 0 01-.624.504 6.242 6.242 0 01-.84.528 5.18 5.18 0 01-.96.432 2.973 2.973 0 01-.936.168 1.52 1.52 0 01-.768-.192 1.914 1.914 0 01-.552-.528 2.488 2.488 0 01-.336-.72 3.763 3.763 0 01-.096-.864c0-.272.024-.544.072-.816.048-.176.104-.368.168-.576.08-.224.184-.464.312-.72l.072-.144c.048-.064.088-.128.12-.192.048-.064.096-.136.144-.216.24-.4.56-.8.96-1.2.4-.4.832-.76 1.296-1.08.48-.336.952-.6 1.416-.792.464-.208.872-.312 1.224-.312.24 0 .464.024.672.072a1.487 1.487 0 01.984.768.9.9 0 01.168.528c0 .08-.024.168-.072.264-.032.624-.064 1.2-.096 1.728-.032.464-.056.92-.072 1.368v.984c0 .496.016.944.048 1.344.048.4.096.688.144.864 0 .128-.008.24-.024.336a.504.504 0 01-.072.264 1.261 1.261 0 01-.12.192.66.66 0 01-.192.168.387.387 0 01-.168.048.532.532 0 01-.168-.024.532.532 0 00-.168-.024c-.112.016-.168.04-.168.072-.352 0-.56-.104-.624-.312a15.842 15.842 0 01-.216-.792zm.407-5.328a.23.23 0 01-.168-.072.558.558 0 01-.144-.096.231.231 0 00-.096-.12c-.224 0-.552.152-.984.456-.416.288-.84.64-1.272 1.056-.432.4-.808.816-1.128 1.248-.32.432-.48.792-.48 1.08 0 .192.088.288.264.288.096 0 .24-.032.432-.096a4.04 4.04 0 00.72-.384c.208-.128.44-.28.696-.456.272-.176.536-.368.792-.576.272-.224.52-.456.744-.696.224-.256.4-.528.528-.816.032-.208.056-.352.072-.432.016-.096.024-.224.024-.384zm11.625 5.76c-.336 0-.616-.088-.84-.264a1.981 1.981 0 01-.552-.6 3.253 3.253 0 01-.288-.744 4.897 4.897 0 01-.12-.696c-.032-.048-.064-.072-.096-.072-.064 0-.144.056-.24.168-.096.128-.208.288-.336.48-.128.176-.304.4-.528.672a4.589 4.589 0 01-1.104.96c-.432.288-.832.432-1.2.432-.464 0-.864-.216-1.2-.648-.336-.432-.504-1.032-.504-1.8 0-.384.024-.752.072-1.104.048-.368.104-.712.168-1.032.064-.32.104-.656.12-1.008s.032-.736.048-1.152v-.36c.016-.112.024-.208.024-.288 0-.032-.008-.056-.024-.072a.267.267 0 01-.072-.192.705.705 0 00-.024-.168v-.12a.453.453 0 00.024-.144.887.887 0 01.288-.552c.16-.16.336-.24.528-.24.224 0 .432.072.624.216.208.144.376.328.504.552.112.176.184.36.216.552.048.176.072.352.072.528 0 .16-.008.28-.024.36v.264c0 .128-.008.272-.024.432 0 .16-.008.328-.024.504l-.048.48a4.161 4.161 0 01-.048.336l-.12.48a7.37 7.37 0 01-.12.576c-.032.176-.064.336-.096.48-.032.144-.048.24-.048.288 0 .128.024.216.072.264.064.048.136.08.216.096.144 0 .36-.104.648-.312.304-.224.608-.512.912-.864.32-.352.608-.752.864-1.2a5.14 5.14 0 00.576-1.392c.128-.512.256-.856.384-1.032.128-.192.256-.288.384-.288.32 0 .624.136.912.408.304.272.456.672.456 1.2 0 .272-.032.552-.096.84-.048.288-.088.536-.12.744a5.76 5.76 0 00-.072.552c-.016.192-.024.4-.024.624v.408c.016.144.048.248.096.312a.786.786 0 00.192-.048c.144-.064.32-.096.528-.096.112 0 .256.056.432.168l.12.12c.032.032.064.08.096.144v.384c-.016.16-.056.328-.12.504-.064.16-.16.312-.288.456a1.264 1.264 0 01-.48.36 1.543 1.543 0 01-.696.144zm-2.232-10.608c-.512 0-.968-.032-1.368-.096a3.784 3.784 0 01-1.2-.504 2.497 2.497 0 01-.744-.648 4.542 4.542 0 01-.408-.84.98.98 0 01-.048-.312c0-.224.072-.408.216-.552a.654.654 0 01.288-.168l.336-.096a.533.533 0 00.168-.072.476.476 0 01.216-.048c.08 0 .16.048.24.144.096.112.168.272.216.48.064.192.184.376.36.552.224.224.448.368.672.432.224.048.512.072.864.072.432 0 .776-.048 1.032-.144.256-.096.488-.336.696-.72.192-.384.52-.576.984-.576.08 0 .176.032.288.096.128.048.232.088.312.12.192.08.288.296.288.648 0 .224-.04.424-.12.6-.08.16-.184.328-.312.504-.336.432-.792.728-1.368.888a5.85 5.85 0 01-1.608.24zm15.052 20.52a2.761 2.761 0 01-.24-.696 7.6 7.6 0 01-.048-.96c0-.416.024-.872.072-1.368.048-.496.096-1.08.144-1.752.016-.272.04-.616.072-1.032.048-.416.112-.872.192-1.368a.451.451 0 01-.288-.12.812.812 0 01-.192-.216c-.112-.224-.168-.424-.168-.6s.016-.328.048-.456.088-.272.168-.432c0-.112.032-.24.096-.384.064-.128.144-.264.24-.408l.6-.816.216-1.272c.128-.704.296-1.512.504-2.424a41.8 41.8 0 01.816-2.856c.112-.336.256-.688.432-1.056.176-.384.376-.736.6-1.056.224-.32.464-.584.72-.792.272-.208.552-.312.84-.312.336 0 .632.088.888.264.256.176.472.408.648.696.192.272.336.576.432.912.096.336.144.656.144.96 0 .48-.072.96-.216 1.44a8.5 8.5 0 01-.504 1.392c-.208.432-.432.84-.672 1.224-.24.368-.464.696-.672.984l-2.592 3.408a.624.624 0 00-.024.192c-.048.336-.096.696-.144 1.08-.032.4-.072.776-.12 1.128-.032.352-.064.656-.096.912-.016.272-.024.456-.024.552-.08.896-.136 1.64-.168 2.232a57.887 57.887 0 00-.024 1.44c0 .112-.016.24-.048.384-.032.16-.072.312-.12.456a3.11 3.11 0 01-.168.408 1.746 1.746 0 01-.144.336c-.112.176-.216.288-.312.336-.096.064-.168.096-.216.096a.635.635 0 01-.36-.096 1.98 1.98 0 01-.312-.36zm3.096-13.2c.256-.336.504-.696.744-1.08.24-.384.448-.768.624-1.152a6.03 6.03 0 00.432-1.104c.112-.368.168-.688.168-.96 0-.288-.096-.432-.288-.432-.112 0-.224.096-.336.288-.096.176-.2.416-.312.72-.096.272-.192.568-.288.888l-.288.912c-.08.288-.152.568-.216.84-.064.256-.112.464-.144.624l-.096.456zm10.887 2.856a3.98 3.98 0 01-.024-.48v-.552c0-.144-.024-.232-.072-.264-.032-.048-.064-.072-.096-.072a.23.23 0 00-.168.072l-.168.168a4.913 4.913 0 01-.624.504 6.242 6.242 0 01-.84.528 5.18 5.18 0 01-.96.432 2.973 2.973 0 01-.936.168 1.52 1.52 0 01-.768-.192 1.914 1.914 0 01-.552-.528 2.488 2.488 0 01-.336-.72 3.763 3.763 0 01-.096-.864c0-.272.024-.544.072-.816.048-.176.104-.368.168-.576.08-.224.184-.464.312-.72l.072-.144c.048-.064.088-.128.12-.192.048-.064.096-.136.144-.216.24-.4.56-.8.96-1.2.4-.4.832-.76 1.296-1.08.48-.336.952-.6 1.416-.792.464-.208.872-.312 1.224-.312.24 0 .464.024.672.072a1.487 1.487 0 01.984.768.9.9 0 01.168.528c0 .08-.024.168-.072.264-.032.624-.064 1.2-.096 1.728-.032.464-.056.92-.072 1.368v.984c0 .496.016.944.048 1.344.048.4.096.688.144.864 0 .128-.008.24-.024.336a.504.504 0 01-.072.264 1.261 1.261 0 01-.12.192.66.66 0 01-.192.168.387.387 0 01-.168.048.532.532 0 01-.168-.024.532.532 0 00-.168-.024c-.112.016-.168.04-.168.072-.352 0-.56-.104-.624-.312a15.842 15.842 0 01-.216-.792zm.408-5.328a.23.23 0 01-.168-.072.558.558 0 01-.144-.096.231.231 0 00-.096-.12c-.224 0-.552.152-.984.456-.416.288-.84.64-1.272 1.056-.432.4-.808.816-1.128 1.248-.32.432-.48.792-.48 1.08 0 .192.088.288.264.288.096 0 .24-.032.432-.096a4.04 4.04 0 00.72-.384c.208-.128.44-.28.696-.456.272-.176.536-.368.792-.576.272-.224.52-.456.744-.696.224-.256.4-.528.528-.816.032-.208.056-.352.072-.432.016-.096.024-.224.024-.384zm7.978 13.392a2.22 2.22 0 01-.912-.192 3.628 3.628 0 01-.816-.504 7.53 7.53 0 01-.744-.696 13.144 13.144 0 01-.624-.768l-.432-.672c-.144-.208-.28-.416-.408-.624a1.583 1.583 0 00-.096-.264.341.341 0 01-.048-.192c-.016-.016-.024-.064-.024-.144 0-.048.008-.088.024-.12a.213.213 0 00.024-.096.184.184 0 00-.024-.072v-.072c0-.016.016-.056.048-.12.032-.048.096-.088.192-.12.112-.032.2-.048.264-.048l.12.024c.032 0 .056-.008.072-.024h.048a.852.852 0 01.312-.048c.272 0 .584.176.936.528.176.176.32.376.432.6.112.24.232.464.36.672.128.224.28.408.456.552.176.16.416.24.72.24s.568-.12.792-.36c.224-.24.416-.544.576-.912.176-.368.32-.768.432-1.2a18.885 18.885 0 00.552-2.544c.096-.528.184-1.064.264-1.608.096-.56.168-1.088.216-1.584.064-.496.104-.904.12-1.224-.064-.128-.136-.192-.216-.192-.08 0-.184.04-.312.12-.112.064-.328.224-.648.48a3.888 3.888 0 01-.576.408c-.24.144-.504.288-.792.432-.272.128-.552.24-.84.336-.272.08-.52.12-.744.12-.352 0-.648-.072-.888-.216-.24-.16-.44-.352-.6-.576a2.641 2.641 0 01-.312-.792 3.972 3.972 0 01-.096-.864c0-.736.2-1.464.6-2.184.208-.4.512-.784.912-1.152.4-.368.872-.552 1.416-.552.576 0 1.104.144 1.584.432.544.384.864.92.96 1.608a.35.35 0 01.024.216c0 .048.016.088.048.12l.288-.192c.08-.08.208-.16.384-.24.192-.08.392-.12.6-.12.096 0 .256.064.48.192.24.112.4.248.48.408.032.08.072.192.12.336.048.144.072.28.072.408.016.08.024.144.024.192a.395.395 0 01.024.12v.12c-.032.208-.08.728-.144 1.56-.048.816-.16 1.792-.336 2.928-.112.8-.24 1.528-.384 2.184a19.664 19.664 0 01-.384 1.68c-.128.432-.296.896-.504 1.392-.192.496-.44.96-.744 1.392a3.98 3.98 0 01-1.008 1.056 2.142 2.142 0 01-1.32.432zm-1.008-12.096c.368 0 .728-.104 1.08-.312.368-.208.664-.424.888-.648v-.096c.016-.016.024-.04.024-.072 0-.16-.064-.328-.192-.504-.048-.064-.12-.096-.216-.096-.56 0-.992.168-1.296.504-.304.336-.48.688-.528 1.056 0 .112.08.168.24.168zm16.4 3.528a.955.955 0 01-.144.24 1.238 1.238 0 01-.24.264 3.509 3.509 0 01-.36.24.543.543 0 01-.36.12.847.847 0 01-.336-.072.504.504 0 01-.336-.336 1.55 1.55 0 01-.096-.576v-.24a8.37 8.37 0 00.048-.264c.032-.192.072-.416.12-.672a20.943 20.943 0 01.312-1.464c.048-.176.072-.352.072-.528 0-.064-.016-.096-.048-.096-.064 0-.136.056-.216.168a4.713 4.713 0 01-.336.48c-.24.32-.496.624-.768.912-.272.288-.616.616-1.032.984-.384.336-.792.648-1.224.936a2.606 2.606 0 01-1.416.408c-.48 0-.856-.184-1.128-.552a2.284 2.284 0 01-.384-1.296c0-.16.008-.344.024-.552a8.02 8.02 0 00.072-.648c.032-.224.064-.432.096-.624.032-.208.048-.376.048-.504.032-.208.08-.48.144-.816.064-.336.096-.616.096-.84l.12-.816c.032-.16.048-.304.048-.432a2.35 2.35 0 01.072-.384.705.705 0 00.024-.168v-.168c0-.128.032-.2.096-.216.096-.08.224-.144.384-.192.112-.048.216-.064.312-.048.096 0 .16-.016.192-.048.176 0 .344.112.504.336.16.224.256.424.288.6.016.048.024.12.024.216v.288c0 .272-.016.536-.048.792s-.072.528-.12.816l-.12.48a7.37 7.37 0 01-.12.576 16.74 16.74 0 01-.096.528 3.201 3.201 0 00-.024.312c0 .096.016.184.048.264.048.064.136.096.264.096.144 0 .36-.104.648-.312.288-.208.592-.456.912-.744.336-.304.656-.616.96-.936.32-.336.576-.632.768-.888.304-.4.552-.728.744-.984.208-.256.392-.456.552-.6.16-.16.4-.24.72-.24.16 0 .296.064.408.192.128.128.232.256.312.384.128.208.192.44.192.696a6 6 0 00.048.744.426.426 0 01-.048.192.426.426 0 00-.048.192c-.016.176-.032.384-.048.624s-.032.504-.048.792c-.08.864-.16 1.552-.24 2.064a6.177 6.177 0 01-.264 1.224l-.024.096zm5.702.72c-.464 0-.864-.08-1.2-.24a2.368 2.368 0 01-.792-.624 3.292 3.292 0 01-.48-.864 3.326 3.326 0 01-.144-.96c0-.496.096-.952.288-1.368a6.35 6.35 0 01.696-1.2c.096-.128.208-.272.336-.432.144-.176.288-.336.432-.48.16-.16.312-.304.456-.432.144-.128.272-.216.384-.264.224-.112.384-.216.48-.312a.616.616 0 01.456-.168c.384 0 .728.096 1.032.288.304.176.56.416.768.72.208.304.36.648.456 1.032.112.384.168.776.168 1.176 0 1.264-.28 2.272-.84 3.024-.56.736-1.392 1.104-2.496 1.104zm.576-5.28a.789.789 0 00-.192.024.23.23 0 00-.168.072 2.924 2.924 0 00-.312.36c-.08.096-.184.256-.312.48-.08.144-.152.336-.216.576a3.557 3.557 0 00-.072.744c0 .272.072.496.216.672.144.16.376.24.696.24.192 0 .384-.048.576-.144.192-.112.36-.256.504-.432.144-.176.264-.384.36-.624.096-.24.144-.496.144-.768 0-.304-.096-.576-.288-.816-.192-.256-.432-.384-.72-.384h-.216zm21.259 5.496c-.336 0-.616-.088-.84-.264a1.981 1.981 0 01-.552-.6 3.253 3.253 0 01-.288-.744 4.897 4.897 0 01-.12-.696c-.032-.048-.064-.072-.096-.072-.064 0-.144.056-.24.168-.096.128-.208.288-.336.48-.128.176-.304.4-.528.672a4.589 4.589 0 01-1.104.96c-.432.288-.832.432-1.2.432-.464 0-.864-.216-1.2-.648-.336-.432-.504-1.032-.504-1.8 0-.384.024-.752.072-1.104.048-.368.104-.712.168-1.032.064-.32.104-.656.12-1.008s.032-.736.048-1.152v-.36c.016-.112.024-.208.024-.288 0-.032-.008-.056-.024-.072a.267.267 0 01-.072-.192.705.705 0 00-.024-.168v-.12a.453.453 0 00.024-.144.887.887 0 01.288-.552c.16-.16.336-.24.528-.24.224 0 .432.072.624.216.208.144.376.328.504.552.112.176.184.36.216.552.048.176.072.352.072.528 0 .16-.008.28-.024.36v.264c0 .128-.008.272-.024.432 0 .16-.008.328-.024.504l-.048.48a4.161 4.161 0 01-.048.336l-.12.48a7.37 7.37 0 01-.12.576c-.032.176-.064.336-.096.48-.032.144-.048.24-.048.288 0 .128.024.216.072.264.064.048.136.08.216.096.144 0 .36-.104.648-.312.304-.224.608-.512.912-.864.32-.352.608-.752.864-1.2a5.14 5.14 0 00.576-1.392c.128-.512.256-.856.384-1.032.128-.192.256-.288.384-.288.32 0 .624.136.912.408.304.272.456.672.456 1.2 0 .272-.032.552-.096.84-.048.288-.088.536-.12.744a5.76 5.76 0 00-.072.552c-.016.192-.024.4-.024.624v.408c.016.144.048.248.096.312a.786.786 0 00.192-.048c.144-.064.32-.096.528-.096.112 0 .256.056.432.168l.12.12c.032.032.064.08.096.144v.384c-.016.16-.056.328-.12.504-.064.16-.16.312-.288.456a1.264 1.264 0 01-.48.36 1.543 1.543 0 01-.696.144zm12.819 9.912a2.761 2.761 0 01-.24-.696 7.6 7.6 0 01-.048-.96c0-.416.024-.872.072-1.368.048-.496.096-1.08.144-1.752.016-.272.04-.616.072-1.032.048-.416.112-.872.192-1.368a.451.451 0 01-.288-.12.812.812 0 01-.192-.216c-.112-.224-.168-.424-.168-.6s.016-.328.048-.456.088-.272.168-.432c0-.112.032-.24.096-.384.064-.128.144-.264.24-.408l.6-.816.216-1.272c.128-.704.296-1.512.504-2.424a41.8 41.8 0 01.816-2.856c.112-.336.256-.688.432-1.056.176-.384.376-.736.6-1.056.224-.32.464-.584.72-.792.272-.208.552-.312.84-.312.336 0 .632.088.888.264.256.176.472.408.648.696.192.272.336.576.432.912.096.336.144.656.144.96 0 .48-.072.96-.216 1.44a8.5 8.5 0 01-.504 1.392c-.208.432-.432.84-.672 1.224-.24.368-.464.696-.672.984l-2.592 3.408a.624.624 0 00-.024.192c-.048.336-.096.696-.144 1.08-.032.4-.072.776-.12 1.128-.032.352-.064.656-.096.912-.016.272-.024.456-.024.552-.08.896-.136 1.64-.168 2.232a57.887 57.887 0 00-.024 1.44c0 .112-.016.24-.048.384-.032.16-.072.312-.12.456a3.11 3.11 0 01-.168.408 1.746 1.746 0 01-.144.336c-.112.176-.216.288-.312.336-.096.064-.168.096-.216.096a.635.635 0 01-.36-.096 1.98 1.98 0 01-.312-.36zm3.096-13.2c.256-.336.504-.696.744-1.08.24-.384.448-.768.624-1.152a6.03 6.03 0 00.432-1.104c.112-.368.168-.688.168-.96 0-.288-.096-.432-.288-.432-.112 0-.224.096-.336.288-.096.176-.2.416-.312.72-.096.272-.192.568-.288.888l-.288.912c-.08.288-.152.568-.216.84-.064.256-.112.464-.144.624l-.096.456zm13.853 2.352a.955.955 0 01-.144.24 1.238 1.238 0 01-.24.264 3.509 3.509 0 01-.36.24.543.543 0 01-.36.12.847.847 0 01-.336-.072.504.504 0 01-.336-.336 1.55 1.55 0 01-.096-.576v-.24a8.37 8.37 0 00.048-.264c.032-.192.072-.416.12-.672a20.943 20.943 0 01.312-1.464c.048-.176.072-.352.072-.528 0-.064-.016-.096-.048-.096-.064 0-.136.056-.216.168a4.713 4.713 0 01-.336.48c-.24.32-.496.624-.768.912-.272.288-.616.616-1.032.984-.384.336-.792.648-1.224.936a2.606 2.606 0 01-1.416.408c-.48 0-.856-.184-1.128-.552a2.284 2.284 0 01-.384-1.296c0-.16.008-.344.024-.552a8.02 8.02 0 00.072-.648c.032-.224.064-.432.096-.624.032-.208.048-.376.048-.504.032-.208.08-.48.144-.816.064-.336.096-.616.096-.84l.12-.816c.032-.16.048-.304.048-.432a2.35 2.35 0 01.072-.384.705.705 0 00.024-.168v-.168c0-.128.032-.2.096-.216.096-.08.224-.144.384-.192.112-.048.216-.064.312-.048.096 0 .16-.016.192-.048.176 0 .344.112.504.336.16.224.256.424.288.6.016.048.024.12.024.216v.288c0 .272-.016.536-.048.792s-.072.528-.12.816l-.12.48a7.37 7.37 0 01-.12.576 16.74 16.74 0 01-.096.528 3.201 3.201 0 00-.024.312c0 .096.016.184.048.264.048.064.136.096.264.096.144 0 .36-.104.648-.312.288-.208.592-.456.912-.744.336-.304.656-.616.96-.936.32-.336.576-.632.768-.888.304-.4.552-.728.744-.984.208-.256.392-.456.552-.6.16-.16.4-.24.72-.24.16 0 .296.064.408.192.128.128.232.256.312.384.128.208.192.44.192.696a6 6 0 00.048.744.426.426 0 01-.048.192.426.426 0 00-.048.192c-.016.176-.032.384-.048.624s-.032.504-.048.792c-.08.864-.16 1.552-.24 2.064a6.177 6.177 0 01-.264 1.224l-.024.096zm10.621-2.664c.096.032.176.112.24.24.112.224.168.488.168.792a.72.72 0 01-.12.384 1.19 1.19 0 01-.216.312c-.16.16-.304.312-.432.456a3.83 3.83 0 01-.456.384 6.95 6.95 0 01-.696.432c-.272.176-.56.328-.864.456a4.283 4.283 0 01-.552.216 2.164 2.164 0 01-.456.144 2.097 2.097 0 01-.456.048c-.16.016-.352.024-.576.024-.288 0-.592-.056-.912-.168-.304-.096-.52-.184-.648-.264-.528-.32-.904-.744-1.128-1.272-.224-.544-.336-1.208-.336-1.992 0-.48.056-.944.168-1.392.112-.464.256-.888.432-1.272.192-.4.4-.76.624-1.08a6.212 6.212 0 011.224-1.248c.224-.16.448-.304.672-.432.24-.128.496-.24.768-.336.272-.112.608-.168 1.008-.168s.776.152 1.128.456c.368.288.552.64.552 1.056 0 .096-.008.184-.024.264a.938.938 0 01-.072.192c-.032.096-.088.2-.168.312a.694.694 0 01-.216.216c-.128.096-.336.144-.624.144-.176 0-.312-.008-.408-.024a1.35 1.35 0 00-.408-.048c-.256 0-.544.112-.864.336a3.87 3.87 0 00-.864.84 5.699 5.699 0 00-.696 1.176c-.176.416-.264.84-.264 1.272 0 .4.072.728.216.984.16.256.448.384.864.384.368 0 .712-.064 1.032-.192.336-.144.608-.272.816-.384.16-.08.352-.192.576-.336.24-.16.448-.296.624-.408.16-.096.288-.192.384-.288.096-.096.192-.168.288-.216a1.368 1.368 0 01.408-.096c.096 0 .184.032.264.096zm8.821 5.4c-.144.72-.344 1.408-.6 2.064-.24.656-.568 1.32-.984 1.992a3.3 3.3 0 01-.24.312 29.58 29.58 0 00-.264.312.954.954 0 01-.144.12c-.032.032-.08.088-.144.168-.128.16-.256.344-.384.552a2.754 2.754 0 01-.384.504 6.58 6.58 0 01-1.944 1.392c-.704.352-1.496.528-2.376.528-.448 0-.784-.088-1.008-.264a2.567 2.567 0 01-.144-.12c-.016-.016-.032-.088-.048-.216-.032-.016-.04-.064-.024-.144 0-.08-.024-.136-.072-.168.016-.016.024-.04.024-.072 0-.032-.016-.064-.048-.096-.016-.016-.024-.032-.024-.048.032-.032.048-.064.048-.096v-.048c-.016 0-.024-.008-.024-.024a.931.931 0 00.048-.12c0-.032.04-.072.12-.12 0-.064.032-.104.096-.12.048-.016.072-.072.072-.168.08-.064.168-.12.264-.168a.566.566 0 01.24-.072c.16 0 .28.008.36.024.08.016.144.024.192.024h.192c.608 0 1.16-.144 1.656-.432a5.585 5.585 0 001.368-1.08c.368-.4.688-.824.96-1.272.272-.448.496-.872.672-1.272.032-.08.072-.16.12-.24a.94.94 0 00.12-.216c.048-.192.112-.416.192-.672.096-.256.184-.504.264-.744l.24-.84v-.096c0-.048.016-.128.048-.24.128-.512.224-.992.288-1.44.08-.464.16-.864.24-1.2.08-.368.128-.608.144-.72.032-.128.048-.216.048-.264 0-.064-.024-.096-.072-.096-.064 0-.12.04-.168.12-.048.08-.184.28-.408.6-.128.176-.296.392-.504.648a4.997 4.997 0 01-.696.744c-.256.24-.544.448-.864.624a1.846 1.846 0 01-.936.264c-.608 0-1.04-.208-1.296-.624a2.772 2.772 0 01-.384-1.44c0-.512.016-.952.048-1.32.048-.368.088-.664.12-.888.032-.128.04-.272.024-.432 0-.16.016-.312.048-.456 0-.08-.008-.16-.024-.24v-.24a2.74 2.74 0 00-.024-.384 1.49 1.49 0 00-.024-.288 1.112 1.112 0 01-.024-.216v-.24c.032-.16.064-.28.096-.36.048-.08.088-.16.12-.24a.64.64 0 01.144-.216c0-.064.04-.096.12-.096a.79.79 0 00.24-.048c.08-.016.192-.024.336-.024l.264.12c.112.064.216.144.312.24a.79.79 0 01.24.384c.096.384.144.664.144.84-.016.16-.056.36-.12.6a2.898 2.898 0 00-.072.6 8.805 8.805 0 00-.048.432c-.016.176-.04.36-.072.552l-.048.576a5.135 5.135 0 00-.024.456c0 .336.088.504.264.504.16 0 .352-.072.576-.216.224-.144.448-.328.672-.552.224-.224.448-.48.672-.768.224-.304.416-.608.576-.912.176-.32.344-.6.504-.84.176-.256.408-.384.696-.384.112 0 .24.024.384.072.16.032.304.112.432.24.224.208.376.416.456.624.08.208.12.504.12.888 0 .112-.016.32-.048.624-.016.288-.048.632-.096 1.032s-.112.848-.192 1.344c-.08.48-.168.968-.264 1.464l-.36 1.728zm10.579-1.8c-.336 0-.616-.088-.84-.264a1.981 1.981 0 01-.552-.6 3.253 3.253 0 01-.288-.744 4.897 4.897 0 01-.12-.696c-.032-.048-.064-.072-.096-.072-.064 0-.144.056-.24.168-.096.128-.208.288-.336.48-.128.176-.304.4-.528.672a4.589 4.589 0 01-1.104.96c-.432.288-.832.432-1.2.432-.464 0-.864-.216-1.2-.648-.336-.432-.504-1.032-.504-1.8 0-.384.024-.752.072-1.104.048-.368.104-.712.168-1.032.064-.32.104-.656.12-1.008s.032-.736.048-1.152v-.36c.016-.112.024-.208.024-.288 0-.032-.008-.056-.024-.072a.267.267 0 01-.072-.192.705.705 0 00-.024-.168v-.12a.453.453 0 00.024-.144.887.887 0 01.288-.552c.16-.16.336-.24.528-.24.224 0 .432.072.624.216.208.144.376.328.504.552.112.176.184.36.216.552.048.176.072.352.072.528 0 .16-.008.28-.024.36v.264c0 .128-.008.272-.024.432 0 .16-.008.328-.024.504l-.048.48a4.161 4.161 0 01-.048.336l-.12.48a7.37 7.37 0 01-.12.576c-.032.176-.064.336-.096.48-.032.144-.048.24-.048.288 0 .128.024.216.072.264.064.048.136.08.216.096.144 0 .36-.104.648-.312.304-.224.608-.512.912-.864.32-.352.608-.752.864-1.2a5.14 5.14 0 00.576-1.392c.128-.512.256-.856.384-1.032.128-.192.256-.288.384-.288.32 0 .624.136.912.408.304.272.456.672.456 1.2 0 .272-.032.552-.096.84-.048.288-.088.536-.12.744a5.76 5.76 0 00-.072.552c-.016.192-.024.4-.024.624v.408c.016.144.048.248.096.312a.786.786 0 00.192-.048c.144-.064.32-.096.528-.096.112 0 .256.056.432.168l.12.12c.032.032.064.08.096.144v.384c-.016.16-.056.328-.12.504-.064.16-.16.312-.288.456a1.264 1.264 0 01-.48.36 1.543 1.543 0 01-.696.144zm-2.232-10.608c-.512 0-.968-.032-1.368-.096a3.784 3.784 0 01-1.2-.504 2.497 2.497 0 01-.744-.648 4.542 4.542 0 01-.408-.84.98.98 0 01-.048-.312c0-.224.072-.408.216-.552a.654.654 0 01.288-.168l.336-.096a.533.533 0 00.168-.072.476.476 0 01.216-.048c.08 0 .16.048.24.144.096.112.168.272.216.48.064.192.184.376.36.552.224.224.448.368.672.432.224.048.512.072.864.072.432 0 .776-.048 1.032-.144.256-.096.488-.336.696-.72.192-.384.52-.576.984-.576.08 0 .176.032.288.096.128.048.232.088.312.12.192.08.288.296.288.648 0 .224-.04.424-.12.6-.08.16-.184.328-.312.504-.336.432-.792.728-1.368.888a5.85 5.85 0 01-1.608.24z" fill="#074F9F"/></svg>