<svg width="63" height="69" fill="none" xmlns="http://www.w3.org/2000/svg"><path d="M9.82 39.48l-.09.04a.401.401 0 00-.11.01 1.344 1.344 0 00-.6.3c-.16.147-.297.324-.41.53a2.719 2.719 0 00-.24.69c-.047.254-.07.514-.07.78 0 .434.127.777.38 1.03.26.254.627.38 1.1.38.153 0 .307-.007.46-.02.16-.02.31-.04.45-.06.147-.026.28-.046.4-.06.12-.02.22-.03.3-.03.153 0 .25.033.29.1.047.06.07.147.07.26 0 .007-.007.044-.02.11a.348.348 0 01-.03.1c-.047.053-.1.1-.16.14-.053.04-.117.08-.19.12a1.51 1.51 0 00-.09.05.445.445 0 00-.08.04.068.068 0 01-.05.02c-.013 0-.027.007-.04.02h-.05c-.007.007-.02.01-.04.01a.624.624 0 01-.21.04.193.193 0 01-.1.03.974.974 0 01-.1.02.62.62 0 01-.16.03 3.678 3.678 0 00-.18.02 4.8 4.8 0 01-.3.01h-.27c-.367 0-.69-.063-.97-.19a1.976 1.976 0 01-.7-.49 2.296 2.296 0 01-.43-.73 2.643 2.643 0 01-.14-.86c0-.42.043-.817.13-1.19.087-.38.217-.723.39-1.03a.2.2 0 00.05-.12c.013-.053.037-.087.07-.1a.354.354 0 00.11-.14.543.543 0 01.09-.15.21.21 0 00.09-.06.367.367 0 00.07-.09c.027 0 .043-.01.05-.03a.231.231 0 01.04-.06c.013 0 .027-.007.04-.02a.328.328 0 00.05-.04c.02-.013.053-.033.1-.06a.281.281 0 00.09-.09.798.798 0 01.12-.03.33.33 0 01.1-.02.126.126 0 01.07-.06.99.99 0 00.13-.08.903.903 0 00.16-.01.268.268 0 01.1-.02.99.99 0 01.26-.07 1.254 1.254 0 01.79.05.96.96 0 01.37.22c.14.14.21.287.21.44 0 .074-.02.164-.06.27a.662.662 0 01-.05.12.302.302 0 01-.16.12.727.727 0 01-.21.03h-.16a.28.28 0 01-.1-.06.226.226 0 00-.08-.04l-.06-.04a.57.57 0 00-.25-.07.164.164 0 00-.05.01.088.088 0 01-.04.01l-.08-.03zm6.15 4.67a.188.188 0 01-.06-.01h-.16a.246.246 0 01-.09-.02.65.65 0 01-.07-.04.188.188 0 00-.06-.01c0-.026-.013-.053-.04-.08a.266.266 0 01-.06-.09c-.026-.1-.06-.243-.1-.43a9.48 9.48 0 00-.13-.62c-.046-.22-.1-.437-.16-.65a3.004 3.004 0 00-.19-.52c-.16.407-.323.777-.49 1.11-.166.334-.34.62-.52.86-.173.233-.35.413-.53.54a.863.863 0 01-.53.2c-.1 0-.18-.026-.24-.08a.707.707 0 01-.14-.17 1.681 1.681 0 00-.1-.16c-.026-.053-.063-.08-.11-.08a.288.288 0 01.11-.11l-.05-.04a.11.11 0 00.05-.01l.04-.02c.054-.006.08-.023.08-.05-.006-.007-.01-.013-.01-.02v-.01a.214.214 0 01.12-.07c.06-.02.12-.037.18-.05.114-.027.234-.113.36-.26.127-.146.25-.32.37-.52a6.71 6.71 0 00.35-.65 12.01 12.01 0 00.51-1.18c.06-.146.097-.233.11-.26a.567.567 0 01.16-.21.36.36 0 01.25-.09c.127 0 .217.017.27.05.06.027.117.084.17.17.067.107.137.247.21.42.08.173.157.363.23.57l.06.14a.2.2 0 00.02.09.12.12 0 01.02.07.177.177 0 01.05.08c.014.027.027.07.04.13.04.08.067.17.08.27.014.1.05.217.11.35.074.233.13.44.17.62.047.18.07.307.07.38a.87.87 0 01-.01.13c0 .047-.01.07-.03.07a.176.176 0 01-.05.13c-.013.013-.033.02-.06.02a.127.127 0 00-.06.03.146.146 0 00-.07.05c-.013.02-.036.03-.07.03zm3.988.89c-.06.3-.143.587-.25.86-.1.273-.237.55-.41.83-.027.04-.06.084-.1.13l-.11.13a.395.395 0 01-.06.05 2.272 2.272 0 00-.22.3 1.15 1.15 0 01-.16.21c-.24.247-.51.44-.81.58a2.18 2.18 0 01-.99.22c-.187 0-.327-.037-.42-.11a1.018 1.018 0 01-.06-.05c-.007-.006-.013-.036-.02-.09-.014-.007-.017-.026-.01-.06 0-.033-.01-.056-.03-.07a.043.043 0 00.01-.03c0-.013-.007-.026-.02-.04a.026.026 0 01-.01-.02c.013-.013.02-.027.02-.04v-.02c-.007 0-.01-.003-.01-.01a.4.4 0 00.02-.05c0-.013.016-.03.05-.05 0-.026.013-.043.04-.05.02-.006.03-.03.03-.07a.614.614 0 01.11-.07c.04-.02.073-.03.1-.03.067 0 .117.003.15.01a.4.4 0 00.08.01h.08c.253 0 .483-.06.69-.18.213-.12.403-.27.57-.45.153-.166.287-.343.4-.53.113-.187.207-.363.28-.53a.696.696 0 01.05-.1.395.395 0 00.05-.09c.02-.08.046-.173.08-.28.04-.107.076-.21.11-.31l.1-.35v-.04a.42.42 0 01.02-.1c.053-.213.093-.413.12-.6.033-.193.066-.36.1-.5.033-.153.053-.253.06-.3a.554.554 0 00.02-.11c0-.026-.01-.04-.03-.04-.027 0-.05.017-.07.05-.02.034-.077.117-.17.25a6.77 6.77 0 01-.21.27c-.08.107-.177.21-.29.31-.107.1-.227.187-.36.26a.77.77 0 01-.39.11c-.254 0-.434-.087-.54-.26-.107-.18-.16-.38-.16-.6 0-.213.006-.397.02-.55l.05-.37a.528.528 0 00.01-.18.87.87 0 01.02-.19.514.514 0 00-.01-.1v-.1c0-.06-.004-.113-.01-.16a.626.626 0 00-.01-.12.46.46 0 01-.01-.09v-.1a.902.902 0 01.04-.15.707.707 0 00.05-.1.266.266 0 01.06-.09c0-.027.017-.04.05-.04a.33.33 0 00.1-.02.752.752 0 01.14-.01l.11.05c.046.027.09.06.13.1a.33.33 0 01.1.16c.04.16.06.277.06.35-.007.067-.023.15-.05.25-.02.093-.03.177-.03.25a3.558 3.558 0 00-.02.18c-.007.074-.017.15-.03.23l-.02.24c-.007.074-.01.137-.01.19 0 .14.037.21.11.21a.47.47 0 00.24-.09c.093-.06.186-.136.28-.23.093-.093.187-.2.28-.32.093-.127.173-.253.24-.38a4.68 4.68 0 01.21-.35.337.337 0 01.29-.16c.047 0 .1.01.16.03a.35.35 0 01.18.1.72.72 0 01.19.26c.033.087.05.21.05.37 0 .047-.007.133-.02.26-.007.12-.02.264-.04.43-.02.167-.047.354-.08.56-.034.2-.07.404-.11.61l-.15.72zm4.538-1.68a.11.11 0 00.06-.02c.02-.013.046-.03.08-.05l.11-.07a.58.58 0 00.09-.09.179.179 0 00.05-.05c.013-.026.026-.043.04-.05a.234.234 0 00.04-.06.229.229 0 01.03-.05c.013 0 .026-.013.04-.04.02-.027.04-.056.06-.09l.16-.21.04-.08a.229.229 0 01.04-.06c.113-.18.206-.366.28-.56.073-.193.136-.377.19-.55a1.269 1.269 0 01.22-.41.133.133 0 01.06-.05.224.224 0 00.07-.03.494.494 0 01.05-.03.123.123 0 01.07-.02h.08a.32.32 0 01.25.1c.066.067.1.15.1.25 0 .147-.027.313-.08.5-.047.187-.087.353-.12.5-.067.247-.124.46-.17.64-.04.18-.06.367-.06.56 0 .14.02.253.06.34.04.08.116.12.23.12.06 0 .11-.006.15-.02a.508.508 0 01.14-.02c.066 0 .12.02.16.06.04.04.06.107.06.2 0 .007-.004.02-.01.04 0 .027-.01.04-.03.04.013.014.02.033.02.06 0 .04-.024.06-.07.06.013.027.02.05.02.07 0 .047-.02.084-.06.11a.281.281 0 01-.11.07 7.162 7.162 0 01-.21.08.64.64 0 01-.22.04c-.174 0-.32-.027-.44-.08a.762.762 0 01-.28-.22.813.813 0 01-.16-.3 1.698 1.698 0 01-.04-.37v-.13c0-.047.003-.087.01-.12l.02-.1c-.1.153-.204.3-.31.44-.107.14-.217.264-.33.37-.107.107-.214.19-.32.25a.56.56 0 01-.29.1c-.174 0-.324-.09-.45-.27-.127-.18-.19-.43-.19-.75a2.554 2.554 0 01.04-.42l-.2.35a.257.257 0 01-.06.06.55.55 0 00-.1.18.402.402 0 01-.06.1c-.147.2-.314.373-.5.52a.891.891 0 01-.59.23c-.174 0-.314-.09-.42-.27-.107-.18-.16-.43-.16-.75 0-.18.01-.346.03-.5a4.466 4.466 0 01.07-.29.308.308 0 00.01-.13c0-.033.006-.077.02-.13a5.57 5.57 0 00.08-.74.57.57 0 00-.04-.23.587.587 0 01-.04-.22c0-.093.026-.157.08-.19l.04-.1c.02-.033.046-.05.08-.05a.584.584 0 01.08-.07.18.18 0 01.11-.03.25.25 0 01.13.03c.04.02.08.03.12.03.026 0 .05.014.07.04a.2.2 0 01.06.07c.033.053.063.12.09.2a.82.82 0 01.04.26c0 .14-.014.294-.04.46-.027.16-.06.324-.1.49-.034.167-.064.33-.09.49-.027.154-.04.29-.04.41 0 .1.036.15.11.15.086 0 .196-.066.33-.2.133-.133.266-.3.4-.5.133-.2.256-.416.37-.65.12-.24.203-.46.25-.66a.681.681 0 00-.01-.11.725.725 0 01-.01-.12c0-.113.033-.2.1-.26a.348.348 0 01.22-.09.9.9 0 01.19.02.3.3 0 01.17.07.33.33 0 01.11.17c.026.08.04.19.04.33s-.014.294-.04.46c-.02.16-.044.324-.07.49l-.08.49c-.02.154-.03.29-.03.41 0 .1.036.15.11.15zm5.832.75a1.651 1.651 0 01-.01-.2v-.23c0-.06-.01-.096-.03-.11-.013-.02-.026-.03-.04-.03-.026 0-.05.01-.07.03l-.07.07a2 2 0 01-.26.21c-.106.08-.223.154-.35.22-.126.074-.26.133-.4.18-.14.047-.27.07-.39.07a.634.634 0 01-.32-.08.797.797 0 01-.23-.22 1.037 1.037 0 01-.14-.3 1.566 1.566 0 01-.04-.36c0-.113.01-.227.03-.34.02-.073.044-.153.07-.24a2.733 2.733 0 01.16-.36.523.523 0 00.05-.08c.02-.027.04-.057.06-.09.1-.166.234-.333.4-.5.167-.166.347-.316.54-.45.2-.14.397-.25.59-.33.194-.087.364-.13.51-.13.1 0 .194.01.28.03a.62.62 0 01.41.32c.047.067.07.14.07.22 0 .034-.01.07-.03.11-.013.26-.026.5-.04.72a19.31 19.31 0 00-.03.57v.41c0 .207.007.394.02.56.02.167.04.287.06.36 0 .053-.003.1-.01.14a.21.21 0 01-.03.11.523.523 0 01-.05.08.275.275 0 01-.08.07.162.162 0 01-.07.02.22.22 0 01-.07-.01.22.22 0 00-.07-.01c-.046.007-.07.017-.07.03-.146 0-.233-.043-.26-.13a6.549 6.549 0 01-.09-.33zm.17-2.22a.096.096 0 01-.07-.03.231.231 0 01-.06-.04.096.096 0 00-.04-.05c-.093 0-.23.063-.41.19-.173.12-.35.267-.53.44-.18.167-.336.34-.47.52-.133.18-.2.33-.2.45 0 .08.037.12.11.12.04 0 .1-.013.18-.04.087-.033.187-.087.3-.16.087-.053.184-.117.29-.19a3.24 3.24 0 00.64-.53c.094-.106.167-.22.22-.34l.03-.18a.974.974 0 00.01-.16zm4.844 2.4a.55.55 0 01-.35-.11.826.826 0 01-.23-.25 1.358 1.358 0 01-.12-.31 2.054 2.054 0 01-.05-.29c-.013-.02-.026-.03-.04-.03-.026 0-.06.024-.1.07-.04.053-.086.12-.14.2a6.113 6.113 0 01-.22.28 1.91 1.91 0 01-.46.4c-.18.12-.346.18-.5.18-.193 0-.36-.09-.5-.27-.14-.18-.21-.43-.21-.75 0-.16.01-.313.03-.46a6.92 6.92 0 01.07-.43c.027-.133.044-.273.05-.42.007-.147.014-.306.02-.48v-.15a.863.863 0 00.01-.12c0-.013-.003-.023-.01-.03a.112.112 0 01-.03-.08.292.292 0 00-.01-.07v-.05a.18.18 0 00.01-.06.37.37 0 01.12-.23c.067-.066.14-.1.22-.1.094 0 .18.03.26.09.087.06.157.137.21.23.047.074.077.15.09.23.02.073.03.147.03.22a.825.825 0 01-.01.15v.11c0 .053-.003.114-.01.18 0 .067-.003.137-.01.21l-.02.2a1.36 1.36 0 01-.02.14l-.05.2c-.013.08-.03.16-.05.24-.013.074-.026.14-.04.2a.74.74 0 00-.02.12c0 .053.01.09.03.11a.22.22 0 00.09.04c.06 0 .15-.043.27-.13.127-.093.254-.213.38-.36.134-.146.254-.313.36-.5.114-.193.194-.386.24-.58.054-.213.107-.356.16-.43.054-.08.107-.12.16-.12a.55.55 0 01.38.17c.127.113.19.28.19.5 0 .113-.013.23-.04.35l-.05.31a2.42 2.42 0 00-.03.23 3.47 3.47 0 00-.01.26v.17c.007.06.02.103.04.13.014 0 .04-.006.08-.02a.54.54 0 01.22-.04.36.36 0 01.18.07l.05.05a.229.229 0 01.04.06v.16a.864.864 0 01-.05.21.646.646 0 01-.12.19.526.526 0 01-.2.15.643.643 0 01-.29.06zm-.93-4.42c-.213 0-.403-.013-.57-.04a1.576 1.576 0 01-.5-.21 1.042 1.042 0 01-.31-.27 1.899 1.899 0 01-.17-.35.41.41 0 01-.02-.13c0-.093.03-.17.09-.23a.273.273 0 01.12-.07l.14-.04a.223.223 0 00.07-.03.2.2 0 01.09-.02c.034 0 .067.02.1.06a.47.47 0 01.09.2.6.6 0 00.15.23.666.666 0 00.28.18c.094.02.214.03.36.03.18 0 .324-.02.43-.06.107-.04.204-.14.29-.3.08-.16.217-.24.41-.24.034 0 .074.014.12.04l.13.05c.08.033.12.123.12.27a.597.597 0 01-.05.25 1.057 1.057 0 01-.7.58 2.42 2.42 0 01-.67.1zm6.272 8.55a1.153 1.153 0 01-.1-.29c-.014-.1-.02-.233-.02-.4 0-.173.01-.363.03-.57.02-.206.04-.45.06-.73.006-.113.016-.257.03-.43.02-.173.046-.363.08-.57a.188.188 0 01-.12-.05.34.34 0 01-.08-.09.572.572 0 01-.07-.25c0-.073.006-.136.02-.19a.905.905 0 01.07-.18c0-.047.013-.1.04-.16.026-.053.06-.11.1-.17l.25-.34.09-.53c.053-.293.123-.63.21-1.01.093-.38.206-.776.34-1.19.046-.14.106-.287.18-.44a2.75 2.75 0 01.25-.44 1.61 1.61 0 01.3-.33.57.57 0 01.35-.13.64.64 0 01.37.11.94.94 0 01.27.29c.08.114.14.24.18.38.04.14.06.273.06.4 0 .2-.03.4-.09.6-.054.2-.124.393-.21.58a5.283 5.283 0 01-.56.92l-1.08 1.42a.262.262 0 00-.01.08c-.02.14-.04.29-.06.45-.014.167-.03.324-.05.47a15.15 15.15 0 01-.04.38c-.007.114-.01.19-.01.23-.034.373-.057.683-.07.93-.007.253-.01.453-.01.6 0 .047-.007.1-.02.16a1.573 1.573 0 01-.12.36.727.727 0 01-.06.14.382.382 0 01-.13.14c-.04.027-.07.04-.09.04a.264.264 0 01-.15-.04.831.831 0 01-.13-.15zm1.29-5.5c.106-.14.21-.29.31-.45.1-.16.186-.32.26-.48.08-.16.14-.313.18-.46.046-.153.07-.287.07-.4 0-.12-.04-.18-.12-.18-.047 0-.094.04-.14.12a2.26 2.26 0 00-.13.3c-.04.114-.08.237-.12.37l-.12.38a9.215 9.215 0 00-.15.61l-.04.19zm4.536 1.19a1.651 1.651 0 01-.01-.2v-.23c0-.06-.01-.096-.03-.11-.013-.02-.027-.03-.04-.03-.027 0-.05.01-.07.03l-.07.07c-.06.06-.147.13-.26.21a2.61 2.61 0 01-.35.22c-.127.074-.26.133-.4.18-.14.047-.27.07-.39.07a.634.634 0 01-.32-.08.796.796 0 01-.23-.22 1.037 1.037 0 01-.14-.3 1.566 1.566 0 01-.04-.36c0-.113.01-.227.03-.34.02-.073.043-.153.07-.24a2.714 2.714 0 01.16-.36.53.53 0 00.05-.08c.02-.027.04-.057.06-.09.1-.166.233-.333.4-.5.167-.166.347-.316.54-.45.2-.14.397-.25.59-.33.193-.087.363-.13.51-.13.1 0 .193.01.28.03a.62.62 0 01.41.32c.047.067.07.14.07.22 0 .034-.01.07-.03.11-.013.26-.027.5-.04.72a19.31 19.31 0 00-.03.57v.41c0 .207.007.394.02.56.02.167.04.287.06.36a.87.87 0 01-.01.14.21.21 0 01-.03.11.53.53 0 01-.05.08.275.275 0 01-.08.07.162.162 0 01-.07.02.22.22 0 01-.07-.01.22.22 0 00-.07-.01c-.047.007-.07.017-.07.03-.147 0-.233-.043-.26-.13a6.549 6.549 0 01-.09-.33zm.17-2.22a.096.096 0 01-.07-.03.231.231 0 01-.06-.04.096.096 0 00-.04-.05c-.093 0-.23.063-.41.19-.173.12-.35.267-.53.44-.18.167-.337.34-.47.52-.133.18-.2.33-.2.45 0 .08.037.12.11.12.04 0 .1-.013.18-.04.087-.033.187-.087.3-.16.087-.053.183-.117.29-.19a3.251 3.251 0 00.64-.53 1.35 1.35 0 00.22-.34c.013-.086.023-.146.03-.18a.974.974 0 00.01-.16zm3.324 5.58a.926.926 0 01-.38-.08 1.51 1.51 0 01-.34-.21 3.134 3.134 0 01-.31-.29 5.49 5.49 0 01-.26-.32l-.18-.28a5.737 5.737 0 01-.17-.26.66.66 0 00-.04-.11.143.143 0 01-.02-.08c-.007-.007-.01-.027-.01-.06a.11.11 0 01.01-.05.088.088 0 00.01-.04.076.076 0 00-.01-.03v-.03c0-.007.007-.023.02-.05.013-.02.04-.036.08-.05a.43.43 0 01.11-.02l.05.01c.013 0 .023-.003.03-.01h.02a.356.356 0 01.13-.02c.113 0 .243.073.39.22a.957.957 0 01.18.25c.047.1.097.194.15.28a.82.82 0 00.19.23c.073.067.173.1.3.1s.237-.05.33-.15c.093-.1.173-.227.24-.38.073-.153.133-.32.18-.5a7.872 7.872 0 00.23-1.06c.04-.22.077-.443.11-.67.04-.233.07-.453.09-.66a6.77 6.77 0 00.05-.51c-.027-.053-.057-.08-.09-.08a.268.268 0 00-.13.05 2.755 2.755 0 00-.27.2c-.06.053-.14.11-.24.17a3.195 3.195 0 01-.68.32c-.113.034-.217.05-.31.05a.708.708 0 01-.37-.09.955.955 0 01-.25-.24 1.11 1.11 0 01-.13-.33c-.027-.12-.04-.24-.04-.36 0-.306.083-.61.25-.91.087-.166.213-.327.38-.48a.843.843 0 01.59-.23c.24 0 .46.06.66.18.227.16.36.383.4.67a.146.146 0 01.01.09c0 .02.007.037.02.05l.12-.08a.554.554 0 01.16-.1.644.644 0 01.25-.05.5.5 0 01.2.08.4.4 0 01.2.17c.013.034.03.08.05.14.02.06.03.117.03.17a.4.4 0 01.01.08c.007.02.01.037.01.05v.05c-.013.087-.033.303-.06.65-.02.34-.067.747-.14 1.22-.047.334-.1.637-.16.91-.053.28-.107.514-.16.7-.053.18-.123.373-.21.58-.08.207-.183.4-.31.58-.12.18-.26.327-.42.44a.892.892 0 01-.55.18zm-.42-5.04a.874.874 0 00.45-.13c.153-.086.277-.176.37-.27v-.04c.007-.007.01-.017.01-.03a.361.361 0 00-.08-.21c-.02-.026-.05-.04-.09-.04-.233 0-.413.07-.54.21a.812.812 0 00-.22.44c0 .047.033.07.1.07zm6.833 1.47a.402.402 0 01-.06.1.516.516 0 01-.1.11 1.3 1.3 0 01-.15.1.227.227 0 01-.15.05.353.353 0 01-.14-.03.21.21 0 01-.14-.14.645.645 0 01-.04-.24v-.1a14.104 14.104 0 01.2-1 .833.833 0 00.03-.22c0-.026-.006-.04-.02-.04-.026 0-.056.023-.09.07a4.393 4.393 0 01-.46.58c-.113.12-.256.257-.43.41-.16.14-.33.27-.51.39-.18.114-.376.17-.59.17a.552.552 0 01-.47-.23.951.951 0 01-.16-.54c0-.067.004-.143.01-.23a2.82 2.82 0 00.03-.27l.04-.26c.014-.087.02-.157.02-.21.014-.087.034-.2.06-.34.027-.14.04-.257.04-.35l.05-.34a.93.93 0 00.02-.18.966.966 0 01.03-.16.297.297 0 00.01-.07v-.07c0-.053.014-.083.04-.09a.45.45 0 01.16-.08.231.231 0 01.13-.02c.04 0 .067-.007.08-.02.074 0 .144.047.21.14a.652.652 0 01.12.25c.007.02.01.05.01.09v.12c0 .114-.006.224-.02.33a8.56 8.56 0 01-.05.34l-.05.2c-.013.08-.03.16-.05.24-.013.08-.026.154-.04.22-.006.06-.01.104-.01.13a.3.3 0 00.02.11c.02.027.057.04.11.04.06 0 .15-.043.27-.13.12-.086.247-.19.38-.31.14-.127.274-.257.4-.39.134-.14.24-.263.32-.37.127-.166.23-.303.31-.41.087-.106.164-.19.23-.25.067-.066.167-.1.3-.1.067 0 .124.027.17.08a.918.918 0 01.13.16c.054.087.08.184.08.29 0 .1.007.203.02.31a.178.178 0 01-.02.08.177.177 0 00-.02.08l-.02.26-.02.33a14.6 14.6 0 01-.1.86 2.58 2.58 0 01-.11.51l-.01.04zm2.376.3a1.15 1.15 0 01-.5-.1.987.987 0 01-.33-.26 1.37 1.37 0 01-.2-.36 1.386 1.386 0 01.06-.97c.08-.18.177-.346.29-.5l.14-.18c.06-.073.12-.14.18-.2.067-.067.13-.127.19-.18a.627.627 0 01.16-.11.795.795 0 00.2-.13.257.257 0 01.19-.07c.16 0 .303.04.43.12a.98.98 0 01.32.3c.087.127.15.27.19.43.047.16.07.323.07.49 0 .527-.117.947-.35 1.26-.233.307-.58.46-1.04.46zm.24-2.2a.327.327 0 00-.08.01c-.027 0-.05.01-.07.03a1.5 1.5 0 00-.26.35c-.033.06-.063.14-.09.24-.02.093-.03.197-.03.31 0 .114.03.207.09.28.06.067.157.1.29.1.08 0 .16-.02.24-.06a.774.774 0 00.21-.18.98.98 0 00.15-.26c.04-.1.06-.206.06-.32a.53.53 0 00-.12-.34.362.362 0 00-.3-.16h-.09zM10.9 53.9a.396.396 0 01-.06.1.516.516 0 01-.1.11 1.46 1.46 0 01-.15.1.227.227 0 01-.15.05.353.353 0 01-.14-.03.21.21 0 01-.14-.14.645.645 0 01-.04-.24v-.1a14.104 14.104 0 01.2-1 .833.833 0 00.03-.22c0-.026-.007-.04-.02-.04-.027 0-.057.023-.09.07a4.38 4.38 0 01-.46.58c-.113.12-.257.257-.43.41-.16.14-.33.27-.51.39-.18.114-.377.17-.59.17a.552.552 0 01-.47-.23.952.952 0 01-.16-.54c0-.067.003-.143.01-.23.013-.087.023-.176.03-.27.013-.093.027-.18.04-.26.013-.087.02-.157.02-.21.013-.087.033-.2.06-.34.027-.14.04-.257.04-.35l.05-.34a.928.928 0 00.02-.18.98.98 0 01.03-.16.294.294 0 00.01-.07v-.07c0-.053.013-.083.04-.09a.45.45 0 01.16-.08.238.238 0 01.13-.02c.04 0 .067-.007.08-.02.073 0 .143.047.21.14a.65.65 0 01.12.25c.007.02.01.05.01.09v.12c0 .114-.007.224-.02.33-.013.107-.03.22-.05.34l-.05.2c-.013.08-.03.16-.05.24-.013.08-.027.154-.04.22-.007.06-.01.104-.01.13a.3.3 0 00.02.11c.02.027.057.04.11.04.06 0 .15-.043.27-.13.12-.086.247-.19.38-.31.14-.127.273-.257.4-.39.133-.14.24-.263.32-.37.127-.166.23-.303.31-.41a2.32 2.32 0 01.23-.25c.067-.066.167-.1.3-.1.067 0 .123.027.17.08a.914.914 0 01.13.16c.053.087.08.184.08.29 0 .1.007.203.02.31a.178.178 0 01-.02.08.178.178 0 00-.02.08c-.007.074-.013.16-.02.26l-.02.33c-.033.36-.067.647-.1.86a2.573 2.573 0 01-.11.51l-.01.04zm5.504 3.2a.13.13 0 01-.12-.07.56.56 0 01-.04-.16 1.282 1.282 0 01-.01-.16c0-.253-.01-.503-.03-.75a23.11 23.11 0 00-.05-.72 15.85 15.85 0 00-.05-.64c-.013-.2-.02-.38-.02-.54 0-.12.007-.21.02-.27a.45.45 0 01.07-.15.288.288 0 01.09-.09.901.901 0 00.11-.08c.034-.273.064-.503.09-.69.027-.187.05-.33.07-.43.18-.873.424-1.52.73-1.94.314-.42.687-.63 1.12-.63.207 0 .387.05.54.15.16.1.294.233.4.4.014.027.03.064.05.11.02.04.03.07.03.09.02.027.04.063.06.11a.573.573 0 01.06.18 2.029 2.029 0 01.04.39c0 .3-.08.577-.24.83-.153.247-.35.467-.59.66a4 4 0 01-.8.5 5.46 5.46 0 01-.82.31c-.006.434-.01.84-.01 1.22s-.01.724-.03 1.03a4.95 4.95 0 01-.09.8c-.04.22-.1.383-.18.49a.274.274 0 01-.15.1.392.392 0 01-.05.02.164.164 0 01-.05.01.146.146 0 01-.09-.03.395.395 0 00-.06-.05zm2.22-6.42a.38.38 0 00-.28-.11c-.113 0-.223.053-.33.16-.106.107-.21.257-.31.45-.093.187-.18.41-.26.67a7.09 7.09 0 00-.2.85.026.026 0 01-.01.02v.01c.494-.166.874-.39 1.14-.67.267-.28.4-.603.4-.97a.36.36 0 00-.02-.12l-.04-.12a.247.247 0 01-.03-.06c0-.026-.006-.047-.02-.06l-.04-.05zm4.648 3.61a.55.55 0 01-.35-.11.826.826 0 01-.23-.25 1.358 1.358 0 01-.12-.31 2.054 2.054 0 01-.05-.29c-.013-.02-.027-.03-.04-.03-.027 0-.06.024-.1.07-.04.053-.087.12-.14.2a6.113 6.113 0 01-.22.28 1.91 1.91 0 01-.46.4c-.18.12-.347.18-.5.18-.193 0-.36-.09-.5-.27-.14-.18-.21-.43-.21-.75 0-.16.01-.313.03-.46.02-.153.043-.297.07-.43.027-.133.043-.273.05-.42l.02-.48v-.15a.863.863 0 00.01-.12c0-.013-.003-.023-.01-.03a.112.112 0 01-.03-.08.292.292 0 00-.01-.07v-.05a.18.18 0 00.01-.06.37.37 0 01.12-.23c.067-.066.14-.1.22-.1.093 0 .18.03.26.09.087.06.157.137.21.23.047.074.077.15.09.23.02.073.03.147.03.22a.825.825 0 01-.01.15v.11c0 .053-.003.114-.01.18 0 .067-.003.137-.01.21l-.02.2c-.007.06-.013.107-.02.14l-.05.2c-.013.08-.03.16-.05.24-.013.074-.027.14-.04.2a.74.74 0 00-.02.12c0 .053.01.09.03.11a.22.22 0 00.09.04c.06 0 .15-.043.27-.13a2.33 2.33 0 00.38-.36c.133-.146.253-.313.36-.5a2.15 2.15 0 00.24-.58c.053-.213.107-.356.16-.43.053-.08.107-.12.16-.12a.55.55 0 01.38.17c.127.113.19.28.19.5 0 .113-.013.23-.04.35l-.05.31a2.42 2.42 0 00-.03.23c-.007.08-.01.167-.01.26v.17c.007.06.02.103.04.13a.3.3 0 00.08-.02.54.54 0 01.22-.04.36.36 0 01.18.07l.05.05a.229.229 0 01.04.06v.16a.864.864 0 01-.05.21.646.646 0 01-.12.19.526.526 0 01-.2.15.643.643 0 01-.29.06zm4.593-1.5c.04.014.073.047.1.1.046.093.07.203.07.33a.3.3 0 01-.05.16.497.497 0 01-.09.13c-.067.067-.127.13-.18.19a1.595 1.595 0 01-.19.16c-.074.053-.17.114-.29.18a2.311 2.311 0 01-.36.19c-.087.04-.164.07-.23.09a.897.897 0 01-.19.06.876.876 0 01-.19.02 2.45 2.45 0 01-.24.01 1.15 1.15 0 01-.38-.07 1.28 1.28 0 01-.27-.11 1.126 1.126 0 01-.47-.53 2.183 2.183 0 01-.14-.83 2.818 2.818 0 01.25-1.11c.08-.166.166-.316.26-.45a2.588 2.588 0 01.51-.52 3.22 3.22 0 01.28-.18c.1-.053.206-.1.32-.14.113-.047.253-.07.42-.07.166 0 .323.064.47.19a.541.541 0 01.22.55.395.395 0 01-.03.08.503.503 0 01-.16.22c-.054.04-.14.06-.26.06-.074 0-.13-.003-.17-.01a.564.564 0 00-.17-.02c-.107 0-.227.047-.36.14a1.611 1.611 0 00-.36.35c-.114.147-.21.31-.29.49-.074.173-.11.35-.11.53 0 .167.03.303.09.41.066.107.186.16.36.16.153 0 .296-.026.43-.08.14-.06.253-.113.34-.16a2.64 2.64 0 00.24-.14c.1-.067.186-.123.26-.17a.83.83 0 00.16-.12.47.47 0 01.12-.09.576.576 0 01.17-.04c.04 0 .076.014.11.04zm3.675 2.25c-.06.3-.143.587-.25.86-.1.273-.237.55-.41.83-.027.04-.06.084-.1.13l-.11.13a.395.395 0 01-.06.05 2.289 2.289 0 00-.22.3 1.145 1.145 0 01-.16.21c-.24.247-.51.44-.81.58-.293.147-.623.22-.99.22-.187 0-.327-.037-.42-.11a1.098 1.098 0 01-.06-.05c-.007-.006-.013-.036-.02-.09-.013-.007-.017-.026-.01-.06 0-.033-.01-.056-.03-.07.007-.006.01-.017.01-.03 0-.013-.007-.026-.02-.04a.026.026 0 01-.01-.02c.013-.013.02-.027.02-.04v-.02c-.007 0-.01-.003-.01-.01a.386.386 0 00.02-.05c0-.013.017-.03.05-.05 0-.026.013-.043.04-.05.02-.006.03-.03.03-.07a.614.614 0 01.11-.07c.04-.02.073-.03.1-.03.067 0 .117.003.15.01a.4.4 0 00.08.01h.08c.253 0 .483-.06.69-.18.213-.12.403-.27.57-.45a3.35 3.35 0 00.4-.53c.113-.187.207-.363.28-.53a.696.696 0 01.05-.1.391.391 0 00.05-.09c.02-.08.047-.173.08-.28.04-.107.077-.21.11-.31l.1-.35v-.04c0-.02.007-.053.02-.1.053-.213.093-.413.12-.6.033-.193.067-.36.1-.5.033-.153.053-.253.06-.3a.554.554 0 00.02-.11c0-.026-.01-.04-.03-.04-.027 0-.05.017-.07.05-.02.034-.077.117-.17.25a6.588 6.588 0 01-.21.27c-.08.107-.177.21-.29.31-.107.1-.227.187-.36.26a.77.77 0 01-.39.11c-.253 0-.433-.087-.54-.26-.107-.18-.16-.38-.16-.6 0-.213.007-.397.02-.55l.05-.37a.526.526 0 00.01-.18.9.9 0 01.02-.19.506.506 0 00-.01-.1v-.1c0-.06-.003-.113-.01-.16a.618.618 0 00-.01-.12.46.46 0 01-.01-.09v-.1a.912.912 0 01.04-.15.696.696 0 00.05-.1.266.266 0 01.06-.09c0-.027.017-.04.05-.04a.33.33 0 00.1-.02.752.752 0 01.14-.01l.11.05c.047.027.09.06.13.1a.33.33 0 01.1.16c.04.16.06.277.06.35a1.64 1.64 0 01-.05.25c-.02.093-.03.177-.03.25a3.678 3.678 0 00-.02.18c-.007.074-.017.15-.03.23l-.02.24c-.007.074-.01.137-.01.19 0 .14.037.21.11.21.067 0 .147-.03.24-.09s.187-.136.28-.23c.093-.093.187-.2.28-.32.093-.127.173-.253.24-.38a4.68 4.68 0 01.21-.35.337.337 0 01.29-.16c.047 0 .1.01.16.03a.348.348 0 01.18.1.718.718 0 01.19.26c.033.087.05.21.05.37 0 .047-.007.133-.02.26-.007.12-.02.264-.04.43-.02.167-.047.354-.08.56-.033.2-.07.404-.11.61l-.15.72zm4.408-.75a.55.55 0 01-.35-.11.826.826 0 01-.23-.25 1.358 1.358 0 01-.12-.31 2.04 2.04 0 01-.05-.29c-.014-.02-.027-.03-.04-.03-.027 0-.06.024-.1.07-.04.053-.087.12-.14.2a6.185 6.185 0 01-.22.28c-.127.154-.28.287-.46.4-.18.12-.347.18-.5.18-.194 0-.36-.09-.5-.27-.14-.18-.21-.43-.21-.75 0-.16.01-.313.03-.46.02-.153.043-.297.07-.43.026-.133.043-.273.05-.42l.02-.48v-.15a.863.863 0 00.01-.12.045.045 0 00-.01-.03.11.11 0 01-.03-.08.292.292 0 00-.01-.07v-.05a.21.21 0 00.01-.06.37.37 0 01.12-.23c.066-.066.14-.1.22-.1.093 0 .18.03.26.09.086.06.156.137.21.23.046.074.076.15.09.23.02.073.03.147.03.22a.825.825 0 01-.01.15v.11c0 .053-.004.114-.01.18 0 .067-.004.137-.01.21l-.02.2a2.31 2.31 0 01-.02.14l-.05.2c-.014.08-.03.16-.05.24l-.04.2c-.014.06-.02.1-.02.12 0 .053.01.09.03.11a.22.22 0 00.09.04c.06 0 .15-.043.27-.13.126-.093.253-.213.38-.36.133-.146.253-.313.36-.5a2.15 2.15 0 00.24-.58c.053-.213.106-.356.16-.43.053-.08.106-.12.16-.12a.55.55 0 01.38.17c.126.113.19.28.19.5 0 .113-.014.23-.04.35l-.05.31a2.42 2.42 0 00-.03.23c-.007.08-.01.167-.01.26v.17c.006.06.02.103.04.13a.33.33 0 00.08-.02.54.54 0 01.22-.04c.046 0 .106.023.18.07l.05.05a.231.231 0 01.04.06v.16a.65.65 0 01-.17.4.527.527 0 01-.2.15.643.643 0 01-.29.06zm-.93-4.42c-.214 0-.404-.013-.57-.04a1.575 1.575 0 01-.5-.21 1.04 1.04 0 01-.31-.27 1.893 1.893 0 01-.17-.35.41.41 0 01-.02-.13c0-.093.03-.17.09-.23a.272.272 0 01.12-.07l.14-.04a.223.223 0 00.07-.03.2.2 0 01.09-.02c.033 0 .066.02.1.06a.47.47 0 01.09.2c.026.08.076.157.15.23a.666.666 0 00.28.18c.093.02.213.03.36.03.18 0 .323-.02.43-.06.106-.04.203-.14.29-.3.08-.16.216-.24.41-.24.033 0 .073.014.12.04l.13.05c.08.033.12.123.12.27a.598.598 0 01-.05.25 1.057 1.057 0 01-.7.58 2.43 2.43 0 01-.67.1z" fill="#074F9F"/><path d="M49.867 18.14L55.13 4.112c.239-.264.239-.641.05-.93-.188-.302-.565-.453-.992-.453H2.324V.893c0-.49-.527-.893-1.18-.893C.476 0 0 .415 0 .893V53.55c0 .49.528.894 1.143.894.616 0 1.144-.416 1.144-.894V33.587h51.852c.427 0 .804-.189.992-.49.188-.303.188-.642-.05-.932L49.867 18.14z" fill="#4683C6"/><path d="M2.325 31.751V4.529h50.57l-4.624 13.133c-.238.302-.238.68 0 .969l4.574 13.133H2.325v-.013z" fill="#fff"/><path fill-rule="evenodd" clip-rule="evenodd" d="M12.792 7.245c.465.038.904.227 1.306.466.264.113.49.276.704.478-.176.251-.415.465-.653.654 1.093.276 2.198-.025 3.291-.164.767-.1 1.558.113 2.224.49.327.177.54.479.817.718.289.251.515.578.854.78.364.201.729.415 1.143.465.038-.402-.125-.83.026-1.22.138.013.301 0 .414.088.453.415 1.018.78 1.181 1.409-.176.1-.364.176-.552.239.364.1.728.163 1.105.163.126.39-.088.755-.377.994-.314-.302-.666-.591-.992-.893.075.226.1.465.062.704a2.25 2.25 0 01-1.595-.742c-.138-.213.088-.415.238-.54-.44-.139-.879-.328-1.23-.642.024.126.037.252.075.377.125.113.276.176.402.302.238.34.063.88-.327 1.032-.176.1-.352-.013-.503-.088-.44.54-1.093.83-1.759.98.352.315.742.592 1.119.869.39.277.716.717 1.231.717.188.037.44-.063.578.1-.05.038-.15.126-.201.164.138.138.276.302.176.516 0 .239-.264.251-.44.176-.352-.088-.553-.415-.804-.654-.415-.44-.917-.793-1.432-1.095.301 1.082.54 2.19.88 3.258-.416.114-.83.24-1.257.34.138.68.339 1.359.427 2.05.352.063.729.101 1.03.302.113.088.264.315.076.403-.39.15-.817.113-1.22.113-.25.013-.464-.214-.464-.465 0-.793-.201-1.573-.327-2.353l-.88-.037c-.125.641-.313 1.27-.426 1.912-.05.213.062.415.037.616a.353.353 0 01-.351.29c-.402.012-.817.05-1.22 0-.225-.038-.376-.403-.15-.542.34-.176.741-.2 1.106-.289.1-.704.314-1.384.49-2.076-.603-.176-1.156-.465-1.71-.754.403-1.17.868-2.315 1.232-3.497-.49-.189-1.005-.378-1.382-.755-.251-.24-.44-.528-.615-.818-.566.503-1.244.856-1.935 1.158.063.39.113.78.176 1.17-.352.163-.73.2-1.094.289.164.591.34 1.195.49 1.786.063.138-.075.214-.163.29.025.49.113.968.176 1.459-.213.05-.427.1-.628.163.088.566.176 1.132.213 1.698.264-.012.528-.063.805-.05.25.038.49.252.552.503-.05.252-.314.378-.54.403-.34.05-.69.037-1.018-.088-.276-.114-.351-.44-.377-.717-.062-.592-.05-1.195-.075-1.8l-.603.076a3.014 3.014 0 00-.163-.742c-.113.277-.126.591-.164.88-.2.026-.414.064-.615.101-.025.68.075 1.359 0 2.026-.302.364-.83.314-1.257.302-.226-.026-.578-.076-.565-.378-.013-.126.1-.176.201-.201.377-.113.754-.151 1.143-.189.025-.516.076-1.031.1-1.535l-.577.038c-.05-.39-.025-.805-.088-1.195-.05-.012-.15-.05-.201-.075.012-.604.05-1.195.075-1.8-.138.101-.276.24-.452.24-.251-.038-.377-.277-.54-.44-.277.251-.553.503-.83.742-.163.138-.213.365-.402.478-.012-.063-.037-.189-.037-.264-.264-.013-.54 0-.804-.063v-.063c.276-.164.527-.428.892-.378.351-.213.628-.54.904-.842-.138-.277 0-.567.226-.743.29-.251.616-.478.968-.629-.478-.251-.98-.54-1.27-1.006-.213.038-.476.126-.665-.013-.301-.2-.327-.641-.176-.956.1-.2.314-.301.503-.39.163-.666.69-1.182 1.294-1.471a1.143 1.143 0 01-.264-.227c.15.013.314.088.477.038-.012-.138-.15-.214-.213-.327.2-.025.414.013.615.05a3.208 3.208 0 00-.289-.54c.227.138.415.314.591.503.05-.089.1-.164.15-.252.038.1.076.189.114.29.163-.127.301-.277.427-.428a1.232 1.232 0 01-.176.465c.679-.025 1.395 0 1.998.327.314.164.578.415.816.68.264-.038.578.05.704.314.251.402.013 1.044-.49 1.07-.126.39-.327.766-.603 1.08.201-.075.415-.213.64-.112.591-.252 1.17-.541 1.634-.994.163-.164.251-.39.465-.478.138-.05.264.075.314.189.314.817 1.005 1.522 1.86 1.76-.428-.301-.83-.666-1.056-1.144-.15-.315-.176-.68-.163-1.019-.201-.214-.515-.465-.39-.805.076-.377.49-.516.83-.478.025-.038.075-.1.1-.138a3.645 3.645 0 01-1.52-.126c.063.214.113.428.163.641-.628.063-1.344.088-1.885-.302.139-.289.352-.528.604-.73-.327.039-.641.051-.968.089.088-.34.201-.68.29-1.019.3.189.602.39.904.591-.239-.44-.603-.817-.515-1.283zm.465.478c.012.076.025.139.05.214.15.214.264.478.515.591l.163-.126c.05-.025.138-.075.176-.1-.251-.264-.59-.415-.88-.642-.012-.201-.213.088-.024.063zm-.013 1.384l-.377.264-.038.013c.063.1.264.176.377.1h.1c.177.063.365.038.541.025-.1-.15-.188-.314-.289-.465-.1.013-.201.038-.314.063zm3.493.566c-.189-.038-.34-.164-.49-.277-.578.415-.83 1.183-.742 1.862.088.553.528.93.955 1.245.566.415 1.307.49 1.973.378.653-.088 1.344-.302 1.746-.856.365-.415.352-1.006.214-1.51-.54-.2-1.169-.125-1.671-.427-.314-.176-.553-.44-.754-.73-.377.214-.791.403-1.231.315zm-7.438-.201a1.8 1.8 0 01.025.239c-.138-.063-.264-.139-.402-.189.012.126.038.252.05.377a3.037 3.037 0 00-.452-.34c-.013.202-.038.403-.138.58-.063-.139-.113-.277-.164-.416a1.36 1.36 0 01-.527.365l.1-.239c-.34.201-.666.44-.917.742-.251.29-.302.73-.163 1.082.176.49.515.956 1.005 1.17.804.34 1.746.365 2.538-.025.64-.24 1.143-.78 1.394-1.41.189-.54-.063-1.194-.553-1.483-.527-.353-1.18-.453-1.796-.453zm5.691.453c-.1.188-.025.427.139.566.113-.252.226-.491.314-.755-.151.038-.365.025-.453.189zm7.803.465c.025.15.05.29.088.44l.037.352c.164.088.352.101.528.088v-.075c.05 0 .163-.013.213-.013l-.188-.264c-.163-.239-.427-.39-.678-.528zm-10.818.113c.038.201.05.415.088.63.163.1.239-.177.239-.303 0-.188-.201-.251-.327-.327zM6.02 11.988c.05.163.226.188.364.163a4.125 4.125 0 01-.176-.78c-.15.164-.34.39-.188.617zm14.85-.617a3.513 3.513 0 01-.289.793c.277.075.49-.164.54-.403.013-.176-.138-.29-.25-.39zm1.219.44c.251.265.603.403.942.491l-.075-.226c-.05-.114-.1-.214-.15-.328-.076-.075-.139-.176-.24-.213-.188.025-.339.163-.477.276zm-10.541.982c-.151.037-.29.088-.44.125v.038c-.352-.05-.653.164-.955.302-.126.038-.239.076-.364.113l.012.063c-.075 0-.238.013-.314.013v.063c-.188 0-.364.012-.553.012l.013.063c-.214 0-.44-.025-.653 0-.453.189-.892.428-1.244.767-.038.403.251.994.729.881.226-.088.301-.315.39-.516v.503l.05.013c-.013.54.012 1.07-.013 1.61a.741.741 0 00.176-.075l-.013-.038a3.61 3.61 0 00.352-.063c.126-.025.264-.05.39-.088l.427-.038.012-.063c.189 0 .364-.012.553-.012l-.013-.063c.201 0 .402.013.59-.063.089 0 .19-.013.29-.013l-.013-.063c.176 0 .402-.025.49-.2-.063-.19-.15-.366-.226-.554-.05-.214-.1-.415-.163-.63l-.038-.515h-.213c0-.05-.013-.164-.013-.226.264.012.54.025.804-.063.176-.025.34-.05.503-.088-.063-.114-.126-.24-.189-.365l-.075-.227c-.05-.239-.1-.478-.1-.73a1.612 1.612 0 01-.19.127zm5.138.314c-.326.617-.464 1.308-.69 1.963-.176.566-.465 1.094-.654 1.672.503.252 1.068.428 1.62.554.755.176 1.534.038 2.25-.189-.264-1.27-.54-2.528-.93-3.76-.54.087-1.08-.026-1.596-.24zm-8.254 3.988c0 .365-.013.742-.05 1.107.39-.05.779-.139 1.18-.176-.037-.277-.075-.541-.1-.818.264-.05.528-.075.792-.063.012.227.05.453.138.654a6.913 6.913 0 011.13-.126c-.05-.377-.125-.754-.175-1.132-.98.176-1.935.39-2.915.554zm19.31-8.14c-.037-.163.114-.301.277-.276h6.609c.113-.012.188.063.276.113.1-.075.214-.138.34-.113h3.505c.138-.012.264.05.314.189.39 1.17.804 2.34 1.395 3.421a26.249 26.249 0 001.432-3.421.288.288 0 01.276-.189h3.267c.163-.025.34.1.302.29-.202 3.912-.352 7.836-.39 11.761.013.151-.05.34-.226.34-.754.012-1.495 0-2.249 0a.362.362 0 01-.327-.139c-.037-.93-.012-1.874-.05-2.805l-.377.566v.05a80.08 80.08 0 01-1.294 2.252c-.113.151-.201.416-.44.353-.15-.101-.238-.277-.351-.428-.465-.768-.955-1.51-1.42-2.277a13.48 13.48 0 00-.352-.553c-.063.88.013 1.76-.088 2.641.05.038.138.1.188.126a.365.365 0 01-.113-.025c-.088.075-.138.226-.276.214-.754.012-1.508 0-2.261 0-.151.025-.327-.088-.302-.265-.126-3.9-.163-7.799-.515-11.686.012.49-.05.994-.05 1.485-.076 1.132-.114 2.276-.201 3.409-.704.012-1.383-.164-2.086-.126 0 .667-.075 1.32-.075 1.987.653.013 1.306-.1 1.96-.113.025.088.037.176.062.264-.125.73-.238 1.46-.339 2.202 0 .163-.113.352-.301.302-.453-.05-.905-.177-1.357-.164-.026.025-.088.063-.126.088-.063.78 0 1.56-.05 2.34 0 .138-.088.29-.252.277-1.118.012-2.223 0-3.342 0-.15-.013-.314.025-.44-.076-.1-.277-.062-.591-.1-.893-.012-1.17-.088-2.352-.1-3.522-.076-1.107-.05-2.214-.126-3.321-.05-1.422-.176-2.843-.226-4.277zm.528.202c0 .83.088 1.66.114 2.49.088.63.062 1.271.088 1.9.075.931.012 1.875.113 2.793.012 1.396.1 2.793.1 4.189.503.063 1.005.025 1.508.038.553-.013 1.105.025 1.658-.038-.012-.742.013-1.484.013-2.24.012-.15-.025-.39.176-.414.553-.063 1.105.05 1.67.088.051-.44.026-.906.227-1.309l-.063.038.038-.415c-.59.025-1.194.126-1.784.063-.227-.025-.189-.302-.176-.465.113-.818.025-1.636.15-2.453.692-.114 1.395-.013 2.086.063.038-1.384.151-2.768.214-4.152.025-.138-.025-.188-.163-.176-1.986 0-3.983.013-5.968 0zm7.011.088c.1.05.164.126.151.24.075 1.635.214 3.27.251 4.918.088 1.031.038 2.075.113 3.107.026 1.019.026 2.038.1 3.057a40.854 40.854 0 011.785 0c.025-1.12.075-2.252.075-3.372-.037-.251.327-.34.44-.138.741 1.145 1.432 2.327 2.186 3.46.025 0 .076-.013.1-.013.667-1.132 1.307-2.277 1.96-3.41.064-.125.19-.238.34-.175.189.05.163.276.176.427 0 1.057.038 2.114.025 3.183.616.063 1.231 0 1.847.038.063-2.365.088-4.743.201-7.108.063-1.434.113-2.88.188-4.314h-2.914c-.415 1.245-.98 2.427-1.533 3.61-.063.163-.189.277-.327.377-.075-.075-.176-.138-.239-.226a22.818 22.818 0 01-1.558-3.761c-.954-.013-1.91 0-2.864-.013-.176.025-.34.075-.503.113zM9.99 10.302c-.226.264.2.742.44.428.213-.29-.176-.642-.44-.428zm7.098.088c-.15.163-.075.553.189.503.163-.063.214-.327.1-.465-.05-.1-.226-.164-.288-.038zm-8.882.226a.329.329 0 00-.038.44c.075.164.352.202.427 0 .176-.213-.15-.578-.39-.44zm10.68.088c-.139.139-.013.453.188.428.175 0 .238-.239.163-.365-.05-.138-.264-.2-.352-.063zM10.24 11.8a2.828 2.828 0 01-2.387.025c.427.402.967.78 1.583.717.729-.063 1.32-.642 1.558-1.308-.264.176-.465.44-.754.566zm6.207-.503c.2.39.427.805.791 1.056.704.478 1.696.139 2.149-.528-.302.088-.566.277-.88.29-.766.062-1.52-.265-2.06-.818zm7.237 6.579c-.754.176-1.294.98-1.156 1.748.1.768.829 1.359 1.595 1.321.855-.012 1.596-.843 1.483-1.698-.05-.931-1.03-1.623-1.922-1.371zm-.73.805c-.313.515-.188 1.233.252 1.622.126.05.264.05.39.076.226-.113.465-.214.64-.403.227-.226.365-.528.465-.817-.213-.302-.012-.705-.176-1.02-.565-.213-1.268 0-1.57.542zm2.074.063c-.088.679-.528 1.27-1.118 1.597-.1.025-.189.063-.29.088.227.088.453.1.692.088v-.063c.163 0 .301-.075.44-.138.477-.365.578-1.057.276-1.572z" fill="#020102"/><path fill-rule="evenodd" clip-rule="evenodd" d="M13.255 7.724c-.2.025 0-.264.026-.05l-.026.05zm25.807 1.132c.126.089.251.19.289.34.327.931.64 1.862 1.08 2.742.44-.83.792-1.723 1.094-2.604.05-.2.163-.39.364-.465a25.545 25.545 0 01-1.432 3.422c-.59-1.095-1.005-2.265-1.395-3.435zm-3.782.39c.1.05.163.126.151.24.075 1.635.214 3.27.251 4.918.088 1.031.038 2.076.113 3.107.026 1.019.026 2.038.1 3.057a40.854 40.854 0 011.785 0c.025-1.12.075-2.252.075-3.371-.037-.252.327-.34.44-.139.741 1.145 1.432 2.327 2.186 3.46.025 0 .076-.013.1-.013.667-1.132 1.307-2.277 1.96-3.41.063-.125.19-.238.34-.175.188.05.163.277.176.427 0 1.057.038 2.114.025 3.183.616.063 1.231 0 1.847.038.063-2.365.088-4.743.2-7.108.064-1.434.114-2.88.19-4.314h-2.916c-.414 1.245-.98 2.428-1.532 3.61-.063.164-.189.277-.327.377-.075-.075-.176-.138-.239-.226a22.809 22.809 0 01-1.558-3.761c-.954-.013-1.91 0-2.864-.013-.176.025-.34.076-.503.113zm2.89 11.485c.1-.88.025-1.76.088-2.641.125.176.251.364.352.553-.088.617-.025 1.233-.076 1.85 0 .15-.113.264-.188.377-.038-.038-.138-.1-.176-.139zm3.932-2.05c.126-.189.24-.39.377-.566.038.93.013 1.874.05 2.805-.138-.075-.3-.138-.339-.302-.113-.616.038-1.27-.1-1.874l.012-.063z" fill="#0076CE"/><path fill-rule="evenodd" clip-rule="evenodd" d="M28.27 9.157c1.997.013 3.982 0 5.98 0 .138-.012.189.038.163.176-.062 1.384-.175 2.768-.213 4.151-.691-.075-1.395-.176-2.086-.063-.125.818-.037 1.636-.15 2.454-.013.163-.05.44.175.465.591.063 1.194-.038 1.784-.063l-.037.415.063-.038c-.201.403-.189.868-.227 1.309-.552-.038-1.105-.151-1.67-.088-.214.025-.176.251-.176.415 0 .742-.026 1.484-.013 2.239-.553.063-1.106.025-1.658.038-.503-.013-1.005.025-1.508-.038 0-1.396-.1-2.793-.1-4.189-.101-.93-.038-1.862-.114-2.793-.037-.629-.012-1.27-.088-1.9-.037-.83-.125-1.66-.125-2.49zm-15.441.227l.037-.013c.113 0 .214.013.314.025 0 .025.013.063.025.088-.113.076-.314 0-.377-.1zm3.857 3.723c.502.214 1.043.34 1.595.227.39 1.232.679 2.503.93 3.76-.729.227-1.508.365-2.249.19-.553-.126-1.106-.29-1.62-.554.175-.566.464-1.095.653-1.673.226-.654.364-1.334.69-1.95zm15.855.767c0 .667-.075 1.321-.075 1.988.653.012 1.307-.1 1.96-.113.025.088.038.176.063.264.025-.252-.126-.541-.402-.541-.49.013-.968.088-1.458.088.013-.465.038-.93.05-1.396.503-.013.993.075 1.483.138.226.038.39-.126.478-.302-.704.025-1.395-.15-2.099-.126zm-24.11 3.22c.968-.163 1.935-.39 2.902-.553.063.378.126.755.176 1.132-.377.013-.754.05-1.13.126a1.459 1.459 0 01-.139-.654 3.369 3.369 0 00-.791.063c.025.277.063.54.1.818-.39.037-.779.125-1.18.176.05-.365.075-.73.062-1.107zm14.524 1.586c.314-.541 1.018-.755 1.583-.554.176.315-.025.73.176 1.02-.113.301-.251.59-.465.817-.176.176-.427.277-.64.402-.139-.025-.264-.025-.39-.075a1.255 1.255 0 01-.264-1.61zm9.41-.24c-.062.78 0 1.56-.05 2.34.076-.138.164-.289.151-.452.013-.654.038-1.309.025-1.963-.037.013-.1.063-.125.076zm-17.3 4.73c.452-.075.993-.037 1.332.315.2.214.012.616-.277.579-.326-.05-.64-.214-.967-.1-.39.137-.566.565-.59.955-.038.44.125.969.59 1.132.364.139.716-.063 1.068-.126.226-.012.39.265.301.466-.075.201-.276.327-.464.39-.679.214-1.508.063-1.96-.516-.604-.792-.528-2.088.25-2.742.19-.189.44-.302.717-.352zm16.81.491c.089-.251.277-.503.566-.516.276-.037.54.151.64.416.302.83.591 1.66.88 2.49.05.164.138.352.063.529-.138.251-.553.276-.703.025-.114-.189-.164-.415-.227-.63h-1.269c-.063.215-.113.428-.226.63-.138.239-.54.226-.653-.025-.076-.19 0-.403.063-.592.289-.78.578-1.56.867-2.327zm.19 1.598h.803c-.126-.403-.251-.818-.39-1.22-.163.402-.276.817-.414 1.22zm6.507-1.585c-.012-.214.076-.503.327-.529a.375.375 0 01.465.365c.05.604 0 1.22.025 1.824.54-.641 1.018-1.333 1.533-1.975.125-.163.364-.277.565-.176.176.088.201.315.201.49v2.416c0 .201 0 .415-.126.579-.163.176-.49.138-.615-.076-.063-.138-.063-.29-.076-.428-.012-.528.013-1.056-.012-1.572-.515.642-1.005 1.32-1.508 1.962-.163.214-.527.328-.716.088-.088-.15-.075-.327-.075-.49.012-.818 0-1.648.012-2.478zm-33.093.302c.012-.428.414-.768.829-.743.465 0 .942-.025 1.42.013.226.038.301.302.301.503.013.78 0 1.56.013 2.34.138.038.351.05.39.226.037.315.024.63 0 .944-.076.214-.365.239-.541.15-.214-.138-.138-.414-.15-.628H5.68c-.013.163.012.34-.038.503-.126.277-.653.226-.679-.1-.012-.34-.05-.693.076-1.02.113-.025.226-.05.326-.1.076-.1.076-.24.101-.365.025-.579-.013-1.145.013-1.723zm.804-.013a.467.467 0 00-.076.088c-.05.68.076 1.384-.113 2.05h1.13v-2.15c-.313 0-.64-.026-.941.012zm2.663-.214c-.012-.214.088-.465.34-.503a8.39 8.39 0 011.382 0c.188.013.276.189.364.34-.063.126-.1.289-.251.34-.327.113-.679.037-1.018.05v.641c.314.013.628-.05.93.05.276.101.264.541-.013.642-.301.088-.616.05-.917.05v.667c.34.013.69-.038 1.018.05.213.063.314.34.175.529-.15.214-.44.163-.665.188-.365-.012-.754.038-1.119-.05-.213-.063-.226-.314-.226-.49 0-.843-.012-1.674 0-2.504zm2.438-.465c-.264.088-.277.528-.013.629.214.075.452.063.678.075v2.176c0 .177 0 .378.126.529.163.214.553.15.64-.1.114-.416.039-.856.051-1.284.013-.44.025-.88 0-1.308.239-.013.49.012.704-.088.264-.139.213-.566-.076-.63-.377-.087-.779-.024-1.168-.05-.327.013-.653-.05-.942.05zm5.616.025c.163-.214.578-.151.64.126.088.352.026.717.05 1.082.403-.39.78-.818 1.182-1.208.176-.189.502-.164.628.063.126.15.013.34-.1.453-.315.34-.666.641-.98.98.389.479.829.894 1.193 1.385.163.188.063.503-.163.578-.189.088-.39-.063-.515-.201l-1.131-1.32c-.302.402.038.98-.239 1.395-.126.177-.402.177-.553.05-.138-.15-.15-.377-.15-.565v-2.252c.012-.176.012-.402.138-.566zm3.882-.063c-.465.113-.842.466-1.03.906-.364.843-.163 2.025.69 2.49a1.856 1.856 0 001.76-.05c.515-.314.779-.918.779-1.51.025-.528-.138-1.094-.54-1.459-.428-.427-1.094-.515-1.659-.377zm.15.755c.34-.151.817-.063 1.006.276.264.466.264 1.095-.063 1.535-.34.415-1.093.327-1.306-.163-.24-.529-.189-1.334.364-1.648zm2.501-.252c-.025-.226.113-.49.364-.503.415-.025.83-.025 1.244-.013.189 0 .327.126.44.265-.025.15-.038.364-.226.415-.327.113-.691.038-1.03.063v.629c.301.012.628-.038.917.05.264.075.301.49.05.616-.302.151-.653.063-.98.076v.666c.34.013.704-.05 1.03.05.314.089.29.592-.025.655-.477.075-.98.05-1.47.025-.226 0-.364-.239-.34-.44.026-.843.026-1.698.026-2.554zm4.837.076c.013.855-.025 1.723.013 2.578 0 .365.502.529.703.227.151-.315.076-.692.1-1.032.453 0 .968.063 1.358-.239.452-.327.515-.968.339-1.471-.163-.44-.64-.705-1.106-.705-.39 0-.779-.05-1.155.038-.24.088-.252.39-.252.604zm.817.113c.2 0 .402-.013.603.025.39.088.415.73.038.855-.214.063-.427.038-.641.038v-.918zm5.817-.113c.063-.365.415-.642.779-.642a27.5 27.5 0 011.407 0c.239 0 .365.227.365.44.012.793 0 1.598 0 2.39.15.063.389.063.414.265.038.276.025.553.013.843-.013.34-.553.364-.679.088-.05-.164-.037-.328-.05-.491h-2.06c0 .15 0 .302-.026.453-.088.302-.615.302-.678-.013a3.303 3.303 0 010-.93c.063-.227.452-.127.452-.39.1-.655-.025-1.334.063-2.013zm.729.1c-.1.705.063 1.434-.126 2.126h1.144v-2.138a9.19 9.19 0 00-1.018.012zm7.676-.717a2 2 0 011.244.063c.515.214.867.73.955 1.283.076.554.013 1.158-.34 1.61-.64.83-2.085.818-2.7-.037-.352-.478-.415-1.107-.29-1.673.114-.579.566-1.095 1.131-1.246zm.151.768c-.264.125-.402.427-.452.717-.075.2.226.415 0 .578.063.227.138.466.34.604.364.277.992.176 1.193-.264.226-.478.213-1.145-.176-1.535a.82.82 0 00-.905-.1z" fill="#E50023"/></svg>