<svg width="189" height="127" fill="none" xmlns="http://www.w3.org/2000/svg"><path d="M103.688 37.974L114.634 8.61c.497-.553.497-1.343.105-1.948-.392-.633-1.176-.949-2.064-.949H4.833V1.87C4.833.843 3.736 0 2.377 0 .993 0 0 .869 0 1.87v110.234c0 1.027 1.097 1.87 2.377 1.87 1.28 0 2.378-.869 2.378-1.87V70.312H112.57c.889 0 1.672-.395 2.064-1.027.392-.632.392-1.343-.104-1.949l-10.842-29.362z" fill="#4683C6"/><path d="M4.833 66.467V9.48h105.151l-9.614 27.493c-.496.632-.496 1.422 0 2.028l9.51 27.493H4.833v-.027z" fill="#fff"/><path fill-rule="evenodd" clip-rule="evenodd" d="M26.597 15.169c.966.079 1.88.474 2.716.974.55.237 1.02.58 1.463 1.001-.365.527-.862.974-1.358 1.37 2.273.579 4.572-.053 6.845-.343 1.593-.21 3.24.237 4.624 1.027.679.369 1.123 1 1.698 1.501.6.527 1.07 1.211 1.776 1.633.758.421 1.516.869 2.378.974.078-.843-.262-1.738.052-2.554.287.026.627 0 .862.184.94.87 2.116 1.633 2.456 2.95-.366.21-.758.368-1.15.5.758.21 1.515.342 2.3.342.26.817-.184 1.58-.785 2.08-.653-.631-1.384-1.237-2.063-1.87.156.475.209.975.13 1.476-1.254-.027-2.508-.632-3.318-1.554-.287-.448.183-.87.497-1.133-.915-.29-1.829-.684-2.56-1.343.052.264.078.527.156.79.261.238.575.37.836.633.497.71.13 1.843-.679 2.159-.366.21-.731-.026-1.045-.184-.914 1.132-2.273 1.738-3.657 2.054.731.658 1.541 1.237 2.325 1.817.81.579 1.489 1.5 2.56 1.5.392.08.914-.131 1.202.211-.105.08-.314.264-.418.343.287.29.574.632.365 1.08 0 .5-.548.526-.914.368-.731-.184-1.15-.869-1.672-1.37-.862-.921-1.907-1.658-2.978-2.29.627 2.264 1.123 4.582 1.829 6.82-.862.237-1.725.5-2.613.711.288 1.422.706 2.844.888 4.293.732.131 1.516.21 2.143.632.235.184.548.658.156.842-.81.316-1.698.237-2.534.237-.522.027-.966-.447-.966-.974 0-1.66-.418-3.292-.68-4.924l-1.828-.08c-.262 1.344-.653 2.66-.889 4.003-.104.448.131.87.079 1.29a.735.735 0 01-.732.606c-.836.027-1.698.106-2.534 0-.47-.079-.784-.842-.313-1.132.705-.369 1.541-.421 2.299-.606.209-1.474.653-2.896 1.019-4.345-1.254-.369-2.404-.974-3.553-1.58.836-2.449 1.802-4.845 2.56-7.32-1.019-.396-2.09-.79-2.874-1.58-.522-.501-.914-1.107-1.28-1.713-1.176 1.054-2.586 1.791-4.023 2.423.13.817.235 1.633.366 2.45-.732.342-1.516.42-2.273.605.34 1.238.705 2.502 1.019 3.74.13.29-.157.447-.34.605.052 1.027.235 2.028.366 3.055-.444.105-.889.21-1.306.342.182 1.185.365 2.37.444 3.555.548-.026 1.097-.131 1.672-.105.522.079 1.018.527 1.15 1.053-.105.527-.654.79-1.124.843-.706.105-1.437.079-2.116-.184-.575-.237-.732-.922-.784-1.501-.13-1.238-.105-2.502-.157-3.766l-1.254.158a6.349 6.349 0 00-.34-1.554c-.235.58-.26 1.238-.339 1.844a21.54 21.54 0 00-1.28.21c-.052 1.422.157 2.844 0 4.24-.627.764-1.724.658-2.613.632-.47-.053-1.201-.158-1.175-.79-.026-.263.209-.369.418-.421.784-.237 1.567-.316 2.377-.395.052-1.08.157-2.16.21-3.213-.419.026-.81.053-1.203.079-.104-.816-.052-1.685-.183-2.502a2.715 2.715 0 01-.417-.158c.026-1.264.104-2.502.156-3.766-.287.211-.574.5-.94.5-.523-.078-.784-.579-1.123-.92-.575.526-1.15 1.052-1.725 1.553-.34.29-.444.763-.836 1a3.513 3.513 0 01-.078-.553c-.549-.026-1.123 0-1.672-.131v-.132c.575-.342 1.097-.895 1.855-.79.731-.448 1.306-1.132 1.88-1.764-.287-.58 0-1.185.471-1.554.6-.527 1.28-1 2.012-1.317-.993-.526-2.038-1.132-2.639-2.106-.444.079-.993.263-1.385-.027-.627-.421-.679-1.343-.365-2.001.209-.421.653-.632 1.045-.816.34-1.396 1.436-2.476 2.69-3.082a2.384 2.384 0 01-.548-.474c.313.027.653.185.993.08-.027-.29-.314-.448-.445-.685.418-.053.862.026 1.28.105a6.728 6.728 0 00-.6-1.132c.47.29.862.658 1.227 1.053.105-.184.21-.342.314-.527.078.211.157.395.235.606.34-.263.627-.58.888-.895a2.59 2.59 0 01-.365.974c1.41-.053 2.9 0 4.153.685.654.342 1.202.869 1.698 1.422.55-.08 1.202.105 1.463.658.523.843.027 2.186-1.018 2.238a6.432 6.432 0 01-1.254 2.265c.418-.158.862-.447 1.332-.237 1.228-.526 2.43-1.132 3.396-2.08.34-.343.523-.817.967-1 .287-.106.548.157.653.394.653 1.712 2.09 3.187 3.866 3.687-.888-.632-1.724-1.396-2.194-2.396-.314-.659-.366-1.422-.34-2.133-.418-.448-1.07-.975-.81-1.686.157-.79 1.02-1.08 1.725-1 .052-.08.156-.211.209-.29a7.53 7.53 0 01-3.161-.264c.13.448.235.896.34 1.343-1.307.132-2.796.185-3.92-.632.288-.605.732-1.106 1.255-1.527-.68.079-1.333.105-2.012.184.183-.71.418-1.422.6-2.133.628.395 1.255.817 1.882 1.238-.497-.922-1.254-1.712-1.071-2.686zm.966 1c.026.159.053.29.105.448.313.448.548 1.001 1.07 1.238.105-.079.236-.184.34-.263.105-.053.288-.158.366-.211-.522-.553-1.228-.869-1.828-1.343-.027-.421-.445.184-.053.132zm-.026 2.897c-.261.185-.522.37-.784.553l-.078.027c.13.21.549.368.784.21h.209c.366.132.757.08 1.123.053-.209-.316-.392-.658-.6-.974-.21.026-.419.079-.654.131zm7.263 1.185c-.392-.079-.706-.342-1.02-.579-1.2.87-1.723 2.476-1.54 3.898.182 1.158 1.097 1.948 1.985 2.607 1.176.869 2.717 1.027 4.102.79 1.358-.185 2.795-.632 3.63-1.791.758-.87.732-2.107.445-3.16-1.123-.422-2.43-.263-3.475-.896-.653-.368-1.15-.921-1.567-1.527-.784.448-1.646.843-2.56.658zm-15.466-.42c.026.13.052.394.052.5-.287-.132-.548-.29-.836-.396.026.264.079.527.105.79a6.347 6.347 0 00-.94-.71c-.027.42-.08.842-.288 1.21-.13-.289-.235-.579-.34-.868a2.86 2.86 0 01-1.097.763l.21-.5c-.706.421-1.385.922-1.908 1.554-.522.605-.627 1.527-.34 2.265.366 1.027 1.072 2 2.09 2.449 1.672.71 3.632.763 5.277-.053 1.333-.5 2.378-1.633 2.9-2.95.392-1.132-.13-2.501-1.15-3.107-1.096-.737-2.455-.948-3.735-.948zm11.834.947c-.209.395-.052.896.288 1.185.235-.527.47-1.027.653-1.58-.314.08-.758.053-.94.395zm16.224.975c.052.316.104.605.183.921l.078.738c.34.184.731.21 1.097.184v-.158c.105 0 .34-.026.444-.026a77.65 77.65 0 00-.392-.553c-.34-.5-.888-.817-1.41-1.107zm-22.494.236c.079.422.105.87.183 1.317.34.21.497-.369.497-.632 0-.395-.418-.526-.68-.684zm-12.383 3.108c.105.342.47.395.758.342-.183-.526-.287-1.08-.366-1.633-.313.343-.705.817-.392 1.29zm30.88-1.29a7.443 7.443 0 01-.601 1.659c.575.158 1.019-.343 1.123-.843.026-.369-.287-.606-.522-.817zm2.534.921c.522.553 1.254.843 1.96 1.027l-.158-.474c-.104-.237-.209-.447-.313-.684-.157-.159-.288-.37-.496-.448-.392.052-.706.342-.993.58zM24.01 26.782c-.313.08-.6.185-.914.264v.079c-.732-.106-1.359.342-1.986.632-.26.079-.496.158-.757.237l.026.131c-.157 0-.496.027-.653.027v.131c-.392 0-.758.027-1.15.027l.026.131c-.444 0-.914-.052-1.358 0-.94.395-1.855.896-2.586 1.607-.079.842.522 2.08 1.515 1.843.47-.184.627-.658.81-1.08v1.054l.104.026c-.026 1.132.026 2.238-.026 3.37.105-.026.288-.105.366-.157l-.026-.08c.235-.026.496-.078.731-.13.261-.053.549-.106.81-.185.288-.027.601-.053.888-.08l.027-.13c.391 0 .757-.027 1.149-.027l-.026-.132c.418 0 .836.026 1.228-.132.183 0 .392-.026.6-.026l-.026-.132c.366 0 .836-.052 1.02-.42-.131-.396-.314-.765-.471-1.16a24.392 24.392 0 00-.34-1.316l-.078-1.08h-.444c0-.105-.026-.342-.026-.474.548.026 1.123.053 1.672-.132a12.07 12.07 0 001.045-.184c-.13-.237-.262-.5-.392-.764l-.157-.474c-.104-.5-.209-1-.209-1.527-.13.105-.261.184-.392.263zm10.685.659c-.679 1.29-.966 2.738-1.437 4.108-.365 1.185-.966 2.29-1.358 3.502 1.045.527 2.22.895 3.37 1.159 1.567.368 3.187.079 4.676-.395-.548-2.66-1.123-5.293-1.933-7.874-1.123.184-2.247-.053-3.318-.5zm-17.164 8.348c0 .763-.026 1.553-.104 2.317.81-.105 1.62-.29 2.456-.369-.079-.58-.157-1.132-.21-1.712a6.952 6.952 0 011.647-.131c.026.474.104.948.287 1.37A14.281 14.281 0 0123.958 37c-.104-.79-.261-1.58-.366-2.37-2.037.368-4.023.816-6.06 1.158zM57.685 18.75c-.079-.342.235-.632.575-.579H72c.235-.026.392.132.575.237.209-.158.444-.29.705-.237h7.289c.287-.026.548.105.653.395.81 2.45 1.672 4.898 2.9 7.163 1.15-2.317 2.168-4.714 2.978-7.163a.598.598 0 01.575-.395h6.792c.34-.053.705.21.627.606-.418 8.19-.731 16.406-.81 24.622.026.316-.104.711-.47.711-1.568.026-3.109 0-4.676 0a.75.75 0 01-.68-.29c-.078-1.948-.026-3.923-.104-5.872l-.784 1.185v.105c-.862 1.58-1.776 3.16-2.69 4.714-.236.316-.419.87-.915.737-.313-.21-.496-.579-.731-.895-.967-1.606-1.986-3.16-2.953-4.766-.235-.395-.47-.764-.731-1.16-.13 1.844.026 3.688-.183 5.531.105.079.287.21.392.263a.76.76 0 01-.235-.052c-.183.158-.288.474-.575.447-1.567.027-3.135 0-4.702 0-.314.053-.68-.184-.627-.553-.262-8.163-.34-16.327-1.071-24.464.026 1.027-.105 2.08-.105 3.108-.157 2.37-.235 4.766-.418 7.136-1.463.026-2.874-.342-4.337-.263 0 1.395-.156 2.765-.156 4.16 1.358.027 2.717-.21 4.075-.237.052.185.079.37.13.553a130.371 130.371 0 00-.705 4.609c0 .342-.235.737-.627.632-.94-.105-1.88-.369-2.821-.342-.052.052-.183.131-.261.184-.13 1.633 0 3.265-.105 4.898 0 .29-.183.606-.522.58-2.325.026-4.624 0-6.95 0-.313-.027-.652.052-.914-.159-.209-.579-.13-1.237-.209-1.87-.026-2.448-.183-4.924-.209-7.373-.156-2.317-.104-4.635-.261-6.952-.105-2.976-.366-5.951-.47-8.954zm1.097.422c0 1.738.183 3.476.235 5.214.183 1.317.13 2.66.183 3.976.157 1.949.026 3.924.235 5.846.026 2.924.21 5.847.21 8.77 1.044.131 2.089.052 3.134.079 1.15-.027 2.299.052 3.449-.08-.027-1.553.026-3.107.026-4.687.026-.316-.053-.816.365-.869 1.15-.132 2.3.105 3.475.184.104-.921.052-1.895.47-2.738l-.13.079.078-.87c-1.228.053-2.482.264-3.71.132-.47-.052-.392-.632-.366-.974.236-1.712.053-3.423.314-5.135 1.437-.237 2.9-.026 4.337.132.078-2.897.313-5.794.444-8.69.052-.29-.053-.396-.34-.37-4.128 0-8.281.027-12.409 0zm14.577.184c.21.105.34.263.314.5.157 3.424.444 6.847.522 10.297.183 2.16.079 4.345.236 6.505.052 2.133.052 4.266.209 6.399a86.89 86.89 0 013.71 0c.052-2.344.156-4.714.156-7.058-.078-.527.68-.71.914-.29 1.542 2.397 2.978 4.872 4.546 7.242.052 0 .157-.026.209-.026 1.385-2.37 2.717-4.766 4.075-7.136.131-.264.392-.5.706-.37.392.106.34.58.365.896 0 2.212.079 4.424.053 6.663 1.28.131 2.56 0 3.84.079.13-4.951.183-9.928.418-14.879.13-3.002.235-6.03.392-9.033h-6.061c-.862 2.608-2.038 5.083-3.187 7.558-.13.343-.392.58-.68.79-.156-.158-.365-.29-.496-.474a47.948 47.948 0 01-3.24-7.874c-1.985-.026-3.97 0-5.956-.026-.365.053-.705.158-1.045.237zm-52.588 2.212c-.47.553.418 1.554.914.895.444-.605-.365-1.343-.914-.895zm14.76.184c-.313.343-.157 1.16.392 1.054.34-.132.444-.685.209-.975-.104-.21-.47-.342-.6-.078zm-18.47.475a.692.692 0 00-.078.921c.157.343.731.422.888 0 .366-.447-.313-1.211-.81-.921zm22.206.184c-.287.29-.026.948.392.895.366 0 .496-.5.34-.764-.105-.29-.55-.42-.732-.131zM21.293 24.7c-1.541.765-3.396.765-4.963.053.888.843 2.011 1.633 3.291 1.502 1.516-.132 2.743-1.343 3.24-2.74-.549.37-.967.923-1.568 1.186zM34.2 23.649c.418.817.888 1.686 1.646 2.213 1.463 1 3.526.29 4.467-1.107-.627.185-1.176.58-1.829.606-1.593.132-3.16-.553-4.284-1.712zm15.047 13.773c-1.567.369-2.69 2.054-2.403 3.66.21 1.607 1.724 2.845 3.318 2.766 1.776-.027 3.318-1.765 3.083-3.555-.105-1.95-2.143-3.398-3.998-2.87zm-1.515 1.686c-.653 1.08-.392 2.58.523 3.397.261.105.548.105.81.158.47-.237.966-.448 1.332-.843.47-.474.758-1.106.967-1.712-.444-.632-.026-1.474-.366-2.133-1.176-.447-2.639 0-3.266 1.133zm4.31.131c-.182 1.422-1.096 2.66-2.324 3.345-.21.052-.392.131-.601.184.47.184.94.21 1.437.184v-.131c.34 0 .627-.158.914-.29.993-.764 1.202-2.212.575-3.292z" fill="#020102"/><path fill-rule="evenodd" clip-rule="evenodd" d="M27.562 16.17c-.418.052 0-.553.052-.106l-.052.106zm53.66 2.37c.26.184.522.395.6.71.68 1.95 1.333 3.898 2.247 5.742.914-1.738 1.646-3.608 2.273-5.451.104-.422.34-.817.758-.975-.81 2.476-1.83 4.846-2.979 7.163-1.227-2.291-2.09-4.74-2.9-7.19zm-7.864.816c.209.105.34.263.313.5.157 3.424.445 6.847.523 10.297.183 2.16.078 4.345.235 6.505.052 2.133.052 4.266.21 6.399a86.886 86.886 0 013.709 0c.052-2.344.157-4.714.157-7.058-.079-.526.679-.71.914-.29 1.541 2.397 2.978 4.872 4.546 7.242.052 0 .156-.026.209-.026 1.384-2.37 2.716-4.766 4.075-7.136.13-.264.392-.5.705-.37.392.106.34.58.366.896 0 2.212.079 4.424.052 6.663 1.28.131 2.56 0 3.84.079.131-4.951.183-9.928.419-14.879.13-3.002.235-6.03.391-9.033h-6.06c-.862 2.608-2.038 5.083-3.188 7.558-.13.343-.391.58-.679.79-.156-.158-.365-.29-.496-.474a47.943 47.943 0 01-3.24-7.873c-1.985-.027-3.97 0-5.956-.027-.366.053-.705.158-1.045.237zM79.367 43.4c.209-1.843.052-3.687.183-5.53.26.369.522.764.731 1.159-.183 1.29-.052 2.58-.157 3.87 0 .317-.235.554-.392.79-.078-.078-.287-.21-.365-.289zm8.177-4.292c.26-.395.496-.817.783-1.185.079 1.948.026 3.923.105 5.872-.288-.158-.627-.29-.706-.632-.235-1.29.079-2.66-.209-3.924l.027-.131z" fill="#0076CE"/><path fill-rule="evenodd" clip-rule="evenodd" d="M58.78 19.172c4.154.026 8.282 0 12.436 0 .287-.027.392.079.34.369-.131 2.896-.366 5.793-.445 8.69-1.437-.158-2.9-.369-4.336-.132-.262 1.712-.079 3.424-.314 5.135-.026.343-.104.922.366.975 1.228.131 2.482-.08 3.71-.132l-.079.869.13-.08c-.417.844-.391 1.818-.47 2.74-1.149-.08-2.298-.316-3.474-.185-.444.053-.366.527-.366.87 0 1.553-.052 3.107-.026 4.687-1.15.131-2.299.053-3.448.079-1.045-.026-2.09.052-3.135-.08 0-2.922-.21-5.845-.21-8.768-.208-1.95-.078-3.898-.234-5.847-.079-1.316-.026-2.66-.183-3.976-.079-1.738-.261-3.476-.261-5.214zm-32.106.474l.078-.027c.235 0 .444.027.653.053 0 .053.026.132.052.185-.235.158-.653 0-.783-.211zm8.02 7.795c1.045.447 2.168.71 3.318.474.81 2.58 1.41 5.24 1.933 7.874-1.515.474-3.135.763-4.676.395-1.15-.264-2.3-.606-3.37-1.159.365-1.185.966-2.291 1.358-3.502.47-1.37.758-2.792 1.437-4.082zm32.969 1.606c0 1.396-.157 2.765-.157 4.16 1.359.027 2.717-.21 4.076-.236.052.184.078.369.13.553.052-.527-.261-1.132-.836-1.132-1.019.026-2.011.184-3.03.184.026-.974.078-1.949.104-2.923 1.045-.026 2.064.158 3.083.29.47.078.81-.264.993-.633-1.463.053-2.9-.316-4.363-.263zM17.53 35.79c2.012-.343 4.023-.817 6.035-1.16.13.791.261 1.581.365 2.371-.783.026-1.567.105-2.35.263-.21-.421-.288-.895-.288-1.369a6.946 6.946 0 00-1.646.132c.052.579.13 1.132.21 1.711-.81.08-1.62.264-2.457.369.105-.764.157-1.527.131-2.317zm30.2 3.318c.653-1.133 2.116-1.58 3.292-1.159.365.658-.053 1.527.365 2.133-.235.632-.522 1.238-.966 1.712-.366.368-.889.58-1.333.843-.287-.053-.548-.053-.81-.159-.966-.79-1.227-2.29-.548-3.37zm19.567-.5c-.13 1.632 0 3.265-.104 4.898.156-.29.34-.606.313-.949.026-1.369.079-2.738.052-4.108-.078.027-.209.132-.26.158zm-35.973 9.901c.94-.158 2.064-.079 2.769.658.418.448.026 1.29-.575 1.212-.68-.106-1.332-.448-2.011-.211-.81.29-1.176 1.185-1.228 2.001-.079.922.261 2.028 1.228 2.37.757.29 1.489-.131 2.22-.263.47-.026.81.553.627.974-.157.422-.575.685-.966.817-1.411.447-3.135.131-4.076-1.08-1.254-1.659-1.097-4.371.523-5.74.392-.396.914-.633 1.489-.738zm34.954 1.027c.183-.527.575-1.053 1.176-1.08.575-.079 1.123.316 1.332.87a411.65 411.65 0 011.829 5.213c.104.343.287.738.13 1.107-.287.526-1.149.579-1.462.052-.236-.395-.34-.869-.47-1.317h-2.64c-.13.448-.234.896-.47 1.317-.287.5-1.123.474-1.358-.053-.157-.395 0-.842.13-1.237.602-1.633 1.202-3.266 1.803-4.872zm.392 3.344h1.672c-.261-.842-.522-1.711-.81-2.554-.34.843-.575 1.712-.862 2.554zm13.533-3.318c-.026-.447.156-1.053.679-1.106.496-.131.966.264.966.764.105 1.264 0 2.554.053 3.818 1.123-1.343 2.116-2.791 3.187-4.134.261-.342.758-.58 1.175-.369.366.185.418.659.418 1.027v5.056c0 .422 0 .87-.26 1.212-.34.368-1.02.29-1.28-.158-.132-.29-.132-.606-.158-.895-.026-1.107.026-2.213-.026-3.292-1.07 1.343-2.09 2.765-3.135 4.108-.34.447-1.097.684-1.489.184-.183-.316-.156-.684-.156-1.027.026-1.712 0-3.45.026-5.188zm-68.812.632c.026-.895.862-1.606 1.724-1.553.967 0 1.96-.053 2.952.026.47.079.627.632.627 1.053.026 1.633 0 3.266.026 4.898.288.08.732.106.81.475.078.658.052 1.316 0 1.974-.157.448-.758.5-1.123.316-.444-.29-.288-.868-.314-1.316H11.81c-.026.342.026.71-.079 1.053-.26.58-1.358.474-1.41-.21-.027-.712-.105-1.449.156-2.133.235-.053.47-.106.68-.211.156-.21.156-.5.209-.764.052-1.211-.027-2.396.026-3.608zm1.672-.026a.979.979 0 00-.157.184c-.104 1.422.157 2.897-.235 4.293h2.351V50.14c-.653 0-1.332-.053-1.96.026zm5.538-.448c-.026-.447.183-.974.705-1.053a17.451 17.451 0 012.874 0c.392.026.575.395.758.711-.13.263-.21.606-.523.711-.679.237-1.41.079-2.116.105v1.343c.653.027 1.306-.105 1.933.106.575.21.549 1.132-.026 1.343-.627.184-1.28.105-1.907.105v1.396c.706.026 1.437-.08 2.116.105.444.132.653.711.366 1.106-.313.448-.914.342-1.385.395-.757-.026-1.567.08-2.325-.105-.444-.132-.47-.659-.47-1.027 0-1.765-.026-3.503 0-5.24zm5.068-.974c-.548.184-.575 1.106-.026 1.317.444.158.94.131 1.41.158v4.556c0 .368 0 .79.262 1.105.34.448 1.15.316 1.332-.21.236-.87.079-1.79.105-2.686.026-.922.052-1.844 0-2.739.496-.026 1.019.026 1.463-.184.549-.29.444-1.185-.157-1.317-.784-.184-1.62-.053-2.43-.105-.679.026-1.358-.106-1.959.105zm11.678.053c.34-.448 1.202-.316 1.332.263.183.737.052 1.501.105 2.265.836-.817 1.62-1.712 2.455-2.528.366-.395 1.045-.343 1.307.131.26.316.026.711-.21.948-.652.711-1.384 1.343-2.037 2.054.81 1.001 1.724 1.87 2.482 2.897.34.395.13 1.053-.34 1.211-.392.185-.81-.131-1.07-.42l-2.352-2.766c-.627.843.078 2.054-.496 2.923-.262.369-.837.369-1.15.105-.287-.316-.313-.79-.313-1.184v-4.714c.026-.369.026-.843.287-1.185zm8.072-.132c-.966.237-1.75.974-2.142 1.896-.758 1.764-.34 4.24 1.437 5.214 1.123.58 2.56.553 3.657-.105 1.072-.658 1.62-1.922 1.62-3.16.052-1.106-.287-2.291-1.123-3.055-.889-.895-2.273-1.08-3.449-.79zm.314 1.58c.705-.316 1.698-.132 2.09.58.548.974.548 2.29-.13 3.212-.706.87-2.274.685-2.718-.342-.496-1.106-.392-2.792.758-3.45zm5.199-.527c-.053-.474.235-1.027.757-1.053a28.244 28.244 0 012.587-.026c.391 0 .679.263.914.553-.052.316-.078.763-.47.869-.68.237-1.437.079-2.142.131v1.317c.626.026 1.306-.079 1.906.105.55.158.627 1.027.105 1.29-.627.317-1.358.132-2.038.159v1.395c.706.027 1.463-.105 2.142.106.654.184.601 1.238-.052 1.37-.992.157-2.037.104-3.056.052-.47 0-.758-.5-.706-.922.053-1.764.053-3.555.053-5.346zm10.057.158c.027 1.791-.052 3.608.027 5.399 0 .763 1.045 1.106 1.463.474.313-.658.156-1.449.209-2.16.94 0 2.011.132 2.821-.5.94-.685 1.071-2.028.705-3.081-.34-.922-1.332-1.475-2.298-1.475-.81 0-1.62-.105-2.404.08-.496.184-.523.816-.523 1.263zm1.699.237c.418 0 .836-.026 1.254.053.81.184.862 1.527.078 1.79-.444.132-.888.08-1.332.08v-1.923zm12.095-.237c.13-.763.862-1.343 1.62-1.343.967-.026 1.96-.026 2.926 0 .496 0 .758.474.758.922.026 1.659 0 3.344 0 5.003.313.132.81.132.862.553.078.58.052 1.16.026 1.765-.026.71-1.15.764-1.41.184-.105-.342-.08-.684-.105-1.027h-4.285c0 .316 0 .632-.052.948-.183.632-1.28.632-1.41-.026-.08-.632-.105-1.317 0-1.949.13-.474.94-.263.94-.816.209-1.37-.053-2.792.13-4.214zm1.516.211c-.21 1.475.13 3.002-.262 4.45h2.378v-4.476a18.937 18.937 0 00-2.117.026zm15.962-1.501a4.131 4.131 0 012.586.132c1.071.447 1.803 1.527 1.985 2.686.157 1.158.027 2.422-.705 3.37-1.332 1.739-4.337 1.712-5.617-.078-.731-1.001-.862-2.318-.6-3.503.234-1.211 1.175-2.291 2.35-2.607zm.313 1.606c-.549.264-.836.896-.94 1.501-.157.422.47.87 0 1.212.13.474.287.974.705 1.264.758.58 2.064.368 2.482-.553.47-1 .444-2.397-.366-3.213-.496-.448-1.28-.527-1.88-.21z" fill="#E50023"/><path d="M21.768 81.152l-.216.096a.966.966 0 00-.264.024c-.56.128-1.04.368-1.44.72a4.91 4.91 0 00-.984 1.272 6.523 6.523 0 00-.576 1.656 10.313 10.313 0 00-.168 1.872c0 1.04.304 1.864.912 2.472.624.608 1.504.912 2.64.912.368 0 .736-.016 1.104-.048.384-.048.744-.096 1.08-.144.352-.064.672-.112.96-.144.288-.048.528-.072.72-.072.368 0 .6.08.696.24.112.144.168.352.168.624 0 .016-.016.104-.048.264-.032.144-.056.224-.072.24a1.93 1.93 0 01-.384.336c-.128.096-.28.192-.456.288a3.26 3.26 0 00-.216.12c-.08.032-.144.064-.192.096a.163.163 0 01-.12.048c-.032 0-.064.016-.096.048h-.12c-.016.016-.048.024-.096.024a.883.883 0 01-.264.072 1.509 1.509 0 01-.24.024.463.463 0 01-.24.072 3.154 3.154 0 01-.24.048c-.08.032-.208.056-.384.072-.176.016-.32.032-.432.048a11.58 11.58 0 01-.72.024h-.648c-.88 0-1.656-.152-2.328-.456a4.744 4.744 0 01-1.68-1.176 5.51 5.51 0 01-1.032-1.752 6.343 6.343 0 01-.336-2.064c0-1.008.104-1.96.312-2.856a9.11 9.11 0 01.936-2.472.48.48 0 00.12-.288c.032-.128.088-.208.168-.24a.85.85 0 00.264-.336 1.3 1.3 0 01.216-.36.505.505 0 00.216-.144.883.883 0 00.168-.216c.064 0 .104-.024.12-.072a.558.558 0 01.096-.144c.032 0 .064-.016.096-.048a.787.787 0 00.12-.096c.048-.032.128-.08.24-.144a.677.677 0 00.216-.216c.096-.032.192-.056.288-.072a.79.79 0 01.24-.048.304.304 0 01.168-.144c.096-.048.2-.112.312-.192.176 0 .304-.008.384-.024a.642.642 0 01.24-.048c.128-.064.336-.12.624-.168.288-.064.552-.096.792-.096.368 0 .736.072 1.104.216.368.128.664.304.888.528.336.336.504.688.504 1.056 0 .176-.048.392-.144.648-.016.064-.056.16-.12.288a.724.724 0 01-.384.288c-.16.048-.328.072-.504.072h-.384a.67.67 0 01-.24-.144.54.54 0 00-.192-.096l-.144-.096c-.224-.112-.424-.168-.6-.168a.395.395 0 00-.12.024.213.213 0 01-.096.024l-.192-.072zM36.529 92.36a.453.453 0 01-.144-.024h-.384a.59.59 0 01-.216-.048 1.57 1.57 0 01-.168-.096.453.453 0 00-.144-.024c0-.064-.032-.128-.096-.192a.64.64 0 01-.144-.216c-.064-.24-.144-.584-.24-1.032-.08-.464-.184-.96-.312-1.488a24.66 24.66 0 00-.384-1.56 7.217 7.217 0 00-.456-1.248 32.941 32.941 0 01-1.176 2.664c-.4.8-.816 1.488-1.248 2.064-.416.56-.84.992-1.272 1.296-.416.32-.84.48-1.272.48-.24 0-.432-.064-.576-.192a1.696 1.696 0 01-.336-.408 4.025 4.025 0 00-.24-.384c-.064-.128-.152-.192-.264-.192a.692.692 0 01.264-.264l-.12-.096a.267.267 0 00.12-.024l.096-.048c.128-.016.192-.056.192-.12-.016-.016-.024-.032-.024-.048v-.024a.514.514 0 01.288-.168 4.35 4.35 0 01.432-.12c.272-.064.56-.272.864-.624.304-.352.6-.768.888-1.248.304-.496.584-1.016.84-1.56.272-.56.512-1.08.72-1.56.208-.496.376-.92.504-1.272.144-.352.232-.56.264-.624.096-.208.224-.376.384-.504a.863.863 0 01.6-.216c.304 0 .52.04.648.12.144.064.28.2.408.408.16.256.328.592.504 1.008.192.416.376.872.552 1.368l.144.336c0 .08.016.152.048.216a.296.296 0 01.048.168.425.425 0 01.12.192c.032.064.064.168.096.312.096.192.16.408.192.648.032.24.12.52.264.84.176.56.312 1.056.408 1.488.112.432.168.736.168.912 0 .096-.008.2-.024.312 0 .112-.024.168-.072.168 0 .128-.04.232-.12.312-.032.032-.08.048-.144.048a.304.304 0 00-.144.072.351.351 0 00-.168.12c-.032.048-.088.072-.168.072zm9.57 2.136c-.144.72-.344 1.408-.6 2.064-.24.656-.568 1.32-.984 1.992a3.3 3.3 0 01-.24.312 29.58 29.58 0 00-.264.312.954.954 0 01-.144.12c-.032.032-.08.088-.144.168-.128.16-.256.344-.384.552a2.754 2.754 0 01-.384.504 6.58 6.58 0 01-1.944 1.392c-.704.352-1.496.528-2.376.528-.448 0-.784-.088-1.008-.264a2.567 2.567 0 01-.144-.12c-.016-.016-.032-.088-.048-.216-.032-.016-.04-.064-.024-.144 0-.08-.024-.136-.072-.168.016-.016.024-.04.024-.072 0-.032-.016-.064-.048-.096-.016-.016-.024-.032-.024-.048.032-.032.048-.064.048-.096v-.048c-.016 0-.024-.008-.024-.024a.931.931 0 00.048-.12c0-.032.04-.072.12-.12 0-.064.032-.104.096-.12.048-.016.072-.072.072-.168.08-.064.168-.12.264-.168a.566.566 0 01.24-.072c.16 0 .28.008.36.024.08.016.144.024.192.024h.192c.608 0 1.16-.144 1.656-.432a5.585 5.585 0 001.368-1.08c.368-.4.688-.824.96-1.272.272-.448.496-.872.672-1.272.032-.08.072-.16.12-.24a.94.94 0 00.12-.216c.048-.192.112-.416.192-.672.096-.256.184-.504.264-.744l.24-.84v-.096c0-.048.016-.128.048-.24.128-.512.224-.992.288-1.44.08-.464.16-.864.24-1.2.08-.368.128-.608.144-.72.032-.128.048-.216.048-.264 0-.064-.024-.096-.072-.096-.064 0-.12.04-.168.12-.048.08-.184.28-.408.6-.128.176-.296.392-.504.648a4.997 4.997 0 01-.696.744c-.256.24-.544.448-.864.624a1.846 1.846 0 01-.936.264c-.608 0-1.04-.208-1.296-.624a2.772 2.772 0 01-.384-1.44c0-.512.016-.952.048-1.32.048-.368.088-.664.12-.888.032-.128.04-.272.024-.432 0-.16.016-.312.048-.456 0-.08-.008-.16-.024-.24v-.24a2.74 2.74 0 00-.024-.384 1.49 1.49 0 00-.024-.288 1.112 1.112 0 01-.024-.216v-.24c.032-.16.064-.28.096-.36.048-.08.088-.16.12-.24a.64.64 0 01.144-.216c0-.064.04-.096.12-.096a.79.79 0 00.24-.048c.08-.016.192-.024.336-.024l.264.12c.112.064.216.144.312.24a.79.79 0 01.24.384c.096.384.144.664.144.84-.016.16-.056.36-.12.6a2.898 2.898 0 00-.072.6 8.805 8.805 0 00-.048.432c-.016.176-.04.36-.072.552l-.048.576a5.135 5.135 0 00-.024.456c0 .336.088.504.264.504.16 0 .352-.072.576-.216.224-.144.448-.328.672-.552.224-.224.448-.48.672-.768.224-.304.416-.608.576-.912.176-.32.344-.6.504-.84.176-.256.408-.384.696-.384.112 0 .24.024.384.072.16.032.304.112.432.24.224.208.376.416.456.624.08.208.12.504.12.888 0 .112-.016.32-.048.624-.016.288-.048.632-.096 1.032s-.112.848-.192 1.344c-.08.48-.168.968-.264 1.464l-.36 1.728zm10.89-4.032a.258.258 0 00.145-.048c.048-.032.112-.072.192-.12l.264-.168c.08-.064.152-.136.216-.216a.429.429 0 00.12-.12c.032-.064.064-.104.096-.12a.558.558 0 00.096-.144.555.555 0 01.072-.12c.032 0 .064-.032.096-.096.048-.064.096-.136.144-.216l.384-.504.096-.192a.558.558 0 01.096-.144c.272-.432.496-.88.672-1.344.176-.464.328-.904.456-1.32a3.047 3.047 0 01.528-.984.32.32 0 01.144-.12.533.533 0 00.168-.072c.048-.032.088-.056.12-.072a.296.296 0 01.168-.048h.192c.256 0 .456.08.6.24.16.16.24.36.24.6 0 .352-.064.752-.192 1.2-.112.448-.208.848-.288 1.2-.16.592-.296 1.104-.408 1.536-.096.432-.144.88-.144 1.344 0 .336.048.608.144.816.096.192.28.288.552.288.144 0 .264-.016.36-.048.112-.032.224-.048.336-.048.16 0 .288.048.384.144.096.096.144.256.144.48a.393.393 0 01-.024.096c0 .064-.024.096-.072.096.032.032.048.08.048.144 0 .096-.056.144-.168.144.032.064.048.12.048.168 0 .112-.048.2-.144.264a.674.674 0 01-.264.168c-.16.064-.328.128-.504.192a1.536 1.536 0 01-.528.096c-.416 0-.768-.064-1.056-.192a1.831 1.831 0 01-.672-.528 1.954 1.954 0 01-.384-.72 4.081 4.081 0 01-.096-.888v-.312c0-.112.008-.208.024-.288l.048-.24c-.24.368-.488.72-.744 1.056-.256.336-.52.632-.792.888a3.594 3.594 0 01-.768.6c-.256.16-.488.24-.696.24-.416 0-.776-.216-1.08-.648-.304-.432-.456-1.032-.456-1.8 0-.144.008-.312.024-.504s.04-.36.072-.504l-.48.84a.611.611 0 01-.144.144.64.64 0 00-.12.168c-.048.08-.088.168-.12.264a.955.955 0 01-.144.24c-.352.48-.752.896-1.2 1.248-.432.368-.904.552-1.416.552-.416 0-.752-.216-1.008-.648-.256-.432-.384-1.032-.384-1.8 0-.432.024-.832.072-1.2.016-.112.04-.224.072-.336.032-.128.064-.248.096-.36a.736.736 0 00.024-.312c0-.08.016-.184.048-.312a13.26 13.26 0 00.192-1.776c0-.224-.032-.408-.096-.552a1.41 1.41 0 01-.096-.528c0-.224.064-.376.192-.456l.096-.24c.048-.08.112-.12.192-.12.08-.08.144-.136.192-.168a.431.431 0 01.264-.072.6.6 0 01.312.072.639.639 0 00.288.072c.064 0 .12.032.168.096a.476.476 0 01.144.168c.08.128.152.288.216.48s.096.4.096.624c0 .336-.032.704-.096 1.104-.064.384-.144.776-.24 1.176-.08.4-.152.792-.216 1.176a5.811 5.811 0 00-.096.984c0 .24.088.36.264.36.208 0 .472-.16.792-.48.32-.32.64-.72.96-1.2.32-.48.616-1 .888-1.56.288-.576.488-1.104.6-1.584 0-.08-.008-.168-.024-.264a1.749 1.749 0 01-.024-.288c0-.272.08-.48.24-.624.176-.144.352-.216.528-.216.16 0 .312.016.456.048a.72.72 0 01.408.168c.112.08.2.216.264.408.064.192.096.456.096.792s-.032.704-.096 1.104c-.048.384-.104.776-.168 1.176-.064.4-.128.792-.192 1.176a7.696 7.696 0 00-.072.984c0 .24.088.36.264.36zm14 1.8a3.98 3.98 0 01-.025-.48v-.552c0-.144-.024-.232-.072-.264-.032-.048-.064-.072-.096-.072a.23.23 0 00-.168.072l-.168.168a4.913 4.913 0 01-.624.504 6.242 6.242 0 01-.84.528 5.18 5.18 0 01-.96.432 2.973 2.973 0 01-.936.168 1.52 1.52 0 01-.768-.192 1.914 1.914 0 01-.552-.528 2.488 2.488 0 01-.336-.72 3.763 3.763 0 01-.096-.864c0-.272.024-.544.072-.816.048-.176.104-.368.168-.576.08-.224.184-.464.312-.72l.072-.144c.048-.064.088-.128.12-.192.048-.064.096-.136.144-.216.24-.4.56-.8.96-1.2.4-.4.832-.76 1.296-1.08.48-.336.952-.6 1.416-.792.464-.208.872-.312 1.224-.312.24 0 .464.024.672.072a1.487 1.487 0 01.984.768.9.9 0 01.168.528c0 .08-.024.168-.072.264-.032.624-.064 1.2-.096 1.728-.032.464-.056.92-.072 1.368v.984c0 .496.016.944.048 1.344.048.4.096.688.144.864 0 .128-.008.24-.024.336a.504.504 0 01-.072.264 1.261 1.261 0 01-.12.192.66.66 0 01-.192.168.387.387 0 01-.168.048.532.532 0 01-.168-.024.532.532 0 00-.168-.024c-.112.016-.168.04-.168.072-.352 0-.56-.104-.624-.312a15.842 15.842 0 01-.216-.792zm.407-5.328a.23.23 0 01-.168-.072.558.558 0 01-.144-.096.231.231 0 00-.096-.12c-.224 0-.552.152-.984.456-.416.288-.84.64-1.272 1.056-.432.4-.808.816-1.128 1.248-.32.432-.48.792-.48 1.08 0 .192.088.288.264.288.096 0 .24-.032.432-.096a4.04 4.04 0 00.72-.384c.208-.128.44-.28.696-.456.272-.176.536-.368.792-.576.272-.224.52-.456.744-.696.224-.256.4-.528.528-.816.032-.208.056-.352.072-.432.016-.096.024-.224.024-.384zm11.625 5.76c-.336 0-.616-.088-.84-.264a1.981 1.981 0 01-.552-.6 3.253 3.253 0 01-.288-.744 4.897 4.897 0 01-.12-.696c-.032-.048-.064-.072-.096-.072-.064 0-.144.056-.24.168-.096.128-.208.288-.336.48-.128.176-.304.4-.528.672a4.589 4.589 0 01-1.104.96c-.432.288-.832.432-1.2.432-.464 0-.864-.216-1.2-.648-.336-.432-.504-1.032-.504-1.8 0-.384.024-.752.072-1.104.048-.368.104-.712.168-1.032.064-.32.104-.656.12-1.008s.032-.736.048-1.152v-.36c.016-.112.024-.208.024-.288 0-.032-.008-.056-.024-.072a.267.267 0 01-.072-.192.705.705 0 00-.024-.168v-.12a.453.453 0 00.024-.144.887.887 0 01.288-.552c.16-.16.336-.24.528-.24.224 0 .432.072.624.216.208.144.376.328.504.552.112.176.184.36.216.552.048.176.072.352.072.528 0 .16-.008.28-.024.36v.264c0 .128-.008.272-.024.432 0 .16-.008.328-.024.504l-.048.48a4.161 4.161 0 01-.048.336l-.12.48a7.37 7.37 0 01-.12.576c-.032.176-.064.336-.096.48-.032.144-.048.24-.048.288 0 .128.024.216.072.264.064.048.136.08.216.096.144 0 .36-.104.648-.312.304-.224.608-.512.912-.864.32-.352.608-.752.864-1.2a5.14 5.14 0 00.576-1.392c.128-.512.256-.856.384-1.032.128-.192.256-.288.384-.288.32 0 .624.136.912.408.304.272.456.672.456 1.2 0 .272-.032.552-.096.84-.048.288-.088.536-.12.744a5.76 5.76 0 00-.072.552c-.016.192-.024.4-.024.624v.408c.016.144.048.248.096.312a.786.786 0 00.192-.048c.144-.064.32-.096.528-.096.112 0 .256.056.432.168l.12.12c.032.032.064.08.096.144v.384c-.016.16-.056.328-.12.504-.064.16-.16.312-.288.456a1.264 1.264 0 01-.48.36 1.543 1.543 0 01-.696.144zM80.79 82.088c-.512 0-.968-.032-1.368-.096a3.784 3.784 0 01-1.2-.504 2.497 2.497 0 01-.744-.648 4.542 4.542 0 01-.408-.84.98.98 0 01-.048-.312c0-.224.072-.408.216-.552a.654.654 0 01.288-.168l.336-.096a.533.533 0 00.168-.072.476.476 0 01.216-.048c.08 0 .16.048.24.144.096.112.168.272.216.48.064.192.184.376.36.552.224.224.448.368.672.432.224.048.512.072.864.072.432 0 .776-.048 1.032-.144.256-.096.488-.336.696-.72.192-.384.52-.576.984-.576.08 0 .176.032.288.096.128.048.232.088.312.12.192.08.288.296.288.648 0 .224-.04.424-.12.6-.08.16-.184.328-.312.504-.336.432-.792.728-1.368.888a5.85 5.85 0 01-1.608.24zm15.052 20.52a2.761 2.761 0 01-.24-.696 7.6 7.6 0 01-.048-.96c0-.416.024-.872.072-1.368.048-.496.096-1.08.144-1.752.016-.272.04-.616.072-1.032.048-.416.112-.872.192-1.368a.451.451 0 01-.288-.12.812.812 0 01-.192-.216c-.112-.224-.168-.424-.168-.6s.016-.328.048-.456.088-.272.168-.432c0-.112.032-.24.096-.384.064-.128.144-.264.24-.408l.6-.816.216-1.272c.128-.704.296-1.512.504-2.424a41.8 41.8 0 01.816-2.856c.112-.336.256-.688.432-1.056.176-.384.376-.736.6-1.056.224-.32.464-.584.72-.792.272-.208.552-.312.84-.312.336 0 .632.088.888.264.256.176.472.408.648.696.192.272.336.576.432.912.096.336.144.656.144.96 0 .48-.072.96-.216 1.44a8.5 8.5 0 01-.504 1.392c-.208.432-.432.84-.672 1.224-.24.368-.464.696-.672.984l-2.592 3.408a.624.624 0 00-.024.192c-.048.336-.096.696-.144 1.08-.032.4-.072.776-.12 1.128-.032.352-.064.656-.096.912-.016.272-.024.456-.024.552-.08.896-.136 1.64-.168 2.232a57.887 57.887 0 00-.024 1.44c0 .112-.016.24-.048.384-.032.16-.072.312-.12.456a3.11 3.11 0 01-.168.408 1.746 1.746 0 01-.144.336c-.112.176-.216.288-.312.336-.096.064-.168.096-.216.096a.635.635 0 01-.36-.096 1.98 1.98 0 01-.312-.36zm3.096-13.2c.256-.336.504-.696.744-1.08.24-.384.448-.768.624-1.152a6.03 6.03 0 00.432-1.104c.112-.368.168-.688.168-.96 0-.288-.096-.432-.288-.432-.112 0-.224.096-.336.288-.096.176-.2.416-.312.72-.096.272-.192.568-.288.888l-.288.912c-.08.288-.152.568-.216.84-.064.256-.112.464-.144.624l-.096.456zm10.887 2.856a3.98 3.98 0 01-.024-.48v-.552c0-.144-.024-.232-.072-.264-.032-.048-.064-.072-.096-.072a.23.23 0 00-.168.072l-.168.168a4.913 4.913 0 01-.624.504 6.242 6.242 0 01-.84.528 5.18 5.18 0 01-.96.432 2.973 2.973 0 01-.936.168 1.52 1.52 0 01-.768-.192 1.914 1.914 0 01-.552-.528 2.488 2.488 0 01-.336-.72 3.763 3.763 0 01-.096-.864c0-.272.024-.544.072-.816.048-.176.104-.368.168-.576.08-.224.184-.464.312-.72l.072-.144c.048-.064.088-.128.12-.192.048-.064.096-.136.144-.216.24-.4.56-.8.96-1.2.4-.4.832-.76 1.296-1.08.48-.336.952-.6 1.416-.792.464-.208.872-.312 1.224-.312.24 0 .464.024.672.072a1.487 1.487 0 01.984.768.9.9 0 01.168.528c0 .08-.024.168-.072.264-.032.624-.064 1.2-.096 1.728-.032.464-.056.92-.072 1.368v.984c0 .496.016.944.048 1.344.048.4.096.688.144.864 0 .128-.008.24-.024.336a.504.504 0 01-.072.264 1.261 1.261 0 01-.12.192.66.66 0 01-.192.168.387.387 0 01-.168.048.532.532 0 01-.168-.024.532.532 0 00-.168-.024c-.112.016-.168.04-.168.072-.352 0-.56-.104-.624-.312a15.842 15.842 0 01-.216-.792zm.408-5.328a.23.23 0 01-.168-.072.558.558 0 01-.144-.096.231.231 0 00-.096-.12c-.224 0-.552.152-.984.456-.416.288-.84.64-1.272 1.056-.432.4-.808.816-1.128 1.248-.32.432-.48.792-.48 1.08 0 .192.088.288.264.288.096 0 .24-.032.432-.096a4.04 4.04 0 00.72-.384c.208-.128.44-.28.696-.456.272-.176.536-.368.792-.576.272-.224.52-.456.744-.696.224-.256.4-.528.528-.816.032-.208.056-.352.072-.432.016-.096.024-.224.024-.384zm7.978 13.392a2.22 2.22 0 01-.912-.192 3.628 3.628 0 01-.816-.504 7.53 7.53 0 01-.744-.696 13.144 13.144 0 01-.624-.768l-.432-.672c-.144-.208-.28-.416-.408-.624a1.583 1.583 0 00-.096-.264.341.341 0 01-.048-.192c-.016-.016-.024-.064-.024-.144 0-.048.008-.088.024-.12a.213.213 0 00.024-.096.184.184 0 00-.024-.072v-.072c0-.016.016-.056.048-.12.032-.048.096-.088.192-.12.112-.032.2-.048.264-.048l.12.024c.032 0 .056-.008.072-.024h.048a.852.852 0 01.312-.048c.272 0 .584.176.936.528.176.176.32.376.432.6.112.24.232.464.36.672.128.224.28.408.456.552.176.16.416.24.72.24s.568-.12.792-.36c.224-.24.416-.544.576-.912.176-.368.32-.768.432-1.2a18.885 18.885 0 00.552-2.544c.096-.528.184-1.064.264-1.608.096-.56.168-1.088.216-1.584.064-.496.104-.904.12-1.224-.064-.128-.136-.192-.216-.192-.08 0-.184.04-.312.12-.112.064-.328.224-.648.48a3.888 3.888 0 01-.576.408c-.24.144-.504.288-.792.432-.272.128-.552.24-.84.336-.272.08-.52.12-.744.12-.352 0-.648-.072-.888-.216-.24-.16-.44-.352-.6-.576a2.641 2.641 0 01-.312-.792 3.972 3.972 0 01-.096-.864c0-.736.2-1.464.6-2.184.208-.4.512-.784.912-1.152.4-.368.872-.552 1.416-.552.576 0 1.104.144 1.584.432.544.384.864.92.96 1.608a.35.35 0 01.024.216c0 .048.016.088.048.12l.288-.192c.08-.08.208-.16.384-.24.192-.08.392-.12.6-.12.096 0 .256.064.48.192.24.112.4.248.48.408.032.08.072.192.12.336.048.144.072.28.072.408.016.08.024.144.024.192a.395.395 0 01.024.12v.12c-.032.208-.08.728-.144 1.56-.048.816-.16 1.792-.336 2.928-.112.8-.24 1.528-.384 2.184a19.664 19.664 0 01-.384 1.68c-.128.432-.296.896-.504 1.392-.192.496-.44.96-.744 1.392a3.98 3.98 0 01-1.008 1.056 2.142 2.142 0 01-1.32.432zm-1.008-12.096c.368 0 .728-.104 1.08-.312.368-.208.664-.424.888-.648v-.096c.016-.016.024-.04.024-.072 0-.16-.064-.328-.192-.504-.048-.064-.12-.096-.216-.096-.56 0-.992.168-1.296.504-.304.336-.48.688-.528 1.056 0 .112.08.168.24.168zm16.4 3.528a.955.955 0 01-.144.24 1.238 1.238 0 01-.24.264 3.509 3.509 0 01-.36.24.543.543 0 01-.36.12.847.847 0 01-.336-.072.504.504 0 01-.336-.336 1.55 1.55 0 01-.096-.576v-.24a8.37 8.37 0 00.048-.264c.032-.192.072-.416.12-.672A20.943 20.943 0 01132.21 89c.048-.176.072-.352.072-.528 0-.064-.016-.096-.048-.096-.064 0-.136.056-.216.168a4.713 4.713 0 01-.336.48c-.24.32-.496.624-.768.912-.272.288-.616.616-1.032.984-.384.336-.792.648-1.224.936a2.606 2.606 0 01-1.416.408c-.48 0-.856-.184-1.128-.552a2.284 2.284 0 01-.384-1.296c0-.16.008-.344.024-.552a8.02 8.02 0 00.072-.648c.032-.224.064-.432.096-.624.032-.208.048-.376.048-.504.032-.208.08-.48.144-.816.064-.336.096-.616.096-.84l.12-.816c.032-.16.048-.304.048-.432a2.35 2.35 0 01.072-.384.705.705 0 00.024-.168v-.168c0-.128.032-.2.096-.216.096-.08.224-.144.384-.192.112-.048.216-.064.312-.048.096 0 .16-.016.192-.048.176 0 .344.112.504.336.16.224.256.424.288.6.016.048.024.12.024.216v.288c0 .272-.016.536-.048.792s-.072.528-.12.816l-.12.48a7.37 7.37 0 01-.12.576 16.74 16.74 0 01-.096.528 3.201 3.201 0 00-.024.312c0 .096.016.184.048.264.048.064.136.096.264.096.144 0 .36-.104.648-.312.288-.208.592-.456.912-.744.336-.304.656-.616.96-.936.32-.336.576-.632.768-.888.304-.4.552-.728.744-.984.208-.256.392-.456.552-.6.16-.16.4-.24.72-.24.16 0 .296.064.408.192.128.128.232.256.312.384.128.208.192.44.192.696a6 6 0 00.048.744.426.426 0 01-.048.192.426.426 0 00-.048.192c-.016.176-.032.384-.048.624s-.032.504-.048.792c-.08.864-.16 1.552-.24 2.064a6.177 6.177 0 01-.264 1.224l-.024.096zm5.702.72c-.464 0-.864-.08-1.2-.24a2.368 2.368 0 01-.792-.624 3.292 3.292 0 01-.48-.864 3.326 3.326 0 01-.144-.96c0-.496.096-.952.288-1.368a6.35 6.35 0 01.696-1.2c.096-.128.208-.272.336-.432.144-.176.288-.336.432-.48.16-.16.312-.304.456-.432.144-.128.272-.216.384-.264.224-.112.384-.216.48-.312a.616.616 0 01.456-.168c.384 0 .728.096 1.032.288.304.176.56.416.768.72.208.304.36.648.456 1.032.112.384.168.776.168 1.176 0 1.264-.28 2.272-.84 3.024-.56.736-1.392 1.104-2.496 1.104zm.576-5.28a.789.789 0 00-.192.024.23.23 0 00-.168.072 2.924 2.924 0 00-.312.36c-.08.096-.184.256-.312.48-.08.144-.152.336-.216.576a3.557 3.557 0 00-.072.744c0 .272.072.496.216.672.144.16.376.24.696.24.192 0 .384-.048.576-.144.192-.112.36-.256.504-.432.144-.176.264-.384.36-.624.096-.24.144-.496.144-.768 0-.304-.096-.576-.288-.816-.192-.256-.432-.384-.72-.384h-.216zM24.36 115.76a.955.955 0 01-.144.24 1.238 1.238 0 01-.24.264 3.509 3.509 0 01-.36.24.543.543 0 01-.36.12.847.847 0 01-.336-.072.504.504 0 01-.336-.336 1.55 1.55 0 01-.096-.576v-.24a8.37 8.37 0 00.048-.264c.032-.192.072-.416.12-.672a20.943 20.943 0 01.312-1.464c.048-.176.072-.352.072-.528 0-.064-.016-.096-.048-.096-.064 0-.136.056-.216.168a4.713 4.713 0 01-.336.48c-.24.32-.496.624-.768.912-.272.288-.616.616-1.032.984-.384.336-.792.648-1.224.936a2.606 2.606 0 01-1.416.408c-.48 0-.856-.184-1.128-.552a2.284 2.284 0 01-.384-1.296c0-.16.008-.344.024-.552a8.02 8.02 0 00.072-.648c.032-.224.064-.432.096-.624.032-.208.048-.376.048-.504.032-.208.08-.48.144-.816.064-.336.096-.616.096-.84l.12-.816c.032-.16.048-.304.048-.432a2.35 2.35 0 01.072-.384.705.705 0 00.024-.168v-.168c0-.128.032-.2.096-.216.096-.08.224-.144.384-.192.112-.048.216-.064.312-.048.096 0 .16-.016.192-.048.176 0 .344.112.504.336.16.224.256.424.288.6.016.048.024.12.024.216v.288c0 .272-.016.536-.048.792s-.072.528-.12.816l-.12.48a7.37 7.37 0 01-.12.576 16.74 16.74 0 01-.096.528 3.201 3.201 0 00-.024.312c0 .096.016.184.048.264.048.064.136.096.264.096.144 0 .36-.104.648-.312.288-.208.592-.456.912-.744.336-.304.656-.616.96-.936.32-.336.576-.632.768-.888.304-.4.552-.728.744-.984.208-.256.392-.456.552-.6.16-.16.4-.24.72-.24.16 0 .296.064.408.192.128.128.232.256.312.384.128.208.192.44.192.696a6 6 0 00.048.744.426.426 0 01-.048.192.426.426 0 00-.048.192c-.016.176-.032.384-.048.624s-.032.504-.048.792c-.08.864-.16 1.552-.24 2.064a6.177 6.177 0 01-.264 1.224l-.024.096zm13.21 7.68a.311.311 0 01-.288-.168 1.35 1.35 0 01-.096-.384 3.093 3.093 0 01-.024-.384c0-.608-.024-1.208-.072-1.8a55.01 55.01 0 00-.12-1.728 37.761 37.761 0 00-.12-1.536c-.032-.48-.048-.912-.048-1.296 0-.288.016-.504.048-.648.048-.16.104-.28.168-.36a.694.694 0 01.216-.216c.08-.048.168-.112.264-.192.08-.656.152-1.208.216-1.656.064-.448.12-.792.168-1.032.432-2.096 1.016-3.648 1.752-4.656.752-1.008 1.648-1.512 2.688-1.512.496 0 .928.12 1.296.36.384.24.704.56.96.96.032.064.072.152.12.264a.553.553 0 01.072.216c.048.064.096.152.144.264.064.112.112.256.144.432.032.144.056.296.072.456.016.16.024.32.024.48 0 .72-.192 1.384-.576 1.992a6.303 6.303 0 01-1.416 1.584 9.72 9.72 0 01-1.92 1.2c-.688.32-1.344.568-1.968.744-.016 1.04-.024 2.016-.024 2.928 0 .912-.024 1.736-.072 2.472-.032.752-.104 1.392-.216 1.92-.096.528-.24.92-.432 1.176a.656.656 0 01-.36.24.931.931 0 01-.12.048.395.395 0 01-.12.024.351.351 0 01-.216-.072.954.954 0 00-.144-.12zm5.328-15.408a.91.91 0 00-.672-.264c-.272 0-.536.128-.792.384s-.504.616-.744 1.08c-.224.448-.432.984-.624 1.608a16.643 16.643 0 00-.48 2.04c0 .016-.008.032-.024.048v.024c1.184-.4 2.096-.936 2.736-1.608.64-.672.96-1.448.96-2.328a.906.906 0 00-.048-.288l-.096-.288a.606.606 0 01-.072-.144c0-.064-.016-.112-.048-.144l-.096-.12zm11.155 8.664c-.336 0-.616-.088-.84-.264a1.981 1.981 0 01-.552-.6 3.253 3.253 0 01-.288-.744 4.897 4.897 0 01-.12-.696c-.032-.048-.064-.072-.096-.072-.064 0-.144.056-.24.168-.096.128-.208.288-.336.48-.128.176-.304.4-.528.672a4.589 4.589 0 01-1.104.96c-.432.288-.832.432-1.2.432-.464 0-.864-.216-1.2-.648-.336-.432-.504-1.032-.504-1.8 0-.384.024-.752.072-1.104.048-.368.104-.712.168-1.032.064-.32.104-.656.12-1.008s.032-.736.048-1.152v-.36c.016-.112.024-.208.024-.288 0-.032-.008-.056-.024-.072a.267.267 0 01-.072-.192.705.705 0 00-.024-.168v-.12a.453.453 0 00.024-.144.887.887 0 01.288-.552c.16-.16.336-.24.528-.24.224 0 .432.072.624.216.208.144.376.328.504.552.112.176.184.36.216.552.048.176.072.352.072.528 0 .16-.008.28-.024.36v.264c0 .128-.008.272-.024.432 0 .16-.008.328-.024.504l-.048.48a4.161 4.161 0 01-.048.336l-.12.48a7.37 7.37 0 01-.12.576c-.032.176-.064.336-.096.48-.032.144-.048.24-.048.288 0 .128.024.216.072.264.064.048.136.08.216.096.144 0 .36-.104.648-.312.304-.224.608-.512.912-.864.32-.352.608-.752.864-1.2a5.14 5.14 0 00.576-1.392c.128-.512.256-.856.384-1.032.128-.192.256-.288.384-.288.32 0 .624.136.912.408.304.272.456.672.456 1.2 0 .272-.032.552-.096.84-.048.288-.088.536-.12.744a5.76 5.76 0 00-.072.552c-.016.192-.024.4-.024.624v.408c.016.144.048.248.096.312a.786.786 0 00.192-.048c.144-.064.32-.096.528-.096.112 0 .256.056.432.168l.12.12c.032.032.064.08.096.144v.384c-.016.16-.056.328-.12.504-.064.16-.16.312-.288.456a1.264 1.264 0 01-.48.36 1.543 1.543 0 01-.696.144zm11.022-3.6c.096.032.176.112.24.24.112.224.168.488.168.792a.72.72 0 01-.12.384 1.19 1.19 0 01-.216.312c-.16.16-.304.312-.432.456a3.83 3.83 0 01-.456.384 6.95 6.95 0 01-.696.432c-.272.176-.56.328-.864.456a4.277 4.277 0 01-.552.216 2.164 2.164 0 01-.456.144 2.097 2.097 0 01-.456.048c-.16.016-.352.024-.576.024-.288 0-.592-.056-.912-.168-.304-.096-.52-.184-.648-.264-.528-.32-.904-.744-1.128-1.272-.224-.544-.336-1.208-.336-1.992 0-.48.056-.944.168-1.392.112-.464.256-.888.432-1.272.192-.4.4-.76.624-1.08a6.212 6.212 0 011.224-1.248c.224-.16.448-.304.672-.432.24-.128.496-.24.768-.336.272-.112.608-.168 1.008-.168s.776.152 1.128.456c.368.288.552.64.552 1.056 0 .096-.008.184-.024.264a.938.938 0 01-.072.192c-.032.096-.088.2-.168.312a.694.694 0 01-.216.216c-.128.096-.336.144-.624.144-.176 0-.312-.008-.408-.024a1.349 1.349 0 00-.408-.048c-.256 0-.544.112-.864.336a3.87 3.87 0 00-.864.84 5.699 5.699 0 00-.696 1.176c-.176.416-.264.84-.264 1.272 0 .4.072.728.216.984.16.256.448.384.864.384.368 0 .712-.064 1.032-.192.336-.144.608-.272.816-.384.16-.08.352-.192.576-.336.24-.16.448-.296.624-.408.16-.096.288-.192.384-.288.096-.096.192-.168.288-.216a1.368 1.368 0 01.408-.096c.096 0 .184.032.264.096zm8.82 5.4c-.143.72-.343 1.408-.6 2.064-.24.656-.567 1.32-.983 1.992a3.3 3.3 0 01-.24.312 29.58 29.58 0 00-.264.312.954.954 0 01-.144.12c-.032.032-.08.088-.144.168-.128.16-.256.344-.384.552a2.754 2.754 0 01-.384.504 6.58 6.58 0 01-1.944 1.392c-.704.352-1.496.528-2.376.528-.448 0-.784-.088-1.008-.264a2.567 2.567 0 01-.144-.12c-.016-.016-.032-.088-.048-.216-.032-.016-.04-.064-.024-.144 0-.08-.024-.136-.072-.168.016-.016.024-.04.024-.072 0-.032-.016-.064-.048-.096-.016-.016-.024-.032-.024-.048.032-.032.048-.064.048-.096v-.048c-.016 0-.024-.008-.024-.024a.931.931 0 00.048-.12c0-.032.04-.072.12-.12 0-.064.032-.104.096-.12.048-.016.072-.072.072-.168.08-.064.168-.12.264-.168a.566.566 0 01.24-.072c.16 0 .28.008.36.024.08.016.144.024.192.024h.192c.608 0 1.16-.144 1.656-.432a5.585 5.585 0 001.368-1.08c.368-.4.688-.824.96-1.272.272-.448.496-.872.672-1.272.032-.08.072-.16.12-.24a.94.94 0 00.12-.216c.048-.192.112-.416.192-.672.096-.256.184-.504.264-.744l.24-.84v-.096c0-.048.016-.128.048-.24.128-.512.224-.992.288-1.44.08-.464.16-.864.24-1.2.08-.368.128-.608.144-.72.032-.128.048-.216.048-.264 0-.064-.024-.096-.072-.096-.064 0-.12.04-.168.12-.048.08-.184.28-.408.6-.128.176-.296.392-.504.648a4.997 4.997 0 01-.696.744c-.256.24-.544.448-.864.624a1.846 1.846 0 01-.936.264c-.608 0-1.04-.208-1.296-.624a2.772 2.772 0 01-.384-1.44c0-.512.016-.952.048-1.32.048-.368.088-.664.12-.888.032-.128.04-.272.024-.432 0-.16.016-.312.048-.456 0-.08-.008-.16-.024-.24v-.24a2.74 2.74 0 00-.024-.384 1.49 1.49 0 00-.024-.288 1.112 1.112 0 01-.024-.216v-.24c.032-.16.064-.28.096-.36.048-.08.088-.16.12-.24a.64.64 0 01.144-.216c0-.064.04-.096.12-.096a.79.79 0 00.24-.048c.08-.016.192-.024.336-.024l.264.12c.112.064.216.144.312.24a.79.79 0 01.24.384c.096.384.144.664.144.84-.016.16-.056.36-.12.6a2.898 2.898 0 00-.072.6 8.805 8.805 0 00-.048.432c-.016.176-.04.36-.072.552l-.048.576a5.135 5.135 0 00-.024.456c0 .336.088.504.264.504.16 0 .352-.072.576-.216.224-.144.448-.328.672-.552.224-.224.448-.48.672-.768.224-.304.416-.608.576-.912.176-.32.344-.6.504-.84.176-.256.408-.384.696-.384.112 0 .24.024.384.072.16.032.304.112.432.24.224.208.376.416.456.624.08.208.12.504.12.888 0 .112-.016.32-.048.624-.016.288-.048.632-.096 1.032s-.112.848-.192 1.344c-.08.48-.168.968-.264 1.464l-.36 1.728zm10.58-1.8c-.337 0-.616-.088-.84-.264a1.981 1.981 0 01-.553-.6 3.253 3.253 0 01-.287-.744 4.897 4.897 0 01-.12-.696c-.032-.048-.064-.072-.096-.072-.064 0-.144.056-.24.168-.096.128-.209.288-.337.48-.127.176-.303.4-.527.672a4.589 4.589 0 01-1.104.96c-.432.288-.832.432-1.2.432-.465 0-.865-.216-1.2-.648-.337-.432-.505-1.032-.505-1.8 0-.384.025-.752.073-1.104.047-.368.103-.712.168-1.032.064-.32.104-.656.12-1.008s.032-.736.047-1.152v-.36c.017-.112.025-.208.025-.288 0-.032-.008-.056-.025-.072a.267.267 0 01-.072-.192.705.705 0 00-.023-.168v-.12a.453.453 0 00.023-.144.887.887 0 01.288-.552c.16-.16.337-.24.528-.24.225 0 .433.072.625.216.208.144.376.328.503.552.113.176.184.36.217.552.047.176.072.352.072.528 0 .16-.008.28-.025.36v.264c0 .128-.008.272-.023.432 0 .16-.008.328-.024.504l-.048.48a4.161 4.161 0 01-.049.336l-.12.48a7.323 7.323 0 01-.12.576c-.032.176-.064.336-.096.48-.031.144-.047.24-.047.288 0 .128.023.216.072.264.063.048.135.08.215.096.145 0 .36-.104.648-.312.304-.224.608-.512.912-.864.32-.352.609-.752.865-1.2a5.14 5.14 0 00.576-1.392c.127-.512.255-.856.383-1.032.129-.192.257-.288.385-.288.32 0 .623.136.912.408.303.272.456.672.456 1.2 0 .272-.032.552-.096.84-.049.288-.089.536-.12.744a5.76 5.76 0 00-.073.552 8.03 8.03 0 00-.023.624v.408c.016.144.047.248.096.312a.786.786 0 00.191-.048c.144-.064.32-.096.528-.096.112 0 .257.056.433.168l.12.12c.032.032.064.08.096.144v.384c-.016.16-.056.328-.12.504-.064.16-.16.312-.288.456a1.264 1.264 0 01-.48.36 1.543 1.543 0 01-.697.144zm-2.232-10.608c-.512 0-.968-.032-1.368-.096a3.784 3.784 0 01-1.2-.504 2.497 2.497 0 01-.745-.648 4.542 4.542 0 01-.408-.84.98.98 0 01-.047-.312c0-.224.072-.408.216-.552a.654.654 0 01.287-.168l.337-.096a.533.533 0 00.168-.072.476.476 0 01.215-.048c.08 0 .16.048.24.144.096.112.168.272.216.48.065.192.184.376.36.552.225.224.449.368.672.432.224.048.512.072.864.072.433 0 .776-.048 1.032-.144.257-.096.489-.336.697-.72.192-.384.52-.576.984-.576.08 0 .175.032.287.096.129.048.233.088.313.12.192.08.287.296.287.648 0 .224-.04.424-.12.6a3.6 3.6 0 01-.311.504c-.337.432-.792.728-1.368.888a5.85 5.85 0 01-1.608.24z" fill="#074F9F"/></svg>