<svg width="1927" height="3476" fill="none" xmlns="http://www.w3.org/2000/svg"><path opacity=".5" d="M318.315 101.432c5.974 2.352 11.947 0 13.939-7.056l17.921-46.766c7.965-18.725 25.787-25.781 41.717-18.725l25.787 14.02c5.974 2.353 11.948 0 13.939-7.055 1.991-7.056 0-14.02-5.974-16.373l-25.787-14.02C374.07-8.566 342.21 5.455 330.362 35.85l-17.921 46.767c-2.091 7.146-.1 14.202 5.874 18.815z" fill="#0981F3"/><path opacity=".5" d="M407.723 57.016l11.947 7.056c3.983 2.352 9.957 0 11.948-4.704l11.948-32.745c1.991-4.703 0-11.668-3.983-14.02l-11.948-7.056c-3.982-2.352-9.956 0-11.947 4.704L403.74 42.996c-1.991 4.613 0 11.669 3.983 14.02z" fill="#00CBFF"/><path opacity=".5" d="M346.094 127.21l5.973-32.744c0-4.704-1.991-9.408-5.973-11.669l-27.779-14.02c-11.947-7.056-23.795-4.704-33.752 4.703l-21.904 21.076 83.435 32.654z" fill="#FFB000"/><path opacity=".4" d="M286.554 71.037c19.814 7.056 49.683 23.429 63.522 32.746l-3.983 23.428-83.434-32.745 23.895-23.429z" fill="#FFB000"/><path opacity=".5" d="M356.049 223.096l9.957-79.602c1.991-9.317-3.983-18.725-9.957-23.428L296.411 87.32c-29.769-16.373-65.513-11.669-91.399 11.669l-65.513 58.526 216.55 65.581z" fill="#FFB000"/><path opacity=".4" d="M175.242 129.562c33.752 2.352 69.495 14.021 103.347 28.133 0-30.394 23.796-32.746 23.796-32.746l21.904 18.725-9.957 30.394c17.922 9.317 33.752 18.724 45.7 25.78l-3.983 25.781-214.559-63.14 33.752-32.927z" fill="#FFB000"/><path opacity=".5" d="M75.978 190.351l-7.965-65.491L1 73.39v74.11l33.161 61.576 41.817-18.725z" fill="#FFB000"/><path opacity=".4" d="M75.978 190.351l-41.717 21.077-33.26-59.8L1 146v-4.029c23.178-7.694 52.156-7.564 67.013-5.441l7.965 53.821z" fill="#FFB000"/><path opacity=".8" d="M1 324v-54.62l11.456-1.87 13.939 51.471L1 336.92V324z" fill="#FFB000"/><path opacity=".5" d="M226.915 543.677s-93.39 37.449-168.86-39.801c-3.982-4.704-1.99-11.669 1.992-11.669 25.787-4.704 75.469-21.077 47.691-53.822l119.177 105.292z" fill="#FFB000"/><path opacity=".8" d="M109.729 438.385l119.178 105.292s-11.948 4.704-31.761 7.056c-39.726-14.021-83.434-42.153-117.186-63.23 23.796-6.965 51.574-23.338 29.769-49.118z" fill="#FFB000"/><path opacity=".5" d="M322.297 592.885S100.572 533.811.97 337.5c0-4.5 1.483-13.461.03-16.5V200.518c15.934-28.31 35.188-37.155 61.038-42.824 194.647-46.766 379.437 112.349 379.437 112.349 65.512 58.526 87.416 145.093 57.647 224.605-31.86 84.125-101.356 112.258-176.825 98.237z" fill="#FFB000"/><path opacity=".5" d="M151.446 443.088c0 2.352 0 4.704 1.992 4.704 1.991 0 3.982 0 3.982-2.352s0-4.704-1.991-4.704-3.983 0-3.983 2.352zm1.992 35.098c0 2.351 0 4.703 1.991 4.703s3.982 0 3.982-2.352c0-2.351 0-4.703-1.991-4.703 0 0-1.991 2.352-3.982 2.352zm0-72.546c0 2.351 0 4.703 1.991 4.703s3.982 0 3.982-2.351c0-2.352 0-4.704-1.991-4.704-1.991-2.352-3.982 0-3.982 2.352zm9.956-37.451c0 2.352 0 4.704 1.991 4.704s3.982 0 3.982-2.352 0-4.704-1.991-4.704c-2.091 0-3.982 0-3.982 2.352zm5.875-35.097c0 2.352 0 4.703 1.991 4.703s3.982 0 3.982-2.351c0-2.352 0-4.703-1.991-4.703 0 0-1.991 0-3.982 2.351z" fill="#FF9D00"/><path opacity=".5" d="M115.703 288.677c-13.939 58.526-15.93 142.742-5.974 184.896-35.743-32.746-71.486-72.547-99.364-121.666-5.974-46.766 17.921-114.7 17.921-114.7l87.417 51.47zM296.41 382.3c-31.761 58.526-29.769 147.446-9.956 198.916-27.778-11.669-67.504-28.042-111.212-56.174-27.779-116.961 17.921-196.564 17.921-196.564L296.41 382.3z" fill="#FFCE00"/><path opacity=".5" d="M183.207 513.284c0 2.352 0 4.704 1.991 4.704 1.992 0 3.983 0 3.983-2.352 0-2.351 0-4.704-1.991-4.704-1.992 0-3.983 0-3.983 2.352zm-5.974-44.415c0 2.352 0 4.704 1.992 4.704 1.991 0 3.982 0 3.982-2.352s0-4.704-1.991-4.704l-3.983 2.352zm-1.991-39.801c0 2.352 0 4.704 1.991 4.704 1.992 0 3.983 0 3.983-2.352s0-4.704-1.991-4.704c-1.992 0-3.983 0-3.983 2.352z" fill="#FF9D00"/><path opacity=".8" d="M175.242 305.051c11.947-32.745 45.699-46.766 71.486-32.745 27.778 14.021 39.726 53.822 25.787 86.567-11.948 32.745-45.7 46.766-71.487 32.745-27.778-14.021-39.626-53.822-25.786-86.567zm17.921 9.317c-7.965 21.077 0 44.414 15.93 51.47 15.93 9.317 35.743 0 43.709-21.076 7.965-21.077 0-44.505-15.931-51.47-15.93-6.965-35.743 2.352-43.708 21.076z" fill="#FFB000"/><path opacity=".5" d="M177.233 389.265c0 2.352 0 4.704 1.992 4.704 1.991 0 3.982 0 3.982-2.352s0-4.704-1.991-4.704c0 0-1.991 0-3.983 2.352zm13.94-32.745c0 2.352 0 4.704 1.991 4.704s3.983 0 3.983-2.352 0-4.704-1.992-4.704c0 0-1.991 0-3.982 2.352z" fill="#FF9D00"/><path opacity=".5" d="M197.147 258.284L83.844 197.406s5.974-21.076 19.912-46.766c47.691-4.704 93.391 0 135.108 11.669-19.913 23.428-37.735 70.195-41.717 95.975z" fill="#FFCE00"/><path opacity=".5" d="M187.19 305.051c-9.957 25.78 0 56.173 21.804 67.842 21.804 11.669 47.691 0 57.647-25.78 9.957-25.689 0-56.173-21.904-67.842-21.804-11.669-47.591 0-57.547 25.78z" fill="url(#paint0_linear)"/><path opacity=".5" d="M242.845 279.269c21.805 11.669 31.761 42.153 21.805 67.844-5.974 16.372-19.913 28.041-35.744 30.393 9.957-2.352 19.814-11.669 23.796-23.428 7.965-21.077 0-44.415-17.921-56.175-17.922-9.317-37.735 0-47.691 21.077-3.983 11.669-3.983 25.781 0 37.45-7.965-14.021-11.948-32.746-3.983-51.471 14.039-25.69 39.826-37.359 59.738-25.69z" fill="url(#paint1_linear)"/><path opacity=".5" d="M177.234 300.347c11.947-32.746 43.708-46.767 71.486-30.394 27.778 14.021 39.726 51.471 25.787 84.216-11.948 32.746-43.708 46.766-71.486 30.394-25.787-14.021-37.635-51.47-25.787-84.216zm17.921 9.407c-7.965 18.725 0 42.153 15.93 51.471 15.93 9.407 35.743 0 43.709-18.725 7.965-18.725 0-42.153-15.931-51.47-15.93-9.408-35.743 0-43.708 18.724z" fill="#2F306B"/><path opacity=".5" d="M360.032 199.759l-57.647-30.393c-9.957-4.704-13.939-18.725-9.957-30.394 3.983-11.669 15.931-16.373 25.787-11.669l47.691 25.78-5.874 46.676z" fill="url(#paint2_linear)"/><path opacity=".5" d="M238.864 276.919c-1.991 2.352 0 4.704 1.991 7.056 1.991 2.353 3.983 0 5.974-2.352s0-4.704-1.991-7.056c-1.992-2.262-3.983.09-5.974 2.352zm25.786 28.131c-1.991 0-3.982 4.704-1.991 7.056 0 2.351 3.982 4.703 5.973 2.351 1.992 0 3.983-4.703 1.992-7.055 0-2.352-3.983-4.704-5.974-2.352zm1.991 37.449c-1.991-2.351-3.982.001-5.973 2.352-1.992 2.352 0 4.704 1.991 7.055 1.991 2.352 3.982 0 5.974-2.351 1.991-2.443 0-4.704-1.992-7.056zm-21.803 30.395c0-2.352-3.983-4.704-5.974-2.352-1.991 0-3.983 4.704-1.991 7.056 0 2.352 3.982 4.704 5.973 2.352 1.992-2.352 3.983-4.704 1.992-7.056zm-33.852 2.351c1.991-2.352 0-4.703-1.991-7.055-1.991-2.352-3.983 0-5.974 2.352-1.991 2.351 0 4.703 1.991 7.055 3.983 2.352 5.974 0 5.974-2.352zm-23.796-25.781c1.991 0 3.983-4.703 1.991-7.055 0-2.351-3.982-4.703-5.973-2.351-1.992 0-3.983 4.703-1.992 7.054 0 2.352 3.983 2.352 5.974 2.352zm-1.991-39.71c1.991 2.352 3.982 0 5.973-2.352 1.992-2.351 0-4.703-1.991-7.055-1.991-2.352-3.982 0-5.974 2.352-1.991 2.352-1.991 7.055 1.992 7.055zm21.903-28.132c0 2.352 3.983 4.705 5.974 2.353 1.991 0 3.982-4.705 1.991-7.058 0-2.352-3.982-4.705-5.974-2.352-1.991.09-3.982 2.352-1.991 7.057z" fill="#28244B"/><path opacity=".5" d="M264.65 557.698c0 2.352 0 4.703 1.992 4.703 1.991 0 3.982 0 3.982-2.351 0-2.352 0-4.704-1.991-4.704-1.991-2.261-3.983.091-3.983 2.352zm-5.973-44.414c0 2.352 0 4.704 1.991 4.704s3.983 0 3.983-2.352c0-2.351 0-4.704-1.992-4.704-1.991 0-3.982 0-3.982 2.352zm0-39.801c0 2.352 0 4.703 1.991 4.703s3.983 0 3.983-2.351c0-2.352 0-4.704-1.992-4.704-1.991 0-3.982 0-3.982 2.352zm1.991-39.712c0 2.352 0 4.704 1.991 4.704s3.983 0 3.983-2.352 0-4.704-1.992-4.704c0 0-3.982 0-3.982 2.352zm9.956-35.097c0 2.352 0 4.703 1.991 4.703s3.983 0 3.983-2.351c0-2.352 0-4.703-1.992-4.703-1.991 0-3.982 0-3.982 2.351zm9.956 100.589c0 2.352 0 4.704 1.991 4.704 1.992 0 3.983 0 3.983-2.352s0-4.704-1.991-4.704c0-2.353-1.992 0-3.983 2.352zm3.983 35.098c0 2.352 0 4.704 1.992 4.704 1.991 0 3.982 0 3.982-2.352 0-2.353 0-4.705-1.991-4.705-1.991-2.352-3.983.001-3.983 2.353zm-1.992-79.603c0 2.352 0 4.703 1.992 4.703 1.991 0 3.982 0 3.982-2.351 0-2.352 0-4.704-1.991-4.704 0 0-1.991 2.352-3.983 2.352zm9.858-32.746c0 2.352 0 4.704 1.991 4.704s3.983 0 3.983-2.352 0-4.704-1.992-4.704c-1.991 0-3.982 0-3.982 2.352zm11.948-32.747c0 2.352 0 4.704 1.991 4.704s3.983 0 3.983-2.352 0-4.704-1.992-4.704c-1.991 0-3.982 0-3.982 2.352zm-190.664 18.726c0 2.352 0 4.703 1.991 4.703s3.983 0 3.983-2.351c0-2.352 0-4.703-1.992-4.703 0 0-1.991 2.351-3.982 2.351zm-1.992-39.802c0 2.352 0 4.704 1.991 4.704s3.983 0 3.983-2.352 0-4.704-1.992-4.704c0 0-1.991 0-3.982 2.352zm5.974-39.71c0 2.352 0 4.703 1.992 4.703 1.991 0 3.982 0 3.982-2.351s0-4.703-1.991-4.703c-.1 0-1.991 0-3.983 2.351zm3.882-35.097c0 2.351 0 4.703 1.991 4.703 1.992 0 3.983 0 3.983-2.352 0-2.351 0-4.703-1.991-4.703-1.992-2.352-3.983 0-3.983 2.352zM6.382 279.27c0 2.352 0 4.704 1.991 4.704s3.983 0 3.983-2.352 0-4.704-1.992-4.704c-1.99 0-3.982 0-3.982 2.352zm5.974-35.098c0 2.352 0 4.704 1.992 4.704 1.991 0 3.982 0 3.982-2.352s0-4.704-1.991-4.704c0 0-1.991 2.352-3.983 2.352zm79.453 14.112c0 2.352 0 4.704 1.99 4.704 1.992 0 3.983 0 3.983-2.352s0-4.704-1.99-4.704c0 0-3.983 0-3.983 2.352zm-37.736-18.725c0 2.353 0 4.705 1.992 4.705 1.99 0 3.982 0 3.982-2.352 0-2.353 0-4.705-1.991-4.705 0-2.352-1.991 0-3.983 2.352zm228.498 107.554c0 2.352 0 4.704 1.992 4.704 1.991 0 3.982 0 3.982-2.352s0-4.704-1.991-4.704c-1.991.09-3.983 2.352-3.983 2.352zM85.835 412.695c0 2.352 0 4.704 1.991 4.704 1.992 0 3.983 0 3.983-2.352s0-4.704-1.992-4.704c-1.99 0-3.982 0-3.982 2.352zm0-39.801c0 2.352 0 4.704 1.991 4.704 1.992 0 3.983 0 3.983-2.352s0-4.704-1.992-4.704c-1.99 0-3.982 0-3.982 2.352zm3.982-37.45c0 2.353 0 4.705 1.992 4.705 1.99 0 3.982 0 3.982-2.352 0-2.353 0-4.705-1.991-4.705-1.991-2.352-3.983 0-3.983 2.352zm5.974-37.449c0 2.352 0 4.704 1.991 4.704 1.992 0 3.983 0 3.983-2.352s0-4.704-1.992-4.704c0 0-3.982 0-3.982 2.352zm87.416-67.843c0 2.352 0 4.704 1.991 4.704 1.992 0 3.983 0 3.983-2.352s0-4.704-1.991-4.704c0 0-1.992 0-3.983 2.352zm-29.769-16.374c0 2.352 0 4.704 1.991 4.704s3.982 0 3.982-2.352 0-4.703-1.991-4.703-3.982-.001-3.982 2.351zm-31.861-16.373c0 2.352 0 4.704 1.991 4.704 1.992 0 3.983 0 3.983-2.352s0-4.704-1.991-4.704c0 0-1.992 0-3.983 2.352zM93.8 181.033c0 2.351 0 4.703 1.991 4.703s3.983 0 3.983-2.352c0-2.351 0-4.702-1.992-4.702 0 0-1.99 0-3.982 2.351zm63.62 70.195c0 2.352 0 4.704 1.991 4.704s3.983 0 3.983-2.352 0-4.704-1.992-4.704c-1.991 0-3.982 0-3.982 2.352zm-31.86-16.373c0 2.352 0 4.704 1.991 4.704s3.982 0 3.982-2.352 0-4.704-1.991-4.704c0 0-1.991 0-3.982 2.352zm-29.769-16.373c0 2.352 0 4.704 1.991 4.704 1.992 0 3.983-.001 3.983-2.353 0-2.352 0-4.704-1.992-4.704-1.99 0-3.982 0-3.982 2.353zm103.347-25.78c0 2.352 0 4.704 1.991 4.704s3.982 0 3.982-2.352 0-4.704-1.991-4.704-3.982 0-3.982 2.352zm15.83 28.132c0 2.353 0 4.705 1.991 4.705s3.983 0 3.983-2.352c0-2.353 0-4.705-1.992-4.705-1.991 0-3.982 2.352-3.982 2.352zm11.947-23.428c0 2.352 0 4.703 1.991 4.703 1.992 0 3.983 0 3.983-2.351 0-2.352 0-4.703-1.991-4.703-1.992-2.352-3.983 0-3.983 2.351zM62.04 279.27c0 2.352 0 4.704 1.99 4.704 1.992 0 3.983 0 3.983-2.352s0-4.704-1.991-4.704c0 0-1.992 0-3.983 2.352zm-45.701 56.174c0 2.352 0 4.704 1.991 4.704s3.983 0 3.983-2.352 0-4.704-1.992-4.704c0 0-1.99 0-3.982 2.352zm7.965-37.449c0 2.352 0 4.704 1.991 4.704s3.982 0 3.982-2.352 0-4.704-1.99-4.704c-1.992 0-3.983 0-3.983 2.352zm7.965-35.099c0 2.352 0 4.704 1.99 4.704 1.992 0 3.983 0 3.983-2.352s0-4.704-1.99-4.704c-.1 0-3.983 0-3.983 2.352z" fill="#FF9D00"/><path opacity=".4" d="M1 237v-10.373c84.318 160.026 224.848 243.686 335.137 298.326 9.956 0 17.921-4.704 7.965-49.118-17.922-98.237 67.504-229.31 67.504-229.31 19.912 14.021 31.76 23.429 31.76 23.429 65.513 58.526 87.417 145.093 57.647 224.605-17.821 44.505-45.699 74.899-81.442 88.92-3.983 2.352-7.965 2.352-11.948 4.704-3.982 2.352-7.965 2.352-11.948 2.352h-7.965c-19.912 4.703-41.717 2.351-65.512 0 0 0-221.533-59.022-321.198-255.129V237z" fill="#FFB000"/><path opacity=".5" d="M501.114 494.558c-9.957 28.042-25.787 49.119-43.709 65.491l-75.469-53.822c-21.904-16.373-33.752-46.766-29.769-77.25 7.965-46.767 25.787-116.962 59.638-180.192 19.913 14.021 31.761 23.429 31.761 23.429 65.413 56.174 87.317 142.832 57.548 222.344z" fill="#2F306B"/><path opacity=".5" d="M501.113 494.557c-7.965 21.077-17.822 37.45-29.769 51.471l-81.443-58.526c-17.922-11.669-25.787-35.098-21.904-58.526 7.965-42.153 23.895-112.348 57.647-175.487 11.947 9.407 17.921 14.02 17.921 14.02 65.413 60.969 87.317 147.536 57.548 227.048z" fill="url(#paint3_linear)"/><path opacity=".4" d="M493.148 410.344c3.982 0 5.974-2.352 5.974-4.704-1.992-32.746-13.939-58.526-31.761-79.603-1.991-2.352-3.983-2.352-5.974 0s-1.991 4.704 0 7.056c17.921 18.725 27.778 44.505 29.769 74.899-1.991 0 0 2.352 1.992 2.352zm-11.947 81.862c1.991 0 3.982 0 5.974-2.352 0 0 9.956-28.041 11.947-53.821 0-2.352-1.991-4.704-3.982-4.704-1.992 0-3.983 2.352-3.983 4.704-1.991 25.689-11.947 51.469-11.947 51.469-1.992.091 0 2.352 1.991 4.704z" fill="#fff"/><path opacity=".5" d="M216.96 529.656c-3.983 9.317 0 18.724 5.973 21.076 7.965 4.703 15.93 0 17.922-7.055 3.982-9.408 0-18.724-5.974-21.076-5.974-4.613-13.939-2.261-17.921 7.055z" fill="#2F306B"/><path opacity=".5" d="M280.581 665.343c3.982 2.352 7.965 0 9.956-2.352 1.991-4.704 1.991-9.408-1.991-14.021l-35.744-32.746c-11.947-11.669-19.912-30.394-17.921-49.119l1.991-30.393c0-4.704-1.991-9.317-7.965-9.317-3.982 0-7.965 2.351-7.965 9.317l-1.991 30.393c-1.992 25.781 7.965 49.119 23.895 65.492l37.735 32.746z" fill="#0981F3"/><g opacity=".12"><path opacity=".8" d="M304.377 646.617L1926.5 1449.5l-8.5 2025.63L276.599 686.328l27.778-39.711z" fill="url(#paint4_linear)"/><path opacity=".5" d="M262.66 677.101l5.974 11.669c1.991 4.704 7.965 4.704 9.956 2.352l31.761-37.449c3.982-4.704 1.991-9.408 0-11.669l-7.965-7.056c-5.974-4.704-13.939-4.704-19.813 2.352l-15.931 18.725c-7.965 4.704-7.965 14.021-3.982 21.076z" fill="#00CBFF"/></g><defs><linearGradient id="paint0_linear" x1="190.838" y1="396.137" x2="244.438" y2="270.058" gradientUnits="userSpaceOnUse"><stop stop-color="#4F00BC"/><stop offset=".595" stop-color="#387ED3"/><stop offset="1" stop-color="#29D4E2"/></linearGradient><linearGradient id="paint1_linear" x1="191.413" y1="389.51" x2="242.357" y2="269.678" gradientUnits="userSpaceOnUse"><stop stop-color="#4F00BC"/><stop offset=".595" stop-color="#387ED3"/><stop offset="1" stop-color="#29D4E2"/></linearGradient><linearGradient id="paint2_linear" x1="267.9" y1="140.612" x2="459.299" y2="214.956" gradientUnits="userSpaceOnUse"><stop stop-color="#4F00BC"/><stop offset="1" stop-color="#29D4E2"/></linearGradient><linearGradient id="paint3_linear" x1="323.527" y1="365.868" x2="683.991" y2="484.319" gradientUnits="userSpaceOnUse"><stop stop-color="#4F00BC"/><stop offset="1" stop-color="#29D4E2"/></linearGradient><linearGradient id="paint4_linear" x1="-693.449" y1="490.735" x2="582.74" y2="1654.04" gradientUnits="userSpaceOnUse"><stop stop-color="#fff"/><stop offset="1" stop-color="#fff"/></linearGradient></defs></svg>