<svg width="25" height="25" fill="none" xmlns="http://www.w3.org/2000/svg"><path fill-rule="evenodd" clip-rule="evenodd" d="M18.301 5.146a1.495 1.495 0 00-1.493 1.493 1.49 1.49 0 001.495 1.492 1.495 1.495 0 001.38-2.064 1.492 1.492 0 00-1.382-.92zm-6.229 3.857a3.795 3.795 0 013.793 3.79 3.787 3.787 0 01-3.795 3.79 3.795 3.795 0 01-3.792-3.791 3.787 3.787 0 013.794-3.789zm0-2.417a6.207 6.207 0 00-6.212 6.206 6.207 6.207 0 006.212 6.206 6.207 6.207 0 006.212-6.206 6.207 6.207 0 00-6.212-6.206zM7.216.792h9.713c3.826 0 6.967 3.017 7.156 6.789v10.062c0 3.823-3.02 6.96-6.796 7.149H7.216c-3.827 0-6.968-3.017-7.156-6.789V7.941C.06 4.118 3.08.98 6.855.792H16.93 7.216zm14.449 16.851a4.728 4.728 0 01-2.924 4.372 4.74 4.74 0 01-1.812.36H7.216a4.738 4.738 0 01-3.35-1.386 4.729 4.729 0 01-1.387-3.346V7.941c0-1.255.5-2.459 1.387-3.346a4.739 4.739 0 013.35-1.386h9.713a4.741 4.741 0 014.375 2.92c.238.575.36 1.19.36 1.812v9.702z" fill="#fff"/></svg>