<svg width="330" height="285" fill="none" xmlns="http://www.w3.org/2000/svg"><path d="M152.256 66.267c14.4 8.039 30.6 13.063 42.45 25.205 14.175 14.571 19.65 36.427 26.625 56.525 6.975 20.097 17.925 41.032 36.45 46.977 14.4 4.606 31.875-.418 43.05 10.552 4.65 4.605 15.675 14.654 18.15 21.018 6 15.743 6.9 27.969 9.45 43.963.375 2.345 1.65 4.522.975 6.783-.675 2.345-2.85 3.769-4.875 4.69-14.025 6.448-30.225.837-43.65-7.035-13.5-7.955-26.175-18.255-41.1-21.688.225 8.876-8.475 11.137-15.375 14.152-7.425 3.182-12.975 5.778-20.775 4.019-8.175-1.758-15.375-3.181-22.35-8.038-4.65-3.266-9.675-4.857-14.85-6.951-9.45-3.768-19.725-.754-29.475 1.759-35.175 8.876-74.325 9.881-105-11.305-12.225-8.458-23.4-21.94-23.625-38.102 10.725 10.384 35.85 9.965 49.8 6.951 19.875-4.104 27.75 1.005 45.3-10.133-2.4-4.605-14.1-13.733-20.475-18.422-13.5-10.049-17.25-19.93-32.1-26.965-14.925-7.034-22.35-20.767-25.65-38.603-1.575-8.626-7.575-15.995-7.125-24.871 1.05-23.196-5.775-41.786-14.4-62.218C-1.644 21.969-3.594-1.813 14.856.28c14.475 1.675 26.1 20.349 41.175 23.782 17.7 3.936 32.625 1.424 49.5 10.97 16.35 8.96 30.45 22.107 46.725 31.235z" fill="#5C97C1"/></svg>