<svg width="32" height="35" fill="none" xmlns="http://www.w3.org/2000/svg"><path d="M27.49 13.754c0-1.132-1.027-2.054-2.286-2.054h-5.117c.311-.846.8-2.423.8-4.033 0-1.733-.856-3.257-2.178-3.883-.89-.42-1.867-.372-2.679.13a.448.448 0 00-.22.377v2.462c0 1.624-1.284 2.871-2.647 4.192-.503.489-1.008.985-1.458 1.505V23.5a4.267 4.267 0 002.074.525h9.672c1.12 0 2.033-.82 2.033-1.826a1.7 1.7 0 00-.375-1.053c.643-.364 1.059-1.004 1.059-1.732 0-.364-.11-.72-.314-1.03.628-.373 1.026-1.008 1.026-1.71 0-.439-.154-.856-.432-1.199.633-.367 1.041-1.008 1.041-1.721zM9.716 11.717H5.147c-.562 0-1.016.408-1.016.913v10.957c0 .504.454.913 1.016.913h4.57c.56 0 1.014-.409 1.014-.913V12.63c0-.505-.454-.913-1.015-.913zm-1.418 11.47c-.537 0-.973-.392-.973-.875s.436-.875.973-.875c.538 0 .974.392.974.875s-.436.875-.974.875z" fill="#FDFF85"/></svg>