<svg width="586" height="392" fill="none" xmlns="http://www.w3.org/2000/svg"><path d="M258.009 114.871s12.108-24.258 122.706-8.748c9.264 8.748-13.164 46.678-41.769 50.574-29.904 1.249-89.226-31.241-80.937-41.826zm264.022 71.817s22.591 13.304 37.95 33.813c15.359 20.435 21.941 58.071 0 64.761-21.941 6.615-79.556-41.091-79.556-41.091l41.606-57.483z" fill="#4488B7"/><path d="M368.932 103.11S460.515-2.668 531.539.052c56.477 8.012 73.055 36.9 28.279 142.605-44.776 105.778-130.508 162.452-211.283 178.992-80.775 16.539-148.954 18.891-186.904 13.746l-35.105 9.85 31.123 45.795h-25.272S83.7 369.061 89.551 351.934c-53.47.368-87.6-17.127-89.551-25.14 86.626-4.41 98.328-8.6 98.328-8.6s9.67-68.877 159.599-111.144c75.981-42.488 111.005-103.94 111.005-103.94z" fill="#4488B7"/><path opacity=".13" d="M478.962 40.554s68.585-19.185 88.007 29.036c3.657 21.17-11.702 73.361-75.574 60.791-54.04-14.187-44.532-65.054-25.923-79.241 10.158-7.94 13.49-10.586 13.49-10.586z" fill="#4488B7"/><path d="M471.648 59.667c8.37-.515 16.741-.588 25.192-.515 8.37.074 16.74.588 25.272 1.617 1.138.074 2.113.294 3.17.515 1.137.22 2.113.294 3.169.588 1.138.22 2.113.367 3.169.735l1.544.515.813.294.813.367 1.543.809c.407.294.894.588 1.301.882.406.294.894.588 1.3.882l1.219 1.029c1.625 1.397 3.006 2.867 4.307 4.41a66.01 66.01 0 016.582 9.777c1.869 3.381 3.657 6.91 4.957 10.512a157.74 157.74 0 00-6.257-9.777c-2.194-3.16-4.632-6.322-7.314-9.115-2.682-2.793-5.607-5.513-9.02-6.91l-.65-.294-.65-.22-1.463-.368c-.894-.294-1.95-.367-3.007-.588-.975-.22-1.95-.294-3.006-.514-.975-.22-1.951-.294-3.088-.368-4.063-.588-8.289-.882-12.352-1.323l-6.257-.515-6.258-.514c-8.288-.588-16.659-1.176-25.029-1.911z" fill="#4488B7"/></svg>